{
  "header": {
    "keySignatures": [],
    "meta": [],
    "name": "",
    "ppq": 384,
    "tempos": [
      {
        "bpm": 111.000111000111,
        "ticks": 0
      }
    ],
    "timeSignatures": [
      {
        "ticks": 0,
        "timeSignature": [
          4,
          4
        ],
        "measures": 0
      }
    ]
  },
  "tracks": [
    {
      "channel": 1,
      "controlChanges": {},
      "pitchBends": [],
      "instrument": {
        "family": "bass",
        "number": 33,
        "name": "electric bass (finger)"
      },
      "name": "FINGERDBAS",
      "notes": [
        {
          "duration": 0.1548421874999999,
          "durationTicks": 110,
          "midi": 38,
          "name": "D2",
          "ticks": 7668,
          "time": 10.793908125,
          "velocity": 0.8740157480314961
        },
        {
          "duration": 0.1069818749999989,
          "durationTicks": 76,
          "midi": 38,
          "name": "D2",
          "ticks": 7924,
          "time": 11.154268125000002,
          "velocity": 0.8110236220472441
        },
        {
          "duration": 0.15202687500000067,
          "durationTicks": 108,
          "midi": 38,
          "name": "D2",
          "ticks": 8052,
          "time": 11.334448125,
          "velocity": 0.84251968503937
        },
        {
          "duration": 0.09853593750000122,
          "durationTicks": 70,
          "midi": 38,
          "name": "D2",
          "ticks": 8318,
          "time": 11.7088846875,
          "velocity": 0.8110236220472441
        },
        {
          "duration": 0.15202687500000067,
          "durationTicks": 108,
          "midi": 38,
          "name": "D2",
          "ticks": 8436,
          "time": 11.874988125,
          "velocity": 0.84251968503937
        },
        {
          "duration": 0.1069818749999989,
          "durationTicks": 76,
          "midi": 38,
          "name": "D2",
          "ticks": 8692,
          "time": 12.235348125000002,
          "velocity": 0.8110236220472441
        },
        {
          "duration": 0.18018,
          "durationTicks": 128,
          "midi": 38,
          "name": "D2",
          "ticks": 8820,
          "time": 12.415528125,
          "velocity": 0.8110236220472441
        },
        {
          "duration": 0.10416656249999967,
          "durationTicks": 74,
          "midi": 38,
          "name": "D2",
          "ticks": 9078,
          "time": 12.7787034375,
          "velocity": 0.8110236220472441
        },
        {
          "duration": 0.1576575000000009,
          "durationTicks": 112,
          "midi": 38,
          "name": "D2",
          "ticks": 9200,
          "time": 12.9504375,
          "velocity": 0.84251968503937
        },
        {
          "duration": 0.11261249999999912,
          "durationTicks": 80,
          "midi": 38,
          "name": "D2",
          "ticks": 9460,
          "time": 13.316428125000002,
          "velocity": 0.8110236220472441
        },
        {
          "duration": 0.14921156250000145,
          "durationTicks": 106,
          "midi": 38,
          "name": "D2",
          "ticks": 9590,
          "time": 13.499423437499999,
          "velocity": 0.84251968503937
        },
        {
          "duration": 0.10135125000000045,
          "durationTicks": 72,
          "midi": 38,
          "name": "D2",
          "ticks": 9846,
          "time": 13.8597834375,
          "velocity": 0.8110236220472441
        },
        {
          "duration": 0.15202687500000067,
          "durationTicks": 108,
          "midi": 38,
          "name": "D2",
          "ticks": 9972,
          "time": 14.037148125,
          "velocity": 0.84251968503937
        },
        {
          "duration": 0.11542781250000189,
          "durationTicks": 82,
          "midi": 38,
          "name": "D2",
          "ticks": 10224,
          "time": 14.3918775,
          "velocity": 0.8110236220472441
        },
        {
          "duration": 0.17736468750000078,
          "durationTicks": 126,
          "midi": 38,
          "name": "D2",
          "ticks": 10354,
          "time": 14.5748728125,
          "velocity": 0.8110236220472441
        },
        {
          "duration": 0.10416656249999967,
          "durationTicks": 74,
          "midi": 38,
          "name": "D2",
          "ticks": 10614,
          "time": 14.940863437500001,
          "velocity": 0.8110236220472441
        },
        {
          "duration": 0.14076562499999845,
          "durationTicks": 100,
          "midi": 38,
          "name": "D2",
          "ticks": 10750,
          "time": 15.132304687500001,
          "velocity": 0.84251968503937
        },
        {
          "duration": 0.10698187500000067,
          "durationTicks": 76,
          "midi": 38,
          "name": "D2",
          "ticks": 10998,
          "time": 15.481403437500001,
          "velocity": 0.8110236220472441
        },
        {
          "duration": 0.1548421874999999,
          "durationTicks": 110,
          "midi": 38,
          "name": "D2",
          "ticks": 11124,
          "time": 15.658768125,
          "velocity": 0.84251968503937
        },
        {
          "duration": 0.1097971874999999,
          "durationTicks": 78,
          "midi": 38,
          "name": "D2",
          "ticks": 11378,
          "time": 16.0163128125,
          "velocity": 0.8110236220472441
        },
        {
          "duration": 0.15484218749999812,
          "durationTicks": 110,
          "midi": 38,
          "name": "D2",
          "ticks": 11508,
          "time": 16.199308125,
          "velocity": 0.84251968503937
        },
        {
          "duration": 0.1097971874999999,
          "durationTicks": 78,
          "midi": 38,
          "name": "D2",
          "ticks": 11760,
          "time": 16.5540375,
          "velocity": 0.8110236220472441
        },
        {
          "duration": 0.17173406250000056,
          "durationTicks": 122,
          "midi": 38,
          "name": "D2",
          "ticks": 11896,
          "time": 16.74547875,
          "velocity": 0.8110236220472441
        },
        {
          "duration": 0.1041665624999979,
          "durationTicks": 74,
          "midi": 38,
          "name": "D2",
          "ticks": 12148,
          "time": 17.100208125,
          "velocity": 0.8110236220472441
        },
        {
          "duration": 0.15202687500000422,
          "durationTicks": 108,
          "midi": 38,
          "name": "D2",
          "ticks": 12278,
          "time": 17.2832034375,
          "velocity": 0.84251968503937
        },
        {
          "duration": 0.10135125000000045,
          "durationTicks": 72,
          "midi": 38,
          "name": "D2",
          "ticks": 12534,
          "time": 17.6435634375,
          "velocity": 0.8110236220472441
        },
        {
          "duration": 0.14921156250000323,
          "durationTicks": 106,
          "midi": 38,
          "name": "D2",
          "ticks": 12664,
          "time": 17.82655875,
          "velocity": 0.84251968503937
        },
        {
          "duration": 0.11542781249999834,
          "durationTicks": 82,
          "midi": 38,
          "name": "D2",
          "ticks": 12912,
          "time": 18.1756575,
          "velocity": 0.8110236220472441
        },
        {
          "duration": 0.15484218750000167,
          "durationTicks": 110,
          "midi": 38,
          "name": "D2",
          "ticks": 13044,
          "time": 18.361468125000002,
          "velocity": 0.84251968503937
        },
        {
          "duration": 0.11261250000000089,
          "durationTicks": 80,
          "midi": 38,
          "name": "D2",
          "ticks": 13296,
          "time": 18.7161975,
          "velocity": 0.8110236220472441
        },
        {
          "duration": 0.18299531249999745,
          "durationTicks": 130,
          "midi": 38,
          "name": "D2",
          "ticks": 13424,
          "time": 18.896377500000003,
          "velocity": 0.8110236220472441
        },
        {
          "duration": 0.10416656250000145,
          "durationTicks": 74,
          "midi": 38,
          "name": "D2",
          "ticks": 13686,
          "time": 19.2651834375,
          "velocity": 0.8110236220472441
        },
        {
          "duration": 0.13795031250000278,
          "durationTicks": 98,
          "midi": 38,
          "name": "D2",
          "ticks": 13824,
          "time": 19.45944,
          "velocity": 0.84251968503937
        },
        {
          "duration": 0.11261250000000089,
          "durationTicks": 80,
          "midi": 38,
          "name": "D2",
          "ticks": 14064,
          "time": 19.7972775,
          "velocity": 0.8110236220472441
        },
        {
          "duration": 0.15484218750000167,
          "durationTicks": 110,
          "midi": 38,
          "name": "D2",
          "ticks": 14196,
          "time": 19.983088125000002,
          "velocity": 0.84251968503937
        },
        {
          "duration": 0.09290531249999745,
          "durationTicks": 66,
          "midi": 38,
          "name": "D2",
          "ticks": 14462,
          "time": 20.357524687500003,
          "velocity": 0.8110236220472441
        },
        {
          "duration": 0.14921156249999612,
          "durationTicks": 106,
          "midi": 38,
          "name": "D2",
          "ticks": 14582,
          "time": 20.526443437500003,
          "velocity": 0.84251968503937
        },
        {
          "duration": 0.1069818749999989,
          "durationTicks": 76,
          "midi": 38,
          "name": "D2",
          "ticks": 14838,
          "time": 20.8868034375,
          "velocity": 0.8110236220472441
        },
        {
          "duration": 0.174549374999998,
          "durationTicks": 124,
          "midi": 38,
          "name": "D2",
          "ticks": 14966,
          "time": 21.066983437500003,
          "velocity": 0.8110236220472441
        },
        {
          "duration": 0.11261250000000089,
          "durationTicks": 80,
          "midi": 38,
          "name": "D2",
          "ticks": 15216,
          "time": 21.4188975,
          "velocity": 0.8110236220472441
        },
        {
          "duration": 0.15484218750000167,
          "durationTicks": 110,
          "midi": 38,
          "name": "D2",
          "ticks": 15348,
          "time": 21.604708125000002,
          "velocity": 0.84251968503937
        },
        {
          "duration": 0.10698187500000245,
          "durationTicks": 76,
          "midi": 38,
          "name": "D2",
          "ticks": 15604,
          "time": 21.965068125,
          "velocity": 0.8110236220472441
        },
        {
          "duration": 0.15484218749999812,
          "durationTicks": 110,
          "midi": 38,
          "name": "D2",
          "ticks": 15730,
          "time": 22.1424328125,
          "velocity": 0.84251968503937
        },
        {
          "duration": 0.11261250000000089,
          "durationTicks": 80,
          "midi": 38,
          "name": "D2",
          "ticks": 15984,
          "time": 22.4999775,
          "velocity": 0.8110236220472441
        },
        {
          "duration": 0.15202687500000067,
          "durationTicks": 108,
          "midi": 38,
          "name": "D2",
          "ticks": 16118,
          "time": 22.688603437500003,
          "velocity": 0.84251968503937
        },
        {
          "duration": 0.11261250000000089,
          "durationTicks": 80,
          "midi": 38,
          "name": "D2",
          "ticks": 16368,
          "time": 23.0405175,
          "velocity": 0.8110236220472441
        },
        {
          "duration": 0.17173406250000056,
          "durationTicks": 122,
          "midi": 38,
          "name": "D2",
          "ticks": 16500,
          "time": 23.226328125000002,
          "velocity": 0.8110236220472441
        },
        {
          "duration": 0.11261250000000089,
          "durationTicks": 80,
          "midi": 38,
          "name": "D2",
          "ticks": 16752,
          "time": 23.5810575,
          "velocity": 0.8110236220472441
        },
        {
          "duration": 0.13231968749999723,
          "durationTicks": 94,
          "midi": 38,
          "name": "D2",
          "ticks": 16896,
          "time": 23.78376,
          "velocity": 0.84251968503937
        },
        {
          "duration": 0.1069818749999989,
          "durationTicks": 76,
          "midi": 38,
          "name": "D2",
          "ticks": 17142,
          "time": 24.1300434375,
          "velocity": 0.8110236220472441
        },
        {
          "duration": 0.14639624999999512,
          "durationTicks": 104,
          "midi": 38,
          "name": "D2",
          "ticks": 17270,
          "time": 24.310223437500003,
          "velocity": 0.84251968503937
        },
        {
          "duration": 0.09290531249999745,
          "durationTicks": 66,
          "midi": 38,
          "name": "D2",
          "ticks": 17534,
          "time": 24.681844687500003,
          "velocity": 0.8110236220472441
        },
        {
          "duration": 0.15202687500000067,
          "durationTicks": 108,
          "midi": 38,
          "name": "D2",
          "ticks": 17654,
          "time": 24.850763437500003,
          "velocity": 0.84251968503937
        },
        {
          "duration": 0.10416656250000145,
          "durationTicks": 74,
          "midi": 38,
          "name": "D2",
          "ticks": 17910,
          "time": 25.2111234375,
          "velocity": 0.8110236220472441
        },
        {
          "duration": 0.18018,
          "durationTicks": 128,
          "midi": 38,
          "name": "D2",
          "ticks": 18036,
          "time": 25.388488125000002,
          "velocity": 0.8110236220472441
        },
        {
          "duration": 0.10416656250000145,
          "durationTicks": 74,
          "midi": 38,
          "name": "D2",
          "ticks": 18294,
          "time": 25.7516634375,
          "velocity": 0.8110236220472441
        },
        {
          "duration": 0.15202687499999712,
          "durationTicks": 108,
          "midi": 38,
          "name": "D2",
          "ticks": 18420,
          "time": 25.929028125000002,
          "velocity": 0.84251968503937
        },
        {
          "duration": 0.1097971874999999,
          "durationTicks": 78,
          "midi": 38,
          "name": "D2",
          "ticks": 18674,
          "time": 26.2865728125,
          "velocity": 0.8110236220472441
        },
        {
          "duration": 0.15765749999999912,
          "durationTicks": 112,
          "midi": 38,
          "name": "D2",
          "ticks": 18804,
          "time": 26.469568125000002,
          "velocity": 0.84251968503937
        },
        {
          "duration": 0.09853593749999945,
          "durationTicks": 70,
          "midi": 38,
          "name": "D2",
          "ticks": 19064,
          "time": 26.83555875,
          "velocity": 0.8110236220472441
        },
        {
          "duration": 0.14639624999999512,
          "durationTicks": 104,
          "midi": 38,
          "name": "D2",
          "ticks": 19190,
          "time": 27.012923437500003,
          "velocity": 0.84251968503937
        },
        {
          "duration": 0.10698187500000245,
          "durationTicks": 76,
          "midi": 38,
          "name": "D2",
          "ticks": 19444,
          "time": 27.370468125,
          "velocity": 0.8110236220472441
        },
        {
          "duration": 0.182995312500001,
          "durationTicks": 130,
          "midi": 38,
          "name": "D2",
          "ticks": 19570,
          "time": 27.5478328125,
          "velocity": 0.8110236220472441
        },
        {
          "duration": 0.10698187500000245,
          "durationTicks": 76,
          "midi": 38,
          "name": "D2",
          "ticks": 19828,
          "time": 27.911008125,
          "velocity": 0.8110236220472441
        },
        {
          "duration": 0.14076562499999667,
          "durationTicks": 100,
          "midi": 38,
          "name": "D2",
          "ticks": 19964,
          "time": 28.102449375000003,
          "velocity": 0.8740157480314961
        },
        {
          "duration": 0.10416656250000145,
          "durationTicks": 74,
          "midi": 38,
          "name": "D2",
          "ticks": 20212,
          "time": 28.451548125,
          "velocity": 0.8110236220472441
        },
        {
          "duration": 0.15484218749999457,
          "durationTicks": 110,
          "midi": 38,
          "name": "D2",
          "ticks": 20336,
          "time": 28.626097500000004,
          "velocity": 0.84251968503937
        },
        {
          "duration": 0.1069818749999989,
          "durationTicks": 76,
          "midi": 38,
          "name": "D2",
          "ticks": 20594,
          "time": 28.9892728125,
          "velocity": 0.8110236220472441
        },
        {
          "duration": 0.15765749999999557,
          "durationTicks": 112,
          "midi": 38,
          "name": "D2",
          "ticks": 20720,
          "time": 29.166637500000004,
          "velocity": 0.84251968503937
        },
        {
          "duration": 0.11542781249999834,
          "durationTicks": 82,
          "midi": 38,
          "name": "D2",
          "ticks": 20976,
          "time": 29.5269975,
          "velocity": 0.8110236220472441
        },
        {
          "duration": 0.177364687499999,
          "durationTicks": 126,
          "midi": 38,
          "name": "D2",
          "ticks": 21108,
          "time": 29.712808125000002,
          "velocity": 0.8110236220472441
        },
        {
          "duration": 0.10698187500000245,
          "durationTicks": 76,
          "midi": 38,
          "name": "D2",
          "ticks": 21364,
          "time": 30.073168125,
          "velocity": 0.8110236220472441
        },
        {
          "duration": 0.15484218749999812,
          "durationTicks": 110,
          "midi": 38,
          "name": "D2",
          "ticks": 21490,
          "time": 30.2505328125,
          "velocity": 0.84251968503937
        },
        {
          "duration": 0.10698187500000245,
          "durationTicks": 76,
          "midi": 38,
          "name": "D2",
          "ticks": 21748,
          "time": 30.613708125,
          "velocity": 0.8110236220472441
        },
        {
          "duration": 0.15484218749999812,
          "durationTicks": 110,
          "midi": 38,
          "name": "D2",
          "ticks": 21874,
          "time": 30.7910728125,
          "velocity": 0.84251968503937
        },
        {
          "duration": 0.11261250000000089,
          "durationTicks": 80,
          "midi": 38,
          "name": "D2",
          "ticks": 22128,
          "time": 31.1486175,
          "velocity": 0.8110236220472441
        },
        {
          "duration": 0.15765749999999557,
          "durationTicks": 112,
          "midi": 38,
          "name": "D2",
          "ticks": 22256,
          "time": 31.328797500000004,
          "velocity": 0.84251968503937
        },
        {
          "duration": 0.1097971874999999,
          "durationTicks": 78,
          "midi": 38,
          "name": "D2",
          "ticks": 22516,
          "time": 31.694788125,
          "velocity": 0.8110236220472441
        },
        {
          "duration": 0.17736468749999545,
          "durationTicks": 126,
          "midi": 38,
          "name": "D2",
          "ticks": 22644,
          "time": 31.874968125000002,
          "velocity": 0.8110236220472441
        },
        {
          "duration": 0.11261250000000445,
          "durationTicks": 80,
          "midi": 38,
          "name": "D2",
          "ticks": 22896,
          "time": 32.2296975,
          "velocity": 0.8110236220472441
        },
        {
          "duration": 0.15484218750000167,
          "durationTicks": 110,
          "midi": 38,
          "name": "D2",
          "ticks": 23026,
          "time": 32.4126928125,
          "velocity": 0.84251968503937
        },
        {
          "duration": 0.1041665624999979,
          "durationTicks": 74,
          "midi": 38,
          "name": "D2",
          "ticks": 23284,
          "time": 32.775868125,
          "velocity": 0.8110236220472441
        },
        {
          "duration": 0.14921156249999967,
          "durationTicks": 106,
          "midi": 38,
          "name": "D2",
          "ticks": 23414,
          "time": 32.9588634375,
          "velocity": 0.84251968503937
        },
        {
          "duration": 0.098535937500003,
          "durationTicks": 70,
          "midi": 38,
          "name": "D2",
          "ticks": 23676,
          "time": 33.327669375,
          "velocity": 0.8110236220472441
        },
        {
          "duration": 0.15765750000000622,
          "durationTicks": 112,
          "midi": 38,
          "name": "D2",
          "ticks": 23794,
          "time": 33.4937728125,
          "velocity": 0.84251968503937
        },
        {
          "duration": 0.104166562500005,
          "durationTicks": 74,
          "midi": 38,
          "name": "D2",
          "ticks": 24054,
          "time": 33.8597634375,
          "velocity": 0.8110236220472441
        },
        {
          "duration": 0.18018,
          "durationTicks": 128,
          "midi": 38,
          "name": "D2",
          "ticks": 24176,
          "time": 34.0314975,
          "velocity": 0.8110236220472441
        },
        {
          "duration": 0.11261250000000445,
          "durationTicks": 80,
          "midi": 38,
          "name": "D2",
          "ticks": 24432,
          "time": 34.3918575,
          "velocity": 0.8110236220472441
        },
        {
          "duration": 0.15484218750000167,
          "durationTicks": 110,
          "midi": 38,
          "name": "D2",
          "ticks": 24562,
          "time": 34.5748528125,
          "velocity": 0.84251968503937
        },
        {
          "duration": 0.10698187499999534,
          "durationTicks": 76,
          "midi": 38,
          "name": "D2",
          "ticks": 24820,
          "time": 34.938028125,
          "velocity": 0.8110236220472441
        },
        {
          "duration": 0.16047281249999656,
          "durationTicks": 114,
          "midi": 38,
          "name": "D2",
          "ticks": 24944,
          "time": 35.1125775,
          "velocity": 0.84251968503937
        },
        {
          "duration": 0.10135125000000045,
          "durationTicks": 72,
          "midi": 38,
          "name": "D2",
          "ticks": 25208,
          "time": 35.48419875,
          "velocity": 0.8110236220472441
        },
        {
          "duration": 0.15484218749999457,
          "durationTicks": 110,
          "midi": 38,
          "name": "D2",
          "ticks": 25332,
          "time": 35.658748125,
          "velocity": 0.84251968503937
        },
        {
          "duration": 0.1041665624999979,
          "durationTicks": 74,
          "midi": 38,
          "name": "D2",
          "ticks": 25588,
          "time": 36.019108125,
          "velocity": 0.8110236220472441
        },
        {
          "duration": 0.18018,
          "durationTicks": 128,
          "midi": 38,
          "name": "D2",
          "ticks": 25712,
          "time": 36.1936575,
          "velocity": 0.8110236220472441
        },
        {
          "duration": 0.1041665624999979,
          "durationTicks": 74,
          "midi": 38,
          "name": "D2",
          "ticks": 25974,
          "time": 36.5624634375,
          "velocity": 0.8110236220472441
        },
        {
          "duration": 0.13795031249999568,
          "durationTicks": 98,
          "midi": 38,
          "name": "D2",
          "ticks": 26110,
          "time": 36.753904687500004,
          "velocity": 0.84251968503937
        },
        {
          "duration": 0.1041665624999979,
          "durationTicks": 74,
          "midi": 38,
          "name": "D2",
          "ticks": 26356,
          "time": 37.100188125,
          "velocity": 0.8110236220472441
        },
        {
          "duration": 0.15765749999999912,
          "durationTicks": 112,
          "midi": 38,
          "name": "D2",
          "ticks": 26480,
          "time": 37.2747375,
          "velocity": 0.84251968503937
        },
        {
          "duration": 0.09572062499999845,
          "durationTicks": 68,
          "midi": 38,
          "name": "D2",
          "ticks": 26748,
          "time": 37.651989375,
          "velocity": 0.8110236220472441
        },
        {
          "duration": 0.15202687499999712,
          "durationTicks": 108,
          "midi": 38,
          "name": "D2",
          "ticks": 26868,
          "time": 37.820908125,
          "velocity": 0.84251968503937
        },
        {
          "duration": 0.1041665624999979,
          "durationTicks": 74,
          "midi": 38,
          "name": "D2",
          "ticks": 27124,
          "time": 38.181268125,
          "velocity": 0.8110236220472441
        },
        {
          "duration": 0.17736468749999545,
          "durationTicks": 126,
          "midi": 38,
          "name": "D2",
          "ticks": 27252,
          "time": 38.361448125,
          "velocity": 0.8110236220472441
        },
        {
          "duration": 0.1041665624999979,
          "durationTicks": 74,
          "midi": 38,
          "name": "D2",
          "ticks": 27510,
          "time": 38.7246234375,
          "velocity": 0.8110236220472441
        },
        {
          "duration": 0.157657499999992,
          "durationTicks": 112,
          "midi": 38,
          "name": "D2",
          "ticks": 27634,
          "time": 38.899172812500005,
          "velocity": 0.84251968503937
        },
        {
          "duration": 0.10698187499999534,
          "durationTicks": 76,
          "midi": 38,
          "name": "D2",
          "ticks": 27892,
          "time": 39.262348125,
          "velocity": 0.8110236220472441
        },
        {
          "duration": 0.14921156249999967,
          "durationTicks": 106,
          "midi": 38,
          "name": "D2",
          "ticks": 28022,
          "time": 39.4453434375,
          "velocity": 0.84251968503937
        },
        {
          "duration": 0.1097971874999999,
          "durationTicks": 78,
          "midi": 38,
          "name": "D2",
          "ticks": 28272,
          "time": 39.7972575,
          "velocity": 0.8110236220472441
        },
        {
          "duration": 0.15484218750000167,
          "durationTicks": 110,
          "midi": 38,
          "name": "D2",
          "ticks": 28400,
          "time": 39.9774375,
          "velocity": 0.84251968503937
        },
        {
          "duration": 0.10698187499999534,
          "durationTicks": 76,
          "midi": 38,
          "name": "D2",
          "ticks": 28660,
          "time": 40.343428125,
          "velocity": 0.8110236220472441
        },
        {
          "duration": 0.17736468749999545,
          "durationTicks": 126,
          "midi": 38,
          "name": "D2",
          "ticks": 28786,
          "time": 40.520792812500005,
          "velocity": 0.8110236220472441
        },
        {
          "duration": 0.1097971874999999,
          "durationTicks": 78,
          "midi": 38,
          "name": "D2",
          "ticks": 29042,
          "time": 40.8811528125,
          "velocity": 0.8110236220472441
        },
        {
          "duration": 0.15765749999999912,
          "durationTicks": 112,
          "midi": 38,
          "name": "D2",
          "ticks": 29168,
          "time": 41.0585175,
          "velocity": 0.84251968503937
        },
        {
          "duration": 0.1097971874999999,
          "durationTicks": 78,
          "midi": 38,
          "name": "D2",
          "ticks": 29426,
          "time": 41.4216928125,
          "velocity": 0.8110236220472441
        },
        {
          "duration": 0.15765749999999912,
          "durationTicks": 112,
          "midi": 38,
          "name": "D2",
          "ticks": 29552,
          "time": 41.5990575,
          "velocity": 0.84251968503937
        },
        {
          "duration": 0.092905312500001,
          "durationTicks": 66,
          "midi": 38,
          "name": "D2",
          "ticks": 29822,
          "time": 41.9791246875,
          "velocity": 0.8110236220472441
        },
        {
          "duration": 0.14921156249999967,
          "durationTicks": 106,
          "midi": 38,
          "name": "D2",
          "ticks": 29942,
          "time": 42.1480434375,
          "velocity": 0.84251968503937
        },
        {
          "duration": 0.1097971874999999,
          "durationTicks": 78,
          "midi": 38,
          "name": "D2",
          "ticks": 30194,
          "time": 42.5027728125,
          "velocity": 0.8110236220472441
        },
        {
          "duration": 0.17173406249999346,
          "durationTicks": 122,
          "midi": 38,
          "name": "D2",
          "ticks": 30324,
          "time": 42.685768125,
          "velocity": 0.8110236220472441
        },
        {
          "duration": 0.1097971874999999,
          "durationTicks": 78,
          "midi": 38,
          "name": "D2",
          "ticks": 30576,
          "time": 43.0404975,
          "velocity": 0.8110236220472441
        },
        {
          "duration": 0.15765749999999912,
          "durationTicks": 112,
          "midi": 38,
          "name": "D2",
          "ticks": 30704,
          "time": 43.2206775,
          "velocity": 0.84251968503937
        },
        {
          "duration": 0.1097971874999999,
          "durationTicks": 78,
          "midi": 38,
          "name": "D2",
          "ticks": 30960,
          "time": 43.5810375,
          "velocity": 0.8110236220472441
        },
        {
          "duration": 0.15202687499999712,
          "durationTicks": 108,
          "midi": 38,
          "name": "D2",
          "ticks": 31092,
          "time": 43.766848125,
          "velocity": 0.84251968503937
        },
        {
          "duration": 0.1041665624999979,
          "durationTicks": 74,
          "midi": 38,
          "name": "D2",
          "ticks": 31350,
          "time": 44.1300234375,
          "velocity": 0.8110236220472441
        },
        {
          "duration": 0.15484218750000167,
          "durationTicks": 110,
          "midi": 38,
          "name": "D2",
          "ticks": 31472,
          "time": 44.3017575,
          "velocity": 0.84251968503937
        },
        {
          "duration": 0.10698187499999534,
          "durationTicks": 76,
          "midi": 38,
          "name": "D2",
          "ticks": 31732,
          "time": 44.667748125,
          "velocity": 0.8110236220472441
        },
        {
          "duration": 0.18018,
          "durationTicks": 128,
          "midi": 38,
          "name": "D2",
          "ticks": 31856,
          "time": 44.8422975,
          "velocity": 0.8110236220472441
        },
        {
          "duration": 0.0985359374999959,
          "durationTicks": 70,
          "midi": 38,
          "name": "D2",
          "ticks": 32122,
          "time": 45.2167340625,
          "velocity": 0.8110236220472441
        },
        {
          "duration": 0.15484218749999457,
          "durationTicks": 110,
          "midi": 40,
          "name": "E2",
          "ticks": 32242,
          "time": 45.385652812500005,
          "velocity": 0.905511811023622
        },
        {
          "duration": 0.1041665624999979,
          "durationTicks": 74,
          "midi": 40,
          "name": "E2",
          "ticks": 32502,
          "time": 45.7516434375,
          "velocity": 0.84251968503937
        },
        {
          "duration": 0.14921156249999257,
          "durationTicks": 106,
          "midi": 40,
          "name": "E2",
          "ticks": 32632,
          "time": 45.934638750000005,
          "velocity": 0.8740157480314961
        },
        {
          "duration": 0.10698187499999534,
          "durationTicks": 76,
          "midi": 40,
          "name": "E2",
          "ticks": 32884,
          "time": 46.289368125,
          "velocity": 0.84251968503937
        },
        {
          "duration": 0.15202687499999712,
          "durationTicks": 108,
          "midi": 40,
          "name": "E2",
          "ticks": 33012,
          "time": 46.469548125,
          "velocity": 0.8740157480314961
        },
        {
          "duration": 0.1041665624999979,
          "durationTicks": 74,
          "midi": 40,
          "name": "E2",
          "ticks": 33270,
          "time": 46.8327234375,
          "velocity": 0.84251968503937
        },
        {
          "duration": 0.17736468749999545,
          "durationTicks": 126,
          "midi": 40,
          "name": "E2",
          "ticks": 33394,
          "time": 47.007272812500005,
          "velocity": 0.84251968503937
        },
        {
          "duration": 0.098535937500003,
          "durationTicks": 70,
          "midi": 40,
          "name": "E2",
          "ticks": 33656,
          "time": 47.37607875,
          "velocity": 0.84251968503937
        },
        {
          "duration": 0.14076562499999312,
          "durationTicks": 100,
          "midi": 42,
          "name": "F#2",
          "ticks": 33790,
          "time": 47.564704687500004,
          "velocity": 0.8740157480314961
        },
        {
          "duration": 0.10698187499999534,
          "durationTicks": 76,
          "midi": 42,
          "name": "F#2",
          "ticks": 34036,
          "time": 47.910988125,
          "velocity": 0.84251968503937
        },
        {
          "duration": 0.15484218749999457,
          "durationTicks": 110,
          "midi": 42,
          "name": "F#2",
          "ticks": 34164,
          "time": 48.091168125,
          "velocity": 0.8740157480314961
        },
        {
          "duration": 0.11261249999999734,
          "durationTicks": 80,
          "midi": 42,
          "name": "F#2",
          "ticks": 34416,
          "time": 48.4458975,
          "velocity": 0.84251968503937
        },
        {
          "duration": 0.15202687499999712,
          "durationTicks": 108,
          "midi": 42,
          "name": "F#2",
          "ticks": 34548,
          "time": 48.631708125,
          "velocity": 0.8740157480314961
        },
        {
          "duration": 0.10698187499999534,
          "durationTicks": 76,
          "midi": 42,
          "name": "F#2",
          "ticks": 34804,
          "time": 48.992068125,
          "velocity": 0.84251968503937
        },
        {
          "duration": 0.17736468749999545,
          "durationTicks": 126,
          "midi": 42,
          "name": "F#2",
          "ticks": 34934,
          "time": 49.1750634375,
          "velocity": 0.84251968503937
        },
        {
          "duration": 0.1097971874999999,
          "durationTicks": 78,
          "midi": 42,
          "name": "F#2",
          "ticks": 35186,
          "time": 49.5297928125,
          "velocity": 0.84251968503937
        },
        {
          "duration": 0.13795031249999568,
          "durationTicks": 98,
          "midi": 43,
          "name": "G2",
          "ticks": 35326,
          "time": 49.726864687500004,
          "velocity": 0.8740157480314961
        },
        {
          "duration": 0.10698187499999534,
          "durationTicks": 76,
          "midi": 43,
          "name": "G2",
          "ticks": 35572,
          "time": 50.073148125,
          "velocity": 0.84251968503937
        },
        {
          "duration": 0.14921156249999967,
          "durationTicks": 106,
          "midi": 43,
          "name": "G2",
          "ticks": 35702,
          "time": 50.2561434375,
          "velocity": 0.8740157480314961
        },
        {
          "duration": 0.1097971874999999,
          "durationTicks": 78,
          "midi": 43,
          "name": "G2",
          "ticks": 35956,
          "time": 50.613688125,
          "velocity": 0.84251968503937
        },
        {
          "duration": 0.14639625000000223,
          "durationTicks": 104,
          "midi": 43,
          "name": "G2",
          "ticks": 36086,
          "time": 50.7966834375,
          "velocity": 0.8740157480314961
        },
        {
          "duration": 0.1097971874999999,
          "durationTicks": 78,
          "midi": 43,
          "name": "G2",
          "ticks": 36340,
          "time": 51.154228125,
          "velocity": 0.84251968503937
        },
        {
          "duration": 0.1801799999999929,
          "durationTicks": 128,
          "midi": 43,
          "name": "G2",
          "ticks": 36468,
          "time": 51.334408125,
          "velocity": 0.84251968503937
        },
        {
          "duration": 0.10698187499999534,
          "durationTicks": 76,
          "midi": 43,
          "name": "G2",
          "ticks": 36724,
          "time": 51.694768125,
          "velocity": 0.84251968503937
        },
        {
          "duration": 0.13795031249999568,
          "durationTicks": 98,
          "midi": 42,
          "name": "F#2",
          "ticks": 36862,
          "time": 51.889024687500005,
          "velocity": 0.8740157480314961
        },
        {
          "duration": 0.1097971874999999,
          "durationTicks": 78,
          "midi": 42,
          "name": "F#2",
          "ticks": 37108,
          "time": 52.235308125,
          "velocity": 0.84251968503937
        },
        {
          "duration": 0.15765749999999912,
          "durationTicks": 112,
          "midi": 42,
          "name": "F#2",
          "ticks": 37232,
          "time": 52.4098575,
          "velocity": 0.8740157480314961
        },
        {
          "duration": 0.1041665624999979,
          "durationTicks": 74,
          "midi": 42,
          "name": "F#2",
          "ticks": 37494,
          "time": 52.7786634375,
          "velocity": 0.84251968503937
        },
        {
          "duration": 0.15484218749999457,
          "durationTicks": 110,
          "midi": 42,
          "name": "F#2",
          "ticks": 37620,
          "time": 52.956028125,
          "velocity": 0.8740157480314961
        },
        {
          "duration": 0.11261250000000445,
          "durationTicks": 80,
          "midi": 42,
          "name": "F#2",
          "ticks": 37874,
          "time": 53.3135728125,
          "velocity": 0.84251968503937
        },
        {
          "duration": 0.168918749999996,
          "durationTicks": 120,
          "midi": 42,
          "name": "F#2",
          "ticks": 38008,
          "time": 53.502198750000005,
          "velocity": 0.84251968503937
        },
        {
          "duration": 0.1041665624999979,
          "durationTicks": 74,
          "midi": 42,
          "name": "F#2",
          "ticks": 38262,
          "time": 53.8597434375,
          "velocity": 0.84251968503937
        },
        {
          "duration": 0.14358093749999767,
          "durationTicks": 102,
          "midi": 40,
          "name": "E2",
          "ticks": 38398,
          "time": 54.051184687500005,
          "velocity": 0.8740157480314961
        },
        {
          "duration": 0.1097971874999999,
          "durationTicks": 78,
          "midi": 40,
          "name": "E2",
          "ticks": 38644,
          "time": 54.397468125,
          "velocity": 0.84251968503937
        },
        {
          "duration": 0.15765749999999912,
          "durationTicks": 112,
          "midi": 40,
          "name": "E2",
          "ticks": 38768,
          "time": 54.5720175,
          "velocity": 0.8740157480314961
        },
        {
          "duration": 0.11261250000000445,
          "durationTicks": 80,
          "midi": 40,
          "name": "E2",
          "ticks": 39026,
          "time": 54.9351928125,
          "velocity": 0.84251968503937
        },
        {
          "duration": 0.14076562499999312,
          "durationTicks": 100,
          "midi": 42,
          "name": "F#2",
          "ticks": 39166,
          "time": 55.132264687500005,
          "velocity": 0.8740157480314961
        },
        {
          "duration": 0.1097971874999999,
          "durationTicks": 78,
          "midi": 42,
          "name": "F#2",
          "ticks": 39412,
          "time": 55.478548125,
          "velocity": 0.84251968503937
        },
        {
          "duration": 0.174549374999998,
          "durationTicks": 124,
          "midi": 42,
          "name": "F#2",
          "ticks": 39542,
          "time": 55.6615434375,
          "velocity": 0.84251968503937
        },
        {
          "duration": 0.11261250000000445,
          "durationTicks": 80,
          "midi": 42,
          "name": "F#2",
          "ticks": 39794,
          "time": 56.0162728125,
          "velocity": 0.84251968503937
        },
        {
          "duration": 0.14076562499999312,
          "durationTicks": 100,
          "midi": 43,
          "name": "G2",
          "ticks": 39934,
          "time": 56.213344687500005,
          "velocity": 0.8740157480314961
        },
        {
          "duration": 0.1041665624999979,
          "durationTicks": 74,
          "midi": 43,
          "name": "G2",
          "ticks": 40182,
          "time": 56.5624434375,
          "velocity": 0.84251968503937
        },
        {
          "duration": 0.15765749999999912,
          "durationTicks": 112,
          "midi": 43,
          "name": "G2",
          "ticks": 40304,
          "time": 56.7341775,
          "velocity": 0.8740157480314961
        },
        {
          "duration": 0.1041665624999979,
          "durationTicks": 74,
          "midi": 43,
          "name": "G2",
          "ticks": 40566,
          "time": 57.1029834375,
          "velocity": 0.84251968503937
        },
        {
          "duration": 0.13795031249999568,
          "durationTicks": 98,
          "midi": 45,
          "name": "A2",
          "ticks": 40702,
          "time": 57.294424687500005,
          "velocity": 0.8740157480314961
        },
        {
          "duration": 0.1041665624999979,
          "durationTicks": 74,
          "midi": 45,
          "name": "A2",
          "ticks": 40950,
          "time": 57.6435234375,
          "velocity": 0.84251968503937
        },
        {
          "duration": 0.1801799999999929,
          "durationTicks": 128,
          "midi": 45,
          "name": "A2",
          "ticks": 41076,
          "time": 57.820888125,
          "velocity": 0.84251968503937
        },
        {
          "duration": 0.10135125000000045,
          "durationTicks": 72,
          "midi": 45,
          "name": "A2",
          "ticks": 41336,
          "time": 58.18687875,
          "velocity": 0.84251968503937
        },
        {
          "duration": 0.14076562499999312,
          "durationTicks": 100,
          "midi": 38,
          "name": "D2",
          "ticks": 41470,
          "time": 58.375504687500005,
          "velocity": 0.8740157480314961
        },
        {
          "duration": 0.10698187499999534,
          "durationTicks": 76,
          "midi": 38,
          "name": "D2",
          "ticks": 41716,
          "time": 58.721788125,
          "velocity": 0.8110236220472441
        },
        {
          "duration": 0.15202687499999712,
          "durationTicks": 108,
          "midi": 38,
          "name": "D2",
          "ticks": 41842,
          "time": 58.899152812500006,
          "velocity": 0.84251968503937
        },
        {
          "duration": 0.1097971874999999,
          "durationTicks": 78,
          "midi": 38,
          "name": "D2",
          "ticks": 42098,
          "time": 59.2595128125,
          "velocity": 0.8110236220472441
        },
        {
          "duration": 0.15765749999999912,
          "durationTicks": 112,
          "midi": 38,
          "name": "D2",
          "ticks": 42224,
          "time": 59.4368775,
          "velocity": 0.84251968503937
        },
        {
          "duration": 0.1097971874999999,
          "durationTicks": 78,
          "midi": 38,
          "name": "D2",
          "ticks": 42484,
          "time": 59.802868125,
          "velocity": 0.8110236220472441
        },
        {
          "duration": 0.174549374999998,
          "durationTicks": 124,
          "midi": 38,
          "name": "D2",
          "ticks": 42614,
          "time": 59.9858634375,
          "velocity": 0.8110236220472441
        },
        {
          "duration": 0.10698187500000245,
          "durationTicks": 76,
          "midi": 38,
          "name": "D2",
          "ticks": 42870,
          "time": 60.3462234375,
          "velocity": 0.8110236220472441
        },
        {
          "duration": 0.15202687499999712,
          "durationTicks": 108,
          "midi": 38,
          "name": "D2",
          "ticks": 42996,
          "time": 60.523588125,
          "velocity": 0.84251968503937
        },
        {
          "duration": 0.10698187499999534,
          "durationTicks": 76,
          "midi": 38,
          "name": "D2",
          "ticks": 43252,
          "time": 60.883948125,
          "velocity": 0.8110236220472441
        },
        {
          "duration": 0.15202687499999712,
          "durationTicks": 108,
          "midi": 38,
          "name": "D2",
          "ticks": 43382,
          "time": 61.0669434375,
          "velocity": 0.84251968503937
        },
        {
          "duration": 0.10135125000000045,
          "durationTicks": 72,
          "midi": 38,
          "name": "D2",
          "ticks": 43642,
          "time": 61.4329340625,
          "velocity": 0.8110236220472441
        },
        {
          "duration": 0.15765749999999912,
          "durationTicks": 112,
          "midi": 38,
          "name": "D2",
          "ticks": 43760,
          "time": 61.5990375,
          "velocity": 0.84251968503937
        },
        {
          "duration": 0.11261249999999734,
          "durationTicks": 80,
          "midi": 38,
          "name": "D2",
          "ticks": 44016,
          "time": 61.9593975,
          "velocity": 0.8110236220472441
        },
        {
          "duration": 0.1858106249999949,
          "durationTicks": 132,
          "midi": 38,
          "name": "D2",
          "ticks": 44144,
          "time": 62.1395775,
          "velocity": 0.8110236220472441
        },
        {
          "duration": 0.1097971874999999,
          "durationTicks": 78,
          "midi": 38,
          "name": "D2",
          "ticks": 44402,
          "time": 62.5027528125,
          "velocity": 0.8110236220472441
        },
        {
          "duration": 0.13795031249999568,
          "durationTicks": 98,
          "midi": 38,
          "name": "D2",
          "ticks": 44542,
          "time": 62.699824687500005,
          "velocity": 0.84251968503937
        },
        {
          "duration": 0.10698187500000245,
          "durationTicks": 76,
          "midi": 38,
          "name": "D2",
          "ticks": 44786,
          "time": 63.0432928125,
          "velocity": 0.8110236220472441
        },
        {
          "duration": 0.15765749999999912,
          "durationTicks": 112,
          "midi": 38,
          "name": "D2",
          "ticks": 44912,
          "time": 63.2206575,
          "velocity": 0.84251968503937
        },
        {
          "duration": 0.09009000000000356,
          "durationTicks": 64,
          "midi": 38,
          "name": "D2",
          "ticks": 45182,
          "time": 63.6007246875,
          "velocity": 0.8110236220472441
        },
        {
          "duration": 0.16328812500000112,
          "durationTicks": 116,
          "midi": 38,
          "name": "D2",
          "ticks": 45296,
          "time": 63.7611975,
          "velocity": 0.84251968503937
        },
        {
          "duration": 0.11542781250000189,
          "durationTicks": 82,
          "midi": 38,
          "name": "D2",
          "ticks": 45552,
          "time": 64.12155750000001,
          "velocity": 0.8110236220472441
        },
        {
          "duration": 0.17736468750000256,
          "durationTicks": 126,
          "midi": 38,
          "name": "D2",
          "ticks": 45686,
          "time": 64.3101834375,
          "velocity": 0.8110236220472441
        },
        {
          "duration": 0.10698187500000245,
          "durationTicks": 76,
          "midi": 38,
          "name": "D2",
          "ticks": 45944,
          "time": 64.67335875,
          "velocity": 0.8110236220472441
        },
        {
          "duration": 0.14639625000000933,
          "durationTicks": 104,
          "midi": 38,
          "name": "D2",
          "ticks": 46072,
          "time": 64.85353875,
          "velocity": 0.84251968503937
        },
        {
          "duration": 0.10135125000000755,
          "durationTicks": 72,
          "midi": 38,
          "name": "D2",
          "ticks": 46328,
          "time": 65.21389875,
          "velocity": 0.8110236220472441
        },
        {
          "duration": 0.15202687500000422,
          "durationTicks": 108,
          "midi": 38,
          "name": "D2",
          "ticks": 46454,
          "time": 65.3912634375,
          "velocity": 0.84251968503937
        },
        {
          "duration": 0.10135124999999334,
          "durationTicks": 72,
          "midi": 38,
          "name": "D2",
          "ticks": 46712,
          "time": 65.75443875,
          "velocity": 0.8110236220472441
        },
        {
          "duration": 0.14921156250001388,
          "durationTicks": 106,
          "midi": 38,
          "name": "D2",
          "ticks": 46838,
          "time": 65.9318034375,
          "velocity": 0.84251968503937
        },
        {
          "duration": 0.1041665624999979,
          "durationTicks": 74,
          "midi": 38,
          "name": "D2",
          "ticks": 47094,
          "time": 66.29216343750001,
          "velocity": 0.8110236220472441
        },
        {
          "duration": 0.1801799999999929,
          "durationTicks": 128,
          "midi": 38,
          "name": "D2",
          "ticks": 47218,
          "time": 66.4667128125,
          "velocity": 0.8110236220472441
        },
        {
          "duration": 0.11542781250000189,
          "durationTicks": 82,
          "midi": 38,
          "name": "D2",
          "ticks": 47472,
          "time": 66.8242575,
          "velocity": 0.8110236220472441
        },
        {
          "duration": 0.13795031249999568,
          "durationTicks": 98,
          "midi": 38,
          "name": "D2",
          "ticks": 47616,
          "time": 67.02696,
          "velocity": 0.8740157480314961
        },
        {
          "duration": 0.10698187500000245,
          "durationTicks": 76,
          "midi": 38,
          "name": "D2",
          "ticks": 47860,
          "time": 67.370428125,
          "velocity": 0.8110236220472441
        },
        {
          "duration": 0.14358093750000478,
          "durationTicks": 102,
          "midi": 38,
          "name": "D2",
          "ticks": 47992,
          "time": 67.55623875,
          "velocity": 0.84251968503937
        },
        {
          "duration": 0.0929053124999939,
          "durationTicks": 66,
          "midi": 38,
          "name": "D2",
          "ticks": 48254,
          "time": 67.9250446875,
          "velocity": 0.8110236220472441
        },
        {
          "duration": 0.14921156250001388,
          "durationTicks": 106,
          "midi": 38,
          "name": "D2",
          "ticks": 48374,
          "time": 68.0939634375,
          "velocity": 0.84251968503937
        },
        {
          "duration": 0.1041665624999979,
          "durationTicks": 74,
          "midi": 38,
          "name": "D2",
          "ticks": 48630,
          "time": 68.45432343750001,
          "velocity": 0.8110236220472441
        },
        {
          "duration": 0.185810625000002,
          "durationTicks": 132,
          "midi": 38,
          "name": "D2",
          "ticks": 48754,
          "time": 68.6288728125,
          "velocity": 0.8110236220472441
        },
        {
          "duration": 0.10698187500000245,
          "durationTicks": 76,
          "midi": 38,
          "name": "D2",
          "ticks": 49014,
          "time": 68.9948634375,
          "velocity": 0.8110236220472441
        },
        {
          "duration": 0.14358093750000478,
          "durationTicks": 102,
          "midi": 38,
          "name": "D2",
          "ticks": 49146,
          "time": 69.1806740625,
          "velocity": 0.84251968503937
        },
        {
          "duration": 0.10698187499998824,
          "durationTicks": 76,
          "midi": 38,
          "name": "D2",
          "ticks": 49398,
          "time": 69.53540343750001,
          "velocity": 0.8110236220472441
        },
        {
          "duration": 0.15765749999999912,
          "durationTicks": 112,
          "midi": 38,
          "name": "D2",
          "ticks": 49520,
          "time": 69.7071375,
          "velocity": 0.84251968503937
        },
        {
          "duration": 0.11261250000001155,
          "durationTicks": 80,
          "midi": 38,
          "name": "D2",
          "ticks": 49776,
          "time": 70.0674975,
          "velocity": 0.8110236220472441
        },
        {
          "duration": 0.15202687500000422,
          "durationTicks": 108,
          "midi": 38,
          "name": "D2",
          "ticks": 49910,
          "time": 70.25612343750001,
          "velocity": 0.84251968503937
        },
        {
          "duration": 0.10698187500000245,
          "durationTicks": 76,
          "midi": 38,
          "name": "D2",
          "ticks": 50164,
          "time": 70.613668125,
          "velocity": 0.8110236220472441
        },
        {
          "duration": 0.16610343749999856,
          "durationTicks": 118,
          "midi": 38,
          "name": "D2",
          "ticks": 50298,
          "time": 70.8022940625,
          "velocity": 0.8110236220472441
        },
        {
          "duration": 0.11542781250000189,
          "durationTicks": 82,
          "midi": 38,
          "name": "D2",
          "ticks": 50544,
          "time": 71.1485775,
          "velocity": 0.8110236220472441
        },
        {
          "duration": 0.13795031249999568,
          "durationTicks": 98,
          "midi": 38,
          "name": "D2",
          "ticks": 50684,
          "time": 71.34564937500001,
          "velocity": 0.84251968503937
        },
        {
          "duration": 0.11542781249998768,
          "durationTicks": 82,
          "midi": 38,
          "name": "D2",
          "ticks": 50928,
          "time": 71.68911750000001,
          "velocity": 0.8110236220472441
        },
        {
          "duration": 0.14921156249999967,
          "durationTicks": 106,
          "midi": 38,
          "name": "D2",
          "ticks": 51062,
          "time": 71.8777434375,
          "velocity": 0.84251968503937
        },
        {
          "duration": 0.09290531250000811,
          "durationTicks": 66,
          "midi": 38,
          "name": "D2",
          "ticks": 51324,
          "time": 72.246549375,
          "velocity": 0.8110236220472441
        },
        {
          "duration": 0.15202687500000422,
          "durationTicks": 108,
          "midi": 38,
          "name": "D2",
          "ticks": 51446,
          "time": 72.41828343750001,
          "velocity": 0.84251968503937
        },
        {
          "duration": 0.10135124999999334,
          "durationTicks": 72,
          "midi": 38,
          "name": "D2",
          "ticks": 51702,
          "time": 72.77864343750001,
          "velocity": 0.8110236220472441
        },
        {
          "duration": 0.17173406249999346,
          "durationTicks": 122,
          "midi": 38,
          "name": "D2",
          "ticks": 51830,
          "time": 72.9588234375,
          "velocity": 0.8110236220472441
        },
        {
          "duration": 0.1041665625000121,
          "durationTicks": 74,
          "midi": 38,
          "name": "D2",
          "ticks": 52086,
          "time": 73.3191834375,
          "velocity": 0.8110236220472441
        },
        {
          "duration": 0.14639625000000933,
          "durationTicks": 104,
          "midi": 38,
          "name": "D2",
          "ticks": 52216,
          "time": 73.50217875,
          "velocity": 0.84251968503937
        },
        {
          "duration": 0.1041665624999979,
          "durationTicks": 74,
          "midi": 38,
          "name": "D2",
          "ticks": 52468,
          "time": 73.856908125,
          "velocity": 0.8110236220472441
        },
        {
          "duration": 0.14921156249999967,
          "durationTicks": 106,
          "midi": 38,
          "name": "D2",
          "ticks": 52598,
          "time": 74.0399034375,
          "velocity": 0.84251968503937
        },
        {
          "duration": 0.11261250000001155,
          "durationTicks": 80,
          "midi": 38,
          "name": "D2",
          "ticks": 52848,
          "time": 74.3918175,
          "velocity": 0.8110236220472441
        },
        {
          "duration": 0.15765749999999912,
          "durationTicks": 112,
          "midi": 38,
          "name": "D2",
          "ticks": 52976,
          "time": 74.57199750000001,
          "velocity": 0.84251968503937
        },
        {
          "duration": 0.1041665624999979,
          "durationTicks": 74,
          "midi": 38,
          "name": "D2",
          "ticks": 53238,
          "time": 74.94080343750001,
          "velocity": 0.8110236220472441
        },
        {
          "duration": 0.1801799999999929,
          "durationTicks": 128,
          "midi": 38,
          "name": "D2",
          "ticks": 53360,
          "time": 75.1125375,
          "velocity": 0.8110236220472441
        },
        {
          "duration": 0.109797187500007,
          "durationTicks": 78,
          "midi": 38,
          "name": "D2",
          "ticks": 53616,
          "time": 75.4728975,
          "velocity": 0.8110236220472441
        },
        {
          "duration": 0.1379503125000099,
          "durationTicks": 98,
          "midi": 38,
          "name": "D2",
          "ticks": 53758,
          "time": 75.6727846875,
          "velocity": 0.84251968503937
        },
        {
          "duration": 0.10135124999999334,
          "durationTicks": 72,
          "midi": 38,
          "name": "D2",
          "ticks": 54006,
          "time": 76.02188343750001,
          "velocity": 0.8110236220472441
        },
        {
          "duration": 0.15202687500000422,
          "durationTicks": 108,
          "midi": 38,
          "name": "D2",
          "ticks": 54132,
          "time": 76.199248125,
          "velocity": 0.84251968503937
        },
        {
          "duration": 0.109797187500007,
          "durationTicks": 78,
          "midi": 38,
          "name": "D2",
          "ticks": 54386,
          "time": 76.5567928125,
          "velocity": 0.8110236220472441
        },
        {
          "duration": 0.15765749999999912,
          "durationTicks": 112,
          "midi": 38,
          "name": "D2",
          "ticks": 54512,
          "time": 76.73415750000001,
          "velocity": 0.84251968503937
        },
        {
          "duration": 0.10698187500000245,
          "durationTicks": 76,
          "midi": 38,
          "name": "D2",
          "ticks": 54772,
          "time": 77.100148125,
          "velocity": 0.8110236220472441
        },
        {
          "duration": 0.17736468750000256,
          "durationTicks": 126,
          "midi": 38,
          "name": "D2",
          "ticks": 54904,
          "time": 77.28595874999999,
          "velocity": 0.8110236220472441
        },
        {
          "duration": 0.10698187500001666,
          "durationTicks": 76,
          "midi": 38,
          "name": "D2",
          "ticks": 55156,
          "time": 77.640688125,
          "velocity": 0.8110236220472441
        },
        {
          "duration": 0.14639625000000933,
          "durationTicks": 104,
          "midi": 38,
          "name": "D2",
          "ticks": 55288,
          "time": 77.82649875,
          "velocity": 0.84251968503937
        },
        {
          "duration": 0.10698187499998824,
          "durationTicks": 76,
          "midi": 38,
          "name": "D2",
          "ticks": 55542,
          "time": 78.18404343750001,
          "velocity": 0.8110236220472441
        },
        {
          "duration": 0.14921156249999967,
          "durationTicks": 106,
          "midi": 38,
          "name": "D2",
          "ticks": 55668,
          "time": 78.361408125,
          "velocity": 0.84251968503937
        },
        {
          "duration": 0.109797187500007,
          "durationTicks": 78,
          "midi": 38,
          "name": "D2",
          "ticks": 55920,
          "time": 78.7161375,
          "velocity": 0.8110236220472441
        },
        {
          "duration": 0.15202687500000422,
          "durationTicks": 108,
          "midi": 38,
          "name": "D2",
          "ticks": 56054,
          "time": 78.90476343750001,
          "velocity": 0.84251968503937
        },
        {
          "duration": 0.10698187500000245,
          "durationTicks": 76,
          "midi": 38,
          "name": "D2",
          "ticks": 56308,
          "time": 79.262308125,
          "velocity": 0.8110236220472441
        },
        {
          "duration": 0.17736468750000256,
          "durationTicks": 126,
          "midi": 38,
          "name": "D2",
          "ticks": 56436,
          "time": 79.442488125,
          "velocity": 0.8110236220472441
        },
        {
          "duration": 0.10135125000000755,
          "durationTicks": 72,
          "midi": 38,
          "name": "D2",
          "ticks": 56694,
          "time": 79.8056634375,
          "velocity": 0.8110236220472441
        },
        {
          "duration": 0.15484218750000878,
          "durationTicks": 110,
          "midi": 38,
          "name": "D2",
          "ticks": 56818,
          "time": 79.9802128125,
          "velocity": 0.84251968503937
        },
        {
          "duration": 0.10979718749999279,
          "durationTicks": 78,
          "midi": 38,
          "name": "D2",
          "ticks": 57072,
          "time": 80.33775750000001,
          "velocity": 0.8110236220472441
        },
        {
          "duration": 0.15484218750000878,
          "durationTicks": 110,
          "midi": 38,
          "name": "D2",
          "ticks": 57202,
          "time": 80.52075281249999,
          "velocity": 0.84251968503937
        },
        {
          "duration": 0.109797187500007,
          "durationTicks": 78,
          "midi": 38,
          "name": "D2",
          "ticks": 57458,
          "time": 80.8811128125,
          "velocity": 0.8110236220472441
        },
        {
          "duration": 0.14358093750000478,
          "durationTicks": 102,
          "midi": 38,
          "name": "D2",
          "ticks": 57594,
          "time": 81.0725540625,
          "velocity": 0.84251968503937
        },
        {
          "duration": 0.1041665624999979,
          "durationTicks": 74,
          "midi": 38,
          "name": "D2",
          "ticks": 57846,
          "time": 81.42728343750001,
          "velocity": 0.8110236220472441
        },
        {
          "duration": 0.1801799999999929,
          "durationTicks": 128,
          "midi": 38,
          "name": "D2",
          "ticks": 57968,
          "time": 81.5990175,
          "velocity": 0.8110236220472441
        },
        {
          "duration": 0.1041665624999979,
          "durationTicks": 74,
          "midi": 38,
          "name": "D2",
          "ticks": 58232,
          "time": 81.97063875,
          "velocity": 0.8110236220472441
        },
        {
          "duration": 0.14358093750000478,
          "durationTicks": 102,
          "midi": 38,
          "name": "D2",
          "ticks": 58362,
          "time": 82.1536340625,
          "velocity": 0.84251968503937
        },
        {
          "duration": 0.1041665624999979,
          "durationTicks": 74,
          "midi": 38,
          "name": "D2",
          "ticks": 58614,
          "time": 82.50836343750001,
          "velocity": 0.8110236220472441
        },
        {
          "duration": 0.15484218749999457,
          "durationTicks": 110,
          "midi": 38,
          "name": "D2",
          "ticks": 58736,
          "time": 82.6800975,
          "velocity": 0.84251968503937
        },
        {
          "duration": 0.109797187500007,
          "durationTicks": 78,
          "midi": 38,
          "name": "D2",
          "ticks": 58992,
          "time": 83.0404575,
          "velocity": 0.8110236220472441
        },
        {
          "duration": 0.15765750000001333,
          "durationTicks": 112,
          "midi": 38,
          "name": "D2",
          "ticks": 59122,
          "time": 83.2234528125,
          "velocity": 0.84251968503937
        },
        {
          "duration": 0.1041665624999979,
          "durationTicks": 74,
          "midi": 38,
          "name": "D2",
          "ticks": 59380,
          "time": 83.586628125,
          "velocity": 0.8110236220472441
        },
        {
          "duration": 0.18299531249999745,
          "durationTicks": 130,
          "midi": 38,
          "name": "D2",
          "ticks": 59504,
          "time": 83.7611775,
          "velocity": 0.8110236220472441
        },
        {
          "duration": 0.10135125000000755,
          "durationTicks": 72,
          "midi": 38,
          "name": "D2",
          "ticks": 59766,
          "time": 84.1299834375,
          "velocity": 0.8110236220472441
        },
        {
          "duration": 0.1379503125000099,
          "durationTicks": 98,
          "midi": 40,
          "name": "E2",
          "ticks": 59902,
          "time": 84.3214246875,
          "velocity": 0.905511811023622
        },
        {
          "duration": 0.10698187499998824,
          "durationTicks": 76,
          "midi": 40,
          "name": "E2",
          "ticks": 60150,
          "time": 84.67052343750001,
          "velocity": 0.84251968503937
        },
        {
          "duration": 0.14639624999999512,
          "durationTicks": 104,
          "midi": 40,
          "name": "E2",
          "ticks": 60278,
          "time": 84.8507034375,
          "velocity": 0.8740157480314961
        },
        {
          "duration": 0.10135125000000755,
          "durationTicks": 72,
          "midi": 40,
          "name": "E2",
          "ticks": 60534,
          "time": 85.2110634375,
          "velocity": 0.84251968503937
        },
        {
          "duration": 0.15484218750000878,
          "durationTicks": 110,
          "midi": 40,
          "name": "E2",
          "ticks": 60658,
          "time": 85.3856128125,
          "velocity": 0.8740157480314961
        },
        {
          "duration": 0.1041665624999979,
          "durationTicks": 74,
          "midi": 40,
          "name": "E2",
          "ticks": 60918,
          "time": 85.75160343750001,
          "velocity": 0.84251968503937
        },
        {
          "duration": 0.1801800000000071,
          "durationTicks": 128,
          "midi": 40,
          "name": "E2",
          "ticks": 61044,
          "time": 85.928968125,
          "velocity": 0.84251968503937
        },
        {
          "duration": 0.10698187500000245,
          "durationTicks": 76,
          "midi": 40,
          "name": "E2",
          "ticks": 61302,
          "time": 86.2921434375,
          "velocity": 0.84251968503937
        },
        {
          "duration": 0.16047281250000367,
          "durationTicks": 114,
          "midi": 42,
          "name": "F#2",
          "ticks": 61426,
          "time": 86.4666928125,
          "velocity": 0.8740157480314961
        },
        {
          "duration": 0.10698187500000245,
          "durationTicks": 76,
          "midi": 42,
          "name": "F#2",
          "ticks": 61684,
          "time": 86.829868125,
          "velocity": 0.84251968503937
        },
        {
          "duration": 0.14921156249999967,
          "durationTicks": 106,
          "midi": 42,
          "name": "F#2",
          "ticks": 61814,
          "time": 87.0128634375,
          "velocity": 0.8740157480314961
        },
        {
          "duration": 0.10698187500000245,
          "durationTicks": 76,
          "midi": 42,
          "name": "F#2",
          "ticks": 62070,
          "time": 87.3732234375,
          "velocity": 0.84251968503937
        },
        {
          "duration": 0.14921156249999967,
          "durationTicks": 106,
          "midi": 42,
          "name": "F#2",
          "ticks": 62198,
          "time": 87.55340343750001,
          "velocity": 0.8740157480314961
        },
        {
          "duration": 0.10698187500000245,
          "durationTicks": 76,
          "midi": 42,
          "name": "F#2",
          "ticks": 62452,
          "time": 87.910948125,
          "velocity": 0.84251968503937
        },
        {
          "duration": 0.174549374999998,
          "durationTicks": 124,
          "midi": 42,
          "name": "F#2",
          "ticks": 62582,
          "time": 88.0939434375,
          "velocity": 0.84251968503937
        },
        {
          "duration": 0.1041665625000121,
          "durationTicks": 74,
          "midi": 42,
          "name": "F#2",
          "ticks": 62838,
          "time": 88.4543034375,
          "velocity": 0.84251968503937
        },
        {
          "duration": 0.1379503125000099,
          "durationTicks": 98,
          "midi": 43,
          "name": "G2",
          "ticks": 62974,
          "time": 88.6457446875,
          "velocity": 0.8740157480314961
        },
        {
          "duration": 0.10979718749999279,
          "durationTicks": 78,
          "midi": 43,
          "name": "G2",
          "ticks": 63220,
          "time": 88.992028125,
          "velocity": 0.84251968503937
        },
        {
          "duration": 0.15484218750000878,
          "durationTicks": 110,
          "midi": 43,
          "name": "G2",
          "ticks": 63346,
          "time": 89.16939281249999,
          "velocity": 0.8740157480314961
        },
        {
          "duration": 0.11542781250000189,
          "durationTicks": 82,
          "midi": 43,
          "name": "G2",
          "ticks": 63600,
          "time": 89.5269375,
          "velocity": 0.84251968503937
        },
        {
          "duration": 0.14639624999999512,
          "durationTicks": 104,
          "midi": 43,
          "name": "G2",
          "ticks": 63734,
          "time": 89.71556343750001,
          "velocity": 0.8740157480314961
        },
        {
          "duration": 0.10698187500000245,
          "durationTicks": 76,
          "midi": 43,
          "name": "G2",
          "ticks": 63988,
          "time": 90.073108125,
          "velocity": 0.84251968503937
        },
        {
          "duration": 0.18299531249999745,
          "durationTicks": 130,
          "midi": 43,
          "name": "G2",
          "ticks": 64112,
          "time": 90.2476575,
          "velocity": 0.84251968503937
        },
        {
          "duration": 0.10698187500001666,
          "durationTicks": 76,
          "midi": 43,
          "name": "G2",
          "ticks": 64372,
          "time": 90.613648125,
          "velocity": 0.84251968503937
        },
        {
          "duration": 0.14921156249999967,
          "durationTicks": 106,
          "midi": 42,
          "name": "F#2",
          "ticks": 64500,
          "time": 90.793828125,
          "velocity": 0.8740157480314961
        },
        {
          "duration": 0.1041665624999979,
          "durationTicks": 74,
          "midi": 42,
          "name": "F#2",
          "ticks": 64758,
          "time": 91.15700343750001,
          "velocity": 0.84251968503937
        },
        {
          "duration": 0.15765749999999912,
          "durationTicks": 112,
          "midi": 42,
          "name": "F#2",
          "ticks": 64880,
          "time": 91.3287375,
          "velocity": 0.8740157480314961
        },
        {
          "duration": 0.1041665624999979,
          "durationTicks": 74,
          "midi": 42,
          "name": "F#2",
          "ticks": 65144,
          "time": 91.70035875,
          "velocity": 0.84251968503937
        },
        {
          "duration": 0.15765750000001333,
          "durationTicks": 112,
          "midi": 42,
          "name": "F#2",
          "ticks": 65266,
          "time": 91.8720928125,
          "velocity": 0.8740157480314961
        },
        {
          "duration": 0.11261249999999734,
          "durationTicks": 80,
          "midi": 42,
          "name": "F#2",
          "ticks": 65520,
          "time": 92.22963750000001,
          "velocity": 0.84251968503937
        },
        {
          "duration": 0.185810625000002,
          "durationTicks": 132,
          "midi": 42,
          "name": "F#2",
          "ticks": 65648,
          "time": 92.4098175,
          "velocity": 0.84251968503937
        },
        {
          "duration": 0.11824312500000644,
          "durationTicks": 84,
          "midi": 42,
          "name": "F#2",
          "ticks": 65904,
          "time": 92.7701775,
          "velocity": 0.84251968503937
        },
        {
          "duration": 0.1379503125000099,
          "durationTicks": 98,
          "midi": 40,
          "name": "E2",
          "ticks": 66046,
          "time": 92.9700646875,
          "velocity": 0.8740157480314961
        },
        {
          "duration": 0.10698187500000245,
          "durationTicks": 76,
          "midi": 40,
          "name": "E2",
          "ticks": 66292,
          "time": 93.316348125,
          "velocity": 0.84251968503937
        },
        {
          "duration": 0.15202687500000422,
          "durationTicks": 108,
          "midi": 40,
          "name": "E2",
          "ticks": 66422,
          "time": 93.4993434375,
          "velocity": 0.8740157480314961
        },
        {
          "duration": 0.10135125000000755,
          "durationTicks": 72,
          "midi": 40,
          "name": "E2",
          "ticks": 66680,
          "time": 93.86251875,
          "velocity": 0.84251968503937
        },
        {
          "duration": 0.14921156249999967,
          "durationTicks": 106,
          "midi": 42,
          "name": "F#2",
          "ticks": 66804,
          "time": 94.037068125,
          "velocity": 0.8740157480314961
        },
        {
          "duration": 0.10135124999999334,
          "durationTicks": 72,
          "midi": 42,
          "name": "F#2",
          "ticks": 67062,
          "time": 94.40024343750001,
          "velocity": 0.84251968503937
        },
        {
          "duration": 0.185810625000002,
          "durationTicks": 132,
          "midi": 42,
          "name": "F#2",
          "ticks": 67184,
          "time": 94.5719775,
          "velocity": 0.84251968503937
        },
        {
          "duration": 0.10135125000000755,
          "durationTicks": 72,
          "midi": 42,
          "name": "F#2",
          "ticks": 67448,
          "time": 94.94359875,
          "velocity": 0.84251968503937
        },
        {
          "duration": 0.1379503125000099,
          "durationTicks": 98,
          "midi": 43,
          "name": "G2",
          "ticks": 67582,
          "time": 95.1322246875,
          "velocity": 0.8740157480314961
        },
        {
          "duration": 0.11261249999999734,
          "durationTicks": 80,
          "midi": 43,
          "name": "G2",
          "ticks": 67824,
          "time": 95.47287750000001,
          "velocity": 0.84251968503937
        },
        {
          "duration": 0.15765749999999912,
          "durationTicks": 112,
          "midi": 43,
          "name": "G2",
          "ticks": 67952,
          "time": 95.6530575,
          "velocity": 0.8740157480314961
        },
        {
          "duration": 0.11824312500000644,
          "durationTicks": 84,
          "midi": 43,
          "name": "G2",
          "ticks": 68208,
          "time": 96.0134175,
          "velocity": 0.84251968503937
        },
        {
          "duration": 0.1379503125000099,
          "durationTicks": 98,
          "midi": 45,
          "name": "A2",
          "ticks": 68350,
          "time": 96.2133046875,
          "velocity": 0.8740157480314961
        },
        {
          "duration": 0.1041665624999979,
          "durationTicks": 74,
          "midi": 45,
          "name": "A2",
          "ticks": 68598,
          "time": 96.56240343750001,
          "velocity": 0.84251968503937
        },
        {
          "duration": 0.16610343749999856,
          "durationTicks": 118,
          "midi": 45,
          "name": "A2",
          "ticks": 68730,
          "time": 96.7482140625,
          "velocity": 0.84251968503937
        },
        {
          "duration": 0.11261250000001155,
          "durationTicks": 80,
          "midi": 45,
          "name": "A2",
          "ticks": 68976,
          "time": 97.0944975,
          "velocity": 0.84251968503937
        },
        {
          "duration": 0.14639625000000933,
          "durationTicks": 104,
          "midi": 43,
          "name": "G2",
          "ticks": 69112,
          "time": 97.28593875,
          "velocity": 0.8740157480314961
        },
        {
          "duration": 0.11542781249998768,
          "durationTicks": 82,
          "midi": 43,
          "name": "G2",
          "ticks": 69360,
          "time": 97.63503750000001,
          "velocity": 0.8110236220472441
        },
        {
          "duration": 0.14358093750000478,
          "durationTicks": 102,
          "midi": 43,
          "name": "G2",
          "ticks": 69496,
          "time": 97.82647874999999,
          "velocity": 0.84251968503937
        },
        {
          "duration": 0.1041665625000121,
          "durationTicks": 74,
          "midi": 43,
          "name": "G2",
          "ticks": 69750,
          "time": 98.1840234375,
          "velocity": 0.8110236220472441
        },
        {
          "duration": 0.14639625000000933,
          "durationTicks": 104,
          "midi": 43,
          "name": "G2",
          "ticks": 69880,
          "time": 98.36701875,
          "velocity": 0.84251968503937
        },
        {
          "duration": 0.1041665624999979,
          "durationTicks": 74,
          "midi": 43,
          "name": "G2",
          "ticks": 70134,
          "time": 98.72456343750001,
          "velocity": 0.8110236220472441
        },
        {
          "duration": 0.17173406250000767,
          "durationTicks": 122,
          "midi": 43,
          "name": "G2",
          "ticks": 70266,
          "time": 98.9103740625,
          "velocity": 0.8110236220472441
        },
        {
          "duration": 0.1041665625000121,
          "durationTicks": 74,
          "midi": 43,
          "name": "G2",
          "ticks": 70518,
          "time": 99.2651034375,
          "velocity": 0.8110236220472441
        },
        {
          "duration": 0.14358093749999057,
          "durationTicks": 102,
          "midi": 38,
          "name": "D2",
          "ticks": 70778,
          "time": 99.63109406250001,
          "velocity": 0.8740157480314961
        },
        {
          "duration": 0.49549500000000535,
          "durationTicks": 352,
          "midi": 38,
          "name": "D2",
          "ticks": 71040,
          "time": 99.9999,
          "velocity": 0.84251968503937
        },
        {
          "duration": 0.16610343749999856,
          "durationTicks": 118,
          "midi": 45,
          "name": "A2",
          "ticks": 71550,
          "time": 100.7178046875,
          "velocity": 0.8740157480314961
        },
        {
          "duration": 0.3603600000000142,
          "durationTicks": 256,
          "midi": 45,
          "name": "A2",
          "ticks": 71794,
          "time": 101.0612728125,
          "velocity": 0.84251968503937
        },
        {
          "duration": 0.3350221875000017,
          "durationTicks": 238,
          "midi": 43,
          "name": "G2",
          "ticks": 72050,
          "time": 101.42163281250001,
          "velocity": 0.8740157480314961
        },
        {
          "duration": 0.1041665624999979,
          "durationTicks": 74,
          "midi": 43,
          "name": "G2",
          "ticks": 72438,
          "time": 101.96780343750001,
          "velocity": 0.8110236220472441
        },
        {
          "duration": 0.15484218750000878,
          "durationTicks": 110,
          "midi": 43,
          "name": "G2",
          "ticks": 72562,
          "time": 102.1423528125,
          "velocity": 0.84251968503937
        },
        {
          "duration": 0.1041665625000121,
          "durationTicks": 74,
          "midi": 43,
          "name": "G2",
          "ticks": 72822,
          "time": 102.5083434375,
          "velocity": 0.8110236220472441
        },
        {
          "duration": 0.14358093750000478,
          "durationTicks": 102,
          "midi": 43,
          "name": "G2",
          "ticks": 72954,
          "time": 102.6941540625,
          "velocity": 0.84251968503937
        },
        {
          "duration": 0.10979718749999279,
          "durationTicks": 78,
          "midi": 43,
          "name": "G2",
          "ticks": 73200,
          "time": 103.04043750000001,
          "velocity": 0.8110236220472441
        },
        {
          "duration": 0.185810625000002,
          "durationTicks": 132,
          "midi": 43,
          "name": "G2",
          "ticks": 73330,
          "time": 103.2234328125,
          "velocity": 0.8110236220472441
        },
        {
          "duration": 0.1041665624999979,
          "durationTicks": 74,
          "midi": 43,
          "name": "G2",
          "ticks": 73592,
          "time": 103.59223875,
          "velocity": 0.8110236220472441
        },
        {
          "duration": 0.15765749999999912,
          "durationTicks": 112,
          "midi": 38,
          "name": "D2",
          "ticks": 73840,
          "time": 103.9413375,
          "velocity": 0.8740157480314961
        },
        {
          "duration": 0.5180175000000133,
          "durationTicks": 368,
          "midi": 38,
          "name": "D2",
          "ticks": 74098,
          "time": 104.3045128125,
          "velocity": 0.84251968503937
        },
        {
          "duration": 0.18299531249999745,
          "durationTicks": 130,
          "midi": 45,
          "name": "A2",
          "ticks": 74610,
          "time": 105.02523281250001,
          "velocity": 0.8740157480314961
        },
        {
          "duration": 0.3575446875000097,
          "durationTicks": 254,
          "midi": 45,
          "name": "A2",
          "ticks": 74878,
          "time": 105.40248468749999,
          "velocity": 0.84251968503937
        },
        {
          "duration": 0.32094562500000734,
          "durationTicks": 228,
          "midi": 43,
          "name": "G2",
          "ticks": 75132,
          "time": 105.760029375,
          "velocity": 0.8740157480314961
        },
        {
          "duration": 0.10698187499998824,
          "durationTicks": 76,
          "midi": 43,
          "name": "G2",
          "ticks": 75510,
          "time": 106.29212343750001,
          "velocity": 0.8110236220472441
        },
        {
          "duration": 0.14358093750000478,
          "durationTicks": 102,
          "midi": 43,
          "name": "G2",
          "ticks": 75640,
          "time": 106.47511875,
          "velocity": 0.84251968503937
        },
        {
          "duration": 0.10135125000000755,
          "durationTicks": 72,
          "midi": 43,
          "name": "G2",
          "ticks": 75896,
          "time": 106.83547875000001,
          "velocity": 0.8110236220472441
        },
        {
          "duration": 0.14358093750000478,
          "durationTicks": 102,
          "midi": 43,
          "name": "G2",
          "ticks": 76024,
          "time": 107.01565875,
          "velocity": 0.84251968503937
        },
        {
          "duration": 0.11261249999999734,
          "durationTicks": 80,
          "midi": 43,
          "name": "G2",
          "ticks": 76272,
          "time": 107.36475750000001,
          "velocity": 0.8110236220472441
        },
        {
          "duration": 0.1801799999999929,
          "durationTicks": 128,
          "midi": 43,
          "name": "G2",
          "ticks": 76400,
          "time": 107.5449375,
          "velocity": 0.8110236220472441
        },
        {
          "duration": 0.11542781250000189,
          "durationTicks": 82,
          "midi": 43,
          "name": "G2",
          "ticks": 76656,
          "time": 107.9052975,
          "velocity": 0.8110236220472441
        },
        {
          "duration": 0.16047281249998946,
          "durationTicks": 114,
          "midi": 38,
          "name": "D2",
          "ticks": 76912,
          "time": 108.2656575,
          "velocity": 0.8740157480314961
        },
        {
          "duration": 0.4983103125000099,
          "durationTicks": 354,
          "midi": 38,
          "name": "D2",
          "ticks": 77182,
          "time": 108.64572468749999,
          "velocity": 0.84251968503937
        },
        {
          "duration": 0.16891875000000312,
          "durationTicks": 120,
          "midi": 45,
          "name": "A2",
          "ticks": 77688,
          "time": 109.35799875000001,
          "velocity": 0.8740157480314961
        },
        {
          "duration": 0.35191406249998636,
          "durationTicks": 250,
          "midi": 45,
          "name": "A2",
          "ticks": 77948,
          "time": 109.72398937500002,
          "velocity": 0.84251968503937
        },
        {
          "duration": 0.14358093750000478,
          "durationTicks": 102,
          "midi": 40,
          "name": "E2",
          "ticks": 78334,
          "time": 110.2673446875,
          "velocity": 0.905511811023622
        },
        {
          "duration": 0.10979718749999279,
          "durationTicks": 78,
          "midi": 40,
          "name": "E2",
          "ticks": 78580,
          "time": 110.613628125,
          "velocity": 0.84251968503937
        },
        {
          "duration": 0.14921156249999967,
          "durationTicks": 106,
          "midi": 40,
          "name": "E2",
          "ticks": 78710,
          "time": 110.7966234375,
          "velocity": 0.8740157480314961
        },
        {
          "duration": 0.109797187500007,
          "durationTicks": 78,
          "midi": 40,
          "name": "E2",
          "ticks": 78960,
          "time": 111.1485375,
          "velocity": 0.84251968503937
        },
        {
          "duration": 0.15202687500000422,
          "durationTicks": 108,
          "midi": 40,
          "name": "E2",
          "ticks": 79094,
          "time": 111.33716343750001,
          "velocity": 0.8740157480314961
        },
        {
          "duration": 0.11261249999999734,
          "durationTicks": 80,
          "midi": 40,
          "name": "E2",
          "ticks": 79344,
          "time": 111.68907750000001,
          "velocity": 0.84251968503937
        },
        {
          "duration": 0.185810625000002,
          "durationTicks": 132,
          "midi": 40,
          "name": "E2",
          "ticks": 79472,
          "time": 111.8692575,
          "velocity": 0.84251968503937
        },
        {
          "duration": 0.11824312500000644,
          "durationTicks": 84,
          "midi": 40,
          "name": "E2",
          "ticks": 79728,
          "time": 112.2296175,
          "velocity": 0.84251968503937
        },
        {
          "duration": 0.14076562500001444,
          "durationTicks": 100,
          "midi": 42,
          "name": "F#2",
          "ticks": 79870,
          "time": 112.4295046875,
          "velocity": 0.8740157480314961
        },
        {
          "duration": 0.11261249999998313,
          "durationTicks": 80,
          "midi": 42,
          "name": "F#2",
          "ticks": 80114,
          "time": 112.77297281250002,
          "velocity": 0.84251968503937
        },
        {
          "duration": 0.15765749999999912,
          "durationTicks": 112,
          "midi": 42,
          "name": "F#2",
          "ticks": 80240,
          "time": 112.9503375,
          "velocity": 0.8740157480314961
        },
        {
          "duration": 0.11824312500000644,
          "durationTicks": 84,
          "midi": 42,
          "name": "F#2",
          "ticks": 80496,
          "time": 113.3106975,
          "velocity": 0.84251968503937
        },
        {
          "duration": 0.15484218750000878,
          "durationTicks": 110,
          "midi": 42,
          "name": "F#2",
          "ticks": 80628,
          "time": 113.496508125,
          "velocity": 0.8740157480314961
        },
        {
          "duration": 0.11261249999999734,
          "durationTicks": 80,
          "midi": 42,
          "name": "F#2",
          "ticks": 80884,
          "time": 113.856868125,
          "velocity": 0.84251968503937
        },
        {
          "duration": 0.17173406249999346,
          "durationTicks": 122,
          "midi": 42,
          "name": "F#2",
          "ticks": 81014,
          "time": 114.0398634375,
          "velocity": 0.84251968503937
        },
        {
          "duration": 0.10698187500000245,
          "durationTicks": 76,
          "midi": 42,
          "name": "F#2",
          "ticks": 81270,
          "time": 114.4002234375,
          "velocity": 0.84251968503937
        },
        {
          "duration": 0.1379503125000099,
          "durationTicks": 98,
          "midi": 43,
          "name": "G2",
          "ticks": 81406,
          "time": 114.5916646875,
          "velocity": 0.8740157480314961
        },
        {
          "duration": 0.10698187500000245,
          "durationTicks": 76,
          "midi": 43,
          "name": "G2",
          "ticks": 81652,
          "time": 114.937948125,
          "velocity": 0.84251968503937
        },
        {
          "duration": 0.15202687500000422,
          "durationTicks": 108,
          "midi": 43,
          "name": "G2",
          "ticks": 81780,
          "time": 115.118128125,
          "velocity": 0.8740157480314961
        },
        {
          "duration": 0.1041665624999979,
          "durationTicks": 74,
          "midi": 43,
          "name": "G2",
          "ticks": 82040,
          "time": 115.48411875000001,
          "velocity": 0.84251968503937
        },
        {
          "duration": 0.14639625000000933,
          "durationTicks": 104,
          "midi": 43,
          "name": "G2",
          "ticks": 82168,
          "time": 115.66429875,
          "velocity": 0.8740157480314961
        },
        {
          "duration": 0.1041665624999979,
          "durationTicks": 74,
          "midi": 43,
          "name": "G2",
          "ticks": 82422,
          "time": 116.02184343750001,
          "velocity": 0.84251968503937
        },
        {
          "duration": 0.18299531249999745,
          "durationTicks": 130,
          "midi": 43,
          "name": "G2",
          "ticks": 82544,
          "time": 116.1935775,
          "velocity": 0.84251968503937
        },
        {
          "duration": 0.1041665625000121,
          "durationTicks": 74,
          "midi": 43,
          "name": "G2",
          "ticks": 82806,
          "time": 116.5623834375,
          "velocity": 0.84251968503937
        },
        {
          "duration": 0.1379503125000099,
          "durationTicks": 98,
          "midi": 42,
          "name": "F#2",
          "ticks": 82942,
          "time": 116.7538246875,
          "velocity": 0.8740157480314961
        },
        {
          "duration": 0.10698187500000245,
          "durationTicks": 76,
          "midi": 42,
          "name": "F#2",
          "ticks": 83188,
          "time": 117.100108125,
          "velocity": 0.84251968503937
        },
        {
          "duration": 0.14921156249999967,
          "durationTicks": 106,
          "midi": 42,
          "name": "F#2",
          "ticks": 83316,
          "time": 117.280288125,
          "velocity": 0.8740157480314961
        },
        {
          "duration": 0.11261250000001155,
          "durationTicks": 80,
          "midi": 42,
          "name": "F#2",
          "ticks": 83568,
          "time": 117.6350175,
          "velocity": 0.84251968503937
        },
        {
          "duration": 0.14639624999999512,
          "durationTicks": 104,
          "midi": 42,
          "name": "F#2",
          "ticks": 83702,
          "time": 117.82364343750001,
          "velocity": 0.8740157480314961
        },
        {
          "duration": 0.11261249999999734,
          "durationTicks": 80,
          "midi": 42,
          "name": "F#2",
          "ticks": 83952,
          "time": 118.17555750000001,
          "velocity": 0.84251968503937
        },
        {
          "duration": 0.18299531249999745,
          "durationTicks": 130,
          "midi": 42,
          "name": "F#2",
          "ticks": 84080,
          "time": 118.3557375,
          "velocity": 0.84251968503937
        },
        {
          "duration": 0.10135125000000755,
          "durationTicks": 72,
          "midi": 42,
          "name": "F#2",
          "ticks": 84344,
          "time": 118.72735875000001,
          "velocity": 0.84251968503937
        },
        {
          "duration": 0.15484218750000878,
          "durationTicks": 110,
          "midi": 40,
          "name": "E2",
          "ticks": 84468,
          "time": 118.901908125,
          "velocity": 0.8740157480314961
        },
        {
          "duration": 0.11261249999999734,
          "durationTicks": 80,
          "midi": 40,
          "name": "E2",
          "ticks": 84720,
          "time": 119.25663750000001,
          "velocity": 0.84251968503937
        },
        {
          "duration": 0.15202687500000422,
          "durationTicks": 108,
          "midi": 40,
          "name": "E2",
          "ticks": 84854,
          "time": 119.4452634375,
          "velocity": 0.8740157480314961
        },
        {
          "duration": 0.1041665625000121,
          "durationTicks": 74,
          "midi": 40,
          "name": "E2",
          "ticks": 85110,
          "time": 119.8056234375,
          "velocity": 0.84251968503937
        },
        {
          "duration": 0.14921156249999967,
          "durationTicks": 106,
          "midi": 42,
          "name": "F#2",
          "ticks": 85238,
          "time": 119.98580343750001,
          "velocity": 0.8740157480314961
        },
        {
          "duration": 0.10698187500000245,
          "durationTicks": 76,
          "midi": 42,
          "name": "F#2",
          "ticks": 85492,
          "time": 120.343348125,
          "velocity": 0.84251968503937
        },
        {
          "duration": 0.17736468750000256,
          "durationTicks": 126,
          "midi": 42,
          "name": "F#2",
          "ticks": 85620,
          "time": 120.523528125,
          "velocity": 0.84251968503937
        },
        {
          "duration": 0.11261250000001155,
          "durationTicks": 80,
          "midi": 42,
          "name": "F#2",
          "ticks": 85872,
          "time": 120.8782575,
          "velocity": 0.84251968503937
        },
        {
          "duration": 0.1379503125000099,
          "durationTicks": 98,
          "midi": 43,
          "name": "G2",
          "ticks": 86014,
          "time": 121.0781446875,
          "velocity": 0.8740157480314961
        },
        {
          "duration": 0.11261249999999734,
          "durationTicks": 80,
          "midi": 43,
          "name": "G2",
          "ticks": 86260,
          "time": 121.424428125,
          "velocity": 0.84251968503937
        },
        {
          "duration": 0.15765749999999912,
          "durationTicks": 112,
          "midi": 43,
          "name": "G2",
          "ticks": 86384,
          "time": 121.5989775,
          "velocity": 0.8740157480314961
        },
        {
          "duration": 0.1041665625000121,
          "durationTicks": 74,
          "midi": 43,
          "name": "G2",
          "ticks": 86646,
          "time": 121.9677834375,
          "velocity": 0.84251968503937
        },
        {
          "duration": 0.14076562500001444,
          "durationTicks": 100,
          "midi": 45,
          "name": "A2",
          "ticks": 86782,
          "time": 122.1592246875,
          "velocity": 0.8740157480314961
        },
        {
          "duration": 0.10698187499998824,
          "durationTicks": 76,
          "midi": 45,
          "name": "A2",
          "ticks": 87030,
          "time": 122.50832343750001,
          "velocity": 0.84251968503937
        },
        {
          "duration": 0.17454937500001222,
          "durationTicks": 124,
          "midi": 45,
          "name": "A2",
          "ticks": 87160,
          "time": 122.69131875,
          "velocity": 0.84251968503937
        },
        {
          "duration": 0.109797187500007,
          "durationTicks": 78,
          "midi": 45,
          "name": "A2",
          "ticks": 87410,
          "time": 123.04323281250001,
          "velocity": 0.84251968503937
        },
        {
          "duration": 1.9847953124999975,
          "durationTicks": 1410,
          "midi": 31,
          "name": "G1",
          "ticks": 87552,
          "time": 123.24312,
          "velocity": 0.7795275590551181
        },
        {
          "duration": 1.0838953125000046,
          "durationTicks": 770,
          "midi": 38,
          "name": "D2",
          "ticks": 88954,
          "time": 125.2166540625,
          "velocity": 0.7795275590551181
        },
        {
          "duration": 1.08108,
          "durationTicks": 768,
          "midi": 33,
          "name": "A1",
          "ticks": 89724,
          "time": 126.300549375,
          "velocity": 0.7480314960629921
        },
        {
          "duration": 2.1621600000000143,
          "durationTicks": 1536,
          "midi": 31,
          "name": "G1",
          "ticks": 90492,
          "time": 127.381629375,
          "velocity": 0.7795275590551181
        },
        {
          "duration": 1.0782646874999955,
          "durationTicks": 766,
          "midi": 38,
          "name": "D2",
          "ticks": 92028,
          "time": 129.54378937500002,
          "velocity": 0.7480314960629921
        },
        {
          "duration": 1.1064178124999842,
          "durationTicks": 786,
          "midi": 33,
          "name": "A1",
          "ticks": 92794,
          "time": 130.6220540625,
          "velocity": 0.7480314960629921
        },
        {
          "duration": 2.16216,
          "durationTicks": 1536,
          "midi": 31,
          "name": "G1",
          "ticks": 93562,
          "time": 131.7031340625,
          "velocity": 0.7795275590551181
        },
        {
          "duration": 1.0810800000000143,
          "durationTicks": 768,
          "midi": 38,
          "name": "D2",
          "ticks": 95098,
          "time": 133.8652940625,
          "velocity": 0.7480314960629921
        },
        {
          "duration": 1.092341250000004,
          "durationTicks": 776,
          "midi": 33,
          "name": "A1",
          "ticks": 95866,
          "time": 134.9463740625,
          "velocity": 0.7165354330708661
        },
        {
          "duration": 2.179051874999999,
          "durationTicks": 1548,
          "midi": 31,
          "name": "G1",
          "ticks": 96624,
          "time": 136.01337750000002,
          "velocity": 0.7795275590551181
        },
        {
          "duration": 1.0754493749999767,
          "durationTicks": 764,
          "midi": 38,
          "name": "D2",
          "ticks": 98172,
          "time": 138.19242937500002,
          "velocity": 0.7165354330708661
        },
        {
          "duration": 1.2697059375000208,
          "durationTicks": 902,
          "midi": 33,
          "name": "A1",
          "ticks": 98936,
          "time": 139.26787875,
          "velocity": 0.7165354330708661
        },
        {
          "duration": 2.179051874999999,
          "durationTicks": 1548,
          "midi": 35,
          "name": "B1",
          "ticks": 99696,
          "time": 140.33769750000002,
          "velocity": 0.7480314960629921
        },
        {
          "duration": 2.1480834374999915,
          "durationTicks": 1526,
          "midi": 36,
          "name": "C2",
          "ticks": 101244,
          "time": 142.51674937500002,
          "velocity": 0.7480314960629921
        },
        {
          "duration": 2.1762365625000086,
          "durationTicks": 1546,
          "midi": 35,
          "name": "B1",
          "ticks": 102770,
          "time": 144.6648328125,
          "velocity": 0.7480314960629921
        },
        {
          "duration": 2.16216,
          "durationTicks": 1536,
          "midi": 36,
          "name": "C2",
          "ticks": 104316,
          "time": 146.84106937500002,
          "velocity": 0.7480314960629921
        },
        {
          "duration": 2.1480834374999915,
          "durationTicks": 1526,
          "midi": 31,
          "name": "G1",
          "ticks": 105852,
          "time": 149.00322937500002,
          "velocity": 0.7480314960629921
        },
        {
          "duration": 2.1424528124999824,
          "durationTicks": 1522,
          "midi": 33,
          "name": "A1",
          "ticks": 107378,
          "time": 151.1513128125,
          "velocity": 0.7480314960629921
        },
        {
          "duration": 0.13795031249998146,
          "durationTicks": 98,
          "midi": 38,
          "name": "D2",
          "ticks": 109054,
          "time": 153.51054468750002,
          "velocity": 0.8740157480314961
        },
        {
          "duration": 0.10979718749999279,
          "durationTicks": 78,
          "midi": 38,
          "name": "D2",
          "ticks": 109298,
          "time": 153.8540128125,
          "velocity": 0.8110236220472441
        },
        {
          "duration": 0.14639625000000933,
          "durationTicks": 104,
          "midi": 38,
          "name": "D2",
          "ticks": 109432,
          "time": 154.04263875,
          "velocity": 0.84251968503937
        },
        {
          "duration": 0.10698187499997402,
          "durationTicks": 76,
          "midi": 38,
          "name": "D2",
          "ticks": 109684,
          "time": 154.397368125,
          "velocity": 0.8110236220472441
        },
        {
          "duration": 0.15484218750000878,
          "durationTicks": 110,
          "midi": 38,
          "name": "D2",
          "ticks": 109812,
          "time": 154.577548125,
          "velocity": 0.84251968503937
        },
        {
          "duration": 0.10698187500003087,
          "durationTicks": 76,
          "midi": 38,
          "name": "D2",
          "ticks": 110070,
          "time": 154.9407234375,
          "velocity": 0.8110236220472441
        },
        {
          "duration": 0.17736468749998835,
          "durationTicks": 126,
          "midi": 38,
          "name": "D2",
          "ticks": 110198,
          "time": 155.1209034375,
          "velocity": 0.8110236220472441
        },
        {
          "duration": 0.10979718749999279,
          "durationTicks": 78,
          "midi": 38,
          "name": "D2",
          "ticks": 110450,
          "time": 155.4756328125,
          "velocity": 0.8110236220472441
        },
        {
          "duration": 0.15202687499999,
          "durationTicks": 108,
          "midi": 38,
          "name": "D2",
          "ticks": 110582,
          "time": 155.6614434375,
          "velocity": 0.84251968503937
        },
        {
          "duration": 0.11261249999998313,
          "durationTicks": 80,
          "midi": 38,
          "name": "D2",
          "ticks": 110832,
          "time": 156.0133575,
          "velocity": 0.8110236220472441
        },
        {
          "duration": 0.15484218750000878,
          "durationTicks": 110,
          "midi": 38,
          "name": "D2",
          "ticks": 110962,
          "time": 156.1963528125,
          "velocity": 0.84251968503937
        },
        {
          "duration": 0.10698187500000245,
          "durationTicks": 76,
          "midi": 38,
          "name": "D2",
          "ticks": 111224,
          "time": 156.56515875,
          "velocity": 0.8110236220472441
        },
        {
          "duration": 0.1492115625000281,
          "durationTicks": 106,
          "midi": 38,
          "name": "D2",
          "ticks": 111350,
          "time": 156.74252343749998,
          "velocity": 0.84251968503937
        },
        {
          "duration": 0.10979718750002121,
          "durationTicks": 78,
          "midi": 38,
          "name": "D2",
          "ticks": 111602,
          "time": 157.0972528125,
          "velocity": 0.8110236220472441
        },
        {
          "duration": 0.1689187499999889,
          "durationTicks": 120,
          "midi": 38,
          "name": "D2",
          "ticks": 111736,
          "time": 157.28587875000002,
          "velocity": 0.8110236220472441
        },
        {
          "duration": 0.09853593749997458,
          "durationTicks": 70,
          "midi": 38,
          "name": "D2",
          "ticks": 111994,
          "time": 157.64905406250003,
          "velocity": 0.8110236220472441
        },
        {
          "duration": 0.15484218749998035,
          "durationTicks": 110,
          "midi": 38,
          "name": "D2",
          "ticks": 112116,
          "time": 157.820788125,
          "velocity": 0.84251968503937
        },
        {
          "duration": 0.10698187500000245,
          "durationTicks": 76,
          "midi": 38,
          "name": "D2",
          "ticks": 112374,
          "time": 158.1839634375,
          "velocity": 0.8110236220472441
        },
        {
          "duration": 0.143580937500019,
          "durationTicks": 102,
          "midi": 38,
          "name": "D2",
          "ticks": 112504,
          "time": 158.36695875,
          "velocity": 0.84251968503937
        },
        {
          "duration": 0.0872746874999848,
          "durationTicks": 62,
          "midi": 38,
          "name": "D2",
          "ticks": 112768,
          "time": 158.73858,
          "velocity": 0.8110236220472441
        },
        {
          "duration": 0.15765750000002754,
          "durationTicks": 112,
          "midi": 38,
          "name": "D2",
          "ticks": 112880,
          "time": 158.89623749999998,
          "velocity": 0.84251968503937
        },
        {
          "duration": 0.10135125000002176,
          "durationTicks": 72,
          "midi": 38,
          "name": "D2",
          "ticks": 113146,
          "time": 159.2706740625,
          "velocity": 0.8110236220472441
        },
        {
          "duration": 0.17173406249997925,
          "durationTicks": 122,
          "midi": 38,
          "name": "D2",
          "ticks": 113272,
          "time": 159.44803875000002,
          "velocity": 0.8110236220472441
        },
        {
          "duration": 0.09853593749997458,
          "durationTicks": 70,
          "midi": 38,
          "name": "D2",
          "ticks": 113530,
          "time": 159.81121406250003,
          "velocity": 0.8110236220472441
        },
        {
          "duration": 0.14921156249999967,
          "durationTicks": 106,
          "midi": 38,
          "name": "D2",
          "ticks": 113654,
          "time": 159.9857634375,
          "velocity": 0.84251968503937
        },
        {
          "duration": 0.10698187500000245,
          "durationTicks": 76,
          "midi": 38,
          "name": "D2",
          "ticks": 113910,
          "time": 160.3461234375,
          "velocity": 0.8110236220472441
        },
        {
          "duration": 0.14639625000000933,
          "durationTicks": 104,
          "midi": 38,
          "name": "D2",
          "ticks": 114040,
          "time": 160.52911875,
          "velocity": 0.84251968503937
        },
        {
          "duration": 0.0929053124999939,
          "durationTicks": 66,
          "midi": 38,
          "name": "D2",
          "ticks": 114302,
          "time": 160.8979246875,
          "velocity": 0.8110236220472441
        },
        {
          "duration": 0.1379503125000383,
          "durationTicks": 98,
          "midi": 38,
          "name": "D2",
          "ticks": 114428,
          "time": 161.07528937499998,
          "velocity": 0.84251968503937
        },
        {
          "duration": 0.10135125000002176,
          "durationTicks": 72,
          "midi": 38,
          "name": "D2",
          "ticks": 114680,
          "time": 161.43001875,
          "velocity": 0.8110236220472441
        },
        {
          "duration": 0.1632881249999798,
          "durationTicks": 116,
          "midi": 38,
          "name": "D2",
          "ticks": 114814,
          "time": 161.61864468750002,
          "velocity": 0.8110236220472441
        },
        {
          "duration": 0.10135124999999334,
          "durationTicks": 72,
          "midi": 38,
          "name": "D2",
          "ticks": 115064,
          "time": 161.97055875,
          "velocity": 0.8110236220472441
        },
        {
          "duration": 0.1463962499999809,
          "durationTicks": 104,
          "midi": 38,
          "name": "D2",
          "ticks": 115188,
          "time": 162.145108125,
          "velocity": 0.84251968503937
        },
        {
          "duration": 0.09572062499998424,
          "durationTicks": 68,
          "midi": 38,
          "name": "D2",
          "ticks": 115452,
          "time": 162.516729375,
          "velocity": 0.8110236220472441
        },
        {
          "duration": 0.1492115625000281,
          "durationTicks": 106,
          "midi": 38,
          "name": "D2",
          "ticks": 115574,
          "time": 162.6884634375,
          "velocity": 0.84251968503937
        },
        {
          "duration": 0.0929053124999939,
          "durationTicks": 66,
          "midi": 38,
          "name": "D2",
          "ticks": 115838,
          "time": 163.0600846875,
          "velocity": 0.8110236220472441
        },
        {
          "duration": 0.1492115625000281,
          "durationTicks": 106,
          "midi": 38,
          "name": "D2",
          "ticks": 115958,
          "time": 163.22900343749998,
          "velocity": 0.84251968503937
        },
        {
          "duration": 0.10135125000002176,
          "durationTicks": 72,
          "midi": 38,
          "name": "D2",
          "ticks": 116214,
          "time": 163.5893634375,
          "velocity": 0.8110236220472441
        },
        {
          "duration": 0.17173406250000767,
          "durationTicks": 122,
          "midi": 38,
          "name": "D2",
          "ticks": 116342,
          "time": 163.7695434375,
          "velocity": 0.8110236220472441
        },
        {
          "duration": 0.10698187499997402,
          "durationTicks": 76,
          "midi": 38,
          "name": "D2",
          "ticks": 116596,
          "time": 164.12708812500003,
          "velocity": 0.8110236220472441
        },
        {
          "duration": 0.1576574999999707,
          "durationTicks": 112,
          "midi": 38,
          "name": "D2",
          "ticks": 116722,
          "time": 164.30445281250002,
          "velocity": 0.84251968503937
        },
        {
          "duration": 0.10979718749999279,
          "durationTicks": 78,
          "midi": 38,
          "name": "D2",
          "ticks": 116978,
          "time": 164.6648128125,
          "velocity": 0.8110236220472441
        },
        {
          "duration": 0.15765749999999912,
          "durationTicks": 112,
          "midi": 38,
          "name": "D2",
          "ticks": 117106,
          "time": 164.8449928125,
          "velocity": 0.84251968503937
        },
        {
          "duration": 0.09853593749997458,
          "durationTicks": 70,
          "midi": 38,
          "name": "D2",
          "ticks": 117370,
          "time": 165.2166140625,
          "velocity": 0.8110236220472441
        },
        {
          "duration": 0.1492115625000281,
          "durationTicks": 106,
          "midi": 38,
          "name": "D2",
          "ticks": 117494,
          "time": 165.39116343749998,
          "velocity": 0.84251968503937
        },
        {
          "duration": 0.10698187500003087,
          "durationTicks": 76,
          "midi": 38,
          "name": "D2",
          "ticks": 117750,
          "time": 165.7515234375,
          "velocity": 0.8110236220472441
        },
        {
          "duration": 0.1801800000000071,
          "durationTicks": 128,
          "midi": 38,
          "name": "D2",
          "ticks": 117878,
          "time": 165.9317034375,
          "velocity": 0.8110236220472441
        },
        {
          "duration": 0.10135124999999334,
          "durationTicks": 72,
          "midi": 38,
          "name": "D2",
          "ticks": 118136,
          "time": 166.29487875,
          "velocity": 0.8110236220472441
        },
        {
          "duration": 0.14358093749999057,
          "durationTicks": 102,
          "midi": 38,
          "name": "D2",
          "ticks": 118270,
          "time": 166.48350468750002,
          "velocity": 0.84251968503937
        },
        {
          "duration": 0.09853593749997458,
          "durationTicks": 70,
          "midi": 38,
          "name": "D2",
          "ticks": 118522,
          "time": 166.83823406250002,
          "velocity": 0.8110236220472441
        },
        {
          "duration": 0.15202687500001844,
          "durationTicks": 108,
          "midi": 38,
          "name": "D2",
          "ticks": 118642,
          "time": 167.0071528125,
          "velocity": 0.84251968503937
        },
        {
          "duration": 0.0929053124999939,
          "durationTicks": 66,
          "midi": 38,
          "name": "D2",
          "ticks": 118910,
          "time": 167.3844046875,
          "velocity": 0.8110236220472441
        },
        {
          "duration": 0.15765749999999912,
          "durationTicks": 112,
          "midi": 38,
          "name": "D2",
          "ticks": 119026,
          "time": 167.5476928125,
          "velocity": 0.84251968503937
        },
        {
          "duration": 0.1041665625000121,
          "durationTicks": 74,
          "midi": 38,
          "name": "D2",
          "ticks": 119286,
          "time": 167.9136834375,
          "velocity": 0.8110236220472441
        },
        {
          "duration": 0.1689187499999889,
          "durationTicks": 120,
          "midi": 38,
          "name": "D2",
          "ticks": 119416,
          "time": 168.09667875000002,
          "velocity": 0.8110236220472441
        },
        {
          "duration": 0.1041665625000121,
          "durationTicks": 74,
          "midi": 38,
          "name": "D2",
          "ticks": 119672,
          "time": 168.45703875,
          "velocity": 0.8110236220472441
        },
        {
          "duration": 0.13795031249998146,
          "durationTicks": 98,
          "midi": 38,
          "name": "D2",
          "ticks": 119806,
          "time": 168.64566468750002,
          "velocity": 0.84251968503937
        },
        {
          "duration": 0.098535937500003,
          "durationTicks": 70,
          "midi": 38,
          "name": "D2",
          "ticks": 120060,
          "time": 169.003209375,
          "velocity": 0.8110236220472441
        },
        {
          "duration": 0.1379503125000099,
          "durationTicks": 98,
          "midi": 38,
          "name": "D2",
          "ticks": 120190,
          "time": 169.1862046875,
          "velocity": 0.84251968503937
        },
        {
          "duration": 0.11542781250000189,
          "durationTicks": 82,
          "midi": 38,
          "name": "D2",
          "ticks": 120434,
          "time": 169.5296728125,
          "velocity": 0.8110236220472441
        },
        {
          "duration": 0.143580937500019,
          "durationTicks": 102,
          "midi": 38,
          "name": "D2",
          "ticks": 120570,
          "time": 169.7211140625,
          "velocity": 0.84251968503937
        },
        {
          "duration": 0.10698187500003087,
          "durationTicks": 76,
          "midi": 38,
          "name": "D2",
          "ticks": 120822,
          "time": 170.0758434375,
          "velocity": 0.8110236220472441
        },
        {
          "duration": 0.17736468749998835,
          "durationTicks": 126,
          "midi": 38,
          "name": "D2",
          "ticks": 120952,
          "time": 170.25883875000002,
          "velocity": 0.8110236220472441
        },
        {
          "duration": 0.10135124999999334,
          "durationTicks": 72,
          "midi": 38,
          "name": "D2",
          "ticks": 121208,
          "time": 170.61919875,
          "velocity": 0.8110236220472441
        },
        {
          "duration": 0.15202687499999,
          "durationTicks": 108,
          "midi": 40,
          "name": "E2",
          "ticks": 121332,
          "time": 170.793748125,
          "velocity": 0.905511811023622
        },
        {
          "duration": 0.11542781250000189,
          "durationTicks": 82,
          "midi": 40,
          "name": "E2",
          "ticks": 121584,
          "time": 171.1484775,
          "velocity": 0.84251968503937
        },
        {
          "duration": 0.15202687500001844,
          "durationTicks": 108,
          "midi": 40,
          "name": "E2",
          "ticks": 121718,
          "time": 171.3371034375,
          "velocity": 0.8740157480314961
        },
        {
          "duration": 0.1041665625000121,
          "durationTicks": 74,
          "midi": 40,
          "name": "E2",
          "ticks": 121976,
          "time": 171.70027875,
          "velocity": 0.84251968503937
        },
        {
          "duration": 0.143580937500019,
          "durationTicks": 102,
          "midi": 40,
          "name": "E2",
          "ticks": 122106,
          "time": 171.8832740625,
          "velocity": 0.8740157480314961
        },
        {
          "duration": 0.11261250000001155,
          "durationTicks": 80,
          "midi": 40,
          "name": "E2",
          "ticks": 122352,
          "time": 172.2295575,
          "velocity": 0.84251968503937
        },
        {
          "duration": 0.1801799999999787,
          "durationTicks": 128,
          "midi": 40,
          "name": "E2",
          "ticks": 122482,
          "time": 172.41255281250002,
          "velocity": 0.84251968503937
        },
        {
          "duration": 0.10416656249998368,
          "durationTicks": 74,
          "midi": 40,
          "name": "E2",
          "ticks": 122742,
          "time": 172.77854343750002,
          "velocity": 0.84251968503937
        },
        {
          "duration": 0.1407656249999718,
          "durationTicks": 100,
          "midi": 42,
          "name": "F#2",
          "ticks": 122878,
          "time": 172.96998468750002,
          "velocity": 0.8740157480314961
        },
        {
          "duration": 0.10416656249998368,
          "durationTicks": 74,
          "midi": 42,
          "name": "F#2",
          "ticks": 123126,
          "time": 173.3190834375,
          "velocity": 0.84251968503937
        },
        {
          "duration": 0.15765750000002754,
          "durationTicks": 112,
          "midi": 42,
          "name": "F#2",
          "ticks": 123248,
          "time": 173.4908175,
          "velocity": 0.8740157480314961
        },
        {
          "duration": 0.10698187500000245,
          "durationTicks": 76,
          "midi": 42,
          "name": "F#2",
          "ticks": 123510,
          "time": 173.8596234375,
          "velocity": 0.84251968503937
        },
        {
          "duration": 0.1463962499999809,
          "durationTicks": 104,
          "midi": 42,
          "name": "F#2",
          "ticks": 123640,
          "time": 174.04261875000003,
          "velocity": 0.8740157480314961
        },
        {
          "duration": 0.1041665625000121,
          "durationTicks": 74,
          "midi": 42,
          "name": "F#2",
          "ticks": 123892,
          "time": 174.397348125,
          "velocity": 0.84251968503937
        },
        {
          "duration": 0.17736468749998835,
          "durationTicks": 126,
          "midi": 42,
          "name": "F#2",
          "ticks": 124020,
          "time": 174.57752812500001,
          "velocity": 0.84251968503937
        },
        {
          "duration": 0.11261249999998313,
          "durationTicks": 80,
          "midi": 42,
          "name": "F#2",
          "ticks": 124272,
          "time": 174.93225750000002,
          "velocity": 0.84251968503937
        },
        {
          "duration": 0.15484218749998035,
          "durationTicks": 110,
          "midi": 43,
          "name": "G2",
          "ticks": 124404,
          "time": 175.118068125,
          "velocity": 0.8740157480314961
        },
        {
          "duration": 0.10416656249998368,
          "durationTicks": 74,
          "midi": 43,
          "name": "G2",
          "ticks": 124660,
          "time": 175.47842812500002,
          "velocity": 0.84251968503937
        },
        {
          "duration": 0.14639625000000933,
          "durationTicks": 104,
          "midi": 43,
          "name": "G2",
          "ticks": 124792,
          "time": 175.66423875,
          "velocity": 0.8740157480314961
        },
        {
          "duration": 0.11261249999998313,
          "durationTicks": 80,
          "midi": 43,
          "name": "G2",
          "ticks": 125040,
          "time": 176.0133375,
          "velocity": 0.84251968503937
        },
        {
          "duration": 0.14358093749999057,
          "durationTicks": 102,
          "midi": 43,
          "name": "G2",
          "ticks": 125176,
          "time": 176.20477875000003,
          "velocity": 0.8740157480314961
        },
        {
          "duration": 0.10979718750002121,
          "durationTicks": 78,
          "midi": 43,
          "name": "G2",
          "ticks": 125428,
          "time": 176.559508125,
          "velocity": 0.84251968503937
        },
        {
          "duration": 0.17173406250000767,
          "durationTicks": 122,
          "midi": 43,
          "name": "G2",
          "ticks": 125558,
          "time": 176.7425034375,
          "velocity": 0.84251968503937
        },
        {
          "duration": 0.10698187499997402,
          "durationTicks": 76,
          "midi": 43,
          "name": "G2",
          "ticks": 125812,
          "time": 177.10004812500003,
          "velocity": 0.84251968503937
        },
        {
          "duration": 0.15202687499999,
          "durationTicks": 108,
          "midi": 42,
          "name": "F#2",
          "ticks": 125940,
          "time": 177.280228125,
          "velocity": 0.8740157480314961
        },
        {
          "duration": 0.11261249999998313,
          "durationTicks": 80,
          "midi": 42,
          "name": "F#2",
          "ticks": 126192,
          "time": 177.6349575,
          "velocity": 0.84251968503937
        },
        {
          "duration": 0.15202687500001844,
          "durationTicks": 108,
          "midi": 42,
          "name": "F#2",
          "ticks": 126322,
          "time": 177.8179528125,
          "velocity": 0.8740157480314961
        },
        {
          "duration": 0.11261249999998313,
          "durationTicks": 80,
          "midi": 42,
          "name": "F#2",
          "ticks": 126576,
          "time": 178.1754975,
          "velocity": 0.84251968503937
        },
        {
          "duration": 0.15484218750000878,
          "durationTicks": 110,
          "midi": 42,
          "name": "F#2",
          "ticks": 126706,
          "time": 178.3584928125,
          "velocity": 0.8740157480314961
        },
        {
          "duration": 0.10979718750002121,
          "durationTicks": 78,
          "midi": 42,
          "name": "F#2",
          "ticks": 126964,
          "time": 178.721668125,
          "velocity": 0.84251968503937
        },
        {
          "duration": 0.17173406250000767,
          "durationTicks": 122,
          "midi": 42,
          "name": "F#2",
          "ticks": 127094,
          "time": 178.9046634375,
          "velocity": 0.84251968503937
        },
        {
          "duration": 0.10416656249998368,
          "durationTicks": 74,
          "midi": 42,
          "name": "F#2",
          "ticks": 127350,
          "time": 179.26502343750002,
          "velocity": 0.84251968503937
        },
        {
          "duration": 0.14358093749999057,
          "durationTicks": 102,
          "midi": 40,
          "name": "E2",
          "ticks": 127486,
          "time": 179.45646468750002,
          "velocity": 0.8740157480314961
        },
        {
          "duration": 0.10979718749999279,
          "durationTicks": 78,
          "midi": 40,
          "name": "E2",
          "ticks": 127732,
          "time": 179.80274812500002,
          "velocity": 0.84251968503937
        },
        {
          "duration": 0.15202687500001844,
          "durationTicks": 108,
          "midi": 40,
          "name": "E2",
          "ticks": 127862,
          "time": 179.9857434375,
          "velocity": 0.8740157480314961
        },
        {
          "duration": 0.10135124999999334,
          "durationTicks": 72,
          "midi": 40,
          "name": "E2",
          "ticks": 128120,
          "time": 180.34891875,
          "velocity": 0.84251968503937
        },
        {
          "duration": 0.1492115625000281,
          "durationTicks": 106,
          "midi": 42,
          "name": "F#2",
          "ticks": 128244,
          "time": 180.523468125,
          "velocity": 0.8740157480314961
        },
        {
          "duration": 0.10698187500000245,
          "durationTicks": 76,
          "midi": 42,
          "name": "F#2",
          "ticks": 128500,
          "time": 180.883828125,
          "velocity": 0.84251968503937
        },
        {
          "duration": 0.17736468749998835,
          "durationTicks": 126,
          "midi": 42,
          "name": "F#2",
          "ticks": 128630,
          "time": 181.0668234375,
          "velocity": 0.84251968503937
        },
        {
          "duration": 0.10135124999999334,
          "durationTicks": 72,
          "midi": 42,
          "name": "F#2",
          "ticks": 128886,
          "time": 181.42718343750002,
          "velocity": 0.84251968503937
        },
        {
          "duration": 0.15484218749998035,
          "durationTicks": 110,
          "midi": 43,
          "name": "G2",
          "ticks": 129010,
          "time": 181.60173281250002,
          "velocity": 0.8740157480314961
        },
        {
          "duration": 0.10416656249998368,
          "durationTicks": 74,
          "midi": 43,
          "name": "G2",
          "ticks": 129270,
          "time": 181.9677234375,
          "velocity": 0.84251968503937
        },
        {
          "duration": 0.143580937500019,
          "durationTicks": 102,
          "midi": 43,
          "name": "G2",
          "ticks": 129402,
          "time": 182.1535340625,
          "velocity": 0.8740157480314961
        },
        {
          "duration": 0.11542781250000189,
          "durationTicks": 82,
          "midi": 43,
          "name": "G2",
          "ticks": 129648,
          "time": 182.4998175,
          "velocity": 0.84251968503937
        },
        {
          "duration": 0.13795031249998146,
          "durationTicks": 98,
          "midi": 45,
          "name": "A2",
          "ticks": 129790,
          "time": 182.69970468750003,
          "velocity": 0.8740157480314961
        },
        {
          "duration": 0.11261250000001155,
          "durationTicks": 80,
          "midi": 45,
          "name": "A2",
          "ticks": 130030,
          "time": 183.0375421875,
          "velocity": 0.84251968503937
        },
        {
          "duration": 0.18299531249999745,
          "durationTicks": 130,
          "midi": 45,
          "name": "A2",
          "ticks": 130160,
          "time": 183.2205375,
          "velocity": 0.84251968503937
        },
        {
          "duration": 0.10135124999999334,
          "durationTicks": 72,
          "midi": 45,
          "name": "A2",
          "ticks": 130422,
          "time": 183.58934343750002,
          "velocity": 0.84251968503937
        },
        {
          "duration": 0.13795031249998146,
          "durationTicks": 98,
          "midi": 40,
          "name": "E2",
          "ticks": 130558,
          "time": 183.78078468750002,
          "velocity": 0.905511811023622
        },
        {
          "duration": 0.10135124999999334,
          "durationTicks": 72,
          "midi": 40,
          "name": "E2",
          "ticks": 130808,
          "time": 184.13269875,
          "velocity": 0.84251968503937
        },
        {
          "duration": 0.1379503125000099,
          "durationTicks": 98,
          "midi": 40,
          "name": "E2",
          "ticks": 130942,
          "time": 184.3213246875,
          "velocity": 0.8740157480314961
        },
        {
          "duration": 0.09572062499998424,
          "durationTicks": 68,
          "midi": 40,
          "name": "E2",
          "ticks": 131196,
          "time": 184.678869375,
          "velocity": 0.84251968503937
        },
        {
          "duration": 0.14639625000000933,
          "durationTicks": 104,
          "midi": 40,
          "name": "E2",
          "ticks": 131322,
          "time": 184.8562340625,
          "velocity": 0.8740157480314961
        },
        {
          "duration": 0.10135125000002176,
          "durationTicks": 72,
          "midi": 40,
          "name": "E2",
          "ticks": 131576,
          "time": 185.21377875,
          "velocity": 0.84251968503937
        },
        {
          "duration": 0.1745493749999696,
          "durationTicks": 124,
          "midi": 40,
          "name": "E2",
          "ticks": 131704,
          "time": 185.39395875000002,
          "velocity": 0.84251968503937
        },
        {
          "duration": 0.10135124999999334,
          "durationTicks": 72,
          "midi": 40,
          "name": "E2",
          "ticks": 131960,
          "time": 185.75431875,
          "velocity": 0.84251968503937
        },
        {
          "duration": 0.13795031249998146,
          "durationTicks": 98,
          "midi": 42,
          "name": "F#2",
          "ticks": 132094,
          "time": 185.94294468750002,
          "velocity": 0.8740157480314961
        },
        {
          "duration": 0.1041665625000121,
          "durationTicks": 74,
          "midi": 42,
          "name": "F#2",
          "ticks": 132344,
          "time": 186.29485875,
          "velocity": 0.84251968503937
        },
        {
          "duration": 0.15765750000002754,
          "durationTicks": 112,
          "midi": 42,
          "name": "F#2",
          "ticks": 132464,
          "time": 186.4637775,
          "velocity": 0.8740157480314961
        },
        {
          "duration": 0.09853593749997458,
          "durationTicks": 70,
          "midi": 42,
          "name": "F#2",
          "ticks": 132730,
          "time": 186.83821406250001,
          "velocity": 0.84251968503937
        },
        {
          "duration": 0.14358093749999057,
          "durationTicks": 102,
          "midi": 42,
          "name": "F#2",
          "ticks": 132856,
          "time": 187.01557875000003,
          "velocity": 0.8740157480314961
        },
        {
          "duration": 0.098535937500003,
          "durationTicks": 70,
          "midi": 42,
          "name": "F#2",
          "ticks": 133114,
          "time": 187.3787540625,
          "velocity": 0.84251968503937
        },
        {
          "duration": 0.1689187499999889,
          "durationTicks": 120,
          "midi": 42,
          "name": "F#2",
          "ticks": 133240,
          "time": 187.55611875000002,
          "velocity": 0.84251968503937
        },
        {
          "duration": 0.11261249999998313,
          "durationTicks": 80,
          "midi": 42,
          "name": "F#2",
          "ticks": 133488,
          "time": 187.90521750000002,
          "velocity": 0.84251968503937
        },
        {
          "duration": 0.13795031249998146,
          "durationTicks": 98,
          "midi": 43,
          "name": "G2",
          "ticks": 133630,
          "time": 188.10510468750002,
          "velocity": 0.8740157480314961
        },
        {
          "duration": 0.10979718749999279,
          "durationTicks": 78,
          "midi": 43,
          "name": "G2",
          "ticks": 133874,
          "time": 188.4485728125,
          "velocity": 0.84251968503937
        },
        {
          "duration": 0.15484218750000878,
          "durationTicks": 110,
          "midi": 43,
          "name": "G2",
          "ticks": 134002,
          "time": 188.6287528125,
          "velocity": 0.8740157480314961
        },
        {
          "duration": 0.0929053124999939,
          "durationTicks": 66,
          "midi": 43,
          "name": "G2",
          "ticks": 134270,
          "time": 189.0060046875,
          "velocity": 0.84251968503937
        },
        {
          "duration": 0.16047281250001788,
          "durationTicks": 114,
          "midi": 43,
          "name": "G2",
          "ticks": 134384,
          "time": 189.16647749999998,
          "velocity": 0.8740157480314961
        },
        {
          "duration": 0.10416656250004053,
          "durationTicks": 74,
          "midi": 43,
          "name": "G2",
          "ticks": 134648,
          "time": 189.53809875,
          "velocity": 0.84251968503937
        },
        {
          "duration": 0.17173406250000767,
          "durationTicks": 122,
          "midi": 43,
          "name": "G2",
          "ticks": 134780,
          "time": 189.723909375,
          "velocity": 0.84251968503937
        },
        {
          "duration": 0.11261250000001155,
          "durationTicks": 80,
          "midi": 43,
          "name": "G2",
          "ticks": 135026,
          "time": 190.0701928125,
          "velocity": 0.84251968503937
        },
        {
          "duration": 0.15202687499999,
          "durationTicks": 108,
          "midi": 42,
          "name": "F#2",
          "ticks": 135156,
          "time": 190.253188125,
          "velocity": 0.8740157480314961
        },
        {
          "duration": 0.1041665625000121,
          "durationTicks": 74,
          "midi": 42,
          "name": "F#2",
          "ticks": 135416,
          "time": 190.61917875,
          "velocity": 0.84251968503937
        },
        {
          "duration": 0.16047281250001788,
          "durationTicks": 114,
          "midi": 42,
          "name": "F#2",
          "ticks": 135538,
          "time": 190.7909128125,
          "velocity": 0.8740157480314961
        },
        {
          "duration": 0.10135124999999334,
          "durationTicks": 72,
          "midi": 42,
          "name": "F#2",
          "ticks": 135804,
          "time": 191.165349375,
          "velocity": 0.84251968503937
        },
        {
          "duration": 0.14921156249997125,
          "durationTicks": 106,
          "midi": 42,
          "name": "F#2",
          "ticks": 135928,
          "time": 191.33989875000003,
          "velocity": 0.8740157480314961
        },
        {
          "duration": 0.10698187500003087,
          "durationTicks": 76,
          "midi": 42,
          "name": "F#2",
          "ticks": 136184,
          "time": 191.70025875,
          "velocity": 0.84251968503937
        },
        {
          "duration": 0.1689187499999889,
          "durationTicks": 120,
          "midi": 42,
          "name": "F#2",
          "ticks": 136314,
          "time": 191.88325406250001,
          "velocity": 0.84251968503937
        },
        {
          "duration": 0.10698187499997402,
          "durationTicks": 76,
          "midi": 42,
          "name": "F#2",
          "ticks": 136564,
          "time": 192.23516812500003,
          "velocity": 0.84251968503937
        },
        {
          "duration": 0.13795031249998146,
          "durationTicks": 98,
          "midi": 40,
          "name": "E2",
          "ticks": 136702,
          "time": 192.42942468750002,
          "velocity": 0.8740157480314961
        },
        {
          "duration": 0.10135124999999334,
          "durationTicks": 72,
          "midi": 40,
          "name": "E2",
          "ticks": 136954,
          "time": 192.78415406250002,
          "velocity": 0.84251968503937
        },
        {
          "duration": 0.14921156249999967,
          "durationTicks": 106,
          "midi": 40,
          "name": "E2",
          "ticks": 137080,
          "time": 192.96151875,
          "velocity": 0.8740157480314961
        },
        {
          "duration": 0.098535937500003,
          "durationTicks": 70,
          "midi": 40,
          "name": "E2",
          "ticks": 137340,
          "time": 193.327509375,
          "velocity": 0.84251968503937
        },
        {
          "duration": 0.1407656249999718,
          "durationTicks": 100,
          "midi": 42,
          "name": "F#2",
          "ticks": 137470,
          "time": 193.51050468750003,
          "velocity": 0.8740157480314961
        },
        {
          "duration": 0.098535937500003,
          "durationTicks": 70,
          "midi": 42,
          "name": "F#2",
          "ticks": 137722,
          "time": 193.8652340625,
          "velocity": 0.84251968503937
        },
        {
          "duration": 0.1689187499999889,
          "durationTicks": 120,
          "midi": 42,
          "name": "F#2",
          "ticks": 137848,
          "time": 194.04259875000002,
          "velocity": 0.84251968503937
        },
        {
          "duration": 0.10979718749999279,
          "durationTicks": 78,
          "midi": 42,
          "name": "F#2",
          "ticks": 138098,
          "time": 194.3945128125,
          "velocity": 0.84251968503937
        },
        {
          "duration": 0.15202687499999,
          "durationTicks": 108,
          "midi": 43,
          "name": "G2",
          "ticks": 138230,
          "time": 194.5803234375,
          "velocity": 0.8740157480314961
        },
        {
          "duration": 0.11261250000001155,
          "durationTicks": 80,
          "midi": 43,
          "name": "G2",
          "ticks": 138482,
          "time": 194.9350528125,
          "velocity": 0.84251968503937
        },
        {
          "duration": 0.15484218750000878,
          "durationTicks": 110,
          "midi": 43,
          "name": "G2",
          "ticks": 138610,
          "time": 195.1152328125,
          "velocity": 0.8740157480314961
        },
        {
          "duration": 0.10979718749999279,
          "durationTicks": 78,
          "midi": 43,
          "name": "G2",
          "ticks": 138866,
          "time": 195.4755928125,
          "velocity": 0.84251968503937
        },
        {
          "duration": 0.1407656249999718,
          "durationTicks": 100,
          "midi": 45,
          "name": "A2",
          "ticks": 139006,
          "time": 195.67266468750003,
          "velocity": 0.8740157480314961
        },
        {
          "duration": 0.10979718750002121,
          "durationTicks": 78,
          "midi": 45,
          "name": "A2",
          "ticks": 139248,
          "time": 196.0133175,
          "velocity": 0.84251968503937
        },
        {
          "duration": 0.17736468749998835,
          "durationTicks": 126,
          "midi": 45,
          "name": "A2",
          "ticks": 139386,
          "time": 196.20757406250002,
          "velocity": 0.84251968503937
        },
        {
          "duration": 0.09572062499998424,
          "durationTicks": 68,
          "midi": 45,
          "name": "A2",
          "ticks": 139644,
          "time": 196.57074937500002,
          "velocity": 0.84251968503937
        },
        {
          "duration": 2.210020312499978,
          "durationTicks": 1570,
          "midi": 31,
          "name": "G1",
          "ticks": 139774,
          "time": 196.75374468750002,
          "velocity": 0.7795275590551181
        },
        {
          "duration": 0.18299531250002588,
          "durationTicks": 130,
          "midi": 26,
          "name": "D1",
          "ticks": 141434,
          "time": 199.0904540625,
          "velocity": 0.8110236220472441
        },
        {
          "duration": 0.554616562499973,
          "durationTicks": 394,
          "midi": 26,
          "name": "D1",
          "ticks": 141682,
          "time": 199.4395528125,
          "velocity": 0.8110236220472441
        },
        {
          "duration": 0.15484218749998035,
          "durationTicks": 110,
          "midi": 33,
          "name": "A1",
          "ticks": 142194,
          "time": 200.1602728125,
          "velocity": 0.8110236220472441
        },
        {
          "duration": 0.32657625000001644,
          "durationTicks": 232,
          "midi": 33,
          "name": "A1",
          "ticks": 142458,
          "time": 200.53189406250002,
          "velocity": 0.8740157480314961
        },
        {
          "duration": 2.421168749999964,
          "durationTicks": 1720,
          "midi": 31,
          "name": "G1",
          "ticks": 142714,
          "time": 200.89225406250003,
          "velocity": 0.905511811023622
        },
        {
          "duration": 0.18018000000003553,
          "durationTicks": 128,
          "midi": 26,
          "name": "D1",
          "ticks": 144506,
          "time": 203.4147740625,
          "velocity": 0.8110236220472441
        },
        {
          "duration": 0.5827696875000186,
          "durationTicks": 414,
          "midi": 26,
          "name": "D1",
          "ticks": 144752,
          "time": 203.7610575,
          "velocity": 0.8110236220472441
        },
        {
          "duration": 0.13513499999999112,
          "durationTicks": 96,
          "midi": 33,
          "name": "A1",
          "ticks": 145264,
          "time": 204.48177750000002,
          "velocity": 0.84251968503937
        },
        {
          "duration": 0.4110356250000109,
          "durationTicks": 292,
          "midi": 33,
          "name": "A1",
          "ticks": 145532,
          "time": 204.859029375,
          "velocity": 0.84251968503937
        },
        {
          "duration": 0.15202687499999,
          "durationTicks": 108,
          "midi": 40,
          "name": "E2",
          "ticks": 145908,
          "time": 205.388308125,
          "velocity": 0.905511811023622
        },
        {
          "duration": 0.1041665625000121,
          "durationTicks": 74,
          "midi": 40,
          "name": "E2",
          "ticks": 146168,
          "time": 205.75429875,
          "velocity": 0.84251968503937
        },
        {
          "duration": 0.1379503125000099,
          "durationTicks": 98,
          "midi": 40,
          "name": "E2",
          "ticks": 146298,
          "time": 205.9372940625,
          "velocity": 0.8740157480314961
        },
        {
          "duration": 0.11261250000001155,
          "durationTicks": 80,
          "midi": 40,
          "name": "E2",
          "ticks": 146546,
          "time": 206.2863928125,
          "velocity": 0.84251968503937
        },
        {
          "duration": 0.1463962499999809,
          "durationTicks": 104,
          "midi": 40,
          "name": "E2",
          "ticks": 146680,
          "time": 206.47501875000003,
          "velocity": 0.8740157480314961
        },
        {
          "duration": 0.10416656250004053,
          "durationTicks": 74,
          "midi": 40,
          "name": "E2",
          "ticks": 146936,
          "time": 206.83537875,
          "velocity": 0.84251968503937
        },
        {
          "duration": 0.1689187499999889,
          "durationTicks": 120,
          "midi": 40,
          "name": "E2",
          "ticks": 147064,
          "time": 207.01555875000003,
          "velocity": 0.84251968503937
        },
        {
          "duration": 0.10979718749999279,
          "durationTicks": 78,
          "midi": 40,
          "name": "E2",
          "ticks": 147314,
          "time": 207.3674728125,
          "velocity": 0.84251968503937
        },
        {
          "duration": 0.15202687499999,
          "durationTicks": 108,
          "midi": 42,
          "name": "F#2",
          "ticks": 147444,
          "time": 207.550468125,
          "velocity": 0.8740157480314961
        },
        {
          "duration": 0.11261249999998313,
          "durationTicks": 80,
          "midi": 42,
          "name": "F#2",
          "ticks": 147696,
          "time": 207.9051975,
          "velocity": 0.84251968503937
        },
        {
          "duration": 0.143580937500019,
          "durationTicks": 102,
          "midi": 42,
          "name": "F#2",
          "ticks": 147834,
          "time": 208.0994540625,
          "velocity": 0.8740157480314961
        },
        {
          "duration": 0.10135124999999334,
          "durationTicks": 72,
          "midi": 42,
          "name": "F#2",
          "ticks": 148090,
          "time": 208.45981406250002,
          "velocity": 0.84251968503937
        },
        {
          "duration": 0.15765750000002754,
          "durationTicks": 112,
          "midi": 42,
          "name": "F#2",
          "ticks": 148208,
          "time": 208.62591749999999,
          "velocity": 0.8740157480314961
        },
        {
          "duration": 0.10135125000002176,
          "durationTicks": 72,
          "midi": 42,
          "name": "F#2",
          "ticks": 148472,
          "time": 208.99753875,
          "velocity": 0.84251968503937
        },
        {
          "duration": 0.18299531249996903,
          "durationTicks": 130,
          "midi": 42,
          "name": "F#2",
          "ticks": 148594,
          "time": 209.16927281250003,
          "velocity": 0.84251968503937
        },
        {
          "duration": 0.09853593749997458,
          "durationTicks": 70,
          "midi": 42,
          "name": "F#2",
          "ticks": 148858,
          "time": 209.54089406250003,
          "velocity": 0.84251968503937
        },
        {
          "duration": 0.13795031249998146,
          "durationTicks": 98,
          "midi": 43,
          "name": "G2",
          "ticks": 148990,
          "time": 209.72670468750002,
          "velocity": 0.8740157480314961
        },
        {
          "duration": 0.10135124999999334,
          "durationTicks": 72,
          "midi": 43,
          "name": "G2",
          "ticks": 149242,
          "time": 210.08143406250002,
          "velocity": 0.84251968503937
        },
        {
          "duration": 0.1379503125000099,
          "durationTicks": 98,
          "midi": 43,
          "name": "G2",
          "ticks": 149374,
          "time": 210.2672446875,
          "velocity": 0.8740157480314961
        },
        {
          "duration": 0.098535937500003,
          "durationTicks": 70,
          "midi": 43,
          "name": "G2",
          "ticks": 149628,
          "time": 210.624789375,
          "velocity": 0.84251968503937
        },
        {
          "duration": 0.15202687500001844,
          "durationTicks": 108,
          "midi": 43,
          "name": "G2",
          "ticks": 149746,
          "time": 210.7908928125,
          "velocity": 0.8740157480314961
        },
        {
          "duration": 0.10416656250004053,
          "durationTicks": 74,
          "midi": 43,
          "name": "G2",
          "ticks": 150008,
          "time": 211.15969875,
          "velocity": 0.84251968503937
        },
        {
          "duration": 0.1689187499999889,
          "durationTicks": 120,
          "midi": 43,
          "name": "G2",
          "ticks": 150140,
          "time": 211.345509375,
          "velocity": 0.84251968503937
        },
        {
          "duration": 0.09853593749997458,
          "durationTicks": 70,
          "midi": 43,
          "name": "G2",
          "ticks": 150394,
          "time": 211.70305406250003,
          "velocity": 0.84251968503937
        },
        {
          "duration": 0.1407656249999718,
          "durationTicks": 100,
          "midi": 42,
          "name": "F#2",
          "ticks": 150526,
          "time": 211.88886468750002,
          "velocity": 0.8740157480314961
        },
        {
          "duration": 0.0929053124999939,
          "durationTicks": 66,
          "midi": 42,
          "name": "F#2",
          "ticks": 150780,
          "time": 212.246409375,
          "velocity": 0.84251968503937
        },
        {
          "duration": 0.14639625000000933,
          "durationTicks": 104,
          "midi": 42,
          "name": "F#2",
          "ticks": 150904,
          "time": 212.42095875,
          "velocity": 0.8740157480314961
        },
        {
          "duration": 0.11261250000001155,
          "durationTicks": 80,
          "midi": 42,
          "name": "F#2",
          "ticks": 151154,
          "time": 212.7728728125,
          "velocity": 0.84251968503937
        },
        {
          "duration": 0.1463962499999809,
          "durationTicks": 104,
          "midi": 42,
          "name": "F#2",
          "ticks": 151288,
          "time": 212.96149875000003,
          "velocity": 0.8740157480314961
        },
        {
          "duration": 0.10135125000002176,
          "durationTicks": 72,
          "midi": 42,
          "name": "F#2",
          "ticks": 151546,
          "time": 213.3246740625,
          "velocity": 0.84251968503937
        },
        {
          "duration": 0.174549374999998,
          "durationTicks": 124,
          "midi": 42,
          "name": "F#2",
          "ticks": 151674,
          "time": 213.50485406250002,
          "velocity": 0.84251968503937
        },
        {
          "duration": 0.09572062499998424,
          "durationTicks": 68,
          "midi": 42,
          "name": "F#2",
          "ticks": 151930,
          "time": 213.86521406250003,
          "velocity": 0.84251968503937
        },
        {
          "duration": 0.1407656249999718,
          "durationTicks": 100,
          "midi": 40,
          "name": "E2",
          "ticks": 152062,
          "time": 214.05102468750002,
          "velocity": 0.8740157480314961
        },
        {
          "duration": 0.10135124999999334,
          "durationTicks": 72,
          "midi": 40,
          "name": "E2",
          "ticks": 152314,
          "time": 214.40575406250002,
          "velocity": 0.84251968503937
        },
        {
          "duration": 0.15484218750000878,
          "durationTicks": 110,
          "midi": 40,
          "name": "E2",
          "ticks": 152434,
          "time": 214.5746728125,
          "velocity": 0.8740157480314961
        },
        {
          "duration": 0.098535937500003,
          "durationTicks": 70,
          "midi": 40,
          "name": "E2",
          "ticks": 152700,
          "time": 214.949109375,
          "velocity": 0.84251968503937
        },
        {
          "duration": 0.13795031249998146,
          "durationTicks": 98,
          "midi": 42,
          "name": "F#2",
          "ticks": 152830,
          "time": 215.13210468750003,
          "velocity": 0.8740157480314961
        },
        {
          "duration": 0.10416656250004053,
          "durationTicks": 74,
          "midi": 42,
          "name": "F#2",
          "ticks": 153080,
          "time": 215.48401875,
          "velocity": 0.84251968503937
        },
        {
          "duration": 0.1801799999999787,
          "durationTicks": 128,
          "midi": 42,
          "name": "F#2",
          "ticks": 153208,
          "time": 215.66419875000003,
          "velocity": 0.84251968503937
        },
        {
          "duration": 0.11261250000001155,
          "durationTicks": 80,
          "midi": 42,
          "name": "F#2",
          "ticks": 153458,
          "time": 216.0161128125,
          "velocity": 0.84251968503937
        },
        {
          "duration": 0.1407656249999718,
          "durationTicks": 100,
          "midi": 43,
          "name": "G2",
          "ticks": 153598,
          "time": 216.21318468750002,
          "velocity": 0.8740157480314961
        },
        {
          "duration": 0.11261249999998313,
          "durationTicks": 80,
          "midi": 43,
          "name": "G2",
          "ticks": 153840,
          "time": 216.55383750000001,
          "velocity": 0.84251968503937
        },
        {
          "duration": 0.15484218750000878,
          "durationTicks": 110,
          "midi": 43,
          "name": "G2",
          "ticks": 153970,
          "time": 216.7368328125,
          "velocity": 0.8740157480314961
        },
        {
          "duration": 0.10979718749999279,
          "durationTicks": 78,
          "midi": 43,
          "name": "G2",
          "ticks": 154226,
          "time": 217.0971928125,
          "velocity": 0.84251968503937
        },
        {
          "duration": 0.1492115625000281,
          "durationTicks": 106,
          "midi": 45,
          "name": "A2",
          "ticks": 154356,
          "time": 217.280188125,
          "velocity": 0.8740157480314961
        },
        {
          "duration": 0.10135125000002176,
          "durationTicks": 72,
          "midi": 45,
          "name": "A2",
          "ticks": 154616,
          "time": 217.64617875,
          "velocity": 0.84251968503937
        },
        {
          "duration": 0.18299531249996903,
          "durationTicks": 130,
          "midi": 45,
          "name": "A2",
          "ticks": 154738,
          "time": 217.81791281250003,
          "velocity": 0.84251968503937
        },
        {
          "duration": 0.09572062499998424,
          "durationTicks": 68,
          "midi": 45,
          "name": "A2",
          "ticks": 155004,
          "time": 218.19234937500002,
          "velocity": 0.84251968503937
        },
        {
          "duration": 0.13513499999999112,
          "durationTicks": 96,
          "midi": 40,
          "name": "E2",
          "ticks": 155134,
          "time": 218.37534468750002,
          "velocity": 0.8740157480314961
        },
        {
          "duration": 0.1041665625000121,
          "durationTicks": 74,
          "midi": 40,
          "name": "E2",
          "ticks": 155384,
          "time": 218.72725875,
          "velocity": 0.84251968503937
        },
        {
          "duration": 0.15765750000002754,
          "durationTicks": 112,
          "midi": 40,
          "name": "E2",
          "ticks": 155504,
          "time": 218.8961775,
          "velocity": 0.8740157480314961
        },
        {
          "duration": 0.09572062500001266,
          "durationTicks": 68,
          "midi": 40,
          "name": "E2",
          "ticks": 155774,
          "time": 219.2762446875,
          "velocity": 0.84251968503937
        },
        {
          "duration": 0.15484218750000878,
          "durationTicks": 110,
          "midi": 42,
          "name": "F#2",
          "ticks": 155892,
          "time": 219.442348125,
          "velocity": 0.8740157480314961
        },
        {
          "duration": 0.11261250000001155,
          "durationTicks": 80,
          "midi": 42,
          "name": "F#2",
          "ticks": 156144,
          "time": 219.7970775,
          "velocity": 0.84251968503937
        },
        {
          "duration": 0.18299531249996903,
          "durationTicks": 130,
          "midi": 42,
          "name": "F#2",
          "ticks": 156274,
          "time": 219.98007281250003,
          "velocity": 0.84251968503937
        },
        {
          "duration": 0.09572062500001266,
          "durationTicks": 68,
          "midi": 42,
          "name": "F#2",
          "ticks": 156542,
          "time": 220.3573246875,
          "velocity": 0.84251968503937
        },
        {
          "duration": 0.13795031249998146,
          "durationTicks": 98,
          "midi": 43,
          "name": "G2",
          "ticks": 156670,
          "time": 220.53750468750002,
          "velocity": 0.8740157480314961
        },
        {
          "duration": 0.10135124999999334,
          "durationTicks": 72,
          "midi": 43,
          "name": "G2",
          "ticks": 156920,
          "time": 220.88941875,
          "velocity": 0.84251968503937
        },
        {
          "duration": 0.143580937500019,
          "durationTicks": 102,
          "midi": 43,
          "name": "G2",
          "ticks": 157050,
          "time": 221.0724140625,
          "velocity": 0.8740157480314961
        },
        {
          "duration": 0.09572062499998424,
          "durationTicks": 68,
          "midi": 43,
          "name": "G2",
          "ticks": 157308,
          "time": 221.435589375,
          "velocity": 0.84251968503937
        },
        {
          "duration": 0.15202687500001844,
          "durationTicks": 108,
          "midi": 45,
          "name": "A2",
          "ticks": 157426,
          "time": 221.6016928125,
          "velocity": 0.8740157480314961
        },
        {
          "duration": 0.10135125000002176,
          "durationTicks": 72,
          "midi": 45,
          "name": "A2",
          "ticks": 157690,
          "time": 221.9733140625,
          "velocity": 0.84251968503937
        },
        {
          "duration": 0.16328812500000822,
          "durationTicks": 116,
          "midi": 45,
          "name": "A2",
          "ticks": 157820,
          "time": 222.156309375,
          "velocity": 0.84251968503937
        },
        {
          "duration": 0.3603599999999574,
          "durationTicks": 256,
          "midi": 45,
          "name": "A2",
          "ticks": 158068,
          "time": 222.50540812500003,
          "velocity": 0.84251968503937
        }
      ],
      "endOfTrackTicks": 161280
    },
    {
      "channel": 2,
      "controlChanges": {},
      "pitchBends": [],
      "instrument": {
        "family": "piano",
        "number": 5,
        "name": "electric piano 2"
      },
      "name": "E.PNO/SAWT",
      "notes": [
        {
          "duration": 0.08445937499999978,
          "durationTicks": 60,
          "midi": 86,
          "name": "D6",
          "ticks": 882,
          "time": 1.2415528125000002,
          "velocity": 0.3700787401574803
        },
        {
          "duration": 0.09009,
          "durationTicks": 64,
          "midi": 81,
          "name": "A5",
          "ticks": 1008,
          "time": 1.4189175,
          "velocity": 0.4015748031496063
        },
        {
          "duration": 0.09290531250000011,
          "durationTicks": 66,
          "midi": 74,
          "name": "D5",
          "ticks": 1134,
          "time": 1.5962821875,
          "velocity": 0.4015748031496063
        },
        {
          "duration": 0.09009,
          "durationTicks": 64,
          "midi": 78,
          "name": "F#5",
          "ticks": 1264,
          "time": 1.7792775,
          "velocity": 0.3700787401574803
        },
        {
          "duration": 0.08164406250000011,
          "durationTicks": 58,
          "midi": 78,
          "name": "F#5",
          "ticks": 1398,
          "time": 1.9679034375,
          "velocity": 0.2125984251968504
        },
        {
          "duration": 0.07601343750000034,
          "durationTicks": 54,
          "midi": 78,
          "name": "F#5",
          "ticks": 1528,
          "time": 2.15089875,
          "velocity": 0.2125984251968504
        },
        {
          "duration": 0.07601343750000034,
          "durationTicks": 54,
          "midi": 66,
          "name": "F#4",
          "ticks": 1528,
          "time": 2.15089875,
          "velocity": 0.4015748031496063
        },
        {
          "duration": 0.08727468749999989,
          "durationTicks": 62,
          "midi": 78,
          "name": "F#5",
          "ticks": 1650,
          "time": 2.3226328125,
          "velocity": 0.2125984251968504
        },
        {
          "duration": 0.08164406250000011,
          "durationTicks": 58,
          "midi": 78,
          "name": "F#5",
          "ticks": 1782,
          "time": 2.5084434375,
          "velocity": 0.2125984251968504
        },
        {
          "duration": 0.08164406250000011,
          "durationTicks": 58,
          "midi": 66,
          "name": "F#4",
          "ticks": 1782,
          "time": 2.5084434375,
          "velocity": 0.4015748031496063
        },
        {
          "duration": 0.08727468749999945,
          "durationTicks": 62,
          "midi": 78,
          "name": "F#5",
          "ticks": 1908,
          "time": 2.6858081250000003,
          "velocity": 0.2125984251968504
        },
        {
          "duration": 0.09290531250000011,
          "durationTicks": 66,
          "midi": 78,
          "name": "F#5",
          "ticks": 2032,
          "time": 2.8603575,
          "velocity": 0.2125984251968504
        },
        {
          "duration": 0.09290531250000011,
          "durationTicks": 66,
          "midi": 66,
          "name": "F#4",
          "ticks": 2032,
          "time": 2.8603575,
          "velocity": 0.4015748031496063
        },
        {
          "duration": 0.08727468749999989,
          "durationTicks": 62,
          "midi": 78,
          "name": "F#5",
          "ticks": 2164,
          "time": 3.0461681250000003,
          "velocity": 0.2125984251968504
        },
        {
          "duration": 0.08445937499999978,
          "durationTicks": 60,
          "midi": 78,
          "name": "F#5",
          "ticks": 2294,
          "time": 3.2291634375,
          "velocity": 0.2125984251968504
        },
        {
          "duration": 0.08445937499999978,
          "durationTicks": 60,
          "midi": 66,
          "name": "F#4",
          "ticks": 2294,
          "time": 3.2291634375,
          "velocity": 0.4015748031496063
        },
        {
          "duration": 0.08445937500000023,
          "durationTicks": 60,
          "midi": 78,
          "name": "F#5",
          "ticks": 2420,
          "time": 3.406528125,
          "velocity": 0.2125984251968504
        },
        {
          "duration": 0.09009,
          "durationTicks": 64,
          "midi": 78,
          "name": "F#5",
          "ticks": 2544,
          "time": 3.5810775,
          "velocity": 0.2125984251968504
        },
        {
          "duration": 0.09009,
          "durationTicks": 64,
          "midi": 66,
          "name": "F#4",
          "ticks": 2544,
          "time": 3.5810775,
          "velocity": 0.4015748031496063
        },
        {
          "duration": 0.09009,
          "durationTicks": 64,
          "midi": 78,
          "name": "F#5",
          "ticks": 2672,
          "time": 3.7612575,
          "velocity": 0.2125984251968504
        },
        {
          "duration": 0.08727468750000034,
          "durationTicks": 62,
          "midi": 78,
          "name": "F#5",
          "ticks": 2804,
          "time": 3.947068125,
          "velocity": 0.2125984251968504
        },
        {
          "duration": 0.08727468750000034,
          "durationTicks": 62,
          "midi": 66,
          "name": "F#4",
          "ticks": 2804,
          "time": 3.947068125,
          "velocity": 0.4015748031496063
        },
        {
          "duration": 0.08445937499999978,
          "durationTicks": 60,
          "midi": 78,
          "name": "F#5",
          "ticks": 2932,
          "time": 4.127248125,
          "velocity": 0.2125984251968504
        },
        {
          "duration": 0.08445937500000067,
          "durationTicks": 60,
          "midi": 78,
          "name": "F#5",
          "ticks": 3062,
          "time": 4.3102434375,
          "velocity": 0.2125984251968504
        },
        {
          "duration": 0.08445937500000067,
          "durationTicks": 60,
          "midi": 66,
          "name": "F#4",
          "ticks": 3062,
          "time": 4.3102434375,
          "velocity": 0.4015748031496063
        },
        {
          "duration": 0.08727468749999989,
          "durationTicks": 62,
          "midi": 78,
          "name": "F#5",
          "ticks": 3188,
          "time": 4.487608125,
          "velocity": 0.2125984251968504
        },
        {
          "duration": 0.09009,
          "durationTicks": 64,
          "midi": 78,
          "name": "F#5",
          "ticks": 3312,
          "time": 4.6621575,
          "velocity": 0.2125984251968504
        },
        {
          "duration": 0.09009,
          "durationTicks": 64,
          "midi": 66,
          "name": "F#4",
          "ticks": 3312,
          "time": 4.6621575,
          "velocity": 0.4015748031496063
        },
        {
          "duration": 0.08164406249999967,
          "durationTicks": 58,
          "midi": 78,
          "name": "F#5",
          "ticks": 3446,
          "time": 4.8507834375000005,
          "velocity": 0.2125984251968504
        },
        {
          "duration": 0.09009,
          "durationTicks": 64,
          "midi": 78,
          "name": "F#5",
          "ticks": 3568,
          "time": 5.0225175,
          "velocity": 0.2125984251968504
        },
        {
          "duration": 0.09009,
          "durationTicks": 64,
          "midi": 66,
          "name": "F#4",
          "ticks": 3568,
          "time": 5.0225175,
          "velocity": 0.4015748031496063
        },
        {
          "duration": 0.08727468749999989,
          "durationTicks": 62,
          "midi": 78,
          "name": "F#5",
          "ticks": 3698,
          "time": 5.2055128125,
          "velocity": 0.2125984251968504
        },
        {
          "duration": 0.09009,
          "durationTicks": 64,
          "midi": 78,
          "name": "F#5",
          "ticks": 3824,
          "time": 5.3828775,
          "velocity": 0.2125984251968504
        },
        {
          "duration": 0.09009,
          "durationTicks": 64,
          "midi": 66,
          "name": "F#4",
          "ticks": 3824,
          "time": 5.3828775,
          "velocity": 0.4015748031496063
        },
        {
          "duration": 0.09009,
          "durationTicks": 64,
          "midi": 78,
          "name": "F#5",
          "ticks": 3952,
          "time": 5.5630575,
          "velocity": 0.2125984251968504
        },
        {
          "duration": 0.09009,
          "durationTicks": 64,
          "midi": 78,
          "name": "F#5",
          "ticks": 4080,
          "time": 5.7432375,
          "velocity": 0.2125984251968504
        },
        {
          "duration": 0.09009,
          "durationTicks": 64,
          "midi": 66,
          "name": "F#4",
          "ticks": 4080,
          "time": 5.7432375,
          "velocity": 0.4015748031496063
        },
        {
          "duration": 0.08727468749999989,
          "durationTicks": 62,
          "midi": 78,
          "name": "F#5",
          "ticks": 4208,
          "time": 5.9234175,
          "velocity": 0.2125984251968504
        },
        {
          "duration": 0.08164406250000056,
          "durationTicks": 58,
          "midi": 78,
          "name": "F#5",
          "ticks": 4342,
          "time": 6.1120434375,
          "velocity": 0.2125984251968504
        },
        {
          "duration": 0.08164406250000056,
          "durationTicks": 58,
          "midi": 66,
          "name": "F#4",
          "ticks": 4342,
          "time": 6.1120434375,
          "velocity": 0.4015748031496063
        },
        {
          "duration": 0.08164406250000056,
          "durationTicks": 58,
          "midi": 78,
          "name": "F#5",
          "ticks": 4468,
          "time": 6.289408125,
          "velocity": 0.2125984251968504
        },
        {
          "duration": 0.09290531250000011,
          "durationTicks": 66,
          "midi": 78,
          "name": "F#5",
          "ticks": 4592,
          "time": 6.4639575,
          "velocity": 0.2125984251968504
        },
        {
          "duration": 0.09290531250000011,
          "durationTicks": 66,
          "midi": 66,
          "name": "F#4",
          "ticks": 4592,
          "time": 6.4639575,
          "velocity": 0.4015748031496063
        },
        {
          "duration": 0.08445937499999978,
          "durationTicks": 60,
          "midi": 78,
          "name": "F#5",
          "ticks": 4724,
          "time": 6.6497681250000005,
          "velocity": 0.2125984251968504
        },
        {
          "duration": 0.08727468750000078,
          "durationTicks": 62,
          "midi": 78,
          "name": "F#5",
          "ticks": 4852,
          "time": 6.829948125,
          "velocity": 0.2125984251968504
        },
        {
          "duration": 0.10698187500000067,
          "durationTicks": 76,
          "midi": 66,
          "name": "F#4",
          "ticks": 4852,
          "time": 6.829948125,
          "velocity": 0.4330708661417323
        },
        {
          "duration": 0.08445937499999978,
          "durationTicks": 60,
          "midi": 78,
          "name": "F#5",
          "ticks": 4980,
          "time": 7.0101281250000005,
          "velocity": 0.2125984251968504
        },
        {
          "duration": 0.09009,
          "durationTicks": 64,
          "midi": 78,
          "name": "F#5",
          "ticks": 5104,
          "time": 7.1846775,
          "velocity": 0.2125984251968504
        },
        {
          "duration": 0.1126125,
          "durationTicks": 80,
          "midi": 66,
          "name": "F#4",
          "ticks": 5104,
          "time": 7.1846775,
          "velocity": 0.4645669291338583
        },
        {
          "duration": 0.09009,
          "durationTicks": 64,
          "midi": 78,
          "name": "F#5",
          "ticks": 5232,
          "time": 7.3648575,
          "velocity": 0.2125984251968504
        },
        {
          "duration": 0.08445937499999978,
          "durationTicks": 60,
          "midi": 78,
          "name": "F#5",
          "ticks": 5366,
          "time": 7.553483437500001,
          "velocity": 0.2125984251968504
        },
        {
          "duration": 0.10135124999999956,
          "durationTicks": 72,
          "midi": 66,
          "name": "F#4",
          "ticks": 5366,
          "time": 7.553483437500001,
          "velocity": 0.49606299212598426
        },
        {
          "duration": 0.08164406249999967,
          "durationTicks": 58,
          "midi": 78,
          "name": "F#5",
          "ticks": 5492,
          "time": 7.7308481250000005,
          "velocity": 0.2125984251968504
        },
        {
          "duration": 0.09009,
          "durationTicks": 64,
          "midi": 78,
          "name": "F#5",
          "ticks": 5616,
          "time": 7.9053975,
          "velocity": 0.2125984251968504
        },
        {
          "duration": 0.1351350000000009,
          "durationTicks": 96,
          "midi": 66,
          "name": "F#4",
          "ticks": 5616,
          "time": 7.9053975,
          "velocity": 0.49606299212598426
        },
        {
          "duration": 0.08445937499999978,
          "durationTicks": 60,
          "midi": 78,
          "name": "F#5",
          "ticks": 5748,
          "time": 8.091208125,
          "velocity": 0.2125984251968504
        },
        {
          "duration": 0.08164406249999878,
          "durationTicks": 58,
          "midi": 78,
          "name": "F#5",
          "ticks": 5876,
          "time": 8.271388125000001,
          "velocity": 0.2125984251968504
        },
        {
          "duration": 0.132319687499999,
          "durationTicks": 94,
          "midi": 66,
          "name": "F#4",
          "ticks": 5876,
          "time": 8.271388125000001,
          "velocity": 0.5275590551181102
        },
        {
          "duration": 0.08445937499999978,
          "durationTicks": 60,
          "midi": 78,
          "name": "F#5",
          "ticks": 6004,
          "time": 8.451568125,
          "velocity": 0.2125984251968504
        },
        {
          "duration": 0.08445937499999978,
          "durationTicks": 60,
          "midi": 78,
          "name": "F#5",
          "ticks": 6134,
          "time": 8.6345634375,
          "velocity": 0.2125984251968504
        },
        {
          "duration": 0.08445937499999978,
          "durationTicks": 60,
          "midi": 66,
          "name": "F#4",
          "ticks": 6134,
          "time": 8.6345634375,
          "velocity": 0.4015748031496063
        },
        {
          "duration": 0.08164406249999878,
          "durationTicks": 58,
          "midi": 78,
          "name": "F#5",
          "ticks": 6262,
          "time": 8.8147434375,
          "velocity": 0.2125984251968504
        },
        {
          "duration": 0.08164406250000056,
          "durationTicks": 58,
          "midi": 78,
          "name": "F#5",
          "ticks": 6390,
          "time": 8.9949234375,
          "velocity": 0.2125984251968504
        },
        {
          "duration": 0.10416656249999967,
          "durationTicks": 74,
          "midi": 66,
          "name": "F#4",
          "ticks": 6390,
          "time": 8.9949234375,
          "velocity": 0.4330708661417323
        },
        {
          "duration": 0.092905312500001,
          "durationTicks": 66,
          "midi": 78,
          "name": "F#5",
          "ticks": 6512,
          "time": 9.1666575,
          "velocity": 0.2125984251968504
        },
        {
          "duration": 0.09009,
          "durationTicks": 64,
          "midi": 78,
          "name": "F#5",
          "ticks": 6642,
          "time": 9.3496528125,
          "velocity": 0.2125984251968504
        },
        {
          "duration": 0.10698187500000067,
          "durationTicks": 76,
          "midi": 66,
          "name": "F#4",
          "ticks": 6642,
          "time": 9.3496528125,
          "velocity": 0.4645669291338583
        },
        {
          "duration": 0.08727468750000078,
          "durationTicks": 62,
          "midi": 78,
          "name": "F#5",
          "ticks": 6770,
          "time": 9.5298328125,
          "velocity": 0.2125984251968504
        },
        {
          "duration": 0.08727468750000078,
          "durationTicks": 62,
          "midi": 78,
          "name": "F#5",
          "ticks": 6896,
          "time": 9.7071975,
          "velocity": 0.2125984251968504
        },
        {
          "duration": 0.11542781250000012,
          "durationTicks": 82,
          "midi": 66,
          "name": "F#4",
          "ticks": 6896,
          "time": 9.7071975,
          "velocity": 0.49606299212598426
        },
        {
          "duration": 0.08445937499999978,
          "durationTicks": 60,
          "midi": 78,
          "name": "F#5",
          "ticks": 7028,
          "time": 9.893008125,
          "velocity": 0.2125984251968504
        },
        {
          "duration": 0.08445937499999978,
          "durationTicks": 60,
          "midi": 78,
          "name": "F#5",
          "ticks": 7156,
          "time": 10.073188125000001,
          "velocity": 0.2125984251968504
        },
        {
          "duration": 0.132319687499999,
          "durationTicks": 94,
          "midi": 66,
          "name": "F#4",
          "ticks": 7156,
          "time": 10.073188125000001,
          "velocity": 0.49606299212598426
        },
        {
          "duration": 0.08445937499999978,
          "durationTicks": 60,
          "midi": 78,
          "name": "F#5",
          "ticks": 7284,
          "time": 10.253368125,
          "velocity": 0.2125984251968504
        },
        {
          "duration": 0.07601343750000034,
          "durationTicks": 54,
          "midi": 78,
          "name": "F#5",
          "ticks": 7418,
          "time": 10.4419940625,
          "velocity": 0.2125984251968504
        },
        {
          "duration": 0.12387375000000134,
          "durationTicks": 88,
          "midi": 66,
          "name": "F#4",
          "ticks": 7418,
          "time": 10.4419940625,
          "velocity": 0.5275590551181102
        },
        {
          "duration": 0.08164406250000056,
          "durationTicks": 58,
          "midi": 78,
          "name": "F#5",
          "ticks": 7542,
          "time": 10.6165434375,
          "velocity": 0.2125984251968504
        },
        {
          "duration": 0.9149765624999997,
          "durationTicks": 650,
          "midi": 61,
          "name": "C#4",
          "ticks": 7668,
          "time": 10.793908125,
          "velocity": 0.5905511811023622
        },
        {
          "duration": 0.9149765624999997,
          "durationTicks": 650,
          "midi": 57,
          "name": "A3",
          "ticks": 7668,
          "time": 10.793908125,
          "velocity": 0.5590551181102362
        },
        {
          "duration": 0.9149765624999997,
          "durationTicks": 650,
          "midi": 45,
          "name": "A2",
          "ticks": 7668,
          "time": 10.793908125,
          "velocity": 0.5905511811023622
        },
        {
          "duration": 3.423420000000002,
          "durationTicks": 2432,
          "midi": 62,
          "name": "D4",
          "ticks": 8318,
          "time": 11.7088846875,
          "velocity": 0.33858267716535434
        },
        {
          "duration": 3.423420000000002,
          "durationTicks": 2432,
          "midi": 59,
          "name": "B3",
          "ticks": 8318,
          "time": 11.7088846875,
          "velocity": 0.5590551181102362
        },
        {
          "duration": 3.423420000000002,
          "durationTicks": 2432,
          "midi": 55,
          "name": "G3",
          "ticks": 8318,
          "time": 11.7088846875,
          "velocity": 0.5905511811023622
        },
        {
          "duration": 3.423420000000002,
          "durationTicks": 2432,
          "midi": 43,
          "name": "G2",
          "ticks": 8318,
          "time": 11.7088846875,
          "velocity": 0.5275590551181102
        },
        {
          "duration": 0.8840081249999994,
          "durationTicks": 628,
          "midi": 61,
          "name": "C#4",
          "ticks": 10750,
          "time": 15.132304687500001,
          "velocity": 0.5905511811023622
        },
        {
          "duration": 0.8840081249999994,
          "durationTicks": 628,
          "midi": 57,
          "name": "A3",
          "ticks": 10750,
          "time": 15.132304687500001,
          "velocity": 0.5590551181102362
        },
        {
          "duration": 0.8840081249999994,
          "durationTicks": 628,
          "midi": 45,
          "name": "A2",
          "ticks": 10750,
          "time": 15.132304687500001,
          "velocity": 0.5905511811023622
        },
        {
          "duration": 3.4431271875,
          "durationTicks": 2446,
          "midi": 62,
          "name": "D4",
          "ticks": 11378,
          "time": 16.0163128125,
          "velocity": 0.33858267716535434
        },
        {
          "duration": 3.4431271875,
          "durationTicks": 2446,
          "midi": 59,
          "name": "B3",
          "ticks": 11378,
          "time": 16.0163128125,
          "velocity": 0.5590551181102362
        },
        {
          "duration": 3.4431271875,
          "durationTicks": 2446,
          "midi": 55,
          "name": "G3",
          "ticks": 11378,
          "time": 16.0163128125,
          "velocity": 0.5905511811023622
        },
        {
          "duration": 3.4431271875,
          "durationTicks": 2446,
          "midi": 43,
          "name": "G2",
          "ticks": 11378,
          "time": 16.0163128125,
          "velocity": 0.5275590551181102
        },
        {
          "duration": 0.8980846875000026,
          "durationTicks": 638,
          "midi": 45,
          "name": "A2",
          "ticks": 13824,
          "time": 19.45944,
          "velocity": 0.5905511811023622
        },
        {
          "duration": 0.8980846875000026,
          "durationTicks": 638,
          "midi": 57,
          "name": "A3",
          "ticks": 13824,
          "time": 19.45944,
          "velocity": 0.5590551181102362
        },
        {
          "duration": 0.8980846875000026,
          "durationTicks": 638,
          "midi": 61,
          "name": "C#4",
          "ticks": 13824,
          "time": 19.45944,
          "velocity": 0.5905511811023622
        },
        {
          "duration": 3.4262353124999976,
          "durationTicks": 2434,
          "midi": 62,
          "name": "D4",
          "ticks": 14462,
          "time": 20.357524687500003,
          "velocity": 0.33858267716535434
        },
        {
          "duration": 3.4262353124999976,
          "durationTicks": 2434,
          "midi": 59,
          "name": "B3",
          "ticks": 14462,
          "time": 20.357524687500003,
          "velocity": 0.5590551181102362
        },
        {
          "duration": 3.4262353124999976,
          "durationTicks": 2434,
          "midi": 55,
          "name": "G3",
          "ticks": 14462,
          "time": 20.357524687500003,
          "velocity": 0.5905511811023622
        },
        {
          "duration": 3.4262353124999976,
          "durationTicks": 2434,
          "midi": 43,
          "name": "G2",
          "ticks": 14462,
          "time": 20.357524687500003,
          "velocity": 0.5275590551181102
        },
        {
          "duration": 0.8980846875000026,
          "durationTicks": 638,
          "midi": 61,
          "name": "C#4",
          "ticks": 16896,
          "time": 23.78376,
          "velocity": 0.5905511811023622
        },
        {
          "duration": 0.8980846875000026,
          "durationTicks": 638,
          "midi": 57,
          "name": "A3",
          "ticks": 16896,
          "time": 23.78376,
          "velocity": 0.5590551181102362
        },
        {
          "duration": 0.8980846875000026,
          "durationTicks": 638,
          "midi": 45,
          "name": "A2",
          "ticks": 16896,
          "time": 23.78376,
          "velocity": 0.5905511811023622
        },
        {
          "duration": 3.420604687499999,
          "durationTicks": 2430,
          "midi": 62,
          "name": "D4",
          "ticks": 17534,
          "time": 24.681844687500003,
          "velocity": 0.33858267716535434
        },
        {
          "duration": 3.420604687499999,
          "durationTicks": 2430,
          "midi": 59,
          "name": "B3",
          "ticks": 17534,
          "time": 24.681844687500003,
          "velocity": 0.5590551181102362
        },
        {
          "duration": 3.420604687499999,
          "durationTicks": 2430,
          "midi": 55,
          "name": "G3",
          "ticks": 17534,
          "time": 24.681844687500003,
          "velocity": 0.5905511811023622
        },
        {
          "duration": 3.420604687499999,
          "durationTicks": 2430,
          "midi": 43,
          "name": "G2",
          "ticks": 17534,
          "time": 24.681844687500003,
          "velocity": 0.5275590551181102
        },
        {
          "duration": 0.8868234374999986,
          "durationTicks": 630,
          "midi": 61,
          "name": "C#4",
          "ticks": 19964,
          "time": 28.102449375000003,
          "velocity": 0.5905511811023622
        },
        {
          "duration": 0.8868234374999986,
          "durationTicks": 630,
          "midi": 57,
          "name": "A3",
          "ticks": 19964,
          "time": 28.102449375000003,
          "velocity": 0.5590551181102362
        },
        {
          "duration": 0.8868234374999986,
          "durationTicks": 630,
          "midi": 45,
          "name": "A2",
          "ticks": 19964,
          "time": 28.102449375000003,
          "velocity": 0.5905511811023622
        },
        {
          "duration": 3.4234199999999966,
          "durationTicks": 2432,
          "midi": 62,
          "name": "D4",
          "ticks": 20594,
          "time": 28.9892728125,
          "velocity": 0.33858267716535434
        },
        {
          "duration": 3.4234199999999966,
          "durationTicks": 2432,
          "midi": 59,
          "name": "B3",
          "ticks": 20594,
          "time": 28.9892728125,
          "velocity": 0.5590551181102362
        },
        {
          "duration": 3.4234199999999966,
          "durationTicks": 2432,
          "midi": 55,
          "name": "G3",
          "ticks": 20594,
          "time": 28.9892728125,
          "velocity": 0.5905511811023622
        },
        {
          "duration": 3.4234199999999966,
          "durationTicks": 2432,
          "midi": 43,
          "name": "G2",
          "ticks": 20594,
          "time": 28.9892728125,
          "velocity": 0.5275590551181102
        },
        {
          "duration": 0.9149765625000015,
          "durationTicks": 650,
          "midi": 61,
          "name": "C#4",
          "ticks": 23026,
          "time": 32.4126928125,
          "velocity": 0.5905511811023622
        },
        {
          "duration": 0.9149765625000015,
          "durationTicks": 650,
          "midi": 57,
          "name": "A3",
          "ticks": 23026,
          "time": 32.4126928125,
          "velocity": 0.5590551181102362
        },
        {
          "duration": 0.9149765625000015,
          "durationTicks": 650,
          "midi": 45,
          "name": "A2",
          "ticks": 23026,
          "time": 32.4126928125,
          "velocity": 0.5905511811023622
        },
        {
          "duration": 3.4262353125000047,
          "durationTicks": 2434,
          "midi": 62,
          "name": "D4",
          "ticks": 23676,
          "time": 33.327669375,
          "velocity": 0.33858267716535434
        },
        {
          "duration": 3.4262353125000047,
          "durationTicks": 2434,
          "midi": 59,
          "name": "B3",
          "ticks": 23676,
          "time": 33.327669375,
          "velocity": 0.5590551181102362
        },
        {
          "duration": 3.4262353125000047,
          "durationTicks": 2434,
          "midi": 55,
          "name": "G3",
          "ticks": 23676,
          "time": 33.327669375,
          "velocity": 0.5905511811023622
        },
        {
          "duration": 3.4262353125000047,
          "durationTicks": 2434,
          "midi": 43,
          "name": "G2",
          "ticks": 23676,
          "time": 33.327669375,
          "velocity": 0.5275590551181102
        },
        {
          "duration": 0.8980846874999955,
          "durationTicks": 638,
          "midi": 61,
          "name": "C#4",
          "ticks": 26110,
          "time": 36.753904687500004,
          "velocity": 0.5905511811023622
        },
        {
          "duration": 0.8980846874999955,
          "durationTicks": 638,
          "midi": 57,
          "name": "A3",
          "ticks": 26110,
          "time": 36.753904687500004,
          "velocity": 0.5590551181102362
        },
        {
          "duration": 0.8980846874999955,
          "durationTicks": 638,
          "midi": 45,
          "name": "A2",
          "ticks": 26110,
          "time": 36.753904687500004,
          "velocity": 0.5905511811023622
        },
        {
          "duration": 3.4065281250000012,
          "durationTicks": 2420,
          "midi": 62,
          "name": "D4",
          "ticks": 26748,
          "time": 37.651989375,
          "velocity": 0.33858267716535434
        },
        {
          "duration": 3.4065281250000012,
          "durationTicks": 2420,
          "midi": 59,
          "name": "B3",
          "ticks": 26748,
          "time": 37.651989375,
          "velocity": 0.5590551181102362
        },
        {
          "duration": 3.4065281250000012,
          "durationTicks": 2420,
          "midi": 55,
          "name": "G3",
          "ticks": 26748,
          "time": 37.651989375,
          "velocity": 0.5905511811023622
        },
        {
          "duration": 3.4065281250000012,
          "durationTicks": 2420,
          "midi": 43,
          "name": "G2",
          "ticks": 26748,
          "time": 37.651989375,
          "velocity": 0.5275590551181102
        },
        {
          "duration": 0.9206071874999964,
          "durationTicks": 654,
          "midi": 61,
          "name": "C#4",
          "ticks": 29168,
          "time": 41.0585175,
          "velocity": 0.5905511811023622
        },
        {
          "duration": 0.9206071874999964,
          "durationTicks": 654,
          "midi": 57,
          "name": "A3",
          "ticks": 29168,
          "time": 41.0585175,
          "velocity": 0.5590551181102362
        },
        {
          "duration": 0.9206071874999964,
          "durationTicks": 654,
          "midi": 45,
          "name": "A2",
          "ticks": 29168,
          "time": 41.0585175,
          "velocity": 0.5905511811023622
        },
        {
          "duration": 3.4065281250000083,
          "durationTicks": 2420,
          "midi": 62,
          "name": "D4",
          "ticks": 29822,
          "time": 41.9791246875,
          "velocity": 0.33858267716535434
        },
        {
          "duration": 3.4065281250000083,
          "durationTicks": 2420,
          "midi": 59,
          "name": "B3",
          "ticks": 29822,
          "time": 41.9791246875,
          "velocity": 0.5590551181102362
        },
        {
          "duration": 3.4065281250000083,
          "durationTicks": 2420,
          "midi": 55,
          "name": "G3",
          "ticks": 29822,
          "time": 41.9791246875,
          "velocity": 0.5905511811023622
        },
        {
          "duration": 3.4065281250000083,
          "durationTicks": 2420,
          "midi": 43,
          "name": "G2",
          "ticks": 29822,
          "time": 41.9791246875,
          "velocity": 0.5275590551181102
        },
        {
          "duration": 2.179051874999999,
          "durationTicks": 1548,
          "midi": 66,
          "name": "F#4",
          "ticks": 32242,
          "time": 45.385652812500005,
          "velocity": 0.49606299212598426
        },
        {
          "duration": 2.179051874999999,
          "durationTicks": 1548,
          "midi": 62,
          "name": "D4",
          "ticks": 32242,
          "time": 45.385652812500005,
          "velocity": 0.5275590551181102
        },
        {
          "duration": 2.179051874999999,
          "durationTicks": 1548,
          "midi": 59,
          "name": "B3",
          "ticks": 32242,
          "time": 45.385652812500005,
          "velocity": 0.5590551181102362
        },
        {
          "duration": 2.179051874999999,
          "durationTicks": 1548,
          "midi": 55,
          "name": "G3",
          "ticks": 32242,
          "time": 45.385652812500005,
          "velocity": 0.5905511811023622
        },
        {
          "duration": 2.179051874999999,
          "durationTicks": 1548,
          "midi": 40,
          "name": "E2",
          "ticks": 32242,
          "time": 45.385652812500005,
          "velocity": 0.6535433070866141
        },
        {
          "duration": 2.16216,
          "durationTicks": 1536,
          "midi": 64,
          "name": "E4",
          "ticks": 33790,
          "time": 47.564704687500004,
          "velocity": 0.49606299212598426
        },
        {
          "duration": 2.16216,
          "durationTicks": 1536,
          "midi": 61,
          "name": "C#4",
          "ticks": 33790,
          "time": 47.564704687500004,
          "velocity": 0.5275590551181102
        },
        {
          "duration": 2.16216,
          "durationTicks": 1536,
          "midi": 57,
          "name": "A3",
          "ticks": 33790,
          "time": 47.564704687500004,
          "velocity": 0.5590551181102362
        },
        {
          "duration": 2.16216,
          "durationTicks": 1536,
          "midi": 54,
          "name": "F#3",
          "ticks": 33790,
          "time": 47.564704687500004,
          "velocity": 0.5905511811023622
        },
        {
          "duration": 2.16216,
          "durationTicks": 1536,
          "midi": 42,
          "name": "F#2",
          "ticks": 33790,
          "time": 47.564704687500004,
          "velocity": 0.6535433070866141
        },
        {
          "duration": 2.16216,
          "durationTicks": 1536,
          "midi": 66,
          "name": "F#4",
          "ticks": 35326,
          "time": 49.726864687500004,
          "velocity": 0.49606299212598426
        },
        {
          "duration": 2.16216,
          "durationTicks": 1536,
          "midi": 62,
          "name": "D4",
          "ticks": 35326,
          "time": 49.726864687500004,
          "velocity": 0.5275590551181102
        },
        {
          "duration": 2.16216,
          "durationTicks": 1536,
          "midi": 59,
          "name": "B3",
          "ticks": 35326,
          "time": 49.726864687500004,
          "velocity": 0.5590551181102362
        },
        {
          "duration": 2.16216,
          "durationTicks": 1536,
          "midi": 55,
          "name": "G3",
          "ticks": 35326,
          "time": 49.726864687500004,
          "velocity": 0.5905511811023622
        },
        {
          "duration": 2.16216,
          "durationTicks": 1536,
          "midi": 43,
          "name": "G2",
          "ticks": 35326,
          "time": 49.726864687500004,
          "velocity": 0.6535433070866141
        },
        {
          "duration": 2.16216,
          "durationTicks": 1536,
          "midi": 64,
          "name": "E4",
          "ticks": 36862,
          "time": 51.889024687500005,
          "velocity": 0.49606299212598426
        },
        {
          "duration": 2.16216,
          "durationTicks": 1536,
          "midi": 61,
          "name": "C#4",
          "ticks": 36862,
          "time": 51.889024687500005,
          "velocity": 0.5275590551181102
        },
        {
          "duration": 2.16216,
          "durationTicks": 1536,
          "midi": 57,
          "name": "A3",
          "ticks": 36862,
          "time": 51.889024687500005,
          "velocity": 0.5590551181102362
        },
        {
          "duration": 2.16216,
          "durationTicks": 1536,
          "midi": 54,
          "name": "F#3",
          "ticks": 36862,
          "time": 51.889024687500005,
          "velocity": 0.5905511811023622
        },
        {
          "duration": 2.16216,
          "durationTicks": 1536,
          "midi": 42,
          "name": "F#2",
          "ticks": 36862,
          "time": 51.889024687500005,
          "velocity": 0.6535433070866141
        },
        {
          "duration": 1.08108,
          "durationTicks": 768,
          "midi": 66,
          "name": "F#4",
          "ticks": 38398,
          "time": 54.051184687500005,
          "velocity": 0.5590551181102362
        },
        {
          "duration": 1.08108,
          "durationTicks": 768,
          "midi": 62,
          "name": "D4",
          "ticks": 38398,
          "time": 54.051184687500005,
          "velocity": 0.5275590551181102
        },
        {
          "duration": 1.08108,
          "durationTicks": 768,
          "midi": 59,
          "name": "B3",
          "ticks": 38398,
          "time": 54.051184687500005,
          "velocity": 0.5590551181102362
        },
        {
          "duration": 1.08108,
          "durationTicks": 768,
          "midi": 55,
          "name": "G3",
          "ticks": 38398,
          "time": 54.051184687500005,
          "velocity": 0.5905511811023622
        },
        {
          "duration": 1.08108,
          "durationTicks": 768,
          "midi": 40,
          "name": "E2",
          "ticks": 38398,
          "time": 54.051184687500005,
          "velocity": 0.6535433070866141
        },
        {
          "duration": 1.08108,
          "durationTicks": 768,
          "midi": 64,
          "name": "E4",
          "ticks": 39166,
          "time": 55.132264687500005,
          "velocity": 0.49606299212598426
        },
        {
          "duration": 1.08108,
          "durationTicks": 768,
          "midi": 61,
          "name": "C#4",
          "ticks": 39166,
          "time": 55.132264687500005,
          "velocity": 0.5275590551181102
        },
        {
          "duration": 1.08108,
          "durationTicks": 768,
          "midi": 57,
          "name": "A3",
          "ticks": 39166,
          "time": 55.132264687500005,
          "velocity": 0.5590551181102362
        },
        {
          "duration": 1.08108,
          "durationTicks": 768,
          "midi": 54,
          "name": "F#3",
          "ticks": 39166,
          "time": 55.132264687500005,
          "velocity": 0.5905511811023622
        },
        {
          "duration": 1.08108,
          "durationTicks": 768,
          "midi": 42,
          "name": "F#2",
          "ticks": 39166,
          "time": 55.132264687500005,
          "velocity": 0.6850393700787402
        },
        {
          "duration": 1.08108,
          "durationTicks": 768,
          "midi": 66,
          "name": "F#4",
          "ticks": 39934,
          "time": 56.213344687500005,
          "velocity": 0.49606299212598426
        },
        {
          "duration": 1.08108,
          "durationTicks": 768,
          "midi": 62,
          "name": "D4",
          "ticks": 39934,
          "time": 56.213344687500005,
          "velocity": 0.5275590551181102
        },
        {
          "duration": 1.08108,
          "durationTicks": 768,
          "midi": 59,
          "name": "B3",
          "ticks": 39934,
          "time": 56.213344687500005,
          "velocity": 0.5590551181102362
        },
        {
          "duration": 1.08108,
          "durationTicks": 768,
          "midi": 55,
          "name": "G3",
          "ticks": 39934,
          "time": 56.213344687500005,
          "velocity": 0.5905511811023622
        },
        {
          "duration": 1.08108,
          "durationTicks": 768,
          "midi": 43,
          "name": "G2",
          "ticks": 39934,
          "time": 56.213344687500005,
          "velocity": 0.6850393700787402
        },
        {
          "duration": 1.08108,
          "durationTicks": 768,
          "midi": 64,
          "name": "E4",
          "ticks": 40702,
          "time": 57.294424687500005,
          "velocity": 0.5590551181102362
        },
        {
          "duration": 1.08108,
          "durationTicks": 768,
          "midi": 61,
          "name": "C#4",
          "ticks": 40702,
          "time": 57.294424687500005,
          "velocity": 0.5905511811023622
        },
        {
          "duration": 1.08108,
          "durationTicks": 768,
          "midi": 57,
          "name": "A3",
          "ticks": 40702,
          "time": 57.294424687500005,
          "velocity": 0.6535433070866141
        },
        {
          "duration": 1.08108,
          "durationTicks": 768,
          "midi": 45,
          "name": "A2",
          "ticks": 40702,
          "time": 57.294424687500005,
          "velocity": 0.6535433070866141
        },
        {
          "duration": 0.884008124999994,
          "durationTicks": 628,
          "midi": 61,
          "name": "C#4",
          "ticks": 41470,
          "time": 58.375504687500005,
          "velocity": 0.5905511811023622
        },
        {
          "duration": 0.884008124999994,
          "durationTicks": 628,
          "midi": 57,
          "name": "A3",
          "ticks": 41470,
          "time": 58.375504687500005,
          "velocity": 0.5590551181102362
        },
        {
          "duration": 0.884008124999994,
          "durationTicks": 628,
          "midi": 45,
          "name": "A2",
          "ticks": 41470,
          "time": 58.375504687500005,
          "velocity": 0.5905511811023622
        },
        {
          "duration": 3.440311875000006,
          "durationTicks": 2444,
          "midi": 62,
          "name": "D4",
          "ticks": 42098,
          "time": 59.2595128125,
          "velocity": 0.33858267716535434
        },
        {
          "duration": 3.440311875000006,
          "durationTicks": 2444,
          "midi": 59,
          "name": "B3",
          "ticks": 42098,
          "time": 59.2595128125,
          "velocity": 0.5590551181102362
        },
        {
          "duration": 3.440311875000006,
          "durationTicks": 2444,
          "midi": 55,
          "name": "G3",
          "ticks": 42098,
          "time": 59.2595128125,
          "velocity": 0.5905511811023622
        },
        {
          "duration": 3.440311875000006,
          "durationTicks": 2444,
          "midi": 43,
          "name": "G2",
          "ticks": 42098,
          "time": 59.2595128125,
          "velocity": 0.5275590551181102
        },
        {
          "duration": 0.9008999999999929,
          "durationTicks": 640,
          "midi": 61,
          "name": "C#4",
          "ticks": 44542,
          "time": 62.699824687500005,
          "velocity": 0.5905511811023622
        },
        {
          "duration": 0.9008999999999929,
          "durationTicks": 640,
          "midi": 57,
          "name": "A3",
          "ticks": 44542,
          "time": 62.699824687500005,
          "velocity": 0.5590551181102362
        },
        {
          "duration": 0.9008999999999929,
          "durationTicks": 640,
          "midi": 45,
          "name": "A2",
          "ticks": 44542,
          "time": 62.699824687500005,
          "velocity": 0.5905511811023622
        },
        {
          "duration": 3.4262353125000047,
          "durationTicks": 2434,
          "midi": 62,
          "name": "D4",
          "ticks": 45182,
          "time": 63.6007246875,
          "velocity": 0.33858267716535434
        },
        {
          "duration": 3.4262353125000047,
          "durationTicks": 2434,
          "midi": 59,
          "name": "B3",
          "ticks": 45182,
          "time": 63.6007246875,
          "velocity": 0.5590551181102362
        },
        {
          "duration": 3.4262353125000047,
          "durationTicks": 2434,
          "midi": 55,
          "name": "G3",
          "ticks": 45182,
          "time": 63.6007246875,
          "velocity": 0.5905511811023622
        },
        {
          "duration": 3.4262353125000047,
          "durationTicks": 2434,
          "midi": 43,
          "name": "G2",
          "ticks": 45182,
          "time": 63.6007246875,
          "velocity": 0.5275590551181102
        },
        {
          "duration": 0.8980846875000026,
          "durationTicks": 638,
          "midi": 45,
          "name": "A2",
          "ticks": 47616,
          "time": 67.02696,
          "velocity": 0.5905511811023622
        },
        {
          "duration": 0.8980846875000026,
          "durationTicks": 638,
          "midi": 57,
          "name": "A3",
          "ticks": 47616,
          "time": 67.02696,
          "velocity": 0.5590551181102362
        },
        {
          "duration": 0.8980846875000026,
          "durationTicks": 638,
          "midi": 61,
          "name": "C#4",
          "ticks": 47616,
          "time": 67.02696,
          "velocity": 0.5905511811023622
        },
        {
          "duration": 3.4206046875000027,
          "durationTicks": 2430,
          "midi": 62,
          "name": "D4",
          "ticks": 48254,
          "time": 67.9250446875,
          "velocity": 0.33858267716535434
        },
        {
          "duration": 3.4206046875000027,
          "durationTicks": 2430,
          "midi": 59,
          "name": "B3",
          "ticks": 48254,
          "time": 67.9250446875,
          "velocity": 0.5590551181102362
        },
        {
          "duration": 3.4206046875000027,
          "durationTicks": 2430,
          "midi": 55,
          "name": "G3",
          "ticks": 48254,
          "time": 67.9250446875,
          "velocity": 0.5905511811023622
        },
        {
          "duration": 3.4206046875000027,
          "durationTicks": 2430,
          "midi": 43,
          "name": "G2",
          "ticks": 48254,
          "time": 67.9250446875,
          "velocity": 0.5275590551181102
        },
        {
          "duration": 0.9008999999999929,
          "durationTicks": 640,
          "midi": 61,
          "name": "C#4",
          "ticks": 50684,
          "time": 71.34564937500001,
          "velocity": 0.5905511811023622
        },
        {
          "duration": 0.9008999999999929,
          "durationTicks": 640,
          "midi": 57,
          "name": "A3",
          "ticks": 50684,
          "time": 71.34564937500001,
          "velocity": 0.5590551181102362
        },
        {
          "duration": 0.9008999999999929,
          "durationTicks": 640,
          "midi": 45,
          "name": "A2",
          "ticks": 50684,
          "time": 71.34564937500001,
          "velocity": 0.5905511811023622
        },
        {
          "duration": 3.4262353124999976,
          "durationTicks": 2434,
          "midi": 62,
          "name": "D4",
          "ticks": 51324,
          "time": 72.246549375,
          "velocity": 0.33858267716535434
        },
        {
          "duration": 3.4262353124999976,
          "durationTicks": 2434,
          "midi": 59,
          "name": "B3",
          "ticks": 51324,
          "time": 72.246549375,
          "velocity": 0.5590551181102362
        },
        {
          "duration": 3.4262353124999976,
          "durationTicks": 2434,
          "midi": 55,
          "name": "G3",
          "ticks": 51324,
          "time": 72.246549375,
          "velocity": 0.5905511811023622
        },
        {
          "duration": 3.4262353124999976,
          "durationTicks": 2434,
          "midi": 43,
          "name": "G2",
          "ticks": 51324,
          "time": 72.246549375,
          "velocity": 0.5275590551181102
        },
        {
          "duration": 0.08445937499999445,
          "durationTicks": 60,
          "midi": 86,
          "name": "D6",
          "ticks": 51588,
          "time": 72.618170625,
          "velocity": 0.2440944881889764
        },
        {
          "duration": 0.087274687499999,
          "durationTicks": 62,
          "midi": 81,
          "name": "A5",
          "ticks": 51712,
          "time": 72.79272,
          "velocity": 0.2440944881889764
        },
        {
          "duration": 0.09008999999998935,
          "durationTicks": 64,
          "midi": 74,
          "name": "D5",
          "ticks": 51840,
          "time": 72.97290000000001,
          "velocity": 0.2440944881889764
        },
        {
          "duration": 0.087274687499999,
          "durationTicks": 62,
          "midi": 78,
          "name": "F#5",
          "ticks": 51968,
          "time": 73.15308,
          "velocity": 0.2440944881889764
        },
        {
          "duration": 0.08727468750001321,
          "durationTicks": 62,
          "midi": 69,
          "name": "A4",
          "ticks": 52098,
          "time": 73.3360753125,
          "velocity": 0.023622047244094488
        },
        {
          "duration": 0.8840081250000082,
          "durationTicks": 628,
          "midi": 61,
          "name": "C#4",
          "ticks": 53758,
          "time": 75.6727846875,
          "velocity": 0.5905511811023622
        },
        {
          "duration": 0.8840081250000082,
          "durationTicks": 628,
          "midi": 57,
          "name": "A3",
          "ticks": 53758,
          "time": 75.6727846875,
          "velocity": 0.5590551181102362
        },
        {
          "duration": 0.8840081250000082,
          "durationTicks": 628,
          "midi": 45,
          "name": "A2",
          "ticks": 53758,
          "time": 75.6727846875,
          "velocity": 0.5905511811023622
        },
        {
          "duration": 3.423419999999993,
          "durationTicks": 2432,
          "midi": 62,
          "name": "D4",
          "ticks": 54386,
          "time": 76.5567928125,
          "velocity": 0.33858267716535434
        },
        {
          "duration": 3.423419999999993,
          "durationTicks": 2432,
          "midi": 59,
          "name": "B3",
          "ticks": 54386,
          "time": 76.5567928125,
          "velocity": 0.5590551181102362
        },
        {
          "duration": 3.423419999999993,
          "durationTicks": 2432,
          "midi": 55,
          "name": "G3",
          "ticks": 54386,
          "time": 76.5567928125,
          "velocity": 0.5905511811023622
        },
        {
          "duration": 3.423419999999993,
          "durationTicks": 2432,
          "midi": 43,
          "name": "G2",
          "ticks": 54386,
          "time": 76.5567928125,
          "velocity": 0.5275590551181102
        },
        {
          "duration": 0.9009000000000071,
          "durationTicks": 640,
          "midi": 61,
          "name": "C#4",
          "ticks": 56818,
          "time": 79.9802128125,
          "velocity": 0.5905511811023622
        },
        {
          "duration": 0.9009000000000071,
          "durationTicks": 640,
          "midi": 57,
          "name": "A3",
          "ticks": 56818,
          "time": 79.9802128125,
          "velocity": 0.5590551181102362
        },
        {
          "duration": 0.9009000000000071,
          "durationTicks": 640,
          "midi": 45,
          "name": "A2",
          "ticks": 56818,
          "time": 79.9802128125,
          "velocity": 0.5905511811023622
        },
        {
          "duration": 3.440311874999992,
          "durationTicks": 2444,
          "midi": 62,
          "name": "D4",
          "ticks": 57458,
          "time": 80.8811128125,
          "velocity": 0.33858267716535434
        },
        {
          "duration": 3.440311874999992,
          "durationTicks": 2444,
          "midi": 59,
          "name": "B3",
          "ticks": 57458,
          "time": 80.8811128125,
          "velocity": 0.5590551181102362
        },
        {
          "duration": 3.440311874999992,
          "durationTicks": 2444,
          "midi": 55,
          "name": "G3",
          "ticks": 57458,
          "time": 80.8811128125,
          "velocity": 0.5905511811023622
        },
        {
          "duration": 3.440311874999992,
          "durationTicks": 2444,
          "midi": 43,
          "name": "G2",
          "ticks": 57458,
          "time": 80.8811128125,
          "velocity": 0.5275590551181102
        },
        {
          "duration": 2.145268125000001,
          "durationTicks": 1524,
          "midi": 66,
          "name": "F#4",
          "ticks": 59902,
          "time": 84.3214246875,
          "velocity": 0.49606299212598426
        },
        {
          "duration": 2.145268125000001,
          "durationTicks": 1524,
          "midi": 62,
          "name": "D4",
          "ticks": 59902,
          "time": 84.3214246875,
          "velocity": 0.5275590551181102
        },
        {
          "duration": 2.145268125000001,
          "durationTicks": 1524,
          "midi": 59,
          "name": "B3",
          "ticks": 59902,
          "time": 84.3214246875,
          "velocity": 0.5590551181102362
        },
        {
          "duration": 2.145268125000001,
          "durationTicks": 1524,
          "midi": 55,
          "name": "G3",
          "ticks": 59902,
          "time": 84.3214246875,
          "velocity": 0.5905511811023622
        },
        {
          "duration": 2.145268125000001,
          "durationTicks": 1524,
          "midi": 40,
          "name": "E2",
          "ticks": 59902,
          "time": 84.3214246875,
          "velocity": 0.6535433070866141
        },
        {
          "duration": 2.179051874999999,
          "durationTicks": 1548,
          "midi": 64,
          "name": "E4",
          "ticks": 61426,
          "time": 86.4666928125,
          "velocity": 0.49606299212598426
        },
        {
          "duration": 2.179051874999999,
          "durationTicks": 1548,
          "midi": 61,
          "name": "C#4",
          "ticks": 61426,
          "time": 86.4666928125,
          "velocity": 0.5275590551181102
        },
        {
          "duration": 2.179051874999999,
          "durationTicks": 1548,
          "midi": 57,
          "name": "A3",
          "ticks": 61426,
          "time": 86.4666928125,
          "velocity": 0.5590551181102362
        },
        {
          "duration": 2.179051874999999,
          "durationTicks": 1548,
          "midi": 54,
          "name": "F#3",
          "ticks": 61426,
          "time": 86.4666928125,
          "velocity": 0.5905511811023622
        },
        {
          "duration": 2.179051874999999,
          "durationTicks": 1548,
          "midi": 42,
          "name": "F#2",
          "ticks": 61426,
          "time": 86.4666928125,
          "velocity": 0.6535433070866141
        },
        {
          "duration": 2.1480834375000057,
          "durationTicks": 1526,
          "midi": 66,
          "name": "F#4",
          "ticks": 62974,
          "time": 88.6457446875,
          "velocity": 0.49606299212598426
        },
        {
          "duration": 2.1480834375000057,
          "durationTicks": 1526,
          "midi": 62,
          "name": "D4",
          "ticks": 62974,
          "time": 88.6457446875,
          "velocity": 0.5275590551181102
        },
        {
          "duration": 2.1480834375000057,
          "durationTicks": 1526,
          "midi": 59,
          "name": "B3",
          "ticks": 62974,
          "time": 88.6457446875,
          "velocity": 0.5590551181102362
        },
        {
          "duration": 2.1480834375000057,
          "durationTicks": 1526,
          "midi": 55,
          "name": "G3",
          "ticks": 62974,
          "time": 88.6457446875,
          "velocity": 0.5905511811023622
        },
        {
          "duration": 2.1480834375000057,
          "durationTicks": 1526,
          "midi": 43,
          "name": "G2",
          "ticks": 62974,
          "time": 88.6457446875,
          "velocity": 0.6535433070866141
        },
        {
          "duration": 2.1762365624999944,
          "durationTicks": 1546,
          "midi": 64,
          "name": "E4",
          "ticks": 64500,
          "time": 90.793828125,
          "velocity": 0.49606299212598426
        },
        {
          "duration": 2.1762365624999944,
          "durationTicks": 1546,
          "midi": 61,
          "name": "C#4",
          "ticks": 64500,
          "time": 90.793828125,
          "velocity": 0.5275590551181102
        },
        {
          "duration": 2.1762365624999944,
          "durationTicks": 1546,
          "midi": 57,
          "name": "A3",
          "ticks": 64500,
          "time": 90.793828125,
          "velocity": 0.5590551181102362
        },
        {
          "duration": 2.1762365624999944,
          "durationTicks": 1546,
          "midi": 54,
          "name": "F#3",
          "ticks": 64500,
          "time": 90.793828125,
          "velocity": 0.5905511811023622
        },
        {
          "duration": 2.1762365624999944,
          "durationTicks": 1546,
          "midi": 42,
          "name": "F#2",
          "ticks": 64500,
          "time": 90.793828125,
          "velocity": 0.6535433070866141
        },
        {
          "duration": 1.0670034375000057,
          "durationTicks": 758,
          "midi": 66,
          "name": "F#4",
          "ticks": 66046,
          "time": 92.9700646875,
          "velocity": 0.5590551181102362
        },
        {
          "duration": 1.0670034375000057,
          "durationTicks": 758,
          "midi": 62,
          "name": "D4",
          "ticks": 66046,
          "time": 92.9700646875,
          "velocity": 0.5275590551181102
        },
        {
          "duration": 1.0670034375000057,
          "durationTicks": 758,
          "midi": 59,
          "name": "B3",
          "ticks": 66046,
          "time": 92.9700646875,
          "velocity": 0.5590551181102362
        },
        {
          "duration": 1.0670034375000057,
          "durationTicks": 758,
          "midi": 55,
          "name": "G3",
          "ticks": 66046,
          "time": 92.9700646875,
          "velocity": 0.5905511811023622
        },
        {
          "duration": 1.0670034375000057,
          "durationTicks": 758,
          "midi": 40,
          "name": "E2",
          "ticks": 66046,
          "time": 92.9700646875,
          "velocity": 0.6535433070866141
        },
        {
          "duration": 1.0951565624999944,
          "durationTicks": 778,
          "midi": 64,
          "name": "E4",
          "ticks": 66804,
          "time": 94.037068125,
          "velocity": 0.49606299212598426
        },
        {
          "duration": 1.0951565624999944,
          "durationTicks": 778,
          "midi": 61,
          "name": "C#4",
          "ticks": 66804,
          "time": 94.037068125,
          "velocity": 0.5275590551181102
        },
        {
          "duration": 1.0951565624999944,
          "durationTicks": 778,
          "midi": 57,
          "name": "A3",
          "ticks": 66804,
          "time": 94.037068125,
          "velocity": 0.5590551181102362
        },
        {
          "duration": 1.0951565624999944,
          "durationTicks": 778,
          "midi": 54,
          "name": "F#3",
          "ticks": 66804,
          "time": 94.037068125,
          "velocity": 0.5905511811023622
        },
        {
          "duration": 1.0951565624999944,
          "durationTicks": 778,
          "midi": 42,
          "name": "F#2",
          "ticks": 66804,
          "time": 94.037068125,
          "velocity": 0.6850393700787402
        },
        {
          "duration": 1.08108,
          "durationTicks": 768,
          "midi": 66,
          "name": "F#4",
          "ticks": 67582,
          "time": 95.1322246875,
          "velocity": 0.49606299212598426
        },
        {
          "duration": 1.08108,
          "durationTicks": 768,
          "midi": 62,
          "name": "D4",
          "ticks": 67582,
          "time": 95.1322246875,
          "velocity": 0.5275590551181102
        },
        {
          "duration": 1.08108,
          "durationTicks": 768,
          "midi": 59,
          "name": "B3",
          "ticks": 67582,
          "time": 95.1322246875,
          "velocity": 0.5590551181102362
        },
        {
          "duration": 1.08108,
          "durationTicks": 768,
          "midi": 55,
          "name": "G3",
          "ticks": 67582,
          "time": 95.1322246875,
          "velocity": 0.5905511811023622
        },
        {
          "duration": 1.08108,
          "durationTicks": 768,
          "midi": 43,
          "name": "G2",
          "ticks": 67582,
          "time": 95.1322246875,
          "velocity": 0.6850393700787402
        },
        {
          "duration": 1.0726340625000006,
          "durationTicks": 762,
          "midi": 64,
          "name": "E4",
          "ticks": 68350,
          "time": 96.2133046875,
          "velocity": 0.5590551181102362
        },
        {
          "duration": 1.0726340625000006,
          "durationTicks": 762,
          "midi": 61,
          "name": "C#4",
          "ticks": 68350,
          "time": 96.2133046875,
          "velocity": 0.5905511811023622
        },
        {
          "duration": 1.0726340625000006,
          "durationTicks": 762,
          "midi": 57,
          "name": "A3",
          "ticks": 68350,
          "time": 96.2133046875,
          "velocity": 0.6535433070866141
        },
        {
          "duration": 1.0726340625000006,
          "durationTicks": 762,
          "midi": 45,
          "name": "A2",
          "ticks": 68350,
          "time": 96.2133046875,
          "velocity": 0.6535433070866141
        },
        {
          "duration": 15.1435659375,
          "durationTicks": 10758,
          "midi": 62,
          "name": "D4",
          "ticks": 69112,
          "time": 97.28593875,
          "velocity": 0.7165354330708661
        },
        {
          "duration": 15.1435659375,
          "durationTicks": 10758,
          "midi": 59,
          "name": "B3",
          "ticks": 69112,
          "time": 97.28593875,
          "velocity": 0.6850393700787402
        },
        {
          "duration": 2.16216,
          "durationTicks": 1536,
          "midi": 64,
          "name": "E4",
          "ticks": 79870,
          "time": 112.4295046875,
          "velocity": 0.49606299212598426
        },
        {
          "duration": 2.16216,
          "durationTicks": 1536,
          "midi": 61,
          "name": "C#4",
          "ticks": 79870,
          "time": 112.4295046875,
          "velocity": 0.5275590551181102
        },
        {
          "duration": 2.16216,
          "durationTicks": 1536,
          "midi": 57,
          "name": "A3",
          "ticks": 79870,
          "time": 112.4295046875,
          "velocity": 0.5590551181102362
        },
        {
          "duration": 2.16216,
          "durationTicks": 1536,
          "midi": 54,
          "name": "F#3",
          "ticks": 79870,
          "time": 112.4295046875,
          "velocity": 0.5905511811023622
        },
        {
          "duration": 2.16216,
          "durationTicks": 1536,
          "midi": 42,
          "name": "F#2",
          "ticks": 79870,
          "time": 112.4295046875,
          "velocity": 0.6535433070866141
        },
        {
          "duration": 2.16216,
          "durationTicks": 1536,
          "midi": 66,
          "name": "F#4",
          "ticks": 81406,
          "time": 114.5916646875,
          "velocity": 0.49606299212598426
        },
        {
          "duration": 2.16216,
          "durationTicks": 1536,
          "midi": 62,
          "name": "D4",
          "ticks": 81406,
          "time": 114.5916646875,
          "velocity": 0.5275590551181102
        },
        {
          "duration": 2.16216,
          "durationTicks": 1536,
          "midi": 59,
          "name": "B3",
          "ticks": 81406,
          "time": 114.5916646875,
          "velocity": 0.5590551181102362
        },
        {
          "duration": 2.16216,
          "durationTicks": 1536,
          "midi": 55,
          "name": "G3",
          "ticks": 81406,
          "time": 114.5916646875,
          "velocity": 0.5905511811023622
        },
        {
          "duration": 2.16216,
          "durationTicks": 1536,
          "midi": 43,
          "name": "G2",
          "ticks": 81406,
          "time": 114.5916646875,
          "velocity": 0.6535433070866141
        },
        {
          "duration": 2.1480834375000057,
          "durationTicks": 1526,
          "midi": 64,
          "name": "E4",
          "ticks": 82942,
          "time": 116.7538246875,
          "velocity": 0.49606299212598426
        },
        {
          "duration": 2.1480834375000057,
          "durationTicks": 1526,
          "midi": 61,
          "name": "C#4",
          "ticks": 82942,
          "time": 116.7538246875,
          "velocity": 0.5275590551181102
        },
        {
          "duration": 2.1480834375000057,
          "durationTicks": 1526,
          "midi": 57,
          "name": "A3",
          "ticks": 82942,
          "time": 116.7538246875,
          "velocity": 0.5590551181102362
        },
        {
          "duration": 2.1480834375000057,
          "durationTicks": 1526,
          "midi": 54,
          "name": "F#3",
          "ticks": 82942,
          "time": 116.7538246875,
          "velocity": 0.5905511811023622
        },
        {
          "duration": 2.1480834375000057,
          "durationTicks": 1526,
          "midi": 42,
          "name": "F#2",
          "ticks": 82942,
          "time": 116.7538246875,
          "velocity": 0.6535433070866141
        },
        {
          "duration": 1.0838953125000046,
          "durationTicks": 770,
          "midi": 66,
          "name": "F#4",
          "ticks": 84468,
          "time": 118.901908125,
          "velocity": 0.5590551181102362
        },
        {
          "duration": 1.0838953125000046,
          "durationTicks": 770,
          "midi": 62,
          "name": "D4",
          "ticks": 84468,
          "time": 118.901908125,
          "velocity": 0.5275590551181102
        },
        {
          "duration": 1.0838953125000046,
          "durationTicks": 770,
          "midi": 59,
          "name": "B3",
          "ticks": 84468,
          "time": 118.901908125,
          "velocity": 0.5590551181102362
        },
        {
          "duration": 1.0838953125000046,
          "durationTicks": 770,
          "midi": 55,
          "name": "G3",
          "ticks": 84468,
          "time": 118.901908125,
          "velocity": 0.5905511811023622
        },
        {
          "duration": 1.0838953125000046,
          "durationTicks": 770,
          "midi": 40,
          "name": "E2",
          "ticks": 84468,
          "time": 118.901908125,
          "velocity": 0.6535433070866141
        },
        {
          "duration": 1.0923412499999898,
          "durationTicks": 776,
          "midi": 64,
          "name": "E4",
          "ticks": 85238,
          "time": 119.98580343750001,
          "velocity": 0.49606299212598426
        },
        {
          "duration": 1.0923412499999898,
          "durationTicks": 776,
          "midi": 61,
          "name": "C#4",
          "ticks": 85238,
          "time": 119.98580343750001,
          "velocity": 0.5275590551181102
        },
        {
          "duration": 1.0923412499999898,
          "durationTicks": 776,
          "midi": 57,
          "name": "A3",
          "ticks": 85238,
          "time": 119.98580343750001,
          "velocity": 0.5590551181102362
        },
        {
          "duration": 1.0923412499999898,
          "durationTicks": 776,
          "midi": 54,
          "name": "F#3",
          "ticks": 85238,
          "time": 119.98580343750001,
          "velocity": 0.5905511811023622
        },
        {
          "duration": 1.0923412499999898,
          "durationTicks": 776,
          "midi": 42,
          "name": "F#2",
          "ticks": 85238,
          "time": 119.98580343750001,
          "velocity": 0.6850393700787402
        },
        {
          "duration": 1.08108,
          "durationTicks": 768,
          "midi": 66,
          "name": "F#4",
          "ticks": 86014,
          "time": 121.0781446875,
          "velocity": 0.49606299212598426
        },
        {
          "duration": 1.08108,
          "durationTicks": 768,
          "midi": 62,
          "name": "D4",
          "ticks": 86014,
          "time": 121.0781446875,
          "velocity": 0.5275590551181102
        },
        {
          "duration": 1.08108,
          "durationTicks": 768,
          "midi": 59,
          "name": "B3",
          "ticks": 86014,
          "time": 121.0781446875,
          "velocity": 0.5590551181102362
        },
        {
          "duration": 1.08108,
          "durationTicks": 768,
          "midi": 55,
          "name": "G3",
          "ticks": 86014,
          "time": 121.0781446875,
          "velocity": 0.5905511811023622
        },
        {
          "duration": 1.08108,
          "durationTicks": 768,
          "midi": 43,
          "name": "G2",
          "ticks": 86014,
          "time": 121.0781446875,
          "velocity": 0.6850393700787402
        },
        {
          "duration": 1.0838953125000046,
          "durationTicks": 770,
          "midi": 64,
          "name": "E4",
          "ticks": 86782,
          "time": 122.1592246875,
          "velocity": 0.5590551181102362
        },
        {
          "duration": 1.0838953125000046,
          "durationTicks": 770,
          "midi": 61,
          "name": "C#4",
          "ticks": 86782,
          "time": 122.1592246875,
          "velocity": 0.5905511811023622
        },
        {
          "duration": 1.0838953125000046,
          "durationTicks": 770,
          "midi": 57,
          "name": "A3",
          "ticks": 86782,
          "time": 122.1592246875,
          "velocity": 0.6535433070866141
        },
        {
          "duration": 1.0838953125000046,
          "durationTicks": 770,
          "midi": 45,
          "name": "A2",
          "ticks": 86782,
          "time": 122.1592246875,
          "velocity": 0.6535433070866141
        },
        {
          "duration": 0.07038281250000011,
          "durationTicks": 50,
          "midi": 78,
          "name": "F#5",
          "ticks": 87552,
          "time": 123.24312,
          "velocity": 0.18110236220472442
        },
        {
          "duration": 0.07038281250000011,
          "durationTicks": 50,
          "midi": 66,
          "name": "F#4",
          "ticks": 87552,
          "time": 123.24312,
          "velocity": 0.4015748031496063
        },
        {
          "duration": 0.04504500000000178,
          "durationTicks": 32,
          "midi": 54,
          "name": "F#3",
          "ticks": 87552,
          "time": 123.24312,
          "velocity": 0.2755905511811024
        },
        {
          "duration": 0.076013437499995,
          "durationTicks": 54,
          "midi": 78,
          "name": "F#5",
          "ticks": 87674,
          "time": 123.41485406250001,
          "velocity": 0.18110236220472442
        },
        {
          "duration": 0.056306249999991564,
          "durationTicks": 40,
          "midi": 57,
          "name": "A3",
          "ticks": 87674,
          "time": 123.41485406250001,
          "velocity": 0.2755905511811024
        },
        {
          "duration": 0.076013437499995,
          "durationTicks": 54,
          "midi": 78,
          "name": "F#5",
          "ticks": 87804,
          "time": 123.59784937500001,
          "velocity": 0.18110236220472442
        },
        {
          "duration": 0.076013437499995,
          "durationTicks": 54,
          "midi": 66,
          "name": "F#4",
          "ticks": 87804,
          "time": 123.59784937500001,
          "velocity": 0.4015748031496063
        },
        {
          "duration": 0.05349093750000122,
          "durationTicks": 38,
          "midi": 54,
          "name": "F#3",
          "ticks": 87804,
          "time": 123.59784937500001,
          "velocity": 0.2755905511811024
        },
        {
          "duration": 0.08727468750001321,
          "durationTicks": 62,
          "midi": 78,
          "name": "F#5",
          "ticks": 87922,
          "time": 123.7639528125,
          "velocity": 0.18110236220472442
        },
        {
          "duration": 0.06756750000000977,
          "durationTicks": 48,
          "midi": 57,
          "name": "A3",
          "ticks": 87922,
          "time": 123.7639528125,
          "velocity": 0.2755905511811024
        },
        {
          "duration": 0.08164406250000411,
          "durationTicks": 58,
          "midi": 78,
          "name": "F#5",
          "ticks": 88056,
          "time": 123.95257875,
          "velocity": 0.18110236220472442
        },
        {
          "duration": 0.08164406250000411,
          "durationTicks": 58,
          "midi": 66,
          "name": "F#4",
          "ticks": 88056,
          "time": 123.95257875,
          "velocity": 0.4015748031496063
        },
        {
          "duration": 0.05912156250001033,
          "durationTicks": 42,
          "midi": 54,
          "name": "F#3",
          "ticks": 88056,
          "time": 123.95257875,
          "velocity": 0.2755905511811024
        },
        {
          "duration": 0.0929053124999939,
          "durationTicks": 66,
          "midi": 78,
          "name": "F#5",
          "ticks": 88176,
          "time": 124.1214975,
          "velocity": 0.18110236220472442
        },
        {
          "duration": 0.07038281250000011,
          "durationTicks": 50,
          "midi": 57,
          "name": "A3",
          "ticks": 88176,
          "time": 124.1214975,
          "velocity": 0.2755905511811024
        },
        {
          "duration": 0.0929053124999939,
          "durationTicks": 66,
          "midi": 78,
          "name": "F#5",
          "ticks": 88304,
          "time": 124.30167750000001,
          "velocity": 0.18110236220472442
        },
        {
          "duration": 0.0929053124999939,
          "durationTicks": 66,
          "midi": 66,
          "name": "F#4",
          "ticks": 88304,
          "time": 124.30167750000001,
          "velocity": 0.4015748031496063
        },
        {
          "duration": 0.0703828124999859,
          "durationTicks": 50,
          "midi": 54,
          "name": "F#3",
          "ticks": 88304,
          "time": 124.30167750000001,
          "velocity": 0.2755905511811024
        },
        {
          "duration": 0.07882874999998535,
          "durationTicks": 56,
          "midi": 78,
          "name": "F#5",
          "ticks": 88442,
          "time": 124.49593406250001,
          "velocity": 0.18110236220472442
        },
        {
          "duration": 0.056306249999991564,
          "durationTicks": 40,
          "midi": 57,
          "name": "A3",
          "ticks": 88442,
          "time": 124.49593406250001,
          "velocity": 0.2755905511811024
        },
        {
          "duration": 0.076013437499995,
          "durationTicks": 54,
          "midi": 78,
          "name": "F#5",
          "ticks": 88570,
          "time": 124.6761140625,
          "velocity": 0.18110236220472442
        },
        {
          "duration": 0.076013437499995,
          "durationTicks": 54,
          "midi": 66,
          "name": "F#4",
          "ticks": 88570,
          "time": 124.6761140625,
          "velocity": 0.4015748031496063
        },
        {
          "duration": 0.056306250000005775,
          "durationTicks": 40,
          "midi": 54,
          "name": "F#3",
          "ticks": 88570,
          "time": 124.6761140625,
          "velocity": 0.2755905511811024
        },
        {
          "duration": 0.07601343750000922,
          "durationTicks": 54,
          "midi": 78,
          "name": "F#5",
          "ticks": 88698,
          "time": 124.8562940625,
          "velocity": 0.18110236220472442
        },
        {
          "duration": 0.053490937500015434,
          "durationTicks": 38,
          "midi": 57,
          "name": "A3",
          "ticks": 88698,
          "time": 124.8562940625,
          "velocity": 0.2755905511811024
        },
        {
          "duration": 0.07882875000001377,
          "durationTicks": 56,
          "midi": 78,
          "name": "F#5",
          "ticks": 88824,
          "time": 125.03365875,
          "velocity": 0.18110236220472442
        },
        {
          "duration": 0.07882875000001377,
          "durationTicks": 56,
          "midi": 66,
          "name": "F#4",
          "ticks": 88824,
          "time": 125.03365875,
          "velocity": 0.4015748031496063
        },
        {
          "duration": 0.05912156250001033,
          "durationTicks": 42,
          "midi": 54,
          "name": "F#3",
          "ticks": 88824,
          "time": 125.03365875,
          "velocity": 0.2755905511811024
        },
        {
          "duration": 0.07882874999999956,
          "durationTicks": 56,
          "midi": 78,
          "name": "F#5",
          "ticks": 88954,
          "time": 125.2166540625,
          "velocity": 0.18110236220472442
        },
        {
          "duration": 0.05067562499999667,
          "durationTicks": 36,
          "midi": 57,
          "name": "A3",
          "ticks": 88954,
          "time": 125.2166540625,
          "velocity": 0.2755905511811024
        },
        {
          "duration": 0.07319812499999045,
          "durationTicks": 52,
          "midi": 78,
          "name": "F#5",
          "ticks": 89082,
          "time": 125.3968340625,
          "velocity": 0.18110236220472442
        },
        {
          "duration": 0.07319812499999045,
          "durationTicks": 52,
          "midi": 66,
          "name": "F#4",
          "ticks": 89082,
          "time": 125.3968340625,
          "velocity": 0.4015748031496063
        },
        {
          "duration": 0.05349093750000122,
          "durationTicks": 38,
          "midi": 54,
          "name": "F#3",
          "ticks": 89082,
          "time": 125.3968340625,
          "velocity": 0.2755905511811024
        },
        {
          "duration": 0.07882874999998535,
          "durationTicks": 56,
          "midi": 78,
          "name": "F#5",
          "ticks": 89210,
          "time": 125.57701406250001,
          "velocity": 0.18110236220472442
        },
        {
          "duration": 0.05349093749998701,
          "durationTicks": 38,
          "midi": 57,
          "name": "A3",
          "ticks": 89210,
          "time": 125.57701406250001,
          "velocity": 0.2755905511811024
        },
        {
          "duration": 0.07319812499999045,
          "durationTicks": 52,
          "midi": 78,
          "name": "F#5",
          "ticks": 89340,
          "time": 125.76000937500001,
          "velocity": 0.18110236220472442
        },
        {
          "duration": 0.07319812499999045,
          "durationTicks": 52,
          "midi": 66,
          "name": "F#4",
          "ticks": 89340,
          "time": 125.76000937500001,
          "velocity": 0.4015748031496063
        },
        {
          "duration": 0.05067562499999667,
          "durationTicks": 36,
          "midi": 54,
          "name": "F#3",
          "ticks": 89340,
          "time": 125.76000937500001,
          "velocity": 0.2755905511811024
        },
        {
          "duration": 0.08727468750001321,
          "durationTicks": 62,
          "midi": 78,
          "name": "F#5",
          "ticks": 89458,
          "time": 125.9261128125,
          "velocity": 0.18110236220472442
        },
        {
          "duration": 0.06756750000000977,
          "durationTicks": 48,
          "midi": 57,
          "name": "A3",
          "ticks": 89458,
          "time": 125.9261128125,
          "velocity": 0.2755905511811024
        },
        {
          "duration": 0.07319812500000467,
          "durationTicks": 52,
          "midi": 78,
          "name": "F#5",
          "ticks": 89594,
          "time": 126.1175540625,
          "velocity": 0.18110236220472442
        },
        {
          "duration": 0.07319812500000467,
          "durationTicks": 52,
          "midi": 66,
          "name": "F#4",
          "ticks": 89594,
          "time": 126.1175540625,
          "velocity": 0.4015748031496063
        },
        {
          "duration": 0.05067562500001088,
          "durationTicks": 36,
          "midi": 54,
          "name": "F#3",
          "ticks": 89594,
          "time": 126.1175540625,
          "velocity": 0.2755905511811024
        },
        {
          "duration": 0.07319812499999045,
          "durationTicks": 52,
          "midi": 78,
          "name": "F#5",
          "ticks": 89724,
          "time": 126.300549375,
          "velocity": 0.18110236220472442
        },
        {
          "duration": 0.04786031249999212,
          "durationTicks": 34,
          "midi": 57,
          "name": "A3",
          "ticks": 89724,
          "time": 126.300549375,
          "velocity": 0.2755905511811024
        },
        {
          "duration": 0.076013437499995,
          "durationTicks": 54,
          "midi": 78,
          "name": "F#5",
          "ticks": 89850,
          "time": 126.4779140625,
          "velocity": 0.18110236220472442
        },
        {
          "duration": 0.076013437499995,
          "durationTicks": 54,
          "midi": 66,
          "name": "F#4",
          "ticks": 89850,
          "time": 126.4779140625,
          "velocity": 0.4015748031496063
        },
        {
          "duration": 0.05349093750000122,
          "durationTicks": 38,
          "midi": 54,
          "name": "F#3",
          "ticks": 89850,
          "time": 126.4779140625,
          "velocity": 0.2755905511811024
        },
        {
          "duration": 0.09008999999998935,
          "durationTicks": 64,
          "midi": 78,
          "name": "F#5",
          "ticks": 89970,
          "time": 126.64683281250001,
          "velocity": 0.18110236220472442
        },
        {
          "duration": 0.06475218749999101,
          "durationTicks": 46,
          "midi": 57,
          "name": "A3",
          "ticks": 89970,
          "time": 126.64683281250001,
          "velocity": 0.2755905511811024
        },
        {
          "duration": 0.09008999999998935,
          "durationTicks": 64,
          "midi": 78,
          "name": "F#5",
          "ticks": 90098,
          "time": 126.82701281250002,
          "velocity": 0.18110236220472442
        },
        {
          "duration": 0.09008999999998935,
          "durationTicks": 64,
          "midi": 66,
          "name": "F#4",
          "ticks": 90098,
          "time": 126.82701281250002,
          "velocity": 0.4015748031496063
        },
        {
          "duration": 0.06475218749999101,
          "durationTicks": 46,
          "midi": 54,
          "name": "F#3",
          "ticks": 90098,
          "time": 126.82701281250002,
          "velocity": 0.2755905511811024
        },
        {
          "duration": 0.09290531250000811,
          "durationTicks": 66,
          "midi": 78,
          "name": "F#5",
          "ticks": 90224,
          "time": 127.0043775,
          "velocity": 0.18110236220472442
        },
        {
          "duration": 0.06756750000000977,
          "durationTicks": 48,
          "midi": 57,
          "name": "A3",
          "ticks": 90224,
          "time": 127.0043775,
          "velocity": 0.2755905511811024
        },
        {
          "duration": 0.09009000000001777,
          "durationTicks": 64,
          "midi": 78,
          "name": "F#5",
          "ticks": 90352,
          "time": 127.1845575,
          "velocity": 0.18110236220472442
        },
        {
          "duration": 0.09009000000001777,
          "durationTicks": 64,
          "midi": 66,
          "name": "F#4",
          "ticks": 90352,
          "time": 127.1845575,
          "velocity": 0.4015748031496063
        },
        {
          "duration": 0.06756750000000977,
          "durationTicks": 48,
          "midi": 54,
          "name": "F#3",
          "ticks": 90352,
          "time": 127.1845575,
          "velocity": 0.2755905511811024
        },
        {
          "duration": 0.07319812499999045,
          "durationTicks": 52,
          "midi": 78,
          "name": "F#5",
          "ticks": 90492,
          "time": 127.381629375,
          "velocity": 0.18110236220472442
        },
        {
          "duration": 0.05067562499999667,
          "durationTicks": 36,
          "midi": 57,
          "name": "A3",
          "ticks": 90492,
          "time": 127.381629375,
          "velocity": 0.2755905511811024
        },
        {
          "duration": 0.0929053124999939,
          "durationTicks": 66,
          "midi": 78,
          "name": "F#5",
          "ticks": 90610,
          "time": 127.5477328125,
          "velocity": 0.18110236220472442
        },
        {
          "duration": 0.0929053124999939,
          "durationTicks": 66,
          "midi": 66,
          "name": "F#4",
          "ticks": 90610,
          "time": 127.5477328125,
          "velocity": 0.4015748031496063
        },
        {
          "duration": 0.06475218750000522,
          "durationTicks": 46,
          "midi": 54,
          "name": "F#3",
          "ticks": 90610,
          "time": 127.5477328125,
          "velocity": 0.2755905511811024
        },
        {
          "duration": 0.09009000000000356,
          "durationTicks": 64,
          "midi": 78,
          "name": "F#5",
          "ticks": 90736,
          "time": 127.7250975,
          "velocity": 0.18110236220472442
        },
        {
          "duration": 0.06756749999999556,
          "durationTicks": 48,
          "midi": 57,
          "name": "A3",
          "ticks": 90736,
          "time": 127.7250975,
          "velocity": 0.2755905511811024
        },
        {
          "duration": 0.0929053124999939,
          "durationTicks": 66,
          "midi": 78,
          "name": "F#5",
          "ticks": 90864,
          "time": 127.90527750000001,
          "velocity": 0.18110236220472442
        },
        {
          "duration": 0.11261250000001155,
          "durationTicks": 80,
          "midi": 66,
          "name": "F#4",
          "ticks": 90864,
          "time": 127.90527750000001,
          "velocity": 0.4330708661417323
        },
        {
          "duration": 0.07038281250000011,
          "durationTicks": 50,
          "midi": 54,
          "name": "F#3",
          "ticks": 90864,
          "time": 127.90527750000001,
          "velocity": 0.2755905511811024
        },
        {
          "duration": 0.09009000000000356,
          "durationTicks": 64,
          "midi": 78,
          "name": "F#5",
          "ticks": 90994,
          "time": 128.0882728125,
          "velocity": 0.18110236220472442
        },
        {
          "duration": 0.06475218750000522,
          "durationTicks": 46,
          "midi": 57,
          "name": "A3",
          "ticks": 90994,
          "time": 128.0882728125,
          "velocity": 0.2755905511811024
        },
        {
          "duration": 0.09008999999997513,
          "durationTicks": 64,
          "midi": 78,
          "name": "F#5",
          "ticks": 91122,
          "time": 128.26845281250002,
          "velocity": 0.18110236220472442
        },
        {
          "duration": 0.10979718749999279,
          "durationTicks": 78,
          "midi": 66,
          "name": "F#4",
          "ticks": 91122,
          "time": 128.26845281250002,
          "velocity": 0.4645669291338583
        },
        {
          "duration": 0.0647521874999768,
          "durationTicks": 46,
          "midi": 54,
          "name": "F#3",
          "ticks": 91122,
          "time": 128.26845281250002,
          "velocity": 0.2755905511811024
        },
        {
          "duration": 0.0872746874999848,
          "durationTicks": 62,
          "midi": 78,
          "name": "F#5",
          "ticks": 91250,
          "time": 128.44863281250002,
          "velocity": 0.18110236220472442
        },
        {
          "duration": 0.0647521874999768,
          "durationTicks": 46,
          "midi": 57,
          "name": "A3",
          "ticks": 91250,
          "time": 128.44863281250002,
          "velocity": 0.2755905511811024
        },
        {
          "duration": 0.07882875000001377,
          "durationTicks": 56,
          "midi": 78,
          "name": "F#5",
          "ticks": 91386,
          "time": 128.6400740625,
          "velocity": 0.18110236220472442
        },
        {
          "duration": 0.10135125000002176,
          "durationTicks": 72,
          "midi": 66,
          "name": "F#4",
          "ticks": 91386,
          "time": 128.6400740625,
          "velocity": 0.49606299212598426
        },
        {
          "duration": 0.056306250000005775,
          "durationTicks": 40,
          "midi": 54,
          "name": "F#3",
          "ticks": 91386,
          "time": 128.6400740625,
          "velocity": 0.2755905511811024
        },
        {
          "duration": 0.08445937500002287,
          "durationTicks": 60,
          "midi": 78,
          "name": "F#5",
          "ticks": 91510,
          "time": 128.8146234375,
          "velocity": 0.18110236220472442
        },
        {
          "duration": 0.05912156250002454,
          "durationTicks": 42,
          "midi": 57,
          "name": "A3",
          "ticks": 91510,
          "time": 128.8146234375,
          "velocity": 0.2755905511811024
        },
        {
          "duration": 0.07882874999998535,
          "durationTicks": 56,
          "midi": 78,
          "name": "F#5",
          "ticks": 91640,
          "time": 128.99761875000002,
          "velocity": 0.18110236220472442
        },
        {
          "duration": 0.12387375000000134,
          "durationTicks": 88,
          "midi": 66,
          "name": "F#4",
          "ticks": 91640,
          "time": 128.99761875000002,
          "velocity": 0.49606299212598426
        },
        {
          "duration": 0.059121562499996116,
          "durationTicks": 42,
          "midi": 54,
          "name": "F#3",
          "ticks": 91640,
          "time": 128.99761875000002,
          "velocity": 0.2755905511811024
        },
        {
          "duration": 0.076013437499995,
          "durationTicks": 54,
          "midi": 78,
          "name": "F#5",
          "ticks": 91768,
          "time": 129.17779875,
          "velocity": 0.18110236220472442
        },
        {
          "duration": 0.056306250000005775,
          "durationTicks": 40,
          "midi": 57,
          "name": "A3",
          "ticks": 91768,
          "time": 129.17779875,
          "velocity": 0.2755905511811024
        },
        {
          "duration": 0.08164406250000411,
          "durationTicks": 58,
          "midi": 78,
          "name": "F#5",
          "ticks": 91896,
          "time": 129.35797875,
          "velocity": 0.18110236220472442
        },
        {
          "duration": 0.12387375000000134,
          "durationTicks": 88,
          "midi": 66,
          "name": "F#4",
          "ticks": 91896,
          "time": 129.35797875,
          "velocity": 0.5275590551181102
        },
        {
          "duration": 0.056306250000005775,
          "durationTicks": 40,
          "midi": 54,
          "name": "F#3",
          "ticks": 91896,
          "time": 129.35797875,
          "velocity": 0.2755905511811024
        },
        {
          "duration": 0.07319812499997624,
          "durationTicks": 52,
          "midi": 78,
          "name": "F#5",
          "ticks": 92028,
          "time": 129.54378937500002,
          "velocity": 0.18110236220472442
        },
        {
          "duration": 0.05067562499999667,
          "durationTicks": 36,
          "midi": 57,
          "name": "A3",
          "ticks": 92028,
          "time": 129.54378937500002,
          "velocity": 0.2755905511811024
        },
        {
          "duration": 0.076013437499995,
          "durationTicks": 54,
          "midi": 78,
          "name": "F#5",
          "ticks": 92154,
          "time": 129.7211540625,
          "velocity": 0.18110236220472442
        },
        {
          "duration": 0.076013437499995,
          "durationTicks": 54,
          "midi": 66,
          "name": "F#4",
          "ticks": 92154,
          "time": 129.7211540625,
          "velocity": 0.4015748031496063
        },
        {
          "duration": 0.053490937500015434,
          "durationTicks": 38,
          "midi": 54,
          "name": "F#3",
          "ticks": 92154,
          "time": 129.7211540625,
          "velocity": 0.2755905511811024
        },
        {
          "duration": 0.07882875000001377,
          "durationTicks": 56,
          "midi": 78,
          "name": "F#5",
          "ticks": 92280,
          "time": 129.89851875,
          "velocity": 0.18110236220472442
        },
        {
          "duration": 0.05912156250002454,
          "durationTicks": 42,
          "midi": 57,
          "name": "A3",
          "ticks": 92280,
          "time": 129.89851875,
          "velocity": 0.2755905511811024
        },
        {
          "duration": 0.076013437499995,
          "durationTicks": 54,
          "midi": 78,
          "name": "F#5",
          "ticks": 92410,
          "time": 130.0815140625,
          "velocity": 0.18110236220472442
        },
        {
          "duration": 0.09572062500001266,
          "durationTicks": 68,
          "midi": 66,
          "name": "F#4",
          "ticks": 92410,
          "time": 130.0815140625,
          "velocity": 0.4330708661417323
        },
        {
          "duration": 0.053490937500015434,
          "durationTicks": 38,
          "midi": 54,
          "name": "F#3",
          "ticks": 92410,
          "time": 130.0815140625,
          "velocity": 0.2755905511811024
        },
        {
          "duration": 0.076013437499995,
          "durationTicks": 54,
          "midi": 78,
          "name": "F#5",
          "ticks": 92536,
          "time": 130.25887875,
          "velocity": 0.18110236220472442
        },
        {
          "duration": 0.059121562499996116,
          "durationTicks": 42,
          "midi": 57,
          "name": "A3",
          "ticks": 92536,
          "time": 130.25887875,
          "velocity": 0.2755905511811024
        },
        {
          "duration": 0.07882874999998535,
          "durationTicks": 56,
          "midi": 78,
          "name": "F#5",
          "ticks": 92664,
          "time": 130.43905875000002,
          "velocity": 0.18110236220472442
        },
        {
          "duration": 0.09853593749997458,
          "durationTicks": 70,
          "midi": 66,
          "name": "F#4",
          "ticks": 92664,
          "time": 130.43905875000002,
          "velocity": 0.4645669291338583
        },
        {
          "duration": 0.059121562499996116,
          "durationTicks": 42,
          "midi": 54,
          "name": "F#3",
          "ticks": 92664,
          "time": 130.43905875000002,
          "velocity": 0.2755905511811024
        },
        {
          "duration": 0.076013437499995,
          "durationTicks": 54,
          "midi": 78,
          "name": "F#5",
          "ticks": 92794,
          "time": 130.6220540625,
          "velocity": 0.18110236220472442
        },
        {
          "duration": 0.056306250000005775,
          "durationTicks": 40,
          "midi": 57,
          "name": "A3",
          "ticks": 92794,
          "time": 130.6220540625,
          "velocity": 0.2755905511811024
        },
        {
          "duration": 0.07882875000001377,
          "durationTicks": 56,
          "midi": 78,
          "name": "F#5",
          "ticks": 92922,
          "time": 130.8022340625,
          "velocity": 0.18110236220472442
        },
        {
          "duration": 0.098535937500003,
          "durationTicks": 70,
          "midi": 66,
          "name": "F#4",
          "ticks": 92922,
          "time": 130.8022340625,
          "velocity": 0.49606299212598426
        },
        {
          "duration": 0.056306250000005775,
          "durationTicks": 40,
          "midi": 54,
          "name": "F#3",
          "ticks": 92922,
          "time": 130.8022340625,
          "velocity": 0.2755905511811024
        },
        {
          "duration": 0.07882875000001377,
          "durationTicks": 56,
          "midi": 78,
          "name": "F#5",
          "ticks": 93048,
          "time": 130.97959875,
          "velocity": 0.18110236220472442
        },
        {
          "duration": 0.056306250000005775,
          "durationTicks": 40,
          "midi": 57,
          "name": "A3",
          "ticks": 93048,
          "time": 130.97959875,
          "velocity": 0.2755905511811024
        },
        {
          "duration": 0.0929053124999939,
          "durationTicks": 66,
          "midi": 78,
          "name": "F#5",
          "ticks": 93168,
          "time": 131.1485175,
          "velocity": 0.18110236220472442
        },
        {
          "duration": 0.13513500000001955,
          "durationTicks": 96,
          "midi": 66,
          "name": "F#4",
          "ticks": 93168,
          "time": 131.1485175,
          "velocity": 0.49606299212598426
        },
        {
          "duration": 0.06756749999999556,
          "durationTicks": 48,
          "midi": 54,
          "name": "F#3",
          "ticks": 93168,
          "time": 131.1485175,
          "velocity": 0.2755905511811024
        },
        {
          "duration": 0.09009000000000356,
          "durationTicks": 64,
          "midi": 78,
          "name": "F#5",
          "ticks": 93296,
          "time": 131.3286975,
          "velocity": 0.18110236220472442
        },
        {
          "duration": 0.0703828124999859,
          "durationTicks": 50,
          "midi": 57,
          "name": "A3",
          "ticks": 93296,
          "time": 131.3286975,
          "velocity": 0.2755905511811024
        },
        {
          "duration": 0.08164406250000411,
          "durationTicks": 58,
          "midi": 78,
          "name": "F#5",
          "ticks": 93430,
          "time": 131.5173234375,
          "velocity": 0.18110236220472442
        },
        {
          "duration": 0.13231968750000078,
          "durationTicks": 94,
          "midi": 66,
          "name": "F#4",
          "ticks": 93430,
          "time": 131.5173234375,
          "velocity": 0.5275590551181102
        },
        {
          "duration": 0.06193687499998646,
          "durationTicks": 44,
          "midi": 54,
          "name": "F#3",
          "ticks": 93430,
          "time": 131.5173234375,
          "velocity": 0.2755905511811024
        },
        {
          "duration": 0.076013437499995,
          "durationTicks": 54,
          "midi": 78,
          "name": "F#5",
          "ticks": 93562,
          "time": 131.7031340625,
          "velocity": 0.18110236220472442
        },
        {
          "duration": 0.05067562499999667,
          "durationTicks": 36,
          "midi": 57,
          "name": "A3",
          "ticks": 93562,
          "time": 131.7031340625,
          "velocity": 0.2755905511811024
        },
        {
          "duration": 0.08164406250003253,
          "durationTicks": 58,
          "midi": 78,
          "name": "F#5",
          "ticks": 93688,
          "time": 131.88049875,
          "velocity": 0.18110236220472442
        },
        {
          "duration": 0.08164406250003253,
          "durationTicks": 58,
          "midi": 66,
          "name": "F#4",
          "ticks": 93688,
          "time": 131.88049875,
          "velocity": 0.4015748031496063
        },
        {
          "duration": 0.05912156250002454,
          "durationTicks": 42,
          "midi": 54,
          "name": "F#3",
          "ticks": 93688,
          "time": 131.88049875,
          "velocity": 0.2755905511811024
        },
        {
          "duration": 0.0929053124999939,
          "durationTicks": 66,
          "midi": 78,
          "name": "F#5",
          "ticks": 93808,
          "time": 132.0494175,
          "velocity": 0.18110236220472442
        },
        {
          "duration": 0.06756749999999556,
          "durationTicks": 48,
          "midi": 57,
          "name": "A3",
          "ticks": 93808,
          "time": 132.0494175,
          "velocity": 0.2755905511811024
        },
        {
          "duration": 0.076013437499995,
          "durationTicks": 54,
          "midi": 78,
          "name": "F#5",
          "ticks": 93946,
          "time": 132.2436740625,
          "velocity": 0.18110236220472442
        },
        {
          "duration": 0.09853593750003142,
          "durationTicks": 70,
          "midi": 66,
          "name": "F#4",
          "ticks": 93946,
          "time": 132.2436740625,
          "velocity": 0.4330708661417323
        },
        {
          "duration": 0.05067562499999667,
          "durationTicks": 36,
          "midi": 54,
          "name": "F#3",
          "ticks": 93946,
          "time": 132.2436740625,
          "velocity": 0.2755905511811024
        },
        {
          "duration": 0.07882874999998535,
          "durationTicks": 56,
          "midi": 78,
          "name": "F#5",
          "ticks": 94072,
          "time": 132.42103875,
          "velocity": 0.18110236220472442
        },
        {
          "duration": 0.05067562499999667,
          "durationTicks": 36,
          "midi": 57,
          "name": "A3",
          "ticks": 94072,
          "time": 132.42103875,
          "velocity": 0.2755905511811024
        },
        {
          "duration": 0.07882875000001377,
          "durationTicks": 56,
          "midi": 78,
          "name": "F#5",
          "ticks": 94198,
          "time": 132.5984034375,
          "velocity": 0.18110236220472442
        },
        {
          "duration": 0.1041665625000121,
          "durationTicks": 74,
          "midi": 66,
          "name": "F#4",
          "ticks": 94198,
          "time": 132.5984034375,
          "velocity": 0.4645669291338583
        },
        {
          "duration": 0.06193687500001488,
          "durationTicks": 44,
          "midi": 54,
          "name": "F#3",
          "ticks": 94198,
          "time": 132.5984034375,
          "velocity": 0.2755905511811024
        },
        {
          "duration": 0.07319812500000467,
          "durationTicks": 52,
          "midi": 78,
          "name": "F#5",
          "ticks": 94330,
          "time": 132.7842140625,
          "velocity": 0.18110236220472442
        },
        {
          "duration": 0.05349093749998701,
          "durationTicks": 38,
          "midi": 57,
          "name": "A3",
          "ticks": 94330,
          "time": 132.7842140625,
          "velocity": 0.2755905511811024
        },
        {
          "duration": 0.07319812500000467,
          "durationTicks": 52,
          "midi": 78,
          "name": "F#5",
          "ticks": 94460,
          "time": 132.967209375,
          "velocity": 0.18110236220472442
        },
        {
          "duration": 0.09572062499998424,
          "durationTicks": 68,
          "midi": 66,
          "name": "F#4",
          "ticks": 94460,
          "time": 132.967209375,
          "velocity": 0.49606299212598426
        },
        {
          "duration": 0.05067562499999667,
          "durationTicks": 36,
          "midi": 54,
          "name": "F#3",
          "ticks": 94460,
          "time": 132.967209375,
          "velocity": 0.2755905511811024
        },
        {
          "duration": 0.09009000000003198,
          "durationTicks": 64,
          "midi": 78,
          "name": "F#5",
          "ticks": 94576,
          "time": 133.1304975,
          "velocity": 0.18110236220472442
        },
        {
          "duration": 0.06756750000002398,
          "durationTicks": 48,
          "midi": 57,
          "name": "A3",
          "ticks": 94576,
          "time": 133.1304975,
          "velocity": 0.2755905511811024
        },
        {
          "duration": 0.09009000000000356,
          "durationTicks": 64,
          "midi": 78,
          "name": "F#5",
          "ticks": 94704,
          "time": 133.3106775,
          "velocity": 0.18110236220472442
        },
        {
          "duration": 0.13231968750000078,
          "durationTicks": 94,
          "midi": 66,
          "name": "F#4",
          "ticks": 94704,
          "time": 133.3106775,
          "velocity": 0.49606299212598426
        },
        {
          "duration": 0.07038281250001432,
          "durationTicks": 50,
          "midi": 54,
          "name": "F#3",
          "ticks": 94704,
          "time": 133.3106775,
          "velocity": 0.2755905511811024
        },
        {
          "duration": 0.07882875000001377,
          "durationTicks": 56,
          "midi": 78,
          "name": "F#5",
          "ticks": 94840,
          "time": 133.50211875,
          "velocity": 0.18110236220472442
        },
        {
          "duration": 0.056306250000005775,
          "durationTicks": 40,
          "midi": 57,
          "name": "A3",
          "ticks": 94840,
          "time": 133.50211875,
          "velocity": 0.2755905511811024
        },
        {
          "duration": 0.08164406250000411,
          "durationTicks": 58,
          "midi": 78,
          "name": "F#5",
          "ticks": 94968,
          "time": 133.68229875,
          "velocity": 0.18110236220472442
        },
        {
          "duration": 0.12387375000000134,
          "durationTicks": 88,
          "midi": 66,
          "name": "F#4",
          "ticks": 94968,
          "time": 133.68229875,
          "velocity": 0.5275590551181102
        },
        {
          "duration": 0.059121562499996116,
          "durationTicks": 42,
          "midi": 54,
          "name": "F#3",
          "ticks": 94968,
          "time": 133.68229875,
          "velocity": 0.2755905511811024
        },
        {
          "duration": 0.07882875000001377,
          "durationTicks": 56,
          "midi": 78,
          "name": "F#5",
          "ticks": 95098,
          "time": 133.8652940625,
          "velocity": 0.18110236220472442
        },
        {
          "duration": 0.05067562499999667,
          "durationTicks": 36,
          "midi": 57,
          "name": "A3",
          "ticks": 95098,
          "time": 133.8652940625,
          "velocity": 0.2755905511811024
        },
        {
          "duration": 0.076013437499995,
          "durationTicks": 54,
          "midi": 78,
          "name": "F#5",
          "ticks": 95226,
          "time": 134.0454740625,
          "velocity": 0.18110236220472442
        },
        {
          "duration": 0.076013437499995,
          "durationTicks": 54,
          "midi": 66,
          "name": "F#4",
          "ticks": 95226,
          "time": 134.0454740625,
          "velocity": 0.4015748031496063
        },
        {
          "duration": 0.053490937500015434,
          "durationTicks": 38,
          "midi": 54,
          "name": "F#3",
          "ticks": 95226,
          "time": 134.0454740625,
          "velocity": 0.2755905511811024
        },
        {
          "duration": 0.08727468750001321,
          "durationTicks": 62,
          "midi": 78,
          "name": "F#5",
          "ticks": 95346,
          "time": 134.2143928125,
          "velocity": 0.18110236220472442
        },
        {
          "duration": 0.06756750000002398,
          "durationTicks": 48,
          "midi": 57,
          "name": "A3",
          "ticks": 95346,
          "time": 134.2143928125,
          "velocity": 0.2755905511811024
        },
        {
          "duration": 0.076013437499995,
          "durationTicks": 54,
          "midi": 78,
          "name": "F#5",
          "ticks": 95482,
          "time": 134.4058340625,
          "velocity": 0.18110236220472442
        },
        {
          "duration": 0.09853593750003142,
          "durationTicks": 70,
          "midi": 66,
          "name": "F#4",
          "ticks": 95482,
          "time": 134.4058340625,
          "velocity": 0.4330708661417323
        },
        {
          "duration": 0.053490937500015434,
          "durationTicks": 38,
          "midi": 54,
          "name": "F#3",
          "ticks": 95482,
          "time": 134.4058340625,
          "velocity": 0.2755905511811024
        },
        {
          "duration": 0.0703828124999859,
          "durationTicks": 50,
          "midi": 78,
          "name": "F#5",
          "ticks": 95612,
          "time": 134.58882937500002,
          "velocity": 0.18110236220472442
        },
        {
          "duration": 0.05067562499999667,
          "durationTicks": 36,
          "midi": 57,
          "name": "A3",
          "ticks": 95612,
          "time": 134.58882937500002,
          "velocity": 0.2755905511811024
        },
        {
          "duration": 0.09009000000000356,
          "durationTicks": 64,
          "midi": 78,
          "name": "F#5",
          "ticks": 95728,
          "time": 134.7521175,
          "velocity": 0.18110236220472442
        },
        {
          "duration": 0.11261250000001155,
          "durationTicks": 80,
          "midi": 66,
          "name": "F#4",
          "ticks": 95728,
          "time": 134.7521175,
          "velocity": 0.4645669291338583
        },
        {
          "duration": 0.06756749999999556,
          "durationTicks": 48,
          "midi": 54,
          "name": "F#3",
          "ticks": 95728,
          "time": 134.7521175,
          "velocity": 0.2755905511811024
        },
        {
          "duration": 0.076013437499995,
          "durationTicks": 54,
          "midi": 78,
          "name": "F#5",
          "ticks": 95866,
          "time": 134.9463740625,
          "velocity": 0.18110236220472442
        },
        {
          "duration": 0.05349093749998701,
          "durationTicks": 38,
          "midi": 57,
          "name": "A3",
          "ticks": 95866,
          "time": 134.9463740625,
          "velocity": 0.2755905511811024
        },
        {
          "duration": 0.0929053124999939,
          "durationTicks": 66,
          "midi": 78,
          "name": "F#5",
          "ticks": 95984,
          "time": 135.1124775,
          "velocity": 0.18110236220472442
        },
        {
          "duration": 0.11261249999998313,
          "durationTicks": 80,
          "midi": 66,
          "name": "F#4",
          "ticks": 95984,
          "time": 135.1124775,
          "velocity": 0.49606299212598426
        },
        {
          "duration": 0.0703828124999859,
          "durationTicks": 50,
          "midi": 54,
          "name": "F#3",
          "ticks": 95984,
          "time": 135.1124775,
          "velocity": 0.2755905511811024
        },
        {
          "duration": 0.09290531250002232,
          "durationTicks": 66,
          "midi": 78,
          "name": "F#5",
          "ticks": 96112,
          "time": 135.2926575,
          "velocity": 0.18110236220472442
        },
        {
          "duration": 0.06756750000002398,
          "durationTicks": 48,
          "midi": 57,
          "name": "A3",
          "ticks": 96112,
          "time": 135.2926575,
          "velocity": 0.2755905511811024
        },
        {
          "duration": 0.0872746874999848,
          "durationTicks": 62,
          "midi": 78,
          "name": "F#5",
          "ticks": 96242,
          "time": 135.47565281250002,
          "velocity": 0.18110236220472442
        },
        {
          "duration": 0.13231968750000078,
          "durationTicks": 94,
          "midi": 66,
          "name": "F#4",
          "ticks": 96242,
          "time": 135.47565281250002,
          "velocity": 0.49606299212598426
        },
        {
          "duration": 0.0647521874999768,
          "durationTicks": 46,
          "midi": 54,
          "name": "F#3",
          "ticks": 96242,
          "time": 135.47565281250002,
          "velocity": 0.2755905511811024
        },
        {
          "duration": 0.09009000000000356,
          "durationTicks": 64,
          "midi": 78,
          "name": "F#5",
          "ticks": 96368,
          "time": 135.6530175,
          "velocity": 0.18110236220472442
        },
        {
          "duration": 0.06475218750000522,
          "durationTicks": 46,
          "midi": 57,
          "name": "A3",
          "ticks": 96368,
          "time": 135.6530175,
          "velocity": 0.2755905511811024
        },
        {
          "duration": 0.09009000000000356,
          "durationTicks": 64,
          "midi": 78,
          "name": "F#5",
          "ticks": 96496,
          "time": 135.8331975,
          "velocity": 0.18110236220472442
        },
        {
          "duration": 0.13513499999999112,
          "durationTicks": 96,
          "midi": 66,
          "name": "F#4",
          "ticks": 96496,
          "time": 135.8331975,
          "velocity": 0.5275590551181102
        },
        {
          "duration": 0.06756749999999556,
          "durationTicks": 48,
          "midi": 54,
          "name": "F#3",
          "ticks": 96496,
          "time": 135.8331975,
          "velocity": 0.2755905511811024
        },
        {
          "duration": 0.09008999999997513,
          "durationTicks": 64,
          "midi": 78,
          "name": "F#5",
          "ticks": 96624,
          "time": 136.01337750000002,
          "velocity": 0.18110236220472442
        },
        {
          "duration": 0.0647521874999768,
          "durationTicks": 46,
          "midi": 57,
          "name": "A3",
          "ticks": 96624,
          "time": 136.01337750000002,
          "velocity": 0.2755905511811024
        },
        {
          "duration": 0.09009000000003198,
          "durationTicks": 64,
          "midi": 78,
          "name": "F#5",
          "ticks": 96754,
          "time": 136.1963728125,
          "velocity": 0.18110236220472442
        },
        {
          "duration": 0.09009000000003198,
          "durationTicks": 64,
          "midi": 66,
          "name": "F#4",
          "ticks": 96754,
          "time": 136.1963728125,
          "velocity": 0.4015748031496063
        },
        {
          "duration": 0.06475218750003364,
          "durationTicks": 46,
          "midi": 54,
          "name": "F#3",
          "ticks": 96754,
          "time": 136.1963728125,
          "velocity": 0.2755905511811024
        },
        {
          "duration": 0.07882875000001377,
          "durationTicks": 56,
          "midi": 78,
          "name": "F#5",
          "ticks": 96886,
          "time": 136.3821834375,
          "velocity": 0.18110236220472442
        },
        {
          "duration": 0.059121562499996116,
          "durationTicks": 42,
          "midi": 57,
          "name": "A3",
          "ticks": 96886,
          "time": 136.3821834375,
          "velocity": 0.2755905511811024
        },
        {
          "duration": 0.0929053124999939,
          "durationTicks": 66,
          "midi": 78,
          "name": "F#5",
          "ticks": 97008,
          "time": 136.5539175,
          "velocity": 0.18110236220472442
        },
        {
          "duration": 0.11261250000001155,
          "durationTicks": 80,
          "midi": 66,
          "name": "F#4",
          "ticks": 97008,
          "time": 136.5539175,
          "velocity": 0.4330708661417323
        },
        {
          "duration": 0.06756749999999556,
          "durationTicks": 48,
          "midi": 54,
          "name": "F#3",
          "ticks": 97008,
          "time": 136.5539175,
          "velocity": 0.2755905511811024
        },
        {
          "duration": 0.07882874999998535,
          "durationTicks": 56,
          "midi": 78,
          "name": "F#5",
          "ticks": 97144,
          "time": 136.74535875,
          "velocity": 0.18110236220472442
        },
        {
          "duration": 0.056306250000005775,
          "durationTicks": 40,
          "midi": 57,
          "name": "A3",
          "ticks": 97144,
          "time": 136.74535875,
          "velocity": 0.2755905511811024
        },
        {
          "duration": 0.08727468750001321,
          "durationTicks": 62,
          "midi": 78,
          "name": "F#5",
          "ticks": 97264,
          "time": 136.9142775,
          "velocity": 0.18110236220472442
        },
        {
          "duration": 0.10979718749999279,
          "durationTicks": 78,
          "midi": 66,
          "name": "F#4",
          "ticks": 97264,
          "time": 136.9142775,
          "velocity": 0.4645669291338583
        },
        {
          "duration": 0.06756749999999556,
          "durationTicks": 48,
          "midi": 54,
          "name": "F#3",
          "ticks": 97264,
          "time": 136.9142775,
          "velocity": 0.2755905511811024
        },
        {
          "duration": 0.08164406250000411,
          "durationTicks": 58,
          "midi": 78,
          "name": "F#5",
          "ticks": 97398,
          "time": 137.1029034375,
          "velocity": 0.18110236220472442
        },
        {
          "duration": 0.059121562499996116,
          "durationTicks": 42,
          "midi": 57,
          "name": "A3",
          "ticks": 97398,
          "time": 137.1029034375,
          "velocity": 0.2755905511811024
        },
        {
          "duration": 0.07601343750002343,
          "durationTicks": 54,
          "midi": 78,
          "name": "F#5",
          "ticks": 97530,
          "time": 137.2887140625,
          "velocity": 0.18110236220472442
        },
        {
          "duration": 0.098535937500003,
          "durationTicks": 70,
          "midi": 66,
          "name": "F#4",
          "ticks": 97530,
          "time": 137.2887140625,
          "velocity": 0.49606299212598426
        },
        {
          "duration": 0.056306250000005775,
          "durationTicks": 40,
          "midi": 54,
          "name": "F#3",
          "ticks": 97530,
          "time": 137.2887140625,
          "velocity": 0.2755905511811024
        },
        {
          "duration": 0.07882875000001377,
          "durationTicks": 56,
          "midi": 78,
          "name": "F#5",
          "ticks": 97656,
          "time": 137.46607875,
          "velocity": 0.18110236220472442
        },
        {
          "duration": 0.056306250000005775,
          "durationTicks": 40,
          "midi": 57,
          "name": "A3",
          "ticks": 97656,
          "time": 137.46607875,
          "velocity": 0.2755905511811024
        },
        {
          "duration": 0.07882874999998535,
          "durationTicks": 56,
          "midi": 78,
          "name": "F#5",
          "ticks": 97784,
          "time": 137.64625875000002,
          "velocity": 0.18110236220472442
        },
        {
          "duration": 0.12387375000000134,
          "durationTicks": 88,
          "midi": 66,
          "name": "F#4",
          "ticks": 97784,
          "time": 137.64625875000002,
          "velocity": 0.49606299212598426
        },
        {
          "duration": 0.059121562499996116,
          "durationTicks": 42,
          "midi": 54,
          "name": "F#3",
          "ticks": 97784,
          "time": 137.64625875000002,
          "velocity": 0.2755905511811024
        },
        {
          "duration": 0.076013437499995,
          "durationTicks": 54,
          "midi": 78,
          "name": "F#5",
          "ticks": 97914,
          "time": 137.8292540625,
          "velocity": 0.18110236220472442
        },
        {
          "duration": 0.056306249999977354,
          "durationTicks": 40,
          "midi": 57,
          "name": "A3",
          "ticks": 97914,
          "time": 137.8292540625,
          "velocity": 0.2755905511811024
        },
        {
          "duration": 0.09009000000000356,
          "durationTicks": 64,
          "midi": 78,
          "name": "F#5",
          "ticks": 98032,
          "time": 137.9953575,
          "velocity": 0.18110236220472442
        },
        {
          "duration": 0.13513499999999112,
          "durationTicks": 96,
          "midi": 66,
          "name": "F#4",
          "ticks": 98032,
          "time": 137.9953575,
          "velocity": 0.5275590551181102
        },
        {
          "duration": 0.0703828124999859,
          "durationTicks": 50,
          "midi": 54,
          "name": "F#3",
          "ticks": 98032,
          "time": 137.9953575,
          "velocity": 0.2755905511811024
        },
        {
          "duration": 0.07319812499997624,
          "durationTicks": 52,
          "midi": 78,
          "name": "F#5",
          "ticks": 98172,
          "time": 138.19242937500002,
          "velocity": 0.18110236220472442
        },
        {
          "duration": 0.05067562499999667,
          "durationTicks": 36,
          "midi": 57,
          "name": "A3",
          "ticks": 98172,
          "time": 138.19242937500002,
          "velocity": 0.2755905511811024
        },
        {
          "duration": 0.09009000000000356,
          "durationTicks": 64,
          "midi": 78,
          "name": "F#5",
          "ticks": 98288,
          "time": 138.3557175,
          "velocity": 0.18110236220472442
        },
        {
          "duration": 0.09009000000000356,
          "durationTicks": 64,
          "midi": 66,
          "name": "F#4",
          "ticks": 98288,
          "time": 138.3557175,
          "velocity": 0.4015748031496063
        },
        {
          "duration": 0.06756749999999556,
          "durationTicks": 48,
          "midi": 54,
          "name": "F#3",
          "ticks": 98288,
          "time": 138.3557175,
          "velocity": 0.2755905511811024
        },
        {
          "duration": 0.07601343750002343,
          "durationTicks": 54,
          "midi": 78,
          "name": "F#5",
          "ticks": 98424,
          "time": 138.54715875,
          "velocity": 0.18110236220472442
        },
        {
          "duration": 0.05912156250002454,
          "durationTicks": 42,
          "midi": 57,
          "name": "A3",
          "ticks": 98424,
          "time": 138.54715875,
          "velocity": 0.2755905511811024
        },
        {
          "duration": 0.08727468750001321,
          "durationTicks": 62,
          "midi": 78,
          "name": "F#5",
          "ticks": 98546,
          "time": 138.7188928125,
          "velocity": 0.18110236220472442
        },
        {
          "duration": 0.11261250000001155,
          "durationTicks": 80,
          "midi": 66,
          "name": "F#4",
          "ticks": 98546,
          "time": 138.7188928125,
          "velocity": 0.4330708661417323
        },
        {
          "duration": 0.06475218750000522,
          "durationTicks": 46,
          "midi": 54,
          "name": "F#3",
          "ticks": 98546,
          "time": 138.7188928125,
          "velocity": 0.2755905511811024
        },
        {
          "duration": 0.07882874999998535,
          "durationTicks": 56,
          "midi": 78,
          "name": "F#5",
          "ticks": 98680,
          "time": 138.90751875,
          "velocity": 0.18110236220472442
        },
        {
          "duration": 0.059121562499996116,
          "durationTicks": 42,
          "midi": 57,
          "name": "A3",
          "ticks": 98680,
          "time": 138.90751875,
          "velocity": 0.2755905511811024
        },
        {
          "duration": 0.0872746874999848,
          "durationTicks": 62,
          "midi": 78,
          "name": "F#5",
          "ticks": 98800,
          "time": 139.07643750000003,
          "velocity": 0.18110236220472442
        },
        {
          "duration": 0.10979718749999279,
          "durationTicks": 78,
          "midi": 66,
          "name": "F#4",
          "ticks": 98800,
          "time": 139.07643750000003,
          "velocity": 0.4645669291338583
        },
        {
          "duration": 0.06756749999999556,
          "durationTicks": 48,
          "midi": 54,
          "name": "F#3",
          "ticks": 98800,
          "time": 139.07643750000003,
          "velocity": 0.30708661417322836
        },
        {
          "duration": 0.07882875000001377,
          "durationTicks": 56,
          "midi": 78,
          "name": "F#5",
          "ticks": 98936,
          "time": 139.26787875,
          "velocity": 0.18110236220472442
        },
        {
          "duration": 0.056306250000005775,
          "durationTicks": 40,
          "midi": 57,
          "name": "A3",
          "ticks": 98936,
          "time": 139.26787875,
          "velocity": 0.30708661417322836
        },
        {
          "duration": 0.09009000000003198,
          "durationTicks": 64,
          "midi": 78,
          "name": "F#5",
          "ticks": 99056,
          "time": 139.43679749999998,
          "velocity": 0.18110236220472442
        },
        {
          "duration": 0.11261250000003997,
          "durationTicks": 80,
          "midi": 66,
          "name": "F#4",
          "ticks": 99056,
          "time": 139.43679749999998,
          "velocity": 0.49606299212598426
        },
        {
          "duration": 0.06756750000002398,
          "durationTicks": 48,
          "midi": 54,
          "name": "F#3",
          "ticks": 99056,
          "time": 139.43679749999998,
          "velocity": 0.30708661417322836
        },
        {
          "duration": 0.08164406250000411,
          "durationTicks": 58,
          "midi": 78,
          "name": "F#5",
          "ticks": 99192,
          "time": 139.62823875,
          "velocity": 0.18110236220472442
        },
        {
          "duration": 0.056306250000005775,
          "durationTicks": 40,
          "midi": 57,
          "name": "A3",
          "ticks": 99192,
          "time": 139.62823875,
          "velocity": 0.30708661417322836
        },
        {
          "duration": 0.07882875000004219,
          "durationTicks": 56,
          "midi": 78,
          "name": "F#5",
          "ticks": 99320,
          "time": 139.80841875,
          "velocity": 0.18110236220472442
        },
        {
          "duration": 0.12387375000002976,
          "durationTicks": 88,
          "midi": 66,
          "name": "F#4",
          "ticks": 99320,
          "time": 139.80841875,
          "velocity": 0.49606299212598426
        },
        {
          "duration": 0.053490937500015434,
          "durationTicks": 38,
          "midi": 54,
          "name": "F#3",
          "ticks": 99320,
          "time": 139.80841875,
          "velocity": 0.30708661417322836
        },
        {
          "duration": 0.08164406249997569,
          "durationTicks": 58,
          "midi": 78,
          "name": "F#5",
          "ticks": 99448,
          "time": 139.98859875000002,
          "velocity": 0.18110236220472442
        },
        {
          "duration": 0.056306249999977354,
          "durationTicks": 40,
          "midi": 57,
          "name": "A3",
          "ticks": 99448,
          "time": 139.98859875000002,
          "velocity": 0.30708661417322836
        },
        {
          "duration": 0.07882874999998535,
          "durationTicks": 56,
          "midi": 78,
          "name": "F#5",
          "ticks": 99574,
          "time": 140.1659634375,
          "velocity": 0.18110236220472442
        },
        {
          "duration": 0.12668906249999168,
          "durationTicks": 90,
          "midi": 66,
          "name": "F#4",
          "ticks": 99574,
          "time": 140.1659634375,
          "velocity": 0.5275590551181102
        },
        {
          "duration": 0.059121562499996116,
          "durationTicks": 42,
          "midi": 54,
          "name": "F#3",
          "ticks": 99574,
          "time": 140.1659634375,
          "velocity": 0.30708661417322836
        },
        {
          "duration": 0.09009000000000356,
          "durationTicks": 64,
          "midi": 78,
          "name": "F#5",
          "ticks": 99696,
          "time": 140.33769750000002,
          "velocity": 0.18110236220472442
        },
        {
          "duration": 0.0703828124999859,
          "durationTicks": 50,
          "midi": 57,
          "name": "A3",
          "ticks": 99696,
          "time": 140.33769750000002,
          "velocity": 0.30708661417322836
        },
        {
          "duration": 0.0703828124999859,
          "durationTicks": 50,
          "midi": 78,
          "name": "F#5",
          "ticks": 99838,
          "time": 140.53758468750001,
          "velocity": 0.18110236220472442
        },
        {
          "duration": 0.0703828124999859,
          "durationTicks": 50,
          "midi": 66,
          "name": "F#4",
          "ticks": 99838,
          "time": 140.53758468750001,
          "velocity": 0.4015748031496063
        },
        {
          "duration": 0.04504499999998757,
          "durationTicks": 32,
          "midi": 54,
          "name": "F#3",
          "ticks": 99838,
          "time": 140.53758468750001,
          "velocity": 0.30708661417322836
        },
        {
          "duration": 0.08727468750001321,
          "durationTicks": 62,
          "midi": 78,
          "name": "F#5",
          "ticks": 99954,
          "time": 140.7008728125,
          "velocity": 0.18110236220472442
        },
        {
          "duration": 0.06475218750003364,
          "durationTicks": 46,
          "midi": 57,
          "name": "A3",
          "ticks": 99954,
          "time": 140.7008728125,
          "velocity": 0.30708661417322836
        },
        {
          "duration": 0.07319812500000467,
          "durationTicks": 52,
          "midi": 78,
          "name": "F#5",
          "ticks": 100092,
          "time": 140.895129375,
          "velocity": 0.18110236220472442
        },
        {
          "duration": 0.0929053124999939,
          "durationTicks": 66,
          "midi": 66,
          "name": "F#4",
          "ticks": 100092,
          "time": 140.895129375,
          "velocity": 0.4330708661417323
        },
        {
          "duration": 0.05067562499999667,
          "durationTicks": 36,
          "midi": 54,
          "name": "F#3",
          "ticks": 100092,
          "time": 140.895129375,
          "velocity": 0.30708661417322836
        },
        {
          "duration": 0.0872746874999848,
          "durationTicks": 62,
          "midi": 78,
          "name": "F#5",
          "ticks": 100210,
          "time": 141.0612328125,
          "velocity": 0.18110236220472442
        },
        {
          "duration": 0.0647521874999768,
          "durationTicks": 46,
          "midi": 57,
          "name": "A3",
          "ticks": 100210,
          "time": 141.0612328125,
          "velocity": 0.30708661417322836
        },
        {
          "duration": 0.0929053124999939,
          "durationTicks": 66,
          "midi": 78,
          "name": "F#5",
          "ticks": 100336,
          "time": 141.23859750000003,
          "velocity": 0.18110236220472442
        },
        {
          "duration": 0.11542781249997347,
          "durationTicks": 82,
          "midi": 66,
          "name": "F#4",
          "ticks": 100336,
          "time": 141.23859750000003,
          "velocity": 0.4645669291338583
        },
        {
          "duration": 0.06756749999999556,
          "durationTicks": 48,
          "midi": 54,
          "name": "F#3",
          "ticks": 100336,
          "time": 141.23859750000003,
          "velocity": 0.30708661417322836
        },
        {
          "duration": 0.07882875000001377,
          "durationTicks": 56,
          "midi": 78,
          "name": "F#5",
          "ticks": 100472,
          "time": 141.43003875,
          "velocity": 0.18110236220472442
        },
        {
          "duration": 0.056306250000005775,
          "durationTicks": 40,
          "midi": 57,
          "name": "A3",
          "ticks": 100472,
          "time": 141.43003875,
          "velocity": 0.33858267716535434
        },
        {
          "duration": 0.07038281250004275,
          "durationTicks": 50,
          "midi": 78,
          "name": "F#5",
          "ticks": 100604,
          "time": 141.61584937499998,
          "velocity": 0.18110236220472442
        },
        {
          "duration": 0.09572062500004108,
          "durationTicks": 68,
          "midi": 66,
          "name": "F#4",
          "ticks": 100604,
          "time": 141.61584937499998,
          "velocity": 0.49606299212598426
        },
        {
          "duration": 0.05067562500002509,
          "durationTicks": 36,
          "midi": 54,
          "name": "F#3",
          "ticks": 100604,
          "time": 141.61584937499998,
          "velocity": 0.33858267716535434
        },
        {
          "duration": 0.07882874999998535,
          "durationTicks": 56,
          "midi": 78,
          "name": "F#5",
          "ticks": 100728,
          "time": 141.79039875,
          "velocity": 0.18110236220472442
        },
        {
          "duration": 0.056306250000005775,
          "durationTicks": 40,
          "midi": 57,
          "name": "A3",
          "ticks": 100728,
          "time": 141.79039875,
          "velocity": 0.33858267716535434
        },
        {
          "duration": 0.09009000000003198,
          "durationTicks": 64,
          "midi": 78,
          "name": "F#5",
          "ticks": 100848,
          "time": 141.9593175,
          "velocity": 0.18110236220472442
        },
        {
          "duration": 0.13513500000001955,
          "durationTicks": 96,
          "midi": 66,
          "name": "F#4",
          "ticks": 100848,
          "time": 141.9593175,
          "velocity": 0.49606299212598426
        },
        {
          "duration": 0.06756749999999556,
          "durationTicks": 48,
          "midi": 54,
          "name": "F#3",
          "ticks": 100848,
          "time": 141.9593175,
          "velocity": 0.33858267716535434
        },
        {
          "duration": 0.07882874999998535,
          "durationTicks": 56,
          "midi": 78,
          "name": "F#5",
          "ticks": 100984,
          "time": 142.15075875000002,
          "velocity": 0.18110236220472442
        },
        {
          "duration": 0.056306249999977354,
          "durationTicks": 40,
          "midi": 57,
          "name": "A3",
          "ticks": 100984,
          "time": 142.15075875000002,
          "velocity": 0.33858267716535434
        },
        {
          "duration": 0.08445937499999445,
          "durationTicks": 60,
          "midi": 78,
          "name": "F#5",
          "ticks": 101112,
          "time": 142.33093875,
          "velocity": 0.18110236220472442
        },
        {
          "duration": 0.12387375000000134,
          "durationTicks": 88,
          "midi": 66,
          "name": "F#4",
          "ticks": 101112,
          "time": 142.33093875,
          "velocity": 0.5275590551181102
        },
        {
          "duration": 0.059121562499996116,
          "durationTicks": 42,
          "midi": 54,
          "name": "F#3",
          "ticks": 101112,
          "time": 142.33093875,
          "velocity": 0.33858267716535434
        },
        {
          "duration": 0.07319812500000467,
          "durationTicks": 52,
          "midi": 78,
          "name": "F#5",
          "ticks": 101244,
          "time": 142.51674937500002,
          "velocity": 0.18110236220472442
        },
        {
          "duration": 0.05349093749998701,
          "durationTicks": 38,
          "midi": 57,
          "name": "A3",
          "ticks": 101244,
          "time": 142.51674937500002,
          "velocity": 0.33858267716535434
        },
        {
          "duration": 0.07882874999998535,
          "durationTicks": 56,
          "midi": 78,
          "name": "F#5",
          "ticks": 101370,
          "time": 142.6941140625,
          "velocity": 0.18110236220472442
        },
        {
          "duration": 0.07882874999998535,
          "durationTicks": 56,
          "midi": 66,
          "name": "F#4",
          "ticks": 101370,
          "time": 142.6941140625,
          "velocity": 0.4015748031496063
        },
        {
          "duration": 0.05349093749998701,
          "durationTicks": 38,
          "midi": 54,
          "name": "F#3",
          "ticks": 101370,
          "time": 142.6941140625,
          "velocity": 0.33858267716535434
        },
        {
          "duration": 0.08164406250000411,
          "durationTicks": 58,
          "midi": 78,
          "name": "F#5",
          "ticks": 101494,
          "time": 142.8686634375,
          "velocity": 0.18110236220472442
        },
        {
          "duration": 0.06193687500001488,
          "durationTicks": 44,
          "midi": 57,
          "name": "A3",
          "ticks": 101494,
          "time": 142.8686634375,
          "velocity": 0.33858267716535434
        },
        {
          "duration": 0.07882874999998535,
          "durationTicks": 56,
          "midi": 78,
          "name": "F#5",
          "ticks": 101626,
          "time": 143.05447406250002,
          "velocity": 0.18110236220472442
        },
        {
          "duration": 0.09853593749997458,
          "durationTicks": 70,
          "midi": 66,
          "name": "F#4",
          "ticks": 101626,
          "time": 143.05447406250002,
          "velocity": 0.4330708661417323
        },
        {
          "duration": 0.05067562499999667,
          "durationTicks": 36,
          "midi": 54,
          "name": "F#3",
          "ticks": 101626,
          "time": 143.05447406250002,
          "velocity": 0.33858267716535434
        },
        {
          "duration": 0.076013437499995,
          "durationTicks": 54,
          "midi": 78,
          "name": "F#5",
          "ticks": 101752,
          "time": 143.23183875,
          "velocity": 0.18110236220472442
        },
        {
          "duration": 0.05349093749998701,
          "durationTicks": 38,
          "midi": 57,
          "name": "A3",
          "ticks": 101752,
          "time": 143.23183875,
          "velocity": 0.33858267716535434
        },
        {
          "duration": 0.07882875000001377,
          "durationTicks": 56,
          "midi": 78,
          "name": "F#5",
          "ticks": 101882,
          "time": 143.4148340625,
          "velocity": 0.18110236220472442
        },
        {
          "duration": 0.1041665625000121,
          "durationTicks": 74,
          "midi": 66,
          "name": "F#4",
          "ticks": 101882,
          "time": 143.4148340625,
          "velocity": 0.4645669291338583
        },
        {
          "duration": 0.059121562499996116,
          "durationTicks": 42,
          "midi": 54,
          "name": "F#3",
          "ticks": 101882,
          "time": 143.4148340625,
          "velocity": 0.33858267716535434
        },
        {
          "duration": 0.076013437499995,
          "durationTicks": 54,
          "midi": 78,
          "name": "F#5",
          "ticks": 102010,
          "time": 143.5950140625,
          "velocity": 0.18110236220472442
        },
        {
          "duration": 0.056306249999977354,
          "durationTicks": 40,
          "midi": 57,
          "name": "A3",
          "ticks": 102010,
          "time": 143.5950140625,
          "velocity": 0.33858267716535434
        },
        {
          "duration": 0.07601343750002343,
          "durationTicks": 54,
          "midi": 78,
          "name": "F#5",
          "ticks": 102140,
          "time": 143.77800937499998,
          "velocity": 0.18110236220472442
        },
        {
          "duration": 0.09290531250002232,
          "durationTicks": 66,
          "midi": 66,
          "name": "F#4",
          "ticks": 102140,
          "time": 143.77800937499998,
          "velocity": 0.49606299212598426
        },
        {
          "duration": 0.04786031250003475,
          "durationTicks": 34,
          "midi": 54,
          "name": "F#3",
          "ticks": 102140,
          "time": 143.77800937499998,
          "velocity": 0.33858267716535434
        },
        {
          "duration": 0.0872746874999848,
          "durationTicks": 62,
          "midi": 78,
          "name": "F#5",
          "ticks": 102262,
          "time": 143.94974343750002,
          "velocity": 0.18110236220472442
        },
        {
          "duration": 0.06193687499998646,
          "durationTicks": 44,
          "midi": 57,
          "name": "A3",
          "ticks": 102262,
          "time": 143.94974343750002,
          "velocity": 0.3700787401574803
        },
        {
          "duration": 0.07882875000004219,
          "durationTicks": 56,
          "midi": 78,
          "name": "F#5",
          "ticks": 102392,
          "time": 144.13273875,
          "velocity": 0.18110236220472442
        },
        {
          "duration": 0.12387375000002976,
          "durationTicks": 88,
          "midi": 66,
          "name": "F#4",
          "ticks": 102392,
          "time": 144.13273875,
          "velocity": 0.49606299212598426
        },
        {
          "duration": 0.056306250000005775,
          "durationTicks": 40,
          "midi": 54,
          "name": "F#3",
          "ticks": 102392,
          "time": 144.13273875,
          "velocity": 0.3700787401574803
        },
        {
          "duration": 0.076013437499995,
          "durationTicks": 54,
          "midi": 78,
          "name": "F#5",
          "ticks": 102520,
          "time": 144.31291875000002,
          "velocity": 0.18110236220472442
        },
        {
          "duration": 0.059121562499996116,
          "durationTicks": 42,
          "midi": 57,
          "name": "A3",
          "ticks": 102520,
          "time": 144.31291875000002,
          "velocity": 0.3700787401574803
        },
        {
          "duration": 0.08445937499999445,
          "durationTicks": 60,
          "midi": 78,
          "name": "F#5",
          "ticks": 102646,
          "time": 144.4902834375,
          "velocity": 0.18110236220472442
        },
        {
          "duration": 0.12950437499998202,
          "durationTicks": 92,
          "midi": 66,
          "name": "F#4",
          "ticks": 102646,
          "time": 144.4902834375,
          "velocity": 0.5275590551181102
        },
        {
          "duration": 0.06193687499998646,
          "durationTicks": 44,
          "midi": 54,
          "name": "F#3",
          "ticks": 102646,
          "time": 144.4902834375,
          "velocity": 0.3700787401574803
        },
        {
          "duration": 0.09009000000000356,
          "durationTicks": 64,
          "midi": 78,
          "name": "F#5",
          "ticks": 102770,
          "time": 144.6648328125,
          "velocity": 0.18110236220472442
        },
        {
          "duration": 0.06475218750000522,
          "durationTicks": 46,
          "midi": 57,
          "name": "A3",
          "ticks": 102770,
          "time": 144.6648328125,
          "velocity": 0.3700787401574803
        },
        {
          "duration": 0.09008999999997513,
          "durationTicks": 64,
          "midi": 78,
          "name": "F#5",
          "ticks": 102898,
          "time": 144.84501281250002,
          "velocity": 0.18110236220472442
        },
        {
          "duration": 0.09008999999997513,
          "durationTicks": 64,
          "midi": 66,
          "name": "F#4",
          "ticks": 102898,
          "time": 144.84501281250002,
          "velocity": 0.4015748031496063
        },
        {
          "duration": 0.0647521874999768,
          "durationTicks": 46,
          "midi": 54,
          "name": "F#3",
          "ticks": 102898,
          "time": 144.84501281250002,
          "velocity": 0.3700787401574803
        },
        {
          "duration": 0.09009000000003198,
          "durationTicks": 64,
          "midi": 78,
          "name": "F#5",
          "ticks": 103026,
          "time": 145.0251928125,
          "velocity": 0.18110236220472442
        },
        {
          "duration": 0.06756750000002398,
          "durationTicks": 48,
          "midi": 57,
          "name": "A3",
          "ticks": 103026,
          "time": 145.0251928125,
          "velocity": 0.3700787401574803
        },
        {
          "duration": 0.07882874999998535,
          "durationTicks": 56,
          "midi": 78,
          "name": "F#5",
          "ticks": 103162,
          "time": 145.21663406250002,
          "velocity": 0.18110236220472442
        },
        {
          "duration": 0.09572062499998424,
          "durationTicks": 68,
          "midi": 66,
          "name": "F#4",
          "ticks": 103162,
          "time": 145.21663406250002,
          "velocity": 0.4330708661417323
        },
        {
          "duration": 0.056306249999977354,
          "durationTicks": 40,
          "midi": 54,
          "name": "F#3",
          "ticks": 103162,
          "time": 145.21663406250002,
          "velocity": 0.3700787401574803
        },
        {
          "duration": 0.0872746874999848,
          "durationTicks": 62,
          "midi": 78,
          "name": "F#5",
          "ticks": 103282,
          "time": 145.3855528125,
          "velocity": 0.18110236220472442
        },
        {
          "duration": 0.0647521874999768,
          "durationTicks": 46,
          "midi": 57,
          "name": "A3",
          "ticks": 103282,
          "time": 145.3855528125,
          "velocity": 0.3700787401574803
        },
        {
          "duration": 0.08164406249997569,
          "durationTicks": 58,
          "midi": 78,
          "name": "F#5",
          "ticks": 103414,
          "time": 145.57136343750003,
          "velocity": 0.18110236220472442
        },
        {
          "duration": 0.10416656249998368,
          "durationTicks": 74,
          "midi": 66,
          "name": "F#4",
          "ticks": 103414,
          "time": 145.57136343750003,
          "velocity": 0.4645669291338583
        },
        {
          "duration": 0.059121562499996116,
          "durationTicks": 42,
          "midi": 54,
          "name": "F#3",
          "ticks": 103414,
          "time": 145.57136343750003,
          "velocity": 0.3700787401574803
        },
        {
          "duration": 0.07882874999998535,
          "durationTicks": 56,
          "midi": 78,
          "name": "F#5",
          "ticks": 103546,
          "time": 145.7571740625,
          "velocity": 0.18110236220472442
        },
        {
          "duration": 0.056306249999977354,
          "durationTicks": 40,
          "midi": 57,
          "name": "A3",
          "ticks": 103546,
          "time": 145.7571740625,
          "velocity": 0.3700787401574803
        },
        {
          "duration": 0.09009000000000356,
          "durationTicks": 64,
          "midi": 78,
          "name": "F#5",
          "ticks": 103666,
          "time": 145.9260928125,
          "velocity": 0.18110236220472442
        },
        {
          "duration": 0.10698187500000245,
          "durationTicks": 76,
          "midi": 66,
          "name": "F#4",
          "ticks": 103666,
          "time": 145.9260928125,
          "velocity": 0.49606299212598426
        },
        {
          "duration": 0.06475218750000522,
          "durationTicks": 46,
          "midi": 54,
          "name": "F#3",
          "ticks": 103666,
          "time": 145.9260928125,
          "velocity": 0.3700787401574803
        },
        {
          "duration": 0.0872746874999848,
          "durationTicks": 62,
          "midi": 78,
          "name": "F#5",
          "ticks": 103792,
          "time": 146.10345750000002,
          "velocity": 0.18110236220472442
        },
        {
          "duration": 0.06756749999999556,
          "durationTicks": 48,
          "midi": 57,
          "name": "A3",
          "ticks": 103792,
          "time": 146.10345750000002,
          "velocity": 0.3700787401574803
        },
        {
          "duration": 0.076013437499995,
          "durationTicks": 54,
          "midi": 78,
          "name": "F#5",
          "ticks": 103932,
          "time": 146.300529375,
          "velocity": 0.18110236220472442
        },
        {
          "duration": 0.121058437500011,
          "durationTicks": 86,
          "midi": 66,
          "name": "F#4",
          "ticks": 103932,
          "time": 146.300529375,
          "velocity": 0.49606299212598426
        },
        {
          "duration": 0.04786031250000633,
          "durationTicks": 34,
          "midi": 54,
          "name": "F#3",
          "ticks": 103932,
          "time": 146.300529375,
          "velocity": 0.4015748031496063
        },
        {
          "duration": 0.07038281250001432,
          "durationTicks": 50,
          "midi": 78,
          "name": "F#5",
          "ticks": 104060,
          "time": 146.480709375,
          "velocity": 0.18110236220472442
        },
        {
          "duration": 0.053490937500015434,
          "durationTicks": 38,
          "midi": 57,
          "name": "A3",
          "ticks": 104060,
          "time": 146.480709375,
          "velocity": 0.4015748031496063
        },
        {
          "duration": 0.08445937499999445,
          "durationTicks": 60,
          "midi": 78,
          "name": "F#5",
          "ticks": 104182,
          "time": 146.6524434375,
          "velocity": 0.18110236220472442
        },
        {
          "duration": 0.12950437499998202,
          "durationTicks": 92,
          "midi": 66,
          "name": "F#4",
          "ticks": 104182,
          "time": 146.6524434375,
          "velocity": 0.5275590551181102
        },
        {
          "duration": 0.059121562499996116,
          "durationTicks": 42,
          "midi": 54,
          "name": "F#3",
          "ticks": 104182,
          "time": 146.6524434375,
          "velocity": 0.4015748031496063
        },
        {
          "duration": 0.07319812500000467,
          "durationTicks": 52,
          "midi": 78,
          "name": "F#5",
          "ticks": 104316,
          "time": 146.84106937500002,
          "velocity": 0.18110236220472442
        },
        {
          "duration": 0.05067562499999667,
          "durationTicks": 36,
          "midi": 57,
          "name": "A3",
          "ticks": 104316,
          "time": 146.84106937500002,
          "velocity": 0.4015748031496063
        },
        {
          "duration": 0.0703828124999859,
          "durationTicks": 50,
          "midi": 78,
          "name": "F#5",
          "ticks": 104446,
          "time": 147.02406468750002,
          "velocity": 0.18110236220472442
        },
        {
          "duration": 0.0703828124999859,
          "durationTicks": 50,
          "midi": 66,
          "name": "F#4",
          "ticks": 104446,
          "time": 147.02406468750002,
          "velocity": 0.4015748031496063
        },
        {
          "duration": 0.04786031249997791,
          "durationTicks": 34,
          "midi": 54,
          "name": "F#3",
          "ticks": 104446,
          "time": 147.02406468750002,
          "velocity": 0.4015748031496063
        },
        {
          "duration": 0.09009000000000356,
          "durationTicks": 64,
          "midi": 78,
          "name": "F#5",
          "ticks": 104560,
          "time": 147.1845375,
          "velocity": 0.18110236220472442
        },
        {
          "duration": 0.07038281250001432,
          "durationTicks": 50,
          "midi": 57,
          "name": "A3",
          "ticks": 104560,
          "time": 147.1845375,
          "velocity": 0.4015748031496063
        },
        {
          "duration": 0.07319812500000467,
          "durationTicks": 52,
          "midi": 78,
          "name": "F#5",
          "ticks": 104700,
          "time": 147.381609375,
          "velocity": 0.18110236220472442
        },
        {
          "duration": 0.09572062499998424,
          "durationTicks": 68,
          "midi": 66,
          "name": "F#4",
          "ticks": 104700,
          "time": 147.381609375,
          "velocity": 0.4330708661417323
        },
        {
          "duration": 0.05349093749998701,
          "durationTicks": 38,
          "midi": 54,
          "name": "F#3",
          "ticks": 104700,
          "time": 147.381609375,
          "velocity": 0.4015748031496063
        },
        {
          "duration": 0.07882874999998535,
          "durationTicks": 56,
          "midi": 78,
          "name": "F#5",
          "ticks": 104824,
          "time": 147.55615875,
          "velocity": 0.18110236220472442
        },
        {
          "duration": 0.059121562499996116,
          "durationTicks": 42,
          "midi": 57,
          "name": "A3",
          "ticks": 104824,
          "time": 147.55615875,
          "velocity": 0.4015748031496063
        },
        {
          "duration": 0.07882874999998535,
          "durationTicks": 56,
          "midi": 78,
          "name": "F#5",
          "ticks": 104952,
          "time": 147.73633875000002,
          "velocity": 0.18110236220472442
        },
        {
          "duration": 0.10416656249998368,
          "durationTicks": 74,
          "midi": 66,
          "name": "F#4",
          "ticks": 104952,
          "time": 147.73633875000002,
          "velocity": 0.4645669291338583
        },
        {
          "duration": 0.056306250000005775,
          "durationTicks": 40,
          "midi": 54,
          "name": "F#3",
          "ticks": 104952,
          "time": 147.73633875000002,
          "velocity": 0.4015748031496063
        },
        {
          "duration": 0.076013437499995,
          "durationTicks": 54,
          "midi": 78,
          "name": "F#5",
          "ticks": 105082,
          "time": 147.9193340625,
          "velocity": 0.18110236220472442
        },
        {
          "duration": 0.056306249999977354,
          "durationTicks": 40,
          "midi": 57,
          "name": "A3",
          "ticks": 105082,
          "time": 147.9193340625,
          "velocity": 0.4015748031496063
        },
        {
          "duration": 0.07882875000001377,
          "durationTicks": 56,
          "midi": 78,
          "name": "F#5",
          "ticks": 105210,
          "time": 148.0995140625,
          "velocity": 0.18110236220472442
        },
        {
          "duration": 0.09853593750003142,
          "durationTicks": 70,
          "midi": 66,
          "name": "F#4",
          "ticks": 105210,
          "time": 148.0995140625,
          "velocity": 0.49606299212598426
        },
        {
          "duration": 0.0563062500000342,
          "durationTicks": 40,
          "midi": 54,
          "name": "F#3",
          "ticks": 105210,
          "time": 148.0995140625,
          "velocity": 0.4015748031496063
        },
        {
          "duration": 0.09008999999997513,
          "durationTicks": 64,
          "midi": 78,
          "name": "F#5",
          "ticks": 105328,
          "time": 148.26561750000002,
          "velocity": 0.18110236220472442
        },
        {
          "duration": 0.0703828124999859,
          "durationTicks": 50,
          "midi": 57,
          "name": "A3",
          "ticks": 105328,
          "time": 148.26561750000002,
          "velocity": 0.4015748031496063
        },
        {
          "duration": 0.08727468750004164,
          "durationTicks": 62,
          "midi": 78,
          "name": "F#5",
          "ticks": 105458,
          "time": 148.4486128125,
          "velocity": 0.18110236220472442
        },
        {
          "duration": 0.13513500000001955,
          "durationTicks": 96,
          "midi": 66,
          "name": "F#4",
          "ticks": 105458,
          "time": 148.4486128125,
          "velocity": 0.49606299212598426
        },
        {
          "duration": 0.06475218750000522,
          "durationTicks": 46,
          "midi": 54,
          "name": "F#3",
          "ticks": 105458,
          "time": 148.4486128125,
          "velocity": 0.4015748031496063
        },
        {
          "duration": 0.076013437499995,
          "durationTicks": 54,
          "midi": 78,
          "name": "F#5",
          "ticks": 105594,
          "time": 148.6400540625,
          "velocity": 0.18110236220472442
        },
        {
          "duration": 0.05349093749998701,
          "durationTicks": 38,
          "midi": 57,
          "name": "A3",
          "ticks": 105594,
          "time": 148.6400540625,
          "velocity": 0.4015748031496063
        },
        {
          "duration": 0.08164406249997569,
          "durationTicks": 58,
          "midi": 78,
          "name": "F#5",
          "ticks": 105718,
          "time": 148.8146034375,
          "velocity": 0.18110236220472442
        },
        {
          "duration": 0.12668906249999168,
          "durationTicks": 90,
          "midi": 66,
          "name": "F#4",
          "ticks": 105718,
          "time": 148.8146034375,
          "velocity": 0.5275590551181102
        },
        {
          "duration": 0.06193687499998646,
          "durationTicks": 44,
          "midi": 54,
          "name": "F#3",
          "ticks": 105718,
          "time": 148.8146034375,
          "velocity": 0.4330708661417323
        },
        {
          "duration": 0.07319812500000467,
          "durationTicks": 52,
          "midi": 78,
          "name": "F#5",
          "ticks": 105852,
          "time": 149.00322937500002,
          "velocity": 0.18110236220472442
        },
        {
          "duration": 0.05067562499999667,
          "durationTicks": 36,
          "midi": 57,
          "name": "A3",
          "ticks": 105852,
          "time": 149.00322937500002,
          "velocity": 0.4330708661417323
        },
        {
          "duration": 0.07319812499997624,
          "durationTicks": 52,
          "midi": 78,
          "name": "F#5",
          "ticks": 105982,
          "time": 149.18622468750002,
          "velocity": 0.18110236220472442
        },
        {
          "duration": 0.07319812499997624,
          "durationTicks": 52,
          "midi": 66,
          "name": "F#4",
          "ticks": 105982,
          "time": 149.18622468750002,
          "velocity": 0.4015748031496063
        },
        {
          "duration": 0.04504499999998757,
          "durationTicks": 32,
          "midi": 54,
          "name": "F#3",
          "ticks": 105982,
          "time": 149.18622468750002,
          "velocity": 0.4330708661417323
        },
        {
          "duration": 0.07882875000001377,
          "durationTicks": 56,
          "midi": 78,
          "name": "F#5",
          "ticks": 106104,
          "time": 149.35795875,
          "velocity": 0.18110236220472442
        },
        {
          "duration": 0.05912156250002454,
          "durationTicks": 42,
          "midi": 57,
          "name": "A3",
          "ticks": 106104,
          "time": 149.35795875,
          "velocity": 0.4330708661417323
        },
        {
          "duration": 0.07882875000001377,
          "durationTicks": 56,
          "midi": 78,
          "name": "F#5",
          "ticks": 106232,
          "time": 149.53813875,
          "velocity": 0.18110236220472442
        },
        {
          "duration": 0.10135124999999334,
          "durationTicks": 72,
          "midi": 66,
          "name": "F#4",
          "ticks": 106232,
          "time": 149.53813875,
          "velocity": 0.4330708661417323
        },
        {
          "duration": 0.056306250000005775,
          "durationTicks": 40,
          "midi": 54,
          "name": "F#3",
          "ticks": 106232,
          "time": 149.53813875,
          "velocity": 0.4330708661417323
        },
        {
          "duration": 0.076013437499995,
          "durationTicks": 54,
          "midi": 78,
          "name": "F#5",
          "ticks": 106362,
          "time": 149.7211340625,
          "velocity": 0.18110236220472442
        },
        {
          "duration": 0.05349093749998701,
          "durationTicks": 38,
          "midi": 57,
          "name": "A3",
          "ticks": 106362,
          "time": 149.7211340625,
          "velocity": 0.4330708661417323
        },
        {
          "duration": 0.09008999999997513,
          "durationTicks": 64,
          "midi": 78,
          "name": "F#5",
          "ticks": 106480,
          "time": 149.88723750000003,
          "velocity": 0.18110236220472442
        },
        {
          "duration": 0.11261249999998313,
          "durationTicks": 80,
          "midi": 66,
          "name": "F#4",
          "ticks": 106480,
          "time": 149.88723750000003,
          "velocity": 0.4645669291338583
        },
        {
          "duration": 0.0647521874999768,
          "durationTicks": 46,
          "midi": 54,
          "name": "F#3",
          "ticks": 106480,
          "time": 149.88723750000003,
          "velocity": 0.4330708661417323
        },
        {
          "duration": 0.07319812500000467,
          "durationTicks": 52,
          "midi": 78,
          "name": "F#5",
          "ticks": 106620,
          "time": 150.084309375,
          "velocity": 0.18110236220472442
        },
        {
          "duration": 0.04786031250000633,
          "durationTicks": 34,
          "midi": 57,
          "name": "A3",
          "ticks": 106620,
          "time": 150.084309375,
          "velocity": 0.4330708661417323
        },
        {
          "duration": 0.07882875000001377,
          "durationTicks": 56,
          "midi": 78,
          "name": "F#5",
          "ticks": 106746,
          "time": 150.2616740625,
          "velocity": 0.18110236220472442
        },
        {
          "duration": 0.10135125000002176,
          "durationTicks": 72,
          "midi": 66,
          "name": "F#4",
          "ticks": 106746,
          "time": 150.2616740625,
          "velocity": 0.49606299212598426
        },
        {
          "duration": 0.05067562500002509,
          "durationTicks": 36,
          "midi": 54,
          "name": "F#3",
          "ticks": 106746,
          "time": 150.2616740625,
          "velocity": 0.4330708661417323
        },
        {
          "duration": 0.07882874999998535,
          "durationTicks": 56,
          "midi": 78,
          "name": "F#5",
          "ticks": 106872,
          "time": 150.43903875,
          "velocity": 0.18110236220472442
        },
        {
          "duration": 0.059121562499996116,
          "durationTicks": 42,
          "midi": 57,
          "name": "A3",
          "ticks": 106872,
          "time": 150.43903875,
          "velocity": 0.4330708661417323
        },
        {
          "duration": 0.08164406250000411,
          "durationTicks": 58,
          "midi": 78,
          "name": "F#5",
          "ticks": 107000,
          "time": 150.61921875,
          "velocity": 0.18110236220472442
        },
        {
          "duration": 0.12387375000002976,
          "durationTicks": 88,
          "midi": 66,
          "name": "F#4",
          "ticks": 107000,
          "time": 150.61921875,
          "velocity": 0.49606299212598426
        },
        {
          "duration": 0.056306250000005775,
          "durationTicks": 40,
          "midi": 54,
          "name": "F#3",
          "ticks": 107000,
          "time": 150.61921875,
          "velocity": 0.4330708661417323
        },
        {
          "duration": 0.076013437499995,
          "durationTicks": 54,
          "midi": 78,
          "name": "F#5",
          "ticks": 107130,
          "time": 150.8022140625,
          "velocity": 0.18110236220472442
        },
        {
          "duration": 0.05349093749998701,
          "durationTicks": 38,
          "midi": 57,
          "name": "A3",
          "ticks": 107130,
          "time": 150.8022140625,
          "velocity": 0.4330708661417323
        },
        {
          "duration": 0.08164406250000411,
          "durationTicks": 58,
          "midi": 78,
          "name": "F#5",
          "ticks": 107256,
          "time": 150.97957875,
          "velocity": 0.18110236220472442
        },
        {
          "duration": 0.12387375000000134,
          "durationTicks": 88,
          "midi": 66,
          "name": "F#4",
          "ticks": 107256,
          "time": 150.97957875,
          "velocity": 0.5275590551181102
        },
        {
          "duration": 0.059121562499996116,
          "durationTicks": 42,
          "midi": 54,
          "name": "F#3",
          "ticks": 107256,
          "time": 150.97957875,
          "velocity": 0.4330708661417323
        },
        {
          "duration": 0.08445937499999445,
          "durationTicks": 60,
          "midi": 78,
          "name": "F#5",
          "ticks": 107378,
          "time": 151.1513128125,
          "velocity": 0.18110236220472442
        },
        {
          "duration": 0.06193687500001488,
          "durationTicks": 44,
          "midi": 57,
          "name": "A3",
          "ticks": 107378,
          "time": 151.1513128125,
          "velocity": 0.4645669291338583
        },
        {
          "duration": 0.076013437499995,
          "durationTicks": 54,
          "midi": 78,
          "name": "F#5",
          "ticks": 107518,
          "time": 151.34838468750002,
          "velocity": 0.18110236220472442
        },
        {
          "duration": 0.076013437499995,
          "durationTicks": 54,
          "midi": 66,
          "name": "F#4",
          "ticks": 107518,
          "time": 151.34838468750002,
          "velocity": 0.4015748031496063
        },
        {
          "duration": 0.04786031249997791,
          "durationTicks": 34,
          "midi": 54,
          "name": "F#3",
          "ticks": 107518,
          "time": 151.34838468750002,
          "velocity": 0.4645669291338583
        },
        {
          "duration": 0.07882875000001377,
          "durationTicks": 56,
          "midi": 78,
          "name": "F#5",
          "ticks": 107638,
          "time": 151.5173034375,
          "velocity": 0.18110236220472442
        },
        {
          "duration": 0.05912156250002454,
          "durationTicks": 42,
          "midi": 57,
          "name": "A3",
          "ticks": 107638,
          "time": 151.5173034375,
          "velocity": 0.4645669291338583
        },
        {
          "duration": 0.076013437499995,
          "durationTicks": 54,
          "midi": 78,
          "name": "F#5",
          "ticks": 107770,
          "time": 151.70311406250002,
          "velocity": 0.18110236220472442
        },
        {
          "duration": 0.09572062499998424,
          "durationTicks": 68,
          "midi": 66,
          "name": "F#4",
          "ticks": 107770,
          "time": 151.70311406250002,
          "velocity": 0.4330708661417323
        },
        {
          "duration": 0.05349093749998701,
          "durationTicks": 38,
          "midi": 54,
          "name": "F#3",
          "ticks": 107770,
          "time": 151.70311406250002,
          "velocity": 0.4645669291338583
        },
        {
          "duration": 0.07882874999998535,
          "durationTicks": 56,
          "midi": 78,
          "name": "F#5",
          "ticks": 107896,
          "time": 151.88047875,
          "velocity": 0.18110236220472442
        },
        {
          "duration": 0.056306249999977354,
          "durationTicks": 40,
          "midi": 57,
          "name": "A3",
          "ticks": 107896,
          "time": 151.88047875,
          "velocity": 0.4645669291338583
        },
        {
          "duration": 0.07882875000001377,
          "durationTicks": 56,
          "midi": 78,
          "name": "F#5",
          "ticks": 108026,
          "time": 152.0634740625,
          "velocity": 0.18110236220472442
        },
        {
          "duration": 0.098535937500003,
          "durationTicks": 70,
          "midi": 66,
          "name": "F#4",
          "ticks": 108026,
          "time": 152.0634740625,
          "velocity": 0.4645669291338583
        },
        {
          "duration": 0.056306250000005775,
          "durationTicks": 40,
          "midi": 54,
          "name": "F#3",
          "ticks": 108026,
          "time": 152.0634740625,
          "velocity": 0.4645669291338583
        },
        {
          "duration": 0.07319812499997624,
          "durationTicks": 52,
          "midi": 78,
          "name": "F#5",
          "ticks": 108154,
          "time": 152.2436540625,
          "velocity": 0.18110236220472442
        },
        {
          "duration": 0.056306249999977354,
          "durationTicks": 40,
          "midi": 57,
          "name": "A3",
          "ticks": 108154,
          "time": 152.2436540625,
          "velocity": 0.4645669291338583
        },
        {
          "duration": 0.07319812500003309,
          "durationTicks": 52,
          "midi": 78,
          "name": "F#5",
          "ticks": 108284,
          "time": 152.42664937499998,
          "velocity": 0.18110236220472442
        },
        {
          "duration": 0.09572062500004108,
          "durationTicks": 68,
          "midi": 66,
          "name": "F#4",
          "ticks": 108284,
          "time": 152.42664937499998,
          "velocity": 0.49606299212598426
        },
        {
          "duration": 0.05067562500002509,
          "durationTicks": 36,
          "midi": 54,
          "name": "F#3",
          "ticks": 108284,
          "time": 152.42664937499998,
          "velocity": 0.4645669291338583
        },
        {
          "duration": 0.08164406250000411,
          "durationTicks": 58,
          "midi": 78,
          "name": "F#5",
          "ticks": 108408,
          "time": 152.60119875,
          "velocity": 0.18110236220472442
        },
        {
          "duration": 0.056306250000005775,
          "durationTicks": 40,
          "midi": 57,
          "name": "A3",
          "ticks": 108408,
          "time": 152.60119875,
          "velocity": 0.4645669291338583
        },
        {
          "duration": 0.07319812500003309,
          "durationTicks": 52,
          "midi": 78,
          "name": "F#5",
          "ticks": 108540,
          "time": 152.787009375,
          "velocity": 0.18110236220472442
        },
        {
          "duration": 0.121058437500011,
          "durationTicks": 86,
          "midi": 66,
          "name": "F#4",
          "ticks": 108540,
          "time": 152.787009375,
          "velocity": 0.49606299212598426
        },
        {
          "duration": 0.05067562499999667,
          "durationTicks": 36,
          "midi": 54,
          "name": "F#3",
          "ticks": 108540,
          "time": 152.787009375,
          "velocity": 0.4645669291338583
        },
        {
          "duration": 0.07319812500000467,
          "durationTicks": 52,
          "midi": 78,
          "name": "F#5",
          "ticks": 108666,
          "time": 152.9643740625,
          "velocity": 0.18110236220472442
        },
        {
          "duration": 0.05067562499999667,
          "durationTicks": 36,
          "midi": 57,
          "name": "A3",
          "ticks": 108666,
          "time": 152.9643740625,
          "velocity": 0.4645669291338583
        },
        {
          "duration": 0.076013437499995,
          "durationTicks": 54,
          "midi": 78,
          "name": "F#5",
          "ticks": 108796,
          "time": 153.147369375,
          "velocity": 0.18110236220472442
        },
        {
          "duration": 0.11542781249997347,
          "durationTicks": 82,
          "midi": 66,
          "name": "F#4",
          "ticks": 108796,
          "time": 153.147369375,
          "velocity": 0.5275590551181102
        },
        {
          "duration": 0.05067562499999667,
          "durationTicks": 36,
          "midi": 54,
          "name": "F#3",
          "ticks": 108796,
          "time": 153.147369375,
          "velocity": 0.4645669291338583
        },
        {
          "duration": 0.07882874999998535,
          "durationTicks": 56,
          "midi": 78,
          "name": "F#5",
          "ticks": 108922,
          "time": 153.32473406250003,
          "velocity": 0.18110236220472442
        },
        {
          "duration": 0.05349093749998701,
          "durationTicks": 38,
          "midi": 57,
          "name": "A3",
          "ticks": 108922,
          "time": 153.32473406250003,
          "velocity": 0.4645669291338583
        },
        {
          "duration": 0.8868234374999986,
          "durationTicks": 630,
          "midi": 61,
          "name": "C#4",
          "ticks": 109054,
          "time": 153.51054468750002,
          "velocity": 0.5905511811023622
        },
        {
          "duration": 0.8868234374999986,
          "durationTicks": 630,
          "midi": 57,
          "name": "A3",
          "ticks": 109054,
          "time": 153.51054468750002,
          "velocity": 0.5590551181102362
        },
        {
          "duration": 0.8868234374999986,
          "durationTicks": 630,
          "midi": 45,
          "name": "A2",
          "ticks": 109054,
          "time": 153.51054468750002,
          "velocity": 0.5905511811023622
        },
        {
          "duration": 3.423419999999993,
          "durationTicks": 2432,
          "midi": 62,
          "name": "D4",
          "ticks": 109684,
          "time": 154.397368125,
          "velocity": 0.33858267716535434
        },
        {
          "duration": 3.423419999999993,
          "durationTicks": 2432,
          "midi": 59,
          "name": "B3",
          "ticks": 109684,
          "time": 154.397368125,
          "velocity": 0.5590551181102362
        },
        {
          "duration": 3.423419999999993,
          "durationTicks": 2432,
          "midi": 55,
          "name": "G3",
          "ticks": 109684,
          "time": 154.397368125,
          "velocity": 0.5905511811023622
        },
        {
          "duration": 3.423419999999993,
          "durationTicks": 2432,
          "midi": 43,
          "name": "G2",
          "ticks": 109684,
          "time": 154.397368125,
          "velocity": 0.5275590551181102
        },
        {
          "duration": 0.917791875000006,
          "durationTicks": 652,
          "midi": 61,
          "name": "C#4",
          "ticks": 112116,
          "time": 157.820788125,
          "velocity": 0.5905511811023622
        },
        {
          "duration": 0.917791875000006,
          "durationTicks": 652,
          "midi": 57,
          "name": "A3",
          "ticks": 112116,
          "time": 157.820788125,
          "velocity": 0.5590551181102362
        },
        {
          "duration": 0.917791875000006,
          "durationTicks": 652,
          "midi": 45,
          "name": "A2",
          "ticks": 112116,
          "time": 157.820788125,
          "velocity": 0.5905511811023622
        },
        {
          "duration": 3.406528124999994,
          "durationTicks": 2420,
          "midi": 62,
          "name": "D4",
          "ticks": 112768,
          "time": 158.73858,
          "velocity": 0.33858267716535434
        },
        {
          "duration": 3.406528124999994,
          "durationTicks": 2420,
          "midi": 59,
          "name": "B3",
          "ticks": 112768,
          "time": 158.73858,
          "velocity": 0.5590551181102362
        },
        {
          "duration": 3.406528124999994,
          "durationTicks": 2420,
          "midi": 55,
          "name": "G3",
          "ticks": 112768,
          "time": 158.73858,
          "velocity": 0.5905511811023622
        },
        {
          "duration": 3.406528124999994,
          "durationTicks": 2420,
          "midi": 43,
          "name": "G2",
          "ticks": 112768,
          "time": 158.73858,
          "velocity": 0.5275590551181102
        },
        {
          "duration": 0.9149765624999873,
          "durationTicks": 650,
          "midi": 61,
          "name": "C#4",
          "ticks": 115188,
          "time": 162.145108125,
          "velocity": 0.5905511811023622
        },
        {
          "duration": 0.9149765624999873,
          "durationTicks": 650,
          "midi": 57,
          "name": "A3",
          "ticks": 115188,
          "time": 162.145108125,
          "velocity": 0.5590551181102362
        },
        {
          "duration": 0.9149765624999873,
          "durationTicks": 650,
          "midi": 45,
          "name": "A2",
          "ticks": 115188,
          "time": 162.145108125,
          "velocity": 0.5905511811023622
        },
        {
          "duration": 3.4234200000000214,
          "durationTicks": 2432,
          "midi": 62,
          "name": "D4",
          "ticks": 115838,
          "time": 163.0600846875,
          "velocity": 0.33858267716535434
        },
        {
          "duration": 3.4234200000000214,
          "durationTicks": 2432,
          "midi": 59,
          "name": "B3",
          "ticks": 115838,
          "time": 163.0600846875,
          "velocity": 0.5590551181102362
        },
        {
          "duration": 3.4234200000000214,
          "durationTicks": 2432,
          "midi": 55,
          "name": "G3",
          "ticks": 115838,
          "time": 163.0600846875,
          "velocity": 0.5905511811023622
        },
        {
          "duration": 3.4234200000000214,
          "durationTicks": 2432,
          "midi": 43,
          "name": "G2",
          "ticks": 115838,
          "time": 163.0600846875,
          "velocity": 0.5275590551181102
        },
        {
          "duration": 0.9008999999999787,
          "durationTicks": 640,
          "midi": 61,
          "name": "C#4",
          "ticks": 118270,
          "time": 166.48350468750002,
          "velocity": 0.5905511811023622
        },
        {
          "duration": 0.9008999999999787,
          "durationTicks": 640,
          "midi": 57,
          "name": "A3",
          "ticks": 118270,
          "time": 166.48350468750002,
          "velocity": 0.5590551181102362
        },
        {
          "duration": 0.9008999999999787,
          "durationTicks": 640,
          "midi": 45,
          "name": "A2",
          "ticks": 118270,
          "time": 166.48350468750002,
          "velocity": 0.5905511811023622
        },
        {
          "duration": 3.409343437500013,
          "durationTicks": 2422,
          "midi": 62,
          "name": "D4",
          "ticks": 118910,
          "time": 167.3844046875,
          "velocity": 0.33858267716535434
        },
        {
          "duration": 3.409343437500013,
          "durationTicks": 2422,
          "midi": 59,
          "name": "B3",
          "ticks": 118910,
          "time": 167.3844046875,
          "velocity": 0.5590551181102362
        },
        {
          "duration": 3.409343437500013,
          "durationTicks": 2422,
          "midi": 55,
          "name": "G3",
          "ticks": 118910,
          "time": 167.3844046875,
          "velocity": 0.5905511811023622
        },
        {
          "duration": 3.409343437500013,
          "durationTicks": 2422,
          "midi": 43,
          "name": "G2",
          "ticks": 118910,
          "time": 167.3844046875,
          "velocity": 0.5275590551181102
        },
        {
          "duration": 2.1762365625000086,
          "durationTicks": 1546,
          "midi": 66,
          "name": "F#4",
          "ticks": 121332,
          "time": 170.793748125,
          "velocity": 0.49606299212598426
        },
        {
          "duration": 2.1762365625000086,
          "durationTicks": 1546,
          "midi": 62,
          "name": "D4",
          "ticks": 121332,
          "time": 170.793748125,
          "velocity": 0.5275590551181102
        },
        {
          "duration": 2.1762365625000086,
          "durationTicks": 1546,
          "midi": 59,
          "name": "B3",
          "ticks": 121332,
          "time": 170.793748125,
          "velocity": 0.5275590551181102
        },
        {
          "duration": 2.1762365625000086,
          "durationTicks": 1546,
          "midi": 55,
          "name": "G3",
          "ticks": 121332,
          "time": 170.793748125,
          "velocity": 0.5590551181102362
        },
        {
          "duration": 2.1762365625000086,
          "durationTicks": 1546,
          "midi": 40,
          "name": "E2",
          "ticks": 121332,
          "time": 170.793748125,
          "velocity": 0.5905511811023622
        },
        {
          "duration": 2.1480834374999915,
          "durationTicks": 1526,
          "midi": 64,
          "name": "E4",
          "ticks": 122878,
          "time": 172.96998468750002,
          "velocity": 0.49606299212598426
        },
        {
          "duration": 2.1480834374999915,
          "durationTicks": 1526,
          "midi": 61,
          "name": "C#4",
          "ticks": 122878,
          "time": 172.96998468750002,
          "velocity": 0.5275590551181102
        },
        {
          "duration": 2.1480834374999915,
          "durationTicks": 1526,
          "midi": 57,
          "name": "A3",
          "ticks": 122878,
          "time": 172.96998468750002,
          "velocity": 0.5275590551181102
        },
        {
          "duration": 2.1480834374999915,
          "durationTicks": 1526,
          "midi": 54,
          "name": "F#3",
          "ticks": 122878,
          "time": 172.96998468750002,
          "velocity": 0.5590551181102362
        },
        {
          "duration": 2.1480834374999915,
          "durationTicks": 1526,
          "midi": 42,
          "name": "F#2",
          "ticks": 122878,
          "time": 172.96998468750002,
          "velocity": 0.5905511811023622
        },
        {
          "duration": 2.16216,
          "durationTicks": 1536,
          "midi": 66,
          "name": "F#4",
          "ticks": 124404,
          "time": 175.118068125,
          "velocity": 0.49606299212598426
        },
        {
          "duration": 2.16216,
          "durationTicks": 1536,
          "midi": 62,
          "name": "D4",
          "ticks": 124404,
          "time": 175.118068125,
          "velocity": 0.5275590551181102
        },
        {
          "duration": 2.16216,
          "durationTicks": 1536,
          "midi": 59,
          "name": "B3",
          "ticks": 124404,
          "time": 175.118068125,
          "velocity": 0.5275590551181102
        },
        {
          "duration": 2.16216,
          "durationTicks": 1536,
          "midi": 55,
          "name": "G3",
          "ticks": 124404,
          "time": 175.118068125,
          "velocity": 0.5590551181102362
        },
        {
          "duration": 2.16216,
          "durationTicks": 1536,
          "midi": 43,
          "name": "G2",
          "ticks": 124404,
          "time": 175.118068125,
          "velocity": 0.5905511811023622
        },
        {
          "duration": 2.1762365625000086,
          "durationTicks": 1546,
          "midi": 64,
          "name": "E4",
          "ticks": 125940,
          "time": 177.280228125,
          "velocity": 0.49606299212598426
        },
        {
          "duration": 2.1762365625000086,
          "durationTicks": 1546,
          "midi": 61,
          "name": "C#4",
          "ticks": 125940,
          "time": 177.280228125,
          "velocity": 0.5275590551181102
        },
        {
          "duration": 2.1762365625000086,
          "durationTicks": 1546,
          "midi": 57,
          "name": "A3",
          "ticks": 125940,
          "time": 177.280228125,
          "velocity": 0.5275590551181102
        },
        {
          "duration": 2.1762365625000086,
          "durationTicks": 1546,
          "midi": 54,
          "name": "F#3",
          "ticks": 125940,
          "time": 177.280228125,
          "velocity": 0.5590551181102362
        },
        {
          "duration": 2.1762365625000086,
          "durationTicks": 1546,
          "midi": 42,
          "name": "F#2",
          "ticks": 125940,
          "time": 177.280228125,
          "velocity": 0.5905511811023622
        },
        {
          "duration": 1.0670034374999773,
          "durationTicks": 758,
          "midi": 66,
          "name": "F#4",
          "ticks": 127486,
          "time": 179.45646468750002,
          "velocity": 0.5590551181102362
        },
        {
          "duration": 1.0670034374999773,
          "durationTicks": 758,
          "midi": 62,
          "name": "D4",
          "ticks": 127486,
          "time": 179.45646468750002,
          "velocity": 0.5275590551181102
        },
        {
          "duration": 1.0670034374999773,
          "durationTicks": 758,
          "midi": 59,
          "name": "B3",
          "ticks": 127486,
          "time": 179.45646468750002,
          "velocity": 0.5275590551181102
        },
        {
          "duration": 1.0670034374999773,
          "durationTicks": 758,
          "midi": 55,
          "name": "G3",
          "ticks": 127486,
          "time": 179.45646468750002,
          "velocity": 0.5590551181102362
        },
        {
          "duration": 1.0670034374999773,
          "durationTicks": 758,
          "midi": 40,
          "name": "E2",
          "ticks": 127486,
          "time": 179.45646468750002,
          "velocity": 0.5905511811023622
        },
        {
          "duration": 1.078264687500024,
          "durationTicks": 766,
          "midi": 64,
          "name": "E4",
          "ticks": 128244,
          "time": 180.523468125,
          "velocity": 0.49606299212598426
        },
        {
          "duration": 1.078264687500024,
          "durationTicks": 766,
          "midi": 61,
          "name": "C#4",
          "ticks": 128244,
          "time": 180.523468125,
          "velocity": 0.5275590551181102
        },
        {
          "duration": 1.078264687500024,
          "durationTicks": 766,
          "midi": 57,
          "name": "A3",
          "ticks": 128244,
          "time": 180.523468125,
          "velocity": 0.5275590551181102
        },
        {
          "duration": 1.078264687500024,
          "durationTicks": 766,
          "midi": 54,
          "name": "F#3",
          "ticks": 128244,
          "time": 180.523468125,
          "velocity": 0.5590551181102362
        },
        {
          "duration": 1.078264687500024,
          "durationTicks": 766,
          "midi": 42,
          "name": "F#2",
          "ticks": 128244,
          "time": 180.523468125,
          "velocity": 0.6535433070866141
        },
        {
          "duration": 1.0979718750000131,
          "durationTicks": 780,
          "midi": 66,
          "name": "F#4",
          "ticks": 129010,
          "time": 181.60173281250002,
          "velocity": 0.49606299212598426
        },
        {
          "duration": 1.0979718750000131,
          "durationTicks": 780,
          "midi": 62,
          "name": "D4",
          "ticks": 129010,
          "time": 181.60173281250002,
          "velocity": 0.5275590551181102
        },
        {
          "duration": 1.0979718750000131,
          "durationTicks": 780,
          "midi": 59,
          "name": "B3",
          "ticks": 129010,
          "time": 181.60173281250002,
          "velocity": 0.5275590551181102
        },
        {
          "duration": 1.0979718750000131,
          "durationTicks": 780,
          "midi": 55,
          "name": "G3",
          "ticks": 129010,
          "time": 181.60173281250002,
          "velocity": 0.5590551181102362
        },
        {
          "duration": 1.0979718750000131,
          "durationTicks": 780,
          "midi": 43,
          "name": "G2",
          "ticks": 129010,
          "time": 181.60173281250002,
          "velocity": 0.6535433070866141
        },
        {
          "duration": 1.0810799999999858,
          "durationTicks": 768,
          "midi": 64,
          "name": "E4",
          "ticks": 129790,
          "time": 182.69970468750003,
          "velocity": 0.5590551181102362
        },
        {
          "duration": 1.0810799999999858,
          "durationTicks": 768,
          "midi": 61,
          "name": "C#4",
          "ticks": 129790,
          "time": 182.69970468750003,
          "velocity": 0.5590551181102362
        },
        {
          "duration": 1.0810799999999858,
          "durationTicks": 768,
          "midi": 57,
          "name": "A3",
          "ticks": 129790,
          "time": 182.69970468750003,
          "velocity": 0.5905511811023622
        },
        {
          "duration": 1.0810799999999858,
          "durationTicks": 768,
          "midi": 45,
          "name": "A2",
          "ticks": 129790,
          "time": 182.69970468750003,
          "velocity": 0.5905511811023622
        },
        {
          "duration": 0.09572062499998424,
          "durationTicks": 68,
          "midi": 71,
          "name": "B4",
          "ticks": 130558,
          "time": 183.78078468750002,
          "velocity": 0.33858267716535434
        },
        {
          "duration": 2.16216,
          "durationTicks": 1536,
          "midi": 66,
          "name": "F#4",
          "ticks": 130558,
          "time": 183.78078468750002,
          "velocity": 0.49606299212598426
        },
        {
          "duration": 2.16216,
          "durationTicks": 1536,
          "midi": 62,
          "name": "D4",
          "ticks": 130558,
          "time": 183.78078468750002,
          "velocity": 0.5275590551181102
        },
        {
          "duration": 2.16216,
          "durationTicks": 1536,
          "midi": 59,
          "name": "B3",
          "ticks": 130558,
          "time": 183.78078468750002,
          "velocity": 0.5275590551181102
        },
        {
          "duration": 2.16216,
          "durationTicks": 1536,
          "midi": 55,
          "name": "G3",
          "ticks": 130558,
          "time": 183.78078468750002,
          "velocity": 0.5590551181102362
        },
        {
          "duration": 2.16216,
          "durationTicks": 1536,
          "midi": 40,
          "name": "E2",
          "ticks": 130558,
          "time": 183.78078468750002,
          "velocity": 0.5905511811023622
        },
        {
          "duration": 0.07882875000004219,
          "durationTicks": 56,
          "midi": 86,
          "name": "D6",
          "ticks": 130682,
          "time": 183.9553340625,
          "velocity": 0.2440944881889764
        },
        {
          "duration": 0.09572062500004108,
          "durationTicks": 68,
          "midi": 74,
          "name": "D5",
          "ticks": 130682,
          "time": 183.9553340625,
          "velocity": 0.33858267716535434
        },
        {
          "duration": 0.07882875000001377,
          "durationTicks": 56,
          "midi": 83,
          "name": "B5",
          "ticks": 130808,
          "time": 184.13269875,
          "velocity": 0.2440944881889764
        },
        {
          "duration": 0.10135124999999334,
          "durationTicks": 72,
          "midi": 71,
          "name": "B4",
          "ticks": 130808,
          "time": 184.13269875,
          "velocity": 0.33858267716535434
        },
        {
          "duration": 0.07319812499997624,
          "durationTicks": 52,
          "midi": 88,
          "name": "E6",
          "ticks": 130942,
          "time": 184.3213246875,
          "velocity": 0.2440944881889764
        },
        {
          "duration": 0.09572062499998424,
          "durationTicks": 68,
          "midi": 76,
          "name": "E5",
          "ticks": 130942,
          "time": 184.3213246875,
          "velocity": 0.33858267716535434
        },
        {
          "duration": 0.08445937499999445,
          "durationTicks": 60,
          "midi": 85,
          "name": "C#6",
          "ticks": 131060,
          "time": 184.487428125,
          "velocity": 0.2440944881889764
        },
        {
          "duration": 0.10698187500000245,
          "durationTicks": 76,
          "midi": 73,
          "name": "C#5",
          "ticks": 131060,
          "time": 184.487428125,
          "velocity": 0.33858267716535434
        },
        {
          "duration": 0.076013437499995,
          "durationTicks": 54,
          "midi": 86,
          "name": "D6",
          "ticks": 131196,
          "time": 184.678869375,
          "velocity": 0.2440944881889764
        },
        {
          "duration": 0.09572062499998424,
          "durationTicks": 68,
          "midi": 74,
          "name": "D5",
          "ticks": 131196,
          "time": 184.678869375,
          "velocity": 0.33858267716535434
        },
        {
          "duration": 0.09572062500001266,
          "durationTicks": 68,
          "midi": 71,
          "name": "B4",
          "ticks": 131322,
          "time": 184.8562340625,
          "velocity": 0.33858267716535434
        },
        {
          "duration": 0.08164406249997569,
          "durationTicks": 58,
          "midi": 86,
          "name": "D6",
          "ticks": 131446,
          "time": 185.03078343750002,
          "velocity": 0.2440944881889764
        },
        {
          "duration": 0.10416656249998368,
          "durationTicks": 74,
          "midi": 74,
          "name": "D5",
          "ticks": 131446,
          "time": 185.03078343750002,
          "velocity": 0.33858267716535434
        },
        {
          "duration": 0.07882875000004219,
          "durationTicks": 56,
          "midi": 83,
          "name": "B5",
          "ticks": 131576,
          "time": 185.21377875,
          "velocity": 0.2440944881889764
        },
        {
          "duration": 0.10135125000002176,
          "durationTicks": 72,
          "midi": 71,
          "name": "B4",
          "ticks": 131576,
          "time": 185.21377875,
          "velocity": 0.33858267716535434
        },
        {
          "duration": 0.076013437499995,
          "durationTicks": 54,
          "midi": 88,
          "name": "E6",
          "ticks": 131704,
          "time": 185.39395875000002,
          "velocity": 0.2440944881889764
        },
        {
          "duration": 0.10416656249998368,
          "durationTicks": 74,
          "midi": 76,
          "name": "E5",
          "ticks": 131704,
          "time": 185.39395875000002,
          "velocity": 0.33858267716535434
        },
        {
          "duration": 0.08727468750001321,
          "durationTicks": 62,
          "midi": 85,
          "name": "C#6",
          "ticks": 131828,
          "time": 185.568508125,
          "velocity": 0.2440944881889764
        },
        {
          "duration": 0.10698187500000245,
          "durationTicks": 76,
          "midi": 73,
          "name": "C#5",
          "ticks": 131828,
          "time": 185.568508125,
          "velocity": 0.33858267716535434
        },
        {
          "duration": 0.07882875000001377,
          "durationTicks": 56,
          "midi": 86,
          "name": "D6",
          "ticks": 131960,
          "time": 185.75431875,
          "velocity": 0.2440944881889764
        },
        {
          "duration": 0.10135124999999334,
          "durationTicks": 72,
          "midi": 74,
          "name": "D5",
          "ticks": 131960,
          "time": 185.75431875,
          "velocity": 0.33858267716535434
        },
        {
          "duration": 0.09572062499998424,
          "durationTicks": 68,
          "midi": 71,
          "name": "B4",
          "ticks": 132094,
          "time": 185.94294468750002,
          "velocity": 0.33858267716535434
        },
        {
          "duration": 2.16216,
          "durationTicks": 1536,
          "midi": 64,
          "name": "E4",
          "ticks": 132094,
          "time": 185.94294468750002,
          "velocity": 0.49606299212598426
        },
        {
          "duration": 2.16216,
          "durationTicks": 1536,
          "midi": 61,
          "name": "C#4",
          "ticks": 132094,
          "time": 185.94294468750002,
          "velocity": 0.5275590551181102
        },
        {
          "duration": 2.16216,
          "durationTicks": 1536,
          "midi": 57,
          "name": "A3",
          "ticks": 132094,
          "time": 185.94294468750002,
          "velocity": 0.5275590551181102
        },
        {
          "duration": 2.16216,
          "durationTicks": 1536,
          "midi": 54,
          "name": "F#3",
          "ticks": 132094,
          "time": 185.94294468750002,
          "velocity": 0.5590551181102362
        },
        {
          "duration": 2.16216,
          "durationTicks": 1536,
          "midi": 42,
          "name": "F#2",
          "ticks": 132094,
          "time": 185.94294468750002,
          "velocity": 0.5905511811023622
        },
        {
          "duration": 0.07601343750002343,
          "durationTicks": 54,
          "midi": 86,
          "name": "D6",
          "ticks": 132220,
          "time": 186.120309375,
          "velocity": 0.2440944881889764
        },
        {
          "duration": 0.09572062500001266,
          "durationTicks": 68,
          "midi": 74,
          "name": "D5",
          "ticks": 132220,
          "time": 186.120309375,
          "velocity": 0.33858267716535434
        },
        {
          "duration": 0.07882875000001377,
          "durationTicks": 56,
          "midi": 83,
          "name": "B5",
          "ticks": 132344,
          "time": 186.29485875,
          "velocity": 0.2440944881889764
        },
        {
          "duration": 0.1041665625000121,
          "durationTicks": 74,
          "midi": 71,
          "name": "B4",
          "ticks": 132344,
          "time": 186.29485875,
          "velocity": 0.33858267716535434
        },
        {
          "duration": 0.09009000000000356,
          "durationTicks": 64,
          "midi": 88,
          "name": "E6",
          "ticks": 132464,
          "time": 186.4637775,
          "velocity": 0.2440944881889764
        },
        {
          "duration": 0.11542781250000189,
          "durationTicks": 82,
          "midi": 76,
          "name": "E5",
          "ticks": 132464,
          "time": 186.4637775,
          "velocity": 0.33858267716535434
        },
        {
          "duration": 0.08164406249997569,
          "durationTicks": 58,
          "midi": 85,
          "name": "C#6",
          "ticks": 132598,
          "time": 186.65240343750003,
          "velocity": 0.2440944881889764
        },
        {
          "duration": 0.10698187499997402,
          "durationTicks": 76,
          "midi": 73,
          "name": "C#5",
          "ticks": 132598,
          "time": 186.65240343750003,
          "velocity": 0.33858267716535434
        },
        {
          "duration": 0.07319812499997624,
          "durationTicks": 52,
          "midi": 86,
          "name": "D6",
          "ticks": 132730,
          "time": 186.83821406250001,
          "velocity": 0.2440944881889764
        },
        {
          "duration": 0.09853593749997458,
          "durationTicks": 70,
          "midi": 74,
          "name": "D5",
          "ticks": 132730,
          "time": 186.83821406250001,
          "velocity": 0.33858267716535434
        },
        {
          "duration": 0.10135124999999334,
          "durationTicks": 72,
          "midi": 71,
          "name": "B4",
          "ticks": 132856,
          "time": 187.01557875000003,
          "velocity": 0.33858267716535434
        },
        {
          "duration": 0.08164406249997569,
          "durationTicks": 58,
          "midi": 86,
          "name": "D6",
          "ticks": 132982,
          "time": 187.19294343750002,
          "velocity": 0.2440944881889764
        },
        {
          "duration": 0.10698187499997402,
          "durationTicks": 76,
          "midi": 74,
          "name": "D5",
          "ticks": 132982,
          "time": 187.19294343750002,
          "velocity": 0.33858267716535434
        },
        {
          "duration": 0.07319812499997624,
          "durationTicks": 52,
          "midi": 83,
          "name": "B5",
          "ticks": 133114,
          "time": 187.3787540625,
          "velocity": 0.2440944881889764
        },
        {
          "duration": 0.098535937500003,
          "durationTicks": 70,
          "midi": 71,
          "name": "B4",
          "ticks": 133114,
          "time": 187.3787540625,
          "velocity": 0.33858267716535434
        },
        {
          "duration": 0.08164406249997569,
          "durationTicks": 58,
          "midi": 88,
          "name": "E6",
          "ticks": 133240,
          "time": 187.55611875000002,
          "velocity": 0.2440944881889764
        },
        {
          "duration": 0.10416656249998368,
          "durationTicks": 74,
          "midi": 76,
          "name": "E5",
          "ticks": 133240,
          "time": 187.55611875000002,
          "velocity": 0.33858267716535434
        },
        {
          "duration": 0.0872746874999848,
          "durationTicks": 62,
          "midi": 85,
          "name": "C#6",
          "ticks": 133360,
          "time": 187.7250375,
          "velocity": 0.2440944881889764
        },
        {
          "duration": 0.10698187499997402,
          "durationTicks": 76,
          "midi": 73,
          "name": "C#5",
          "ticks": 133360,
          "time": 187.7250375,
          "velocity": 0.33858267716535434
        },
        {
          "duration": 0.09009000000000356,
          "durationTicks": 64,
          "midi": 86,
          "name": "D6",
          "ticks": 133488,
          "time": 187.90521750000002,
          "velocity": 0.2440944881889764
        },
        {
          "duration": 0.11261249999998313,
          "durationTicks": 80,
          "midi": 74,
          "name": "D5",
          "ticks": 133488,
          "time": 187.90521750000002,
          "velocity": 0.33858267716535434
        },
        {
          "duration": 0.09572062499998424,
          "durationTicks": 68,
          "midi": 71,
          "name": "B4",
          "ticks": 133630,
          "time": 188.10510468750002,
          "velocity": 0.33858267716535434
        },
        {
          "duration": 2.1480834374999915,
          "durationTicks": 1526,
          "midi": 66,
          "name": "F#4",
          "ticks": 133630,
          "time": 188.10510468750002,
          "velocity": 0.49606299212598426
        },
        {
          "duration": 2.1480834374999915,
          "durationTicks": 1526,
          "midi": 62,
          "name": "D4",
          "ticks": 133630,
          "time": 188.10510468750002,
          "velocity": 0.5275590551181102
        },
        {
          "duration": 2.1480834374999915,
          "durationTicks": 1526,
          "midi": 59,
          "name": "B3",
          "ticks": 133630,
          "time": 188.10510468750002,
          "velocity": 0.5275590551181102
        },
        {
          "duration": 2.1480834374999915,
          "durationTicks": 1526,
          "midi": 55,
          "name": "G3",
          "ticks": 133630,
          "time": 188.10510468750002,
          "velocity": 0.5590551181102362
        },
        {
          "duration": 2.1480834374999915,
          "durationTicks": 1526,
          "midi": 43,
          "name": "G2",
          "ticks": 133630,
          "time": 188.10510468750002,
          "velocity": 0.5905511811023622
        },
        {
          "duration": 0.07601343750002343,
          "durationTicks": 54,
          "midi": 86,
          "name": "D6",
          "ticks": 133756,
          "time": 188.282469375,
          "velocity": 0.2440944881889764
        },
        {
          "duration": 0.09572062500001266,
          "durationTicks": 68,
          "midi": 74,
          "name": "D5",
          "ticks": 133756,
          "time": 188.282469375,
          "velocity": 0.33858267716535434
        },
        {
          "duration": 0.08727468750001321,
          "durationTicks": 62,
          "midi": 83,
          "name": "B5",
          "ticks": 133874,
          "time": 188.4485728125,
          "velocity": 0.2440944881889764
        },
        {
          "duration": 0.10979718749999279,
          "durationTicks": 78,
          "midi": 71,
          "name": "B4",
          "ticks": 133874,
          "time": 188.4485728125,
          "velocity": 0.33858267716535434
        },
        {
          "duration": 0.0872746874999848,
          "durationTicks": 62,
          "midi": 88,
          "name": "E6",
          "ticks": 134002,
          "time": 188.6287528125,
          "velocity": 0.2440944881889764
        },
        {
          "duration": 0.11261249999998313,
          "durationTicks": 80,
          "midi": 76,
          "name": "E5",
          "ticks": 134002,
          "time": 188.6287528125,
          "velocity": 0.33858267716535434
        },
        {
          "duration": 0.08445937499999445,
          "durationTicks": 60,
          "midi": 85,
          "name": "C#6",
          "ticks": 134134,
          "time": 188.81456343750003,
          "velocity": 0.2440944881889764
        },
        {
          "duration": 0.10698187499997402,
          "durationTicks": 76,
          "midi": 73,
          "name": "C#5",
          "ticks": 134134,
          "time": 188.81456343750003,
          "velocity": 0.33858267716535434
        },
        {
          "duration": 0.07038281250001432,
          "durationTicks": 50,
          "midi": 86,
          "name": "D6",
          "ticks": 134270,
          "time": 189.0060046875,
          "velocity": 0.2440944881889764
        },
        {
          "duration": 0.0929053124999939,
          "durationTicks": 66,
          "midi": 74,
          "name": "D5",
          "ticks": 134270,
          "time": 189.0060046875,
          "velocity": 0.33858267716535434
        },
        {
          "duration": 0.10979718750002121,
          "durationTicks": 78,
          "midi": 71,
          "name": "B4",
          "ticks": 134384,
          "time": 189.16647749999998,
          "velocity": 0.33858267716535434
        },
        {
          "duration": 0.08164406250000411,
          "durationTicks": 58,
          "midi": 86,
          "name": "D6",
          "ticks": 134520,
          "time": 189.35791875,
          "velocity": 0.2440944881889764
        },
        {
          "duration": 0.10416656249998368,
          "durationTicks": 74,
          "midi": 74,
          "name": "D5",
          "ticks": 134520,
          "time": 189.35791875,
          "velocity": 0.33858267716535434
        },
        {
          "duration": 0.07882875000004219,
          "durationTicks": 56,
          "midi": 83,
          "name": "B5",
          "ticks": 134648,
          "time": 189.53809875,
          "velocity": 0.2440944881889764
        },
        {
          "duration": 0.10416656250004053,
          "durationTicks": 74,
          "midi": 71,
          "name": "B4",
          "ticks": 134648,
          "time": 189.53809875,
          "velocity": 0.33858267716535434
        },
        {
          "duration": 0.07038281250001432,
          "durationTicks": 50,
          "midi": 88,
          "name": "E6",
          "ticks": 134780,
          "time": 189.723909375,
          "velocity": 0.2440944881889764
        },
        {
          "duration": 0.09572062500001266,
          "durationTicks": 68,
          "midi": 76,
          "name": "E5",
          "ticks": 134780,
          "time": 189.723909375,
          "velocity": 0.33858267716535434
        },
        {
          "duration": 0.08445937499999445,
          "durationTicks": 60,
          "midi": 85,
          "name": "C#6",
          "ticks": 134902,
          "time": 189.8956434375,
          "velocity": 0.2440944881889764
        },
        {
          "duration": 0.10698187499997402,
          "durationTicks": 76,
          "midi": 73,
          "name": "C#5",
          "ticks": 134902,
          "time": 189.8956434375,
          "velocity": 0.33858267716535434
        },
        {
          "duration": 0.08727468750001321,
          "durationTicks": 62,
          "midi": 86,
          "name": "D6",
          "ticks": 135026,
          "time": 190.0701928125,
          "velocity": 0.2440944881889764
        },
        {
          "duration": 0.11261250000001155,
          "durationTicks": 80,
          "midi": 74,
          "name": "D5",
          "ticks": 135026,
          "time": 190.0701928125,
          "velocity": 0.33858267716535434
        },
        {
          "duration": 0.10698187500000245,
          "durationTicks": 76,
          "midi": 71,
          "name": "B4",
          "ticks": 135156,
          "time": 190.253188125,
          "velocity": 0.33858267716535434
        },
        {
          "duration": 2.1762365625000086,
          "durationTicks": 1546,
          "midi": 64,
          "name": "E4",
          "ticks": 135156,
          "time": 190.253188125,
          "velocity": 0.49606299212598426
        },
        {
          "duration": 2.1762365625000086,
          "durationTicks": 1546,
          "midi": 61,
          "name": "C#4",
          "ticks": 135156,
          "time": 190.253188125,
          "velocity": 0.5275590551181102
        },
        {
          "duration": 2.1762365625000086,
          "durationTicks": 1546,
          "midi": 57,
          "name": "A3",
          "ticks": 135156,
          "time": 190.253188125,
          "velocity": 0.5275590551181102
        },
        {
          "duration": 2.1762365625000086,
          "durationTicks": 1546,
          "midi": 54,
          "name": "F#3",
          "ticks": 135156,
          "time": 190.253188125,
          "velocity": 0.5590551181102362
        },
        {
          "duration": 2.1762365625000086,
          "durationTicks": 1546,
          "midi": 42,
          "name": "F#2",
          "ticks": 135156,
          "time": 190.253188125,
          "velocity": 0.5905511811023622
        },
        {
          "duration": 0.08445937500002287,
          "durationTicks": 60,
          "midi": 86,
          "name": "D6",
          "ticks": 135284,
          "time": 190.433368125,
          "velocity": 0.2440944881889764
        },
        {
          "duration": 0.10979718750002121,
          "durationTicks": 78,
          "midi": 74,
          "name": "D5",
          "ticks": 135284,
          "time": 190.433368125,
          "velocity": 0.33858267716535434
        },
        {
          "duration": 0.08445937499999445,
          "durationTicks": 60,
          "midi": 83,
          "name": "B5",
          "ticks": 135416,
          "time": 190.61917875,
          "velocity": 0.2440944881889764
        },
        {
          "duration": 0.1041665625000121,
          "durationTicks": 74,
          "midi": 71,
          "name": "B4",
          "ticks": 135416,
          "time": 190.61917875,
          "velocity": 0.33858267716535434
        },
        {
          "duration": 0.09008999999997513,
          "durationTicks": 64,
          "midi": 88,
          "name": "E6",
          "ticks": 135538,
          "time": 190.7909128125,
          "velocity": 0.2440944881889764
        },
        {
          "duration": 0.10979718749999279,
          "durationTicks": 78,
          "midi": 76,
          "name": "E5",
          "ticks": 135538,
          "time": 190.7909128125,
          "velocity": 0.33858267716535434
        },
        {
          "duration": 0.08164406249997569,
          "durationTicks": 58,
          "midi": 85,
          "name": "C#6",
          "ticks": 135670,
          "time": 190.97672343750003,
          "velocity": 0.2440944881889764
        },
        {
          "duration": 0.10416656249998368,
          "durationTicks": 74,
          "midi": 73,
          "name": "C#5",
          "ticks": 135670,
          "time": 190.97672343750003,
          "velocity": 0.33858267716535434
        },
        {
          "duration": 0.076013437499995,
          "durationTicks": 54,
          "midi": 86,
          "name": "D6",
          "ticks": 135804,
          "time": 191.165349375,
          "velocity": 0.2440944881889764
        },
        {
          "duration": 0.10135124999999334,
          "durationTicks": 72,
          "midi": 74,
          "name": "D5",
          "ticks": 135804,
          "time": 191.165349375,
          "velocity": 0.33858267716535434
        },
        {
          "duration": 0.10135124999999334,
          "durationTicks": 72,
          "midi": 71,
          "name": "B4",
          "ticks": 135928,
          "time": 191.33989875000003,
          "velocity": 0.33858267716535434
        },
        {
          "duration": 0.09008999999997513,
          "durationTicks": 64,
          "midi": 86,
          "name": "D6",
          "ticks": 136048,
          "time": 191.50881750000002,
          "velocity": 0.2440944881889764
        },
        {
          "duration": 0.11261249999998313,
          "durationTicks": 80,
          "midi": 74,
          "name": "D5",
          "ticks": 136048,
          "time": 191.50881750000002,
          "velocity": 0.30708661417322836
        },
        {
          "duration": 0.08164406250000411,
          "durationTicks": 58,
          "midi": 83,
          "name": "B5",
          "ticks": 136184,
          "time": 191.70025875,
          "velocity": 0.2440944881889764
        },
        {
          "duration": 0.10698187500003087,
          "durationTicks": 76,
          "midi": 71,
          "name": "B4",
          "ticks": 136184,
          "time": 191.70025875,
          "velocity": 0.30708661417322836
        },
        {
          "duration": 0.076013437499995,
          "durationTicks": 54,
          "midi": 88,
          "name": "E6",
          "ticks": 136314,
          "time": 191.88325406250001,
          "velocity": 0.2125984251968504
        },
        {
          "duration": 0.09572062499998424,
          "durationTicks": 68,
          "midi": 76,
          "name": "E5",
          "ticks": 136314,
          "time": 191.88325406250001,
          "velocity": 0.30708661417322836
        },
        {
          "duration": 0.09009000000000356,
          "durationTicks": 64,
          "midi": 85,
          "name": "C#6",
          "ticks": 136434,
          "time": 192.0521728125,
          "velocity": 0.2125984251968504
        },
        {
          "duration": 0.10979718749999279,
          "durationTicks": 78,
          "midi": 73,
          "name": "C#5",
          "ticks": 136434,
          "time": 192.0521728125,
          "velocity": 0.2755905511811024
        },
        {
          "duration": 0.0872746874999848,
          "durationTicks": 62,
          "midi": 86,
          "name": "D6",
          "ticks": 136564,
          "time": 192.23516812500003,
          "velocity": 0.2125984251968504
        },
        {
          "duration": 0.10698187499997402,
          "durationTicks": 76,
          "midi": 74,
          "name": "D5",
          "ticks": 136564,
          "time": 192.23516812500003,
          "velocity": 0.2755905511811024
        },
        {
          "duration": 0.09572062499998424,
          "durationTicks": 68,
          "midi": 71,
          "name": "B4",
          "ticks": 136702,
          "time": 192.42942468750002,
          "velocity": 0.2755905511811024
        },
        {
          "duration": 1.0810800000000143,
          "durationTicks": 768,
          "midi": 66,
          "name": "F#4",
          "ticks": 136702,
          "time": 192.42942468750002,
          "velocity": 0.5590551181102362
        },
        {
          "duration": 1.0810800000000143,
          "durationTicks": 768,
          "midi": 62,
          "name": "D4",
          "ticks": 136702,
          "time": 192.42942468750002,
          "velocity": 0.5275590551181102
        },
        {
          "duration": 1.0810800000000143,
          "durationTicks": 768,
          "midi": 59,
          "name": "B3",
          "ticks": 136702,
          "time": 192.42942468750002,
          "velocity": 0.5275590551181102
        },
        {
          "duration": 1.0810800000000143,
          "durationTicks": 768,
          "midi": 55,
          "name": "G3",
          "ticks": 136702,
          "time": 192.42942468750002,
          "velocity": 0.5590551181102362
        },
        {
          "duration": 1.0810800000000143,
          "durationTicks": 768,
          "midi": 40,
          "name": "E2",
          "ticks": 136702,
          "time": 192.42942468750002,
          "velocity": 0.5905511811023622
        },
        {
          "duration": 0.07038281250001432,
          "durationTicks": 50,
          "midi": 86,
          "name": "D6",
          "ticks": 136828,
          "time": 192.606789375,
          "velocity": 0.18110236220472442
        },
        {
          "duration": 0.098535937500003,
          "durationTicks": 70,
          "midi": 74,
          "name": "D5",
          "ticks": 136828,
          "time": 192.606789375,
          "velocity": 0.2755905511811024
        },
        {
          "duration": 0.076013437499995,
          "durationTicks": 54,
          "midi": 83,
          "name": "B5",
          "ticks": 136954,
          "time": 192.78415406250002,
          "velocity": 0.18110236220472442
        },
        {
          "duration": 0.10135124999999334,
          "durationTicks": 72,
          "midi": 71,
          "name": "B4",
          "ticks": 136954,
          "time": 192.78415406250002,
          "velocity": 0.2440944881889764
        },
        {
          "duration": 0.07319812499997624,
          "durationTicks": 52,
          "midi": 88,
          "name": "E6",
          "ticks": 137080,
          "time": 192.96151875,
          "velocity": 0.14960629921259844
        },
        {
          "duration": 0.10135124999999334,
          "durationTicks": 72,
          "midi": 76,
          "name": "E5",
          "ticks": 137080,
          "time": 192.96151875,
          "velocity": 0.2440944881889764
        },
        {
          "duration": 0.0872746874999848,
          "durationTicks": 62,
          "midi": 85,
          "name": "C#6",
          "ticks": 137206,
          "time": 193.13888343750003,
          "velocity": 0.14960629921259844
        },
        {
          "duration": 0.10416656249998368,
          "durationTicks": 74,
          "midi": 73,
          "name": "C#5",
          "ticks": 137206,
          "time": 193.13888343750003,
          "velocity": 0.2440944881889764
        },
        {
          "duration": 0.07319812500000467,
          "durationTicks": 52,
          "midi": 86,
          "name": "D6",
          "ticks": 137340,
          "time": 193.327509375,
          "velocity": 0.14960629921259844
        },
        {
          "duration": 0.098535937500003,
          "durationTicks": 70,
          "midi": 74,
          "name": "D5",
          "ticks": 137340,
          "time": 193.327509375,
          "velocity": 0.2125984251968504
        },
        {
          "duration": 0.09008999999997513,
          "durationTicks": 64,
          "midi": 71,
          "name": "B4",
          "ticks": 137470,
          "time": 193.51050468750003,
          "velocity": 0.2125984251968504
        },
        {
          "duration": 1.0698187499999676,
          "durationTicks": 760,
          "midi": 64,
          "name": "E4",
          "ticks": 137470,
          "time": 193.51050468750003,
          "velocity": 0.49606299212598426
        },
        {
          "duration": 1.0698187499999676,
          "durationTicks": 760,
          "midi": 61,
          "name": "C#4",
          "ticks": 137470,
          "time": 193.51050468750003,
          "velocity": 0.5275590551181102
        },
        {
          "duration": 1.0698187499999676,
          "durationTicks": 760,
          "midi": 57,
          "name": "A3",
          "ticks": 137470,
          "time": 193.51050468750003,
          "velocity": 0.5275590551181102
        },
        {
          "duration": 1.0698187499999676,
          "durationTicks": 760,
          "midi": 54,
          "name": "F#3",
          "ticks": 137470,
          "time": 193.51050468750003,
          "velocity": 0.5590551181102362
        },
        {
          "duration": 1.0698187499999676,
          "durationTicks": 760,
          "midi": 42,
          "name": "F#2",
          "ticks": 137470,
          "time": 193.51050468750003,
          "velocity": 0.6535433070866141
        },
        {
          "duration": 0.08164406249997569,
          "durationTicks": 58,
          "midi": 86,
          "name": "D6",
          "ticks": 137590,
          "time": 193.67942343750002,
          "velocity": 0.11811023622047244
        },
        {
          "duration": 0.10416656249998368,
          "durationTicks": 74,
          "midi": 74,
          "name": "D5",
          "ticks": 137590,
          "time": 193.67942343750002,
          "velocity": 0.2125984251968504
        },
        {
          "duration": 0.07882874999998535,
          "durationTicks": 56,
          "midi": 83,
          "name": "B5",
          "ticks": 137722,
          "time": 193.8652340625,
          "velocity": 0.11811023622047244
        },
        {
          "duration": 0.098535937500003,
          "durationTicks": 70,
          "midi": 71,
          "name": "B4",
          "ticks": 137722,
          "time": 193.8652340625,
          "velocity": 0.18110236220472442
        },
        {
          "duration": 0.08164406249997569,
          "durationTicks": 58,
          "midi": 88,
          "name": "E6",
          "ticks": 137848,
          "time": 194.04259875000002,
          "velocity": 0.08661417322834646
        },
        {
          "duration": 0.10416656249998368,
          "durationTicks": 74,
          "midi": 76,
          "name": "E5",
          "ticks": 137848,
          "time": 194.04259875000002,
          "velocity": 0.18110236220472442
        },
        {
          "duration": 0.0929053124999939,
          "durationTicks": 66,
          "midi": 85,
          "name": "C#6",
          "ticks": 137968,
          "time": 194.2115175,
          "velocity": 0.08661417322834646
        },
        {
          "duration": 0.11261249999998313,
          "durationTicks": 80,
          "midi": 73,
          "name": "C#5",
          "ticks": 137968,
          "time": 194.2115175,
          "velocity": 0.18110236220472442
        },
        {
          "duration": 0.08727468750001321,
          "durationTicks": 62,
          "midi": 86,
          "name": "D6",
          "ticks": 138098,
          "time": 194.3945128125,
          "velocity": 0.08661417322834646
        },
        {
          "duration": 0.10979718749999279,
          "durationTicks": 78,
          "midi": 74,
          "name": "D5",
          "ticks": 138098,
          "time": 194.3945128125,
          "velocity": 0.14960629921259844
        },
        {
          "duration": 0.1041665625000121,
          "durationTicks": 74,
          "midi": 71,
          "name": "B4",
          "ticks": 138230,
          "time": 194.5803234375,
          "velocity": 0.14960629921259844
        },
        {
          "duration": 1.0923412500000325,
          "durationTicks": 776,
          "midi": 66,
          "name": "F#4",
          "ticks": 138230,
          "time": 194.5803234375,
          "velocity": 0.49606299212598426
        },
        {
          "duration": 1.0923412500000325,
          "durationTicks": 776,
          "midi": 62,
          "name": "D4",
          "ticks": 138230,
          "time": 194.5803234375,
          "velocity": 0.5275590551181102
        },
        {
          "duration": 1.0923412500000325,
          "durationTicks": 776,
          "midi": 59,
          "name": "B3",
          "ticks": 138230,
          "time": 194.5803234375,
          "velocity": 0.5275590551181102
        },
        {
          "duration": 1.0923412500000325,
          "durationTicks": 776,
          "midi": 55,
          "name": "G3",
          "ticks": 138230,
          "time": 194.5803234375,
          "velocity": 0.5590551181102362
        },
        {
          "duration": 1.0923412500000325,
          "durationTicks": 776,
          "midi": 43,
          "name": "G2",
          "ticks": 138230,
          "time": 194.5803234375,
          "velocity": 0.6535433070866141
        },
        {
          "duration": 0.07601343750002343,
          "durationTicks": 54,
          "midi": 86,
          "name": "D6",
          "ticks": 138362,
          "time": 194.7661340625,
          "velocity": 0.05511811023622047
        },
        {
          "duration": 0.10135125000002176,
          "durationTicks": 72,
          "midi": 74,
          "name": "D5",
          "ticks": 138362,
          "time": 194.7661340625,
          "velocity": 0.14960629921259844
        },
        {
          "duration": 0.09009000000000356,
          "durationTicks": 64,
          "midi": 83,
          "name": "B5",
          "ticks": 138482,
          "time": 194.9350528125,
          "velocity": 0.05511811023622047
        },
        {
          "duration": 0.11261250000001155,
          "durationTicks": 80,
          "midi": 71,
          "name": "B4",
          "ticks": 138482,
          "time": 194.9350528125,
          "velocity": 0.11811023622047244
        },
        {
          "duration": 0.09008999999997513,
          "durationTicks": 64,
          "midi": 88,
          "name": "E6",
          "ticks": 138610,
          "time": 195.1152328125,
          "velocity": 0.05511811023622047
        },
        {
          "duration": 0.10979718749999279,
          "durationTicks": 78,
          "midi": 76,
          "name": "E5",
          "ticks": 138610,
          "time": 195.1152328125,
          "velocity": 0.11811023622047244
        },
        {
          "duration": 0.09008999999997513,
          "durationTicks": 64,
          "midi": 85,
          "name": "C#6",
          "ticks": 138736,
          "time": 195.29259750000003,
          "velocity": 0.023622047244094488
        },
        {
          "duration": 0.11542781249997347,
          "durationTicks": 82,
          "midi": 73,
          "name": "C#5",
          "ticks": 138736,
          "time": 195.29259750000003,
          "velocity": 0.11811023622047244
        },
        {
          "duration": 0.0929053124999939,
          "durationTicks": 66,
          "midi": 86,
          "name": "D6",
          "ticks": 138866,
          "time": 195.4755928125,
          "velocity": 0.023622047244094488
        },
        {
          "duration": 0.10979718749999279,
          "durationTicks": 78,
          "midi": 74,
          "name": "D5",
          "ticks": 138866,
          "time": 195.4755928125,
          "velocity": 0.08661417322834646
        },
        {
          "duration": 0.0929053124999939,
          "durationTicks": 66,
          "midi": 71,
          "name": "B4",
          "ticks": 139006,
          "time": 195.67266468750003,
          "velocity": 0.08661417322834646
        },
        {
          "duration": 1.0810799999999858,
          "durationTicks": 768,
          "midi": 64,
          "name": "E4",
          "ticks": 139006,
          "time": 195.67266468750003,
          "velocity": 0.5590551181102362
        },
        {
          "duration": 1.0810799999999858,
          "durationTicks": 768,
          "midi": 61,
          "name": "C#4",
          "ticks": 139006,
          "time": 195.67266468750003,
          "velocity": 0.5590551181102362
        },
        {
          "duration": 1.0810799999999858,
          "durationTicks": 768,
          "midi": 57,
          "name": "A3",
          "ticks": 139006,
          "time": 195.67266468750003,
          "velocity": 0.5905511811023622
        },
        {
          "duration": 1.0810799999999858,
          "durationTicks": 768,
          "midi": 45,
          "name": "A2",
          "ticks": 139006,
          "time": 195.67266468750003,
          "velocity": 0.5905511811023622
        },
        {
          "duration": 0.07319812499997624,
          "durationTicks": 52,
          "midi": 86,
          "name": "D6",
          "ticks": 139132,
          "time": 195.85002937500002,
          "velocity": 0.023622047244094488
        },
        {
          "duration": 0.09853593749997458,
          "durationTicks": 70,
          "midi": 74,
          "name": "D5",
          "ticks": 139132,
          "time": 195.85002937500002,
          "velocity": 0.08661417322834646
        },
        {
          "duration": 0.0872746874999848,
          "durationTicks": 62,
          "midi": 83,
          "name": "B5",
          "ticks": 139248,
          "time": 196.0133175,
          "velocity": 0.023622047244094488
        },
        {
          "duration": 0.10979718750002121,
          "durationTicks": 78,
          "midi": 71,
          "name": "B4",
          "ticks": 139248,
          "time": 196.0133175,
          "velocity": 0.05511811023622047
        },
        {
          "duration": 0.07319812500000467,
          "durationTicks": 52,
          "midi": 88,
          "name": "E6",
          "ticks": 139386,
          "time": 196.20757406250002,
          "velocity": 0.023622047244094488
        },
        {
          "duration": 0.10135124999999334,
          "durationTicks": 72,
          "midi": 76,
          "name": "E5",
          "ticks": 139386,
          "time": 196.20757406250002,
          "velocity": 0.05511811023622047
        },
        {
          "duration": 0.07882874999998535,
          "durationTicks": 56,
          "midi": 85,
          "name": "C#6",
          "ticks": 139512,
          "time": 196.38493875,
          "velocity": 0.023622047244094488
        },
        {
          "duration": 0.10416656249998368,
          "durationTicks": 74,
          "midi": 73,
          "name": "C#5",
          "ticks": 139512,
          "time": 196.38493875,
          "velocity": 0.05511811023622047
        },
        {
          "duration": 0.076013437499995,
          "durationTicks": 54,
          "midi": 86,
          "name": "D6",
          "ticks": 139644,
          "time": 196.57074937500002,
          "velocity": 0.023622047244094488
        },
        {
          "duration": 0.09572062499998424,
          "durationTicks": 68,
          "midi": 74,
          "name": "D5",
          "ticks": 139644,
          "time": 196.57074937500002,
          "velocity": 0.05511811023622047
        },
        {
          "duration": 0.0703828124999859,
          "durationTicks": 50,
          "midi": 78,
          "name": "F#5",
          "ticks": 139774,
          "time": 196.75374468750002,
          "velocity": 0.18110236220472442
        },
        {
          "duration": 0.0703828124999859,
          "durationTicks": 50,
          "midi": 66,
          "name": "F#4",
          "ticks": 139774,
          "time": 196.75374468750002,
          "velocity": 0.4015748031496063
        },
        {
          "duration": 0.05067562499999667,
          "durationTicks": 36,
          "midi": 54,
          "name": "F#3",
          "ticks": 139774,
          "time": 196.75374468750002,
          "velocity": 0.2755905511811024
        },
        {
          "duration": 0.07882875000001377,
          "durationTicks": 56,
          "midi": 78,
          "name": "F#5",
          "ticks": 139896,
          "time": 196.92547875,
          "velocity": 0.18110236220472442
        },
        {
          "duration": 0.0563062500000342,
          "durationTicks": 40,
          "midi": 57,
          "name": "A3",
          "ticks": 139896,
          "time": 196.92547875,
          "velocity": 0.2755905511811024
        },
        {
          "duration": 0.076013437499995,
          "durationTicks": 54,
          "midi": 78,
          "name": "F#5",
          "ticks": 140026,
          "time": 197.10847406250002,
          "velocity": 0.18110236220472442
        },
        {
          "duration": 0.076013437499995,
          "durationTicks": 54,
          "midi": 66,
          "name": "F#4",
          "ticks": 140026,
          "time": 197.10847406250002,
          "velocity": 0.4015748031496063
        },
        {
          "duration": 0.05349093749998701,
          "durationTicks": 38,
          "midi": 54,
          "name": "F#3",
          "ticks": 140026,
          "time": 197.10847406250002,
          "velocity": 0.2755905511811024
        },
        {
          "duration": 0.0929053124999939,
          "durationTicks": 66,
          "midi": 78,
          "name": "F#5",
          "ticks": 140144,
          "time": 197.2745775,
          "velocity": 0.18110236220472442
        },
        {
          "duration": 0.07038281250001432,
          "durationTicks": 50,
          "midi": 57,
          "name": "A3",
          "ticks": 140144,
          "time": 197.2745775,
          "velocity": 0.2755905511811024
        },
        {
          "duration": 0.09008999999997513,
          "durationTicks": 64,
          "midi": 78,
          "name": "F#5",
          "ticks": 140272,
          "time": 197.45475750000003,
          "velocity": 0.18110236220472442
        },
        {
          "duration": 0.09008999999997513,
          "durationTicks": 64,
          "midi": 66,
          "name": "F#4",
          "ticks": 140272,
          "time": 197.45475750000003,
          "velocity": 0.4015748031496063
        },
        {
          "duration": 0.0703828124999859,
          "durationTicks": 50,
          "midi": 54,
          "name": "F#3",
          "ticks": 140272,
          "time": 197.45475750000003,
          "velocity": 0.2755905511811024
        },
        {
          "duration": 0.076013437499995,
          "durationTicks": 54,
          "midi": 78,
          "name": "F#5",
          "ticks": 140408,
          "time": 197.64619875,
          "velocity": 0.18110236220472442
        },
        {
          "duration": 0.053490937500015434,
          "durationTicks": 38,
          "midi": 57,
          "name": "A3",
          "ticks": 140408,
          "time": 197.64619875,
          "velocity": 0.2755905511811024
        },
        {
          "duration": 0.07882875000001377,
          "durationTicks": 56,
          "midi": 78,
          "name": "F#5",
          "ticks": 140538,
          "time": 197.8291940625,
          "velocity": 0.18110236220472442
        },
        {
          "duration": 0.07882875000001377,
          "durationTicks": 56,
          "midi": 66,
          "name": "F#4",
          "ticks": 140538,
          "time": 197.8291940625,
          "velocity": 0.4015748031496063
        },
        {
          "duration": 0.053490937500015434,
          "durationTicks": 38,
          "midi": 54,
          "name": "F#3",
          "ticks": 140538,
          "time": 197.8291940625,
          "velocity": 0.2755905511811024
        },
        {
          "duration": 0.08164406250000411,
          "durationTicks": 58,
          "midi": 78,
          "name": "F#5",
          "ticks": 140664,
          "time": 198.00655875,
          "velocity": 0.18110236220472442
        },
        {
          "duration": 0.06193687499998646,
          "durationTicks": 44,
          "midi": 57,
          "name": "A3",
          "ticks": 140664,
          "time": 198.00655875,
          "velocity": 0.2755905511811024
        },
        {
          "duration": 0.07319812499997624,
          "durationTicks": 52,
          "midi": 78,
          "name": "F#5",
          "ticks": 140794,
          "time": 198.1895540625,
          "velocity": 0.18110236220472442
        },
        {
          "duration": 0.07319812499997624,
          "durationTicks": 52,
          "midi": 66,
          "name": "F#4",
          "ticks": 140794,
          "time": 198.1895540625,
          "velocity": 0.4015748031496063
        },
        {
          "duration": 0.05349093749998701,
          "durationTicks": 38,
          "midi": 54,
          "name": "F#3",
          "ticks": 140794,
          "time": 198.1895540625,
          "velocity": 0.2755905511811024
        },
        {
          "duration": 0.07882874999998535,
          "durationTicks": 56,
          "midi": 78,
          "name": "F#5",
          "ticks": 140920,
          "time": 198.36691875000002,
          "velocity": 0.18110236220472442
        },
        {
          "duration": 0.056306249999977354,
          "durationTicks": 40,
          "midi": 57,
          "name": "A3",
          "ticks": 140920,
          "time": 198.36691875000002,
          "velocity": 0.2755905511811024
        },
        {
          "duration": 0.08164406250000411,
          "durationTicks": 58,
          "midi": 78,
          "name": "F#5",
          "ticks": 141048,
          "time": 198.54709875,
          "velocity": 0.18110236220472442
        },
        {
          "duration": 0.08164406250000411,
          "durationTicks": 58,
          "midi": 66,
          "name": "F#4",
          "ticks": 141048,
          "time": 198.54709875,
          "velocity": 0.4015748031496063
        },
        {
          "duration": 0.056306250000005775,
          "durationTicks": 40,
          "midi": 54,
          "name": "F#3",
          "ticks": 141048,
          "time": 198.54709875,
          "velocity": 0.2755905511811024
        },
        {
          "duration": 0.08164406250000411,
          "durationTicks": 58,
          "midi": 78,
          "name": "F#5",
          "ticks": 141176,
          "time": 198.72727875,
          "velocity": 0.18110236220472442
        },
        {
          "duration": 0.056306250000005775,
          "durationTicks": 40,
          "midi": 57,
          "name": "A3",
          "ticks": 141176,
          "time": 198.72727875,
          "velocity": 0.2755905511811024
        },
        {
          "duration": 0.07038281250001432,
          "durationTicks": 50,
          "midi": 78,
          "name": "F#5",
          "ticks": 141308,
          "time": 198.913089375,
          "velocity": 0.18110236220472442
        },
        {
          "duration": 0.07038281250001432,
          "durationTicks": 50,
          "midi": 66,
          "name": "F#4",
          "ticks": 141308,
          "time": 198.913089375,
          "velocity": 0.4015748031496063
        },
        {
          "duration": 0.05067562499999667,
          "durationTicks": 36,
          "midi": 54,
          "name": "F#3",
          "ticks": 141308,
          "time": 198.913089375,
          "velocity": 0.2755905511811024
        },
        {
          "duration": 0.07319812500003309,
          "durationTicks": 52,
          "midi": 78,
          "name": "F#5",
          "ticks": 141434,
          "time": 199.0904540625,
          "velocity": 0.18110236220472442
        },
        {
          "duration": 0.05067562499999667,
          "durationTicks": 36,
          "midi": 57,
          "name": "A3",
          "ticks": 141434,
          "time": 199.0904540625,
          "velocity": 0.2755905511811024
        },
        {
          "duration": 0.07319812500000467,
          "durationTicks": 52,
          "midi": 78,
          "name": "F#5",
          "ticks": 141564,
          "time": 199.273449375,
          "velocity": 0.18110236220472442
        },
        {
          "duration": 0.07319812500000467,
          "durationTicks": 52,
          "midi": 66,
          "name": "F#4",
          "ticks": 141564,
          "time": 199.273449375,
          "velocity": 0.4015748031496063
        },
        {
          "duration": 0.05067562499999667,
          "durationTicks": 36,
          "midi": 54,
          "name": "F#3",
          "ticks": 141564,
          "time": 199.273449375,
          "velocity": 0.2755905511811024
        },
        {
          "duration": 0.0872746874999848,
          "durationTicks": 62,
          "midi": 78,
          "name": "F#5",
          "ticks": 141682,
          "time": 199.4395528125,
          "velocity": 0.18110236220472442
        },
        {
          "duration": 0.06756749999999556,
          "durationTicks": 48,
          "midi": 57,
          "name": "A3",
          "ticks": 141682,
          "time": 199.4395528125,
          "velocity": 0.2755905511811024
        },
        {
          "duration": 0.07882874999998535,
          "durationTicks": 56,
          "midi": 78,
          "name": "F#5",
          "ticks": 141816,
          "time": 199.62817875000002,
          "velocity": 0.18110236220472442
        },
        {
          "duration": 0.07882874999998535,
          "durationTicks": 56,
          "midi": 66,
          "name": "F#4",
          "ticks": 141816,
          "time": 199.62817875000002,
          "velocity": 0.4015748031496063
        },
        {
          "duration": 0.059121562499996116,
          "durationTicks": 42,
          "midi": 54,
          "name": "F#3",
          "ticks": 141816,
          "time": 199.62817875000002,
          "velocity": 0.2755905511811024
        },
        {
          "duration": 0.076013437499995,
          "durationTicks": 54,
          "midi": 78,
          "name": "F#5",
          "ticks": 141944,
          "time": 199.80835875,
          "velocity": 0.18110236220472442
        },
        {
          "duration": 0.056306250000005775,
          "durationTicks": 40,
          "midi": 57,
          "name": "A3",
          "ticks": 141944,
          "time": 199.80835875,
          "velocity": 0.2755905511811024
        },
        {
          "duration": 0.07319812500003309,
          "durationTicks": 52,
          "midi": 78,
          "name": "F#5",
          "ticks": 142076,
          "time": 199.99416937499998,
          "velocity": 0.18110236220472442
        },
        {
          "duration": 0.07319812500003309,
          "durationTicks": 52,
          "midi": 66,
          "name": "F#4",
          "ticks": 142076,
          "time": 199.99416937499998,
          "velocity": 0.4015748031496063
        },
        {
          "duration": 0.053490937500043856,
          "durationTicks": 38,
          "midi": 54,
          "name": "F#3",
          "ticks": 142076,
          "time": 199.99416937499998,
          "velocity": 0.2755905511811024
        },
        {
          "duration": 0.0872746874999848,
          "durationTicks": 62,
          "midi": 78,
          "name": "F#5",
          "ticks": 142194,
          "time": 200.1602728125,
          "velocity": 0.18110236220472442
        },
        {
          "duration": 0.06475218750000522,
          "durationTicks": 46,
          "midi": 57,
          "name": "A3",
          "ticks": 142194,
          "time": 200.1602728125,
          "velocity": 0.2755905511811024
        },
        {
          "duration": 0.0872746874999848,
          "durationTicks": 62,
          "midi": 78,
          "name": "F#5",
          "ticks": 142320,
          "time": 200.3376375,
          "velocity": 0.18110236220472442
        },
        {
          "duration": 0.0872746874999848,
          "durationTicks": 62,
          "midi": 66,
          "name": "F#4",
          "ticks": 142320,
          "time": 200.3376375,
          "velocity": 0.4015748031496063
        },
        {
          "duration": 0.06756749999999556,
          "durationTicks": 48,
          "midi": 54,
          "name": "F#3",
          "ticks": 142320,
          "time": 200.3376375,
          "velocity": 0.2755905511811024
        },
        {
          "duration": 0.076013437499995,
          "durationTicks": 54,
          "midi": 78,
          "name": "F#5",
          "ticks": 142458,
          "time": 200.53189406250002,
          "velocity": 0.18110236220472442
        },
        {
          "duration": 0.05349093749998701,
          "durationTicks": 38,
          "midi": 57,
          "name": "A3",
          "ticks": 142458,
          "time": 200.53189406250002,
          "velocity": 0.2755905511811024
        },
        {
          "duration": 0.08164406249997569,
          "durationTicks": 58,
          "midi": 78,
          "name": "F#5",
          "ticks": 142582,
          "time": 200.7064434375,
          "velocity": 0.18110236220472442
        },
        {
          "duration": 0.08164406249997569,
          "durationTicks": 58,
          "midi": 66,
          "name": "F#4",
          "ticks": 142582,
          "time": 200.7064434375,
          "velocity": 0.4015748031496063
        },
        {
          "duration": 0.06193687499998646,
          "durationTicks": 44,
          "midi": 54,
          "name": "F#3",
          "ticks": 142582,
          "time": 200.7064434375,
          "velocity": 0.2755905511811024
        },
        {
          "duration": 0.076013437499995,
          "durationTicks": 54,
          "midi": 78,
          "name": "F#5",
          "ticks": 142714,
          "time": 200.89225406250003,
          "velocity": 0.18110236220472442
        },
        {
          "duration": 0.05349093749998701,
          "durationTicks": 38,
          "midi": 57,
          "name": "A3",
          "ticks": 142714,
          "time": 200.89225406250003,
          "velocity": 0.2755905511811024
        },
        {
          "duration": 0.09008999999997513,
          "durationTicks": 64,
          "midi": 78,
          "name": "F#5",
          "ticks": 142834,
          "time": 201.06117281250002,
          "velocity": 0.18110236220472442
        },
        {
          "duration": 0.09008999999997513,
          "durationTicks": 64,
          "midi": 66,
          "name": "F#4",
          "ticks": 142834,
          "time": 201.06117281250002,
          "velocity": 0.4015748031496063
        },
        {
          "duration": 0.0647521874999768,
          "durationTicks": 46,
          "midi": 54,
          "name": "F#3",
          "ticks": 142834,
          "time": 201.06117281250002,
          "velocity": 0.2755905511811024
        },
        {
          "duration": 0.08164406250000411,
          "durationTicks": 58,
          "midi": 78,
          "name": "F#5",
          "ticks": 142966,
          "time": 201.2469834375,
          "velocity": 0.18110236220472442
        },
        {
          "duration": 0.05912156250002454,
          "durationTicks": 42,
          "midi": 57,
          "name": "A3",
          "ticks": 142966,
          "time": 201.2469834375,
          "velocity": 0.2755905511811024
        },
        {
          "duration": 0.09009000000000356,
          "durationTicks": 64,
          "midi": 78,
          "name": "F#5",
          "ticks": 143090,
          "time": 201.4215328125,
          "velocity": 0.18110236220472442
        },
        {
          "duration": 0.10979718749999279,
          "durationTicks": 78,
          "midi": 66,
          "name": "F#4",
          "ticks": 143090,
          "time": 201.4215328125,
          "velocity": 0.4330708661417323
        },
        {
          "duration": 0.06475218750000522,
          "durationTicks": 46,
          "midi": 54,
          "name": "F#3",
          "ticks": 143090,
          "time": 201.4215328125,
          "velocity": 0.2755905511811024
        },
        {
          "duration": 0.09008999999997513,
          "durationTicks": 64,
          "midi": 78,
          "name": "F#5",
          "ticks": 143218,
          "time": 201.6017128125,
          "velocity": 0.18110236220472442
        },
        {
          "duration": 0.0647521874999768,
          "durationTicks": 46,
          "midi": 57,
          "name": "A3",
          "ticks": 143218,
          "time": 201.6017128125,
          "velocity": 0.2755905511811024
        },
        {
          "duration": 0.08164406250000411,
          "durationTicks": 58,
          "midi": 78,
          "name": "F#5",
          "ticks": 143352,
          "time": 201.79033875000002,
          "velocity": 0.18110236220472442
        },
        {
          "duration": 0.10416656249998368,
          "durationTicks": 74,
          "midi": 66,
          "name": "F#4",
          "ticks": 143352,
          "time": 201.79033875000002,
          "velocity": 0.4645669291338583
        },
        {
          "duration": 0.05349093749998701,
          "durationTicks": 38,
          "midi": 54,
          "name": "F#3",
          "ticks": 143352,
          "time": 201.79033875000002,
          "velocity": 0.2755905511811024
        },
        {
          "duration": 0.07882875000001377,
          "durationTicks": 56,
          "midi": 78,
          "name": "F#5",
          "ticks": 143480,
          "time": 201.97051875,
          "velocity": 0.18110236220472442
        },
        {
          "duration": 0.059121562499996116,
          "durationTicks": 42,
          "midi": 57,
          "name": "A3",
          "ticks": 143480,
          "time": 201.97051875,
          "velocity": 0.2755905511811024
        },
        {
          "duration": 0.09009000000000356,
          "durationTicks": 64,
          "midi": 78,
          "name": "F#5",
          "ticks": 143602,
          "time": 202.1422528125,
          "velocity": 0.18110236220472442
        },
        {
          "duration": 0.11261250000001155,
          "durationTicks": 80,
          "midi": 66,
          "name": "F#4",
          "ticks": 143602,
          "time": 202.1422528125,
          "velocity": 0.49606299212598426
        },
        {
          "duration": 0.06475218750000522,
          "durationTicks": 46,
          "midi": 54,
          "name": "F#3",
          "ticks": 143602,
          "time": 202.1422528125,
          "velocity": 0.2755905511811024
        },
        {
          "duration": 0.08164406249997569,
          "durationTicks": 58,
          "midi": 78,
          "name": "F#5",
          "ticks": 143734,
          "time": 202.32806343750002,
          "velocity": 0.18110236220472442
        },
        {
          "duration": 0.06193687499998646,
          "durationTicks": 44,
          "midi": 57,
          "name": "A3",
          "ticks": 143734,
          "time": 202.32806343750002,
          "velocity": 0.2755905511811024
        },
        {
          "duration": 0.076013437499995,
          "durationTicks": 54,
          "midi": 78,
          "name": "F#5",
          "ticks": 143864,
          "time": 202.51105875,
          "velocity": 0.18110236220472442
        },
        {
          "duration": 0.12387375000002976,
          "durationTicks": 88,
          "midi": 66,
          "name": "F#4",
          "ticks": 143864,
          "time": 202.51105875,
          "velocity": 0.49606299212598426
        },
        {
          "duration": 0.056306250000005775,
          "durationTicks": 40,
          "midi": 54,
          "name": "F#3",
          "ticks": 143864,
          "time": 202.51105875,
          "velocity": 0.2755905511811024
        },
        {
          "duration": 0.0872746874999848,
          "durationTicks": 62,
          "midi": 78,
          "name": "F#5",
          "ticks": 143986,
          "time": 202.68279281250003,
          "velocity": 0.18110236220472442
        },
        {
          "duration": 0.0647521874999768,
          "durationTicks": 46,
          "midi": 57,
          "name": "A3",
          "ticks": 143986,
          "time": 202.68279281250003,
          "velocity": 0.2755905511811024
        },
        {
          "duration": 0.09008999999997513,
          "durationTicks": 64,
          "midi": 78,
          "name": "F#5",
          "ticks": 144112,
          "time": 202.8601575,
          "velocity": 0.18110236220472442
        },
        {
          "duration": 0.13795031249998146,
          "durationTicks": 98,
          "midi": 66,
          "name": "F#4",
          "ticks": 144112,
          "time": 202.8601575,
          "velocity": 0.5275590551181102
        },
        {
          "duration": 0.06756749999999556,
          "durationTicks": 48,
          "midi": 54,
          "name": "F#3",
          "ticks": 144112,
          "time": 202.8601575,
          "velocity": 0.2755905511811024
        },
        {
          "duration": 0.07319812499997624,
          "durationTicks": 52,
          "midi": 78,
          "name": "F#5",
          "ticks": 144250,
          "time": 203.05441406250003,
          "velocity": 0.18110236220472442
        },
        {
          "duration": 0.05067562499999667,
          "durationTicks": 36,
          "midi": 57,
          "name": "A3",
          "ticks": 144250,
          "time": 203.05441406250003,
          "velocity": 0.2755905511811024
        },
        {
          "duration": 0.076013437499995,
          "durationTicks": 54,
          "midi": 78,
          "name": "F#5",
          "ticks": 144380,
          "time": 203.237409375,
          "velocity": 0.18110236220472442
        },
        {
          "duration": 0.076013437499995,
          "durationTicks": 54,
          "midi": 66,
          "name": "F#4",
          "ticks": 144380,
          "time": 203.237409375,
          "velocity": 0.4015748031496063
        },
        {
          "duration": 0.04786031250000633,
          "durationTicks": 34,
          "midi": 54,
          "name": "F#3",
          "ticks": 144380,
          "time": 203.237409375,
          "velocity": 0.2755905511811024
        },
        {
          "duration": 0.07319812500003309,
          "durationTicks": 52,
          "midi": 78,
          "name": "F#5",
          "ticks": 144506,
          "time": 203.4147740625,
          "velocity": 0.18110236220472442
        },
        {
          "duration": 0.053490937500043856,
          "durationTicks": 38,
          "midi": 57,
          "name": "A3",
          "ticks": 144506,
          "time": 203.4147740625,
          "velocity": 0.2755905511811024
        },
        {
          "duration": 0.07319812499997624,
          "durationTicks": 52,
          "midi": 78,
          "name": "F#5",
          "ticks": 144634,
          "time": 203.59495406250002,
          "velocity": 0.18110236220472442
        },
        {
          "duration": 0.09572062499998424,
          "durationTicks": 68,
          "midi": 66,
          "name": "F#4",
          "ticks": 144634,
          "time": 203.59495406250002,
          "velocity": 0.4330708661417323
        },
        {
          "duration": 0.05349093749998701,
          "durationTicks": 38,
          "midi": 54,
          "name": "F#3",
          "ticks": 144634,
          "time": 203.59495406250002,
          "velocity": 0.2755905511811024
        },
        {
          "duration": 0.09009000000000356,
          "durationTicks": 64,
          "midi": 78,
          "name": "F#5",
          "ticks": 144752,
          "time": 203.7610575,
          "velocity": 0.18110236220472442
        },
        {
          "duration": 0.07038281250001432,
          "durationTicks": 50,
          "midi": 57,
          "name": "A3",
          "ticks": 144752,
          "time": 203.7610575,
          "velocity": 0.2755905511811024
        },
        {
          "duration": 0.076013437499995,
          "durationTicks": 54,
          "midi": 78,
          "name": "F#5",
          "ticks": 144890,
          "time": 203.9553140625,
          "velocity": 0.18110236220472442
        },
        {
          "duration": 0.098535937500003,
          "durationTicks": 70,
          "midi": 66,
          "name": "F#4",
          "ticks": 144890,
          "time": 203.9553140625,
          "velocity": 0.4645669291338583
        },
        {
          "duration": 0.056306250000005775,
          "durationTicks": 40,
          "midi": 54,
          "name": "F#3",
          "ticks": 144890,
          "time": 203.9553140625,
          "velocity": 0.2755905511811024
        },
        {
          "duration": 0.08445937499999445,
          "durationTicks": 60,
          "midi": 78,
          "name": "F#5",
          "ticks": 145010,
          "time": 204.1242328125,
          "velocity": 0.18110236220472442
        },
        {
          "duration": 0.06475218750000522,
          "durationTicks": 46,
          "midi": 57,
          "name": "A3",
          "ticks": 145010,
          "time": 204.1242328125,
          "velocity": 0.2755905511811024
        },
        {
          "duration": 0.08727468750001321,
          "durationTicks": 62,
          "midi": 78,
          "name": "F#5",
          "ticks": 145138,
          "time": 204.3044128125,
          "velocity": 0.18110236220472442
        },
        {
          "duration": 0.10979718750002121,
          "durationTicks": 78,
          "midi": 66,
          "name": "F#4",
          "ticks": 145138,
          "time": 204.3044128125,
          "velocity": 0.49606299212598426
        },
        {
          "duration": 0.06475218750000522,
          "durationTicks": 46,
          "midi": 54,
          "name": "F#3",
          "ticks": 145138,
          "time": 204.3044128125,
          "velocity": 0.2755905511811024
        },
        {
          "duration": 0.09008999999997513,
          "durationTicks": 64,
          "midi": 78,
          "name": "F#5",
          "ticks": 145264,
          "time": 204.48177750000002,
          "velocity": 0.18110236220472442
        },
        {
          "duration": 0.0703828124999859,
          "durationTicks": 50,
          "midi": 57,
          "name": "A3",
          "ticks": 145264,
          "time": 204.48177750000002,
          "velocity": 0.2755905511811024
        },
        {
          "duration": 0.076013437499995,
          "durationTicks": 54,
          "midi": 78,
          "name": "F#5",
          "ticks": 145400,
          "time": 204.67321875,
          "velocity": 0.18110236220472442
        },
        {
          "duration": 0.1266890625000201,
          "durationTicks": 90,
          "midi": 66,
          "name": "F#4",
          "ticks": 145400,
          "time": 204.67321875,
          "velocity": 0.49606299212598426
        },
        {
          "duration": 0.056306250000005775,
          "durationTicks": 40,
          "midi": 54,
          "name": "F#3",
          "ticks": 145400,
          "time": 204.67321875,
          "velocity": 0.2755905511811024
        },
        {
          "duration": 0.07319812500000467,
          "durationTicks": 52,
          "midi": 78,
          "name": "F#5",
          "ticks": 145532,
          "time": 204.859029375,
          "velocity": 0.18110236220472442
        },
        {
          "duration": 0.04786031250000633,
          "durationTicks": 34,
          "midi": 57,
          "name": "A3",
          "ticks": 145532,
          "time": 204.859029375,
          "velocity": 0.2755905511811024
        },
        {
          "duration": 0.0929053124999939,
          "durationTicks": 66,
          "midi": 78,
          "name": "F#5",
          "ticks": 145648,
          "time": 205.0223175,
          "velocity": 0.18110236220472442
        },
        {
          "duration": 0.13513499999999112,
          "durationTicks": 96,
          "midi": 66,
          "name": "F#4",
          "ticks": 145648,
          "time": 205.0223175,
          "velocity": 0.5275590551181102
        },
        {
          "duration": 0.06756749999999556,
          "durationTicks": 48,
          "midi": 54,
          "name": "F#3",
          "ticks": 145648,
          "time": 205.0223175,
          "velocity": 0.2755905511811024
        },
        {
          "duration": 0.076013437499995,
          "durationTicks": 54,
          "midi": 78,
          "name": "F#5",
          "ticks": 145786,
          "time": 205.21657406250003,
          "velocity": 0.18110236220472442
        },
        {
          "duration": 0.05349093749998701,
          "durationTicks": 38,
          "midi": 57,
          "name": "A3",
          "ticks": 145786,
          "time": 205.21657406250003,
          "velocity": 0.2755905511811024
        },
        {
          "duration": 0.10698187500000245,
          "durationTicks": 76,
          "midi": 71,
          "name": "B4",
          "ticks": 145908,
          "time": 205.388308125,
          "velocity": 0.33858267716535434
        },
        {
          "duration": 2.16216,
          "durationTicks": 1536,
          "midi": 66,
          "name": "F#4",
          "ticks": 145908,
          "time": 205.388308125,
          "velocity": 0.49606299212598426
        },
        {
          "duration": 2.16216,
          "durationTicks": 1536,
          "midi": 62,
          "name": "D4",
          "ticks": 145908,
          "time": 205.388308125,
          "velocity": 0.5275590551181102
        },
        {
          "duration": 2.16216,
          "durationTicks": 1536,
          "midi": 59,
          "name": "B3",
          "ticks": 145908,
          "time": 205.388308125,
          "velocity": 0.5275590551181102
        },
        {
          "duration": 2.16216,
          "durationTicks": 1536,
          "midi": 55,
          "name": "G3",
          "ticks": 145908,
          "time": 205.388308125,
          "velocity": 0.5590551181102362
        },
        {
          "duration": 2.16216,
          "durationTicks": 1536,
          "midi": 40,
          "name": "E2",
          "ticks": 145908,
          "time": 205.388308125,
          "velocity": 0.5905511811023622
        },
        {
          "duration": 0.09572062500001266,
          "durationTicks": 68,
          "midi": 86,
          "name": "D6",
          "ticks": 146032,
          "time": 205.5628575,
          "velocity": 0.2440944881889764
        },
        {
          "duration": 0.11261250000001155,
          "durationTicks": 80,
          "midi": 74,
          "name": "D5",
          "ticks": 146032,
          "time": 205.5628575,
          "velocity": 0.33858267716535434
        },
        {
          "duration": 0.08164406250000411,
          "durationTicks": 58,
          "midi": 83,
          "name": "B5",
          "ticks": 146168,
          "time": 205.75429875,
          "velocity": 0.2440944881889764
        },
        {
          "duration": 0.1041665625000121,
          "durationTicks": 74,
          "midi": 71,
          "name": "B4",
          "ticks": 146168,
          "time": 205.75429875,
          "velocity": 0.33858267716535434
        },
        {
          "duration": 0.076013437499995,
          "durationTicks": 54,
          "midi": 88,
          "name": "E6",
          "ticks": 146298,
          "time": 205.9372940625,
          "velocity": 0.2440944881889764
        },
        {
          "duration": 0.09572062499998424,
          "durationTicks": 68,
          "midi": 76,
          "name": "E5",
          "ticks": 146298,
          "time": 205.9372940625,
          "velocity": 0.33858267716535434
        },
        {
          "duration": 0.08445937499999445,
          "durationTicks": 60,
          "midi": 85,
          "name": "C#6",
          "ticks": 146420,
          "time": 206.109028125,
          "velocity": 0.2440944881889764
        },
        {
          "duration": 0.10979718749999279,
          "durationTicks": 78,
          "midi": 73,
          "name": "C#5",
          "ticks": 146420,
          "time": 206.109028125,
          "velocity": 0.33858267716535434
        },
        {
          "duration": 0.08727468750001321,
          "durationTicks": 62,
          "midi": 86,
          "name": "D6",
          "ticks": 146546,
          "time": 206.2863928125,
          "velocity": 0.2440944881889764
        },
        {
          "duration": 0.11261250000001155,
          "durationTicks": 80,
          "midi": 74,
          "name": "D5",
          "ticks": 146546,
          "time": 206.2863928125,
          "velocity": 0.33858267716535434
        },
        {
          "duration": 0.10135124999999334,
          "durationTicks": 72,
          "midi": 71,
          "name": "B4",
          "ticks": 146680,
          "time": 206.47501875000003,
          "velocity": 0.33858267716535434
        },
        {
          "duration": 0.08164406249997569,
          "durationTicks": 58,
          "midi": 86,
          "name": "D6",
          "ticks": 146806,
          "time": 206.65238343750002,
          "velocity": 0.2440944881889764
        },
        {
          "duration": 0.10698187499997402,
          "durationTicks": 76,
          "midi": 74,
          "name": "D5",
          "ticks": 146806,
          "time": 206.65238343750002,
          "velocity": 0.33858267716535434
        },
        {
          "duration": 0.08164406250000411,
          "durationTicks": 58,
          "midi": 83,
          "name": "B5",
          "ticks": 146936,
          "time": 206.83537875,
          "velocity": 0.2440944881889764
        },
        {
          "duration": 0.10416656250004053,
          "durationTicks": 74,
          "midi": 71,
          "name": "B4",
          "ticks": 146936,
          "time": 206.83537875,
          "velocity": 0.33858267716535434
        },
        {
          "duration": 0.08164406249997569,
          "durationTicks": 58,
          "midi": 88,
          "name": "E6",
          "ticks": 147064,
          "time": 207.01555875000003,
          "velocity": 0.2440944881889764
        },
        {
          "duration": 0.09853593749997458,
          "durationTicks": 70,
          "midi": 76,
          "name": "E5",
          "ticks": 147064,
          "time": 207.01555875000003,
          "velocity": 0.33858267716535434
        },
        {
          "duration": 0.09008999999997513,
          "durationTicks": 64,
          "midi": 85,
          "name": "C#6",
          "ticks": 147184,
          "time": 207.1844775,
          "velocity": 0.2440944881889764
        },
        {
          "duration": 0.11824312499999223,
          "durationTicks": 84,
          "midi": 73,
          "name": "C#5",
          "ticks": 147184,
          "time": 207.1844775,
          "velocity": 0.33858267716535434
        },
        {
          "duration": 0.08445937499999445,
          "durationTicks": 60,
          "midi": 86,
          "name": "D6",
          "ticks": 147314,
          "time": 207.3674728125,
          "velocity": 0.2440944881889764
        },
        {
          "duration": 0.10979718749999279,
          "durationTicks": 78,
          "midi": 74,
          "name": "D5",
          "ticks": 147314,
          "time": 207.3674728125,
          "velocity": 0.33858267716535434
        },
        {
          "duration": 0.10416656249998368,
          "durationTicks": 74,
          "midi": 71,
          "name": "B4",
          "ticks": 147444,
          "time": 207.550468125,
          "velocity": 0.33858267716535434
        },
        {
          "duration": 2.1762365625000086,
          "durationTicks": 1546,
          "midi": 64,
          "name": "E4",
          "ticks": 147444,
          "time": 207.550468125,
          "velocity": 0.49606299212598426
        },
        {
          "duration": 2.1762365625000086,
          "durationTicks": 1546,
          "midi": 61,
          "name": "C#4",
          "ticks": 147444,
          "time": 207.550468125,
          "velocity": 0.5275590551181102
        },
        {
          "duration": 2.1762365625000086,
          "durationTicks": 1546,
          "midi": 57,
          "name": "A3",
          "ticks": 147444,
          "time": 207.550468125,
          "velocity": 0.5275590551181102
        },
        {
          "duration": 2.1762365625000086,
          "durationTicks": 1546,
          "midi": 54,
          "name": "F#3",
          "ticks": 147444,
          "time": 207.550468125,
          "velocity": 0.5590551181102362
        },
        {
          "duration": 2.1762365625000086,
          "durationTicks": 1546,
          "midi": 42,
          "name": "F#2",
          "ticks": 147444,
          "time": 207.550468125,
          "velocity": 0.5905511811023622
        },
        {
          "duration": 0.08727468750001321,
          "durationTicks": 62,
          "midi": 86,
          "name": "D6",
          "ticks": 147570,
          "time": 207.7278328125,
          "velocity": 0.2440944881889764
        },
        {
          "duration": 0.11261250000001155,
          "durationTicks": 80,
          "midi": 74,
          "name": "D5",
          "ticks": 147570,
          "time": 207.7278328125,
          "velocity": 0.33858267716535434
        },
        {
          "duration": 0.0929053124999939,
          "durationTicks": 66,
          "midi": 83,
          "name": "B5",
          "ticks": 147696,
          "time": 207.9051975,
          "velocity": 0.2440944881889764
        },
        {
          "duration": 0.11261249999998313,
          "durationTicks": 80,
          "midi": 71,
          "name": "B4",
          "ticks": 147696,
          "time": 207.9051975,
          "velocity": 0.33858267716535434
        },
        {
          "duration": 0.07882874999998535,
          "durationTicks": 56,
          "midi": 88,
          "name": "E6",
          "ticks": 147834,
          "time": 208.0994540625,
          "velocity": 0.2440944881889764
        },
        {
          "duration": 0.098535937500003,
          "durationTicks": 70,
          "midi": 76,
          "name": "E5",
          "ticks": 147834,
          "time": 208.0994540625,
          "velocity": 0.33858267716535434
        },
        {
          "duration": 0.08445937499999445,
          "durationTicks": 60,
          "midi": 85,
          "name": "C#6",
          "ticks": 147958,
          "time": 208.27400343750003,
          "velocity": 0.2440944881889764
        },
        {
          "duration": 0.10979718749999279,
          "durationTicks": 78,
          "midi": 73,
          "name": "C#5",
          "ticks": 147958,
          "time": 208.27400343750003,
          "velocity": 0.33858267716535434
        },
        {
          "duration": 0.076013437499995,
          "durationTicks": 54,
          "midi": 86,
          "name": "D6",
          "ticks": 148090,
          "time": 208.45981406250002,
          "velocity": 0.2440944881889764
        },
        {
          "duration": 0.10135124999999334,
          "durationTicks": 72,
          "midi": 74,
          "name": "D5",
          "ticks": 148090,
          "time": 208.45981406250002,
          "velocity": 0.33858267716535434
        },
        {
          "duration": 0.11261250000003997,
          "durationTicks": 80,
          "midi": 71,
          "name": "B4",
          "ticks": 148208,
          "time": 208.62591749999999,
          "velocity": 0.33858267716535434
        },
        {
          "duration": 0.0929053124999939,
          "durationTicks": 66,
          "midi": 86,
          "name": "D6",
          "ticks": 148336,
          "time": 208.80609750000002,
          "velocity": 0.2440944881889764
        },
        {
          "duration": 0.11542781249997347,
          "durationTicks": 82,
          "midi": 74,
          "name": "D5",
          "ticks": 148336,
          "time": 208.80609750000002,
          "velocity": 0.33858267716535434
        },
        {
          "duration": 0.07882875000004219,
          "durationTicks": 56,
          "midi": 83,
          "name": "B5",
          "ticks": 148472,
          "time": 208.99753875,
          "velocity": 0.2440944881889764
        },
        {
          "duration": 0.10135125000002176,
          "durationTicks": 72,
          "midi": 71,
          "name": "B4",
          "ticks": 148472,
          "time": 208.99753875,
          "velocity": 0.33858267716535434
        },
        {
          "duration": 0.08445937499999445,
          "durationTicks": 60,
          "midi": 88,
          "name": "E6",
          "ticks": 148594,
          "time": 209.16927281250003,
          "velocity": 0.2440944881889764
        },
        {
          "duration": 0.10979718749999279,
          "durationTicks": 78,
          "midi": 76,
          "name": "E5",
          "ticks": 148594,
          "time": 209.16927281250003,
          "velocity": 0.33858267716535434
        },
        {
          "duration": 0.08727468750001321,
          "durationTicks": 62,
          "midi": 85,
          "name": "C#6",
          "ticks": 148724,
          "time": 209.352268125,
          "velocity": 0.2440944881889764
        },
        {
          "duration": 0.10979718749999279,
          "durationTicks": 78,
          "midi": 73,
          "name": "C#5",
          "ticks": 148724,
          "time": 209.352268125,
          "velocity": 0.33858267716535434
        },
        {
          "duration": 0.07319812499997624,
          "durationTicks": 52,
          "midi": 86,
          "name": "D6",
          "ticks": 148858,
          "time": 209.54089406250003,
          "velocity": 0.2440944881889764
        },
        {
          "duration": 0.09853593749997458,
          "durationTicks": 70,
          "midi": 74,
          "name": "D5",
          "ticks": 148858,
          "time": 209.54089406250003,
          "velocity": 0.33858267716535434
        },
        {
          "duration": 0.09572062499998424,
          "durationTicks": 68,
          "midi": 71,
          "name": "B4",
          "ticks": 148990,
          "time": 209.72670468750002,
          "velocity": 0.33858267716535434
        },
        {
          "duration": 2.16216,
          "durationTicks": 1536,
          "midi": 66,
          "name": "F#4",
          "ticks": 148990,
          "time": 209.72670468750002,
          "velocity": 0.49606299212598426
        },
        {
          "duration": 2.16216,
          "durationTicks": 1536,
          "midi": 62,
          "name": "D4",
          "ticks": 148990,
          "time": 209.72670468750002,
          "velocity": 0.5275590551181102
        },
        {
          "duration": 2.16216,
          "durationTicks": 1536,
          "midi": 59,
          "name": "B3",
          "ticks": 148990,
          "time": 209.72670468750002,
          "velocity": 0.5275590551181102
        },
        {
          "duration": 2.16216,
          "durationTicks": 1536,
          "midi": 55,
          "name": "G3",
          "ticks": 148990,
          "time": 209.72670468750002,
          "velocity": 0.5590551181102362
        },
        {
          "duration": 2.16216,
          "durationTicks": 1536,
          "midi": 43,
          "name": "G2",
          "ticks": 148990,
          "time": 209.72670468750002,
          "velocity": 0.5905511811023622
        },
        {
          "duration": 0.08164406250003253,
          "durationTicks": 58,
          "midi": 86,
          "name": "D6",
          "ticks": 149114,
          "time": 209.9012540625,
          "velocity": 0.2440944881889764
        },
        {
          "duration": 0.09853593750003142,
          "durationTicks": 70,
          "midi": 74,
          "name": "D5",
          "ticks": 149114,
          "time": 209.9012540625,
          "velocity": 0.33858267716535434
        },
        {
          "duration": 0.07882874999998535,
          "durationTicks": 56,
          "midi": 83,
          "name": "B5",
          "ticks": 149242,
          "time": 210.08143406250002,
          "velocity": 0.2440944881889764
        },
        {
          "duration": 0.10135124999999334,
          "durationTicks": 72,
          "midi": 71,
          "name": "B4",
          "ticks": 149242,
          "time": 210.08143406250002,
          "velocity": 0.33858267716535434
        },
        {
          "duration": 0.0703828124999859,
          "durationTicks": 50,
          "midi": 88,
          "name": "E6",
          "ticks": 149374,
          "time": 210.2672446875,
          "velocity": 0.2440944881889764
        },
        {
          "duration": 0.09572062499998424,
          "durationTicks": 68,
          "midi": 76,
          "name": "E5",
          "ticks": 149374,
          "time": 210.2672446875,
          "velocity": 0.33858267716535434
        },
        {
          "duration": 0.0872746874999848,
          "durationTicks": 62,
          "midi": 85,
          "name": "C#6",
          "ticks": 149490,
          "time": 210.43053281250002,
          "velocity": 0.2440944881889764
        },
        {
          "duration": 0.11261249999998313,
          "durationTicks": 80,
          "midi": 73,
          "name": "C#5",
          "ticks": 149490,
          "time": 210.43053281250002,
          "velocity": 0.33858267716535434
        },
        {
          "duration": 0.07319812500000467,
          "durationTicks": 52,
          "midi": 86,
          "name": "D6",
          "ticks": 149628,
          "time": 210.624789375,
          "velocity": 0.2440944881889764
        },
        {
          "duration": 0.098535937500003,
          "durationTicks": 70,
          "midi": 74,
          "name": "D5",
          "ticks": 149628,
          "time": 210.624789375,
          "velocity": 0.33858267716535434
        },
        {
          "duration": 0.10979718750002121,
          "durationTicks": 78,
          "midi": 71,
          "name": "B4",
          "ticks": 149746,
          "time": 210.7908928125,
          "velocity": 0.33858267716535434
        },
        {
          "duration": 0.08164406250000411,
          "durationTicks": 58,
          "midi": 86,
          "name": "D6",
          "ticks": 149880,
          "time": 210.97951875,
          "velocity": 0.2440944881889764
        },
        {
          "duration": 0.10416656249998368,
          "durationTicks": 74,
          "midi": 74,
          "name": "D5",
          "ticks": 149880,
          "time": 210.97951875,
          "velocity": 0.33858267716535434
        },
        {
          "duration": 0.07882875000004219,
          "durationTicks": 56,
          "midi": 83,
          "name": "B5",
          "ticks": 150008,
          "time": 211.15969875,
          "velocity": 0.2440944881889764
        },
        {
          "duration": 0.10416656250004053,
          "durationTicks": 74,
          "midi": 71,
          "name": "B4",
          "ticks": 150008,
          "time": 211.15969875,
          "velocity": 0.33858267716535434
        },
        {
          "duration": 0.07319812500000467,
          "durationTicks": 52,
          "midi": 88,
          "name": "E6",
          "ticks": 150140,
          "time": 211.345509375,
          "velocity": 0.2440944881889764
        },
        {
          "duration": 0.09572062500001266,
          "durationTicks": 68,
          "midi": 76,
          "name": "E5",
          "ticks": 150140,
          "time": 211.345509375,
          "velocity": 0.33858267716535434
        },
        {
          "duration": 0.08727468750001321,
          "durationTicks": 62,
          "midi": 85,
          "name": "C#6",
          "ticks": 150260,
          "time": 211.514428125,
          "velocity": 0.2440944881889764
        },
        {
          "duration": 0.10698187500000245,
          "durationTicks": 76,
          "midi": 73,
          "name": "C#5",
          "ticks": 150260,
          "time": 211.514428125,
          "velocity": 0.33858267716535434
        },
        {
          "duration": 0.07319812499997624,
          "durationTicks": 52,
          "midi": 86,
          "name": "D6",
          "ticks": 150394,
          "time": 211.70305406250003,
          "velocity": 0.2440944881889764
        },
        {
          "duration": 0.09853593749997458,
          "durationTicks": 70,
          "midi": 74,
          "name": "D5",
          "ticks": 150394,
          "time": 211.70305406250003,
          "velocity": 0.33858267716535434
        },
        {
          "duration": 0.09572062499998424,
          "durationTicks": 68,
          "midi": 71,
          "name": "B4",
          "ticks": 150526,
          "time": 211.88886468750002,
          "velocity": 0.33858267716535434
        },
        {
          "duration": 2.16216,
          "durationTicks": 1536,
          "midi": 64,
          "name": "E4",
          "ticks": 150526,
          "time": 211.88886468750002,
          "velocity": 0.49606299212598426
        },
        {
          "duration": 2.16216,
          "durationTicks": 1536,
          "midi": 61,
          "name": "C#4",
          "ticks": 150526,
          "time": 211.88886468750002,
          "velocity": 0.5275590551181102
        },
        {
          "duration": 2.16216,
          "durationTicks": 1536,
          "midi": 57,
          "name": "A3",
          "ticks": 150526,
          "time": 211.88886468750002,
          "velocity": 0.5275590551181102
        },
        {
          "duration": 2.16216,
          "durationTicks": 1536,
          "midi": 54,
          "name": "F#3",
          "ticks": 150526,
          "time": 211.88886468750002,
          "velocity": 0.5590551181102362
        },
        {
          "duration": 2.16216,
          "durationTicks": 1536,
          "midi": 42,
          "name": "F#2",
          "ticks": 150526,
          "time": 211.88886468750002,
          "velocity": 0.5905511811023622
        },
        {
          "duration": 0.07882875000001377,
          "durationTicks": 56,
          "midi": 86,
          "name": "D6",
          "ticks": 150648,
          "time": 212.06059875,
          "velocity": 0.2440944881889764
        },
        {
          "duration": 0.10135125000002176,
          "durationTicks": 72,
          "midi": 74,
          "name": "D5",
          "ticks": 150648,
          "time": 212.06059875,
          "velocity": 0.33858267716535434
        },
        {
          "duration": 0.076013437499995,
          "durationTicks": 54,
          "midi": 83,
          "name": "B5",
          "ticks": 150780,
          "time": 212.246409375,
          "velocity": 0.2440944881889764
        },
        {
          "duration": 0.0929053124999939,
          "durationTicks": 66,
          "midi": 71,
          "name": "B4",
          "ticks": 150780,
          "time": 212.246409375,
          "velocity": 0.33858267716535434
        },
        {
          "duration": 0.07882874999998535,
          "durationTicks": 56,
          "midi": 88,
          "name": "E6",
          "ticks": 150904,
          "time": 212.42095875,
          "velocity": 0.2440944881889764
        },
        {
          "duration": 0.10416656249998368,
          "durationTicks": 74,
          "midi": 76,
          "name": "E5",
          "ticks": 150904,
          "time": 212.42095875,
          "velocity": 0.33858267716535434
        },
        {
          "duration": 0.08164406250000411,
          "durationTicks": 58,
          "midi": 85,
          "name": "C#6",
          "ticks": 151032,
          "time": 212.60113875000002,
          "velocity": 0.2440944881889764
        },
        {
          "duration": 0.10698187500000245,
          "durationTicks": 76,
          "midi": 73,
          "name": "C#5",
          "ticks": 151032,
          "time": 212.60113875000002,
          "velocity": 0.33858267716535434
        },
        {
          "duration": 0.09009000000000356,
          "durationTicks": 64,
          "midi": 86,
          "name": "D6",
          "ticks": 151154,
          "time": 212.7728728125,
          "velocity": 0.2440944881889764
        },
        {
          "duration": 0.11261250000001155,
          "durationTicks": 80,
          "midi": 74,
          "name": "D5",
          "ticks": 151154,
          "time": 212.7728728125,
          "velocity": 0.33858267716535434
        },
        {
          "duration": 0.10135124999999334,
          "durationTicks": 72,
          "midi": 71,
          "name": "B4",
          "ticks": 151288,
          "time": 212.96149875000003,
          "velocity": 0.33858267716535434
        },
        {
          "duration": 0.08727468750001321,
          "durationTicks": 62,
          "midi": 86,
          "name": "D6",
          "ticks": 151412,
          "time": 213.136048125,
          "velocity": 0.2440944881889764
        },
        {
          "duration": 0.10698187500000245,
          "durationTicks": 76,
          "midi": 74,
          "name": "D5",
          "ticks": 151412,
          "time": 213.136048125,
          "velocity": 0.30708661417322836
        },
        {
          "duration": 0.07601343750002343,
          "durationTicks": 54,
          "midi": 83,
          "name": "B5",
          "ticks": 151546,
          "time": 213.3246740625,
          "velocity": 0.2440944881889764
        },
        {
          "duration": 0.10135125000002176,
          "durationTicks": 72,
          "midi": 71,
          "name": "B4",
          "ticks": 151546,
          "time": 213.3246740625,
          "velocity": 0.30708661417322836
        },
        {
          "duration": 0.076013437499995,
          "durationTicks": 54,
          "midi": 88,
          "name": "E6",
          "ticks": 151674,
          "time": 213.50485406250002,
          "velocity": 0.2125984251968504
        },
        {
          "duration": 0.09572062499998424,
          "durationTicks": 68,
          "midi": 76,
          "name": "E5",
          "ticks": 151674,
          "time": 213.50485406250002,
          "velocity": 0.30708661417322836
        },
        {
          "duration": 0.08445937499999445,
          "durationTicks": 60,
          "midi": 85,
          "name": "C#6",
          "ticks": 151798,
          "time": 213.6794034375,
          "velocity": 0.2125984251968504
        },
        {
          "duration": 0.10416656249998368,
          "durationTicks": 74,
          "midi": 73,
          "name": "C#5",
          "ticks": 151798,
          "time": 213.6794034375,
          "velocity": 0.2755905511811024
        },
        {
          "duration": 0.076013437499995,
          "durationTicks": 54,
          "midi": 86,
          "name": "D6",
          "ticks": 151930,
          "time": 213.86521406250003,
          "velocity": 0.2125984251968504
        },
        {
          "duration": 0.09572062499998424,
          "durationTicks": 68,
          "midi": 74,
          "name": "D5",
          "ticks": 151930,
          "time": 213.86521406250003,
          "velocity": 0.2755905511811024
        },
        {
          "duration": 0.0929053124999939,
          "durationTicks": 66,
          "midi": 71,
          "name": "B4",
          "ticks": 152062,
          "time": 214.05102468750002,
          "velocity": 0.2755905511811024
        },
        {
          "duration": 1.0810800000000143,
          "durationTicks": 768,
          "midi": 66,
          "name": "F#4",
          "ticks": 152062,
          "time": 214.05102468750002,
          "velocity": 0.5590551181102362
        },
        {
          "duration": 1.0810800000000143,
          "durationTicks": 768,
          "midi": 62,
          "name": "D4",
          "ticks": 152062,
          "time": 214.05102468750002,
          "velocity": 0.5275590551181102
        },
        {
          "duration": 1.0810800000000143,
          "durationTicks": 768,
          "midi": 59,
          "name": "B3",
          "ticks": 152062,
          "time": 214.05102468750002,
          "velocity": 0.5275590551181102
        },
        {
          "duration": 1.0810800000000143,
          "durationTicks": 768,
          "midi": 55,
          "name": "G3",
          "ticks": 152062,
          "time": 214.05102468750002,
          "velocity": 0.5590551181102362
        },
        {
          "duration": 1.0810800000000143,
          "durationTicks": 768,
          "midi": 40,
          "name": "E2",
          "ticks": 152062,
          "time": 214.05102468750002,
          "velocity": 0.5905511811023622
        },
        {
          "duration": 0.08727468750001321,
          "durationTicks": 62,
          "midi": 86,
          "name": "D6",
          "ticks": 152178,
          "time": 214.2143128125,
          "velocity": 0.18110236220472442
        },
        {
          "duration": 0.11261250000001155,
          "durationTicks": 80,
          "midi": 74,
          "name": "D5",
          "ticks": 152178,
          "time": 214.2143128125,
          "velocity": 0.2755905511811024
        },
        {
          "duration": 0.07882874999998535,
          "durationTicks": 56,
          "midi": 83,
          "name": "B5",
          "ticks": 152314,
          "time": 214.40575406250002,
          "velocity": 0.18110236220472442
        },
        {
          "duration": 0.10135124999999334,
          "durationTicks": 72,
          "midi": 71,
          "name": "B4",
          "ticks": 152314,
          "time": 214.40575406250002,
          "velocity": 0.2440944881889764
        },
        {
          "duration": 0.08445937499999445,
          "durationTicks": 60,
          "midi": 88,
          "name": "E6",
          "ticks": 152434,
          "time": 214.5746728125,
          "velocity": 0.14960629921259844
        },
        {
          "duration": 0.10979718749999279,
          "durationTicks": 78,
          "midi": 76,
          "name": "E5",
          "ticks": 152434,
          "time": 214.5746728125,
          "velocity": 0.2440944881889764
        },
        {
          "duration": 0.08445937499999445,
          "durationTicks": 60,
          "midi": 85,
          "name": "C#6",
          "ticks": 152566,
          "time": 214.76048343750003,
          "velocity": 0.14960629921259844
        },
        {
          "duration": 0.10416656249998368,
          "durationTicks": 74,
          "midi": 73,
          "name": "C#5",
          "ticks": 152566,
          "time": 214.76048343750003,
          "velocity": 0.2440944881889764
        },
        {
          "duration": 0.07319812500000467,
          "durationTicks": 52,
          "midi": 86,
          "name": "D6",
          "ticks": 152700,
          "time": 214.949109375,
          "velocity": 0.14960629921259844
        },
        {
          "duration": 0.098535937500003,
          "durationTicks": 70,
          "midi": 74,
          "name": "D5",
          "ticks": 152700,
          "time": 214.949109375,
          "velocity": 0.2125984251968504
        },
        {
          "duration": 0.09008999999997513,
          "durationTicks": 64,
          "midi": 71,
          "name": "B4",
          "ticks": 152830,
          "time": 215.13210468750003,
          "velocity": 0.2125984251968504
        },
        {
          "duration": 1.0810799999999858,
          "durationTicks": 768,
          "midi": 64,
          "name": "E4",
          "ticks": 152830,
          "time": 215.13210468750003,
          "velocity": 0.49606299212598426
        },
        {
          "duration": 1.0810799999999858,
          "durationTicks": 768,
          "midi": 61,
          "name": "C#4",
          "ticks": 152830,
          "time": 215.13210468750003,
          "velocity": 0.5275590551181102
        },
        {
          "duration": 1.0810799999999858,
          "durationTicks": 768,
          "midi": 57,
          "name": "A3",
          "ticks": 152830,
          "time": 215.13210468750003,
          "velocity": 0.5275590551181102
        },
        {
          "duration": 1.0810799999999858,
          "durationTicks": 768,
          "midi": 54,
          "name": "F#3",
          "ticks": 152830,
          "time": 215.13210468750003,
          "velocity": 0.5590551181102362
        },
        {
          "duration": 1.0810799999999858,
          "durationTicks": 768,
          "midi": 42,
          "name": "F#2",
          "ticks": 152830,
          "time": 215.13210468750003,
          "velocity": 0.6535433070866141
        },
        {
          "duration": 0.07319812500000467,
          "durationTicks": 52,
          "midi": 86,
          "name": "D6",
          "ticks": 152954,
          "time": 215.3066540625,
          "velocity": 0.11811023622047244
        },
        {
          "duration": 0.098535937500003,
          "durationTicks": 70,
          "midi": 74,
          "name": "D5",
          "ticks": 152954,
          "time": 215.3066540625,
          "velocity": 0.2125984251968504
        },
        {
          "duration": 0.076013437499995,
          "durationTicks": 54,
          "midi": 83,
          "name": "B5",
          "ticks": 153080,
          "time": 215.48401875,
          "velocity": 0.11811023622047244
        },
        {
          "duration": 0.10416656250004053,
          "durationTicks": 74,
          "midi": 71,
          "name": "B4",
          "ticks": 153080,
          "time": 215.48401875,
          "velocity": 0.18110236220472442
        },
        {
          "duration": 0.07882874999998535,
          "durationTicks": 56,
          "midi": 88,
          "name": "E6",
          "ticks": 153208,
          "time": 215.66419875000003,
          "velocity": 0.08661417322834646
        },
        {
          "duration": 0.09853593749997458,
          "durationTicks": 70,
          "midi": 76,
          "name": "E5",
          "ticks": 153208,
          "time": 215.66419875000003,
          "velocity": 0.18110236220472442
        },
        {
          "duration": 0.07882874999998535,
          "durationTicks": 56,
          "midi": 85,
          "name": "C#6",
          "ticks": 153336,
          "time": 215.84437875,
          "velocity": 0.08661417322834646
        },
        {
          "duration": 0.10135124999999334,
          "durationTicks": 72,
          "midi": 73,
          "name": "C#5",
          "ticks": 153336,
          "time": 215.84437875,
          "velocity": 0.18110236220472442
        },
        {
          "duration": 0.09009000000000356,
          "durationTicks": 64,
          "midi": 86,
          "name": "D6",
          "ticks": 153458,
          "time": 216.0161128125,
          "velocity": 0.08661417322834646
        },
        {
          "duration": 0.11261250000001155,
          "durationTicks": 80,
          "midi": 74,
          "name": "D5",
          "ticks": 153458,
          "time": 216.0161128125,
          "velocity": 0.14960629921259844
        },
        {
          "duration": 0.09008999999997513,
          "durationTicks": 64,
          "midi": 71,
          "name": "B4",
          "ticks": 153598,
          "time": 216.21318468750002,
          "velocity": 0.14960629921259844
        },
        {
          "duration": 1.0670034374999773,
          "durationTicks": 758,
          "midi": 66,
          "name": "F#4",
          "ticks": 153598,
          "time": 216.21318468750002,
          "velocity": 0.49606299212598426
        },
        {
          "duration": 1.0670034374999773,
          "durationTicks": 758,
          "midi": 62,
          "name": "D4",
          "ticks": 153598,
          "time": 216.21318468750002,
          "velocity": 0.5275590551181102
        },
        {
          "duration": 1.0670034374999773,
          "durationTicks": 758,
          "midi": 59,
          "name": "B3",
          "ticks": 153598,
          "time": 216.21318468750002,
          "velocity": 0.5275590551181102
        },
        {
          "duration": 1.0670034374999773,
          "durationTicks": 758,
          "midi": 55,
          "name": "G3",
          "ticks": 153598,
          "time": 216.21318468750002,
          "velocity": 0.5590551181102362
        },
        {
          "duration": 1.0670034374999773,
          "durationTicks": 758,
          "midi": 43,
          "name": "G2",
          "ticks": 153598,
          "time": 216.21318468750002,
          "velocity": 0.6535433070866141
        },
        {
          "duration": 0.07882875000001377,
          "durationTicks": 56,
          "midi": 86,
          "name": "D6",
          "ticks": 153720,
          "time": 216.38491875,
          "velocity": 0.05511811023622047
        },
        {
          "duration": 0.10135125000002176,
          "durationTicks": 72,
          "midi": 74,
          "name": "D5",
          "ticks": 153720,
          "time": 216.38491875,
          "velocity": 0.14960629921259844
        },
        {
          "duration": 0.0929053124999939,
          "durationTicks": 66,
          "midi": 83,
          "name": "B5",
          "ticks": 153840,
          "time": 216.55383750000001,
          "velocity": 0.05511811023622047
        },
        {
          "duration": 0.11261249999998313,
          "durationTicks": 80,
          "midi": 71,
          "name": "B4",
          "ticks": 153840,
          "time": 216.55383750000001,
          "velocity": 0.11811023622047244
        },
        {
          "duration": 0.0872746874999848,
          "durationTicks": 62,
          "midi": 88,
          "name": "E6",
          "ticks": 153970,
          "time": 216.7368328125,
          "velocity": 0.05511811023622047
        },
        {
          "duration": 0.10979718749999279,
          "durationTicks": 78,
          "midi": 76,
          "name": "E5",
          "ticks": 153970,
          "time": 216.7368328125,
          "velocity": 0.11811023622047244
        },
        {
          "duration": 0.09008999999997513,
          "durationTicks": 64,
          "midi": 85,
          "name": "C#6",
          "ticks": 154096,
          "time": 216.91419750000003,
          "velocity": 0.023622047244094488
        },
        {
          "duration": 0.11261249999998313,
          "durationTicks": 80,
          "midi": 73,
          "name": "C#5",
          "ticks": 154096,
          "time": 216.91419750000003,
          "velocity": 0.11811023622047244
        },
        {
          "duration": 0.08727468750001321,
          "durationTicks": 62,
          "midi": 86,
          "name": "D6",
          "ticks": 154226,
          "time": 217.0971928125,
          "velocity": 0.023622047244094488
        },
        {
          "duration": 0.10979718749999279,
          "durationTicks": 78,
          "midi": 74,
          "name": "D5",
          "ticks": 154226,
          "time": 217.0971928125,
          "velocity": 0.08661417322834646
        },
        {
          "duration": 0.10698187500003087,
          "durationTicks": 76,
          "midi": 71,
          "name": "B4",
          "ticks": 154356,
          "time": 217.280188125,
          "velocity": 0.08661417322834646
        },
        {
          "duration": 1.0951565625000228,
          "durationTicks": 778,
          "midi": 64,
          "name": "E4",
          "ticks": 154356,
          "time": 217.280188125,
          "velocity": 0.5590551181102362
        },
        {
          "duration": 1.0951565625000228,
          "durationTicks": 778,
          "midi": 61,
          "name": "C#4",
          "ticks": 154356,
          "time": 217.280188125,
          "velocity": 0.5590551181102362
        },
        {
          "duration": 1.0951565625000228,
          "durationTicks": 778,
          "midi": 57,
          "name": "A3",
          "ticks": 154356,
          "time": 217.280188125,
          "velocity": 0.5905511811023622
        },
        {
          "duration": 1.0951565625000228,
          "durationTicks": 778,
          "midi": 45,
          "name": "A2",
          "ticks": 154356,
          "time": 217.280188125,
          "velocity": 0.5905511811023622
        },
        {
          "duration": 0.07882875000001377,
          "durationTicks": 56,
          "midi": 86,
          "name": "D6",
          "ticks": 154490,
          "time": 217.4688140625,
          "velocity": 0.023622047244094488
        },
        {
          "duration": 0.09572062500001266,
          "durationTicks": 68,
          "midi": 74,
          "name": "D5",
          "ticks": 154490,
          "time": 217.4688140625,
          "velocity": 0.08661417322834646
        },
        {
          "duration": 0.076013437499995,
          "durationTicks": 54,
          "midi": 83,
          "name": "B5",
          "ticks": 154616,
          "time": 217.64617875,
          "velocity": 0.023622047244094488
        },
        {
          "duration": 0.10135125000002176,
          "durationTicks": 72,
          "midi": 71,
          "name": "B4",
          "ticks": 154616,
          "time": 217.64617875,
          "velocity": 0.05511811023622047
        },
        {
          "duration": 0.0872746874999848,
          "durationTicks": 62,
          "midi": 88,
          "name": "E6",
          "ticks": 154738,
          "time": 217.81791281250003,
          "velocity": 0.023622047244094488
        },
        {
          "duration": 0.10979718749999279,
          "durationTicks": 78,
          "midi": 76,
          "name": "E5",
          "ticks": 154738,
          "time": 217.81791281250003,
          "velocity": 0.05511811023622047
        },
        {
          "duration": 0.08445937499999445,
          "durationTicks": 60,
          "midi": 85,
          "name": "C#6",
          "ticks": 154868,
          "time": 218.000908125,
          "velocity": 0.023622047244094488
        },
        {
          "duration": 0.10979718749999279,
          "durationTicks": 78,
          "midi": 73,
          "name": "C#5",
          "ticks": 154868,
          "time": 218.000908125,
          "velocity": 0.05511811023622047
        },
        {
          "duration": 0.076013437499995,
          "durationTicks": 54,
          "midi": 86,
          "name": "D6",
          "ticks": 155004,
          "time": 218.19234937500002,
          "velocity": 0.023622047244094488
        },
        {
          "duration": 0.09572062499998424,
          "durationTicks": 68,
          "midi": 74,
          "name": "D5",
          "ticks": 155004,
          "time": 218.19234937500002,
          "velocity": 0.05511811023622047
        },
        {
          "duration": 0.09008999999997513,
          "durationTicks": 64,
          "midi": 71,
          "name": "B4",
          "ticks": 155134,
          "time": 218.37534468750002,
          "velocity": 0.023622047244094488
        },
        {
          "duration": 1.0670034374999773,
          "durationTicks": 758,
          "midi": 66,
          "name": "F#4",
          "ticks": 155134,
          "time": 218.37534468750002,
          "velocity": 0.5590551181102362
        },
        {
          "duration": 1.0670034374999773,
          "durationTicks": 758,
          "midi": 62,
          "name": "D4",
          "ticks": 155134,
          "time": 218.37534468750002,
          "velocity": 0.5275590551181102
        },
        {
          "duration": 1.0670034374999773,
          "durationTicks": 758,
          "midi": 59,
          "name": "B3",
          "ticks": 155134,
          "time": 218.37534468750002,
          "velocity": 0.5275590551181102
        },
        {
          "duration": 1.0670034374999773,
          "durationTicks": 758,
          "midi": 55,
          "name": "G3",
          "ticks": 155134,
          "time": 218.37534468750002,
          "velocity": 0.5590551181102362
        },
        {
          "duration": 1.0670034374999773,
          "durationTicks": 758,
          "midi": 40,
          "name": "E2",
          "ticks": 155134,
          "time": 218.37534468750002,
          "velocity": 0.5905511811023622
        },
        {
          "duration": 0.07601343750002343,
          "durationTicks": 54,
          "midi": 86,
          "name": "D6",
          "ticks": 155258,
          "time": 218.5498940625,
          "velocity": 0.023622047244094488
        },
        {
          "duration": 0.10135125000002176,
          "durationTicks": 72,
          "midi": 74,
          "name": "D5",
          "ticks": 155258,
          "time": 218.5498940625,
          "velocity": 0.023622047244094488
        },
        {
          "duration": 0.07882875000001377,
          "durationTicks": 56,
          "midi": 83,
          "name": "B5",
          "ticks": 155384,
          "time": 218.72725875,
          "velocity": 0.023622047244094488
        },
        {
          "duration": 0.1041665625000121,
          "durationTicks": 74,
          "midi": 71,
          "name": "B4",
          "ticks": 155384,
          "time": 218.72725875,
          "velocity": 0.023622047244094488
        },
        {
          "duration": 0.09572062500001266,
          "durationTicks": 68,
          "midi": 88,
          "name": "E6",
          "ticks": 155504,
          "time": 218.8961775,
          "velocity": 0.023622047244094488
        },
        {
          "duration": 0.11824312499999223,
          "durationTicks": 84,
          "midi": 76,
          "name": "E5",
          "ticks": 155504,
          "time": 218.8961775,
          "velocity": 0.023622047244094488
        },
        {
          "duration": 0.08727468750001321,
          "durationTicks": 62,
          "midi": 85,
          "name": "C#6",
          "ticks": 155636,
          "time": 219.081988125,
          "velocity": 0.023622047244094488
        },
        {
          "duration": 0.1041665625000121,
          "durationTicks": 74,
          "midi": 73,
          "name": "C#5",
          "ticks": 155636,
          "time": 219.081988125,
          "velocity": 0.023622047244094488
        },
        {
          "duration": 0.07038281250001432,
          "durationTicks": 50,
          "midi": 86,
          "name": "D6",
          "ticks": 155774,
          "time": 219.2762446875,
          "velocity": 0.023622047244094488
        },
        {
          "duration": 0.09572062500001266,
          "durationTicks": 68,
          "midi": 74,
          "name": "D5",
          "ticks": 155774,
          "time": 219.2762446875,
          "velocity": 0.023622047244094488
        },
        {
          "duration": 0.10698187500003087,
          "durationTicks": 76,
          "midi": 71,
          "name": "B4",
          "ticks": 155892,
          "time": 219.442348125,
          "velocity": 0.023622047244094488
        },
        {
          "duration": 1.0951565625000228,
          "durationTicks": 778,
          "midi": 64,
          "name": "E4",
          "ticks": 155892,
          "time": 219.442348125,
          "velocity": 0.49606299212598426
        },
        {
          "duration": 1.0951565625000228,
          "durationTicks": 778,
          "midi": 61,
          "name": "C#4",
          "ticks": 155892,
          "time": 219.442348125,
          "velocity": 0.5275590551181102
        },
        {
          "duration": 1.0951565625000228,
          "durationTicks": 778,
          "midi": 57,
          "name": "A3",
          "ticks": 155892,
          "time": 219.442348125,
          "velocity": 0.5275590551181102
        },
        {
          "duration": 1.0951565625000228,
          "durationTicks": 778,
          "midi": 54,
          "name": "F#3",
          "ticks": 155892,
          "time": 219.442348125,
          "velocity": 0.5590551181102362
        },
        {
          "duration": 1.0951565625000228,
          "durationTicks": 778,
          "midi": 42,
          "name": "F#2",
          "ticks": 155892,
          "time": 219.442348125,
          "velocity": 0.6535433070866141
        },
        {
          "duration": 0.09008999999997513,
          "durationTicks": 64,
          "midi": 86,
          "name": "D6",
          "ticks": 156016,
          "time": 219.61689750000002,
          "velocity": 0.023622047244094488
        },
        {
          "duration": 0.11542781249997347,
          "durationTicks": 82,
          "midi": 74,
          "name": "D5",
          "ticks": 156016,
          "time": 219.61689750000002,
          "velocity": 0.023622047244094488
        },
        {
          "duration": 0.09009000000003198,
          "durationTicks": 64,
          "midi": 83,
          "name": "B5",
          "ticks": 156144,
          "time": 219.7970775,
          "velocity": 0.023622047244094488
        },
        {
          "duration": 0.11261250000001155,
          "durationTicks": 80,
          "midi": 71,
          "name": "B4",
          "ticks": 156144,
          "time": 219.7970775,
          "velocity": 0.023622047244094488
        },
        {
          "duration": 0.09008999999997513,
          "durationTicks": 64,
          "midi": 88,
          "name": "E6",
          "ticks": 156274,
          "time": 219.98007281250003,
          "velocity": 0.023622047244094488
        },
        {
          "duration": 0.10979718749999279,
          "durationTicks": 78,
          "midi": 76,
          "name": "E5",
          "ticks": 156274,
          "time": 219.98007281250003,
          "velocity": 0.023622047244094488
        },
        {
          "duration": 0.08445937499999445,
          "durationTicks": 60,
          "midi": 85,
          "name": "C#6",
          "ticks": 156404,
          "time": 220.163068125,
          "velocity": 0.023622047244094488
        },
        {
          "duration": 0.10698187500000245,
          "durationTicks": 76,
          "midi": 73,
          "name": "C#5",
          "ticks": 156404,
          "time": 220.163068125,
          "velocity": 0.023622047244094488
        },
        {
          "duration": 0.07319812500000467,
          "durationTicks": 52,
          "midi": 86,
          "name": "D6",
          "ticks": 156542,
          "time": 220.3573246875,
          "velocity": 0.023622047244094488
        },
        {
          "duration": 0.09572062500001266,
          "durationTicks": 68,
          "midi": 74,
          "name": "D5",
          "ticks": 156542,
          "time": 220.3573246875,
          "velocity": 0.023622047244094488
        },
        {
          "duration": 0.09572062499998424,
          "durationTicks": 68,
          "midi": 71,
          "name": "B4",
          "ticks": 156670,
          "time": 220.53750468750002,
          "velocity": 0.023622047244094488
        },
        {
          "duration": 1.064188124999987,
          "durationTicks": 756,
          "midi": 66,
          "name": "F#4",
          "ticks": 156670,
          "time": 220.53750468750002,
          "velocity": 0.49606299212598426
        },
        {
          "duration": 1.064188124999987,
          "durationTicks": 756,
          "midi": 62,
          "name": "D4",
          "ticks": 156670,
          "time": 220.53750468750002,
          "velocity": 0.5275590551181102
        },
        {
          "duration": 1.064188124999987,
          "durationTicks": 756,
          "midi": 59,
          "name": "B3",
          "ticks": 156670,
          "time": 220.53750468750002,
          "velocity": 0.5275590551181102
        },
        {
          "duration": 1.064188124999987,
          "durationTicks": 756,
          "midi": 55,
          "name": "G3",
          "ticks": 156670,
          "time": 220.53750468750002,
          "velocity": 0.5590551181102362
        },
        {
          "duration": 1.064188124999987,
          "durationTicks": 756,
          "midi": 43,
          "name": "G2",
          "ticks": 156670,
          "time": 220.53750468750002,
          "velocity": 0.6535433070866141
        },
        {
          "duration": 0.09290531250002232,
          "durationTicks": 66,
          "midi": 86,
          "name": "D6",
          "ticks": 156786,
          "time": 220.7007928125,
          "velocity": 0.023622047244094488
        },
        {
          "duration": 0.11261250000001155,
          "durationTicks": 80,
          "midi": 74,
          "name": "D5",
          "ticks": 156786,
          "time": 220.7007928125,
          "velocity": 0.023622047244094488
        },
        {
          "duration": 0.08164406250000411,
          "durationTicks": 58,
          "midi": 83,
          "name": "B5",
          "ticks": 156920,
          "time": 220.88941875,
          "velocity": 0.023622047244094488
        },
        {
          "duration": 0.10135124999999334,
          "durationTicks": 72,
          "midi": 71,
          "name": "B4",
          "ticks": 156920,
          "time": 220.88941875,
          "velocity": 0.023622047244094488
        },
        {
          "duration": 0.07319812500000467,
          "durationTicks": 52,
          "midi": 88,
          "name": "E6",
          "ticks": 157050,
          "time": 221.0724140625,
          "velocity": 0.023622047244094488
        },
        {
          "duration": 0.09572062499998424,
          "durationTicks": 68,
          "midi": 76,
          "name": "E5",
          "ticks": 157050,
          "time": 221.0724140625,
          "velocity": 0.023622047244094488
        },
        {
          "duration": 0.08445937499999445,
          "durationTicks": 60,
          "midi": 85,
          "name": "C#6",
          "ticks": 157172,
          "time": 221.244148125,
          "velocity": 0.023622047244094488
        },
        {
          "duration": 0.10698187500000245,
          "durationTicks": 76,
          "midi": 73,
          "name": "C#5",
          "ticks": 157172,
          "time": 221.244148125,
          "velocity": 0.023622047244094488
        },
        {
          "duration": 0.07319812500000467,
          "durationTicks": 52,
          "midi": 86,
          "name": "D6",
          "ticks": 157308,
          "time": 221.435589375,
          "velocity": 0.023622047244094488
        },
        {
          "duration": 0.09572062499998424,
          "durationTicks": 68,
          "midi": 74,
          "name": "D5",
          "ticks": 157308,
          "time": 221.435589375,
          "velocity": 0.023622047244094488
        },
        {
          "duration": 0.10979718750002121,
          "durationTicks": 78,
          "midi": 71,
          "name": "B4",
          "ticks": 157426,
          "time": 221.6016928125,
          "velocity": 0.023622047244094488
        },
        {
          "duration": 1.2640753124999833,
          "durationTicks": 898,
          "midi": 64,
          "name": "E4",
          "ticks": 157426,
          "time": 221.6016928125,
          "velocity": 0.5590551181102362
        },
        {
          "duration": 1.2640753124999833,
          "durationTicks": 898,
          "midi": 61,
          "name": "C#4",
          "ticks": 157426,
          "time": 221.6016928125,
          "velocity": 0.5590551181102362
        },
        {
          "duration": 1.2640753124999833,
          "durationTicks": 898,
          "midi": 57,
          "name": "A3",
          "ticks": 157426,
          "time": 221.6016928125,
          "velocity": 0.5905511811023622
        },
        {
          "duration": 1.2640753124999833,
          "durationTicks": 898,
          "midi": 45,
          "name": "A2",
          "ticks": 157426,
          "time": 221.6016928125,
          "velocity": 0.5905511811023622
        },
        {
          "duration": 0.07882875000001377,
          "durationTicks": 56,
          "midi": 86,
          "name": "D6",
          "ticks": 157562,
          "time": 221.7931340625,
          "velocity": 0.023622047244094488
        },
        {
          "duration": 0.10135124999999334,
          "durationTicks": 72,
          "midi": 74,
          "name": "D5",
          "ticks": 157562,
          "time": 221.7931340625,
          "velocity": 0.023622047244094488
        },
        {
          "duration": 0.07882874999998535,
          "durationTicks": 56,
          "midi": 83,
          "name": "B5",
          "ticks": 157690,
          "time": 221.9733140625,
          "velocity": 0.023622047244094488
        },
        {
          "duration": 0.10135125000002176,
          "durationTicks": 72,
          "midi": 71,
          "name": "B4",
          "ticks": 157690,
          "time": 221.9733140625,
          "velocity": 0.023622047244094488
        },
        {
          "duration": 0.07319812500000467,
          "durationTicks": 52,
          "midi": 88,
          "name": "E6",
          "ticks": 157820,
          "time": 222.156309375,
          "velocity": 0.023622047244094488
        },
        {
          "duration": 0.09572062500001266,
          "durationTicks": 68,
          "midi": 76,
          "name": "E5",
          "ticks": 157820,
          "time": 222.156309375,
          "velocity": 0.023622047244094488
        },
        {
          "duration": 0.0929053124999939,
          "durationTicks": 66,
          "midi": 85,
          "name": "C#6",
          "ticks": 157936,
          "time": 222.31959750000001,
          "velocity": 0.023622047244094488
        },
        {
          "duration": 0.11261249999998313,
          "durationTicks": 80,
          "midi": 73,
          "name": "C#5",
          "ticks": 157936,
          "time": 222.31959750000001,
          "velocity": 0.023622047244094488
        },
        {
          "duration": 0.08164406249997569,
          "durationTicks": 58,
          "midi": 86,
          "name": "D6",
          "ticks": 158068,
          "time": 222.50540812500003,
          "velocity": 0.023622047244094488
        },
        {
          "duration": 0.10698187499997402,
          "durationTicks": 76,
          "midi": 74,
          "name": "D5",
          "ticks": 158068,
          "time": 222.50540812500003,
          "velocity": 0.023622047244094488
        }
      ],
      "endOfTrackTicks": 161280
    },
    {
      "channel": 2,
      "controlChanges": {},
      "pitchBends": [],
      "instrument": {
        "family": "synth lead",
        "number": 81,
        "name": "lead 2 (sawtooth)"
      },
      "name": "",
      "notes": [
        {
          "duration": 0.03378374999999778,
          "durationTicks": 24,
          "midi": 62,
          "name": "D4",
          "ticks": 69240,
          "time": 97.46611875,
          "velocity": 0.6850393700787402
        },
        {
          "duration": 0.056306249999991564,
          "durationTicks": 40,
          "midi": 59,
          "name": "B3",
          "ticks": 69240,
          "time": 97.46611875,
          "velocity": 0.7165354330708661
        },
        {
          "duration": 0.07038281250000011,
          "durationTicks": 50,
          "midi": 59,
          "name": "B3",
          "ticks": 69360,
          "time": 97.63503750000001,
          "velocity": 0.7480314960629921
        },
        {
          "duration": 0.056306250000019986,
          "durationTicks": 40,
          "midi": 62,
          "name": "D4",
          "ticks": 69496,
          "time": 97.82647874999999,
          "velocity": 0.6850393700787402
        },
        {
          "duration": 0.056306250000019986,
          "durationTicks": 40,
          "midi": 59,
          "name": "B3",
          "ticks": 69496,
          "time": 97.82647874999999,
          "velocity": 0.7480314960629921
        },
        {
          "duration": 0.05912156250001033,
          "durationTicks": 42,
          "midi": 62,
          "name": "D4",
          "ticks": 69622,
          "time": 98.0038434375,
          "velocity": 0.7165354330708661
        },
        {
          "duration": 0.05912156250001033,
          "durationTicks": 42,
          "midi": 59,
          "name": "B3",
          "ticks": 69622,
          "time": 98.0038434375,
          "velocity": 0.7165354330708661
        },
        {
          "duration": 0.03659906250000233,
          "durationTicks": 26,
          "midi": 59,
          "name": "B3",
          "ticks": 69750,
          "time": 98.1840234375,
          "velocity": 0.7165354330708661
        },
        {
          "duration": 0.05349093750000122,
          "durationTicks": 38,
          "midi": 62,
          "name": "D4",
          "ticks": 69880,
          "time": 98.36701875,
          "velocity": 0.6850393700787402
        },
        {
          "duration": 0.05349093750000122,
          "durationTicks": 38,
          "midi": 59,
          "name": "B3",
          "ticks": 69880,
          "time": 98.36701875,
          "velocity": 0.7480314960629921
        },
        {
          "duration": 0.06756749999999556,
          "durationTicks": 48,
          "midi": 62,
          "name": "D4",
          "ticks": 70000,
          "time": 98.5359375,
          "velocity": 0.7480314960629921
        },
        {
          "duration": 0.06756749999999556,
          "durationTicks": 48,
          "midi": 59,
          "name": "B3",
          "ticks": 70000,
          "time": 98.5359375,
          "velocity": 0.7165354330708661
        },
        {
          "duration": 0.03659906250000233,
          "durationTicks": 26,
          "midi": 59,
          "name": "B3",
          "ticks": 70134,
          "time": 98.72456343750001,
          "velocity": 0.7480314960629921
        },
        {
          "duration": 0.03096843750000744,
          "durationTicks": 22,
          "midi": 62,
          "name": "D4",
          "ticks": 70266,
          "time": 98.9103740625,
          "velocity": 0.7480314960629921
        },
        {
          "duration": 0.03096843750000744,
          "durationTicks": 22,
          "midi": 59,
          "name": "B3",
          "ticks": 70266,
          "time": 98.9103740625,
          "velocity": 0.6850393700787402
        },
        {
          "duration": 0.06475218750000522,
          "durationTicks": 46,
          "midi": 62,
          "name": "D4",
          "ticks": 70388,
          "time": 99.082108125,
          "velocity": 0.6850393700787402
        },
        {
          "duration": 0.06475218750000522,
          "durationTicks": 46,
          "midi": 59,
          "name": "B3",
          "ticks": 70388,
          "time": 99.082108125,
          "velocity": 0.7165354330708661
        },
        {
          "duration": 0.059121562499996116,
          "durationTicks": 42,
          "midi": 59,
          "name": "B3",
          "ticks": 70518,
          "time": 99.2651034375,
          "velocity": 0.7480314960629921
        },
        {
          "duration": 0.03659906250000233,
          "durationTicks": 26,
          "midi": 62,
          "name": "D4",
          "ticks": 70648,
          "time": 99.44809875,
          "velocity": 0.7165354330708661
        },
        {
          "duration": 0.03659906250000233,
          "durationTicks": 26,
          "midi": 59,
          "name": "B3",
          "ticks": 70648,
          "time": 99.44809875,
          "velocity": 0.7165354330708661
        },
        {
          "duration": 0.05067562499999667,
          "durationTicks": 36,
          "midi": 62,
          "name": "D4",
          "ticks": 70778,
          "time": 99.63109406250001,
          "velocity": 0.6850393700787402
        },
        {
          "duration": 0.05067562499999667,
          "durationTicks": 36,
          "midi": 57,
          "name": "A3",
          "ticks": 70778,
          "time": 99.63109406250001,
          "velocity": 0.6850393700787402
        },
        {
          "duration": 0.07038281250000011,
          "durationTicks": 50,
          "midi": 57,
          "name": "A3",
          "ticks": 70896,
          "time": 99.79719750000001,
          "velocity": 0.7165354330708661
        },
        {
          "duration": 0.04786031250000633,
          "durationTicks": 34,
          "midi": 57,
          "name": "A3",
          "ticks": 71040,
          "time": 99.9999,
          "velocity": 0.7165354330708661
        },
        {
          "duration": 0.04786031250000633,
          "durationTicks": 34,
          "midi": 62,
          "name": "D4",
          "ticks": 71040,
          "time": 99.9999,
          "velocity": 0.7480314960629921
        },
        {
          "duration": 0.042229687499997226,
          "durationTicks": 30,
          "midi": 62,
          "name": "D4",
          "ticks": 71156,
          "time": 100.163188125,
          "velocity": 0.7480314960629921
        },
        {
          "duration": 0.06193687500000067,
          "durationTicks": 44,
          "midi": 57,
          "name": "A3",
          "ticks": 71156,
          "time": 100.163188125,
          "velocity": 0.7480314960629921
        },
        {
          "duration": 0.04786031249999212,
          "durationTicks": 34,
          "midi": 57,
          "name": "A3",
          "ticks": 71280,
          "time": 100.3377375,
          "velocity": 0.7480314960629921
        },
        {
          "duration": 0.03378374999999778,
          "durationTicks": 24,
          "midi": 61,
          "name": "C#4",
          "ticks": 71416,
          "time": 100.52917875,
          "velocity": 0.7480314960629921
        },
        {
          "duration": 0.056306250000005775,
          "durationTicks": 40,
          "midi": 57,
          "name": "A3",
          "ticks": 71416,
          "time": 100.52917875,
          "velocity": 0.7165354330708661
        },
        {
          "duration": 0.025337812499998336,
          "durationTicks": 18,
          "midi": 61,
          "name": "C#4",
          "ticks": 71550,
          "time": 100.7178046875,
          "velocity": 0.7165354330708661
        },
        {
          "duration": 0.025337812499998336,
          "durationTicks": 18,
          "midi": 57,
          "name": "A3",
          "ticks": 71550,
          "time": 100.7178046875,
          "velocity": 0.6850393700787402
        },
        {
          "duration": 0.06193687500000067,
          "durationTicks": 44,
          "midi": 57,
          "name": "A3",
          "ticks": 71668,
          "time": 100.883908125,
          "velocity": 0.7165354330708661
        },
        {
          "duration": 0.06756750000000977,
          "durationTicks": 48,
          "midi": 61,
          "name": "C#4",
          "ticks": 71794,
          "time": 101.0612728125,
          "velocity": 0.6850393700787402
        },
        {
          "duration": 0.06756750000000977,
          "durationTicks": 48,
          "midi": 57,
          "name": "A3",
          "ticks": 71794,
          "time": 101.0612728125,
          "velocity": 0.7165354330708661
        },
        {
          "duration": 0.06756750000000977,
          "durationTicks": 48,
          "midi": 61,
          "name": "C#4",
          "ticks": 71920,
          "time": 101.2386375,
          "velocity": 0.7165354330708661
        },
        {
          "duration": 0.06756750000000977,
          "durationTicks": 48,
          "midi": 57,
          "name": "A3",
          "ticks": 71920,
          "time": 101.2386375,
          "velocity": 0.7165354330708661
        },
        {
          "duration": 0.042229687499997226,
          "durationTicks": 30,
          "midi": 57,
          "name": "A3",
          "ticks": 72050,
          "time": 101.42163281250001,
          "velocity": 0.6850393700787402
        },
        {
          "duration": 0.028153125000002888,
          "durationTicks": 20,
          "midi": 62,
          "name": "D4",
          "ticks": 72190,
          "time": 101.6187046875,
          "velocity": 0.6850393700787402
        },
        {
          "duration": 0.04786031250000633,
          "durationTicks": 34,
          "midi": 59,
          "name": "B3",
          "ticks": 72190,
          "time": 101.6187046875,
          "velocity": 0.7480314960629921
        },
        {
          "duration": 0.06756749999999556,
          "durationTicks": 48,
          "midi": 62,
          "name": "D4",
          "ticks": 72304,
          "time": 101.7791775,
          "velocity": 0.6850393700787402
        },
        {
          "duration": 0.04504500000000178,
          "durationTicks": 32,
          "midi": 59,
          "name": "B3",
          "ticks": 72304,
          "time": 101.7791775,
          "velocity": 0.6850393700787402
        },
        {
          "duration": 0.03659906250000233,
          "durationTicks": 26,
          "midi": 59,
          "name": "B3",
          "ticks": 72438,
          "time": 101.96780343750001,
          "velocity": 0.7165354330708661
        },
        {
          "duration": 0.06756750000000977,
          "durationTicks": 48,
          "midi": 62,
          "name": "D4",
          "ticks": 72562,
          "time": 102.1423528125,
          "velocity": 0.7165354330708661
        },
        {
          "duration": 0.06756750000000977,
          "durationTicks": 48,
          "midi": 59,
          "name": "B3",
          "ticks": 72562,
          "time": 102.1423528125,
          "velocity": 0.7165354330708661
        },
        {
          "duration": 0.06475218750000522,
          "durationTicks": 46,
          "midi": 62,
          "name": "D4",
          "ticks": 72690,
          "time": 102.3225328125,
          "velocity": 0.7165354330708661
        },
        {
          "duration": 0.042229687499997226,
          "durationTicks": 30,
          "midi": 59,
          "name": "B3",
          "ticks": 72690,
          "time": 102.3225328125,
          "velocity": 0.7480314960629921
        },
        {
          "duration": 0.039414374999992674,
          "durationTicks": 28,
          "midi": 59,
          "name": "B3",
          "ticks": 72822,
          "time": 102.5083434375,
          "velocity": 0.7480314960629921
        },
        {
          "duration": 0.05349093750000122,
          "durationTicks": 38,
          "midi": 62,
          "name": "D4",
          "ticks": 72954,
          "time": 102.6941540625,
          "velocity": 0.7165354330708661
        },
        {
          "duration": 0.05349093750000122,
          "durationTicks": 38,
          "midi": 59,
          "name": "B3",
          "ticks": 72954,
          "time": 102.6941540625,
          "velocity": 0.7165354330708661
        },
        {
          "duration": 0.04786031250000633,
          "durationTicks": 34,
          "midi": 62,
          "name": "D4",
          "ticks": 73072,
          "time": 102.8602575,
          "velocity": 0.6850393700787402
        },
        {
          "duration": 0.04786031250000633,
          "durationTicks": 34,
          "midi": 59,
          "name": "B3",
          "ticks": 73072,
          "time": 102.8602575,
          "velocity": 0.6850393700787402
        },
        {
          "duration": 0.04504500000000178,
          "durationTicks": 32,
          "midi": 59,
          "name": "B3",
          "ticks": 73200,
          "time": 103.04043750000001,
          "velocity": 0.7480314960629921
        },
        {
          "duration": 0.04222968750001144,
          "durationTicks": 30,
          "midi": 62,
          "name": "D4",
          "ticks": 73330,
          "time": 103.2234328125,
          "velocity": 0.6850393700787402
        },
        {
          "duration": 0.06756750000000977,
          "durationTicks": 48,
          "midi": 59,
          "name": "B3",
          "ticks": 73330,
          "time": 103.2234328125,
          "velocity": 0.7165354330708661
        },
        {
          "duration": 0.03659906250000233,
          "durationTicks": 26,
          "midi": 62,
          "name": "D4",
          "ticks": 73462,
          "time": 103.4092434375,
          "velocity": 0.6850393700787402
        },
        {
          "duration": 0.05912156250001033,
          "durationTicks": 42,
          "midi": 59,
          "name": "B3",
          "ticks": 73462,
          "time": 103.4092434375,
          "velocity": 0.6850393700787402
        },
        {
          "duration": 0.056306249999991564,
          "durationTicks": 40,
          "midi": 59,
          "name": "B3",
          "ticks": 73592,
          "time": 103.59223875,
          "velocity": 0.7165354330708661
        },
        {
          "duration": 0.03659906249998812,
          "durationTicks": 26,
          "midi": 62,
          "name": "D4",
          "ticks": 73718,
          "time": 103.76960343750001,
          "velocity": 0.7165354330708661
        },
        {
          "duration": 0.06475218749999101,
          "durationTicks": 46,
          "midi": 59,
          "name": "B3",
          "ticks": 73718,
          "time": 103.76960343750001,
          "velocity": 0.7165354330708661
        },
        {
          "duration": 0.06475218750000522,
          "durationTicks": 46,
          "midi": 62,
          "name": "D4",
          "ticks": 73840,
          "time": 103.9413375,
          "velocity": 0.7480314960629921
        },
        {
          "duration": 0.06475218750000522,
          "durationTicks": 46,
          "midi": 57,
          "name": "A3",
          "ticks": 73840,
          "time": 103.9413375,
          "velocity": 0.7480314960629921
        },
        {
          "duration": 0.039414375000006885,
          "durationTicks": 28,
          "midi": 57,
          "name": "A3",
          "ticks": 73972,
          "time": 104.127148125,
          "velocity": 0.7165354330708661
        },
        {
          "duration": 0.04222968750001144,
          "durationTicks": 30,
          "midi": 62,
          "name": "D4",
          "ticks": 74098,
          "time": 104.3045128125,
          "velocity": 0.6850393700787402
        },
        {
          "duration": 0.06475218750001943,
          "durationTicks": 46,
          "midi": 57,
          "name": "A3",
          "ticks": 74098,
          "time": 104.3045128125,
          "velocity": 0.7480314960629921
        },
        {
          "duration": 0.06193687500000067,
          "durationTicks": 44,
          "midi": 62,
          "name": "D4",
          "ticks": 74228,
          "time": 104.487508125,
          "velocity": 0.7165354330708661
        },
        {
          "duration": 0.06193687500000067,
          "durationTicks": 44,
          "midi": 57,
          "name": "A3",
          "ticks": 74228,
          "time": 104.487508125,
          "velocity": 0.6850393700787402
        },
        {
          "duration": 0.06193687500000067,
          "durationTicks": 44,
          "midi": 57,
          "name": "A3",
          "ticks": 74358,
          "time": 104.6705034375,
          "velocity": 0.6850393700787402
        },
        {
          "duration": 0.03659906249998812,
          "durationTicks": 26,
          "midi": 62,
          "name": "D4",
          "ticks": 74486,
          "time": 104.85068343750001,
          "velocity": 0.7480314960629921
        },
        {
          "duration": 0.059121562499996116,
          "durationTicks": 42,
          "midi": 57,
          "name": "A3",
          "ticks": 74486,
          "time": 104.85068343750001,
          "velocity": 0.6850393700787402
        },
        {
          "duration": 0.042229687499997226,
          "durationTicks": 30,
          "midi": 61,
          "name": "C#4",
          "ticks": 74610,
          "time": 105.02523281250001,
          "velocity": 0.7480314960629921
        },
        {
          "duration": 0.06475218749999101,
          "durationTicks": 46,
          "midi": 57,
          "name": "A3",
          "ticks": 74610,
          "time": 105.02523281250001,
          "velocity": 0.7165354330708661
        },
        {
          "duration": 0.06475218750000522,
          "durationTicks": 46,
          "midi": 57,
          "name": "A3",
          "ticks": 74740,
          "time": 105.208228125,
          "velocity": 0.7480314960629921
        },
        {
          "duration": 0.04786031250002054,
          "durationTicks": 34,
          "midi": 61,
          "name": "C#4",
          "ticks": 74878,
          "time": 105.40248468749999,
          "velocity": 0.6850393700787402
        },
        {
          "duration": 0.0014076562500235923,
          "durationTicks": 1,
          "midi": 57,
          "name": "A3",
          "ticks": 74878,
          "time": 105.40248468749999,
          "velocity": 0.7165354330708661
        },
        {
          "duration": 0.04504500000000178,
          "durationTicks": 32,
          "midi": 61,
          "name": "C#4",
          "ticks": 74992,
          "time": 105.5629575,
          "velocity": 0.7480314960629921
        },
        {
          "duration": 0.06756750000000977,
          "durationTicks": 48,
          "midi": 57,
          "name": "A3",
          "ticks": 74992,
          "time": 105.5629575,
          "velocity": 0.7480314960629921
        },
        {
          "duration": 0.05067562499999667,
          "durationTicks": 36,
          "midi": 57,
          "name": "A3",
          "ticks": 75132,
          "time": 105.760029375,
          "velocity": 0.6850393700787402
        },
        {
          "duration": 0.06475218750000522,
          "durationTicks": 46,
          "midi": 62,
          "name": "D4",
          "ticks": 75250,
          "time": 105.9261328125,
          "velocity": 0.7480314960629921
        },
        {
          "duration": 0.06475218750000522,
          "durationTicks": 46,
          "midi": 59,
          "name": "B3",
          "ticks": 75250,
          "time": 105.9261328125,
          "velocity": 0.6850393700787402
        },
        {
          "duration": 0.059121562499996116,
          "durationTicks": 42,
          "midi": 62,
          "name": "D4",
          "ticks": 75382,
          "time": 106.1119434375,
          "velocity": 0.7480314960629921
        },
        {
          "duration": 0.059121562499996116,
          "durationTicks": 42,
          "midi": 59,
          "name": "B3",
          "ticks": 75382,
          "time": 106.1119434375,
          "velocity": 0.6850393700787402
        },
        {
          "duration": 0.03659906250000233,
          "durationTicks": 26,
          "midi": 59,
          "name": "B3",
          "ticks": 75510,
          "time": 106.29212343750001,
          "velocity": 0.7165354330708661
        },
        {
          "duration": 0.056306250000019986,
          "durationTicks": 40,
          "midi": 62,
          "name": "D4",
          "ticks": 75640,
          "time": 106.47511875,
          "velocity": 0.7480314960629921
        },
        {
          "duration": 0.03378375000001199,
          "durationTicks": 24,
          "midi": 59,
          "name": "B3",
          "ticks": 75640,
          "time": 106.47511875,
          "velocity": 0.7165354330708661
        },
        {
          "duration": 0.06756750000000977,
          "durationTicks": 48,
          "midi": 62,
          "name": "D4",
          "ticks": 75760,
          "time": 106.6440375,
          "velocity": 0.7165354330708661
        },
        {
          "duration": 0.06756750000000977,
          "durationTicks": 48,
          "midi": 59,
          "name": "B3",
          "ticks": 75760,
          "time": 106.6440375,
          "velocity": 0.7165354330708661
        },
        {
          "duration": 0.056306249999991564,
          "durationTicks": 40,
          "midi": 59,
          "name": "B3",
          "ticks": 75896,
          "time": 106.83547875000001,
          "velocity": 0.7165354330708661
        },
        {
          "duration": 0.056306250000005775,
          "durationTicks": 40,
          "midi": 62,
          "name": "D4",
          "ticks": 76024,
          "time": 107.01565875,
          "velocity": 0.6850393700787402
        },
        {
          "duration": 0.056306250000005775,
          "durationTicks": 40,
          "midi": 59,
          "name": "B3",
          "ticks": 76024,
          "time": 107.01565875,
          "velocity": 0.6850393700787402
        },
        {
          "duration": 0.03659906250000233,
          "durationTicks": 26,
          "midi": 62,
          "name": "D4",
          "ticks": 76150,
          "time": 107.1930234375,
          "velocity": 0.7480314960629921
        },
        {
          "duration": 0.056306250000005775,
          "durationTicks": 40,
          "midi": 59,
          "name": "B3",
          "ticks": 76150,
          "time": 107.1930234375,
          "velocity": 0.7480314960629921
        },
        {
          "duration": 0.04504500000000178,
          "durationTicks": 32,
          "midi": 59,
          "name": "B3",
          "ticks": 76272,
          "time": 107.36475750000001,
          "velocity": 0.6850393700787402
        },
        {
          "duration": 0.06756750000000977,
          "durationTicks": 48,
          "midi": 62,
          "name": "D4",
          "ticks": 76400,
          "time": 107.5449375,
          "velocity": 0.7480314960629921
        },
        {
          "duration": 0.06756750000000977,
          "durationTicks": 48,
          "midi": 59,
          "name": "B3",
          "ticks": 76400,
          "time": 107.5449375,
          "velocity": 0.7165354330708661
        },
        {
          "duration": 0.04504500000000178,
          "durationTicks": 32,
          "midi": 62,
          "name": "D4",
          "ticks": 76528,
          "time": 107.7251175,
          "velocity": 0.7480314960629921
        },
        {
          "duration": 0.04504500000000178,
          "durationTicks": 32,
          "midi": 59,
          "name": "B3",
          "ticks": 76528,
          "time": 107.7251175,
          "velocity": 0.7480314960629921
        },
        {
          "duration": 0.07038281250000011,
          "durationTicks": 50,
          "midi": 59,
          "name": "B3",
          "ticks": 76656,
          "time": 107.9052975,
          "velocity": 0.7480314960629921
        },
        {
          "duration": 0.05349093750000122,
          "durationTicks": 38,
          "midi": 62,
          "name": "D4",
          "ticks": 76794,
          "time": 108.0995540625,
          "velocity": 0.7165354330708661
        },
        {
          "duration": 0.05349093750000122,
          "durationTicks": 38,
          "midi": 59,
          "name": "B3",
          "ticks": 76794,
          "time": 108.0995540625,
          "velocity": 0.7165354330708661
        },
        {
          "duration": 0.06756749999999556,
          "durationTicks": 48,
          "midi": 62,
          "name": "D4",
          "ticks": 76912,
          "time": 108.2656575,
          "velocity": 0.7165354330708661
        },
        {
          "duration": 0.04504500000000178,
          "durationTicks": 32,
          "midi": 57,
          "name": "A3",
          "ticks": 76912,
          "time": 108.2656575,
          "velocity": 0.6850393700787402
        },
        {
          "duration": 0.07038281250000011,
          "durationTicks": 50,
          "midi": 57,
          "name": "A3",
          "ticks": 77040,
          "time": 108.44583750000001,
          "velocity": 0.7165354330708661
        },
        {
          "duration": 0.04504500000001599,
          "durationTicks": 32,
          "midi": 62,
          "name": "D4",
          "ticks": 77182,
          "time": 108.64572468749999,
          "velocity": 0.7480314960629921
        },
        {
          "duration": 0.0014076562500235923,
          "durationTicks": 1,
          "midi": 57,
          "name": "A3",
          "ticks": 77182,
          "time": 108.64572468749999,
          "velocity": 0.7165354330708661
        },
        {
          "duration": 0.042229687499997226,
          "durationTicks": 30,
          "midi": 62,
          "name": "D4",
          "ticks": 77300,
          "time": 108.811828125,
          "velocity": 0.7480314960629921
        },
        {
          "duration": 0.042229687499997226,
          "durationTicks": 30,
          "midi": 57,
          "name": "A3",
          "ticks": 77300,
          "time": 108.811828125,
          "velocity": 0.7165354330708661
        },
        {
          "duration": 0.03659906250000233,
          "durationTicks": 26,
          "midi": 57,
          "name": "A3",
          "ticks": 77430,
          "time": 108.9948234375,
          "velocity": 0.6850393700787402
        },
        {
          "duration": 0.0703828124999859,
          "durationTicks": 50,
          "midi": 62,
          "name": "D4",
          "ticks": 77552,
          "time": 109.16655750000001,
          "velocity": 0.7165354330708661
        },
        {
          "duration": 0.0703828124999859,
          "durationTicks": 50,
          "midi": 57,
          "name": "A3",
          "ticks": 77552,
          "time": 109.16655750000001,
          "velocity": 0.7165354330708661
        },
        {
          "duration": 0.059121562499996116,
          "durationTicks": 42,
          "midi": 61,
          "name": "C#4",
          "ticks": 77688,
          "time": 109.35799875000001,
          "velocity": 0.7480314960629921
        },
        {
          "duration": 0.059121562499996116,
          "durationTicks": 42,
          "midi": 57,
          "name": "A3",
          "ticks": 77688,
          "time": 109.35799875000001,
          "velocity": 0.7165354330708661
        },
        {
          "duration": 0.06756749999999556,
          "durationTicks": 48,
          "midi": 57,
          "name": "A3",
          "ticks": 77808,
          "time": 109.52691750000001,
          "velocity": 0.7165354330708661
        },
        {
          "duration": 0.05067562499999667,
          "durationTicks": 36,
          "midi": 61,
          "name": "C#4",
          "ticks": 77948,
          "time": 109.72398937500002,
          "velocity": 0.6850393700787402
        },
        {
          "duration": 0.0014076562499809597,
          "durationTicks": 1,
          "midi": 57,
          "name": "A3",
          "ticks": 77948,
          "time": 109.72398937500002,
          "velocity": 0.7480314960629921
        },
        {
          "duration": 0.06193687500000067,
          "durationTicks": 44,
          "midi": 61,
          "name": "C#4",
          "ticks": 78068,
          "time": 109.892908125,
          "velocity": 0.7480314960629921
        },
        {
          "duration": 0.06193687500000067,
          "durationTicks": 44,
          "midi": 57,
          "name": "A3",
          "ticks": 78068,
          "time": 109.892908125,
          "velocity": 0.7480314960629921
        },
        {
          "duration": 0.03659906250000233,
          "durationTicks": 26,
          "midi": 57,
          "name": "A3",
          "ticks": 78198,
          "time": 110.0759034375,
          "velocity": 0.7165354330708661
        }
      ]
    },
    {
      "channel": 0,
      "controlChanges": {
        "7": [
          {
            "number": 7,
            "ticks": 848,
            "time": 1.1936925,
            "value": 0.905511811023622
          }
        ],
        "121": [
          {
            "number": 121,
            "ticks": 384,
            "time": 0.54054,
            "value": 0
          }
        ]
      },
      "pitchBends": [],
      "instrument": {
        "family": "piano",
        "number": 0,
        "name": "acoustic grand piano"
      },
      "name": "E.GTR/SAWT",
      "notes": [],
      "endOfTrackTicks": 161280
    },
    {
      "channel": 3,
      "controlChanges": {
        "7": [
          {
            "number": 7,
            "ticks": 87674,
            "time": 123.41485406250001,
            "value": 0.905511811023622
          },
          {
            "number": 7,
            "ticks": 109054,
            "time": 153.51054468750002,
            "value": 1
          },
          {
            "number": 7,
            "ticks": 121350,
            "time": 170.8190859375,
            "value": 1
          }
        ]
      },
      "pitchBends": [
        {
          "ticks": 1358,
          "time": 1.9115971875000002,
          "value": 0
        },
        {
          "ticks": 1488,
          "time": 2.0945925,
          "value": 0.40625
        },
        {
          "ticks": 1504,
          "time": 2.117115,
          "value": 0.71875
        },
        {
          "ticks": 1528,
          "time": 2.15089875,
          "value": 0.984375
        },
        {
          "ticks": 1650,
          "time": 2.3226328125,
          "value": 0
        },
        {
          "ticks": 87504,
          "time": 123.17555250000001,
          "value": 0.40625
        },
        {
          "ticks": 87520,
          "time": 123.198075,
          "value": 0.71875
        },
        {
          "ticks": 87552,
          "time": 123.24312,
          "value": 0.984375
        },
        {
          "ticks": 87674,
          "time": 123.41485406250001,
          "value": 0
        }
      ],
      "instrument": {
        "family": "guitar",
        "number": 28,
        "name": "electric guitar (muted)"
      },
      "name": "",
      "notes": [
        {
          "duration": 0.18299531250000012,
          "durationTicks": 130,
          "midi": 74,
          "name": "D5",
          "ticks": 1398,
          "time": 1.9679034375,
          "velocity": 0.2125984251968504
        },
        {
          "duration": 0.18299531250000012,
          "durationTicks": 130,
          "midi": 69,
          "name": "A4",
          "ticks": 1398,
          "time": 1.9679034375,
          "velocity": 0.023622047244094488
        },
        {
          "duration": 0.10416656250000011,
          "durationTicks": 74,
          "midi": 76,
          "name": "E5",
          "ticks": 1528,
          "time": 2.15089875,
          "velocity": 0.5275590551181102
        },
        {
          "duration": 0.10416656250000011,
          "durationTicks": 74,
          "midi": 72,
          "name": "C5",
          "ticks": 1528,
          "time": 2.15089875,
          "velocity": 0.023622047244094488
        },
        {
          "duration": 0.11261249999999956,
          "durationTicks": 80,
          "midi": 81,
          "name": "A5",
          "ticks": 1650,
          "time": 2.3226328125,
          "velocity": 0.49606299212598426
        },
        {
          "duration": 0.05912156250000011,
          "durationTicks": 42,
          "midi": 78,
          "name": "F#5",
          "ticks": 1782,
          "time": 2.5084434375,
          "velocity": 0.4645669291338583
        },
        {
          "duration": 0.1097971874999999,
          "durationTicks": 78,
          "midi": 83,
          "name": "B5",
          "ticks": 1908,
          "time": 2.6858081250000003,
          "velocity": 0.5590551181102362
        },
        {
          "duration": 0.09290531250000011,
          "durationTicks": 66,
          "midi": 78,
          "name": "F#5",
          "ticks": 2032,
          "time": 2.8603575,
          "velocity": 0.4645669291338583
        },
        {
          "duration": 0.10416656249999967,
          "durationTicks": 74,
          "midi": 81,
          "name": "A5",
          "ticks": 2164,
          "time": 3.0461681250000003,
          "velocity": 0.49606299212598426
        },
        {
          "duration": 0.08445937499999978,
          "durationTicks": 60,
          "midi": 78,
          "name": "F#5",
          "ticks": 2294,
          "time": 3.2291634375,
          "velocity": 0.4645669291338583
        },
        {
          "duration": 0.10698187500000023,
          "durationTicks": 76,
          "midi": 81,
          "name": "A5",
          "ticks": 2420,
          "time": 3.406528125,
          "velocity": 0.5275590551181102
        },
        {
          "duration": 0.06475218750000034,
          "durationTicks": 46,
          "midi": 78,
          "name": "F#5",
          "ticks": 2544,
          "time": 3.5810775,
          "velocity": 0.49606299212598426
        },
        {
          "duration": 0.1126125,
          "durationTicks": 80,
          "midi": 83,
          "name": "B5",
          "ticks": 2672,
          "time": 3.7612575,
          "velocity": 0.5275590551181102
        },
        {
          "duration": 0.08727468750000034,
          "durationTicks": 62,
          "midi": 78,
          "name": "F#5",
          "ticks": 2804,
          "time": 3.947068125,
          "velocity": 0.4645669291338583
        },
        {
          "duration": 0.08445937499999978,
          "durationTicks": 60,
          "midi": 81,
          "name": "A5",
          "ticks": 2932,
          "time": 4.127248125,
          "velocity": 0.49606299212598426
        },
        {
          "duration": 0.08445937500000067,
          "durationTicks": 60,
          "midi": 78,
          "name": "F#5",
          "ticks": 3062,
          "time": 4.3102434375,
          "velocity": 0.4645669291338583
        },
        {
          "duration": 0.10698187499999978,
          "durationTicks": 76,
          "midi": 81,
          "name": "A5",
          "ticks": 3188,
          "time": 4.487608125,
          "velocity": 0.5590551181102362
        },
        {
          "duration": 0.09009,
          "durationTicks": 64,
          "midi": 78,
          "name": "F#5",
          "ticks": 3312,
          "time": 4.6621575,
          "velocity": 0.49606299212598426
        },
        {
          "duration": 0.10416656249999967,
          "durationTicks": 74,
          "midi": 83,
          "name": "B5",
          "ticks": 3446,
          "time": 4.8507834375000005,
          "velocity": 0.49606299212598426
        },
        {
          "duration": 0.0675675,
          "durationTicks": 48,
          "midi": 78,
          "name": "F#5",
          "ticks": 3568,
          "time": 5.0225175,
          "velocity": 0.4645669291338583
        },
        {
          "duration": 0.1097971874999999,
          "durationTicks": 78,
          "midi": 81,
          "name": "A5",
          "ticks": 3698,
          "time": 5.2055128125,
          "velocity": 0.49606299212598426
        },
        {
          "duration": 0.09009,
          "durationTicks": 64,
          "midi": 78,
          "name": "F#5",
          "ticks": 3824,
          "time": 5.3828775,
          "velocity": 0.4645669291338583
        },
        {
          "duration": 0.1126125,
          "durationTicks": 80,
          "midi": 81,
          "name": "A5",
          "ticks": 3952,
          "time": 5.5630575,
          "velocity": 0.49606299212598426
        },
        {
          "duration": 0.09009,
          "durationTicks": 64,
          "midi": 78,
          "name": "F#5",
          "ticks": 4080,
          "time": 5.7432375,
          "velocity": 0.4645669291338583
        },
        {
          "duration": 0.1097971874999999,
          "durationTicks": 78,
          "midi": 83,
          "name": "B5",
          "ticks": 4208,
          "time": 5.9234175,
          "velocity": 0.5590551181102362
        },
        {
          "duration": 0.08164406250000056,
          "durationTicks": 58,
          "midi": 78,
          "name": "F#5",
          "ticks": 4342,
          "time": 6.1120434375,
          "velocity": 0.4645669291338583
        },
        {
          "duration": 0.10416656250000056,
          "durationTicks": 74,
          "midi": 81,
          "name": "A5",
          "ticks": 4468,
          "time": 6.289408125,
          "velocity": 0.5275590551181102
        },
        {
          "duration": 0.09290531250000011,
          "durationTicks": 66,
          "midi": 78,
          "name": "F#5",
          "ticks": 4592,
          "time": 6.4639575,
          "velocity": 0.4645669291338583
        },
        {
          "duration": 0.10698187499999978,
          "durationTicks": 76,
          "midi": 81,
          "name": "A5",
          "ticks": 4724,
          "time": 6.6497681250000005,
          "velocity": 0.49606299212598426
        },
        {
          "duration": 0.08727468750000078,
          "durationTicks": 62,
          "midi": 78,
          "name": "F#5",
          "ticks": 4852,
          "time": 6.829948125,
          "velocity": 0.4645669291338583
        },
        {
          "duration": 0.10416656249999967,
          "durationTicks": 74,
          "midi": 83,
          "name": "B5",
          "ticks": 4980,
          "time": 7.0101281250000005,
          "velocity": 0.5275590551181102
        },
        {
          "duration": 0.07038281250000011,
          "durationTicks": 50,
          "midi": 78,
          "name": "F#5",
          "ticks": 5104,
          "time": 7.1846775,
          "velocity": 0.4645669291338583
        },
        {
          "duration": 0.1126125,
          "durationTicks": 80,
          "midi": 81,
          "name": "A5",
          "ticks": 5232,
          "time": 7.3648575,
          "velocity": 0.5590551181102362
        },
        {
          "duration": 0.08445937499999978,
          "durationTicks": 60,
          "midi": 78,
          "name": "F#5",
          "ticks": 5366,
          "time": 7.553483437500001,
          "velocity": 0.4645669291338583
        },
        {
          "duration": 0.10698187499999978,
          "durationTicks": 76,
          "midi": 81,
          "name": "A5",
          "ticks": 5492,
          "time": 7.7308481250000005,
          "velocity": 0.5275590551181102
        },
        {
          "duration": 0.09009,
          "durationTicks": 64,
          "midi": 78,
          "name": "F#5",
          "ticks": 5616,
          "time": 7.9053975,
          "velocity": 0.4645669291338583
        },
        {
          "duration": 0.10698187500000067,
          "durationTicks": 76,
          "midi": 83,
          "name": "B5",
          "ticks": 5748,
          "time": 8.091208125,
          "velocity": 0.49606299212598426
        },
        {
          "duration": 0.08164406249999878,
          "durationTicks": 58,
          "midi": 78,
          "name": "F#5",
          "ticks": 5876,
          "time": 8.271388125000001,
          "velocity": 0.49606299212598426
        },
        {
          "duration": 0.10698187500000067,
          "durationTicks": 76,
          "midi": 81,
          "name": "A5",
          "ticks": 6004,
          "time": 8.451568125,
          "velocity": 0.5590551181102362
        },
        {
          "duration": 0.08445937499999978,
          "durationTicks": 60,
          "midi": 78,
          "name": "F#5",
          "ticks": 6134,
          "time": 8.6345634375,
          "velocity": 0.49606299212598426
        },
        {
          "duration": 0.10416656249999967,
          "durationTicks": 74,
          "midi": 81,
          "name": "A5",
          "ticks": 6262,
          "time": 8.8147434375,
          "velocity": 0.5590551181102362
        },
        {
          "duration": 0.08164406250000056,
          "durationTicks": 58,
          "midi": 78,
          "name": "F#5",
          "ticks": 6390,
          "time": 8.9949234375,
          "velocity": 0.49606299212598426
        },
        {
          "duration": 0.11261250000000089,
          "durationTicks": 80,
          "midi": 83,
          "name": "B5",
          "ticks": 6512,
          "time": 9.1666575,
          "velocity": 0.6535433070866141
        },
        {
          "duration": 0.06475218749999989,
          "durationTicks": 46,
          "midi": 78,
          "name": "F#5",
          "ticks": 6642,
          "time": 9.3496528125,
          "velocity": 0.5275590551181102
        },
        {
          "duration": 0.1097971874999999,
          "durationTicks": 78,
          "midi": 81,
          "name": "A5",
          "ticks": 6770,
          "time": 9.5298328125,
          "velocity": 0.7480314960629921
        },
        {
          "duration": 0.08727468750000078,
          "durationTicks": 62,
          "midi": 78,
          "name": "F#5",
          "ticks": 6896,
          "time": 9.7071975,
          "velocity": 0.5590551181102362
        },
        {
          "duration": 0.1097971874999999,
          "durationTicks": 78,
          "midi": 81,
          "name": "A5",
          "ticks": 7028,
          "time": 9.893008125,
          "velocity": 0.7795275590551181
        },
        {
          "duration": 0.08445937499999978,
          "durationTicks": 60,
          "midi": 78,
          "name": "F#5",
          "ticks": 7156,
          "time": 10.073188125000001,
          "velocity": 0.7795275590551181
        },
        {
          "duration": 0.1097971874999999,
          "durationTicks": 78,
          "midi": 83,
          "name": "B5",
          "ticks": 7284,
          "time": 10.253368125,
          "velocity": 0.84251968503937
        },
        {
          "duration": 0.09853593750000122,
          "durationTicks": 70,
          "midi": 78,
          "name": "F#5",
          "ticks": 7418,
          "time": 10.4419940625,
          "velocity": 0.8110236220472441
        },
        {
          "duration": 0.10416656249999967,
          "durationTicks": 74,
          "midi": 81,
          "name": "A5",
          "ticks": 7542,
          "time": 10.6165434375,
          "velocity": 0.84251968503937
        },
        {
          "duration": 0.06193687499998646,
          "durationTicks": 44,
          "midi": 74,
          "name": "D5",
          "ticks": 60020,
          "time": 84.48752812500001,
          "velocity": 0.5275590551181102
        },
        {
          "duration": 0.10698187499998824,
          "durationTicks": 76,
          "midi": 71,
          "name": "B4",
          "ticks": 60020,
          "time": 84.48752812500001,
          "velocity": 0.4015748031496063
        },
        {
          "duration": 0.36036,
          "durationTicks": 256,
          "midi": 74,
          "name": "D5",
          "ticks": 60278,
          "time": 84.8507034375,
          "velocity": 0.5905511811023622
        },
        {
          "duration": 0.534909374999998,
          "durationTicks": 380,
          "midi": 71,
          "name": "B4",
          "ticks": 60278,
          "time": 84.8507034375,
          "velocity": 0.4645669291338583
        },
        {
          "duration": 0.174549374999998,
          "durationTicks": 124,
          "midi": 67,
          "name": "G4",
          "ticks": 60534,
          "time": 85.2110634375,
          "velocity": 0.3700787401574803
        },
        {
          "duration": 0.06756749999999556,
          "durationTicks": 48,
          "midi": 73,
          "name": "C#5",
          "ticks": 61552,
          "time": 86.6440575,
          "velocity": 0.5590551181102362
        },
        {
          "duration": 0.11261249999999734,
          "durationTicks": 80,
          "midi": 69,
          "name": "A4",
          "ticks": 61552,
          "time": 86.6440575,
          "velocity": 0.4015748031496063
        },
        {
          "duration": 0.36036,
          "durationTicks": 256,
          "midi": 73,
          "name": "C#5",
          "ticks": 61814,
          "time": 87.0128634375,
          "velocity": 0.5905511811023622
        },
        {
          "duration": 0.5405400000000071,
          "durationTicks": 384,
          "midi": 69,
          "name": "A4",
          "ticks": 61814,
          "time": 87.0128634375,
          "velocity": 0.4645669291338583
        },
        {
          "duration": 0.1801800000000071,
          "durationTicks": 128,
          "midi": 66,
          "name": "F#4",
          "ticks": 62070,
          "time": 87.3732234375,
          "velocity": 0.3700787401574803
        },
        {
          "duration": 0.06756749999999556,
          "durationTicks": 48,
          "midi": 74,
          "name": "D5",
          "ticks": 63088,
          "time": 88.8062175,
          "velocity": 0.5590551181102362
        },
        {
          "duration": 0.11261249999999734,
          "durationTicks": 80,
          "midi": 71,
          "name": "B4",
          "ticks": 63088,
          "time": 88.8062175,
          "velocity": 0.4015748031496063
        },
        {
          "duration": 0.3575446875000097,
          "durationTicks": 254,
          "midi": 74,
          "name": "D5",
          "ticks": 63346,
          "time": 89.16939281249999,
          "velocity": 0.5905511811023622
        },
        {
          "duration": 0.5461706250000162,
          "durationTicks": 388,
          "midi": 71,
          "name": "B4",
          "ticks": 63346,
          "time": 89.16939281249999,
          "velocity": 0.4645669291338583
        },
        {
          "duration": 0.18862593750000656,
          "durationTicks": 134,
          "midi": 67,
          "name": "G4",
          "ticks": 63600,
          "time": 89.5269375,
          "velocity": 0.3700787401574803
        },
        {
          "duration": 0.07038281250000011,
          "durationTicks": 50,
          "midi": 73,
          "name": "C#5",
          "ticks": 64626,
          "time": 90.97119281250001,
          "velocity": 0.5590551181102362
        },
        {
          "duration": 0.11261249999999734,
          "durationTicks": 80,
          "midi": 69,
          "name": "A4",
          "ticks": 64626,
          "time": 90.97119281250001,
          "velocity": 0.4015748031496063
        },
        {
          "duration": 0.371621250000004,
          "durationTicks": 264,
          "midi": 73,
          "name": "C#5",
          "ticks": 64880,
          "time": 91.3287375,
          "velocity": 0.5905511811023622
        },
        {
          "duration": 0.5433553124999975,
          "durationTicks": 386,
          "midi": 69,
          "name": "A4",
          "ticks": 64880,
          "time": 91.3287375,
          "velocity": 0.4645669291338583
        },
        {
          "duration": 0.17173406249999346,
          "durationTicks": 122,
          "midi": 66,
          "name": "F#4",
          "ticks": 65144,
          "time": 91.70035875,
          "velocity": 0.3700787401574803
        },
        {
          "duration": 0.06475218749999101,
          "durationTicks": 46,
          "midi": 73,
          "name": "C#5",
          "ticks": 65396,
          "time": 92.05508812500001,
          "velocity": 0.5590551181102362
        },
        {
          "duration": 0.10416656249998368,
          "durationTicks": 74,
          "midi": 69,
          "name": "A4",
          "ticks": 65396,
          "time": 92.05508812500001,
          "velocity": 0.4015748031496063
        },
        {
          "duration": 0.36036,
          "durationTicks": 256,
          "midi": 73,
          "name": "C#5",
          "ticks": 65648,
          "time": 92.4098175,
          "velocity": 0.5905511811023622
        },
        {
          "duration": 0.5602471874999964,
          "durationTicks": 398,
          "midi": 69,
          "name": "A4",
          "ticks": 65648,
          "time": 92.4098175,
          "velocity": 0.4645669291338583
        },
        {
          "duration": 0.06756749999999556,
          "durationTicks": 48,
          "midi": 74,
          "name": "D5",
          "ticks": 65904,
          "time": 92.7701775,
          "velocity": 0.5590551181102362
        },
        {
          "duration": 0.06475218749999101,
          "durationTicks": 46,
          "midi": 74,
          "name": "D5",
          "ticks": 66162,
          "time": 93.13335281250001,
          "velocity": 0.5590551181102362
        },
        {
          "duration": 0.10698187499998824,
          "durationTicks": 76,
          "midi": 71,
          "name": "B4",
          "ticks": 66162,
          "time": 93.13335281250001,
          "velocity": 0.4015748031496063
        },
        {
          "duration": 0.36317531250000457,
          "durationTicks": 258,
          "midi": 74,
          "name": "D5",
          "ticks": 66422,
          "time": 93.4993434375,
          "velocity": 0.5905511811023622
        },
        {
          "duration": 0.5377246875000026,
          "durationTicks": 382,
          "midi": 71,
          "name": "B4",
          "ticks": 66422,
          "time": 93.4993434375,
          "velocity": 0.4645669291338583
        },
        {
          "duration": 0.174549374999998,
          "durationTicks": 124,
          "midi": 67,
          "name": "G4",
          "ticks": 66680,
          "time": 93.86251875,
          "velocity": 0.3700787401574803
        },
        {
          "duration": 0.059121562499996116,
          "durationTicks": 42,
          "midi": 74,
          "name": "D5",
          "ticks": 66932,
          "time": 94.21724812500001,
          "velocity": 0.5590551181102362
        },
        {
          "duration": 0.10979718749999279,
          "durationTicks": 78,
          "midi": 69,
          "name": "A4",
          "ticks": 66932,
          "time": 94.21724812500001,
          "velocity": 0.4015748031496063
        },
        {
          "duration": 0.371621250000004,
          "durationTicks": 264,
          "midi": 74,
          "name": "D5",
          "ticks": 67184,
          "time": 94.5719775,
          "velocity": 0.5905511811023622
        },
        {
          "duration": 0.5602471874999964,
          "durationTicks": 398,
          "midi": 69,
          "name": "A4",
          "ticks": 67184,
          "time": 94.5719775,
          "velocity": 0.4645669291338583
        },
        {
          "duration": 0.18862593749999235,
          "durationTicks": 134,
          "midi": 66,
          "name": "F#4",
          "ticks": 67448,
          "time": 94.94359875,
          "velocity": 0.3700787401574803
        },
        {
          "duration": 0.06475218749999101,
          "durationTicks": 46,
          "midi": 74,
          "name": "D5",
          "ticks": 67700,
          "time": 95.29832812500001,
          "velocity": 0.5905511811023622
        },
        {
          "duration": 0.10698187499998824,
          "durationTicks": 76,
          "midi": 71,
          "name": "B4",
          "ticks": 67700,
          "time": 95.29832812500001,
          "velocity": 0.4015748031496063
        },
        {
          "duration": 0.36036,
          "durationTicks": 256,
          "midi": 74,
          "name": "D5",
          "ticks": 67952,
          "time": 95.6530575,
          "velocity": 0.5905511811023622
        },
        {
          "duration": 0.5602471874999964,
          "durationTicks": 398,
          "midi": 71,
          "name": "B4",
          "ticks": 67952,
          "time": 95.6530575,
          "velocity": 0.49606299212598426
        },
        {
          "duration": 0.19988718749999634,
          "durationTicks": 142,
          "midi": 67,
          "name": "G4",
          "ticks": 68208,
          "time": 96.0134175,
          "velocity": 0.3700787401574803
        },
        {
          "duration": 0.059121562499996116,
          "durationTicks": 42,
          "midi": 74,
          "name": "D5",
          "ticks": 68470,
          "time": 96.3822234375,
          "velocity": 0.6220472440944882
        },
        {
          "duration": 0.1041665624999979,
          "durationTicks": 74,
          "midi": 69,
          "name": "A4",
          "ticks": 68470,
          "time": 96.3822234375,
          "velocity": 0.4015748031496063
        },
        {
          "duration": 0.3462834375000057,
          "durationTicks": 246,
          "midi": 74,
          "name": "D5",
          "ticks": 68730,
          "time": 96.7482140625,
          "velocity": 0.6850393700787402
        },
        {
          "duration": 0.5377246875000026,
          "durationTicks": 382,
          "midi": 69,
          "name": "A4",
          "ticks": 68730,
          "time": 96.7482140625,
          "velocity": 0.5275590551181102
        },
        {
          "duration": 0.1914412499999969,
          "durationTicks": 136,
          "midi": 71,
          "name": "B4",
          "ticks": 68976,
          "time": 97.0944975,
          "velocity": 0.4015748031496063
        },
        {
          "duration": 0.087274687499999,
          "durationTicks": 62,
          "midi": 76,
          "name": "E5",
          "ticks": 87552,
          "time": 123.24312,
          "velocity": 0.4330708661417323
        },
        {
          "duration": 0.087274687499999,
          "durationTicks": 62,
          "midi": 72,
          "name": "C5",
          "ticks": 87552,
          "time": 123.24312,
          "velocity": 0.30708661417322836
        },
        {
          "duration": 0.09572062499998424,
          "durationTicks": 68,
          "midi": 81,
          "name": "A5",
          "ticks": 87674,
          "time": 123.41485406250001,
          "velocity": 0.4330708661417323
        },
        {
          "duration": 0.05349093750000122,
          "durationTicks": 38,
          "midi": 78,
          "name": "F#5",
          "ticks": 87804,
          "time": 123.59784937500001,
          "velocity": 0.4330708661417323
        },
        {
          "duration": 0.109797187500007,
          "durationTicks": 78,
          "midi": 83,
          "name": "B5",
          "ticks": 87922,
          "time": 123.7639528125,
          "velocity": 0.4330708661417323
        },
        {
          "duration": 0.08164406250000411,
          "durationTicks": 58,
          "midi": 78,
          "name": "F#5",
          "ticks": 88056,
          "time": 123.95257875,
          "velocity": 0.4330708661417323
        },
        {
          "duration": 0.11261250000001155,
          "durationTicks": 80,
          "midi": 81,
          "name": "A5",
          "ticks": 88176,
          "time": 124.1214975,
          "velocity": 0.4330708661417323
        },
        {
          "duration": 0.0929053124999939,
          "durationTicks": 66,
          "midi": 78,
          "name": "F#5",
          "ticks": 88304,
          "time": 124.30167750000001,
          "velocity": 0.4330708661417323
        },
        {
          "duration": 0.09853593749998879,
          "durationTicks": 70,
          "midi": 81,
          "name": "A5",
          "ticks": 88442,
          "time": 124.49593406250001,
          "velocity": 0.4330708661417323
        },
        {
          "duration": 0.056306250000005775,
          "durationTicks": 40,
          "midi": 78,
          "name": "F#5",
          "ticks": 88570,
          "time": 124.6761140625,
          "velocity": 0.4330708661417323
        },
        {
          "duration": 0.09572062500001266,
          "durationTicks": 68,
          "midi": 83,
          "name": "B5",
          "ticks": 88698,
          "time": 124.8562940625,
          "velocity": 0.4330708661417323
        },
        {
          "duration": 0.07882875000001377,
          "durationTicks": 56,
          "midi": 78,
          "name": "F#5",
          "ticks": 88824,
          "time": 125.03365875,
          "velocity": 0.4330708661417323
        },
        {
          "duration": 0.07882874999999956,
          "durationTicks": 56,
          "midi": 81,
          "name": "A5",
          "ticks": 88954,
          "time": 125.2166540625,
          "velocity": 0.4330708661417323
        },
        {
          "duration": 0.07319812499999045,
          "durationTicks": 52,
          "midi": 78,
          "name": "F#5",
          "ticks": 89082,
          "time": 125.3968340625,
          "velocity": 0.4330708661417323
        },
        {
          "duration": 0.09853593749998879,
          "durationTicks": 70,
          "midi": 81,
          "name": "A5",
          "ticks": 89210,
          "time": 125.57701406250001,
          "velocity": 0.4330708661417323
        },
        {
          "duration": 0.07319812499999045,
          "durationTicks": 52,
          "midi": 78,
          "name": "F#5",
          "ticks": 89340,
          "time": 125.76000937500001,
          "velocity": 0.4330708661417323
        },
        {
          "duration": 0.109797187500007,
          "durationTicks": 78,
          "midi": 83,
          "name": "B5",
          "ticks": 89458,
          "time": 125.9261128125,
          "velocity": 0.4330708661417323
        },
        {
          "duration": 0.05067562500001088,
          "durationTicks": 36,
          "midi": 78,
          "name": "F#5",
          "ticks": 89594,
          "time": 126.1175540625,
          "velocity": 0.4330708661417323
        },
        {
          "duration": 0.09572062500001266,
          "durationTicks": 68,
          "midi": 81,
          "name": "A5",
          "ticks": 89724,
          "time": 126.300549375,
          "velocity": 0.4330708661417323
        },
        {
          "duration": 0.076013437499995,
          "durationTicks": 54,
          "midi": 78,
          "name": "F#5",
          "ticks": 89850,
          "time": 126.4779140625,
          "velocity": 0.4330708661417323
        },
        {
          "duration": 0.10979718749999279,
          "durationTicks": 78,
          "midi": 81,
          "name": "A5",
          "ticks": 89970,
          "time": 126.64683281250001,
          "velocity": 0.4330708661417323
        },
        {
          "duration": 0.09008999999998935,
          "durationTicks": 64,
          "midi": 78,
          "name": "F#5",
          "ticks": 90098,
          "time": 126.82701281250002,
          "velocity": 0.4330708661417323
        },
        {
          "duration": 0.11261249999999734,
          "durationTicks": 80,
          "midi": 83,
          "name": "B5",
          "ticks": 90224,
          "time": 127.0043775,
          "velocity": 0.4330708661417323
        },
        {
          "duration": 0.09009000000001777,
          "durationTicks": 64,
          "midi": 78,
          "name": "F#5",
          "ticks": 90352,
          "time": 127.1845575,
          "velocity": 0.4330708661417323
        },
        {
          "duration": 0.09290531250000811,
          "durationTicks": 66,
          "midi": 81,
          "name": "A5",
          "ticks": 90492,
          "time": 127.381629375,
          "velocity": 0.4330708661417323
        },
        {
          "duration": 0.0929053124999939,
          "durationTicks": 66,
          "midi": 78,
          "name": "F#5",
          "ticks": 90610,
          "time": 127.5477328125,
          "velocity": 0.4330708661417323
        },
        {
          "duration": 0.11542781250000189,
          "durationTicks": 82,
          "midi": 81,
          "name": "A5",
          "ticks": 90736,
          "time": 127.7250975,
          "velocity": 0.4330708661417323
        },
        {
          "duration": 0.0929053124999939,
          "durationTicks": 66,
          "midi": 78,
          "name": "F#5",
          "ticks": 90864,
          "time": 127.90527750000001,
          "velocity": 0.4330708661417323
        },
        {
          "duration": 0.10979718749999279,
          "durationTicks": 78,
          "midi": 83,
          "name": "B5",
          "ticks": 90994,
          "time": 128.0882728125,
          "velocity": 0.4330708661417323
        },
        {
          "duration": 0.0647521874999768,
          "durationTicks": 46,
          "midi": 78,
          "name": "F#5",
          "ticks": 91122,
          "time": 128.26845281250002,
          "velocity": 0.4330708661417323
        },
        {
          "duration": 0.10979718749999279,
          "durationTicks": 78,
          "midi": 81,
          "name": "A5",
          "ticks": 91250,
          "time": 128.44863281250002,
          "velocity": 0.4330708661417323
        },
        {
          "duration": 0.07882875000001377,
          "durationTicks": 56,
          "midi": 78,
          "name": "F#5",
          "ticks": 91386,
          "time": 128.6400740625,
          "velocity": 0.4330708661417323
        },
        {
          "duration": 0.10135125000002176,
          "durationTicks": 72,
          "midi": 81,
          "name": "A5",
          "ticks": 91510,
          "time": 128.8146234375,
          "velocity": 0.4330708661417323
        },
        {
          "duration": 0.07882874999998535,
          "durationTicks": 56,
          "midi": 78,
          "name": "F#5",
          "ticks": 91640,
          "time": 128.99761875000002,
          "velocity": 0.4330708661417323
        },
        {
          "duration": 0.10135124999999334,
          "durationTicks": 72,
          "midi": 83,
          "name": "B5",
          "ticks": 91768,
          "time": 129.17779875,
          "velocity": 0.4330708661417323
        },
        {
          "duration": 0.08164406250000411,
          "durationTicks": 58,
          "midi": 78,
          "name": "F#5",
          "ticks": 91896,
          "time": 129.35797875,
          "velocity": 0.4330708661417323
        },
        {
          "duration": 0.09853593749997458,
          "durationTicks": 70,
          "midi": 81,
          "name": "A5",
          "ticks": 92028,
          "time": 129.54378937500002,
          "velocity": 0.4330708661417323
        },
        {
          "duration": 0.076013437499995,
          "durationTicks": 54,
          "midi": 78,
          "name": "F#5",
          "ticks": 92154,
          "time": 129.7211540625,
          "velocity": 0.4330708661417323
        },
        {
          "duration": 0.10135125000002176,
          "durationTicks": 72,
          "midi": 81,
          "name": "A5",
          "ticks": 92280,
          "time": 129.89851875,
          "velocity": 0.4330708661417323
        },
        {
          "duration": 0.076013437499995,
          "durationTicks": 54,
          "midi": 78,
          "name": "F#5",
          "ticks": 92410,
          "time": 130.0815140625,
          "velocity": 0.4330708661417323
        },
        {
          "duration": 0.098535937500003,
          "durationTicks": 70,
          "midi": 83,
          "name": "B5",
          "ticks": 92536,
          "time": 130.25887875,
          "velocity": 0.4645669291338583
        },
        {
          "duration": 0.059121562499996116,
          "durationTicks": 42,
          "midi": 78,
          "name": "F#5",
          "ticks": 92664,
          "time": 130.43905875000002,
          "velocity": 0.4330708661417323
        },
        {
          "duration": 0.09572062499998424,
          "durationTicks": 68,
          "midi": 81,
          "name": "A5",
          "ticks": 92794,
          "time": 130.6220540625,
          "velocity": 0.49606299212598426
        },
        {
          "duration": 0.07882875000001377,
          "durationTicks": 56,
          "midi": 78,
          "name": "F#5",
          "ticks": 92922,
          "time": 130.8022340625,
          "velocity": 0.4330708661417323
        },
        {
          "duration": 0.1041665625000121,
          "durationTicks": 74,
          "midi": 81,
          "name": "A5",
          "ticks": 93048,
          "time": 130.97959875,
          "velocity": 0.49606299212598426
        },
        {
          "duration": 0.0929053124999939,
          "durationTicks": 66,
          "midi": 78,
          "name": "F#5",
          "ticks": 93168,
          "time": 131.1485175,
          "velocity": 0.49606299212598426
        },
        {
          "duration": 0.11261249999998313,
          "durationTicks": 80,
          "midi": 83,
          "name": "B5",
          "ticks": 93296,
          "time": 131.3286975,
          "velocity": 0.5275590551181102
        },
        {
          "duration": 0.10416656249998368,
          "durationTicks": 74,
          "midi": 78,
          "name": "F#5",
          "ticks": 93430,
          "time": 131.5173234375,
          "velocity": 0.49606299212598426
        },
        {
          "duration": 0.098535937500003,
          "durationTicks": 70,
          "midi": 81,
          "name": "A5",
          "ticks": 93562,
          "time": 131.7031340625,
          "velocity": 0.5275590551181102
        },
        {
          "duration": 0.08164406250003253,
          "durationTicks": 58,
          "midi": 78,
          "name": "F#5",
          "ticks": 93688,
          "time": 131.88049875,
          "velocity": 0.4330708661417323
        },
        {
          "duration": 0.11261250000001155,
          "durationTicks": 80,
          "midi": 81,
          "name": "A5",
          "ticks": 93808,
          "time": 132.0494175,
          "velocity": 0.4330708661417323
        },
        {
          "duration": 0.076013437499995,
          "durationTicks": 54,
          "midi": 78,
          "name": "F#5",
          "ticks": 93946,
          "time": 132.2436740625,
          "velocity": 0.4330708661417323
        },
        {
          "duration": 0.10135124999999334,
          "durationTicks": 72,
          "midi": 83,
          "name": "B5",
          "ticks": 94072,
          "time": 132.42103875,
          "velocity": 0.4330708661417323
        },
        {
          "duration": 0.06193687500001488,
          "durationTicks": 44,
          "midi": 78,
          "name": "F#5",
          "ticks": 94198,
          "time": 132.5984034375,
          "velocity": 0.4330708661417323
        },
        {
          "duration": 0.10135124999999334,
          "durationTicks": 72,
          "midi": 81,
          "name": "A5",
          "ticks": 94330,
          "time": 132.7842140625,
          "velocity": 0.4330708661417323
        },
        {
          "duration": 0.07319812500000467,
          "durationTicks": 52,
          "midi": 78,
          "name": "F#5",
          "ticks": 94460,
          "time": 132.967209375,
          "velocity": 0.4330708661417323
        },
        {
          "duration": 0.11261250000001155,
          "durationTicks": 80,
          "midi": 81,
          "name": "A5",
          "ticks": 94576,
          "time": 133.1304975,
          "velocity": 0.4330708661417323
        },
        {
          "duration": 0.09009000000000356,
          "durationTicks": 64,
          "midi": 78,
          "name": "F#5",
          "ticks": 94704,
          "time": 133.3106775,
          "velocity": 0.4330708661417323
        },
        {
          "duration": 0.098535937500003,
          "durationTicks": 70,
          "midi": 83,
          "name": "B5",
          "ticks": 94840,
          "time": 133.50211875,
          "velocity": 0.4330708661417323
        },
        {
          "duration": 0.08164406250000411,
          "durationTicks": 58,
          "midi": 78,
          "name": "F#5",
          "ticks": 94968,
          "time": 133.68229875,
          "velocity": 0.4330708661417323
        },
        {
          "duration": 0.098535937500003,
          "durationTicks": 70,
          "midi": 81,
          "name": "A5",
          "ticks": 95098,
          "time": 133.8652940625,
          "velocity": 0.4330708661417323
        },
        {
          "duration": 0.076013437499995,
          "durationTicks": 54,
          "midi": 78,
          "name": "F#5",
          "ticks": 95226,
          "time": 134.0454740625,
          "velocity": 0.4330708661417323
        },
        {
          "duration": 0.11261250000001155,
          "durationTicks": 80,
          "midi": 81,
          "name": "A5",
          "ticks": 95346,
          "time": 134.2143928125,
          "velocity": 0.4330708661417323
        },
        {
          "duration": 0.076013437499995,
          "durationTicks": 54,
          "midi": 78,
          "name": "F#5",
          "ticks": 95482,
          "time": 134.4058340625,
          "velocity": 0.4330708661417323
        },
        {
          "duration": 0.09572062499998424,
          "durationTicks": 68,
          "midi": 83,
          "name": "B5",
          "ticks": 95612,
          "time": 134.58882937500002,
          "velocity": 0.4645669291338583
        },
        {
          "duration": 0.06756749999999556,
          "durationTicks": 48,
          "midi": 78,
          "name": "F#5",
          "ticks": 95728,
          "time": 134.7521175,
          "velocity": 0.4330708661417323
        },
        {
          "duration": 0.09572062499998424,
          "durationTicks": 68,
          "midi": 81,
          "name": "A5",
          "ticks": 95866,
          "time": 134.9463740625,
          "velocity": 0.49606299212598426
        },
        {
          "duration": 0.0929053124999939,
          "durationTicks": 66,
          "midi": 78,
          "name": "F#5",
          "ticks": 95984,
          "time": 135.1124775,
          "velocity": 0.4330708661417323
        },
        {
          "duration": 0.11261250000001155,
          "durationTicks": 80,
          "midi": 81,
          "name": "A5",
          "ticks": 96112,
          "time": 135.2926575,
          "velocity": 0.49606299212598426
        },
        {
          "duration": 0.0872746874999848,
          "durationTicks": 62,
          "midi": 78,
          "name": "F#5",
          "ticks": 96242,
          "time": 135.47565281250002,
          "velocity": 0.49606299212598426
        },
        {
          "duration": 0.11542781250000189,
          "durationTicks": 82,
          "midi": 83,
          "name": "B5",
          "ticks": 96368,
          "time": 135.6530175,
          "velocity": 0.5275590551181102
        },
        {
          "duration": 0.11261249999998313,
          "durationTicks": 80,
          "midi": 78,
          "name": "F#5",
          "ticks": 96496,
          "time": 135.8331975,
          "velocity": 0.49606299212598426
        },
        {
          "duration": 0.11261249999998313,
          "durationTicks": 80,
          "midi": 81,
          "name": "A5",
          "ticks": 96624,
          "time": 136.01337750000002,
          "velocity": 0.5275590551181102
        },
        {
          "duration": 0.09009000000003198,
          "durationTicks": 64,
          "midi": 78,
          "name": "F#5",
          "ticks": 96754,
          "time": 136.1963728125,
          "velocity": 0.4330708661417323
        },
        {
          "duration": 0.10698187500000245,
          "durationTicks": 76,
          "midi": 81,
          "name": "A5",
          "ticks": 96886,
          "time": 136.3821834375,
          "velocity": 0.4330708661417323
        },
        {
          "duration": 0.0929053124999939,
          "durationTicks": 66,
          "midi": 78,
          "name": "F#5",
          "ticks": 97008,
          "time": 136.5539175,
          "velocity": 0.4330708661417323
        },
        {
          "duration": 0.10416656249998368,
          "durationTicks": 74,
          "midi": 83,
          "name": "B5",
          "ticks": 97144,
          "time": 136.74535875,
          "velocity": 0.4330708661417323
        },
        {
          "duration": 0.06756749999999556,
          "durationTicks": 48,
          "midi": 78,
          "name": "F#5",
          "ticks": 97264,
          "time": 136.9142775,
          "velocity": 0.4330708661417323
        },
        {
          "duration": 0.10698187500000245,
          "durationTicks": 76,
          "midi": 81,
          "name": "A5",
          "ticks": 97398,
          "time": 137.1029034375,
          "velocity": 0.4330708661417323
        },
        {
          "duration": 0.07601343750002343,
          "durationTicks": 54,
          "midi": 78,
          "name": "F#5",
          "ticks": 97530,
          "time": 137.2887140625,
          "velocity": 0.4330708661417323
        },
        {
          "duration": 0.10135124999999334,
          "durationTicks": 72,
          "midi": 81,
          "name": "A5",
          "ticks": 97656,
          "time": 137.46607875,
          "velocity": 0.4330708661417323
        },
        {
          "duration": 0.07882874999998535,
          "durationTicks": 56,
          "midi": 78,
          "name": "F#5",
          "ticks": 97784,
          "time": 137.64625875000002,
          "velocity": 0.4330708661417323
        },
        {
          "duration": 0.09853593749997458,
          "durationTicks": 70,
          "midi": 83,
          "name": "B5",
          "ticks": 97914,
          "time": 137.8292540625,
          "velocity": 0.4330708661417323
        },
        {
          "duration": 0.09009000000000356,
          "durationTicks": 64,
          "midi": 78,
          "name": "F#5",
          "ticks": 98032,
          "time": 137.9953575,
          "velocity": 0.4330708661417323
        },
        {
          "duration": 0.09572062499998424,
          "durationTicks": 68,
          "midi": 81,
          "name": "A5",
          "ticks": 98172,
          "time": 138.19242937500002,
          "velocity": 0.4330708661417323
        },
        {
          "duration": 0.09009000000000356,
          "durationTicks": 64,
          "midi": 78,
          "name": "F#5",
          "ticks": 98288,
          "time": 138.3557175,
          "velocity": 0.4330708661417323
        },
        {
          "duration": 0.09853593750003142,
          "durationTicks": 70,
          "midi": 81,
          "name": "A5",
          "ticks": 98424,
          "time": 138.54715875,
          "velocity": 0.4330708661417323
        },
        {
          "duration": 0.08727468750001321,
          "durationTicks": 62,
          "midi": 78,
          "name": "F#5",
          "ticks": 98546,
          "time": 138.7188928125,
          "velocity": 0.4330708661417323
        },
        {
          "duration": 0.10135124999999334,
          "durationTicks": 72,
          "midi": 83,
          "name": "B5",
          "ticks": 98680,
          "time": 138.90751875,
          "velocity": 0.4645669291338583
        },
        {
          "duration": 0.06756749999999556,
          "durationTicks": 48,
          "midi": 78,
          "name": "F#5",
          "ticks": 98800,
          "time": 139.07643750000003,
          "velocity": 0.4330708661417323
        },
        {
          "duration": 0.1041665625000121,
          "durationTicks": 74,
          "midi": 81,
          "name": "A5",
          "ticks": 98936,
          "time": 139.26787875,
          "velocity": 0.49606299212598426
        },
        {
          "duration": 0.09009000000003198,
          "durationTicks": 64,
          "midi": 78,
          "name": "F#5",
          "ticks": 99056,
          "time": 139.43679749999998,
          "velocity": 0.4330708661417323
        },
        {
          "duration": 0.10135124999999334,
          "durationTicks": 72,
          "midi": 81,
          "name": "A5",
          "ticks": 99192,
          "time": 139.62823875,
          "velocity": 0.49606299212598426
        },
        {
          "duration": 0.07882875000004219,
          "durationTicks": 56,
          "midi": 78,
          "name": "F#5",
          "ticks": 99320,
          "time": 139.80841875,
          "velocity": 0.49606299212598426
        },
        {
          "duration": 0.10135124999999334,
          "durationTicks": 72,
          "midi": 83,
          "name": "B5",
          "ticks": 99448,
          "time": 139.98859875000002,
          "velocity": 0.5275590551181102
        },
        {
          "duration": 0.10698187499997402,
          "durationTicks": 76,
          "midi": 78,
          "name": "F#5",
          "ticks": 99574,
          "time": 140.1659634375,
          "velocity": 0.49606299212598426
        },
        {
          "duration": 0.08445937499999445,
          "durationTicks": 60,
          "midi": 81,
          "name": "A5",
          "ticks": 99716,
          "time": 140.365850625,
          "velocity": 0.5275590551181102
        },
        {
          "duration": 0.0703828124999859,
          "durationTicks": 50,
          "midi": 78,
          "name": "F#5",
          "ticks": 99838,
          "time": 140.53758468750001,
          "velocity": 0.4330708661417323
        },
        {
          "duration": 0.10979718750002121,
          "durationTicks": 78,
          "midi": 81,
          "name": "A5",
          "ticks": 99954,
          "time": 140.7008728125,
          "velocity": 0.4330708661417323
        },
        {
          "duration": 0.07319812500000467,
          "durationTicks": 52,
          "midi": 78,
          "name": "F#5",
          "ticks": 100092,
          "time": 140.895129375,
          "velocity": 0.4330708661417323
        },
        {
          "duration": 0.10979718749999279,
          "durationTicks": 78,
          "midi": 83,
          "name": "B5",
          "ticks": 100210,
          "time": 141.0612328125,
          "velocity": 0.4330708661417323
        },
        {
          "duration": 0.06756749999999556,
          "durationTicks": 48,
          "midi": 78,
          "name": "F#5",
          "ticks": 100336,
          "time": 141.23859750000003,
          "velocity": 0.4330708661417323
        },
        {
          "duration": 0.1041665625000121,
          "durationTicks": 74,
          "midi": 81,
          "name": "A5",
          "ticks": 100472,
          "time": 141.43003875,
          "velocity": 0.4330708661417323
        },
        {
          "duration": 0.07038281250004275,
          "durationTicks": 50,
          "midi": 78,
          "name": "F#5",
          "ticks": 100604,
          "time": 141.61584937499998,
          "velocity": 0.4330708661417323
        },
        {
          "duration": 0.098535937500003,
          "durationTicks": 70,
          "midi": 81,
          "name": "A5",
          "ticks": 100728,
          "time": 141.79039875,
          "velocity": 0.4330708661417323
        },
        {
          "duration": 0.09009000000003198,
          "durationTicks": 64,
          "midi": 78,
          "name": "F#5",
          "ticks": 100848,
          "time": 141.9593175,
          "velocity": 0.4330708661417323
        },
        {
          "duration": 0.10135124999999334,
          "durationTicks": 72,
          "midi": 83,
          "name": "B5",
          "ticks": 100984,
          "time": 142.15075875000002,
          "velocity": 0.4330708661417323
        },
        {
          "duration": 0.08445937499999445,
          "durationTicks": 60,
          "midi": 78,
          "name": "F#5",
          "ticks": 101112,
          "time": 142.33093875,
          "velocity": 0.4330708661417323
        },
        {
          "duration": 0.09572062499998424,
          "durationTicks": 68,
          "midi": 81,
          "name": "A5",
          "ticks": 101244,
          "time": 142.51674937500002,
          "velocity": 0.4330708661417323
        },
        {
          "duration": 0.07882874999998535,
          "durationTicks": 56,
          "midi": 78,
          "name": "F#5",
          "ticks": 101370,
          "time": 142.6941140625,
          "velocity": 0.4330708661417323
        },
        {
          "duration": 0.10698187500000245,
          "durationTicks": 76,
          "midi": 81,
          "name": "A5",
          "ticks": 101494,
          "time": 142.8686634375,
          "velocity": 0.4330708661417323
        },
        {
          "duration": 0.07882874999998535,
          "durationTicks": 56,
          "midi": 78,
          "name": "F#5",
          "ticks": 101626,
          "time": 143.05447406250002,
          "velocity": 0.4330708661417323
        },
        {
          "duration": 0.10135124999999334,
          "durationTicks": 72,
          "midi": 83,
          "name": "B5",
          "ticks": 101752,
          "time": 143.23183875,
          "velocity": 0.4645669291338583
        },
        {
          "duration": 0.059121562499996116,
          "durationTicks": 42,
          "midi": 78,
          "name": "F#5",
          "ticks": 101882,
          "time": 143.4148340625,
          "velocity": 0.4330708661417323
        },
        {
          "duration": 0.09853593749997458,
          "durationTicks": 70,
          "midi": 81,
          "name": "A5",
          "ticks": 102010,
          "time": 143.5950140625,
          "velocity": 0.49606299212598426
        },
        {
          "duration": 0.07601343750002343,
          "durationTicks": 54,
          "midi": 78,
          "name": "F#5",
          "ticks": 102140,
          "time": 143.77800937499998,
          "velocity": 0.4330708661417323
        },
        {
          "duration": 0.10416656249998368,
          "durationTicks": 74,
          "midi": 81,
          "name": "A5",
          "ticks": 102262,
          "time": 143.94974343750002,
          "velocity": 0.49606299212598426
        },
        {
          "duration": 0.07882875000004219,
          "durationTicks": 56,
          "midi": 78,
          "name": "F#5",
          "ticks": 102392,
          "time": 144.13273875,
          "velocity": 0.49606299212598426
        },
        {
          "duration": 0.10416656249998368,
          "durationTicks": 74,
          "midi": 83,
          "name": "B5",
          "ticks": 102520,
          "time": 144.31291875000002,
          "velocity": 0.5275590551181102
        },
        {
          "duration": 0.10416656249998368,
          "durationTicks": 74,
          "midi": 78,
          "name": "F#5",
          "ticks": 102646,
          "time": 144.4902834375,
          "velocity": 0.49606299212598426
        },
        {
          "duration": 0.10698187500000245,
          "durationTicks": 76,
          "midi": 81,
          "name": "A5",
          "ticks": 102770,
          "time": 144.6648328125,
          "velocity": 0.5275590551181102
        },
        {
          "duration": 0.09008999999997513,
          "durationTicks": 64,
          "midi": 78,
          "name": "F#5",
          "ticks": 102898,
          "time": 144.84501281250002,
          "velocity": 0.4330708661417323
        },
        {
          "duration": 0.10979718750002121,
          "durationTicks": 78,
          "midi": 81,
          "name": "A5",
          "ticks": 103026,
          "time": 145.0251928125,
          "velocity": 0.4330708661417323
        },
        {
          "duration": 0.07882874999998535,
          "durationTicks": 56,
          "midi": 78,
          "name": "F#5",
          "ticks": 103162,
          "time": 145.21663406250002,
          "velocity": 0.4330708661417323
        },
        {
          "duration": 0.11261249999998313,
          "durationTicks": 80,
          "midi": 83,
          "name": "B5",
          "ticks": 103282,
          "time": 145.3855528125,
          "velocity": 0.4330708661417323
        },
        {
          "duration": 0.059121562499996116,
          "durationTicks": 42,
          "midi": 78,
          "name": "F#5",
          "ticks": 103414,
          "time": 145.57136343750003,
          "velocity": 0.4330708661417323
        },
        {
          "duration": 0.09572062499998424,
          "durationTicks": 68,
          "midi": 81,
          "name": "A5",
          "ticks": 103546,
          "time": 145.7571740625,
          "velocity": 0.4330708661417323
        },
        {
          "duration": 0.09009000000000356,
          "durationTicks": 64,
          "midi": 78,
          "name": "F#5",
          "ticks": 103666,
          "time": 145.9260928125,
          "velocity": 0.4330708661417323
        },
        {
          "duration": 0.11261249999998313,
          "durationTicks": 80,
          "midi": 81,
          "name": "A5",
          "ticks": 103792,
          "time": 146.10345750000002,
          "velocity": 0.4330708661417323
        },
        {
          "duration": 0.076013437499995,
          "durationTicks": 54,
          "midi": 78,
          "name": "F#5",
          "ticks": 103932,
          "time": 146.300529375,
          "velocity": 0.4330708661417323
        },
        {
          "duration": 0.098535937500003,
          "durationTicks": 70,
          "midi": 83,
          "name": "B5",
          "ticks": 104060,
          "time": 146.480709375,
          "velocity": 0.4330708661417323
        },
        {
          "duration": 0.08445937499999445,
          "durationTicks": 60,
          "midi": 78,
          "name": "F#5",
          "ticks": 104182,
          "time": 146.6524434375,
          "velocity": 0.4330708661417323
        },
        {
          "duration": 0.09572062499998424,
          "durationTicks": 68,
          "midi": 81,
          "name": "A5",
          "ticks": 104316,
          "time": 146.84106937500002,
          "velocity": 0.4330708661417323
        },
        {
          "duration": 0.0703828124999859,
          "durationTicks": 50,
          "midi": 78,
          "name": "F#5",
          "ticks": 104446,
          "time": 147.02406468750002,
          "velocity": 0.4330708661417323
        },
        {
          "duration": 0.11261250000001155,
          "durationTicks": 80,
          "midi": 81,
          "name": "A5",
          "ticks": 104560,
          "time": 147.1845375,
          "velocity": 0.4330708661417323
        },
        {
          "duration": 0.07319812500000467,
          "durationTicks": 52,
          "midi": 78,
          "name": "F#5",
          "ticks": 104700,
          "time": 147.381609375,
          "velocity": 0.4330708661417323
        },
        {
          "duration": 0.10135124999999334,
          "durationTicks": 72,
          "midi": 83,
          "name": "B5",
          "ticks": 104824,
          "time": 147.55615875,
          "velocity": 0.4645669291338583
        },
        {
          "duration": 0.056306250000005775,
          "durationTicks": 40,
          "midi": 78,
          "name": "F#5",
          "ticks": 104952,
          "time": 147.73633875000002,
          "velocity": 0.4330708661417323
        },
        {
          "duration": 0.09853593749997458,
          "durationTicks": 70,
          "midi": 81,
          "name": "A5",
          "ticks": 105082,
          "time": 147.9193340625,
          "velocity": 0.49606299212598426
        },
        {
          "duration": 0.07882875000001377,
          "durationTicks": 56,
          "midi": 78,
          "name": "F#5",
          "ticks": 105210,
          "time": 148.0995140625,
          "velocity": 0.4330708661417323
        },
        {
          "duration": 0.11261249999998313,
          "durationTicks": 80,
          "midi": 81,
          "name": "A5",
          "ticks": 105328,
          "time": 148.26561750000002,
          "velocity": 0.49606299212598426
        },
        {
          "duration": 0.08727468750004164,
          "durationTicks": 62,
          "midi": 78,
          "name": "F#5",
          "ticks": 105458,
          "time": 148.4486128125,
          "velocity": 0.49606299212598426
        },
        {
          "duration": 0.09572062499998424,
          "durationTicks": 68,
          "midi": 83,
          "name": "B5",
          "ticks": 105594,
          "time": 148.6400540625,
          "velocity": 0.5275590551181102
        },
        {
          "duration": 0.10416656249998368,
          "durationTicks": 74,
          "midi": 78,
          "name": "F#5",
          "ticks": 105718,
          "time": 148.8146034375,
          "velocity": 0.49606299212598426
        },
        {
          "duration": 0.09572062499998424,
          "durationTicks": 68,
          "midi": 81,
          "name": "A5",
          "ticks": 105852,
          "time": 149.00322937500002,
          "velocity": 0.5275590551181102
        },
        {
          "duration": 0.07319812499997624,
          "durationTicks": 52,
          "midi": 78,
          "name": "F#5",
          "ticks": 105982,
          "time": 149.18622468750002,
          "velocity": 0.4330708661417323
        },
        {
          "duration": 0.10135125000002176,
          "durationTicks": 72,
          "midi": 81,
          "name": "A5",
          "ticks": 106104,
          "time": 149.35795875,
          "velocity": 0.4330708661417323
        },
        {
          "duration": 0.07882875000001377,
          "durationTicks": 56,
          "midi": 78,
          "name": "F#5",
          "ticks": 106232,
          "time": 149.53813875,
          "velocity": 0.4330708661417323
        },
        {
          "duration": 0.098535937500003,
          "durationTicks": 70,
          "midi": 83,
          "name": "B5",
          "ticks": 106362,
          "time": 149.7211340625,
          "velocity": 0.4330708661417323
        },
        {
          "duration": 0.0647521874999768,
          "durationTicks": 46,
          "midi": 78,
          "name": "F#5",
          "ticks": 106480,
          "time": 149.88723750000003,
          "velocity": 0.4330708661417323
        },
        {
          "duration": 0.09572062499998424,
          "durationTicks": 68,
          "midi": 81,
          "name": "A5",
          "ticks": 106620,
          "time": 150.084309375,
          "velocity": 0.4330708661417323
        },
        {
          "duration": 0.07882875000001377,
          "durationTicks": 56,
          "midi": 78,
          "name": "F#5",
          "ticks": 106746,
          "time": 150.2616740625,
          "velocity": 0.4330708661417323
        },
        {
          "duration": 0.098535937500003,
          "durationTicks": 70,
          "midi": 81,
          "name": "A5",
          "ticks": 106872,
          "time": 150.43903875,
          "velocity": 0.4330708661417323
        },
        {
          "duration": 0.08164406250000411,
          "durationTicks": 58,
          "midi": 78,
          "name": "F#5",
          "ticks": 107000,
          "time": 150.61921875,
          "velocity": 0.4330708661417323
        },
        {
          "duration": 0.098535937500003,
          "durationTicks": 70,
          "midi": 83,
          "name": "B5",
          "ticks": 107130,
          "time": 150.8022140625,
          "velocity": 0.4330708661417323
        },
        {
          "duration": 0.08164406250000411,
          "durationTicks": 58,
          "midi": 78,
          "name": "F#5",
          "ticks": 107256,
          "time": 150.97957875,
          "velocity": 0.4330708661417323
        },
        {
          "duration": 0.07882874999998535,
          "durationTicks": 56,
          "midi": 81,
          "name": "A5",
          "ticks": 107398,
          "time": 151.17946593750003,
          "velocity": 0.4330708661417323
        },
        {
          "duration": 0.076013437499995,
          "durationTicks": 54,
          "midi": 78,
          "name": "F#5",
          "ticks": 107518,
          "time": 151.34838468750002,
          "velocity": 0.4330708661417323
        },
        {
          "duration": 0.1041665625000121,
          "durationTicks": 74,
          "midi": 81,
          "name": "A5",
          "ticks": 107638,
          "time": 151.5173034375,
          "velocity": 0.4330708661417323
        },
        {
          "duration": 0.06475218750000522,
          "durationTicks": 46,
          "midi": 78,
          "name": "F#5",
          "ticks": 107778,
          "time": 151.7143753125,
          "velocity": 0.4330708661417323
        },
        {
          "duration": 0.10416656249998368,
          "durationTicks": 74,
          "midi": 83,
          "name": "B5",
          "ticks": 107896,
          "time": 151.88047875,
          "velocity": 0.4645669291338583
        },
        {
          "duration": 0.056306250000005775,
          "durationTicks": 40,
          "midi": 78,
          "name": "F#5",
          "ticks": 108026,
          "time": 152.0634740625,
          "velocity": 0.4330708661417323
        },
        {
          "duration": 0.08164406250000411,
          "durationTicks": 58,
          "midi": 81,
          "name": "A5",
          "ticks": 108164,
          "time": 152.257730625,
          "velocity": 0.49606299212598426
        },
        {
          "duration": 0.07319812500003309,
          "durationTicks": 52,
          "midi": 78,
          "name": "F#5",
          "ticks": 108284,
          "time": 152.42664937499998,
          "velocity": 0.4330708661417323
        },
        {
          "duration": 0.10416656249998368,
          "durationTicks": 74,
          "midi": 81,
          "name": "A5",
          "ticks": 108408,
          "time": 152.60119875,
          "velocity": 0.49606299212598426
        },
        {
          "duration": 0.07319812500003309,
          "durationTicks": 52,
          "midi": 78,
          "name": "F#5",
          "ticks": 108540,
          "time": 152.787009375,
          "velocity": 0.49606299212598426
        },
        {
          "duration": 0.09572062499998424,
          "durationTicks": 68,
          "midi": 83,
          "name": "B5",
          "ticks": 108666,
          "time": 152.9643740625,
          "velocity": 0.5275590551181102
        },
        {
          "duration": 0.09572062499998424,
          "durationTicks": 68,
          "midi": 78,
          "name": "F#5",
          "ticks": 108796,
          "time": 153.147369375,
          "velocity": 0.49606299212598426
        },
        {
          "duration": 0.10416656249998368,
          "durationTicks": 74,
          "midi": 81,
          "name": "A5",
          "ticks": 108922,
          "time": 153.32473406250003,
          "velocity": 0.5275590551181102
        },
        {
          "duration": 0.1323196875000292,
          "durationTicks": 94,
          "midi": 71,
          "name": "B4",
          "ticks": 109172,
          "time": 153.67664812499999,
          "velocity": 0.14960629921259844
        },
        {
          "duration": 0.10979718749999279,
          "durationTicks": 78,
          "midi": 69,
          "name": "A4",
          "ticks": 109298,
          "time": 153.8540128125,
          "velocity": 0.14960629921259844
        },
        {
          "duration": 0.07882874999998535,
          "durationTicks": 56,
          "midi": 71,
          "name": "B4",
          "ticks": 109432,
          "time": 154.04263875,
          "velocity": 0.007874015748031496
        },
        {
          "duration": 0.10698187500000245,
          "durationTicks": 76,
          "midi": 69,
          "name": "A4",
          "ticks": 109554,
          "time": 154.21437281250002,
          "velocity": 0.11811023622047244
        },
        {
          "duration": 0.10698187499997402,
          "durationTicks": 76,
          "midi": 71,
          "name": "B4",
          "ticks": 109684,
          "time": 154.397368125,
          "velocity": 0.023622047244094488
        },
        {
          "duration": 0.1323196875000292,
          "durationTicks": 94,
          "midi": 69,
          "name": "A4",
          "ticks": 109812,
          "time": 154.577548125,
          "velocity": 0.14960629921259844
        },
        {
          "duration": 0.10979718749999279,
          "durationTicks": 78,
          "midi": 71,
          "name": "B4",
          "ticks": 109936,
          "time": 154.75209750000002,
          "velocity": 0.11811023622047244
        },
        {
          "duration": 0.10698187500003087,
          "durationTicks": 76,
          "midi": 69,
          "name": "A4",
          "ticks": 110070,
          "time": 154.9407234375,
          "velocity": 0.11811023622047244
        },
        {
          "duration": 0.1041665625000121,
          "durationTicks": 74,
          "midi": 71,
          "name": "B4",
          "ticks": 110198,
          "time": 155.1209034375,
          "velocity": 0.08661417322834646
        },
        {
          "duration": 0.10979718749999279,
          "durationTicks": 78,
          "midi": 69,
          "name": "A4",
          "ticks": 110324,
          "time": 155.298268125,
          "velocity": 0.05511811023622047
        },
        {
          "duration": 0.12950437500001044,
          "durationTicks": 92,
          "midi": 74,
          "name": "D5",
          "ticks": 110450,
          "time": 155.4756328125,
          "velocity": 0.18110236220472442
        },
        {
          "duration": 0.09009000000000356,
          "durationTicks": 64,
          "midi": 71,
          "name": "B4",
          "ticks": 110450,
          "time": 155.4756328125,
          "velocity": 0.05511811023622047
        },
        {
          "duration": 0.08164406250000411,
          "durationTicks": 58,
          "midi": 69,
          "name": "A4",
          "ticks": 110582,
          "time": 155.6614434375,
          "velocity": 0.11811023622047244
        },
        {
          "duration": 0.08445937500002287,
          "durationTicks": 60,
          "midi": 74,
          "name": "D5",
          "ticks": 110708,
          "time": 155.83880812499999,
          "velocity": 0.18110236220472442
        },
        {
          "duration": 0.08445937500002287,
          "durationTicks": 60,
          "midi": 71,
          "name": "B4",
          "ticks": 110708,
          "time": 155.83880812499999,
          "velocity": 0.023622047244094488
        },
        {
          "duration": 0.0929053124999939,
          "durationTicks": 66,
          "midi": 73,
          "name": "C#5",
          "ticks": 110832,
          "time": 156.0133575,
          "velocity": 0.023622047244094488
        },
        {
          "duration": 0.11261249999998313,
          "durationTicks": 80,
          "midi": 69,
          "name": "A4",
          "ticks": 110832,
          "time": 156.0133575,
          "velocity": 0.2125984251968504
        },
        {
          "duration": 0.10979718749999279,
          "durationTicks": 78,
          "midi": 74,
          "name": "D5",
          "ticks": 110962,
          "time": 156.1963528125,
          "velocity": 0.2125984251968504
        },
        {
          "duration": 0.08445937499999445,
          "durationTicks": 60,
          "midi": 71,
          "name": "B4",
          "ticks": 110962,
          "time": 156.1963528125,
          "velocity": 0.2125984251968504
        },
        {
          "duration": 0.08727468750001321,
          "durationTicks": 62,
          "midi": 73,
          "name": "C#5",
          "ticks": 111092,
          "time": 156.379348125,
          "velocity": 0.05511811023622047
        },
        {
          "duration": 0.10979718749999279,
          "durationTicks": 78,
          "midi": 69,
          "name": "A4",
          "ticks": 111092,
          "time": 156.379348125,
          "velocity": 0.2125984251968504
        },
        {
          "duration": 0.07882875000001377,
          "durationTicks": 56,
          "midi": 74,
          "name": "D5",
          "ticks": 111224,
          "time": 156.56515875,
          "velocity": 0.18110236220472442
        },
        {
          "duration": 0.10698187500000245,
          "durationTicks": 76,
          "midi": 71,
          "name": "B4",
          "ticks": 111224,
          "time": 156.56515875,
          "velocity": 0.2440944881889764
        },
        {
          "duration": 0.0619368750000433,
          "durationTicks": 44,
          "midi": 73,
          "name": "C#5",
          "ticks": 111350,
          "time": 156.74252343749998,
          "velocity": 0.007874015748031496
        },
        {
          "duration": 0.10416656250004053,
          "durationTicks": 74,
          "midi": 69,
          "name": "A4",
          "ticks": 111350,
          "time": 156.74252343749998,
          "velocity": 0.2125984251968504
        },
        {
          "duration": 0.08164406249997569,
          "durationTicks": 58,
          "midi": 74,
          "name": "D5",
          "ticks": 111478,
          "time": 156.92270343750002,
          "velocity": 0.2125984251968504
        },
        {
          "duration": 0.059121562499996116,
          "durationTicks": 42,
          "midi": 71,
          "name": "B4",
          "ticks": 111478,
          "time": 156.92270343750002,
          "velocity": 0.2125984251968504
        },
        {
          "duration": 0.08727468750004164,
          "durationTicks": 62,
          "midi": 73,
          "name": "C#5",
          "ticks": 111602,
          "time": 157.0972528125,
          "velocity": 0.11811023622047244
        },
        {
          "duration": 0.10979718750002121,
          "durationTicks": 78,
          "midi": 69,
          "name": "A4",
          "ticks": 111602,
          "time": 157.0972528125,
          "velocity": 0.2440944881889764
        },
        {
          "duration": 0.10135124999999334,
          "durationTicks": 72,
          "midi": 74,
          "name": "D5",
          "ticks": 111736,
          "time": 157.28587875000002,
          "velocity": 0.30708661417322836
        },
        {
          "duration": 0.076013437499995,
          "durationTicks": 54,
          "midi": 71,
          "name": "B4",
          "ticks": 111736,
          "time": 157.28587875000002,
          "velocity": 0.2440944881889764
        },
        {
          "duration": 0.0647521874999768,
          "durationTicks": 46,
          "midi": 73,
          "name": "C#5",
          "ticks": 111856,
          "time": 157.4547975,
          "velocity": 0.14960629921259844
        },
        {
          "duration": 0.11261249999998313,
          "durationTicks": 80,
          "midi": 69,
          "name": "A4",
          "ticks": 111856,
          "time": 157.4547975,
          "velocity": 0.18110236220472442
        },
        {
          "duration": 0.12105843749998257,
          "durationTicks": 86,
          "midi": 74,
          "name": "D5",
          "ticks": 111994,
          "time": 157.64905406250003,
          "velocity": 0.30708661417322836
        },
        {
          "duration": 0.076013437499995,
          "durationTicks": 54,
          "midi": 71,
          "name": "B4",
          "ticks": 111994,
          "time": 157.64905406250003,
          "velocity": 0.18110236220472442
        },
        {
          "duration": 0.08445937499999445,
          "durationTicks": 60,
          "midi": 73,
          "name": "C#5",
          "ticks": 112116,
          "time": 157.820788125,
          "velocity": 0.18110236220472442
        },
        {
          "duration": 0.10698187500000245,
          "durationTicks": 76,
          "midi": 69,
          "name": "A4",
          "ticks": 112116,
          "time": 157.820788125,
          "velocity": 0.14960629921259844
        },
        {
          "duration": 0.12387375000000134,
          "durationTicks": 88,
          "midi": 74,
          "name": "D5",
          "ticks": 112246,
          "time": 158.0037834375,
          "velocity": 0.2755905511811024
        },
        {
          "duration": 0.08164406250000411,
          "durationTicks": 58,
          "midi": 71,
          "name": "B4",
          "ticks": 112246,
          "time": 158.0037834375,
          "velocity": 0.14960629921259844
        },
        {
          "duration": 0.059121562499996116,
          "durationTicks": 42,
          "midi": 73,
          "name": "C#5",
          "ticks": 112374,
          "time": 158.1839634375,
          "velocity": 0.18110236220472442
        },
        {
          "duration": 0.10698187500000245,
          "durationTicks": 76,
          "midi": 69,
          "name": "A4",
          "ticks": 112374,
          "time": 158.1839634375,
          "velocity": 0.2125984251968504
        },
        {
          "duration": 0.10135124999999334,
          "durationTicks": 72,
          "midi": 74,
          "name": "D5",
          "ticks": 112504,
          "time": 158.36695875,
          "velocity": 0.2755905511811024
        },
        {
          "duration": 0.059121562499996116,
          "durationTicks": 42,
          "midi": 71,
          "name": "B4",
          "ticks": 112504,
          "time": 158.36695875,
          "velocity": 0.14960629921259844
        },
        {
          "duration": 0.06475218750000522,
          "durationTicks": 46,
          "midi": 73,
          "name": "C#5",
          "ticks": 112626,
          "time": 158.53869281250002,
          "velocity": 0.14960629921259844
        },
        {
          "duration": 0.11261249999998313,
          "durationTicks": 80,
          "midi": 69,
          "name": "A4",
          "ticks": 112626,
          "time": 158.53869281250002,
          "velocity": 0.2125984251968504
        },
        {
          "duration": 0.0872746874999848,
          "durationTicks": 62,
          "midi": 74,
          "name": "D5",
          "ticks": 112768,
          "time": 158.73858,
          "velocity": 0.2125984251968504
        },
        {
          "duration": 0.0703828124999859,
          "durationTicks": 50,
          "midi": 71,
          "name": "B4",
          "ticks": 112768,
          "time": 158.73858,
          "velocity": 0.14960629921259844
        },
        {
          "duration": 0.06756750000002398,
          "durationTicks": 48,
          "midi": 73,
          "name": "C#5",
          "ticks": 112880,
          "time": 158.89623749999998,
          "velocity": 0.05511811023622047
        },
        {
          "duration": 0.11542781250003031,
          "durationTicks": 82,
          "midi": 69,
          "name": "A4",
          "ticks": 112880,
          "time": 158.89623749999998,
          "velocity": 0.2440944881889764
        },
        {
          "duration": 0.11261249999998313,
          "durationTicks": 80,
          "midi": 74,
          "name": "D5",
          "ticks": 113008,
          "time": 159.07641750000002,
          "velocity": 0.2125984251968504
        },
        {
          "duration": 0.0703828124999859,
          "durationTicks": 50,
          "midi": 71,
          "name": "B4",
          "ticks": 113008,
          "time": 159.07641750000002,
          "velocity": 0.2125984251968504
        },
        {
          "duration": 0.07882874999998535,
          "durationTicks": 56,
          "midi": 73,
          "name": "C#5",
          "ticks": 113146,
          "time": 159.2706740625,
          "velocity": 0.08661417322834646
        },
        {
          "duration": 0.10135125000002176,
          "durationTicks": 72,
          "midi": 69,
          "name": "A4",
          "ticks": 113146,
          "time": 159.2706740625,
          "velocity": 0.2440944881889764
        },
        {
          "duration": 0.09853593749997458,
          "durationTicks": 70,
          "midi": 74,
          "name": "D5",
          "ticks": 113272,
          "time": 159.44803875000002,
          "velocity": 0.14960629921259844
        },
        {
          "duration": 0.08164406249997569,
          "durationTicks": 58,
          "midi": 71,
          "name": "B4",
          "ticks": 113272,
          "time": 159.44803875000002,
          "velocity": 0.2125984251968504
        },
        {
          "duration": 0.06475218750000522,
          "durationTicks": 46,
          "midi": 73,
          "name": "C#5",
          "ticks": 113394,
          "time": 159.6197728125,
          "velocity": 0.007874015748031496
        },
        {
          "duration": 0.11261249999998313,
          "durationTicks": 80,
          "midi": 69,
          "name": "A4",
          "ticks": 113394,
          "time": 159.6197728125,
          "velocity": 0.30708661417322836
        },
        {
          "duration": 0.07319812499997624,
          "durationTicks": 52,
          "midi": 74,
          "name": "D5",
          "ticks": 113530,
          "time": 159.81121406250003,
          "velocity": 0.18110236220472442
        },
        {
          "duration": 0.07319812499997624,
          "durationTicks": 52,
          "midi": 71,
          "name": "B4",
          "ticks": 113530,
          "time": 159.81121406250003,
          "velocity": 0.2755905511811024
        },
        {
          "duration": 0.059121562499996116,
          "durationTicks": 42,
          "midi": 73,
          "name": "C#5",
          "ticks": 113654,
          "time": 159.9857634375,
          "velocity": 0.007874015748031496
        },
        {
          "duration": 0.1041665625000121,
          "durationTicks": 74,
          "midi": 69,
          "name": "A4",
          "ticks": 113654,
          "time": 159.9857634375,
          "velocity": 0.2125984251968504
        },
        {
          "duration": 0.08445937500002287,
          "durationTicks": 60,
          "midi": 78,
          "name": "F#5",
          "ticks": 113782,
          "time": 160.1659434375,
          "velocity": 0.2125984251968504
        },
        {
          "duration": 0.08445937500002287,
          "durationTicks": 60,
          "midi": 74,
          "name": "D5",
          "ticks": 113782,
          "time": 160.1659434375,
          "velocity": 0.18110236220472442
        },
        {
          "duration": 0.08445937500002287,
          "durationTicks": 60,
          "midi": 71,
          "name": "B4",
          "ticks": 113782,
          "time": 160.1659434375,
          "velocity": 0.18110236220472442
        },
        {
          "duration": 0.08445937499999445,
          "durationTicks": 60,
          "midi": 78,
          "name": "F#5",
          "ticks": 113910,
          "time": 160.3461234375,
          "velocity": 0.14960629921259844
        },
        {
          "duration": 0.06193687499998646,
          "durationTicks": 44,
          "midi": 73,
          "name": "C#5",
          "ticks": 113910,
          "time": 160.3461234375,
          "velocity": 0.11811023622047244
        },
        {
          "duration": 0.10698187500000245,
          "durationTicks": 76,
          "midi": 69,
          "name": "A4",
          "ticks": 113910,
          "time": 160.3461234375,
          "velocity": 0.2755905511811024
        },
        {
          "duration": 0.08164406249997569,
          "durationTicks": 58,
          "midi": 78,
          "name": "F#5",
          "ticks": 114040,
          "time": 160.52911875,
          "velocity": 0.30708661417322836
        },
        {
          "duration": 0.09853593749997458,
          "durationTicks": 70,
          "midi": 74,
          "name": "D5",
          "ticks": 114040,
          "time": 160.52911875,
          "velocity": 0.30708661417322836
        },
        {
          "duration": 0.08164406249997569,
          "durationTicks": 58,
          "midi": 71,
          "name": "B4",
          "ticks": 114040,
          "time": 160.52911875,
          "velocity": 0.2125984251968504
        },
        {
          "duration": 0.10698187500000245,
          "durationTicks": 76,
          "midi": 78,
          "name": "F#5",
          "ticks": 114164,
          "time": 160.703668125,
          "velocity": 0.2125984251968504
        },
        {
          "duration": 0.08727468750001321,
          "durationTicks": 62,
          "midi": 73,
          "name": "C#5",
          "ticks": 114164,
          "time": 160.703668125,
          "velocity": 0.18110236220472442
        },
        {
          "duration": 0.10698187500000245,
          "durationTicks": 76,
          "midi": 69,
          "name": "A4",
          "ticks": 114164,
          "time": 160.703668125,
          "velocity": 0.2440944881889764
        },
        {
          "duration": 0.0929053124999939,
          "durationTicks": 66,
          "midi": 74,
          "name": "D5",
          "ticks": 114302,
          "time": 160.8979246875,
          "velocity": 0.3700787401574803
        },
        {
          "duration": 0.07038281250001432,
          "durationTicks": 50,
          "midi": 71,
          "name": "B4",
          "ticks": 114302,
          "time": 160.8979246875,
          "velocity": 0.08661417322834646
        },
        {
          "duration": 0.07319812500003309,
          "durationTicks": 52,
          "midi": 73,
          "name": "C#5",
          "ticks": 114428,
          "time": 161.07528937499998,
          "velocity": 0.3700787401574803
        },
        {
          "duration": 0.07319812500003309,
          "durationTicks": 52,
          "midi": 69,
          "name": "A4",
          "ticks": 114428,
          "time": 161.07528937499998,
          "velocity": 0.2755905511811024
        },
        {
          "duration": 0.09008999999997513,
          "durationTicks": 64,
          "midi": 78,
          "name": "F#5",
          "ticks": 114544,
          "time": 161.23857750000002,
          "velocity": 0.2755905511811024
        },
        {
          "duration": 0.11542781249997347,
          "durationTicks": 82,
          "midi": 74,
          "name": "D5",
          "ticks": 114544,
          "time": 161.23857750000002,
          "velocity": 0.33858267716535434
        },
        {
          "duration": 0.09008999999997513,
          "durationTicks": 64,
          "midi": 71,
          "name": "B4",
          "ticks": 114544,
          "time": 161.23857750000002,
          "velocity": 0.2440944881889764
        },
        {
          "duration": 0.07882875000004219,
          "durationTicks": 56,
          "midi": 78,
          "name": "F#5",
          "ticks": 114680,
          "time": 161.43001875,
          "velocity": 0.30708661417322836
        },
        {
          "duration": 0.10135125000002176,
          "durationTicks": 72,
          "midi": 73,
          "name": "C#5",
          "ticks": 114680,
          "time": 161.43001875,
          "velocity": 0.30708661417322836
        },
        {
          "duration": 0.07882875000004219,
          "durationTicks": 56,
          "midi": 69,
          "name": "A4",
          "ticks": 114680,
          "time": 161.43001875,
          "velocity": 0.30708661417322836
        },
        {
          "duration": 0.0703828124999859,
          "durationTicks": 50,
          "midi": 78,
          "name": "F#5",
          "ticks": 114814,
          "time": 161.61864468750002,
          "velocity": 0.2440944881889764
        },
        {
          "duration": 0.0929053124999939,
          "durationTicks": 66,
          "midi": 74,
          "name": "D5",
          "ticks": 114814,
          "time": 161.61864468750002,
          "velocity": 0.2440944881889764
        },
        {
          "duration": 0.0703828124999859,
          "durationTicks": 50,
          "midi": 71,
          "name": "B4",
          "ticks": 114814,
          "time": 161.61864468750002,
          "velocity": 0.2440944881889764
        },
        {
          "duration": 0.10698187500000245,
          "durationTicks": 76,
          "midi": 78,
          "name": "F#5",
          "ticks": 114930,
          "time": 161.7819328125,
          "velocity": 0.2125984251968504
        },
        {
          "duration": 0.0872746874999848,
          "durationTicks": 62,
          "midi": 73,
          "name": "C#5",
          "ticks": 114930,
          "time": 161.7819328125,
          "velocity": 0.2125984251968504
        },
        {
          "duration": 0.10698187500000245,
          "durationTicks": 76,
          "midi": 69,
          "name": "A4",
          "ticks": 114930,
          "time": 161.7819328125,
          "velocity": 0.2440944881889764
        },
        {
          "duration": 0.10135124999999334,
          "durationTicks": 72,
          "midi": 74,
          "name": "D5",
          "ticks": 115064,
          "time": 161.97055875,
          "velocity": 0.2755905511811024
        },
        {
          "duration": 0.076013437499995,
          "durationTicks": 54,
          "midi": 71,
          "name": "B4",
          "ticks": 115064,
          "time": 161.97055875,
          "velocity": 0.18110236220472442
        },
        {
          "duration": 0.0872746874999848,
          "durationTicks": 62,
          "midi": 73,
          "name": "C#5",
          "ticks": 115188,
          "time": 162.145108125,
          "velocity": 0.18110236220472442
        },
        {
          "duration": 0.10416656249998368,
          "durationTicks": 74,
          "midi": 69,
          "name": "A4",
          "ticks": 115188,
          "time": 162.145108125,
          "velocity": 0.2755905511811024
        },
        {
          "duration": 0.08727468750004164,
          "durationTicks": 62,
          "midi": 78,
          "name": "F#5",
          "ticks": 115316,
          "time": 162.325288125,
          "velocity": 0.33858267716535434
        },
        {
          "duration": 0.08727468750004164,
          "durationTicks": 62,
          "midi": 74,
          "name": "D5",
          "ticks": 115316,
          "time": 162.325288125,
          "velocity": 0.2125984251968504
        },
        {
          "duration": 0.08727468750004164,
          "durationTicks": 62,
          "midi": 71,
          "name": "B4",
          "ticks": 115316,
          "time": 162.325288125,
          "velocity": 0.2440944881889764
        },
        {
          "duration": 0.05067562499999667,
          "durationTicks": 36,
          "midi": 78,
          "name": "F#5",
          "ticks": 115452,
          "time": 162.516729375,
          "velocity": 0.3700787401574803
        },
        {
          "duration": 0.09572062499998424,
          "durationTicks": 68,
          "midi": 73,
          "name": "C#5",
          "ticks": 115452,
          "time": 162.516729375,
          "velocity": 0.2125984251968504
        },
        {
          "duration": 0.0703828124999859,
          "durationTicks": 50,
          "midi": 69,
          "name": "A4",
          "ticks": 115452,
          "time": 162.516729375,
          "velocity": 0.2440944881889764
        },
        {
          "duration": 0.06193687500001488,
          "durationTicks": 44,
          "midi": 78,
          "name": "F#5",
          "ticks": 115574,
          "time": 162.6884634375,
          "velocity": 0.33858267716535434
        },
        {
          "duration": 0.1041665625000121,
          "durationTicks": 74,
          "midi": 74,
          "name": "D5",
          "ticks": 115574,
          "time": 162.6884634375,
          "velocity": 0.3700787401574803
        },
        {
          "duration": 0.06193687500001488,
          "durationTicks": 44,
          "midi": 71,
          "name": "B4",
          "ticks": 115574,
          "time": 162.6884634375,
          "velocity": 0.14960629921259844
        },
        {
          "duration": 0.10698187500000245,
          "durationTicks": 76,
          "midi": 78,
          "name": "F#5",
          "ticks": 115700,
          "time": 162.865828125,
          "velocity": 0.2755905511811024
        },
        {
          "duration": 0.08727468750001321,
          "durationTicks": 62,
          "midi": 73,
          "name": "C#5",
          "ticks": 115700,
          "time": 162.865828125,
          "velocity": 0.33858267716535434
        },
        {
          "duration": 0.08727468750001321,
          "durationTicks": 62,
          "midi": 69,
          "name": "A4",
          "ticks": 115700,
          "time": 162.865828125,
          "velocity": 0.18110236220472442
        },
        {
          "duration": 0.11824312499999223,
          "durationTicks": 84,
          "midi": 74,
          "name": "D5",
          "ticks": 115838,
          "time": 163.0600846875,
          "velocity": 0.30708661417322836
        },
        {
          "duration": 0.042229687499997226,
          "durationTicks": 30,
          "midi": 71,
          "name": "B4",
          "ticks": 115838,
          "time": 163.0600846875,
          "velocity": 0.2755905511811024
        },
        {
          "duration": 0.10416656250004053,
          "durationTicks": 74,
          "midi": 73,
          "name": "C#5",
          "ticks": 115958,
          "time": 163.22900343749998,
          "velocity": 0.3700787401574803
        },
        {
          "duration": 0.06475218750003364,
          "durationTicks": 46,
          "midi": 69,
          "name": "A4",
          "ticks": 115958,
          "time": 163.22900343749998,
          "velocity": 0.14960629921259844
        },
        {
          "duration": 0.13513499999999112,
          "durationTicks": 96,
          "midi": 74,
          "name": "D5",
          "ticks": 116084,
          "time": 163.406368125,
          "velocity": 0.33858267716535434
        },
        {
          "duration": 0.08445937499999445,
          "durationTicks": 60,
          "midi": 71,
          "name": "B4",
          "ticks": 116084,
          "time": 163.406368125,
          "velocity": 0.11811023622047244
        },
        {
          "duration": 0.10135125000002176,
          "durationTicks": 72,
          "midi": 73,
          "name": "C#5",
          "ticks": 116214,
          "time": 163.5893634375,
          "velocity": 0.33858267716535434
        },
        {
          "duration": 0.08164406250003253,
          "durationTicks": 58,
          "midi": 69,
          "name": "A4",
          "ticks": 116214,
          "time": 163.5893634375,
          "velocity": 0.14960629921259844
        },
        {
          "duration": 0.1041665625000121,
          "durationTicks": 74,
          "midi": 74,
          "name": "D5",
          "ticks": 116342,
          "time": 163.7695434375,
          "velocity": 0.2755905511811024
        },
        {
          "duration": 0.08445937499999445,
          "durationTicks": 60,
          "midi": 71,
          "name": "B4",
          "ticks": 116342,
          "time": 163.7695434375,
          "velocity": 0.2440944881889764
        },
        {
          "duration": 0.09008999999997513,
          "durationTicks": 64,
          "midi": 73,
          "name": "C#5",
          "ticks": 116464,
          "time": 163.9412775,
          "velocity": 0.18110236220472442
        },
        {
          "duration": 0.11542781249997347,
          "durationTicks": 82,
          "midi": 69,
          "name": "A4",
          "ticks": 116464,
          "time": 163.9412775,
          "velocity": 0.2125984251968504
        },
        {
          "duration": 0.10698187499997402,
          "durationTicks": 76,
          "midi": 74,
          "name": "D5",
          "ticks": 116596,
          "time": 164.12708812500003,
          "velocity": 0.2440944881889764
        },
        {
          "duration": 0.10698187499997402,
          "durationTicks": 76,
          "midi": 71,
          "name": "B4",
          "ticks": 116596,
          "time": 164.12708812500003,
          "velocity": 0.33858267716535434
        },
        {
          "duration": 0.10979718749999279,
          "durationTicks": 78,
          "midi": 73,
          "name": "C#5",
          "ticks": 116722,
          "time": 164.30445281250002,
          "velocity": 0.2125984251968504
        },
        {
          "duration": 0.10979718749999279,
          "durationTicks": 78,
          "midi": 69,
          "name": "A4",
          "ticks": 116722,
          "time": 164.30445281250002,
          "velocity": 0.30708661417322836
        },
        {
          "duration": 0.10135125000002176,
          "durationTicks": 72,
          "midi": 74,
          "name": "D5",
          "ticks": 116856,
          "time": 164.49307875,
          "velocity": 0.2125984251968504
        },
        {
          "duration": 0.05349093749998701,
          "durationTicks": 38,
          "midi": 71,
          "name": "B4",
          "ticks": 116856,
          "time": 164.49307875,
          "velocity": 0.33858267716535434
        },
        {
          "duration": 0.08727468750001321,
          "durationTicks": 62,
          "midi": 73,
          "name": "C#5",
          "ticks": 116978,
          "time": 164.6648128125,
          "velocity": 0.14960629921259844
        },
        {
          "duration": 0.08727468750001321,
          "durationTicks": 62,
          "midi": 69,
          "name": "A4",
          "ticks": 116978,
          "time": 164.6648128125,
          "velocity": 0.3700787401574803
        },
        {
          "duration": 0.10979718749999279,
          "durationTicks": 78,
          "midi": 74,
          "name": "D5",
          "ticks": 117106,
          "time": 164.8449928125,
          "velocity": 0.14960629921259844
        },
        {
          "duration": 0.0872746874999848,
          "durationTicks": 62,
          "midi": 71,
          "name": "B4",
          "ticks": 117106,
          "time": 164.8449928125,
          "velocity": 0.33858267716535434
        },
        {
          "duration": 0.08445937499999445,
          "durationTicks": 60,
          "midi": 73,
          "name": "C#5",
          "ticks": 117236,
          "time": 165.027988125,
          "velocity": 0.14960629921259844
        },
        {
          "duration": 0.08445937499999445,
          "durationTicks": 60,
          "midi": 69,
          "name": "A4",
          "ticks": 117236,
          "time": 165.027988125,
          "velocity": 0.2755905511811024
        },
        {
          "duration": 0.09853593749997458,
          "durationTicks": 70,
          "midi": 74,
          "name": "D5",
          "ticks": 117370,
          "time": 165.2166140625,
          "velocity": 0.18110236220472442
        },
        {
          "duration": 0.07882874999998535,
          "durationTicks": 56,
          "midi": 71,
          "name": "B4",
          "ticks": 117370,
          "time": 165.2166140625,
          "velocity": 0.30708661417322836
        },
        {
          "duration": 0.07882875000004219,
          "durationTicks": 56,
          "midi": 73,
          "name": "C#5",
          "ticks": 117494,
          "time": 165.39116343749998,
          "velocity": 0.2125984251968504
        },
        {
          "duration": 0.10416656250004053,
          "durationTicks": 74,
          "midi": 69,
          "name": "A4",
          "ticks": 117494,
          "time": 165.39116343749998,
          "velocity": 0.4015748031496063
        },
        {
          "duration": 0.08727468750001321,
          "durationTicks": 62,
          "midi": 78,
          "name": "F#5",
          "ticks": 117620,
          "time": 165.568528125,
          "velocity": 0.18110236220472442
        },
        {
          "duration": 0.12950437500001044,
          "durationTicks": 92,
          "midi": 74,
          "name": "D5",
          "ticks": 117620,
          "time": 165.568528125,
          "velocity": 0.33858267716535434
        },
        {
          "duration": 0.08727468750001321,
          "durationTicks": 62,
          "midi": 71,
          "name": "B4",
          "ticks": 117620,
          "time": 165.568528125,
          "velocity": 0.2440944881889764
        },
        {
          "duration": 0.059121562499996116,
          "durationTicks": 42,
          "midi": 78,
          "name": "F#5",
          "ticks": 117750,
          "time": 165.7515234375,
          "velocity": 0.2440944881889764
        },
        {
          "duration": 0.10698187500003087,
          "durationTicks": 76,
          "midi": 73,
          "name": "C#5",
          "ticks": 117750,
          "time": 165.7515234375,
          "velocity": 0.4015748031496063
        },
        {
          "duration": 0.10698187500003087,
          "durationTicks": 76,
          "midi": 69,
          "name": "A4",
          "ticks": 117750,
          "time": 165.7515234375,
          "velocity": 0.33858267716535434
        },
        {
          "duration": 0.07882875000001377,
          "durationTicks": 56,
          "midi": 78,
          "name": "F#5",
          "ticks": 117878,
          "time": 165.9317034375,
          "velocity": 0.30708661417322836
        },
        {
          "duration": 0.12668906249999168,
          "durationTicks": 90,
          "midi": 74,
          "name": "D5",
          "ticks": 117878,
          "time": 165.9317034375,
          "velocity": 0.3700787401574803
        },
        {
          "duration": 0.1041665625000121,
          "durationTicks": 74,
          "midi": 71,
          "name": "B4",
          "ticks": 117878,
          "time": 165.9317034375,
          "velocity": 0.33858267716535434
        },
        {
          "duration": 0.13231968749997236,
          "durationTicks": 94,
          "midi": 78,
          "name": "F#5",
          "ticks": 118006,
          "time": 166.1118834375,
          "velocity": 0.2440944881889764
        },
        {
          "duration": 0.10698187499997402,
          "durationTicks": 76,
          "midi": 73,
          "name": "C#5",
          "ticks": 118006,
          "time": 166.1118834375,
          "velocity": 0.30708661417322836
        },
        {
          "duration": 0.10698187499997402,
          "durationTicks": 76,
          "midi": 69,
          "name": "A4",
          "ticks": 118006,
          "time": 166.1118834375,
          "velocity": 0.33858267716535434
        },
        {
          "duration": 0.12387375000000134,
          "durationTicks": 88,
          "midi": 74,
          "name": "D5",
          "ticks": 118136,
          "time": 166.29487875,
          "velocity": 0.30708661417322836
        },
        {
          "duration": 0.07882875000001377,
          "durationTicks": 56,
          "midi": 71,
          "name": "B4",
          "ticks": 118136,
          "time": 166.29487875,
          "velocity": 0.11811023622047244
        },
        {
          "duration": 0.09572062499998424,
          "durationTicks": 68,
          "midi": 73,
          "name": "C#5",
          "ticks": 118270,
          "time": 166.48350468750002,
          "velocity": 0.2440944881889764
        },
        {
          "duration": 0.09572062499998424,
          "durationTicks": 68,
          "midi": 69,
          "name": "A4",
          "ticks": 118270,
          "time": 166.48350468750002,
          "velocity": 0.30708661417322836
        },
        {
          "duration": 0.08164406250000411,
          "durationTicks": 58,
          "midi": 78,
          "name": "F#5",
          "ticks": 118390,
          "time": 166.6524234375,
          "velocity": 0.4645669291338583
        },
        {
          "duration": 0.1041665625000121,
          "durationTicks": 74,
          "midi": 74,
          "name": "D5",
          "ticks": 118390,
          "time": 166.6524234375,
          "velocity": 0.30708661417322836
        },
        {
          "duration": 0.08164406250000411,
          "durationTicks": 58,
          "midi": 71,
          "name": "B4",
          "ticks": 118390,
          "time": 166.6524234375,
          "velocity": 0.30708661417322836
        },
        {
          "duration": 0.07882874999998535,
          "durationTicks": 56,
          "midi": 78,
          "name": "F#5",
          "ticks": 118522,
          "time": 166.83823406250002,
          "velocity": 0.30708661417322836
        },
        {
          "duration": 0.09853593749997458,
          "durationTicks": 70,
          "midi": 73,
          "name": "C#5",
          "ticks": 118522,
          "time": 166.83823406250002,
          "velocity": 0.30708661417322836
        },
        {
          "duration": 0.09853593749997458,
          "durationTicks": 70,
          "midi": 69,
          "name": "A4",
          "ticks": 118522,
          "time": 166.83823406250002,
          "velocity": 0.3700787401574803
        },
        {
          "duration": 0.0872746874999848,
          "durationTicks": 62,
          "midi": 78,
          "name": "F#5",
          "ticks": 118642,
          "time": 167.0071528125,
          "velocity": 0.33858267716535434
        },
        {
          "duration": 0.10979718749999279,
          "durationTicks": 78,
          "midi": 74,
          "name": "D5",
          "ticks": 118642,
          "time": 167.0071528125,
          "velocity": 0.3700787401574803
        },
        {
          "duration": 0.10979718749999279,
          "durationTicks": 78,
          "midi": 71,
          "name": "B4",
          "ticks": 118642,
          "time": 167.0071528125,
          "velocity": 0.4015748031496063
        },
        {
          "duration": 0.11261249999998313,
          "durationTicks": 80,
          "midi": 78,
          "name": "F#5",
          "ticks": 118768,
          "time": 167.18451750000003,
          "velocity": 0.33858267716535434
        },
        {
          "duration": 0.11261249999998313,
          "durationTicks": 80,
          "midi": 73,
          "name": "C#5",
          "ticks": 118768,
          "time": 167.18451750000003,
          "velocity": 0.2755905511811024
        },
        {
          "duration": 0.11261249999998313,
          "durationTicks": 80,
          "midi": 69,
          "name": "A4",
          "ticks": 118768,
          "time": 167.18451750000003,
          "velocity": 0.33858267716535434
        },
        {
          "duration": 0.0929053124999939,
          "durationTicks": 66,
          "midi": 74,
          "name": "D5",
          "ticks": 118910,
          "time": 167.3844046875,
          "velocity": 0.33858267716535434
        },
        {
          "duration": 0.0929053124999939,
          "durationTicks": 66,
          "midi": 71,
          "name": "B4",
          "ticks": 118910,
          "time": 167.3844046875,
          "velocity": 0.33858267716535434
        },
        {
          "duration": 0.10979718750002121,
          "durationTicks": 78,
          "midi": 73,
          "name": "C#5",
          "ticks": 119026,
          "time": 167.5476928125,
          "velocity": 0.2440944881889764
        },
        {
          "duration": 0.10979718750002121,
          "durationTicks": 78,
          "midi": 69,
          "name": "A4",
          "ticks": 119026,
          "time": 167.5476928125,
          "velocity": 0.33858267716535434
        },
        {
          "duration": 0.10979718749999279,
          "durationTicks": 78,
          "midi": 74,
          "name": "D5",
          "ticks": 119154,
          "time": 167.7278728125,
          "velocity": 0.18110236220472442
        },
        {
          "duration": 0.10979718749999279,
          "durationTicks": 78,
          "midi": 71,
          "name": "B4",
          "ticks": 119154,
          "time": 167.7278728125,
          "velocity": 0.33858267716535434
        },
        {
          "duration": 0.06193687499998646,
          "durationTicks": 44,
          "midi": 73,
          "name": "C#5",
          "ticks": 119286,
          "time": 167.9136834375,
          "velocity": 0.08661417322834646
        },
        {
          "duration": 0.1041665625000121,
          "durationTicks": 74,
          "midi": 69,
          "name": "A4",
          "ticks": 119286,
          "time": 167.9136834375,
          "velocity": 0.33858267716535434
        },
        {
          "duration": 0.10416656249998368,
          "durationTicks": 74,
          "midi": 74,
          "name": "D5",
          "ticks": 119416,
          "time": 168.09667875000002,
          "velocity": 0.18110236220472442
        },
        {
          "duration": 0.10416656249998368,
          "durationTicks": 74,
          "midi": 71,
          "name": "B4",
          "ticks": 119416,
          "time": 168.09667875000002,
          "velocity": 0.30708661417322836
        },
        {
          "duration": 0.0872746874999848,
          "durationTicks": 62,
          "midi": 73,
          "name": "C#5",
          "ticks": 119536,
          "time": 168.2655975,
          "velocity": 0.2440944881889764
        },
        {
          "duration": 0.11261249999998313,
          "durationTicks": 80,
          "midi": 69,
          "name": "A4",
          "ticks": 119536,
          "time": 168.2655975,
          "velocity": 0.33858267716535434
        },
        {
          "duration": 0.1041665625000121,
          "durationTicks": 74,
          "midi": 74,
          "name": "D5",
          "ticks": 119672,
          "time": 168.45703875,
          "velocity": 0.2440944881889764
        },
        {
          "duration": 0.056306250000005775,
          "durationTicks": 40,
          "midi": 71,
          "name": "B4",
          "ticks": 119672,
          "time": 168.45703875,
          "velocity": 0.2440944881889764
        },
        {
          "duration": 0.07319812499997624,
          "durationTicks": 52,
          "midi": 73,
          "name": "C#5",
          "ticks": 119806,
          "time": 168.64566468750002,
          "velocity": 0.2125984251968504
        },
        {
          "duration": 0.07319812499997624,
          "durationTicks": 52,
          "midi": 69,
          "name": "A4",
          "ticks": 119806,
          "time": 168.64566468750002,
          "velocity": 0.2440944881889764
        },
        {
          "duration": 0.09290531250002232,
          "durationTicks": 66,
          "midi": 78,
          "name": "F#5",
          "ticks": 119920,
          "time": 168.8061375,
          "velocity": 0.49606299212598426
        },
        {
          "duration": 0.11261250000001155,
          "durationTicks": 80,
          "midi": 74,
          "name": "D5",
          "ticks": 119920,
          "time": 168.8061375,
          "velocity": 0.2440944881889764
        },
        {
          "duration": 0.06756750000002398,
          "durationTicks": 48,
          "midi": 71,
          "name": "B4",
          "ticks": 119920,
          "time": 168.8061375,
          "velocity": 0.2125984251968504
        },
        {
          "duration": 0.07882874999998535,
          "durationTicks": 56,
          "midi": 78,
          "name": "F#5",
          "ticks": 120060,
          "time": 169.003209375,
          "velocity": 0.4330708661417323
        },
        {
          "duration": 0.098535937500003,
          "durationTicks": 70,
          "midi": 73,
          "name": "C#5",
          "ticks": 120060,
          "time": 169.003209375,
          "velocity": 0.2755905511811024
        },
        {
          "duration": 0.07882874999998535,
          "durationTicks": 56,
          "midi": 69,
          "name": "A4",
          "ticks": 120060,
          "time": 169.003209375,
          "velocity": 0.30708661417322836
        },
        {
          "duration": 0.07319812499997624,
          "durationTicks": 52,
          "midi": 78,
          "name": "F#5",
          "ticks": 120190,
          "time": 169.1862046875,
          "velocity": 0.4330708661417323
        },
        {
          "duration": 0.11542781249997347,
          "durationTicks": 82,
          "midi": 74,
          "name": "D5",
          "ticks": 120190,
          "time": 169.1862046875,
          "velocity": 0.2755905511811024
        },
        {
          "duration": 0.04786031249997791,
          "durationTicks": 34,
          "midi": 71,
          "name": "B4",
          "ticks": 120190,
          "time": 169.1862046875,
          "velocity": 0.2440944881889764
        },
        {
          "duration": 0.10979718749999279,
          "durationTicks": 78,
          "midi": 78,
          "name": "F#5",
          "ticks": 120306,
          "time": 169.34949281250002,
          "velocity": 0.4645669291338583
        },
        {
          "duration": 0.10979718749999279,
          "durationTicks": 78,
          "midi": 73,
          "name": "C#5",
          "ticks": 120306,
          "time": 169.34949281250002,
          "velocity": 0.2755905511811024
        },
        {
          "duration": 0.10979718749999279,
          "durationTicks": 78,
          "midi": 69,
          "name": "A4",
          "ticks": 120306,
          "time": 169.34949281250002,
          "velocity": 0.2125984251968504
        },
        {
          "duration": 0.24493218750001233,
          "durationTicks": 174,
          "midi": 74,
          "name": "D5",
          "ticks": 120434,
          "time": 169.5296728125,
          "velocity": 0.33858267716535434
        },
        {
          "duration": 0.09009000000000356,
          "durationTicks": 64,
          "midi": 71,
          "name": "B4",
          "ticks": 120434,
          "time": 169.5296728125,
          "velocity": 0.33858267716535434
        },
        {
          "duration": 0.09853593750003142,
          "durationTicks": 70,
          "midi": 73,
          "name": "C#5",
          "ticks": 120570,
          "time": 169.7211140625,
          "velocity": 0.4015748031496063
        },
        {
          "duration": 0.09853593750003142,
          "durationTicks": 70,
          "midi": 69,
          "name": "A4",
          "ticks": 120570,
          "time": 169.7211140625,
          "velocity": 0.3700787401574803
        },
        {
          "duration": 0.08164406249997569,
          "durationTicks": 58,
          "midi": 78,
          "name": "F#5",
          "ticks": 120694,
          "time": 169.89566343750002,
          "velocity": 0.4330708661417323
        },
        {
          "duration": 0.12950437499998202,
          "durationTicks": 92,
          "midi": 74,
          "name": "D5",
          "ticks": 120694,
          "time": 169.89566343750002,
          "velocity": 0.3700787401574803
        },
        {
          "duration": 0.10698187499997402,
          "durationTicks": 76,
          "midi": 71,
          "name": "B4",
          "ticks": 120694,
          "time": 169.89566343750002,
          "velocity": 0.4645669291338583
        },
        {
          "duration": 0.08445937499999445,
          "durationTicks": 60,
          "midi": 78,
          "name": "F#5",
          "ticks": 120822,
          "time": 170.0758434375,
          "velocity": 0.49606299212598426
        },
        {
          "duration": 0.08445937499999445,
          "durationTicks": 60,
          "midi": 73,
          "name": "C#5",
          "ticks": 120822,
          "time": 170.0758434375,
          "velocity": 0.14960629921259844
        },
        {
          "duration": 0.10698187500003087,
          "durationTicks": 76,
          "midi": 69,
          "name": "A4",
          "ticks": 120822,
          "time": 170.0758434375,
          "velocity": 0.4015748031496063
        },
        {
          "duration": 0.07882874999998535,
          "durationTicks": 56,
          "midi": 78,
          "name": "F#5",
          "ticks": 120952,
          "time": 170.25883875000002,
          "velocity": 0.5275590551181102
        },
        {
          "duration": 0.12105843749998257,
          "durationTicks": 86,
          "midi": 74,
          "name": "D5",
          "ticks": 120952,
          "time": 170.25883875000002,
          "velocity": 0.2755905511811024
        },
        {
          "duration": 0.10416656249998368,
          "durationTicks": 74,
          "midi": 71,
          "name": "B4",
          "ticks": 120952,
          "time": 170.25883875000002,
          "velocity": 0.5590551181102362
        },
        {
          "duration": 0.10698187499997402,
          "durationTicks": 76,
          "midi": 78,
          "name": "F#5",
          "ticks": 121078,
          "time": 170.4362034375,
          "velocity": 0.49606299212598426
        },
        {
          "duration": 0.08164406249997569,
          "durationTicks": 58,
          "midi": 73,
          "name": "C#5",
          "ticks": 121078,
          "time": 170.4362034375,
          "velocity": 0.14960629921259844
        },
        {
          "duration": 0.10698187499997402,
          "durationTicks": 76,
          "midi": 69,
          "name": "A4",
          "ticks": 121078,
          "time": 170.4362034375,
          "velocity": 0.30708661417322836
        },
        {
          "duration": 0.10135124999999334,
          "durationTicks": 72,
          "midi": 74,
          "name": "D5",
          "ticks": 121208,
          "time": 170.61919875,
          "velocity": 0.2755905511811024
        },
        {
          "duration": 0.08164406250000411,
          "durationTicks": 58,
          "midi": 71,
          "name": "B4",
          "ticks": 121208,
          "time": 170.61919875,
          "velocity": 0.4330708661417323
        },
        {
          "duration": 0.06756750000002398,
          "durationTicks": 48,
          "midi": 74,
          "name": "D5",
          "ticks": 121458,
          "time": 170.9711128125,
          "velocity": 0.5590551181102362
        },
        {
          "duration": 0.11261250000001155,
          "durationTicks": 80,
          "midi": 71,
          "name": "B4",
          "ticks": 121458,
          "time": 170.9711128125,
          "velocity": 0.4015748031496063
        },
        {
          "duration": 0.36317531250000457,
          "durationTicks": 258,
          "midi": 74,
          "name": "D5",
          "ticks": 121718,
          "time": 171.3371034375,
          "velocity": 0.5905511811023622
        },
        {
          "duration": 0.546170625000002,
          "durationTicks": 388,
          "midi": 71,
          "name": "B4",
          "ticks": 121718,
          "time": 171.3371034375,
          "velocity": 0.4015748031496063
        },
        {
          "duration": 0.18299531249999745,
          "durationTicks": 130,
          "midi": 67,
          "name": "G4",
          "ticks": 121976,
          "time": 171.70027875,
          "velocity": 0.33858267716535434
        },
        {
          "duration": 0.06193687500001488,
          "durationTicks": 44,
          "midi": 73,
          "name": "C#5",
          "ticks": 122998,
          "time": 173.1389034375,
          "velocity": 0.5905511811023622
        },
        {
          "duration": 0.1041665625000121,
          "durationTicks": 74,
          "midi": 69,
          "name": "A4",
          "ticks": 122998,
          "time": 173.1389034375,
          "velocity": 0.4015748031496063
        },
        {
          "duration": 0.36880593750001367,
          "durationTicks": 262,
          "midi": 73,
          "name": "C#5",
          "ticks": 123248,
          "time": 173.4908175,
          "velocity": 0.5905511811023622
        },
        {
          "duration": 0.5518012500000395,
          "durationTicks": 392,
          "midi": 69,
          "name": "A4",
          "ticks": 123248,
          "time": 173.4908175,
          "velocity": 0.4015748031496063
        },
        {
          "duration": 0.18299531250002588,
          "durationTicks": 130,
          "midi": 66,
          "name": "F#4",
          "ticks": 123510,
          "time": 173.8596234375,
          "velocity": 0.33858267716535434
        },
        {
          "duration": 0.05912156250002454,
          "durationTicks": 42,
          "midi": 74,
          "name": "D5",
          "ticks": 124534,
          "time": 175.3010634375,
          "velocity": 0.5905511811023622
        },
        {
          "duration": 0.10698187500000245,
          "durationTicks": 76,
          "midi": 71,
          "name": "B4",
          "ticks": 124534,
          "time": 175.3010634375,
          "velocity": 0.4015748031496063
        },
        {
          "duration": 0.349098749999996,
          "durationTicks": 248,
          "midi": 74,
          "name": "D5",
          "ticks": 124792,
          "time": 175.66423875,
          "velocity": 0.5905511811023622
        },
        {
          "duration": 0.5405400000000213,
          "durationTicks": 384,
          "midi": 71,
          "name": "B4",
          "ticks": 124792,
          "time": 175.66423875,
          "velocity": 0.4015748031496063
        },
        {
          "duration": 0.19144125000002532,
          "durationTicks": 136,
          "midi": 67,
          "name": "G4",
          "ticks": 125040,
          "time": 176.0133375,
          "velocity": 0.3700787401574803
        },
        {
          "duration": 0.05349093749998701,
          "durationTicks": 38,
          "midi": 73,
          "name": "C#5",
          "ticks": 126072,
          "time": 177.46603875,
          "velocity": 0.5905511811023622
        },
        {
          "duration": 0.10698187500003087,
          "durationTicks": 76,
          "midi": 69,
          "name": "A4",
          "ticks": 126072,
          "time": 177.46603875,
          "velocity": 0.4015748031496063
        },
        {
          "duration": 0.35754468749999546,
          "durationTicks": 254,
          "midi": 73,
          "name": "C#5",
          "ticks": 126322,
          "time": 177.8179528125,
          "velocity": 0.6220472440944882
        },
        {
          "duration": 0.5405399999999929,
          "durationTicks": 384,
          "midi": 69,
          "name": "A4",
          "ticks": 126322,
          "time": 177.8179528125,
          "velocity": 0.4015748031496063
        },
        {
          "duration": 0.18299531249999745,
          "durationTicks": 130,
          "midi": 66,
          "name": "F#4",
          "ticks": 126576,
          "time": 178.1754975,
          "velocity": 0.3700787401574803
        },
        {
          "duration": 0.06756749999999556,
          "durationTicks": 48,
          "midi": 73,
          "name": "C#5",
          "ticks": 126832,
          "time": 178.53585750000002,
          "velocity": 0.5905511811023622
        },
        {
          "duration": 0.11261249999998313,
          "durationTicks": 80,
          "midi": 69,
          "name": "A4",
          "ticks": 126832,
          "time": 178.53585750000002,
          "velocity": 0.4015748031496063
        },
        {
          "duration": 0.3603600000000142,
          "durationTicks": 256,
          "midi": 73,
          "name": "C#5",
          "ticks": 127094,
          "time": 178.9046634375,
          "velocity": 0.5905511811023622
        },
        {
          "duration": 0.5518012500000111,
          "durationTicks": 392,
          "midi": 69,
          "name": "A4",
          "ticks": 127094,
          "time": 178.9046634375,
          "velocity": 0.4015748031496063
        },
        {
          "duration": 0.06193687499998646,
          "durationTicks": 44,
          "midi": 74,
          "name": "D5",
          "ticks": 127350,
          "time": 179.26502343750002,
          "velocity": 0.49606299212598426
        },
        {
          "duration": 0.06756750000002398,
          "durationTicks": 48,
          "midi": 74,
          "name": "D5",
          "ticks": 127600,
          "time": 179.6169375,
          "velocity": 0.5590551181102362
        },
        {
          "duration": 0.10979718750002121,
          "durationTicks": 78,
          "midi": 71,
          "name": "B4",
          "ticks": 127600,
          "time": 179.6169375,
          "velocity": 0.4015748031496063
        },
        {
          "duration": 0.36317531250000457,
          "durationTicks": 258,
          "midi": 74,
          "name": "D5",
          "ticks": 127862,
          "time": 179.9857434375,
          "velocity": 0.6220472440944882
        },
        {
          "duration": 0.5377246875000026,
          "durationTicks": 382,
          "midi": 71,
          "name": "B4",
          "ticks": 127862,
          "time": 179.9857434375,
          "velocity": 0.4015748031496063
        },
        {
          "duration": 0.174549374999998,
          "durationTicks": 124,
          "midi": 67,
          "name": "G4",
          "ticks": 128120,
          "time": 180.34891875,
          "velocity": 0.3700787401574803
        },
        {
          "duration": 0.056306250000005775,
          "durationTicks": 40,
          "midi": 74,
          "name": "D5",
          "ticks": 128376,
          "time": 180.70927875,
          "velocity": 0.5905511811023622
        },
        {
          "duration": 0.098535937500003,
          "durationTicks": 70,
          "midi": 69,
          "name": "A4",
          "ticks": 128376,
          "time": 180.70927875,
          "velocity": 0.4015748031496063
        },
        {
          "duration": 0.3603600000000142,
          "durationTicks": 256,
          "midi": 74,
          "name": "D5",
          "ticks": 128630,
          "time": 181.0668234375,
          "velocity": 0.6220472440944882
        },
        {
          "duration": 0.5349093750000122,
          "durationTicks": 380,
          "midi": 69,
          "name": "A4",
          "ticks": 128630,
          "time": 181.0668234375,
          "velocity": 0.4015748031496063
        },
        {
          "duration": 0.174549374999998,
          "durationTicks": 124,
          "midi": 66,
          "name": "F#4",
          "ticks": 128886,
          "time": 181.42718343750002,
          "velocity": 0.3700787401574803
        },
        {
          "duration": 0.06193687500001488,
          "durationTicks": 44,
          "midi": 74,
          "name": "D5",
          "ticks": 129142,
          "time": 181.7875434375,
          "velocity": 0.6220472440944882
        },
        {
          "duration": 0.1041665625000121,
          "durationTicks": 74,
          "midi": 71,
          "name": "B4",
          "ticks": 129142,
          "time": 181.7875434375,
          "velocity": 0.4015748031496063
        },
        {
          "duration": 0.3462834375000057,
          "durationTicks": 246,
          "midi": 74,
          "name": "D5",
          "ticks": 129402,
          "time": 182.1535340625,
          "velocity": 0.6220472440944882
        },
        {
          "duration": 0.5461706250000304,
          "durationTicks": 388,
          "midi": 71,
          "name": "B4",
          "ticks": 129402,
          "time": 182.1535340625,
          "velocity": 0.4015748031496063
        },
        {
          "duration": 0.19988718750002477,
          "durationTicks": 142,
          "midi": 67,
          "name": "G4",
          "ticks": 129648,
          "time": 182.4998175,
          "velocity": 0.3700787401574803
        },
        {
          "duration": 0.059121562499996116,
          "durationTicks": 42,
          "midi": 74,
          "name": "D5",
          "ticks": 129910,
          "time": 182.86862343750002,
          "velocity": 0.6220472440944882
        },
        {
          "duration": 0.10698187499997402,
          "durationTicks": 76,
          "midi": 69,
          "name": "A4",
          "ticks": 129910,
          "time": 182.86862343750002,
          "velocity": 0.4015748031496063
        },
        {
          "duration": 0.36880593750001367,
          "durationTicks": 262,
          "midi": 74,
          "name": "D5",
          "ticks": 130160,
          "time": 183.2205375,
          "velocity": 0.5905511811023622
        },
        {
          "duration": 0.5602471875000106,
          "durationTicks": 398,
          "midi": 69,
          "name": "A4",
          "ticks": 130160,
          "time": 183.2205375,
          "velocity": 0.4015748031496063
        },
        {
          "duration": 0.1914412499999969,
          "durationTicks": 136,
          "midi": 71,
          "name": "B4",
          "ticks": 130422,
          "time": 183.58934343750002,
          "velocity": 0.3700787401574803
        },
        {
          "duration": 0.0563062500000342,
          "durationTicks": 40,
          "midi": 74,
          "name": "D5",
          "ticks": 130682,
          "time": 183.9553340625,
          "velocity": 0.5590551181102362
        },
        {
          "duration": 0.09572062500004108,
          "durationTicks": 68,
          "midi": 71,
          "name": "B4",
          "ticks": 130682,
          "time": 183.9553340625,
          "velocity": 0.4015748031496063
        },
        {
          "duration": 0.35754468749999546,
          "durationTicks": 254,
          "midi": 74,
          "name": "D5",
          "ticks": 130942,
          "time": 184.3213246875,
          "velocity": 0.5905511811023622
        },
        {
          "duration": 0.5349093749999838,
          "durationTicks": 380,
          "midi": 71,
          "name": "B4",
          "ticks": 130942,
          "time": 184.3213246875,
          "velocity": 0.4015748031496063
        },
        {
          "duration": 0.17736468749998835,
          "durationTicks": 126,
          "midi": 67,
          "name": "G4",
          "ticks": 131196,
          "time": 184.678869375,
          "velocity": 0.33858267716535434
        },
        {
          "duration": 0.05067562500002509,
          "durationTicks": 36,
          "midi": 73,
          "name": "C#5",
          "ticks": 132220,
          "time": 186.120309375,
          "velocity": 0.5905511811023622
        },
        {
          "duration": 0.09572062500001266,
          "durationTicks": 68,
          "midi": 69,
          "name": "A4",
          "ticks": 132220,
          "time": 186.120309375,
          "velocity": 0.4015748031496063
        },
        {
          "duration": 0.3744365625000228,
          "durationTicks": 266,
          "midi": 73,
          "name": "C#5",
          "ticks": 132464,
          "time": 186.4637775,
          "velocity": 0.5905511811023622
        },
        {
          "duration": 0.5518012500000395,
          "durationTicks": 392,
          "midi": 69,
          "name": "A4",
          "ticks": 132464,
          "time": 186.4637775,
          "velocity": 0.4015748031496063
        },
        {
          "duration": 0.16610343750002698,
          "durationTicks": 118,
          "midi": 66,
          "name": "F#4",
          "ticks": 132738,
          "time": 186.8494753125,
          "velocity": 0.33858267716535434
        },
        {
          "duration": 0.05067562500002509,
          "durationTicks": 36,
          "midi": 74,
          "name": "D5",
          "ticks": 133756,
          "time": 188.282469375,
          "velocity": 0.5905511811023622
        },
        {
          "duration": 0.09572062500001266,
          "durationTicks": 68,
          "midi": 71,
          "name": "B4",
          "ticks": 133756,
          "time": 188.282469375,
          "velocity": 0.4015748031496063
        },
        {
          "duration": 0.3772518749999847,
          "durationTicks": 268,
          "midi": 74,
          "name": "D5",
          "ticks": 134002,
          "time": 188.6287528125,
          "velocity": 0.5905511811023622
        },
        {
          "duration": 0.5377246874999742,
          "durationTicks": 382,
          "midi": 71,
          "name": "B4",
          "ticks": 134002,
          "time": 188.6287528125,
          "velocity": 0.4015748031496063
        },
        {
          "duration": 0.16047281249998946,
          "durationTicks": 114,
          "midi": 67,
          "name": "G4",
          "ticks": 134270,
          "time": 189.0060046875,
          "velocity": 0.3700787401574803
        },
        {
          "duration": 0.06756750000002398,
          "durationTicks": 48,
          "midi": 73,
          "name": "C#5",
          "ticks": 135284,
          "time": 190.433368125,
          "velocity": 0.5905511811023622
        },
        {
          "duration": 0.10979718750002121,
          "durationTicks": 78,
          "midi": 69,
          "name": "A4",
          "ticks": 135284,
          "time": 190.433368125,
          "velocity": 0.4015748031496063
        },
        {
          "duration": 0.37443656249999435,
          "durationTicks": 266,
          "midi": 73,
          "name": "C#5",
          "ticks": 135538,
          "time": 190.7909128125,
          "velocity": 0.6220472440944882
        },
        {
          "duration": 0.5489859375000208,
          "durationTicks": 390,
          "midi": 69,
          "name": "A4",
          "ticks": 135538,
          "time": 190.7909128125,
          "velocity": 0.4015748031496063
        },
        {
          "duration": 0.17454937500002643,
          "durationTicks": 124,
          "midi": 66,
          "name": "F#4",
          "ticks": 135804,
          "time": 191.165349375,
          "velocity": 0.3700787401574803
        },
        {
          "duration": 0.06756749999999556,
          "durationTicks": 48,
          "midi": 73,
          "name": "C#5",
          "ticks": 136048,
          "time": 191.50881750000002,
          "velocity": 0.5905511811023622
        },
        {
          "duration": 0.11261249999998313,
          "durationTicks": 80,
          "midi": 69,
          "name": "A4",
          "ticks": 136048,
          "time": 191.50881750000002,
          "velocity": 0.4015748031496063
        },
        {
          "duration": 0.3519140625000148,
          "durationTicks": 250,
          "midi": 73,
          "name": "C#5",
          "ticks": 136314,
          "time": 191.88325406250001,
          "velocity": 0.5905511811023622
        },
        {
          "duration": 0.546170625000002,
          "durationTicks": 388,
          "midi": 69,
          "name": "A4",
          "ticks": 136314,
          "time": 191.88325406250001,
          "velocity": 0.4015748031496063
        },
        {
          "duration": 0.06193687499998646,
          "durationTicks": 44,
          "midi": 74,
          "name": "D5",
          "ticks": 136564,
          "time": 192.23516812500003,
          "velocity": 0.49606299212598426
        },
        {
          "duration": 0.053490937500015434,
          "durationTicks": 38,
          "midi": 74,
          "name": "D5",
          "ticks": 136828,
          "time": 192.606789375,
          "velocity": 0.5590551181102362
        },
        {
          "duration": 0.098535937500003,
          "durationTicks": 70,
          "midi": 71,
          "name": "B4",
          "ticks": 136828,
          "time": 192.606789375,
          "velocity": 0.4015748031496063
        },
        {
          "duration": 0.3659906249999949,
          "durationTicks": 260,
          "midi": 74,
          "name": "D5",
          "ticks": 137080,
          "time": 192.96151875,
          "velocity": 0.6220472440944882
        },
        {
          "duration": 0.5489859375000208,
          "durationTicks": 390,
          "midi": 71,
          "name": "B4",
          "ticks": 137080,
          "time": 192.96151875,
          "velocity": 0.4015748031496063
        },
        {
          "duration": 0.18299531250002588,
          "durationTicks": 130,
          "midi": 67,
          "name": "G4",
          "ticks": 137340,
          "time": 193.327509375,
          "velocity": 0.3700787401574803
        },
        {
          "duration": 0.06193687499998646,
          "durationTicks": 44,
          "midi": 74,
          "name": "D5",
          "ticks": 137590,
          "time": 193.67942343750002,
          "velocity": 0.5905511811023622
        },
        {
          "duration": 0.10416656249998368,
          "durationTicks": 74,
          "midi": 69,
          "name": "A4",
          "ticks": 137590,
          "time": 193.67942343750002,
          "velocity": 0.4015748031496063
        },
        {
          "duration": 0.35191406249998636,
          "durationTicks": 250,
          "midi": 74,
          "name": "D5",
          "ticks": 137848,
          "time": 194.04259875000002,
          "velocity": 0.6220472440944882
        },
        {
          "duration": 0.5377246874999742,
          "durationTicks": 382,
          "midi": 69,
          "name": "A4",
          "ticks": 137848,
          "time": 194.04259875000002,
          "velocity": 0.4015748031496063
        },
        {
          "duration": 0.1858106249999878,
          "durationTicks": 132,
          "midi": 66,
          "name": "F#4",
          "ticks": 138098,
          "time": 194.3945128125,
          "velocity": 0.3700787401574803
        },
        {
          "duration": 0.053490937500043856,
          "durationTicks": 38,
          "midi": 74,
          "name": "D5",
          "ticks": 138362,
          "time": 194.7661340625,
          "velocity": 0.6220472440944882
        },
        {
          "duration": 0.10135125000002176,
          "durationTicks": 72,
          "midi": 71,
          "name": "B4",
          "ticks": 138362,
          "time": 194.7661340625,
          "velocity": 0.4015748031496063
        },
        {
          "duration": 0.33783750000000623,
          "durationTicks": 240,
          "midi": 74,
          "name": "D5",
          "ticks": 138626,
          "time": 195.1377553125,
          "velocity": 0.6220472440944882
        },
        {
          "duration": 0.5349093750000407,
          "durationTicks": 380,
          "midi": 71,
          "name": "B4",
          "ticks": 138626,
          "time": 195.1377553125,
          "velocity": 0.4015748031496063
        },
        {
          "duration": 0.19707187500003442,
          "durationTicks": 140,
          "midi": 67,
          "name": "G4",
          "ticks": 138866,
          "time": 195.4755928125,
          "velocity": 0.3700787401574803
        },
        {
          "duration": 0.056306249999977354,
          "durationTicks": 40,
          "midi": 74,
          "name": "D5",
          "ticks": 139132,
          "time": 195.85002937500002,
          "velocity": 0.6220472440944882
        },
        {
          "duration": 0.09853593749997458,
          "durationTicks": 70,
          "midi": 69,
          "name": "A4",
          "ticks": 139132,
          "time": 195.85002937500002,
          "velocity": 0.4015748031496063
        },
        {
          "duration": 0.36317531250000457,
          "durationTicks": 258,
          "midi": 74,
          "name": "D5",
          "ticks": 139386,
          "time": 196.20757406250002,
          "velocity": 0.5905511811023622
        },
        {
          "duration": 0.546170625000002,
          "durationTicks": 388,
          "midi": 69,
          "name": "A4",
          "ticks": 139386,
          "time": 196.20757406250002,
          "velocity": 0.4015748031496063
        },
        {
          "duration": 0.18299531249999745,
          "durationTicks": 130,
          "midi": 71,
          "name": "B4",
          "ticks": 139644,
          "time": 196.57074937500002,
          "velocity": 0.3700787401574803
        },
        {
          "duration": 0.0703828124999859,
          "durationTicks": 50,
          "midi": 78,
          "name": "F#5",
          "ticks": 139774,
          "time": 196.75374468750002,
          "velocity": 0.4330708661417323
        },
        {
          "duration": 0.09853593750003142,
          "durationTicks": 70,
          "midi": 81,
          "name": "A5",
          "ticks": 139896,
          "time": 196.92547875,
          "velocity": 0.4330708661417323
        },
        {
          "duration": 0.076013437499995,
          "durationTicks": 54,
          "midi": 78,
          "name": "F#5",
          "ticks": 140026,
          "time": 197.10847406250002,
          "velocity": 0.4330708661417323
        },
        {
          "duration": 0.11261250000001155,
          "durationTicks": 80,
          "midi": 83,
          "name": "B5",
          "ticks": 140144,
          "time": 197.2745775,
          "velocity": 0.4330708661417323
        },
        {
          "duration": 0.0703828124999859,
          "durationTicks": 50,
          "midi": 78,
          "name": "F#5",
          "ticks": 140272,
          "time": 197.45475750000003,
          "velocity": 0.4330708661417323
        },
        {
          "duration": 0.1041665625000121,
          "durationTicks": 74,
          "midi": 81,
          "name": "A5",
          "ticks": 140408,
          "time": 197.64619875,
          "velocity": 0.4330708661417323
        },
        {
          "duration": 0.07882875000001377,
          "durationTicks": 56,
          "midi": 78,
          "name": "F#5",
          "ticks": 140538,
          "time": 197.8291940625,
          "velocity": 0.4330708661417323
        },
        {
          "duration": 0.10135124999999334,
          "durationTicks": 72,
          "midi": 81,
          "name": "A5",
          "ticks": 140664,
          "time": 198.00655875,
          "velocity": 0.4330708661417323
        },
        {
          "duration": 0.07319812499997624,
          "durationTicks": 52,
          "midi": 78,
          "name": "F#5",
          "ticks": 140794,
          "time": 198.1895540625,
          "velocity": 0.4330708661417323
        },
        {
          "duration": 0.10135124999999334,
          "durationTicks": 72,
          "midi": 83,
          "name": "B5",
          "ticks": 140920,
          "time": 198.36691875000002,
          "velocity": 0.4330708661417323
        },
        {
          "duration": 0.08164406250000411,
          "durationTicks": 58,
          "midi": 78,
          "name": "F#5",
          "ticks": 141048,
          "time": 198.54709875,
          "velocity": 0.4330708661417323
        },
        {
          "duration": 0.1041665625000121,
          "durationTicks": 74,
          "midi": 81,
          "name": "A5",
          "ticks": 141176,
          "time": 198.72727875,
          "velocity": 0.4330708661417323
        },
        {
          "duration": 0.07038281250001432,
          "durationTicks": 50,
          "midi": 78,
          "name": "F#5",
          "ticks": 141308,
          "time": 198.913089375,
          "velocity": 0.4330708661417323
        },
        {
          "duration": 0.09853593750003142,
          "durationTicks": 70,
          "midi": 81,
          "name": "A5",
          "ticks": 141434,
          "time": 199.0904540625,
          "velocity": 0.4330708661417323
        },
        {
          "duration": 0.07319812500000467,
          "durationTicks": 52,
          "midi": 78,
          "name": "F#5",
          "ticks": 141564,
          "time": 199.273449375,
          "velocity": 0.4330708661417323
        },
        {
          "duration": 0.11261249999998313,
          "durationTicks": 80,
          "midi": 83,
          "name": "B5",
          "ticks": 141682,
          "time": 199.4395528125,
          "velocity": 0.4330708661417323
        },
        {
          "duration": 0.059121562499996116,
          "durationTicks": 42,
          "midi": 78,
          "name": "F#5",
          "ticks": 141816,
          "time": 199.62817875000002,
          "velocity": 0.4330708661417323
        },
        {
          "duration": 0.10135124999999334,
          "durationTicks": 72,
          "midi": 81,
          "name": "A5",
          "ticks": 141944,
          "time": 199.80835875,
          "velocity": 0.4330708661417323
        },
        {
          "duration": 0.07319812500003309,
          "durationTicks": 52,
          "midi": 78,
          "name": "F#5",
          "ticks": 142076,
          "time": 199.99416937499998,
          "velocity": 0.4330708661417323
        },
        {
          "duration": 0.11261249999998313,
          "durationTicks": 80,
          "midi": 81,
          "name": "A5",
          "ticks": 142194,
          "time": 200.1602728125,
          "velocity": 0.4330708661417323
        },
        {
          "duration": 0.0872746874999848,
          "durationTicks": 62,
          "midi": 78,
          "name": "F#5",
          "ticks": 142320,
          "time": 200.3376375,
          "velocity": 0.4330708661417323
        },
        {
          "duration": 0.09572062499998424,
          "durationTicks": 68,
          "midi": 83,
          "name": "B5",
          "ticks": 142458,
          "time": 200.53189406250002,
          "velocity": 0.4330708661417323
        },
        {
          "duration": 0.08164406249997569,
          "durationTicks": 58,
          "midi": 78,
          "name": "F#5",
          "ticks": 142582,
          "time": 200.7064434375,
          "velocity": 0.4330708661417323
        },
        {
          "duration": 0.09572062499998424,
          "durationTicks": 68,
          "midi": 81,
          "name": "A5",
          "ticks": 142714,
          "time": 200.89225406250003,
          "velocity": 0.4330708661417323
        },
        {
          "duration": 0.09008999999997513,
          "durationTicks": 64,
          "midi": 78,
          "name": "F#5",
          "ticks": 142834,
          "time": 201.06117281250002,
          "velocity": 0.4330708661417323
        },
        {
          "duration": 0.10135125000002176,
          "durationTicks": 72,
          "midi": 81,
          "name": "A5",
          "ticks": 142966,
          "time": 201.2469834375,
          "velocity": 0.4330708661417323
        },
        {
          "duration": 0.09009000000000356,
          "durationTicks": 64,
          "midi": 78,
          "name": "F#5",
          "ticks": 143090,
          "time": 201.4215328125,
          "velocity": 0.4330708661417323
        },
        {
          "duration": 0.10979718749999279,
          "durationTicks": 78,
          "midi": 83,
          "name": "B5",
          "ticks": 143218,
          "time": 201.6017128125,
          "velocity": 0.4645669291338583
        },
        {
          "duration": 0.05349093749998701,
          "durationTicks": 38,
          "midi": 78,
          "name": "F#5",
          "ticks": 143352,
          "time": 201.79033875000002,
          "velocity": 0.4330708661417323
        },
        {
          "duration": 0.10135124999999334,
          "durationTicks": 72,
          "midi": 81,
          "name": "A5",
          "ticks": 143480,
          "time": 201.97051875,
          "velocity": 0.49606299212598426
        },
        {
          "duration": 0.09009000000000356,
          "durationTicks": 64,
          "midi": 78,
          "name": "F#5",
          "ticks": 143602,
          "time": 202.1422528125,
          "velocity": 0.4330708661417323
        },
        {
          "duration": 0.10416656249998368,
          "durationTicks": 74,
          "midi": 81,
          "name": "A5",
          "ticks": 143734,
          "time": 202.32806343750002,
          "velocity": 0.49606299212598426
        },
        {
          "duration": 0.076013437499995,
          "durationTicks": 54,
          "midi": 78,
          "name": "F#5",
          "ticks": 143864,
          "time": 202.51105875,
          "velocity": 0.49606299212598426
        },
        {
          "duration": 0.10979718749999279,
          "durationTicks": 78,
          "midi": 83,
          "name": "B5",
          "ticks": 143986,
          "time": 202.68279281250003,
          "velocity": 0.5275590551181102
        },
        {
          "duration": 0.11261249999998313,
          "durationTicks": 80,
          "midi": 78,
          "name": "F#5",
          "ticks": 144112,
          "time": 202.8601575,
          "velocity": 0.49606299212598426
        },
        {
          "duration": 0.09853593749997458,
          "durationTicks": 70,
          "midi": 81,
          "name": "A5",
          "ticks": 144250,
          "time": 203.05441406250003,
          "velocity": 0.5275590551181102
        },
        {
          "duration": 0.076013437499995,
          "durationTicks": 54,
          "midi": 78,
          "name": "F#5",
          "ticks": 144380,
          "time": 203.237409375,
          "velocity": 0.4330708661417323
        },
        {
          "duration": 0.09853593750003142,
          "durationTicks": 70,
          "midi": 81,
          "name": "A5",
          "ticks": 144506,
          "time": 203.4147740625,
          "velocity": 0.4330708661417323
        },
        {
          "duration": 0.07319812499997624,
          "durationTicks": 52,
          "midi": 78,
          "name": "F#5",
          "ticks": 144634,
          "time": 203.59495406250002,
          "velocity": 0.4330708661417323
        },
        {
          "duration": 0.10979718749999279,
          "durationTicks": 78,
          "midi": 83,
          "name": "B5",
          "ticks": 144752,
          "time": 203.7610575,
          "velocity": 0.4330708661417323
        },
        {
          "duration": 0.056306250000005775,
          "durationTicks": 40,
          "midi": 78,
          "name": "F#5",
          "ticks": 144890,
          "time": 203.9553140625,
          "velocity": 0.4330708661417323
        },
        {
          "duration": 0.10979718749999279,
          "durationTicks": 78,
          "midi": 81,
          "name": "A5",
          "ticks": 145010,
          "time": 204.1242328125,
          "velocity": 0.4330708661417323
        },
        {
          "duration": 0.08727468750001321,
          "durationTicks": 62,
          "midi": 78,
          "name": "F#5",
          "ticks": 145138,
          "time": 204.3044128125,
          "velocity": 0.4330708661417323
        },
        {
          "duration": 0.10979718749999279,
          "durationTicks": 78,
          "midi": 81,
          "name": "A5",
          "ticks": 145264,
          "time": 204.48177750000002,
          "velocity": 0.4330708661417323
        },
        {
          "duration": 0.076013437499995,
          "durationTicks": 54,
          "midi": 78,
          "name": "F#5",
          "ticks": 145400,
          "time": 204.67321875,
          "velocity": 0.4330708661417323
        },
        {
          "duration": 0.098535937500003,
          "durationTicks": 70,
          "midi": 83,
          "name": "B5",
          "ticks": 145532,
          "time": 204.859029375,
          "velocity": 0.4330708661417323
        },
        {
          "duration": 0.0929053124999939,
          "durationTicks": 66,
          "midi": 78,
          "name": "F#5",
          "ticks": 145648,
          "time": 205.0223175,
          "velocity": 0.4330708661417323
        },
        {
          "duration": 0.09853593749997458,
          "durationTicks": 70,
          "midi": 81,
          "name": "A5",
          "ticks": 145786,
          "time": 205.21657406250003,
          "velocity": 0.4330708661417323
        },
        {
          "duration": 0.06756750000002398,
          "durationTicks": 48,
          "midi": 74,
          "name": "D5",
          "ticks": 146032,
          "time": 205.5628575,
          "velocity": 0.5590551181102362
        },
        {
          "duration": 0.11261250000001155,
          "durationTicks": 80,
          "midi": 71,
          "name": "B4",
          "ticks": 146032,
          "time": 205.5628575,
          "velocity": 0.4015748031496063
        },
        {
          "duration": 0.349098749999996,
          "durationTicks": 248,
          "midi": 74,
          "name": "D5",
          "ticks": 146298,
          "time": 205.9372940625,
          "velocity": 0.5905511811023622
        },
        {
          "duration": 0.537724687500031,
          "durationTicks": 382,
          "midi": 71,
          "name": "B4",
          "ticks": 146298,
          "time": 205.9372940625,
          "velocity": 0.4015748031496063
        },
        {
          "duration": 0.18862593750003498,
          "durationTicks": 134,
          "midi": 67,
          "name": "G4",
          "ticks": 146546,
          "time": 206.2863928125,
          "velocity": 0.33858267716535434
        },
        {
          "duration": 0.06475218750003364,
          "durationTicks": 46,
          "midi": 73,
          "name": "C#5",
          "ticks": 147570,
          "time": 207.7278328125,
          "velocity": 0.5905511811023622
        },
        {
          "duration": 0.11261250000001155,
          "durationTicks": 80,
          "midi": 69,
          "name": "A4",
          "ticks": 147570,
          "time": 207.7278328125,
          "velocity": 0.4015748031496063
        },
        {
          "duration": 0.3603600000000142,
          "durationTicks": 256,
          "midi": 73,
          "name": "C#5",
          "ticks": 147834,
          "time": 208.0994540625,
          "velocity": 0.5905511811023622
        },
        {
          "duration": 0.5264634374999844,
          "durationTicks": 374,
          "midi": 69,
          "name": "A4",
          "ticks": 147834,
          "time": 208.0994540625,
          "velocity": 0.4015748031496063
        },
        {
          "duration": 0.16610343749997014,
          "durationTicks": 118,
          "midi": 66,
          "name": "F#4",
          "ticks": 148090,
          "time": 208.45981406250002,
          "velocity": 0.33858267716535434
        },
        {
          "duration": 0.053490937500043856,
          "durationTicks": 38,
          "midi": 74,
          "name": "D5",
          "ticks": 149114,
          "time": 209.9012540625,
          "velocity": 0.5905511811023622
        },
        {
          "duration": 0.09853593750003142,
          "durationTicks": 70,
          "midi": 71,
          "name": "B4",
          "ticks": 149114,
          "time": 209.9012540625,
          "velocity": 0.4015748031496063
        },
        {
          "duration": 0.35754468749999546,
          "durationTicks": 254,
          "midi": 74,
          "name": "D5",
          "ticks": 149374,
          "time": 210.2672446875,
          "velocity": 0.5905511811023622
        },
        {
          "duration": 0.523648124999994,
          "durationTicks": 372,
          "midi": 71,
          "name": "B4",
          "ticks": 149374,
          "time": 210.2672446875,
          "velocity": 0.4015748031496063
        },
        {
          "duration": 0.16610343749999856,
          "durationTicks": 118,
          "midi": 67,
          "name": "G4",
          "ticks": 149628,
          "time": 210.624789375,
          "velocity": 0.3700787401574803
        },
        {
          "duration": 0.05912156250002454,
          "durationTicks": 42,
          "midi": 73,
          "name": "C#5",
          "ticks": 150648,
          "time": 212.06059875,
          "velocity": 0.5905511811023622
        },
        {
          "duration": 0.10135125000002176,
          "durationTicks": 72,
          "midi": 69,
          "name": "A4",
          "ticks": 150648,
          "time": 212.06059875,
          "velocity": 0.4015748031496063
        },
        {
          "duration": 0.5292787500000316,
          "durationTicks": 376,
          "midi": 69,
          "name": "A4",
          "ticks": 150912,
          "time": 212.43222,
          "velocity": 0.4015748031496063
        },
        {
          "duration": 0.34065281249999657,
          "durationTicks": 242,
          "midi": 73,
          "name": "C#5",
          "ticks": 150912,
          "time": 212.43222,
          "velocity": 0.6220472440944882
        },
        {
          "duration": 0.18862593750003498,
          "durationTicks": 134,
          "midi": 66,
          "name": "F#4",
          "ticks": 151154,
          "time": 212.7728728125,
          "velocity": 0.3700787401574803
        },
        {
          "duration": 0.06193687500001488,
          "durationTicks": 44,
          "midi": 73,
          "name": "C#5",
          "ticks": 151412,
          "time": 213.136048125,
          "velocity": 0.5905511811023622
        },
        {
          "duration": 0.10698187500000245,
          "durationTicks": 76,
          "midi": 69,
          "name": "A4",
          "ticks": 151412,
          "time": 213.136048125,
          "velocity": 0.4015748031496063
        },
        {
          "duration": 0.3603600000000142,
          "durationTicks": 256,
          "midi": 73,
          "name": "C#5",
          "ticks": 151674,
          "time": 213.50485406250002,
          "velocity": 0.5905511811023622
        },
        {
          "duration": 0.546170625000002,
          "durationTicks": 388,
          "midi": 69,
          "name": "A4",
          "ticks": 151674,
          "time": 213.50485406250002,
          "velocity": 0.4015748031496063
        },
        {
          "duration": 0.05349093749998701,
          "durationTicks": 38,
          "midi": 74,
          "name": "D5",
          "ticks": 151930,
          "time": 213.86521406250003,
          "velocity": 0.49606299212598426
        },
        {
          "duration": 0.06756750000002398,
          "durationTicks": 48,
          "midi": 74,
          "name": "D5",
          "ticks": 152178,
          "time": 214.2143128125,
          "velocity": 0.5590551181102362
        },
        {
          "duration": 0.11261250000001155,
          "durationTicks": 80,
          "midi": 71,
          "name": "B4",
          "ticks": 152178,
          "time": 214.2143128125,
          "velocity": 0.4015748031496063
        },
        {
          "duration": 0.37443656249999435,
          "durationTicks": 266,
          "midi": 74,
          "name": "D5",
          "ticks": 152434,
          "time": 214.5746728125,
          "velocity": 0.6220472440944882
        },
        {
          "duration": 0.5574318750000202,
          "durationTicks": 396,
          "midi": 71,
          "name": "B4",
          "ticks": 152434,
          "time": 214.5746728125,
          "velocity": 0.4015748031496063
        },
        {
          "duration": 0.18299531250002588,
          "durationTicks": 130,
          "midi": 67,
          "name": "G4",
          "ticks": 152700,
          "time": 214.949109375,
          "velocity": 0.3700787401574803
        },
        {
          "duration": 0.056306250000005775,
          "durationTicks": 40,
          "midi": 74,
          "name": "D5",
          "ticks": 152954,
          "time": 215.3066540625,
          "velocity": 0.5905511811023622
        },
        {
          "duration": 0.098535937500003,
          "durationTicks": 70,
          "midi": 69,
          "name": "A4",
          "ticks": 152954,
          "time": 215.3066540625,
          "velocity": 0.4015748031496063
        },
        {
          "duration": 0.35191406249998636,
          "durationTicks": 250,
          "midi": 74,
          "name": "D5",
          "ticks": 153208,
          "time": 215.66419875000003,
          "velocity": 0.6220472440944882
        },
        {
          "duration": 0.5489859374999924,
          "durationTicks": 390,
          "midi": 69,
          "name": "A4",
          "ticks": 153208,
          "time": 215.66419875000003,
          "velocity": 0.4015748031496063
        },
        {
          "duration": 0.174549374999998,
          "durationTicks": 124,
          "midi": 66,
          "name": "F#4",
          "ticks": 153474,
          "time": 216.03863531250002,
          "velocity": 0.3700787401574803
        },
        {
          "duration": 0.05912156250002454,
          "durationTicks": 42,
          "midi": 74,
          "name": "D5",
          "ticks": 153720,
          "time": 216.38491875,
          "velocity": 0.6220472440944882
        },
        {
          "duration": 0.10135125000002176,
          "durationTicks": 72,
          "midi": 71,
          "name": "B4",
          "ticks": 153720,
          "time": 216.38491875,
          "velocity": 0.4015748031496063
        },
        {
          "duration": 0.3603599999999858,
          "durationTicks": 256,
          "midi": 74,
          "name": "D5",
          "ticks": 153970,
          "time": 216.7368328125,
          "velocity": 0.6220472440944882
        },
        {
          "duration": 0.5433553124999833,
          "durationTicks": 386,
          "midi": 71,
          "name": "B4",
          "ticks": 153970,
          "time": 216.7368328125,
          "velocity": 0.4015748031496063
        },
        {
          "duration": 0.18299531249999745,
          "durationTicks": 130,
          "midi": 67,
          "name": "G4",
          "ticks": 154226,
          "time": 217.0971928125,
          "velocity": 0.3700787401574803
        },
        {
          "duration": 0.053490937500015434,
          "durationTicks": 38,
          "midi": 74,
          "name": "D5",
          "ticks": 154490,
          "time": 217.4688140625,
          "velocity": 0.6220472440944882
        },
        {
          "duration": 0.09572062500001266,
          "durationTicks": 68,
          "midi": 69,
          "name": "A4",
          "ticks": 154490,
          "time": 217.4688140625,
          "velocity": 0.4015748031496063
        },
        {
          "duration": 0.37443656249999435,
          "durationTicks": 266,
          "midi": 74,
          "name": "D5",
          "ticks": 154738,
          "time": 217.81791281250003,
          "velocity": 0.5905511811023622
        },
        {
          "duration": 0.5574318749999918,
          "durationTicks": 396,
          "midi": 69,
          "name": "A4",
          "ticks": 154738,
          "time": 217.81791281250003,
          "velocity": 0.4015748031496063
        },
        {
          "duration": 0.18299531249999745,
          "durationTicks": 130,
          "midi": 71,
          "name": "B4",
          "ticks": 155004,
          "time": 218.19234937500002,
          "velocity": 0.3700787401574803
        },
        {
          "duration": 0.053490937500043856,
          "durationTicks": 38,
          "midi": 74,
          "name": "D5",
          "ticks": 155258,
          "time": 218.5498940625,
          "velocity": 0.5590551181102362
        },
        {
          "duration": 0.10135125000002176,
          "durationTicks": 72,
          "midi": 71,
          "name": "B4",
          "ticks": 155258,
          "time": 218.5498940625,
          "velocity": 0.4015748031496063
        },
        {
          "duration": 0.3462834375000057,
          "durationTicks": 246,
          "midi": 74,
          "name": "D5",
          "ticks": 155528,
          "time": 218.92996125,
          "velocity": 0.6220472440944882
        },
        {
          "duration": 0.5123868750000042,
          "durationTicks": 364,
          "midi": 71,
          "name": "B4",
          "ticks": 155528,
          "time": 218.92996125,
          "velocity": 0.4015748031496063
        },
        {
          "duration": 0.16610343749999856,
          "durationTicks": 118,
          "midi": 67,
          "name": "G4",
          "ticks": 155774,
          "time": 219.2762446875,
          "velocity": 0.3700787401574803
        },
        {
          "duration": 0.0647521874999768,
          "durationTicks": 46,
          "midi": 74,
          "name": "D5",
          "ticks": 156016,
          "time": 219.61689750000002,
          "velocity": 0.5905511811023622
        },
        {
          "duration": 0.11542781249997347,
          "durationTicks": 82,
          "midi": 69,
          "name": "A4",
          "ticks": 156016,
          "time": 219.61689750000002,
          "velocity": 0.4015748031496063
        },
        {
          "duration": 0.3772518749999847,
          "durationTicks": 268,
          "midi": 74,
          "name": "D5",
          "ticks": 156274,
          "time": 219.98007281250003,
          "velocity": 0.6220472440944882
        },
        {
          "duration": 0.5574318749999918,
          "durationTicks": 396,
          "midi": 69,
          "name": "A4",
          "ticks": 156274,
          "time": 219.98007281250003,
          "velocity": 0.4015748031496063
        },
        {
          "duration": 0.1801800000000071,
          "durationTicks": 128,
          "midi": 66,
          "name": "F#4",
          "ticks": 156542,
          "time": 220.3573246875,
          "velocity": 0.3700787401574803
        },
        {
          "duration": 0.06475218750003364,
          "durationTicks": 46,
          "midi": 74,
          "name": "D5",
          "ticks": 156786,
          "time": 220.7007928125,
          "velocity": 0.6220472440944882
        },
        {
          "duration": 0.11261250000001155,
          "durationTicks": 80,
          "midi": 71,
          "name": "B4",
          "ticks": 156786,
          "time": 220.7007928125,
          "velocity": 0.4015748031496063
        },
        {
          "duration": 0.36317531250000457,
          "durationTicks": 258,
          "midi": 74,
          "name": "D5",
          "ticks": 157050,
          "time": 221.0724140625,
          "velocity": 0.6220472440944882
        },
        {
          "duration": 0.5292787500000031,
          "durationTicks": 376,
          "midi": 71,
          "name": "B4",
          "ticks": 157050,
          "time": 221.0724140625,
          "velocity": 0.4015748031496063
        },
        {
          "duration": 0.16610343749999856,
          "durationTicks": 118,
          "midi": 67,
          "name": "G4",
          "ticks": 157308,
          "time": 221.435589375,
          "velocity": 0.3700787401574803
        },
        {
          "duration": 0.059121562499996116,
          "durationTicks": 42,
          "midi": 74,
          "name": "D5",
          "ticks": 157562,
          "time": 221.7931340625,
          "velocity": 0.6220472440944882
        },
        {
          "duration": 0.10135124999999334,
          "durationTicks": 72,
          "midi": 69,
          "name": "A4",
          "ticks": 157562,
          "time": 221.7931340625,
          "velocity": 0.4015748031496063
        },
        {
          "duration": 0.34909875000002444,
          "durationTicks": 248,
          "midi": 74,
          "name": "D5",
          "ticks": 157820,
          "time": 222.156309375,
          "velocity": 0.5905511811023622
        },
        {
          "duration": 0.34909875000002444,
          "durationTicks": 248,
          "midi": 69,
          "name": "A4",
          "ticks": 157820,
          "time": 222.156309375,
          "velocity": 0.4015748031496063
        },
        {
          "duration": 0.17736468749998835,
          "durationTicks": 126,
          "midi": 69,
          "name": "A4",
          "ticks": 158068,
          "time": 222.50540812500003,
          "velocity": 0.4015748031496063
        },
        {
          "duration": 0.3603599999999574,
          "durationTicks": 256,
          "midi": 66,
          "name": "F#4",
          "ticks": 158068,
          "time": 222.50540812500003,
          "velocity": 0.4015748031496063
        },
        {
          "duration": 0.15765749999999912,
          "durationTicks": 112,
          "midi": 74,
          "name": "D5",
          "ticks": 158082,
          "time": 222.52511531250002,
          "velocity": 0.5905511811023622
        }
      ]
    },
    {
      "channel": 3,
      "controlChanges": {
        "7": [
          {
            "number": 7,
            "ticks": 59902,
            "time": 84.3214246875,
            "value": 1
          }
        ]
      },
      "pitchBends": [],
      "instrument": {
        "family": "synth lead",
        "number": 81,
        "name": "lead 2 (sawtooth)"
      },
      "name": "",
      "notes": [
        {
          "duration": 3.423420000000002,
          "durationTicks": 2432,
          "midi": 62,
          "name": "D4",
          "ticks": 8318,
          "time": 11.7088846875,
          "velocity": 0.33858267716535434
        },
        {
          "duration": 3.423420000000002,
          "durationTicks": 2432,
          "midi": 59,
          "name": "B3",
          "ticks": 8318,
          "time": 11.7088846875,
          "velocity": 0.5590551181102362
        },
        {
          "duration": 3.423420000000002,
          "durationTicks": 2432,
          "midi": 55,
          "name": "G3",
          "ticks": 8318,
          "time": 11.7088846875,
          "velocity": 0.5275590551181102
        },
        {
          "duration": 3.423420000000002,
          "durationTicks": 2432,
          "midi": 43,
          "name": "G2",
          "ticks": 8318,
          "time": 11.7088846875,
          "velocity": 0.3700787401574803
        },
        {
          "duration": 0.8840081249999994,
          "durationTicks": 628,
          "midi": 61,
          "name": "C#4",
          "ticks": 10750,
          "time": 15.132304687500001,
          "velocity": 0.5905511811023622
        },
        {
          "duration": 0.8840081249999994,
          "durationTicks": 628,
          "midi": 57,
          "name": "A3",
          "ticks": 10750,
          "time": 15.132304687500001,
          "velocity": 0.5275590551181102
        },
        {
          "duration": 0.8840081249999994,
          "durationTicks": 628,
          "midi": 45,
          "name": "A2",
          "ticks": 10750,
          "time": 15.132304687500001,
          "velocity": 0.3700787401574803
        },
        {
          "duration": 3.4093434375000022,
          "durationTicks": 2422,
          "midi": 62,
          "name": "D4",
          "ticks": 11402,
          "time": 16.0500965625,
          "velocity": 0.33858267716535434
        },
        {
          "duration": 3.4093434375000022,
          "durationTicks": 2422,
          "midi": 59,
          "name": "B3",
          "ticks": 11402,
          "time": 16.0500965625,
          "velocity": 0.5590551181102362
        },
        {
          "duration": 3.4093434375000022,
          "durationTicks": 2422,
          "midi": 55,
          "name": "G3",
          "ticks": 11402,
          "time": 16.0500965625,
          "velocity": 0.5275590551181102
        },
        {
          "duration": 3.4093434375000022,
          "durationTicks": 2422,
          "midi": 43,
          "name": "G2",
          "ticks": 11402,
          "time": 16.0500965625,
          "velocity": 0.3700787401574803
        },
        {
          "duration": 0.8980846875000026,
          "durationTicks": 638,
          "midi": 45,
          "name": "A2",
          "ticks": 13824,
          "time": 19.45944,
          "velocity": 0.3700787401574803
        },
        {
          "duration": 0.8980846875000026,
          "durationTicks": 638,
          "midi": 57,
          "name": "A3",
          "ticks": 13824,
          "time": 19.45944,
          "velocity": 0.5275590551181102
        },
        {
          "duration": 0.8980846875000026,
          "durationTicks": 638,
          "midi": 61,
          "name": "C#4",
          "ticks": 13824,
          "time": 19.45944,
          "velocity": 0.5905511811023622
        },
        {
          "duration": 3.4262353124999976,
          "durationTicks": 2434,
          "midi": 62,
          "name": "D4",
          "ticks": 14462,
          "time": 20.357524687500003,
          "velocity": 0.33858267716535434
        },
        {
          "duration": 3.4262353124999976,
          "durationTicks": 2434,
          "midi": 59,
          "name": "B3",
          "ticks": 14462,
          "time": 20.357524687500003,
          "velocity": 0.5590551181102362
        },
        {
          "duration": 3.4262353124999976,
          "durationTicks": 2434,
          "midi": 55,
          "name": "G3",
          "ticks": 14462,
          "time": 20.357524687500003,
          "velocity": 0.5275590551181102
        },
        {
          "duration": 3.4262353124999976,
          "durationTicks": 2434,
          "midi": 43,
          "name": "G2",
          "ticks": 14462,
          "time": 20.357524687500003,
          "velocity": 0.3700787401574803
        },
        {
          "duration": 0.8980846875000026,
          "durationTicks": 638,
          "midi": 61,
          "name": "C#4",
          "ticks": 16896,
          "time": 23.78376,
          "velocity": 0.5905511811023622
        },
        {
          "duration": 0.8980846875000026,
          "durationTicks": 638,
          "midi": 57,
          "name": "A3",
          "ticks": 16896,
          "time": 23.78376,
          "velocity": 0.5275590551181102
        },
        {
          "duration": 0.8980846875000026,
          "durationTicks": 638,
          "midi": 45,
          "name": "A2",
          "ticks": 16896,
          "time": 23.78376,
          "velocity": 0.3700787401574803
        },
        {
          "duration": 3.420604687499999,
          "durationTicks": 2430,
          "midi": 62,
          "name": "D4",
          "ticks": 17534,
          "time": 24.681844687500003,
          "velocity": 0.33858267716535434
        },
        {
          "duration": 3.420604687499999,
          "durationTicks": 2430,
          "midi": 59,
          "name": "B3",
          "ticks": 17534,
          "time": 24.681844687500003,
          "velocity": 0.5590551181102362
        },
        {
          "duration": 3.420604687499999,
          "durationTicks": 2430,
          "midi": 55,
          "name": "G3",
          "ticks": 17534,
          "time": 24.681844687500003,
          "velocity": 0.5275590551181102
        },
        {
          "duration": 3.420604687499999,
          "durationTicks": 2430,
          "midi": 43,
          "name": "G2",
          "ticks": 17534,
          "time": 24.681844687500003,
          "velocity": 0.3700787401574803
        },
        {
          "duration": 0.17736468749999545,
          "durationTicks": 126,
          "midi": 50,
          "name": "D3",
          "ticks": 41842,
          "time": 58.899152812500006,
          "velocity": 0.18110236220472442
        },
        {
          "duration": 0.18299531250000456,
          "durationTicks": 130,
          "midi": 62,
          "name": "D4",
          "ticks": 41856,
          "time": 58.91886,
          "velocity": 0.2125984251968504
        },
        {
          "duration": 0.1266890625000059,
          "durationTicks": 90,
          "midi": 62,
          "name": "D4",
          "ticks": 42120,
          "time": 59.29048125,
          "velocity": 0.2125984251968504
        },
        {
          "duration": 0.10135125000000045,
          "durationTicks": 72,
          "midi": 50,
          "name": "D3",
          "ticks": 42120,
          "time": 59.29048125,
          "velocity": 0.18110236220472442
        },
        {
          "duration": 0.8896387500000031,
          "durationTicks": 632,
          "midi": 62,
          "name": "D4",
          "ticks": 42120,
          "time": 59.29048125,
          "velocity": 0.2125984251968504
        },
        {
          "duration": 3.409343437500006,
          "durationTicks": 2422,
          "midi": 59,
          "name": "B3",
          "ticks": 42120,
          "time": 59.29048125,
          "velocity": 0.4645669291338583
        },
        {
          "duration": 3.409343437500006,
          "durationTicks": 2422,
          "midi": 55,
          "name": "G3",
          "ticks": 42120,
          "time": 59.29048125,
          "velocity": 0.4015748031496063
        },
        {
          "duration": 3.409343437500006,
          "durationTicks": 2422,
          "midi": 43,
          "name": "G2",
          "ticks": 42120,
          "time": 59.29048125,
          "velocity": 0.2440944881889764
        },
        {
          "duration": 0.174549374999998,
          "durationTicks": 124,
          "midi": 50,
          "name": "D3",
          "ticks": 42614,
          "time": 59.9858634375,
          "velocity": 0.18110236220472442
        },
        {
          "duration": 0.47297249999999735,
          "durationTicks": 336,
          "midi": 62,
          "name": "D4",
          "ticks": 42624,
          "time": 59.99994,
          "velocity": 0.2125984251968504
        },
        {
          "duration": 0.10698187500000245,
          "durationTicks": 76,
          "midi": 50,
          "name": "D3",
          "ticks": 42870,
          "time": 60.3462234375,
          "velocity": 0.18110236220472442
        },
        {
          "duration": 0.8811928124999966,
          "durationTicks": 626,
          "midi": 62,
          "name": "D4",
          "ticks": 42882,
          "time": 60.3631153125,
          "velocity": 0.2125984251968504
        },
        {
          "duration": 0.15202687499999712,
          "durationTicks": 108,
          "midi": 50,
          "name": "D3",
          "ticks": 43382,
          "time": 61.0669434375,
          "velocity": 0.18110236220472442
        },
        {
          "duration": 0.47297249999999735,
          "durationTicks": 336,
          "midi": 62,
          "name": "D4",
          "ticks": 43392,
          "time": 61.08102,
          "velocity": 0.2125984251968504
        },
        {
          "duration": 0.10135125000000045,
          "durationTicks": 72,
          "midi": 50,
          "name": "D3",
          "ticks": 43642,
          "time": 61.4329340625,
          "velocity": 0.18110236220472442
        },
        {
          "duration": 0.8586703124999957,
          "durationTicks": 610,
          "midi": 62,
          "name": "D4",
          "ticks": 43648,
          "time": 61.44138,
          "velocity": 0.2125984251968504
        },
        {
          "duration": 0.13513499999999823,
          "durationTicks": 96,
          "midi": 50,
          "name": "D3",
          "ticks": 44144,
          "time": 62.1395775,
          "velocity": 0.18110236220472442
        },
        {
          "duration": 0.4926796875000079,
          "durationTicks": 350,
          "midi": 62,
          "name": "D4",
          "ticks": 44162,
          "time": 62.1649153125,
          "velocity": 0.2125984251968504
        },
        {
          "duration": 0.13231968750000078,
          "durationTicks": 94,
          "midi": 50,
          "name": "D3",
          "ticks": 44402,
          "time": 62.5027528125,
          "velocity": 0.18110236220472442
        },
        {
          "duration": 0.17173406250000767,
          "durationTicks": 122,
          "midi": 62,
          "name": "D4",
          "ticks": 44420,
          "time": 62.528090625,
          "velocity": 0.2125984251968504
        },
        {
          "duration": 0.9008999999999929,
          "durationTicks": 640,
          "midi": 61,
          "name": "C#4",
          "ticks": 44542,
          "time": 62.699824687500005,
          "velocity": 0.4645669291338583
        },
        {
          "duration": 0.9008999999999929,
          "durationTicks": 640,
          "midi": 57,
          "name": "A3",
          "ticks": 44542,
          "time": 62.699824687500005,
          "velocity": 0.4015748031496063
        },
        {
          "duration": 0.9008999999999929,
          "durationTicks": 640,
          "midi": 45,
          "name": "A2",
          "ticks": 44542,
          "time": 62.699824687500005,
          "velocity": 0.2440944881889764
        },
        {
          "duration": 0.1858106249999949,
          "durationTicks": 132,
          "midi": 50,
          "name": "D3",
          "ticks": 44912,
          "time": 63.2206575,
          "velocity": 0.18110236220472442
        },
        {
          "duration": 0.17736468750000256,
          "durationTicks": 126,
          "midi": 62,
          "name": "D4",
          "ticks": 44930,
          "time": 63.2459953125,
          "velocity": 0.2125984251968504
        },
        {
          "duration": 0.1379503125000099,
          "durationTicks": 98,
          "midi": 62,
          "name": "D4",
          "ticks": 45182,
          "time": 63.6007246875,
          "velocity": 0.2125984251968504
        },
        {
          "duration": 0.11824312499999934,
          "durationTicks": 84,
          "midi": 50,
          "name": "D3",
          "ticks": 45182,
          "time": 63.6007246875,
          "velocity": 0.18110236220472442
        },
        {
          "duration": 0.9065306250000091,
          "durationTicks": 644,
          "midi": 62,
          "name": "D4",
          "ticks": 45182,
          "time": 63.6007246875,
          "velocity": 0.2125984251968504
        },
        {
          "duration": 3.4262353125000047,
          "durationTicks": 2434,
          "midi": 59,
          "name": "B3",
          "ticks": 45182,
          "time": 63.6007246875,
          "velocity": 0.4645669291338583
        },
        {
          "duration": 3.4262353125000047,
          "durationTicks": 2434,
          "midi": 55,
          "name": "G3",
          "ticks": 45182,
          "time": 63.6007246875,
          "velocity": 0.4015748031496063
        },
        {
          "duration": 3.4262353125000047,
          "durationTicks": 2434,
          "midi": 43,
          "name": "G2",
          "ticks": 45182,
          "time": 63.6007246875,
          "velocity": 0.2440944881889764
        },
        {
          "duration": 0.17736468750000256,
          "durationTicks": 126,
          "midi": 50,
          "name": "D3",
          "ticks": 45686,
          "time": 64.3101834375,
          "velocity": 0.18110236220472442
        },
        {
          "duration": 0.470157187500007,
          "durationTicks": 334,
          "midi": 62,
          "name": "D4",
          "ticks": 45698,
          "time": 64.3270753125,
          "velocity": 0.2125984251968504
        },
        {
          "duration": 0.10698187500000245,
          "durationTicks": 76,
          "midi": 50,
          "name": "D3",
          "ticks": 45944,
          "time": 64.67335875,
          "velocity": 0.18110236220472442
        },
        {
          "duration": 0.8811928124999895,
          "durationTicks": 626,
          "midi": 62,
          "name": "D4",
          "ticks": 45952,
          "time": 64.68462000000001,
          "velocity": 0.2125984251968504
        },
        {
          "duration": 0.15202687500000422,
          "durationTicks": 108,
          "midi": 50,
          "name": "D3",
          "ticks": 46454,
          "time": 65.3912634375,
          "velocity": 0.18110236220472442
        },
        {
          "duration": 0.4757878125000019,
          "durationTicks": 338,
          "midi": 62,
          "name": "D4",
          "ticks": 46464,
          "time": 65.40534,
          "velocity": 0.2125984251968504
        },
        {
          "duration": 0.10135124999999334,
          "durationTicks": 72,
          "midi": 50,
          "name": "D3",
          "ticks": 46712,
          "time": 65.75443875,
          "velocity": 0.18110236220472442
        },
        {
          "duration": 0.8558550000000054,
          "durationTicks": 608,
          "midi": 62,
          "name": "D4",
          "ticks": 46722,
          "time": 65.7685153125,
          "velocity": 0.2125984251968504
        },
        {
          "duration": 0.13513500000000533,
          "durationTicks": 96,
          "midi": 50,
          "name": "D3",
          "ticks": 47218,
          "time": 66.4667128125,
          "velocity": 0.18110236220472442
        },
        {
          "duration": 0.48986437499999624,
          "durationTicks": 348,
          "midi": 62,
          "name": "D4",
          "ticks": 47236,
          "time": 66.492050625,
          "velocity": 0.2125984251968504
        },
        {
          "duration": 0.13513500000000533,
          "durationTicks": 96,
          "midi": 50,
          "name": "D3",
          "ticks": 47472,
          "time": 66.8242575,
          "velocity": 0.18110236220472442
        },
        {
          "duration": 0.17736468750000256,
          "durationTicks": 126,
          "midi": 62,
          "name": "D4",
          "ticks": 47490,
          "time": 66.8495953125,
          "velocity": 0.2125984251968504
        },
        {
          "duration": 0.022522500000007994,
          "durationTicks": 16,
          "midi": 59,
          "name": "B3",
          "ticks": 47616,
          "time": 67.02696,
          "velocity": 0.49606299212598426
        },
        {
          "duration": 0.022522500000007994,
          "durationTicks": 16,
          "midi": 62,
          "name": "D4",
          "ticks": 47616,
          "time": 67.02696,
          "velocity": 0.49606299212598426
        },
        {
          "duration": 0.04504500000000178,
          "durationTicks": 32,
          "midi": 62,
          "name": "D4",
          "ticks": 47728,
          "time": 67.1846175,
          "velocity": 0.49606299212598426
        },
        {
          "duration": 0.07038281250000011,
          "durationTicks": 50,
          "midi": 59,
          "name": "B3",
          "ticks": 47728,
          "time": 67.1846175,
          "velocity": 0.49606299212598426
        },
        {
          "duration": 0.039414374999992674,
          "durationTicks": 28,
          "midi": 59,
          "name": "B3",
          "ticks": 47860,
          "time": 67.370428125,
          "velocity": 0.5275590551181102
        },
        {
          "duration": 0.03378374999999778,
          "durationTicks": 24,
          "midi": 62,
          "name": "D4",
          "ticks": 47992,
          "time": 67.55623875,
          "velocity": 0.49606299212598426
        },
        {
          "duration": 0.059121562499996116,
          "durationTicks": 42,
          "midi": 59,
          "name": "B3",
          "ticks": 47992,
          "time": 67.55623875,
          "velocity": 0.5275590551181102
        },
        {
          "duration": 0.042229687499997226,
          "durationTicks": 30,
          "midi": 62,
          "name": "D4",
          "ticks": 48114,
          "time": 67.7279728125,
          "velocity": 0.5275590551181102
        },
        {
          "duration": 0.06756750000000977,
          "durationTicks": 48,
          "midi": 59,
          "name": "B3",
          "ticks": 48114,
          "time": 67.7279728125,
          "velocity": 0.5275590551181102
        },
        {
          "duration": 0.0014076562499951706,
          "durationTicks": 1,
          "midi": 59,
          "name": "B3",
          "ticks": 48254,
          "time": 67.9250446875,
          "velocity": 0.5275590551181102
        },
        {
          "duration": 0.06475218750000522,
          "durationTicks": 46,
          "midi": 62,
          "name": "D4",
          "ticks": 48374,
          "time": 68.0939634375,
          "velocity": 0.49606299212598426
        },
        {
          "duration": 0.06475218750000522,
          "durationTicks": 46,
          "midi": 59,
          "name": "B3",
          "ticks": 48374,
          "time": 68.0939634375,
          "velocity": 0.5275590551181102
        },
        {
          "duration": 0.042229687499997226,
          "durationTicks": 30,
          "midi": 62,
          "name": "D4",
          "ticks": 48500,
          "time": 68.271328125,
          "velocity": 0.5275590551181102
        },
        {
          "duration": 0.042229687499997226,
          "durationTicks": 30,
          "midi": 59,
          "name": "B3",
          "ticks": 48500,
          "time": 68.271328125,
          "velocity": 0.5275590551181102
        },
        {
          "duration": 0.03659906249998812,
          "durationTicks": 26,
          "midi": 59,
          "name": "B3",
          "ticks": 48630,
          "time": 68.45432343750001,
          "velocity": 0.5275590551181102
        },
        {
          "duration": 0.042229687499997226,
          "durationTicks": 30,
          "midi": 62,
          "name": "D4",
          "ticks": 48754,
          "time": 68.6288728125,
          "velocity": 0.5275590551181102
        },
        {
          "duration": 0.042229687499997226,
          "durationTicks": 30,
          "midi": 59,
          "name": "B3",
          "ticks": 48754,
          "time": 68.6288728125,
          "velocity": 0.49606299212598426
        },
        {
          "duration": 0.039414374999992674,
          "durationTicks": 28,
          "midi": 62,
          "name": "D4",
          "ticks": 48886,
          "time": 68.81468343750001,
          "velocity": 0.49606299212598426
        },
        {
          "duration": 0.039414374999992674,
          "durationTicks": 28,
          "midi": 59,
          "name": "B3",
          "ticks": 48886,
          "time": 68.81468343750001,
          "velocity": 0.5275590551181102
        },
        {
          "duration": 0.059121562499996116,
          "durationTicks": 42,
          "midi": 59,
          "name": "B3",
          "ticks": 49014,
          "time": 68.9948634375,
          "velocity": 0.5275590551181102
        },
        {
          "duration": 0.025337812499998336,
          "durationTicks": 18,
          "midi": 62,
          "name": "D4",
          "ticks": 49146,
          "time": 69.1806740625,
          "velocity": 0.5275590551181102
        },
        {
          "duration": 0.025337812499998336,
          "durationTicks": 18,
          "midi": 59,
          "name": "B3",
          "ticks": 49146,
          "time": 69.1806740625,
          "velocity": 0.49606299212598426
        },
        {
          "duration": 0.06756749999999556,
          "durationTicks": 48,
          "midi": 62,
          "name": "D4",
          "ticks": 49264,
          "time": 69.3467775,
          "velocity": 0.49606299212598426
        },
        {
          "duration": 0.04504500000000178,
          "durationTicks": 32,
          "midi": 59,
          "name": "B3",
          "ticks": 49264,
          "time": 69.3467775,
          "velocity": 0.49606299212598426
        },
        {
          "duration": 0.03378374999999778,
          "durationTicks": 24,
          "midi": 59,
          "name": "B3",
          "ticks": 49398,
          "time": 69.53540343750001,
          "velocity": 0.49606299212598426
        },
        {
          "duration": 0.06756750000000977,
          "durationTicks": 48,
          "midi": 62,
          "name": "D4",
          "ticks": 49520,
          "time": 69.7071375,
          "velocity": 0.5275590551181102
        },
        {
          "duration": 0.04786031250000633,
          "durationTicks": 34,
          "midi": 59,
          "name": "B3",
          "ticks": 49520,
          "time": 69.7071375,
          "velocity": 0.49606299212598426
        },
        {
          "duration": 0.03659906249998812,
          "durationTicks": 26,
          "midi": 62,
          "name": "D4",
          "ticks": 49652,
          "time": 69.892948125,
          "velocity": 0.5275590551181102
        },
        {
          "duration": 0.06193687500000067,
          "durationTicks": 44,
          "midi": 59,
          "name": "B3",
          "ticks": 49652,
          "time": 69.892948125,
          "velocity": 0.5275590551181102
        },
        {
          "duration": 0.04504500000000178,
          "durationTicks": 32,
          "midi": 59,
          "name": "B3",
          "ticks": 49776,
          "time": 70.0674975,
          "velocity": 0.5275590551181102
        },
        {
          "duration": 0.03659906249998812,
          "durationTicks": 26,
          "midi": 62,
          "name": "D4",
          "ticks": 49910,
          "time": 70.25612343750001,
          "velocity": 0.5275590551181102
        },
        {
          "duration": 0.059121562499996116,
          "durationTicks": 42,
          "midi": 59,
          "name": "B3",
          "ticks": 49910,
          "time": 70.25612343750001,
          "velocity": 0.5275590551181102
        },
        {
          "duration": 0.042229687499997226,
          "durationTicks": 30,
          "midi": 62,
          "name": "D4",
          "ticks": 50034,
          "time": 70.4306728125,
          "velocity": 0.5275590551181102
        },
        {
          "duration": 0.042229687499997226,
          "durationTicks": 30,
          "midi": 59,
          "name": "B3",
          "ticks": 50034,
          "time": 70.4306728125,
          "velocity": 0.49606299212598426
        },
        {
          "duration": 0.06193687500000067,
          "durationTicks": 44,
          "midi": 59,
          "name": "B3",
          "ticks": 50164,
          "time": 70.613668125,
          "velocity": 0.5275590551181102
        },
        {
          "duration": 0.03096843750000744,
          "durationTicks": 22,
          "midi": 62,
          "name": "D4",
          "ticks": 50298,
          "time": 70.8022940625,
          "velocity": 0.49606299212598426
        },
        {
          "duration": 0.03096843750000744,
          "durationTicks": 22,
          "midi": 59,
          "name": "B3",
          "ticks": 50298,
          "time": 70.8022940625,
          "velocity": 0.49606299212598426
        },
        {
          "duration": 0.06756750000000977,
          "durationTicks": 48,
          "midi": 62,
          "name": "D4",
          "ticks": 50416,
          "time": 70.9683975,
          "velocity": 0.5275590551181102
        },
        {
          "duration": 0.06756750000000977,
          "durationTicks": 48,
          "midi": 59,
          "name": "B3",
          "ticks": 50416,
          "time": 70.9683975,
          "velocity": 0.5275590551181102
        },
        {
          "duration": 0.042229687499997226,
          "durationTicks": 30,
          "midi": 59,
          "name": "B3",
          "ticks": 50544,
          "time": 71.1485775,
          "velocity": 0.49606299212598426
        },
        {
          "duration": 0.025337812499998336,
          "durationTicks": 18,
          "midi": 62,
          "name": "D4",
          "ticks": 50684,
          "time": 71.34564937500001,
          "velocity": 0.49606299212598426
        },
        {
          "duration": 0.025337812499998336,
          "durationTicks": 18,
          "midi": 59,
          "name": "B3",
          "ticks": 50684,
          "time": 71.34564937500001,
          "velocity": 0.5275590551181102
        },
        {
          "duration": 0.04786031249999212,
          "durationTicks": 34,
          "midi": 62,
          "name": "D4",
          "ticks": 50798,
          "time": 71.50612218750001,
          "velocity": 0.49606299212598426
        },
        {
          "duration": 0.04786031249999212,
          "durationTicks": 34,
          "midi": 59,
          "name": "B3",
          "ticks": 50798,
          "time": 71.50612218750001,
          "velocity": 0.49606299212598426
        },
        {
          "duration": 0.04504500000000178,
          "durationTicks": 32,
          "midi": 59,
          "name": "B3",
          "ticks": 50928,
          "time": 71.68911750000001,
          "velocity": 0.5275590551181102
        },
        {
          "duration": 0.05912156250001033,
          "durationTicks": 42,
          "midi": 62,
          "name": "D4",
          "ticks": 51062,
          "time": 71.8777434375,
          "velocity": 0.5275590551181102
        },
        {
          "duration": 0.03659906250000233,
          "durationTicks": 26,
          "midi": 59,
          "name": "B3",
          "ticks": 51062,
          "time": 71.8777434375,
          "velocity": 0.49606299212598426
        },
        {
          "duration": 0.04504500000000178,
          "durationTicks": 32,
          "midi": 62,
          "name": "D4",
          "ticks": 51186,
          "time": 72.0522928125,
          "velocity": 0.49606299212598426
        },
        {
          "duration": 0.04504500000000178,
          "durationTicks": 32,
          "midi": 59,
          "name": "B3",
          "ticks": 51186,
          "time": 72.0522928125,
          "velocity": 0.5275590551181102
        },
        {
          "duration": 0.0014076562499951706,
          "durationTicks": 1,
          "midi": 59,
          "name": "B3",
          "ticks": 51324,
          "time": 72.246549375,
          "velocity": 0.5275590551181102
        },
        {
          "duration": 0.059121562499996116,
          "durationTicks": 42,
          "midi": 62,
          "name": "D4",
          "ticks": 51446,
          "time": 72.41828343750001,
          "velocity": 0.49606299212598426
        },
        {
          "duration": 0.059121562499996116,
          "durationTicks": 42,
          "midi": 59,
          "name": "B3",
          "ticks": 51446,
          "time": 72.41828343750001,
          "velocity": 0.5275590551181102
        },
        {
          "duration": 0.039414374999992674,
          "durationTicks": 28,
          "midi": 62,
          "name": "D4",
          "ticks": 51572,
          "time": 72.59564812500001,
          "velocity": 0.49606299212598426
        },
        {
          "duration": 0.039414374999992674,
          "durationTicks": 28,
          "midi": 59,
          "name": "B3",
          "ticks": 51572,
          "time": 72.59564812500001,
          "velocity": 0.49606299212598426
        },
        {
          "duration": 0.03378374999999778,
          "durationTicks": 24,
          "midi": 59,
          "name": "B3",
          "ticks": 51702,
          "time": 72.77864343750001,
          "velocity": 0.5275590551181102
        },
        {
          "duration": 0.039414375000006885,
          "durationTicks": 28,
          "midi": 62,
          "name": "D4",
          "ticks": 51830,
          "time": 72.9588234375,
          "velocity": 0.49606299212598426
        },
        {
          "duration": 0.039414375000006885,
          "durationTicks": 28,
          "midi": 59,
          "name": "B3",
          "ticks": 51830,
          "time": 72.9588234375,
          "velocity": 0.49606299212598426
        },
        {
          "duration": 0.04504500000000178,
          "durationTicks": 32,
          "midi": 62,
          "name": "D4",
          "ticks": 51952,
          "time": 73.1305575,
          "velocity": 0.49606299212598426
        },
        {
          "duration": 0.06756750000000977,
          "durationTicks": 48,
          "midi": 59,
          "name": "B3",
          "ticks": 51952,
          "time": 73.1305575,
          "velocity": 0.49606299212598426
        },
        {
          "duration": 0.06193687500000067,
          "durationTicks": 44,
          "midi": 59,
          "name": "B3",
          "ticks": 52086,
          "time": 73.3191834375,
          "velocity": 0.5275590551181102
        },
        {
          "duration": 0.03096843750000744,
          "durationTicks": 22,
          "midi": 62,
          "name": "D4",
          "ticks": 52216,
          "time": 73.50217875,
          "velocity": 0.49606299212598426
        },
        {
          "duration": 0.056306250000005775,
          "durationTicks": 40,
          "midi": 59,
          "name": "B3",
          "ticks": 52216,
          "time": 73.50217875,
          "velocity": 0.5275590551181102
        },
        {
          "duration": 0.042229687499997226,
          "durationTicks": 30,
          "midi": 62,
          "name": "D4",
          "ticks": 52338,
          "time": 73.6739128125,
          "velocity": 0.5275590551181102
        },
        {
          "duration": 0.06475218749999101,
          "durationTicks": 46,
          "midi": 59,
          "name": "B3",
          "ticks": 52338,
          "time": 73.6739128125,
          "velocity": 0.5275590551181102
        },
        {
          "duration": 0.039414375000006885,
          "durationTicks": 28,
          "midi": 59,
          "name": "B3",
          "ticks": 52468,
          "time": 73.856908125,
          "velocity": 0.49606299212598426
        },
        {
          "duration": 0.03659906250000233,
          "durationTicks": 26,
          "midi": 62,
          "name": "D4",
          "ticks": 52598,
          "time": 74.0399034375,
          "velocity": 0.49606299212598426
        },
        {
          "duration": 0.06193687500000067,
          "durationTicks": 44,
          "midi": 59,
          "name": "B3",
          "ticks": 52598,
          "time": 74.0399034375,
          "velocity": 0.5275590551181102
        },
        {
          "duration": 0.07038281250000011,
          "durationTicks": 50,
          "midi": 62,
          "name": "D4",
          "ticks": 52718,
          "time": 74.2088221875,
          "velocity": 0.5275590551181102
        },
        {
          "duration": 0.07038281250000011,
          "durationTicks": 50,
          "midi": 59,
          "name": "B3",
          "ticks": 52718,
          "time": 74.2088221875,
          "velocity": 0.49606299212598426
        },
        {
          "duration": 0.06756749999999556,
          "durationTicks": 48,
          "midi": 59,
          "name": "B3",
          "ticks": 52848,
          "time": 74.3918175,
          "velocity": 0.49606299212598426
        },
        {
          "duration": 0.04786031249999212,
          "durationTicks": 34,
          "midi": 62,
          "name": "D4",
          "ticks": 52976,
          "time": 74.57199750000001,
          "velocity": 0.5275590551181102
        },
        {
          "duration": 0.04786031249999212,
          "durationTicks": 34,
          "midi": 59,
          "name": "B3",
          "ticks": 52976,
          "time": 74.57199750000001,
          "velocity": 0.49606299212598426
        },
        {
          "duration": 0.042229687499997226,
          "durationTicks": 30,
          "midi": 62,
          "name": "D4",
          "ticks": 53108,
          "time": 74.75780812500001,
          "velocity": 0.5275590551181102
        },
        {
          "duration": 0.06193687499998646,
          "durationTicks": 44,
          "midi": 59,
          "name": "B3",
          "ticks": 53108,
          "time": 74.75780812500001,
          "velocity": 0.5275590551181102
        },
        {
          "duration": 0.03659906250000233,
          "durationTicks": 26,
          "midi": 59,
          "name": "B3",
          "ticks": 53238,
          "time": 74.94080343750001,
          "velocity": 0.5275590551181102
        },
        {
          "duration": 0.04504500000000178,
          "durationTicks": 32,
          "midi": 62,
          "name": "D4",
          "ticks": 53360,
          "time": 75.1125375,
          "velocity": 0.49606299212598426
        },
        {
          "duration": 0.04504500000000178,
          "durationTicks": 32,
          "midi": 59,
          "name": "B3",
          "ticks": 53360,
          "time": 75.1125375,
          "velocity": 0.49606299212598426
        },
        {
          "duration": 0.04504500000000178,
          "durationTicks": 32,
          "midi": 62,
          "name": "D4",
          "ticks": 53488,
          "time": 75.2927175,
          "velocity": 0.5275590551181102
        },
        {
          "duration": 0.04504500000000178,
          "durationTicks": 32,
          "midi": 59,
          "name": "B3",
          "ticks": 53488,
          "time": 75.2927175,
          "velocity": 0.5275590551181102
        },
        {
          "duration": 0.06475218749999101,
          "durationTicks": 46,
          "midi": 59,
          "name": "B3",
          "ticks": 53616,
          "time": 75.4728975,
          "velocity": 0.49606299212598426
        },
        {
          "duration": 0.025337812499998336,
          "durationTicks": 18,
          "midi": 62,
          "name": "D4",
          "ticks": 53758,
          "time": 75.6727846875,
          "velocity": 0.5275590551181102
        },
        {
          "duration": 0.025337812499998336,
          "durationTicks": 18,
          "midi": 59,
          "name": "B3",
          "ticks": 53758,
          "time": 75.6727846875,
          "velocity": 0.49606299212598426
        },
        {
          "duration": 0.04786031250000633,
          "durationTicks": 34,
          "midi": 62,
          "name": "D4",
          "ticks": 53872,
          "time": 75.8332575,
          "velocity": 0.5275590551181102
        },
        {
          "duration": 0.04786031250000633,
          "durationTicks": 34,
          "midi": 59,
          "name": "B3",
          "ticks": 53872,
          "time": 75.8332575,
          "velocity": 0.49606299212598426
        },
        {
          "duration": 0.03659906250000233,
          "durationTicks": 26,
          "midi": 59,
          "name": "B3",
          "ticks": 54006,
          "time": 76.02188343750001,
          "velocity": 0.5275590551181102
        },
        {
          "duration": 0.06193687500001488,
          "durationTicks": 44,
          "midi": 62,
          "name": "D4",
          "ticks": 54132,
          "time": 76.199248125,
          "velocity": 0.5275590551181102
        },
        {
          "duration": 0.036599062500016544,
          "durationTicks": 26,
          "midi": 59,
          "name": "B3",
          "ticks": 54132,
          "time": 76.199248125,
          "velocity": 0.5275590551181102
        },
        {
          "duration": 0.04504500000000178,
          "durationTicks": 32,
          "midi": 62,
          "name": "D4",
          "ticks": 54256,
          "time": 76.3737975,
          "velocity": 0.5275590551181102
        },
        {
          "duration": 0.06756750000000977,
          "durationTicks": 48,
          "midi": 59,
          "name": "B3",
          "ticks": 54256,
          "time": 76.3737975,
          "velocity": 0.5275590551181102
        },
        {
          "duration": 0.039414374999992674,
          "durationTicks": 28,
          "midi": 59,
          "name": "B3",
          "ticks": 54402,
          "time": 76.5793153125,
          "velocity": 0.5275590551181102
        },
        {
          "duration": 0.06756749999999556,
          "durationTicks": 48,
          "midi": 62,
          "name": "D4",
          "ticks": 54512,
          "time": 76.73415750000001,
          "velocity": 0.49606299212598426
        },
        {
          "duration": 0.06756749999999556,
          "durationTicks": 48,
          "midi": 59,
          "name": "B3",
          "ticks": 54512,
          "time": 76.73415750000001,
          "velocity": 0.49606299212598426
        },
        {
          "duration": 0.03659906249998812,
          "durationTicks": 26,
          "midi": 62,
          "name": "D4",
          "ticks": 54644,
          "time": 76.91996812500001,
          "velocity": 0.5275590551181102
        },
        {
          "duration": 0.03659906249998812,
          "durationTicks": 26,
          "midi": 59,
          "name": "B3",
          "ticks": 54644,
          "time": 76.91996812500001,
          "velocity": 0.5275590551181102
        },
        {
          "duration": 0.039414375000006885,
          "durationTicks": 28,
          "midi": 59,
          "name": "B3",
          "ticks": 54772,
          "time": 77.100148125,
          "velocity": 0.49606299212598426
        },
        {
          "duration": 0.036599062500016544,
          "durationTicks": 26,
          "midi": 62,
          "name": "D4",
          "ticks": 54904,
          "time": 77.28595874999999,
          "velocity": 0.5275590551181102
        },
        {
          "duration": 0.036599062500016544,
          "durationTicks": 26,
          "midi": 59,
          "name": "B3",
          "ticks": 54904,
          "time": 77.28595874999999,
          "velocity": 0.5275590551181102
        },
        {
          "duration": 0.03659906250000233,
          "durationTicks": 26,
          "midi": 62,
          "name": "D4",
          "ticks": 55030,
          "time": 77.4633234375,
          "velocity": 0.5275590551181102
        },
        {
          "duration": 0.03659906250000233,
          "durationTicks": 26,
          "midi": 59,
          "name": "B3",
          "ticks": 55030,
          "time": 77.4633234375,
          "velocity": 0.5275590551181102
        },
        {
          "duration": 0.06193687500000067,
          "durationTicks": 44,
          "midi": 59,
          "name": "B3",
          "ticks": 55156,
          "time": 77.640688125,
          "velocity": 0.5275590551181102
        },
        {
          "duration": 0.03659906250000233,
          "durationTicks": 26,
          "midi": 62,
          "name": "D4",
          "ticks": 55288,
          "time": 77.82649875,
          "velocity": 0.5275590551181102
        },
        {
          "duration": 0.05349093750000122,
          "durationTicks": 38,
          "midi": 59,
          "name": "B3",
          "ticks": 55288,
          "time": 77.82649875,
          "velocity": 0.5275590551181102
        },
        {
          "duration": 0.07038281250000011,
          "durationTicks": 50,
          "midi": 62,
          "name": "D4",
          "ticks": 55408,
          "time": 77.9954175,
          "velocity": 0.49606299212598426
        },
        {
          "duration": 0.04504500000000178,
          "durationTicks": 32,
          "midi": 59,
          "name": "B3",
          "ticks": 55408,
          "time": 77.9954175,
          "velocity": 0.49606299212598426
        },
        {
          "duration": 0.059121562499996116,
          "durationTicks": 42,
          "midi": 59,
          "name": "B3",
          "ticks": 55542,
          "time": 78.18404343750001,
          "velocity": 0.5275590551181102
        },
        {
          "duration": 0.039414375000006885,
          "durationTicks": 28,
          "midi": 62,
          "name": "D4",
          "ticks": 55668,
          "time": 78.361408125,
          "velocity": 0.5275590551181102
        },
        {
          "duration": 0.039414375000006885,
          "durationTicks": 28,
          "midi": 59,
          "name": "B3",
          "ticks": 55668,
          "time": 78.361408125,
          "velocity": 0.5275590551181102
        },
        {
          "duration": 0.04504500000000178,
          "durationTicks": 32,
          "midi": 62,
          "name": "D4",
          "ticks": 55792,
          "time": 78.5359575,
          "velocity": 0.5275590551181102
        },
        {
          "duration": 0.04504500000000178,
          "durationTicks": 32,
          "midi": 59,
          "name": "B3",
          "ticks": 55792,
          "time": 78.5359575,
          "velocity": 0.49606299212598426
        },
        {
          "duration": 0.04504500000000178,
          "durationTicks": 32,
          "midi": 59,
          "name": "B3",
          "ticks": 55920,
          "time": 78.7161375,
          "velocity": 0.49606299212598426
        },
        {
          "duration": 0.03659906249998812,
          "durationTicks": 26,
          "midi": 62,
          "name": "D4",
          "ticks": 56054,
          "time": 78.90476343750001,
          "velocity": 0.49606299212598426
        },
        {
          "duration": 0.03659906249998812,
          "durationTicks": 26,
          "midi": 59,
          "name": "B3",
          "ticks": 56054,
          "time": 78.90476343750001,
          "velocity": 0.5275590551181102
        },
        {
          "duration": 0.06193687499998646,
          "durationTicks": 44,
          "midi": 62,
          "name": "D4",
          "ticks": 56180,
          "time": 79.08212812500001,
          "velocity": 0.5275590551181102
        },
        {
          "duration": 0.042229687499997226,
          "durationTicks": 30,
          "midi": 59,
          "name": "B3",
          "ticks": 56180,
          "time": 79.08212812500001,
          "velocity": 0.5275590551181102
        },
        {
          "duration": 0.039414375000006885,
          "durationTicks": 28,
          "midi": 59,
          "name": "B3",
          "ticks": 56308,
          "time": 79.262308125,
          "velocity": 0.49606299212598426
        },
        {
          "duration": 0.04222968750001144,
          "durationTicks": 30,
          "midi": 62,
          "name": "D4",
          "ticks": 56436,
          "time": 79.442488125,
          "velocity": 0.49606299212598426
        },
        {
          "duration": 0.04222968750001144,
          "durationTicks": 30,
          "midi": 59,
          "name": "B3",
          "ticks": 56436,
          "time": 79.442488125,
          "velocity": 0.5275590551181102
        },
        {
          "duration": 0.06475218750000522,
          "durationTicks": 46,
          "midi": 62,
          "name": "D4",
          "ticks": 56562,
          "time": 79.6198528125,
          "velocity": 0.5275590551181102
        },
        {
          "duration": 0.06475218750000522,
          "durationTicks": 46,
          "midi": 59,
          "name": "B3",
          "ticks": 56562,
          "time": 79.6198528125,
          "velocity": 0.5275590551181102
        },
        {
          "duration": 0.03659906250000233,
          "durationTicks": 26,
          "midi": 59,
          "name": "B3",
          "ticks": 56694,
          "time": 79.8056634375,
          "velocity": 0.49606299212598426
        },
        {
          "duration": 0.022522499999993784,
          "durationTicks": 16,
          "midi": 62,
          "name": "D4",
          "ticks": 56832,
          "time": 79.99992,
          "velocity": 0.49606299212598426
        },
        {
          "duration": 0.04504500000000178,
          "durationTicks": 32,
          "midi": 59,
          "name": "B3",
          "ticks": 56832,
          "time": 79.99992,
          "velocity": 0.49606299212598426
        },
        {
          "duration": 0.03659906250000233,
          "durationTicks": 26,
          "midi": 62,
          "name": "D4",
          "ticks": 56950,
          "time": 80.1660234375,
          "velocity": 0.5275590551181102
        },
        {
          "duration": 0.06193687500000067,
          "durationTicks": 44,
          "midi": 59,
          "name": "B3",
          "ticks": 56950,
          "time": 80.1660234375,
          "velocity": 0.49606299212598426
        },
        {
          "duration": 0.06756749999999556,
          "durationTicks": 48,
          "midi": 59,
          "name": "B3",
          "ticks": 57072,
          "time": 80.33775750000001,
          "velocity": 0.49606299212598426
        },
        {
          "duration": 0.039414375000021096,
          "durationTicks": 28,
          "midi": 62,
          "name": "D4",
          "ticks": 57202,
          "time": 80.52075281249999,
          "velocity": 0.49606299212598426
        },
        {
          "duration": 0.06475218750001943,
          "durationTicks": 46,
          "midi": 59,
          "name": "B3",
          "ticks": 57202,
          "time": 80.52075281249999,
          "velocity": 0.49606299212598426
        },
        {
          "duration": 0.04504500000000178,
          "durationTicks": 32,
          "midi": 62,
          "name": "D4",
          "ticks": 57328,
          "time": 80.6981175,
          "velocity": 0.5275590551181102
        },
        {
          "duration": 0.04504500000000178,
          "durationTicks": 32,
          "midi": 59,
          "name": "B3",
          "ticks": 57328,
          "time": 80.6981175,
          "velocity": 0.49606299212598426
        },
        {
          "duration": 0.04504499999998757,
          "durationTicks": 32,
          "midi": 59,
          "name": "B3",
          "ticks": 57458,
          "time": 80.8811128125,
          "velocity": 0.5275590551181102
        },
        {
          "duration": 0.05349093750000122,
          "durationTicks": 38,
          "midi": 62,
          "name": "D4",
          "ticks": 57594,
          "time": 81.0725540625,
          "velocity": 0.5275590551181102
        },
        {
          "duration": 0.03096843749999323,
          "durationTicks": 22,
          "midi": 59,
          "name": "B3",
          "ticks": 57594,
          "time": 81.0725540625,
          "velocity": 0.49606299212598426
        },
        {
          "duration": 0.042229687499997226,
          "durationTicks": 30,
          "midi": 62,
          "name": "D4",
          "ticks": 57716,
          "time": 81.24428812500001,
          "velocity": 0.5275590551181102
        },
        {
          "duration": 0.06193687499998646,
          "durationTicks": 44,
          "midi": 59,
          "name": "B3",
          "ticks": 57716,
          "time": 81.24428812500001,
          "velocity": 0.5275590551181102
        },
        {
          "duration": 0.059121562499996116,
          "durationTicks": 42,
          "midi": 59,
          "name": "B3",
          "ticks": 57846,
          "time": 81.42728343750001,
          "velocity": 0.5275590551181102
        },
        {
          "duration": 0.04786031250000633,
          "durationTicks": 34,
          "midi": 62,
          "name": "D4",
          "ticks": 57968,
          "time": 81.5990175,
          "velocity": 0.5275590551181102
        },
        {
          "duration": 0.04786031250000633,
          "durationTicks": 34,
          "midi": 59,
          "name": "B3",
          "ticks": 57968,
          "time": 81.5990175,
          "velocity": 0.5275590551181102
        },
        {
          "duration": 0.06756750000000977,
          "durationTicks": 48,
          "midi": 62,
          "name": "D4",
          "ticks": 58096,
          "time": 81.7791975,
          "velocity": 0.49606299212598426
        },
        {
          "duration": 0.06756750000000977,
          "durationTicks": 48,
          "midi": 59,
          "name": "B3",
          "ticks": 58096,
          "time": 81.7791975,
          "velocity": 0.5275590551181102
        },
        {
          "duration": 0.03659906249998812,
          "durationTicks": 26,
          "midi": 59,
          "name": "B3",
          "ticks": 58232,
          "time": 81.97063875,
          "velocity": 0.49606299212598426
        },
        {
          "duration": 0.05349093750000122,
          "durationTicks": 38,
          "midi": 62,
          "name": "D4",
          "ticks": 58362,
          "time": 82.1536340625,
          "velocity": 0.5275590551181102
        },
        {
          "duration": 0.03096843749999323,
          "durationTicks": 22,
          "midi": 59,
          "name": "B3",
          "ticks": 58362,
          "time": 82.1536340625,
          "velocity": 0.5275590551181102
        },
        {
          "duration": 0.06193687499998646,
          "durationTicks": 44,
          "midi": 62,
          "name": "D4",
          "ticks": 58484,
          "time": 82.32536812500001,
          "velocity": 0.5275590551181102
        },
        {
          "duration": 0.042229687499997226,
          "durationTicks": 30,
          "midi": 59,
          "name": "B3",
          "ticks": 58484,
          "time": 82.32536812500001,
          "velocity": 0.5275590551181102
        },
        {
          "duration": 0.039414374999992674,
          "durationTicks": 28,
          "midi": 59,
          "name": "B3",
          "ticks": 58614,
          "time": 82.50836343750001,
          "velocity": 0.49606299212598426
        },
        {
          "duration": 0.06756750000000977,
          "durationTicks": 48,
          "midi": 62,
          "name": "D4",
          "ticks": 58736,
          "time": 82.6800975,
          "velocity": 0.5275590551181102
        },
        {
          "duration": 0.04504500000000178,
          "durationTicks": 32,
          "midi": 59,
          "name": "B3",
          "ticks": 58736,
          "time": 82.6800975,
          "velocity": 0.5275590551181102
        },
        {
          "duration": 0.042229687499997226,
          "durationTicks": 30,
          "midi": 62,
          "name": "D4",
          "ticks": 58866,
          "time": 82.8630928125,
          "velocity": 0.49606299212598426
        },
        {
          "duration": 0.042229687499997226,
          "durationTicks": 30,
          "midi": 59,
          "name": "B3",
          "ticks": 58866,
          "time": 82.8630928125,
          "velocity": 0.5275590551181102
        },
        {
          "duration": 0.04504500000000178,
          "durationTicks": 32,
          "midi": 59,
          "name": "B3",
          "ticks": 58992,
          "time": 83.0404575,
          "velocity": 0.49606299212598426
        },
        {
          "duration": 0.04504500000000178,
          "durationTicks": 32,
          "midi": 62,
          "name": "D4",
          "ticks": 59122,
          "time": 83.2234528125,
          "velocity": 0.49606299212598426
        },
        {
          "duration": 0.04504500000000178,
          "durationTicks": 32,
          "midi": 59,
          "name": "B3",
          "ticks": 59122,
          "time": 83.2234528125,
          "velocity": 0.5275590551181102
        },
        {
          "duration": 0.04504500000000178,
          "durationTicks": 32,
          "midi": 62,
          "name": "D4",
          "ticks": 59248,
          "time": 83.4008175,
          "velocity": 0.5275590551181102
        },
        {
          "duration": 0.06756749999999556,
          "durationTicks": 48,
          "midi": 59,
          "name": "B3",
          "ticks": 59248,
          "time": 83.4008175,
          "velocity": 0.49606299212598426
        },
        {
          "duration": 0.042229687499997226,
          "durationTicks": 30,
          "midi": 59,
          "name": "B3",
          "ticks": 59380,
          "time": 83.586628125,
          "velocity": 0.5275590551181102
        },
        {
          "duration": 0.04504500000000178,
          "durationTicks": 32,
          "midi": 62,
          "name": "D4",
          "ticks": 59504,
          "time": 83.7611775,
          "velocity": 0.5275590551181102
        },
        {
          "duration": 0.04504500000000178,
          "durationTicks": 32,
          "midi": 59,
          "name": "B3",
          "ticks": 59504,
          "time": 83.7611775,
          "velocity": 0.5275590551181102
        },
        {
          "duration": 0.04504500000000178,
          "durationTicks": 32,
          "midi": 62,
          "name": "D4",
          "ticks": 59634,
          "time": 83.9441728125,
          "velocity": 0.49606299212598426
        },
        {
          "duration": 0.04504500000000178,
          "durationTicks": 32,
          "midi": 59,
          "name": "B3",
          "ticks": 59634,
          "time": 83.9441728125,
          "velocity": 0.49606299212598426
        },
        {
          "duration": 0.03659906250000233,
          "durationTicks": 26,
          "midi": 59,
          "name": "B3",
          "ticks": 59766,
          "time": 84.1299834375,
          "velocity": 0.5275590551181102
        }
      ]
    },
    {
      "channel": 3,
      "controlChanges": {},
      "pitchBends": [
        {
          "ticks": 87410,
          "time": 123.04323281250001,
          "value": 0
        }
      ],
      "instrument": {
        "family": "guitar",
        "number": 25,
        "name": "acoustic guitar (steel)"
      },
      "name": "",
      "notes": [
        {
          "duration": 2.0889618749999954,
          "durationTicks": 1484,
          "midi": 66,
          "name": "F#4",
          "ticks": 32262,
          "time": 45.4138059375,
          "velocity": 0.3700787401574803
        },
        {
          "duration": 2.0889618749999954,
          "durationTicks": 1484,
          "midi": 59,
          "name": "B3",
          "ticks": 32262,
          "time": 45.4138059375,
          "velocity": 0.33858267716535434
        },
        {
          "duration": 2.0889618749999954,
          "durationTicks": 1484,
          "midi": 55,
          "name": "G3",
          "ticks": 32262,
          "time": 45.4138059375,
          "velocity": 0.4330708661417323
        },
        {
          "duration": 2.0889618749999954,
          "durationTicks": 1484,
          "midi": 52,
          "name": "E3",
          "ticks": 32262,
          "time": 45.4138059375,
          "velocity": 0.4645669291338583
        },
        {
          "duration": 2.1227456250000003,
          "durationTicks": 1508,
          "midi": 64,
          "name": "E4",
          "ticks": 33790,
          "time": 47.564704687500004,
          "velocity": 0.33858267716535434
        },
        {
          "duration": 2.1227456250000003,
          "durationTicks": 1508,
          "midi": 61,
          "name": "C#4",
          "ticks": 33790,
          "time": 47.564704687500004,
          "velocity": 0.30708661417322836
        },
        {
          "duration": 2.097407812499995,
          "durationTicks": 1490,
          "midi": 57,
          "name": "A3",
          "ticks": 33790,
          "time": 47.564704687500004,
          "velocity": 0.33858267716535434
        },
        {
          "duration": 2.097407812499995,
          "durationTicks": 1490,
          "midi": 54,
          "name": "F#3",
          "ticks": 33790,
          "time": 47.564704687500004,
          "velocity": 0.4330708661417323
        },
        {
          "duration": 2.119930312500003,
          "durationTicks": 1506,
          "midi": 66,
          "name": "F#4",
          "ticks": 35326,
          "time": 49.726864687500004,
          "velocity": 0.30708661417322836
        },
        {
          "duration": 2.119930312500003,
          "durationTicks": 1506,
          "midi": 62,
          "name": "D4",
          "ticks": 35326,
          "time": 49.726864687500004,
          "velocity": 0.3700787401574803
        },
        {
          "duration": 2.097407812499995,
          "durationTicks": 1490,
          "midi": 59,
          "name": "B3",
          "ticks": 35326,
          "time": 49.726864687500004,
          "velocity": 0.4015748031496063
        },
        {
          "duration": 2.097407812499995,
          "durationTicks": 1490,
          "midi": 55,
          "name": "G3",
          "ticks": 35326,
          "time": 49.726864687500004,
          "velocity": 0.4330708661417323
        },
        {
          "duration": 2.1171149999999983,
          "durationTicks": 1504,
          "midi": 64,
          "name": "E4",
          "ticks": 36862,
          "time": 51.889024687500005,
          "velocity": 0.2125984251968504
        },
        {
          "duration": 2.1171149999999983,
          "durationTicks": 1504,
          "midi": 61,
          "name": "C#4",
          "ticks": 36862,
          "time": 51.889024687500005,
          "velocity": 0.3700787401574803
        },
        {
          "duration": 2.097407812499995,
          "durationTicks": 1490,
          "midi": 57,
          "name": "A3",
          "ticks": 36862,
          "time": 51.889024687500005,
          "velocity": 0.4330708661417323
        },
        {
          "duration": 2.097407812499995,
          "durationTicks": 1490,
          "midi": 54,
          "name": "F#3",
          "ticks": 36862,
          "time": 51.889024687500005,
          "velocity": 0.49606299212598426
        },
        {
          "duration": 1.0416656250000003,
          "durationTicks": 740,
          "midi": 62,
          "name": "D4",
          "ticks": 38398,
          "time": 54.051184687500005,
          "velocity": 0.30708661417322836
        },
        {
          "duration": 1.0416656250000003,
          "durationTicks": 740,
          "midi": 59,
          "name": "B3",
          "ticks": 38398,
          "time": 54.051184687500005,
          "velocity": 0.33858267716535434
        },
        {
          "duration": 1.0191431249999923,
          "durationTicks": 724,
          "midi": 55,
          "name": "G3",
          "ticks": 38398,
          "time": 54.051184687500005,
          "velocity": 0.3700787401574803
        },
        {
          "duration": 1.0191431249999923,
          "durationTicks": 724,
          "midi": 52,
          "name": "E3",
          "ticks": 38398,
          "time": 54.051184687500005,
          "velocity": 0.4015748031496063
        },
        {
          "duration": 1.0388503125000028,
          "durationTicks": 738,
          "midi": 64,
          "name": "E4",
          "ticks": 39166,
          "time": 55.132264687500005,
          "velocity": 0.33858267716535434
        },
        {
          "duration": 1.0388503125000028,
          "durationTicks": 738,
          "midi": 61,
          "name": "C#4",
          "ticks": 39166,
          "time": 55.132264687500005,
          "velocity": 0.4015748031496063
        },
        {
          "duration": 1.0191431249999923,
          "durationTicks": 724,
          "midi": 57,
          "name": "A3",
          "ticks": 39166,
          "time": 55.132264687500005,
          "velocity": 0.4645669291338583
        },
        {
          "duration": 1.0191431249999923,
          "durationTicks": 724,
          "midi": 54,
          "name": "F#3",
          "ticks": 39166,
          "time": 55.132264687500005,
          "velocity": 0.4645669291338583
        },
        {
          "duration": 1.0388503125000028,
          "durationTicks": 738,
          "midi": 66,
          "name": "F#4",
          "ticks": 39934,
          "time": 56.213344687500005,
          "velocity": 0.2125984251968504
        },
        {
          "duration": 1.0388503125000028,
          "durationTicks": 738,
          "midi": 59,
          "name": "B3",
          "ticks": 39934,
          "time": 56.213344687500005,
          "velocity": 0.33858267716535434
        },
        {
          "duration": 1.0191431249999923,
          "durationTicks": 724,
          "midi": 55,
          "name": "G3",
          "ticks": 39934,
          "time": 56.213344687500005,
          "velocity": 0.4015748031496063
        },
        {
          "duration": 1.0191431249999923,
          "durationTicks": 724,
          "midi": 52,
          "name": "E3",
          "ticks": 39934,
          "time": 56.213344687500005,
          "velocity": 0.4330708661417323
        },
        {
          "duration": 1.0416656250000003,
          "durationTicks": 740,
          "midi": 64,
          "name": "E4",
          "ticks": 40702,
          "time": 57.294424687500005,
          "velocity": 0.2125984251968504
        },
        {
          "duration": 1.0416656250000003,
          "durationTicks": 740,
          "midi": 61,
          "name": "C#4",
          "ticks": 40702,
          "time": 57.294424687500005,
          "velocity": 0.30708661417322836
        },
        {
          "duration": 1.0163278124999948,
          "durationTicks": 722,
          "midi": 57,
          "name": "A3",
          "ticks": 40702,
          "time": 57.294424687500005,
          "velocity": 0.3700787401574803
        },
        {
          "duration": 1.0163278124999948,
          "durationTicks": 722,
          "midi": 52,
          "name": "E3",
          "ticks": 40702,
          "time": 57.294424687500005,
          "velocity": 0.4330708661417323
        },
        {
          "duration": 56.176745625,
          "durationTicks": 39908,
          "midi": 61,
          "name": "C#4",
          "ticks": 41470,
          "time": 58.375504687500005,
          "velocity": 0.4645669291338583
        },
        {
          "duration": 56.151407812500004,
          "durationTicks": 39890,
          "midi": 57,
          "name": "A3",
          "ticks": 41470,
          "time": 58.375504687500005,
          "velocity": 0.4015748031496063
        },
        {
          "duration": 2.1227456250000074,
          "durationTicks": 1508,
          "midi": 64,
          "name": "E4",
          "ticks": 79870,
          "time": 112.4295046875,
          "velocity": 0.33858267716535434
        },
        {
          "duration": 6.447065625000008,
          "durationTicks": 4580,
          "midi": 61,
          "name": "C#4",
          "ticks": 79870,
          "time": 112.4295046875,
          "velocity": 0.30708661417322836
        },
        {
          "duration": 6.421727812500009,
          "durationTicks": 4562,
          "midi": 57,
          "name": "A3",
          "ticks": 79870,
          "time": 112.4295046875,
          "velocity": 0.33858267716535434
        },
        {
          "duration": 2.097407812500009,
          "durationTicks": 1490,
          "midi": 54,
          "name": "F#3",
          "ticks": 79870,
          "time": 112.4295046875,
          "velocity": 0.4330708661417323
        },
        {
          "duration": 2.119930312500003,
          "durationTicks": 1506,
          "midi": 66,
          "name": "F#4",
          "ticks": 81406,
          "time": 114.5916646875,
          "velocity": 0.30708661417322836
        },
        {
          "duration": 2.119930312500003,
          "durationTicks": 1506,
          "midi": 62,
          "name": "D4",
          "ticks": 81406,
          "time": 114.5916646875,
          "velocity": 0.3700787401574803
        },
        {
          "duration": 2.097407812500009,
          "durationTicks": 1490,
          "midi": 59,
          "name": "B3",
          "ticks": 81406,
          "time": 114.5916646875,
          "velocity": 0.4015748031496063
        },
        {
          "duration": 2.097407812500009,
          "durationTicks": 1490,
          "midi": 55,
          "name": "G3",
          "ticks": 81406,
          "time": 114.5916646875,
          "velocity": 0.4330708661417323
        },
        {
          "duration": 2.1227456250000074,
          "durationTicks": 1508,
          "midi": 64,
          "name": "E4",
          "ticks": 82942,
          "time": 116.7538246875,
          "velocity": 0.2125984251968504
        },
        {
          "duration": 4.282090312500003,
          "durationTicks": 3042,
          "midi": 61,
          "name": "C#4",
          "ticks": 82942,
          "time": 116.7538246875,
          "velocity": 0.3700787401574803
        },
        {
          "duration": 4.259567812500009,
          "durationTicks": 3026,
          "midi": 57,
          "name": "A3",
          "ticks": 82942,
          "time": 116.7538246875,
          "velocity": 0.4330708661417323
        },
        {
          "duration": 2.097407812500009,
          "durationTicks": 1490,
          "midi": 54,
          "name": "F#3",
          "ticks": 82942,
          "time": 116.7538246875,
          "velocity": 0.49606299212598426
        },
        {
          "duration": 1.0304043750000034,
          "durationTicks": 732,
          "midi": 52,
          "name": "E3",
          "ticks": 84468,
          "time": 118.901908125,
          "velocity": 0.4015748031496063
        },
        {
          "duration": 1.0247737499999943,
          "durationTicks": 728,
          "midi": 62,
          "name": "D4",
          "ticks": 84488,
          "time": 118.93006125000001,
          "velocity": 0.30708661417322836
        },
        {
          "duration": 1.0247737499999943,
          "durationTicks": 728,
          "midi": 59,
          "name": "B3",
          "ticks": 84488,
          "time": 118.93006125000001,
          "velocity": 0.33858267716535434
        },
        {
          "duration": 1.0022512500000005,
          "durationTicks": 712,
          "midi": 55,
          "name": "G3",
          "ticks": 84488,
          "time": 118.93006125000001,
          "velocity": 0.3700787401574803
        },
        {
          "duration": 1.0275890624999988,
          "durationTicks": 730,
          "midi": 54,
          "name": "F#3",
          "ticks": 85238,
          "time": 119.98580343750001,
          "velocity": 0.4645669291338583
        },
        {
          "duration": 1.021958437500004,
          "durationTicks": 726,
          "midi": 64,
          "name": "E4",
          "ticks": 85258,
          "time": 120.0139565625,
          "velocity": 0.33858267716535434
        },
        {
          "duration": 3.0011231250000066,
          "durationTicks": 2132,
          "midi": 61,
          "name": "C#4",
          "ticks": 85258,
          "time": 120.0139565625,
          "velocity": 0.4015748031496063
        },
        {
          "duration": 2.981415937500003,
          "durationTicks": 2118,
          "midi": 57,
          "name": "A3",
          "ticks": 85258,
          "time": 120.0139565625,
          "velocity": 0.4645669291338583
        },
        {
          "duration": 1.0416656250000074,
          "durationTicks": 740,
          "midi": 66,
          "name": "F#4",
          "ticks": 86014,
          "time": 121.0781446875,
          "velocity": 0.2125984251968504
        },
        {
          "duration": 1.0416656250000074,
          "durationTicks": 740,
          "midi": 59,
          "name": "B3",
          "ticks": 86014,
          "time": 121.0781446875,
          "velocity": 0.33858267716535434
        },
        {
          "duration": 1.016327812500009,
          "durationTicks": 722,
          "midi": 55,
          "name": "G3",
          "ticks": 86014,
          "time": 121.0781446875,
          "velocity": 0.4015748031496063
        },
        {
          "duration": 1.016327812500009,
          "durationTicks": 722,
          "midi": 52,
          "name": "E3",
          "ticks": 86014,
          "time": 121.0781446875,
          "velocity": 0.4330708661417323
        },
        {
          "duration": 0.8558550000000054,
          "durationTicks": 608,
          "midi": 64,
          "name": "E4",
          "ticks": 86782,
          "time": 122.1592246875,
          "velocity": 0.2125984251968504
        },
        {
          "duration": 0.8361478125000019,
          "durationTicks": 594,
          "midi": 52,
          "name": "E3",
          "ticks": 86782,
          "time": 122.1592246875,
          "velocity": 0.4330708661417323
        }
      ]
    },
    {
      "channel": 3,
      "controlChanges": {},
      "pitchBends": [],
      "instrument": {
        "family": "guitar",
        "number": 29,
        "name": "overdriven guitar"
      },
      "name": "",
      "notes": [
        {
          "duration": 2.08051593750001,
          "durationTicks": 1478,
          "midi": 62,
          "name": "D4",
          "ticks": 69130,
          "time": 97.3112765625,
          "velocity": 0.4330708661417323
        },
        {
          "duration": 2.1368221875000017,
          "durationTicks": 1518,
          "midi": 59,
          "name": "B3",
          "ticks": 69130,
          "time": 97.3112765625,
          "velocity": 0.2125984251968504
        },
        {
          "duration": 2.3198175000000134,
          "durationTicks": 1648,
          "midi": 55,
          "name": "G3",
          "ticks": 69130,
          "time": 97.3112765625,
          "velocity": 0.49606299212598426
        },
        {
          "duration": 2.485920937500012,
          "durationTicks": 1766,
          "midi": 50,
          "name": "D3",
          "ticks": 69130,
          "time": 97.3112765625,
          "velocity": 0.4330708661417323
        },
        {
          "duration": 0.1914412499999969,
          "durationTicks": 136,
          "midi": 57,
          "name": "A3",
          "ticks": 70778,
          "time": 99.63109406250001,
          "velocity": 0.5590551181102362
        },
        {
          "duration": 0.6756750000000125,
          "durationTicks": 480,
          "midi": 50,
          "name": "D3",
          "ticks": 71040,
          "time": 99.9999,
          "velocity": 0.49606299212598426
        },
        {
          "duration": 0.6531525000000187,
          "durationTicks": 464,
          "midi": 57,
          "name": "A3",
          "ticks": 71040,
          "time": 99.9999,
          "velocity": 0.49606299212598426
        },
        {
          "duration": 0.633445312500001,
          "durationTicks": 450,
          "midi": 62,
          "name": "D4",
          "ticks": 71040,
          "time": 99.9999,
          "velocity": 0.49606299212598426
        },
        {
          "duration": 0.16610343749999856,
          "durationTicks": 118,
          "midi": 64,
          "name": "E4",
          "ticks": 71550,
          "time": 100.7178046875,
          "velocity": 0.4330708661417323
        },
        {
          "duration": 0.185810625000002,
          "durationTicks": 132,
          "midi": 57,
          "name": "A3",
          "ticks": 71550,
          "time": 100.7178046875,
          "velocity": 0.49606299212598426
        },
        {
          "duration": 0.185810625000002,
          "durationTicks": 132,
          "midi": 52,
          "name": "E3",
          "ticks": 71550,
          "time": 100.7178046875,
          "velocity": 0.4330708661417323
        },
        {
          "duration": 0.29279250000001866,
          "durationTicks": 208,
          "midi": 64,
          "name": "E4",
          "ticks": 71794,
          "time": 101.0612728125,
          "velocity": 0.4330708661417323
        },
        {
          "duration": 0.3124996875000079,
          "durationTicks": 222,
          "midi": 57,
          "name": "A3",
          "ticks": 71794,
          "time": 101.0612728125,
          "velocity": 0.4645669291338583
        },
        {
          "duration": 0.33783750000000623,
          "durationTicks": 240,
          "midi": 52,
          "name": "E3",
          "ticks": 71794,
          "time": 101.0612728125,
          "velocity": 0.4330708661417323
        },
        {
          "duration": 2.2972950000000054,
          "durationTicks": 1632,
          "midi": 62,
          "name": "D4",
          "ticks": 72050,
          "time": 101.42163281250001,
          "velocity": 0.4330708661417323
        },
        {
          "duration": 2.347970625000002,
          "durationTicks": 1668,
          "midi": 59,
          "name": "B3",
          "ticks": 72050,
          "time": 101.42163281250001,
          "velocity": 0.2440944881889764
        },
        {
          "duration": 2.5197046874999955,
          "durationTicks": 1790,
          "midi": 55,
          "name": "G3",
          "ticks": 72050,
          "time": 101.42163281250001,
          "velocity": 0.49606299212598426
        },
        {
          "duration": 2.7055153124999975,
          "durationTicks": 1922,
          "midi": 50,
          "name": "D3",
          "ticks": 72050,
          "time": 101.42163281250001,
          "velocity": 0.4330708661417323
        },
        {
          "duration": 0.20551781250000545,
          "durationTicks": 146,
          "midi": 57,
          "name": "A3",
          "ticks": 73840,
          "time": 103.9413375,
          "velocity": 0.5590551181102362
        },
        {
          "duration": 0.6503371874999999,
          "durationTicks": 462,
          "midi": 62,
          "name": "D4",
          "ticks": 74098,
          "time": 104.3045128125,
          "velocity": 0.49606299212598426
        },
        {
          "duration": 0.6728596875000221,
          "durationTicks": 478,
          "midi": 57,
          "name": "A3",
          "ticks": 74098,
          "time": 104.3045128125,
          "velocity": 0.49606299212598426
        },
        {
          "duration": 0.6953821875000159,
          "durationTicks": 494,
          "midi": 50,
          "name": "D3",
          "ticks": 74098,
          "time": 104.3045128125,
          "velocity": 0.49606299212598426
        },
        {
          "duration": 0.18299531249999745,
          "durationTicks": 130,
          "midi": 64,
          "name": "E4",
          "ticks": 74610,
          "time": 105.02523281250001,
          "velocity": 0.4330708661417323
        },
        {
          "duration": 0.19988718749999634,
          "durationTicks": 142,
          "midi": 57,
          "name": "A3",
          "ticks": 74610,
          "time": 105.02523281250001,
          "velocity": 0.49606299212598426
        },
        {
          "duration": 0.19988718749999634,
          "durationTicks": 142,
          "midi": 52,
          "name": "E3",
          "ticks": 74610,
          "time": 105.02523281250001,
          "velocity": 0.4330708661417323
        },
        {
          "duration": 0.2759006250000198,
          "durationTicks": 196,
          "midi": 64,
          "name": "E4",
          "ticks": 74878,
          "time": 105.40248468749999,
          "velocity": 0.4330708661417323
        },
        {
          "duration": 0.295607812500009,
          "durationTicks": 210,
          "midi": 57,
          "name": "A3",
          "ticks": 74878,
          "time": 105.40248468749999,
          "velocity": 0.4645669291338583
        },
        {
          "duration": 0.318130312500017,
          "durationTicks": 226,
          "midi": 52,
          "name": "E3",
          "ticks": 74878,
          "time": 105.40248468749999,
          "velocity": 0.4330708661417323
        },
        {
          "duration": 2.2804031250000065,
          "durationTicks": 1620,
          "midi": 62,
          "name": "D4",
          "ticks": 75132,
          "time": 105.760029375,
          "velocity": 0.4330708661417323
        },
        {
          "duration": 2.3395246875000026,
          "durationTicks": 1662,
          "midi": 59,
          "name": "B3",
          "ticks": 75132,
          "time": 105.760029375,
          "velocity": 0.2755905511811024
        },
        {
          "duration": 2.505628125000001,
          "durationTicks": 1780,
          "midi": 55,
          "name": "G3",
          "ticks": 75132,
          "time": 105.760029375,
          "velocity": 0.49606299212598426
        },
        {
          "duration": 2.6858081250000083,
          "durationTicks": 1908,
          "midi": 50,
          "name": "D3",
          "ticks": 75132,
          "time": 105.760029375,
          "velocity": 0.4330708661417323
        },
        {
          "duration": 0.2027025000000009,
          "durationTicks": 144,
          "midi": 57,
          "name": "A3",
          "ticks": 76912,
          "time": 108.2656575,
          "velocity": 0.5590551181102362
        },
        {
          "duration": 0.633445312500001,
          "durationTicks": 450,
          "midi": 62,
          "name": "D4",
          "ticks": 77182,
          "time": 108.64572468749999,
          "velocity": 0.49606299212598426
        },
        {
          "duration": 0.6559678125000232,
          "durationTicks": 466,
          "midi": 57,
          "name": "A3",
          "ticks": 77182,
          "time": 108.64572468749999,
          "velocity": 0.49606299212598426
        },
        {
          "duration": 0.678490312500017,
          "durationTicks": 482,
          "midi": 50,
          "name": "D3",
          "ticks": 77182,
          "time": 108.64572468749999,
          "velocity": 0.49606299212598426
        },
        {
          "duration": 0.16891875000000312,
          "durationTicks": 120,
          "midi": 64,
          "name": "E4",
          "ticks": 77688,
          "time": 109.35799875000001,
          "velocity": 0.4330708661417323
        },
        {
          "duration": 0.19425656250000145,
          "durationTicks": 138,
          "midi": 57,
          "name": "A3",
          "ticks": 77688,
          "time": 109.35799875000001,
          "velocity": 0.49606299212598426
        },
        {
          "duration": 0.19425656250000145,
          "durationTicks": 138,
          "midi": 52,
          "name": "E3",
          "ticks": 77688,
          "time": 109.35799875000001,
          "velocity": 0.4330708661417323
        },
        {
          "duration": 0.45608062499999846,
          "durationTicks": 324,
          "midi": 64,
          "name": "E4",
          "ticks": 77948,
          "time": 109.72398937500002,
          "velocity": 0.4330708661417323
        },
        {
          "duration": 0.47860312499999225,
          "durationTicks": 340,
          "midi": 57,
          "name": "A3",
          "ticks": 77948,
          "time": 109.72398937500002,
          "velocity": 0.4645669291338583
        },
        {
          "duration": 0.501125624999986,
          "durationTicks": 356,
          "midi": 52,
          "name": "E3",
          "ticks": 77948,
          "time": 109.72398937500002,
          "velocity": 0.4330708661417323
        }
      ]
    },
    {
      "channel": 0,
      "controlChanges": {
        "121": [
          {
            "number": 121,
            "ticks": 384,
            "time": 0.54054,
            "value": 0
          }
        ]
      },
      "pitchBends": [],
      "instrument": {
        "family": "piano",
        "number": 0,
        "name": "acoustic grand piano"
      },
      "name": "GT/SAW/HRN",
      "notes": [],
      "endOfTrackTicks": 161280
    },
    {
      "channel": 4,
      "controlChanges": {},
      "pitchBends": [
        {
          "ticks": 140080,
          "time": 197.18448750000002,
          "value": 0.015625
        },
        {
          "ticks": 140114,
          "time": 197.2323478125,
          "value": -0.046875
        },
        {
          "ticks": 140130,
          "time": 197.2548703125,
          "value": -0.078125
        },
        {
          "ticks": 140144,
          "time": 197.2745775,
          "value": -0.09375
        },
        {
          "ticks": 140162,
          "time": 197.2999153125,
          "value": -0.125
        },
        {
          "ticks": 140176,
          "time": 197.3196225,
          "value": -0.171875
        },
        {
          "ticks": 140210,
          "time": 197.3674828125,
          "value": -0.203125
        },
        {
          "ticks": 140224,
          "time": 197.38719,
          "value": -0.21875
        },
        {
          "ticks": 140240,
          "time": 197.40971249999998,
          "value": -0.21875
        },
        {
          "ticks": 140288,
          "time": 197.47728,
          "value": -0.234375
        },
        {
          "ticks": 140322,
          "time": 197.5251403125,
          "value": -0.25
        },
        {
          "ticks": 140336,
          "time": 197.5448475,
          "value": -0.265625
        },
        {
          "ticks": 140352,
          "time": 197.56737,
          "value": -0.296875
        },
        {
          "ticks": 140366,
          "time": 197.5870771875,
          "value": -0.3125
        },
        {
          "ticks": 140382,
          "time": 197.6095996875,
          "value": -0.328125
        },
        {
          "ticks": 140418,
          "time": 197.6602753125,
          "value": -0.34375
        },
        {
          "ticks": 140432,
          "time": 197.6799825,
          "value": -0.359375
        },
        {
          "ticks": 140446,
          "time": 197.6996896875,
          "value": -0.375
        },
        {
          "ticks": 140482,
          "time": 197.7503653125,
          "value": -0.375
        },
        {
          "ticks": 140496,
          "time": 197.7700725,
          "value": -0.390625
        },
        {
          "ticks": 140510,
          "time": 197.7897796875,
          "value": -0.40625
        },
        {
          "ticks": 140538,
          "time": 197.8291940625,
          "value": -0.421875
        },
        {
          "ticks": 140560,
          "time": 197.86016250000003,
          "value": -0.4375
        },
        {
          "ticks": 140576,
          "time": 197.882685,
          "value": -0.453125
        },
        {
          "ticks": 140594,
          "time": 197.9080228125,
          "value": -0.46875
        },
        {
          "ticks": 140608,
          "time": 197.92773000000003,
          "value": -0.484375
        },
        {
          "ticks": 140624,
          "time": 197.9502525,
          "value": -0.5
        },
        {
          "ticks": 140664,
          "time": 198.00655875,
          "value": -0.515625
        },
        {
          "ticks": 140676,
          "time": 198.023450625,
          "value": -0.53125
        },
        {
          "ticks": 140690,
          "time": 198.0431578125,
          "value": -0.546875
        },
        {
          "ticks": 140708,
          "time": 198.068495625,
          "value": -0.546875
        },
        {
          "ticks": 140722,
          "time": 198.08820281250001,
          "value": -0.5625
        },
        {
          "ticks": 140752,
          "time": 198.1304325,
          "value": -0.578125
        },
        {
          "ticks": 140770,
          "time": 198.1557703125,
          "value": -0.59375
        },
        {
          "ticks": 140794,
          "time": 198.1895540625,
          "value": -0.609375
        },
        {
          "ticks": 140882,
          "time": 198.3134278125,
          "value": -0.59375
        },
        {
          "ticks": 140920,
          "time": 198.36691875000002,
          "value": -0.59375
        },
        {
          "ticks": 140944,
          "time": 198.40070250000002,
          "value": -0.578125
        },
        {
          "ticks": 140960,
          "time": 198.423225,
          "value": -0.546875
        },
        {
          "ticks": 140976,
          "time": 198.4457475,
          "value": -0.546875
        },
        {
          "ticks": 141008,
          "time": 198.4907925,
          "value": -0.515625
        },
        {
          "ticks": 141024,
          "time": 198.513315,
          "value": -0.5
        },
        {
          "ticks": 141048,
          "time": 198.54709875,
          "value": -0.46875
        },
        {
          "ticks": 141048,
          "time": 198.54709875,
          "value": -0.484375
        },
        {
          "ticks": 141088,
          "time": 198.603405,
          "value": -0.453125
        },
        {
          "ticks": 141106,
          "time": 198.6287428125,
          "value": -0.4375
        },
        {
          "ticks": 141136,
          "time": 198.6709725,
          "value": -0.4375
        },
        {
          "ticks": 141152,
          "time": 198.69349499999998,
          "value": -0.421875
        },
        {
          "ticks": 141176,
          "time": 198.72727875,
          "value": -0.390625
        },
        {
          "ticks": 141176,
          "time": 198.72727875,
          "value": -0.40625
        },
        {
          "ticks": 141200,
          "time": 198.7610625,
          "value": -0.359375
        },
        {
          "ticks": 141234,
          "time": 198.80892281250001,
          "value": -0.34375
        },
        {
          "ticks": 141250,
          "time": 198.83144531250002,
          "value": -0.3125
        },
        {
          "ticks": 141264,
          "time": 198.8511525,
          "value": -0.296875
        },
        {
          "ticks": 141278,
          "time": 198.8708596875,
          "value": -0.28125
        },
        {
          "ticks": 141308,
          "time": 198.913089375,
          "value": -0.265625
        },
        {
          "ticks": 141328,
          "time": 198.94124250000002,
          "value": -0.234375
        },
        {
          "ticks": 141344,
          "time": 198.963765,
          "value": -0.203125
        },
        {
          "ticks": 141358,
          "time": 198.9834721875,
          "value": -0.1875
        },
        {
          "ticks": 141376,
          "time": 199.00881,
          "value": -0.15625
        },
        {
          "ticks": 141390,
          "time": 199.0285171875,
          "value": -0.125
        },
        {
          "ticks": 141434,
          "time": 199.0904540625,
          "value": -0.078125
        },
        {
          "ticks": 141434,
          "time": 199.0904540625,
          "value": -0.109375
        },
        {
          "ticks": 141456,
          "time": 199.1214225,
          "value": -0.0625
        },
        {
          "ticks": 141470,
          "time": 199.14112968749998,
          "value": -0.046875
        },
        {
          "ticks": 141486,
          "time": 199.16365218750002,
          "value": -0.03125
        },
        {
          "ticks": 141520,
          "time": 199.21151250000003,
          "value": 0
        }
      ],
      "instrument": {
        "family": "brass",
        "number": 60,
        "name": "french horn"
      },
      "name": "",
      "notes": [
        {
          "duration": 8.61485625,
          "durationTicks": 6120,
          "midi": 81,
          "name": "A5",
          "ticks": 1528,
          "time": 2.15089875,
          "velocity": 0.2755905511811024
        },
        {
          "duration": 8.61485625,
          "durationTicks": 6120,
          "midi": 69,
          "name": "A4",
          "ticks": 1528,
          "time": 2.15089875,
          "velocity": 0.5905511811023622
        },
        {
          "duration": 8.61485625,
          "durationTicks": 6120,
          "midi": 66,
          "name": "F#4",
          "ticks": 1528,
          "time": 2.15089875,
          "velocity": 0.6299212598425197
        },
        {
          "duration": 2.150898750000003,
          "durationTicks": 1528,
          "midi": 62,
          "name": "D4",
          "ticks": 32262,
          "time": 45.4138059375,
          "velocity": 0.6850393700787402
        },
        {
          "duration": 2.16216,
          "durationTicks": 1536,
          "midi": 61,
          "name": "C#4",
          "ticks": 33790,
          "time": 47.564704687500004,
          "velocity": 0.6850393700787402
        },
        {
          "duration": 2.16216,
          "durationTicks": 1536,
          "midi": 62,
          "name": "D4",
          "ticks": 35326,
          "time": 49.726864687500004,
          "velocity": 0.6850393700787402
        },
        {
          "duration": 2.16216,
          "durationTicks": 1536,
          "midi": 61,
          "name": "C#4",
          "ticks": 36862,
          "time": 51.889024687500005,
          "velocity": 0.6850393700787402
        },
        {
          "duration": 1.08108,
          "durationTicks": 768,
          "midi": 59,
          "name": "B3",
          "ticks": 38398,
          "time": 54.051184687500005,
          "velocity": 0.6850393700787402
        },
        {
          "duration": 1.08108,
          "durationTicks": 768,
          "midi": 61,
          "name": "C#4",
          "ticks": 39166,
          "time": 55.132264687500005,
          "velocity": 0.6850393700787402
        },
        {
          "duration": 1.08108,
          "durationTicks": 768,
          "midi": 62,
          "name": "D4",
          "ticks": 39934,
          "time": 56.213344687500005,
          "velocity": 0.6850393700787402
        },
        {
          "duration": 1.08108,
          "durationTicks": 768,
          "midi": 64,
          "name": "E4",
          "ticks": 40702,
          "time": 57.294424687500005,
          "velocity": 0.6850393700787402
        },
        {
          "duration": 2.145268125000001,
          "durationTicks": 1524,
          "midi": 64,
          "name": "E4",
          "ticks": 59902,
          "time": 84.3214246875,
          "velocity": 0.6535433070866141
        },
        {
          "duration": 2.145268125000001,
          "durationTicks": 1524,
          "midi": 62,
          "name": "D4",
          "ticks": 59902,
          "time": 84.3214246875,
          "velocity": 0.6535433070866141
        },
        {
          "duration": 2.179051874999999,
          "durationTicks": 1548,
          "midi": 66,
          "name": "F#4",
          "ticks": 61426,
          "time": 86.4666928125,
          "velocity": 0.6535433070866141
        },
        {
          "duration": 2.179051874999999,
          "durationTicks": 1548,
          "midi": 61,
          "name": "C#4",
          "ticks": 61426,
          "time": 86.4666928125,
          "velocity": 0.6535433070866141
        },
        {
          "duration": 2.1480834375000057,
          "durationTicks": 1526,
          "midi": 67,
          "name": "G4",
          "ticks": 62974,
          "time": 88.6457446875,
          "velocity": 0.5590551181102362
        },
        {
          "duration": 2.1480834375000057,
          "durationTicks": 1526,
          "midi": 62,
          "name": "D4",
          "ticks": 62974,
          "time": 88.6457446875,
          "velocity": 0.6535433070866141
        },
        {
          "duration": 2.1480834374999915,
          "durationTicks": 1526,
          "midi": 66,
          "name": "F#4",
          "ticks": 64520,
          "time": 90.82198125000001,
          "velocity": 0.6535433070866141
        },
        {
          "duration": 2.1480834374999915,
          "durationTicks": 1526,
          "midi": 61,
          "name": "C#4",
          "ticks": 64520,
          "time": 90.82198125000001,
          "velocity": 0.6535433070866141
        },
        {
          "duration": 1.0670034375000057,
          "durationTicks": 758,
          "midi": 64,
          "name": "E4",
          "ticks": 66046,
          "time": 92.9700646875,
          "velocity": 0.6535433070866141
        },
        {
          "duration": 1.0670034375000057,
          "durationTicks": 758,
          "midi": 59,
          "name": "B3",
          "ticks": 66046,
          "time": 92.9700646875,
          "velocity": 0.6535433070866141
        },
        {
          "duration": 1.0951565624999944,
          "durationTicks": 778,
          "midi": 66,
          "name": "F#4",
          "ticks": 66804,
          "time": 94.037068125,
          "velocity": 0.6535433070866141
        },
        {
          "duration": 1.0951565624999944,
          "durationTicks": 778,
          "midi": 61,
          "name": "C#4",
          "ticks": 66804,
          "time": 94.037068125,
          "velocity": 0.6535433070866141
        },
        {
          "duration": 1.08108,
          "durationTicks": 768,
          "midi": 67,
          "name": "G4",
          "ticks": 67582,
          "time": 95.1322246875,
          "velocity": 0.6535433070866141
        },
        {
          "duration": 1.08108,
          "durationTicks": 768,
          "midi": 62,
          "name": "D4",
          "ticks": 67582,
          "time": 95.1322246875,
          "velocity": 0.6535433070866141
        },
        {
          "duration": 1.0726340625000006,
          "durationTicks": 762,
          "midi": 69,
          "name": "A4",
          "ticks": 68350,
          "time": 96.2133046875,
          "velocity": 0.5590551181102362
        },
        {
          "duration": 1.0726340625000006,
          "durationTicks": 762,
          "midi": 64,
          "name": "E4",
          "ticks": 68350,
          "time": 96.2133046875,
          "velocity": 0.6535433070866141
        },
        {
          "duration": 2.3198175000000134,
          "durationTicks": 1648,
          "midi": 62,
          "name": "D4",
          "ticks": 69130,
          "time": 97.3112765625,
          "velocity": 0.8110236220472441
        },
        {
          "duration": 2.3198175000000134,
          "durationTicks": 1648,
          "midi": 59,
          "name": "B3",
          "ticks": 69130,
          "time": 97.3112765625,
          "velocity": 0.49606299212598426
        },
        {
          "duration": 1.5540525000000116,
          "durationTicks": 1104,
          "midi": 57,
          "name": "A3",
          "ticks": 71040,
          "time": 99.9999,
          "velocity": 0.7795275590551181
        },
        {
          "duration": 0.492679687500015,
          "durationTicks": 350,
          "midi": 61,
          "name": "C#4",
          "ticks": 71794,
          "time": 101.0612728125,
          "velocity": 0.7795275590551181
        },
        {
          "duration": 2.3226328125000038,
          "durationTicks": 1650,
          "midi": 62,
          "name": "D4",
          "ticks": 72190,
          "time": 101.6187046875,
          "velocity": 0.8110236220472441
        },
        {
          "duration": 2.3226328125000038,
          "durationTicks": 1650,
          "midi": 59,
          "name": "B3",
          "ticks": 72190,
          "time": 101.6187046875,
          "velocity": 0.49606299212598426
        },
        {
          "duration": 1.5765750000000196,
          "durationTicks": 1120,
          "midi": 57,
          "name": "A3",
          "ticks": 74098,
          "time": 104.3045128125,
          "velocity": 0.7795275590551181
        },
        {
          "duration": 0.47860312500002067,
          "durationTicks": 340,
          "midi": 61,
          "name": "C#4",
          "ticks": 74878,
          "time": 105.40248468749999,
          "velocity": 0.7795275590551181
        },
        {
          "duration": 2.3395246875000026,
          "durationTicks": 1662,
          "midi": 62,
          "name": "D4",
          "ticks": 75250,
          "time": 105.9261328125,
          "velocity": 0.8110236220472441
        },
        {
          "duration": 2.3395246875000026,
          "durationTicks": 1662,
          "midi": 59,
          "name": "B3",
          "ticks": 75250,
          "time": 105.9261328125,
          "velocity": 0.49606299212598426
        },
        {
          "duration": 1.5568678125000162,
          "durationTicks": 1106,
          "midi": 57,
          "name": "A3",
          "ticks": 77182,
          "time": 108.64572468749999,
          "velocity": 0.7795275590551181
        },
        {
          "duration": 0.47860312499999225,
          "durationTicks": 340,
          "midi": 61,
          "name": "C#4",
          "ticks": 77948,
          "time": 109.72398937500002,
          "velocity": 0.7795275590551181
        },
        {
          "duration": 2.16216,
          "durationTicks": 1536,
          "midi": 64,
          "name": "E4",
          "ticks": 78334,
          "time": 110.2673446875,
          "velocity": 0.6850393700787402
        },
        {
          "duration": 2.16216,
          "durationTicks": 1536,
          "midi": 62,
          "name": "D4",
          "ticks": 78334,
          "time": 110.2673446875,
          "velocity": 0.6850393700787402
        },
        {
          "duration": 2.16216,
          "durationTicks": 1536,
          "midi": 66,
          "name": "F#4",
          "ticks": 79870,
          "time": 112.4295046875,
          "velocity": 0.6850393700787402
        },
        {
          "duration": 2.16216,
          "durationTicks": 1536,
          "midi": 61,
          "name": "C#4",
          "ticks": 79870,
          "time": 112.4295046875,
          "velocity": 0.6850393700787402
        },
        {
          "duration": 2.16216,
          "durationTicks": 1536,
          "midi": 67,
          "name": "G4",
          "ticks": 81406,
          "time": 114.5916646875,
          "velocity": 0.5905511811023622
        },
        {
          "duration": 2.16216,
          "durationTicks": 1536,
          "midi": 62,
          "name": "D4",
          "ticks": 81406,
          "time": 114.5916646875,
          "velocity": 0.6850393700787402
        },
        {
          "duration": 2.1480834375000057,
          "durationTicks": 1526,
          "midi": 66,
          "name": "F#4",
          "ticks": 82942,
          "time": 116.7538246875,
          "velocity": 0.6850393700787402
        },
        {
          "duration": 2.1480834375000057,
          "durationTicks": 1526,
          "midi": 61,
          "name": "C#4",
          "ticks": 82942,
          "time": 116.7538246875,
          "velocity": 0.6850393700787402
        },
        {
          "duration": 1.0557421875000017,
          "durationTicks": 750,
          "midi": 64,
          "name": "E4",
          "ticks": 84488,
          "time": 118.93006125000001,
          "velocity": 0.6850393700787402
        },
        {
          "duration": 1.0557421875000017,
          "durationTicks": 750,
          "midi": 59,
          "name": "B3",
          "ticks": 84488,
          "time": 118.93006125000001,
          "velocity": 0.6850393700787402
        },
        {
          "duration": 1.0641881250000012,
          "durationTicks": 756,
          "midi": 66,
          "name": "F#4",
          "ticks": 85258,
          "time": 120.0139565625,
          "velocity": 0.6850393700787402
        },
        {
          "duration": 1.0641881250000012,
          "durationTicks": 756,
          "midi": 61,
          "name": "C#4",
          "ticks": 85258,
          "time": 120.0139565625,
          "velocity": 0.6850393700787402
        },
        {
          "duration": 1.08108,
          "durationTicks": 768,
          "midi": 67,
          "name": "G4",
          "ticks": 86014,
          "time": 121.0781446875,
          "velocity": 0.6850393700787402
        },
        {
          "duration": 1.08108,
          "durationTicks": 768,
          "midi": 62,
          "name": "D4",
          "ticks": 86014,
          "time": 121.0781446875,
          "velocity": 0.6850393700787402
        },
        {
          "duration": 1.0838953125000046,
          "durationTicks": 770,
          "midi": 69,
          "name": "A4",
          "ticks": 86782,
          "time": 122.1592246875,
          "velocity": 0.5905511811023622
        },
        {
          "duration": 1.0838953125000046,
          "durationTicks": 770,
          "midi": 64,
          "name": "E4",
          "ticks": 86782,
          "time": 122.1592246875,
          "velocity": 0.6850393700787402
        },
        {
          "duration": 82.145188125,
          "durationTicks": 58356,
          "midi": 81,
          "name": "A5",
          "ticks": 87552,
          "time": 123.24312,
          "velocity": 0.23622047244094488
        },
        {
          "duration": 17.00167218749999,
          "durationTicks": 12078,
          "midi": 69,
          "name": "A4",
          "ticks": 87552,
          "time": 123.24312,
          "velocity": 0.5511811023622047
        },
        {
          "duration": 17.29446468750001,
          "durationTicks": 12286,
          "midi": 66,
          "name": "F#4",
          "ticks": 87552,
          "time": 123.24312,
          "velocity": 0.5905511811023622
        },
        {
          "duration": 2.47747499999997,
          "durationTicks": 1760,
          "midi": 69,
          "name": "A4",
          "ticks": 99424,
          "time": 139.95481500000002,
          "velocity": 0.968503937007874
        },
        {
          "duration": 0.3265762499999596,
          "durationTicks": 232,
          "midi": 57,
          "name": "A3",
          "ticks": 99448,
          "time": 139.98859875000002,
          "velocity": 0.8110236220472441
        },
        {
          "duration": 0.7629496875000257,
          "durationTicks": 542,
          "midi": 74,
          "name": "D5",
          "ticks": 99680,
          "time": 140.31517499999998,
          "velocity": 1
        },
        {
          "duration": 0.7347965624999802,
          "durationTicks": 522,
          "midi": 62,
          "name": "D4",
          "ticks": 99716,
          "time": 140.365850625,
          "velocity": 0.8110236220472441
        },
        {
          "duration": 0.35754468749999546,
          "durationTicks": 254,
          "midi": 73,
          "name": "C#5",
          "ticks": 100192,
          "time": 141.035895,
          "velocity": 1
        },
        {
          "duration": 0.3322068749999971,
          "durationTicks": 236,
          "midi": 61,
          "name": "C#4",
          "ticks": 100210,
          "time": 141.0612328125,
          "velocity": 0.7480314960629921
        },
        {
          "duration": 0.7685803125000064,
          "durationTicks": 546,
          "midi": 71,
          "name": "B4",
          "ticks": 100446,
          "time": 141.3934396875,
          "velocity": 0.905511811023622
        },
        {
          "duration": 0.7545037500000262,
          "durationTicks": 536,
          "midi": 59,
          "name": "B3",
          "ticks": 100472,
          "time": 141.43003875,
          "velocity": 0.7480314960629921
        },
        {
          "duration": 1.266890625000002,
          "durationTicks": 900,
          "midi": 69,
          "name": "A4",
          "ticks": 100958,
          "time": 142.1141596875,
          "velocity": 1
        },
        {
          "duration": 0.30405374999998,
          "durationTicks": 216,
          "midi": 57,
          "name": "A3",
          "ticks": 100984,
          "time": 142.15075875000002,
          "velocity": 0.7480314960629921
        },
        {
          "duration": 0.591215625000018,
          "durationTicks": 420,
          "midi": 66,
          "name": "F#4",
          "ticks": 101216,
          "time": 142.47733499999998,
          "velocity": 0.968503937007874
        },
        {
          "duration": 0.5715084375000004,
          "durationTicks": 406,
          "midi": 54,
          "name": "F#3",
          "ticks": 101244,
          "time": 142.51674937500002,
          "velocity": 0.6850393700787402
        },
        {
          "duration": 0.22804031249998502,
          "durationTicks": 162,
          "midi": 67,
          "name": "G4",
          "ticks": 101600,
          "time": 143.017875,
          "velocity": 1
        },
        {
          "duration": 0.21114843749998613,
          "durationTicks": 150,
          "midi": 55,
          "name": "G3",
          "ticks": 101626,
          "time": 143.05447406250002,
          "velocity": 0.7795275590551181
        },
        {
          "duration": 1.4217328124999824,
          "durationTicks": 1010,
          "midi": 69,
          "name": "A4",
          "ticks": 101728,
          "time": 143.198055,
          "velocity": 1
        },
        {
          "duration": 0.18299531249999745,
          "durationTicks": 130,
          "midi": 57,
          "name": "A3",
          "ticks": 101752,
          "time": 143.23183875,
          "velocity": 0.8110236220472441
        },
        {
          "duration": 0.2139637500000049,
          "durationTicks": 152,
          "midi": 66,
          "name": "F#4",
          "ticks": 101858,
          "time": 143.3810503125,
          "velocity": 0.968503937007874
        },
        {
          "duration": 0.1801800000000071,
          "durationTicks": 128,
          "midi": 54,
          "name": "F#3",
          "ticks": 101882,
          "time": 143.4148340625,
          "velocity": 0.7480314960629921
        },
        {
          "duration": 0.6531525000000329,
          "durationTicks": 464,
          "midi": 62,
          "name": "D4",
          "ticks": 101984,
          "time": 143.558415,
          "velocity": 0.905511811023622
        },
        {
          "duration": 0.6390759374999959,
          "durationTicks": 454,
          "midi": 50,
          "name": "D3",
          "ticks": 102010,
          "time": 143.5950140625,
          "velocity": 0.6535433070866141
        },
        {
          "duration": 2.5619343749999928,
          "durationTicks": 1820,
          "midi": 69,
          "name": "A4",
          "ticks": 102496,
          "time": 144.27913500000003,
          "velocity": 1
        },
        {
          "duration": 0.3322068749999687,
          "durationTicks": 236,
          "midi": 57,
          "name": "A3",
          "ticks": 102520,
          "time": 144.31291875000002,
          "velocity": 0.84251968503937
        },
        {
          "duration": 0.7826568750000149,
          "durationTicks": 556,
          "midi": 74,
          "name": "D5",
          "ticks": 102756,
          "time": 144.645125625,
          "velocity": 1
        },
        {
          "duration": 0.7854721874999768,
          "durationTicks": 558,
          "midi": 62,
          "name": "D4",
          "ticks": 102770,
          "time": 144.6648328125,
          "velocity": 0.84251968503937
        },
        {
          "duration": 0.33783750000000623,
          "durationTicks": 240,
          "midi": 73,
          "name": "C#5",
          "ticks": 103264,
          "time": 145.360215,
          "velocity": 1
        },
        {
          "duration": 0.33783750000000623,
          "durationTicks": 240,
          "midi": 61,
          "name": "C#4",
          "ticks": 103282,
          "time": 145.3855528125,
          "velocity": 0.7480314960629921
        },
        {
          "duration": 0.7573190624999881,
          "durationTicks": 538,
          "midi": 71,
          "name": "B4",
          "ticks": 103522,
          "time": 145.72339031250002,
          "velocity": 1
        },
        {
          "duration": 0.7235353124999904,
          "durationTicks": 514,
          "midi": 59,
          "name": "B3",
          "ticks": 103546,
          "time": 145.7571740625,
          "velocity": 0.8110236220472441
        },
        {
          "duration": 1.3034896874999902,
          "durationTicks": 926,
          "midi": 69,
          "name": "A4",
          "ticks": 104034,
          "time": 146.44411031250002,
          "velocity": 1
        },
        {
          "duration": 0.3603600000000142,
          "durationTicks": 256,
          "midi": 57,
          "name": "A3",
          "ticks": 104060,
          "time": 146.480709375,
          "velocity": 0.8110236220472441
        },
        {
          "duration": 0.5799543750000282,
          "durationTicks": 412,
          "midi": 66,
          "name": "F#4",
          "ticks": 104288,
          "time": 146.80165499999998,
          "velocity": 1
        },
        {
          "duration": 0.5405399999999929,
          "durationTicks": 384,
          "midi": 54,
          "name": "F#3",
          "ticks": 104316,
          "time": 146.84106937500002,
          "velocity": 0.7795275590551181
        },
        {
          "duration": 0.22240968749997592,
          "durationTicks": 158,
          "midi": 67,
          "name": "G4",
          "ticks": 104674,
          "time": 147.34501031250002,
          "velocity": 1
        },
        {
          "duration": 0.20551781249997703,
          "durationTicks": 146,
          "midi": 55,
          "name": "G3",
          "ticks": 104700,
          "time": 147.381609375,
          "velocity": 0.8110236220472441
        },
        {
          "duration": 1.4442553124999904,
          "durationTicks": 1026,
          "midi": 69,
          "name": "A4",
          "ticks": 104798,
          "time": 147.5195596875,
          "velocity": 1
        },
        {
          "duration": 0.21677906249999523,
          "durationTicks": 154,
          "midi": 57,
          "name": "A3",
          "ticks": 104824,
          "time": 147.55615875,
          "velocity": 0.7795275590551181
        },
        {
          "duration": 0.21677906249999523,
          "durationTicks": 154,
          "midi": 66,
          "name": "F#4",
          "ticks": 104928,
          "time": 147.70255500000002,
          "velocity": 0.968503937007874
        },
        {
          "duration": 0.18299531249999745,
          "durationTicks": 130,
          "midi": 54,
          "name": "F#3",
          "ticks": 104952,
          "time": 147.73633875000002,
          "velocity": 0.7480314960629921
        },
        {
          "duration": 0.6531525000000329,
          "durationTicks": 464,
          "midi": 62,
          "name": "D4",
          "ticks": 105056,
          "time": 147.882735,
          "velocity": 0.937007874015748
        },
        {
          "duration": 0.6362606250000056,
          "durationTicks": 452,
          "midi": 50,
          "name": "D3",
          "ticks": 105082,
          "time": 147.9193340625,
          "velocity": 0.7165354330708661
        },
        {
          "duration": 2.499997499999978,
          "durationTicks": 1776,
          "midi": 69,
          "name": "A4",
          "ticks": 105568,
          "time": 148.60345500000003,
          "velocity": 1
        },
        {
          "duration": 0.36317531250000457,
          "durationTicks": 258,
          "midi": 57,
          "name": "A3",
          "ticks": 105594,
          "time": 148.6400540625,
          "velocity": 0.8110236220472441
        },
        {
          "duration": 0.7207200000000284,
          "durationTicks": 512,
          "midi": 74,
          "name": "D5",
          "ticks": 105824,
          "time": 148.96381499999998,
          "velocity": 0.937007874015748
        },
        {
          "duration": 0.7179046874999813,
          "durationTicks": 510,
          "midi": 62,
          "name": "D4",
          "ticks": 105852,
          "time": 149.00322937500002,
          "velocity": 0.7165354330708661
        },
        {
          "duration": 0.36317531250000457,
          "durationTicks": 258,
          "midi": 73,
          "name": "C#5",
          "ticks": 106336,
          "time": 149.684535,
          "velocity": 1
        },
        {
          "duration": 0.36317531250000457,
          "durationTicks": 258,
          "midi": 61,
          "name": "C#4",
          "ticks": 106362,
          "time": 149.7211340625,
          "velocity": 0.7795275590551181
        },
        {
          "duration": 0.8079946874999848,
          "durationTicks": 574,
          "midi": 71,
          "name": "B4",
          "ticks": 106594,
          "time": 150.04771031250002,
          "velocity": 1
        },
        {
          "duration": 0.7939181250000047,
          "durationTicks": 564,
          "midi": 59,
          "name": "B3",
          "ticks": 106620,
          "time": 150.084309375,
          "velocity": 0.8110236220472441
        },
        {
          "duration": 1.297859062499981,
          "durationTicks": 922,
          "midi": 69,
          "name": "A4",
          "ticks": 107104,
          "time": 150.76561500000003,
          "velocity": 1
        },
        {
          "duration": 0.32939156249997836,
          "durationTicks": 234,
          "midi": 57,
          "name": "A3",
          "ticks": 107130,
          "time": 150.8022140625,
          "velocity": 0.8110236220472441
        },
        {
          "duration": 0.5827696875000186,
          "durationTicks": 414,
          "midi": 66,
          "name": "F#4",
          "ticks": 107364,
          "time": 151.131605625,
          "velocity": 1
        },
        {
          "duration": 0.5799543749999998,
          "durationTicks": 412,
          "midi": 54,
          "name": "F#3",
          "ticks": 107378,
          "time": 151.1513128125,
          "velocity": 0.8110236220472441
        },
        {
          "duration": 0.24211687499996515,
          "durationTicks": 172,
          "midi": 67,
          "name": "G4",
          "ticks": 107746,
          "time": 151.66933031250002,
          "velocity": 1
        },
        {
          "duration": 0.2336709374999657,
          "durationTicks": 166,
          "midi": 55,
          "name": "G3",
          "ticks": 107770,
          "time": 151.70311406250002,
          "velocity": 0.7795275590551181
        },
        {
          "duration": 31.934089687500006,
          "durationTicks": 22686,
          "midi": 69,
          "name": "A4",
          "ticks": 107872,
          "time": 151.846695,
          "velocity": 1
        },
        {
          "duration": 0.18299531249999745,
          "durationTicks": 130,
          "midi": 57,
          "name": "A3",
          "ticks": 107896,
          "time": 151.88047875,
          "velocity": 0.7795275590551181
        },
        {
          "duration": 0.23085562499997536,
          "durationTicks": 164,
          "midi": 66,
          "name": "F#4",
          "ticks": 108000,
          "time": 152.02687500000002,
          "velocity": 1
        },
        {
          "duration": 0.2083331249999958,
          "durationTicks": 148,
          "midi": 54,
          "name": "F#3",
          "ticks": 108026,
          "time": 152.0634740625,
          "velocity": 0.7480314960629921
        },
        {
          "duration": 0.4757878125000161,
          "durationTicks": 338,
          "midi": 62,
          "name": "D4",
          "ticks": 108128,
          "time": 152.207055,
          "velocity": 1
        },
        {
          "duration": 0.447634687499999,
          "durationTicks": 318,
          "midi": 50,
          "name": "D3",
          "ticks": 108164,
          "time": 152.257730625,
          "velocity": 0.7480314960629921
        },
        {
          "duration": 0.4926796874999866,
          "durationTicks": 350,
          "midi": 59,
          "name": "B3",
          "ticks": 108514,
          "time": 152.7504103125,
          "velocity": 0.905511811023622
        },
        {
          "duration": 0.4757878124999877,
          "durationTicks": 338,
          "midi": 47,
          "name": "B2",
          "ticks": 108540,
          "time": 152.787009375,
          "velocity": 0.6850393700787402
        },
        {
          "duration": 0.13513500000001955,
          "durationTicks": 96,
          "midi": 57,
          "name": "A3",
          "ticks": 108900,
          "time": 153.293765625,
          "velocity": 0.8740157480314961
        },
        {
          "duration": 0.12387374999997292,
          "durationTicks": 88,
          "midi": 45,
          "name": "A2",
          "ticks": 108922,
          "time": 153.32473406250003,
          "velocity": 0.6535433070866141
        },
        {
          "duration": 0.16328812500000822,
          "durationTicks": 116,
          "midi": 62,
          "name": "D4",
          "ticks": 120190,
          "time": 169.1862046875,
          "velocity": 0.3700787401574803
        },
        {
          "duration": 0.1379503125000099,
          "durationTicks": 98,
          "midi": 50,
          "name": "D3",
          "ticks": 120190,
          "time": 169.1862046875,
          "velocity": 0.33858267716535434
        },
        {
          "duration": 0.11542781250000189,
          "durationTicks": 82,
          "midi": 50,
          "name": "D3",
          "ticks": 120434,
          "time": 169.5296728125,
          "velocity": 0.33858267716535434
        },
        {
          "duration": 0.10698187500000245,
          "durationTicks": 76,
          "midi": 62,
          "name": "D4",
          "ticks": 120452,
          "time": 169.555010625,
          "velocity": 0.3700787401574803
        },
        {
          "duration": 0.12105843749998257,
          "durationTicks": 86,
          "midi": 50,
          "name": "D3",
          "ticks": 120952,
          "time": 170.25883875000002,
          "velocity": 0.33858267716535434
        },
        {
          "duration": 0.13231968750000078,
          "durationTicks": 94,
          "midi": 62,
          "name": "D4",
          "ticks": 120960,
          "time": 170.2701,
          "velocity": 0.3700787401574803
        },
        {
          "duration": 0.12668906249999168,
          "durationTicks": 90,
          "midi": 50,
          "name": "D3",
          "ticks": 121208,
          "time": 170.61919875,
          "velocity": 0.33858267716535434
        },
        {
          "duration": 0.13231968750000078,
          "durationTicks": 94,
          "midi": 62,
          "name": "D4",
          "ticks": 121218,
          "time": 170.63327531250002,
          "velocity": 0.3700787401574803
        },
        {
          "duration": 2.1508987500000103,
          "durationTicks": 1528,
          "midi": 64,
          "name": "E4",
          "ticks": 121350,
          "time": 170.8190859375,
          "velocity": 0.6850393700787402
        },
        {
          "duration": 2.1508987500000103,
          "durationTicks": 1528,
          "midi": 62,
          "name": "D4",
          "ticks": 121350,
          "time": 170.8190859375,
          "velocity": 0.6850393700787402
        },
        {
          "duration": 2.1480834374999915,
          "durationTicks": 1526,
          "midi": 66,
          "name": "F#4",
          "ticks": 122878,
          "time": 172.96998468750002,
          "velocity": 0.6850393700787402
        },
        {
          "duration": 2.1480834374999915,
          "durationTicks": 1526,
          "midi": 61,
          "name": "C#4",
          "ticks": 122878,
          "time": 172.96998468750002,
          "velocity": 0.6850393700787402
        },
        {
          "duration": 2.16216,
          "durationTicks": 1536,
          "midi": 67,
          "name": "G4",
          "ticks": 124404,
          "time": 175.118068125,
          "velocity": 0.5905511811023622
        },
        {
          "duration": 2.16216,
          "durationTicks": 1536,
          "midi": 62,
          "name": "D4",
          "ticks": 124404,
          "time": 175.118068125,
          "velocity": 0.6850393700787402
        },
        {
          "duration": 2.1508987500000103,
          "durationTicks": 1528,
          "midi": 66,
          "name": "F#4",
          "ticks": 125958,
          "time": 177.3055659375,
          "velocity": 0.6850393700787402
        },
        {
          "duration": 2.1508987500000103,
          "durationTicks": 1528,
          "midi": 61,
          "name": "C#4",
          "ticks": 125958,
          "time": 177.3055659375,
          "velocity": 0.6850393700787402
        },
        {
          "duration": 1.0670034374999773,
          "durationTicks": 758,
          "midi": 64,
          "name": "E4",
          "ticks": 127486,
          "time": 179.45646468750002,
          "velocity": 0.6850393700787402
        },
        {
          "duration": 1.0670034374999773,
          "durationTicks": 758,
          "midi": 59,
          "name": "B3",
          "ticks": 127486,
          "time": 179.45646468750002,
          "velocity": 0.6850393700787402
        },
        {
          "duration": 1.078264687500024,
          "durationTicks": 766,
          "midi": 66,
          "name": "F#4",
          "ticks": 128244,
          "time": 180.523468125,
          "velocity": 0.6850393700787402
        },
        {
          "duration": 1.078264687500024,
          "durationTicks": 766,
          "midi": 61,
          "name": "C#4",
          "ticks": 128244,
          "time": 180.523468125,
          "velocity": 0.6850393700787402
        },
        {
          "duration": 1.0979718750000131,
          "durationTicks": 780,
          "midi": 67,
          "name": "G4",
          "ticks": 129010,
          "time": 181.60173281250002,
          "velocity": 0.6850393700787402
        },
        {
          "duration": 1.0979718750000131,
          "durationTicks": 780,
          "midi": 62,
          "name": "D4",
          "ticks": 129010,
          "time": 181.60173281250002,
          "velocity": 0.6850393700787402
        },
        {
          "duration": 14.054039999999986,
          "durationTicks": 9984,
          "midi": 69,
          "name": "A4",
          "ticks": 129790,
          "time": 182.69970468750003,
          "velocity": 0.5905511811023622
        },
        {
          "duration": 1.0810799999999858,
          "durationTicks": 768,
          "midi": 64,
          "name": "E4",
          "ticks": 129790,
          "time": 182.69970468750003,
          "velocity": 0.6850393700787402
        },
        {
          "duration": 2.16216,
          "durationTicks": 1536,
          "midi": 64,
          "name": "E4",
          "ticks": 130558,
          "time": 183.78078468750002,
          "velocity": 0.6850393700787402
        },
        {
          "duration": 2.16216,
          "durationTicks": 1536,
          "midi": 62,
          "name": "D4",
          "ticks": 130558,
          "time": 183.78078468750002,
          "velocity": 0.6850393700787402
        },
        {
          "duration": 2.16216,
          "durationTicks": 1536,
          "midi": 66,
          "name": "F#4",
          "ticks": 132094,
          "time": 185.94294468750002,
          "velocity": 0.6850393700787402
        },
        {
          "duration": 2.16216,
          "durationTicks": 1536,
          "midi": 61,
          "name": "C#4",
          "ticks": 132094,
          "time": 185.94294468750002,
          "velocity": 0.6850393700787402
        },
        {
          "duration": 2.1480834374999915,
          "durationTicks": 1526,
          "midi": 67,
          "name": "G4",
          "ticks": 133630,
          "time": 188.10510468750002,
          "velocity": 0.5905511811023622
        },
        {
          "duration": 2.1480834374999915,
          "durationTicks": 1526,
          "midi": 62,
          "name": "D4",
          "ticks": 133630,
          "time": 188.10510468750002,
          "velocity": 0.6850393700787402
        },
        {
          "duration": 2.1762365625000086,
          "durationTicks": 1546,
          "midi": 66,
          "name": "F#4",
          "ticks": 135156,
          "time": 190.253188125,
          "velocity": 0.6850393700787402
        },
        {
          "duration": 2.1762365625000086,
          "durationTicks": 1546,
          "midi": 61,
          "name": "C#4",
          "ticks": 135156,
          "time": 190.253188125,
          "velocity": 0.6850393700787402
        },
        {
          "duration": 1.0810800000000143,
          "durationTicks": 768,
          "midi": 64,
          "name": "E4",
          "ticks": 136702,
          "time": 192.42942468750002,
          "velocity": 0.6850393700787402
        },
        {
          "duration": 1.0810800000000143,
          "durationTicks": 768,
          "midi": 59,
          "name": "B3",
          "ticks": 136702,
          "time": 192.42942468750002,
          "velocity": 0.6850393700787402
        },
        {
          "duration": 1.0698187499999676,
          "durationTicks": 760,
          "midi": 66,
          "name": "F#4",
          "ticks": 137470,
          "time": 193.51050468750003,
          "velocity": 0.6850393700787402
        },
        {
          "duration": 1.0698187499999676,
          "durationTicks": 760,
          "midi": 61,
          "name": "C#4",
          "ticks": 137470,
          "time": 193.51050468750003,
          "velocity": 0.6850393700787402
        },
        {
          "duration": 1.0923412500000325,
          "durationTicks": 776,
          "midi": 67,
          "name": "G4",
          "ticks": 138230,
          "time": 194.5803234375,
          "velocity": 0.6850393700787402
        },
        {
          "duration": 1.0923412500000325,
          "durationTicks": 776,
          "midi": 62,
          "name": "D4",
          "ticks": 138230,
          "time": 194.5803234375,
          "velocity": 0.6850393700787402
        },
        {
          "duration": 9.715643437499978,
          "durationTicks": 6902,
          "midi": 69,
          "name": "A4",
          "ticks": 139006,
          "time": 195.67266468750003,
          "velocity": 0.5905511811023622
        },
        {
          "duration": 1.0810799999999858,
          "durationTicks": 768,
          "midi": 64,
          "name": "E4",
          "ticks": 139006,
          "time": 195.67266468750003,
          "velocity": 0.6850393700787402
        },
        {
          "duration": 21.6216,
          "durationTicks": 15360,
          "midi": 69,
          "name": "A4",
          "ticks": 139774,
          "time": 196.75374468750002,
          "velocity": 0.5511811023622047
        },
        {
          "duration": 8.634563437499992,
          "durationTicks": 6134,
          "midi": 66,
          "name": "F#4",
          "ticks": 139774,
          "time": 196.75374468750002,
          "velocity": 0.5905511811023622
        },
        {
          "duration": 2.16216,
          "durationTicks": 1536,
          "midi": 64,
          "name": "E4",
          "ticks": 145908,
          "time": 205.388308125,
          "velocity": 0.6850393700787402
        },
        {
          "duration": 2.16216,
          "durationTicks": 1536,
          "midi": 62,
          "name": "D4",
          "ticks": 145908,
          "time": 205.388308125,
          "velocity": 0.6850393700787402
        },
        {
          "duration": 2.1762365625000086,
          "durationTicks": 1546,
          "midi": 66,
          "name": "F#4",
          "ticks": 147444,
          "time": 207.550468125,
          "velocity": 0.6850393700787402
        },
        {
          "duration": 2.1762365625000086,
          "durationTicks": 1546,
          "midi": 61,
          "name": "C#4",
          "ticks": 147444,
          "time": 207.550468125,
          "velocity": 0.6850393700787402
        },
        {
          "duration": 2.16216,
          "durationTicks": 1536,
          "midi": 67,
          "name": "G4",
          "ticks": 148990,
          "time": 209.72670468750002,
          "velocity": 0.5905511811023622
        },
        {
          "duration": 2.16216,
          "durationTicks": 1536,
          "midi": 62,
          "name": "D4",
          "ticks": 148990,
          "time": 209.72670468750002,
          "velocity": 0.6850393700787402
        },
        {
          "duration": 2.16216,
          "durationTicks": 1536,
          "midi": 66,
          "name": "F#4",
          "ticks": 150526,
          "time": 211.88886468750002,
          "velocity": 0.6850393700787402
        },
        {
          "duration": 2.16216,
          "durationTicks": 1536,
          "midi": 61,
          "name": "C#4",
          "ticks": 150526,
          "time": 211.88886468750002,
          "velocity": 0.6850393700787402
        },
        {
          "duration": 1.0810800000000143,
          "durationTicks": 768,
          "midi": 64,
          "name": "E4",
          "ticks": 152062,
          "time": 214.05102468750002,
          "velocity": 0.6850393700787402
        },
        {
          "duration": 1.0810800000000143,
          "durationTicks": 768,
          "midi": 59,
          "name": "B3",
          "ticks": 152062,
          "time": 214.05102468750002,
          "velocity": 0.6850393700787402
        },
        {
          "duration": 1.0810799999999858,
          "durationTicks": 768,
          "midi": 66,
          "name": "F#4",
          "ticks": 152830,
          "time": 215.13210468750003,
          "velocity": 0.6850393700787402
        },
        {
          "duration": 1.0810799999999858,
          "durationTicks": 768,
          "midi": 61,
          "name": "C#4",
          "ticks": 152830,
          "time": 215.13210468750003,
          "velocity": 0.6850393700787402
        },
        {
          "duration": 1.0670034374999773,
          "durationTicks": 758,
          "midi": 67,
          "name": "G4",
          "ticks": 153598,
          "time": 216.21318468750002,
          "velocity": 0.6850393700787402
        },
        {
          "duration": 1.0670034374999773,
          "durationTicks": 758,
          "midi": 62,
          "name": "D4",
          "ticks": 153598,
          "time": 216.21318468750002,
          "velocity": 0.6850393700787402
        },
        {
          "duration": 5.647516875000036,
          "durationTicks": 4012,
          "midi": 69,
          "name": "A4",
          "ticks": 154356,
          "time": 217.280188125,
          "velocity": 0.5905511811023622
        },
        {
          "duration": 1.0951565625000228,
          "durationTicks": 778,
          "midi": 64,
          "name": "E4",
          "ticks": 154356,
          "time": 217.280188125,
          "velocity": 0.6850393700787402
        },
        {
          "duration": 1.0670034374999773,
          "durationTicks": 758,
          "midi": 64,
          "name": "E4",
          "ticks": 155134,
          "time": 218.37534468750002,
          "velocity": 0.6850393700787402
        },
        {
          "duration": 1.0670034374999773,
          "durationTicks": 758,
          "midi": 59,
          "name": "B3",
          "ticks": 155134,
          "time": 218.37534468750002,
          "velocity": 0.6850393700787402
        },
        {
          "duration": 1.0951565625000228,
          "durationTicks": 778,
          "midi": 66,
          "name": "F#4",
          "ticks": 155892,
          "time": 219.442348125,
          "velocity": 0.6850393700787402
        },
        {
          "duration": 1.0951565625000228,
          "durationTicks": 778,
          "midi": 61,
          "name": "C#4",
          "ticks": 155892,
          "time": 219.442348125,
          "velocity": 0.6850393700787402
        },
        {
          "duration": 1.064188124999987,
          "durationTicks": 756,
          "midi": 67,
          "name": "G4",
          "ticks": 156670,
          "time": 220.53750468750002,
          "velocity": 0.6850393700787402
        },
        {
          "duration": 2.3648624999999868,
          "durationTicks": 1680,
          "midi": 62,
          "name": "D4",
          "ticks": 156670,
          "time": 220.53750468750002,
          "velocity": 0.7165354330708661
        }
      ]
    },
    {
      "channel": 4,
      "controlChanges": {},
      "pitchBends": [],
      "instrument": {
        "family": "guitar",
        "number": 25,
        "name": "acoustic guitar (steel)"
      },
      "name": "",
      "notes": [
        {
          "duration": 0.2027025000000009,
          "durationTicks": 144,
          "midi": 50,
          "name": "D3",
          "ticks": 41842,
          "time": 58.899152812500006,
          "velocity": 0.4330708661417323
        },
        {
          "duration": 0.15765750000000622,
          "durationTicks": 112,
          "midi": 50,
          "name": "D3",
          "ticks": 42098,
          "time": 59.2595128125,
          "velocity": 0.4330708661417323
        },
        {
          "duration": 0.19425656250000145,
          "durationTicks": 138,
          "midi": 50,
          "name": "D3",
          "ticks": 42614,
          "time": 59.9858634375,
          "velocity": 0.4330708661417323
        },
        {
          "duration": 0.12668906249999878,
          "durationTicks": 90,
          "midi": 50,
          "name": "D3",
          "ticks": 42870,
          "time": 60.3462234375,
          "velocity": 0.4015748031496063
        },
        {
          "duration": 0.17736468749999545,
          "durationTicks": 126,
          "midi": 50,
          "name": "D3",
          "ticks": 43382,
          "time": 61.0669434375,
          "velocity": 0.4330708661417323
        },
        {
          "duration": 0.12105843749999678,
          "durationTicks": 86,
          "midi": 50,
          "name": "D3",
          "ticks": 43642,
          "time": 61.4329340625,
          "velocity": 0.4015748031496063
        },
        {
          "duration": 0.16047281249999656,
          "durationTicks": 114,
          "midi": 50,
          "name": "D3",
          "ticks": 44144,
          "time": 62.1395775,
          "velocity": 0.4330708661417323
        },
        {
          "duration": 0.13231968750000078,
          "durationTicks": 94,
          "midi": 50,
          "name": "D3",
          "ticks": 44402,
          "time": 62.5027528125,
          "velocity": 0.4015748031496063
        },
        {
          "duration": 0.2027025000000009,
          "durationTicks": 144,
          "midi": 50,
          "name": "D3",
          "ticks": 44912,
          "time": 63.2206575,
          "velocity": 0.4330708661417323
        },
        {
          "duration": 0.1379503125000099,
          "durationTicks": 98,
          "midi": 50,
          "name": "D3",
          "ticks": 45182,
          "time": 63.6007246875,
          "velocity": 0.4015748031496063
        },
        {
          "duration": 0.197071875000006,
          "durationTicks": 140,
          "midi": 50,
          "name": "D3",
          "ticks": 45686,
          "time": 64.3101834375,
          "velocity": 0.4330708661417323
        },
        {
          "duration": 0.12387375000000134,
          "durationTicks": 88,
          "midi": 50,
          "name": "D3",
          "ticks": 45944,
          "time": 64.67335875,
          "velocity": 0.4015748031496063
        },
        {
          "duration": 0.174549374999998,
          "durationTicks": 124,
          "midi": 50,
          "name": "D3",
          "ticks": 46454,
          "time": 65.3912634375,
          "velocity": 0.4330708661417323
        },
        {
          "duration": 0.12668906249999168,
          "durationTicks": 90,
          "midi": 50,
          "name": "D3",
          "ticks": 46712,
          "time": 65.75443875,
          "velocity": 0.4015748031496063
        },
        {
          "duration": 0.15765749999999912,
          "durationTicks": 112,
          "midi": 50,
          "name": "D3",
          "ticks": 47218,
          "time": 66.4667128125,
          "velocity": 0.4015748031496063
        },
        {
          "duration": 0.13513500000000533,
          "durationTicks": 96,
          "midi": 50,
          "name": "D3",
          "ticks": 47472,
          "time": 66.8242575,
          "velocity": 0.4015748031496063
        }
      ]
    },
    {
      "channel": 4,
      "controlChanges": {},
      "pitchBends": [],
      "instrument": {
        "family": "bass",
        "number": 33,
        "name": "electric bass (finger)"
      },
      "name": "",
      "notes": [
        {
          "duration": 0.0816440624999899,
          "durationTicks": 58,
          "midi": 86,
          "name": "D6",
          "ticks": 51572,
          "time": 72.59564812500001,
          "velocity": 0.5590551181102362
        },
        {
          "duration": 0.0816440624999899,
          "durationTicks": 58,
          "midi": 81,
          "name": "A5",
          "ticks": 51702,
          "time": 72.77864343750001,
          "velocity": 0.5590551181102362
        },
        {
          "duration": 0.08164406250000411,
          "durationTicks": 58,
          "midi": 74,
          "name": "D5",
          "ticks": 51830,
          "time": 72.9588234375,
          "velocity": 0.5590551181102362
        },
        {
          "duration": 0.08727468750001321,
          "durationTicks": 62,
          "midi": 78,
          "name": "F#5",
          "ticks": 51952,
          "time": 73.1305575,
          "velocity": 0.5590551181102362
        },
        {
          "duration": 0.0816440624999899,
          "durationTicks": 58,
          "midi": 69,
          "name": "A4",
          "ticks": 52086,
          "time": 73.3191834375,
          "velocity": 0.33858267716535434
        }
      ]
    },
    {
      "channel": 4,
      "controlChanges": {},
      "pitchBends": [],
      "instrument": {
        "family": "synth lead",
        "number": 81,
        "name": "lead 2 (sawtooth)"
      },
      "name": "",
      "notes": [
        {
          "duration": 0.8868234374999986,
          "durationTicks": 630,
          "midi": 61,
          "name": "C#4",
          "ticks": 109054,
          "time": 153.51054468750002,
          "velocity": 0.7480314960629921
        },
        {
          "duration": 0.8868234374999986,
          "durationTicks": 630,
          "midi": 57,
          "name": "A3",
          "ticks": 109054,
          "time": 153.51054468750002,
          "velocity": 0.6850393700787402
        },
        {
          "duration": 0.8868234374999986,
          "durationTicks": 630,
          "midi": 45,
          "name": "A2",
          "ticks": 109054,
          "time": 153.51054468750002,
          "velocity": 0.5275590551181102
        },
        {
          "duration": 0.17173406250000767,
          "durationTicks": 122,
          "midi": 50,
          "name": "D3",
          "ticks": 109432,
          "time": 154.04263875,
          "velocity": 0.33858267716535434
        },
        {
          "duration": 0.17736468750001677,
          "durationTicks": 126,
          "midi": 62,
          "name": "D4",
          "ticks": 109442,
          "time": 154.0567153125,
          "velocity": 0.3700787401574803
        },
        {
          "duration": 0.14921156249997125,
          "durationTicks": 106,
          "midi": 62,
          "name": "D4",
          "ticks": 109684,
          "time": 154.397368125,
          "velocity": 0.3700787401574803
        },
        {
          "duration": 0.9206071874999964,
          "durationTicks": 654,
          "midi": 62,
          "name": "D4",
          "ticks": 109684,
          "time": 154.397368125,
          "velocity": 0.49606299212598426
        },
        {
          "duration": 3.423419999999993,
          "durationTicks": 2432,
          "midi": 59,
          "name": "B3",
          "ticks": 109684,
          "time": 154.397368125,
          "velocity": 0.7165354330708661
        },
        {
          "duration": 3.423419999999993,
          "durationTicks": 2432,
          "midi": 55,
          "name": "G3",
          "ticks": 109684,
          "time": 154.397368125,
          "velocity": 0.6850393700787402
        },
        {
          "duration": 3.423419999999993,
          "durationTicks": 2432,
          "midi": 43,
          "name": "G2",
          "ticks": 109684,
          "time": 154.397368125,
          "velocity": 0.5275590551181102
        },
        {
          "duration": 0.12950437499998202,
          "durationTicks": 92,
          "midi": 50,
          "name": "D3",
          "ticks": 109684,
          "time": 154.397368125,
          "velocity": 0.33858267716535434
        },
        {
          "duration": 0.17736468749998835,
          "durationTicks": 126,
          "midi": 50,
          "name": "D3",
          "ticks": 110198,
          "time": 155.1209034375,
          "velocity": 0.33858267716535434
        },
        {
          "duration": 0.4645265624999979,
          "durationTicks": 330,
          "midi": 62,
          "name": "D4",
          "ticks": 110212,
          "time": 155.14061062500002,
          "velocity": 0.3700787401574803
        },
        {
          "duration": 0.10979718749999279,
          "durationTicks": 78,
          "midi": 50,
          "name": "D3",
          "ticks": 110450,
          "time": 155.4756328125,
          "velocity": 0.33858267716535434
        },
        {
          "duration": 0.8783774999999991,
          "durationTicks": 624,
          "midi": 62,
          "name": "D4",
          "ticks": 110468,
          "time": 155.500970625,
          "velocity": 0.3700787401574803
        },
        {
          "duration": 0.15484218750000878,
          "durationTicks": 110,
          "midi": 50,
          "name": "D3",
          "ticks": 110962,
          "time": 156.1963528125,
          "velocity": 0.33858267716535434
        },
        {
          "duration": 0.47297249999999735,
          "durationTicks": 336,
          "midi": 62,
          "name": "D4",
          "ticks": 110976,
          "time": 156.21606,
          "velocity": 0.3700787401574803
        },
        {
          "duration": 0.10698187500000245,
          "durationTicks": 76,
          "midi": 50,
          "name": "D3",
          "ticks": 111224,
          "time": 156.56515875,
          "velocity": 0.33858267716535434
        },
        {
          "duration": 0.8530396875000008,
          "durationTicks": 606,
          "midi": 62,
          "name": "D4",
          "ticks": 111234,
          "time": 156.5792353125,
          "velocity": 0.3700787401574803
        },
        {
          "duration": 0.12387374999997292,
          "durationTicks": 88,
          "midi": 50,
          "name": "D3",
          "ticks": 111736,
          "time": 157.28587875000002,
          "velocity": 0.33858267716535434
        },
        {
          "duration": 0.4983103124999957,
          "durationTicks": 354,
          "midi": 62,
          "name": "D4",
          "ticks": 111744,
          "time": 157.29714,
          "velocity": 0.3700787401574803
        },
        {
          "duration": 0.17173406249997925,
          "durationTicks": 122,
          "midi": 62,
          "name": "D4",
          "ticks": 111994,
          "time": 157.64905406250003,
          "velocity": 0.3700787401574803
        },
        {
          "duration": 0.12105843749998257,
          "durationTicks": 86,
          "midi": 50,
          "name": "D3",
          "ticks": 111994,
          "time": 157.64905406250003,
          "velocity": 0.33858267716535434
        },
        {
          "duration": 0.917791875000006,
          "durationTicks": 652,
          "midi": 61,
          "name": "C#4",
          "ticks": 112116,
          "time": 157.820788125,
          "velocity": 0.7480314960629921
        },
        {
          "duration": 0.917791875000006,
          "durationTicks": 652,
          "midi": 57,
          "name": "A3",
          "ticks": 112116,
          "time": 157.820788125,
          "velocity": 0.6850393700787402
        },
        {
          "duration": 0.917791875000006,
          "durationTicks": 652,
          "midi": 45,
          "name": "A2",
          "ticks": 112116,
          "time": 157.820788125,
          "velocity": 0.5275590551181102
        },
        {
          "duration": 0.17173406250000767,
          "durationTicks": 122,
          "midi": 50,
          "name": "D3",
          "ticks": 112504,
          "time": 158.36695875,
          "velocity": 0.33858267716535434
        },
        {
          "duration": 0.174549374999998,
          "durationTicks": 124,
          "midi": 62,
          "name": "D4",
          "ticks": 112516,
          "time": 158.383850625,
          "velocity": 0.3700787401574803
        },
        {
          "duration": 0.13513499999999112,
          "durationTicks": 96,
          "midi": 62,
          "name": "D4",
          "ticks": 112768,
          "time": 158.73858,
          "velocity": 0.3700787401574803
        },
        {
          "duration": 0.9037153124999975,
          "durationTicks": 642,
          "midi": 62,
          "name": "D4",
          "ticks": 112768,
          "time": 158.73858,
          "velocity": 0.49606299212598426
        },
        {
          "duration": 3.406528124999994,
          "durationTicks": 2420,
          "midi": 59,
          "name": "B3",
          "ticks": 112768,
          "time": 158.73858,
          "velocity": 0.7165354330708661
        },
        {
          "duration": 3.406528124999994,
          "durationTicks": 2420,
          "midi": 55,
          "name": "G3",
          "ticks": 112768,
          "time": 158.73858,
          "velocity": 0.6850393700787402
        },
        {
          "duration": 3.406528124999994,
          "durationTicks": 2420,
          "midi": 43,
          "name": "G2",
          "ticks": 112768,
          "time": 158.73858,
          "velocity": 0.5275590551181102
        },
        {
          "duration": 0.11542781249997347,
          "durationTicks": 82,
          "midi": 50,
          "name": "D3",
          "ticks": 112768,
          "time": 158.73858,
          "velocity": 0.33858267716535434
        },
        {
          "duration": 0.17173406249997925,
          "durationTicks": 122,
          "midi": 50,
          "name": "D3",
          "ticks": 113272,
          "time": 159.44803875000002,
          "velocity": 0.33858267716535434
        },
        {
          "duration": 0.46734187499998825,
          "durationTicks": 332,
          "midi": 62,
          "name": "D4",
          "ticks": 113284,
          "time": 159.46493062500002,
          "velocity": 0.3700787401574803
        },
        {
          "duration": 0.09853593749997458,
          "durationTicks": 70,
          "midi": 50,
          "name": "D3",
          "ticks": 113530,
          "time": 159.81121406250003,
          "velocity": 0.33858267716535434
        },
        {
          "duration": 0.8783774999999991,
          "durationTicks": 624,
          "midi": 62,
          "name": "D4",
          "ticks": 113540,
          "time": 159.825290625,
          "velocity": 0.3700787401574803
        },
        {
          "duration": 0.14639625000000933,
          "durationTicks": 104,
          "midi": 50,
          "name": "D3",
          "ticks": 114040,
          "time": 160.52911875,
          "velocity": 0.33858267716535434
        },
        {
          "duration": 0.4757878124999877,
          "durationTicks": 338,
          "midi": 62,
          "name": "D4",
          "ticks": 114048,
          "time": 160.54038,
          "velocity": 0.3700787401574803
        },
        {
          "duration": 0.8558550000000196,
          "durationTicks": 608,
          "midi": 62,
          "name": "D4",
          "ticks": 114302,
          "time": 160.8979246875,
          "velocity": 0.3700787401574803
        },
        {
          "duration": 0.0929053124999939,
          "durationTicks": 66,
          "midi": 50,
          "name": "D3",
          "ticks": 114302,
          "time": 160.8979246875,
          "velocity": 0.33858267716535434
        },
        {
          "duration": 0.4983103124999957,
          "durationTicks": 354,
          "midi": 62,
          "name": "D4",
          "ticks": 114814,
          "time": 161.61864468750002,
          "velocity": 0.3700787401574803
        },
        {
          "duration": 0.11261249999998313,
          "durationTicks": 80,
          "midi": 50,
          "name": "D3",
          "ticks": 114814,
          "time": 161.61864468750002,
          "velocity": 0.33858267716535434
        },
        {
          "duration": 0.12668906249999168,
          "durationTicks": 90,
          "midi": 50,
          "name": "D3",
          "ticks": 115064,
          "time": 161.97055875,
          "velocity": 0.33858267716535434
        },
        {
          "duration": 0.16047281249998946,
          "durationTicks": 114,
          "midi": 62,
          "name": "D4",
          "ticks": 115074,
          "time": 161.98463531250002,
          "velocity": 0.3700787401574803
        },
        {
          "duration": 0.9149765624999873,
          "durationTicks": 650,
          "midi": 61,
          "name": "C#4",
          "ticks": 115188,
          "time": 162.145108125,
          "velocity": 0.7480314960629921
        },
        {
          "duration": 0.9149765624999873,
          "durationTicks": 650,
          "midi": 57,
          "name": "A3",
          "ticks": 115188,
          "time": 162.145108125,
          "velocity": 0.6850393700787402
        },
        {
          "duration": 0.9149765624999873,
          "durationTicks": 650,
          "midi": 45,
          "name": "A2",
          "ticks": 115188,
          "time": 162.145108125,
          "velocity": 0.5275590551181102
        },
        {
          "duration": 0.17736468750001677,
          "durationTicks": 126,
          "midi": 50,
          "name": "D3",
          "ticks": 115574,
          "time": 162.6884634375,
          "velocity": 0.33858267716535434
        },
        {
          "duration": 0.17736468750001677,
          "durationTicks": 126,
          "midi": 62,
          "name": "D4",
          "ticks": 115586,
          "time": 162.7053553125,
          "velocity": 0.3700787401574803
        },
        {
          "duration": 0.1379503125000099,
          "durationTicks": 98,
          "midi": 62,
          "name": "D4",
          "ticks": 115838,
          "time": 163.0600846875,
          "velocity": 0.3700787401574803
        },
        {
          "duration": 0.9037153124999975,
          "durationTicks": 642,
          "midi": 62,
          "name": "D4",
          "ticks": 115838,
          "time": 163.0600846875,
          "velocity": 0.49606299212598426
        },
        {
          "duration": 3.4234200000000214,
          "durationTicks": 2432,
          "midi": 59,
          "name": "B3",
          "ticks": 115838,
          "time": 163.0600846875,
          "velocity": 0.7165354330708661
        },
        {
          "duration": 3.4234200000000214,
          "durationTicks": 2432,
          "midi": 55,
          "name": "G3",
          "ticks": 115838,
          "time": 163.0600846875,
          "velocity": 0.6850393700787402
        },
        {
          "duration": 3.4234200000000214,
          "durationTicks": 2432,
          "midi": 43,
          "name": "G2",
          "ticks": 115838,
          "time": 163.0600846875,
          "velocity": 0.5275590551181102
        },
        {
          "duration": 0.11824312499999223,
          "durationTicks": 84,
          "midi": 50,
          "name": "D3",
          "ticks": 115838,
          "time": 163.0600846875,
          "velocity": 0.33858267716535434
        },
        {
          "duration": 0.17173406250000767,
          "durationTicks": 122,
          "midi": 50,
          "name": "D3",
          "ticks": 116342,
          "time": 163.7695434375,
          "velocity": 0.33858267716535434
        },
        {
          "duration": 0.47297249999999735,
          "durationTicks": 336,
          "midi": 62,
          "name": "D4",
          "ticks": 116354,
          "time": 163.7864353125,
          "velocity": 0.3700787401574803
        },
        {
          "duration": 0.10698187499997402,
          "durationTicks": 76,
          "midi": 50,
          "name": "D3",
          "ticks": 116596,
          "time": 164.12708812500003,
          "velocity": 0.33858267716535434
        },
        {
          "duration": 0.8783774999999991,
          "durationTicks": 624,
          "midi": 62,
          "name": "D4",
          "ticks": 116612,
          "time": 164.149610625,
          "velocity": 0.3700787401574803
        },
        {
          "duration": 0.15765749999999912,
          "durationTicks": 112,
          "midi": 50,
          "name": "D3",
          "ticks": 117106,
          "time": 164.8449928125,
          "velocity": 0.33858267716535434
        },
        {
          "duration": 0.470157187500007,
          "durationTicks": 334,
          "midi": 62,
          "name": "D4",
          "ticks": 117122,
          "time": 164.8675153125,
          "velocity": 0.3700787401574803
        },
        {
          "duration": 0.09853593749997458,
          "durationTicks": 70,
          "midi": 50,
          "name": "D3",
          "ticks": 117370,
          "time": 165.2166140625,
          "velocity": 0.33858267716535434
        },
        {
          "duration": 0.8530396875000008,
          "durationTicks": 606,
          "midi": 62,
          "name": "D4",
          "ticks": 117378,
          "time": 165.2278753125,
          "velocity": 0.3700787401574803
        },
        {
          "duration": 0.12668906249999168,
          "durationTicks": 90,
          "midi": 50,
          "name": "D3",
          "ticks": 117878,
          "time": 165.9317034375,
          "velocity": 0.33858267716535434
        },
        {
          "duration": 0.49549500000000535,
          "durationTicks": 352,
          "midi": 62,
          "name": "D4",
          "ticks": 117888,
          "time": 165.94578,
          "velocity": 0.3700787401574803
        },
        {
          "duration": 0.12387375000000134,
          "durationTicks": 88,
          "midi": 50,
          "name": "D3",
          "ticks": 118136,
          "time": 166.29487875,
          "velocity": 0.33858267716535434
        },
        {
          "duration": 0.174549374999998,
          "durationTicks": 124,
          "midi": 62,
          "name": "D4",
          "ticks": 118146,
          "time": 166.30895531250002,
          "velocity": 0.3700787401574803
        },
        {
          "duration": 0.9008999999999787,
          "durationTicks": 640,
          "midi": 61,
          "name": "C#4",
          "ticks": 118270,
          "time": 166.48350468750002,
          "velocity": 0.7480314960629921
        },
        {
          "duration": 0.9008999999999787,
          "durationTicks": 640,
          "midi": 57,
          "name": "A3",
          "ticks": 118270,
          "time": 166.48350468750002,
          "velocity": 0.6850393700787402
        },
        {
          "duration": 0.9008999999999787,
          "durationTicks": 640,
          "midi": 45,
          "name": "A2",
          "ticks": 118270,
          "time": 166.48350468750002,
          "velocity": 0.5275590551181102
        },
        {
          "duration": 0.17736468750001677,
          "durationTicks": 126,
          "midi": 50,
          "name": "D3",
          "ticks": 118642,
          "time": 167.0071528125,
          "velocity": 0.33858267716535434
        },
        {
          "duration": 0.17736468750001677,
          "durationTicks": 126,
          "midi": 62,
          "name": "D4",
          "ticks": 118660,
          "time": 167.032490625,
          "velocity": 0.3700787401574803
        },
        {
          "duration": 0.1379503125000099,
          "durationTicks": 98,
          "midi": 62,
          "name": "D4",
          "ticks": 118910,
          "time": 167.3844046875,
          "velocity": 0.3700787401574803
        },
        {
          "duration": 0.9065306250000162,
          "durationTicks": 644,
          "midi": 62,
          "name": "D4",
          "ticks": 118910,
          "time": 167.3844046875,
          "velocity": 0.49606299212598426
        },
        {
          "duration": 0.11261250000001155,
          "durationTicks": 80,
          "midi": 50,
          "name": "D3",
          "ticks": 118910,
          "time": 167.3844046875,
          "velocity": 0.33858267716535434
        },
        {
          "duration": 0.1689187499999889,
          "durationTicks": 120,
          "midi": 50,
          "name": "D3",
          "ticks": 119416,
          "time": 168.09667875000002,
          "velocity": 0.33858267716535434
        },
        {
          "duration": 0.4645265624999979,
          "durationTicks": 330,
          "midi": 62,
          "name": "D4",
          "ticks": 119428,
          "time": 168.11357062500002,
          "velocity": 0.3700787401574803
        },
        {
          "duration": 0.1041665625000121,
          "durationTicks": 74,
          "midi": 50,
          "name": "D3",
          "ticks": 119672,
          "time": 168.45703875,
          "velocity": 0.33858267716535434
        }
      ]
    },
    {
      "channel": 9,
      "controlChanges": {},
      "pitchBends": [],
      "instrument": {
        "family": "drums",
        "number": 0,
        "name": "standard kit"
      },
      "name": "DRUMS",
      "notes": [
        {
          "duration": 0.0014076562500000556,
          "durationTicks": 1,
          "midi": 69,
          "name": "A4",
          "ticks": 1552,
          "time": 2.1846825,
          "velocity": 0.3779527559055118
        },
        {
          "duration": 0.01970718749999989,
          "durationTicks": 14,
          "midi": 42,
          "name": "F#2",
          "ticks": 1674,
          "time": 2.3564165625,
          "velocity": 0.4566929133858268
        },
        {
          "duration": 0.014076562500000112,
          "durationTicks": 10,
          "midi": 69,
          "name": "A4",
          "ticks": 1806,
          "time": 2.5422271875,
          "velocity": 0.3779527559055118
        },
        {
          "duration": 0.016891875000000223,
          "durationTicks": 12,
          "midi": 42,
          "name": "F#2",
          "ticks": 1932,
          "time": 2.719591875,
          "velocity": 0.4566929133858268
        },
        {
          "duration": 0.01970718749999989,
          "durationTicks": 14,
          "midi": 69,
          "name": "A4",
          "ticks": 2056,
          "time": 2.89414125,
          "velocity": 0.3779527559055118
        },
        {
          "duration": 0.01689187499999978,
          "durationTicks": 12,
          "midi": 42,
          "name": "F#2",
          "ticks": 2188,
          "time": 3.0799518750000003,
          "velocity": 0.4566929133858268
        },
        {
          "duration": 0.014076562500000112,
          "durationTicks": 10,
          "midi": 69,
          "name": "A4",
          "ticks": 2318,
          "time": 3.2629471875,
          "velocity": 0.3779527559055118
        },
        {
          "duration": 0.016891875000000223,
          "durationTicks": 12,
          "midi": 42,
          "name": "F#2",
          "ticks": 2444,
          "time": 3.440311875,
          "velocity": 0.4566929133858268
        },
        {
          "duration": 0.0225225,
          "durationTicks": 16,
          "midi": 69,
          "name": "A4",
          "ticks": 2568,
          "time": 3.61486125,
          "velocity": 0.3779527559055118
        },
        {
          "duration": 0.019707187500000334,
          "durationTicks": 14,
          "midi": 42,
          "name": "F#2",
          "ticks": 2696,
          "time": 3.79504125,
          "velocity": 0.4566929133858268
        },
        {
          "duration": 0.014076562500000112,
          "durationTicks": 10,
          "midi": 69,
          "name": "A4",
          "ticks": 2828,
          "time": 3.980851875,
          "velocity": 0.3779527559055118
        },
        {
          "duration": 0.014076562499999667,
          "durationTicks": 10,
          "midi": 42,
          "name": "F#2",
          "ticks": 2956,
          "time": 4.161031875,
          "velocity": 0.4566929133858268
        },
        {
          "duration": 0.014076562499999667,
          "durationTicks": 10,
          "midi": 69,
          "name": "A4",
          "ticks": 3086,
          "time": 4.3440271875,
          "velocity": 0.3779527559055118
        },
        {
          "duration": 0.014076562499999667,
          "durationTicks": 10,
          "midi": 42,
          "name": "F#2",
          "ticks": 3212,
          "time": 4.521391875000001,
          "velocity": 0.4566929133858268
        },
        {
          "duration": 0.025337812499999224,
          "durationTicks": 18,
          "midi": 69,
          "name": "A4",
          "ticks": 3336,
          "time": 4.695941250000001,
          "velocity": 0.3779527559055118
        },
        {
          "duration": 0.014076562499999667,
          "durationTicks": 10,
          "midi": 42,
          "name": "F#2",
          "ticks": 3470,
          "time": 4.8845671875,
          "velocity": 0.4566929133858268
        },
        {
          "duration": 0.02252250000000089,
          "durationTicks": 16,
          "midi": 69,
          "name": "A4",
          "ticks": 3592,
          "time": 5.05630125,
          "velocity": 0.3779527559055118
        },
        {
          "duration": 0.019707187499999,
          "durationTicks": 14,
          "midi": 42,
          "name": "F#2",
          "ticks": 3722,
          "time": 5.239296562500001,
          "velocity": 0.4566929133858268
        },
        {
          "duration": 0.022522499999999113,
          "durationTicks": 16,
          "midi": 69,
          "name": "A4",
          "ticks": 3848,
          "time": 5.416661250000001,
          "velocity": 0.3779527559055118
        },
        {
          "duration": 0.02252250000000089,
          "durationTicks": 16,
          "midi": 42,
          "name": "F#2",
          "ticks": 3976,
          "time": 5.59684125,
          "velocity": 0.4566929133858268
        },
        {
          "duration": 0.01970718749999989,
          "durationTicks": 14,
          "midi": 69,
          "name": "A4",
          "ticks": 4104,
          "time": 5.777021250000001,
          "velocity": 0.3779527559055118
        },
        {
          "duration": 0.022522499999999113,
          "durationTicks": 16,
          "midi": 42,
          "name": "F#2",
          "ticks": 4232,
          "time": 5.957201250000001,
          "velocity": 0.4566929133858268
        },
        {
          "duration": 0.014076562500000556,
          "durationTicks": 10,
          "midi": 69,
          "name": "A4",
          "ticks": 4366,
          "time": 6.1458271875,
          "velocity": 0.3779527559055118
        },
        {
          "duration": 0.01689187499999978,
          "durationTicks": 12,
          "midi": 42,
          "name": "F#2",
          "ticks": 4492,
          "time": 6.323191875,
          "velocity": 0.4566929133858268
        },
        {
          "duration": 0.025337812500000112,
          "durationTicks": 18,
          "midi": 69,
          "name": "A4",
          "ticks": 4616,
          "time": 6.497741250000001,
          "velocity": 0.3779527559055118
        },
        {
          "duration": 0.019707187499999,
          "durationTicks": 14,
          "midi": 42,
          "name": "F#2",
          "ticks": 4748,
          "time": 6.683551875000001,
          "velocity": 0.4566929133858268
        },
        {
          "duration": 0.01689187499999978,
          "durationTicks": 12,
          "midi": 69,
          "name": "A4",
          "ticks": 4876,
          "time": 6.863731875,
          "velocity": 0.3779527559055118
        },
        {
          "duration": 0.01689187499999978,
          "durationTicks": 12,
          "midi": 42,
          "name": "F#2",
          "ticks": 5004,
          "time": 7.043911875,
          "velocity": 0.4566929133858268
        },
        {
          "duration": 0.025337812500000112,
          "durationTicks": 18,
          "midi": 69,
          "name": "A4",
          "ticks": 5128,
          "time": 7.21846125,
          "velocity": 0.3779527559055118
        },
        {
          "duration": 0.01970718749999989,
          "durationTicks": 14,
          "midi": 42,
          "name": "F#2",
          "ticks": 5256,
          "time": 7.398641250000001,
          "velocity": 0.4566929133858268
        },
        {
          "duration": 0.014076562499999667,
          "durationTicks": 10,
          "midi": 69,
          "name": "A4",
          "ticks": 5390,
          "time": 7.5872671875,
          "velocity": 0.3779527559055118
        },
        {
          "duration": 0.014076562499999667,
          "durationTicks": 10,
          "midi": 42,
          "name": "F#2",
          "ticks": 5516,
          "time": 7.764631875000001,
          "velocity": 0.4566929133858268
        },
        {
          "duration": 0.01970718749999989,
          "durationTicks": 14,
          "midi": 69,
          "name": "A4",
          "ticks": 5640,
          "time": 7.939181250000001,
          "velocity": 0.3779527559055118
        },
        {
          "duration": 0.014076562499999667,
          "durationTicks": 10,
          "midi": 42,
          "name": "F#2",
          "ticks": 5772,
          "time": 8.124991875000001,
          "velocity": 0.4566929133858268
        },
        {
          "duration": 0.01689187499999889,
          "durationTicks": 12,
          "midi": 69,
          "name": "A4",
          "ticks": 5900,
          "time": 8.305171875000001,
          "velocity": 0.3779527559055118
        },
        {
          "duration": 0.014076562500001444,
          "durationTicks": 10,
          "midi": 42,
          "name": "F#2",
          "ticks": 6028,
          "time": 8.485351875,
          "velocity": 0.4566929133858268
        },
        {
          "duration": 0.014076562499999667,
          "durationTicks": 10,
          "midi": 69,
          "name": "A4",
          "ticks": 6158,
          "time": 8.6683471875,
          "velocity": 0.3779527559055118
        },
        {
          "duration": 0.016891875000000667,
          "durationTicks": 12,
          "midi": 42,
          "name": "F#2",
          "ticks": 6286,
          "time": 8.8485271875,
          "velocity": 0.4566929133858268
        },
        {
          "duration": 0.011261249999998668,
          "durationTicks": 8,
          "midi": 69,
          "name": "A4",
          "ticks": 6414,
          "time": 9.0287071875,
          "velocity": 0.3779527559055118
        },
        {
          "duration": 0.019707187500001666,
          "durationTicks": 14,
          "midi": 42,
          "name": "F#2",
          "ticks": 6536,
          "time": 9.200441249999999,
          "velocity": 0.4566929133858268
        },
        {
          "duration": 0.016891875000000667,
          "durationTicks": 12,
          "midi": 69,
          "name": "A4",
          "ticks": 6666,
          "time": 9.3834365625,
          "velocity": 0.3779527559055118
        },
        {
          "duration": 0.019707187500001666,
          "durationTicks": 14,
          "midi": 42,
          "name": "F#2",
          "ticks": 6794,
          "time": 9.5636165625,
          "velocity": 0.4566929133858268
        },
        {
          "duration": 0.025337812500000112,
          "durationTicks": 18,
          "midi": 69,
          "name": "A4",
          "ticks": 6920,
          "time": 9.740981249999999,
          "velocity": 0.3779527559055118
        },
        {
          "duration": 0.025337812500000112,
          "durationTicks": 18,
          "midi": 48,
          "name": "C3",
          "ticks": 6920,
          "time": 9.740981249999999,
          "velocity": 0.7244094488188977
        },
        {
          "duration": 0.016891875000000667,
          "durationTicks": 12,
          "midi": 42,
          "name": "F#2",
          "ticks": 7052,
          "time": 9.926791875,
          "velocity": 0.4566929133858268
        },
        {
          "duration": 0.016891875000000667,
          "durationTicks": 12,
          "midi": 48,
          "name": "C3",
          "ticks": 7052,
          "time": 9.926791875,
          "velocity": 0.5984251968503937
        },
        {
          "duration": 0.016891875000000667,
          "durationTicks": 12,
          "midi": 69,
          "name": "A4",
          "ticks": 7180,
          "time": 10.106971875000001,
          "velocity": 0.3779527559055118
        },
        {
          "duration": 0.019707187499998113,
          "durationTicks": 14,
          "midi": 42,
          "name": "F#2",
          "ticks": 7308,
          "time": 10.287151875000001,
          "velocity": 0.4566929133858268
        },
        {
          "duration": 0.019707187499998113,
          "durationTicks": 14,
          "midi": 48,
          "name": "C3",
          "ticks": 7308,
          "time": 10.287151875000001,
          "velocity": 0.7244094488188977
        },
        {
          "duration": 0.008445937499999445,
          "durationTicks": 6,
          "midi": 69,
          "name": "A4",
          "ticks": 7442,
          "time": 10.4757778125,
          "velocity": 0.3779527559055118
        },
        {
          "duration": 0.008445937499999445,
          "durationTicks": 6,
          "midi": 48,
          "name": "C3",
          "ticks": 7442,
          "time": 10.4757778125,
          "velocity": 0.5984251968503937
        },
        {
          "duration": 0.016891875000000667,
          "durationTicks": 12,
          "midi": 42,
          "name": "F#2",
          "ticks": 7566,
          "time": 10.6503271875,
          "velocity": 0.4566929133858268
        },
        {
          "duration": 0.016891875000000667,
          "durationTicks": 12,
          "midi": 56,
          "name": "G#3",
          "ticks": 7566,
          "time": 10.6503271875,
          "velocity": 0.9448818897637795
        },
        {
          "duration": 0.016891875000000667,
          "durationTicks": 12,
          "midi": 35,
          "name": "B1",
          "ticks": 7566,
          "time": 10.6503271875,
          "velocity": 0.8267716535433071
        },
        {
          "duration": 0.022522499999999113,
          "durationTicks": 16,
          "midi": 69,
          "name": "A4",
          "ticks": 7692,
          "time": 10.827691875000001,
          "velocity": 0.4094488188976378
        },
        {
          "duration": 0.022522499999999113,
          "durationTicks": 16,
          "midi": 35,
          "name": "B1",
          "ticks": 7692,
          "time": 10.827691875000001,
          "velocity": 0.889763779527559
        },
        {
          "duration": 0.02252250000000089,
          "durationTicks": 16,
          "midi": 42,
          "name": "F#2",
          "ticks": 7818,
          "time": 11.0050565625,
          "velocity": 0.4881889763779528
        },
        {
          "duration": 0.02252250000000089,
          "durationTicks": 16,
          "midi": 70,
          "name": "A#4",
          "ticks": 7818,
          "time": 11.0050565625,
          "velocity": 0.7874015748031497
        },
        {
          "duration": 0.01970718749999989,
          "durationTicks": 14,
          "midi": 69,
          "name": "A4",
          "ticks": 7948,
          "time": 11.188051875000001,
          "velocity": 0.4094488188976378
        },
        {
          "duration": 0.01970718749999989,
          "durationTicks": 14,
          "midi": 35,
          "name": "B1",
          "ticks": 7948,
          "time": 11.188051875000001,
          "velocity": 0.7637795275590551
        },
        {
          "duration": 0.022522499999999113,
          "durationTicks": 16,
          "midi": 42,
          "name": "F#2",
          "ticks": 8076,
          "time": 11.368231875000001,
          "velocity": 0.4881889763779528
        },
        {
          "duration": 0.022522499999999113,
          "durationTicks": 16,
          "midi": 70,
          "name": "A#4",
          "ticks": 8076,
          "time": 11.368231875000001,
          "velocity": 0.8188976377952756
        },
        {
          "duration": 0.022522499999999113,
          "durationTicks": 16,
          "midi": 48,
          "name": "C3",
          "ticks": 8076,
          "time": 11.368231875000001,
          "velocity": 0.9448818897637795
        },
        {
          "duration": 0.01970718749999989,
          "durationTicks": 14,
          "midi": 69,
          "name": "A4",
          "ticks": 8200,
          "time": 11.54278125,
          "velocity": 0.4094488188976378
        },
        {
          "duration": 0.001407656250002276,
          "durationTicks": 1,
          "midi": 42,
          "name": "F#2",
          "ticks": 8342,
          "time": 11.742668437499999,
          "velocity": 0.4881889763779528
        },
        {
          "duration": 0.001407656250002276,
          "durationTicks": 1,
          "midi": 70,
          "name": "A#4",
          "ticks": 8342,
          "time": 11.742668437499999,
          "velocity": 0.8503937007874016
        },
        {
          "duration": 0.001407656250002276,
          "durationTicks": 1,
          "midi": 45,
          "name": "A2",
          "ticks": 8342,
          "time": 11.742668437499999,
          "velocity": 0.3779527559055118
        },
        {
          "duration": 0.019707187499998113,
          "durationTicks": 14,
          "midi": 69,
          "name": "A4",
          "ticks": 8460,
          "time": 11.908771875000001,
          "velocity": 0.4094488188976378
        },
        {
          "duration": 0.019707187499998113,
          "durationTicks": 14,
          "midi": 35,
          "name": "B1",
          "ticks": 8460,
          "time": 11.908771875000001,
          "velocity": 0.889763779527559
        },
        {
          "duration": 0.019707187499998113,
          "durationTicks": 14,
          "midi": 45,
          "name": "A2",
          "ticks": 8460,
          "time": 11.908771875000001,
          "velocity": 0.3464566929133858
        },
        {
          "duration": 0.025337812500000112,
          "durationTicks": 18,
          "midi": 42,
          "name": "F#2",
          "ticks": 8586,
          "time": 12.0861365625,
          "velocity": 0.4881889763779528
        },
        {
          "duration": 0.025337812500000112,
          "durationTicks": 18,
          "midi": 70,
          "name": "A#4",
          "ticks": 8586,
          "time": 12.0861365625,
          "velocity": 0.7874015748031497
        },
        {
          "duration": 0.016891875000000667,
          "durationTicks": 12,
          "midi": 69,
          "name": "A4",
          "ticks": 8716,
          "time": 12.269131875000001,
          "velocity": 0.4094488188976378
        },
        {
          "duration": 0.016891875000000667,
          "durationTicks": 12,
          "midi": 35,
          "name": "B1",
          "ticks": 8716,
          "time": 12.269131875000001,
          "velocity": 0.8267716535433071
        },
        {
          "duration": 0.019707187499998113,
          "durationTicks": 14,
          "midi": 42,
          "name": "F#2",
          "ticks": 8844,
          "time": 12.449311875000001,
          "velocity": 0.4881889763779528
        },
        {
          "duration": 0.019707187499998113,
          "durationTicks": 14,
          "midi": 70,
          "name": "A#4",
          "ticks": 8844,
          "time": 12.449311875000001,
          "velocity": 0.8188976377952756
        },
        {
          "duration": 0.019707187499998113,
          "durationTicks": 14,
          "midi": 48,
          "name": "C3",
          "ticks": 8844,
          "time": 12.449311875000001,
          "velocity": 0.8818897637795275
        },
        {
          "duration": 0.016891875000000667,
          "durationTicks": 12,
          "midi": 69,
          "name": "A4",
          "ticks": 8972,
          "time": 12.629491875,
          "velocity": 0.4094488188976378
        },
        {
          "duration": 0.014076562500001444,
          "durationTicks": 10,
          "midi": 42,
          "name": "F#2",
          "ticks": 9102,
          "time": 12.8124871875,
          "velocity": 0.4881889763779528
        },
        {
          "duration": 0.014076562500001444,
          "durationTicks": 10,
          "midi": 70,
          "name": "A#4",
          "ticks": 9102,
          "time": 12.8124871875,
          "velocity": 0.8503937007874016
        },
        {
          "duration": 0.014076562500001444,
          "durationTicks": 10,
          "midi": 45,
          "name": "A2",
          "ticks": 9102,
          "time": 12.8124871875,
          "velocity": 0.4094488188976378
        },
        {
          "duration": 0.02252250000000089,
          "durationTicks": 16,
          "midi": 69,
          "name": "A4",
          "ticks": 9224,
          "time": 12.98422125,
          "velocity": 0.4094488188976378
        },
        {
          "duration": 0.02252250000000089,
          "durationTicks": 16,
          "midi": 35,
          "name": "B1",
          "ticks": 9224,
          "time": 12.98422125,
          "velocity": 0.889763779527559
        },
        {
          "duration": 0.02252250000000089,
          "durationTicks": 16,
          "midi": 45,
          "name": "A2",
          "ticks": 9224,
          "time": 12.98422125,
          "velocity": 0.3779527559055118
        },
        {
          "duration": 0.028153124999999335,
          "durationTicks": 20,
          "midi": 42,
          "name": "F#2",
          "ticks": 9352,
          "time": 13.164401250000001,
          "velocity": 0.4881889763779528
        },
        {
          "duration": 0.028153124999999335,
          "durationTicks": 20,
          "midi": 70,
          "name": "A#4",
          "ticks": 9352,
          "time": 13.164401250000001,
          "velocity": 0.7874015748031497
        },
        {
          "duration": 0.01970718749999989,
          "durationTicks": 14,
          "midi": 69,
          "name": "A4",
          "ticks": 9484,
          "time": 13.350211875000001,
          "velocity": 0.4094488188976378
        },
        {
          "duration": 0.01970718749999989,
          "durationTicks": 14,
          "midi": 35,
          "name": "B1",
          "ticks": 9484,
          "time": 13.350211875000001,
          "velocity": 0.7637795275590551
        },
        {
          "duration": 0.019707187499998113,
          "durationTicks": 14,
          "midi": 42,
          "name": "F#2",
          "ticks": 9612,
          "time": 13.530391875000001,
          "velocity": 0.4881889763779528
        },
        {
          "duration": 0.01689187499999889,
          "durationTicks": 12,
          "midi": 70,
          "name": "A#4",
          "ticks": 9614,
          "time": 13.5332071875,
          "velocity": 0.8188976377952756
        },
        {
          "duration": 0.01689187499999889,
          "durationTicks": 12,
          "midi": 48,
          "name": "C3",
          "ticks": 9614,
          "time": 13.5332071875,
          "velocity": 0.9448818897637795
        },
        {
          "duration": 0.01970718749999989,
          "durationTicks": 14,
          "midi": 69,
          "name": "A4",
          "ticks": 9738,
          "time": 13.7077565625,
          "velocity": 0.4094488188976378
        },
        {
          "duration": 0.014076562500001444,
          "durationTicks": 10,
          "midi": 42,
          "name": "F#2",
          "ticks": 9870,
          "time": 13.8935671875,
          "velocity": 0.4881889763779528
        },
        {
          "duration": 0.014076562500001444,
          "durationTicks": 10,
          "midi": 70,
          "name": "A#4",
          "ticks": 9870,
          "time": 13.8935671875,
          "velocity": 0.8503937007874016
        },
        {
          "duration": 0.014076562500001444,
          "durationTicks": 10,
          "midi": 45,
          "name": "A2",
          "ticks": 9870,
          "time": 13.8935671875,
          "velocity": 0.4094488188976378
        },
        {
          "duration": 0.019707187499998113,
          "durationTicks": 14,
          "midi": 69,
          "name": "A4",
          "ticks": 9996,
          "time": 14.070931875000001,
          "velocity": 0.4094488188976378
        },
        {
          "duration": 0.019707187499998113,
          "durationTicks": 14,
          "midi": 35,
          "name": "B1",
          "ticks": 9996,
          "time": 14.070931875000001,
          "velocity": 0.889763779527559
        },
        {
          "duration": 0.019707187499998113,
          "durationTicks": 14,
          "midi": 45,
          "name": "A2",
          "ticks": 9996,
          "time": 14.070931875000001,
          "velocity": 0.3779527559055118
        },
        {
          "duration": 0.019707187500001666,
          "durationTicks": 14,
          "midi": 42,
          "name": "F#2",
          "ticks": 10124,
          "time": 14.251111875,
          "velocity": 0.4881889763779528
        },
        {
          "duration": 0.019707187500001666,
          "durationTicks": 14,
          "midi": 70,
          "name": "A#4",
          "ticks": 10124,
          "time": 14.251111875,
          "velocity": 0.7874015748031497
        },
        {
          "duration": 0.02252250000000089,
          "durationTicks": 16,
          "midi": 35,
          "name": "B1",
          "ticks": 10248,
          "time": 14.425661250000001,
          "velocity": 0.8267716535433071
        },
        {
          "duration": 0.02252250000000089,
          "durationTicks": 16,
          "midi": 69,
          "name": "A4",
          "ticks": 10248,
          "time": 14.425661250000001,
          "velocity": 0.4094488188976378
        },
        {
          "duration": 0.019707187499998113,
          "durationTicks": 14,
          "midi": 42,
          "name": "F#2",
          "ticks": 10378,
          "time": 14.608656562500002,
          "velocity": 0.4881889763779528
        },
        {
          "duration": 0.019707187499998113,
          "durationTicks": 14,
          "midi": 70,
          "name": "A#4",
          "ticks": 10378,
          "time": 14.608656562500002,
          "velocity": 0.8188976377952756
        },
        {
          "duration": 0.019707187499998113,
          "durationTicks": 14,
          "midi": 48,
          "name": "C3",
          "ticks": 10378,
          "time": 14.608656562500002,
          "velocity": 0.8818897637795275
        },
        {
          "duration": 0.025337812500000112,
          "durationTicks": 18,
          "midi": 69,
          "name": "A4",
          "ticks": 10504,
          "time": 14.786021250000001,
          "velocity": 0.4094488188976378
        },
        {
          "duration": 0.016891875000000667,
          "durationTicks": 12,
          "midi": 42,
          "name": "F#2",
          "ticks": 10638,
          "time": 14.9746471875,
          "velocity": 0.4881889763779528
        },
        {
          "duration": 0.016891875000000667,
          "durationTicks": 12,
          "midi": 70,
          "name": "A#4",
          "ticks": 10638,
          "time": 14.9746471875,
          "velocity": 0.8503937007874016
        },
        {
          "duration": 0.016891875000000667,
          "durationTicks": 12,
          "midi": 45,
          "name": "A2",
          "ticks": 10638,
          "time": 14.9746471875,
          "velocity": 0.4094488188976378
        },
        {
          "duration": 0.0014076562499987233,
          "durationTicks": 1,
          "midi": 69,
          "name": "A4",
          "ticks": 10774,
          "time": 15.166088437500001,
          "velocity": 0.4094488188976378
        },
        {
          "duration": 0.0014076562499987233,
          "durationTicks": 1,
          "midi": 35,
          "name": "B1",
          "ticks": 10774,
          "time": 15.166088437500001,
          "velocity": 0.889763779527559
        },
        {
          "duration": 0.0014076562499987233,
          "durationTicks": 1,
          "midi": 45,
          "name": "A2",
          "ticks": 10774,
          "time": 15.166088437500001,
          "velocity": 0.3779527559055118
        },
        {
          "duration": 0.016891875000000667,
          "durationTicks": 12,
          "midi": 42,
          "name": "F#2",
          "ticks": 10892,
          "time": 15.332191875,
          "velocity": 0.4881889763779528
        },
        {
          "duration": 0.016891875000000667,
          "durationTicks": 12,
          "midi": 70,
          "name": "A#4",
          "ticks": 10892,
          "time": 15.332191875,
          "velocity": 0.7874015748031497
        },
        {
          "duration": 0.014076562500001444,
          "durationTicks": 10,
          "midi": 69,
          "name": "A4",
          "ticks": 11022,
          "time": 15.5151871875,
          "velocity": 0.4094488188976378
        },
        {
          "duration": 0.014076562500001444,
          "durationTicks": 10,
          "midi": 35,
          "name": "B1",
          "ticks": 11022,
          "time": 15.5151871875,
          "velocity": 0.7637795275590551
        },
        {
          "duration": 0.01689187499999889,
          "durationTicks": 12,
          "midi": 42,
          "name": "F#2",
          "ticks": 11148,
          "time": 15.692551875000001,
          "velocity": 0.4881889763779528
        },
        {
          "duration": 0.01689187499999889,
          "durationTicks": 12,
          "midi": 70,
          "name": "A#4",
          "ticks": 11148,
          "time": 15.692551875000001,
          "velocity": 0.8188976377952756
        },
        {
          "duration": 0.01689187499999889,
          "durationTicks": 12,
          "midi": 48,
          "name": "C3",
          "ticks": 11148,
          "time": 15.692551875000001,
          "velocity": 0.9448818897637795
        },
        {
          "duration": 0.01970718749999989,
          "durationTicks": 14,
          "midi": 69,
          "name": "A4",
          "ticks": 11272,
          "time": 15.867101250000001,
          "velocity": 0.4094488188976378
        },
        {
          "duration": 0.033783750000001334,
          "durationTicks": 24,
          "midi": 42,
          "name": "F#2",
          "ticks": 11402,
          "time": 16.0500965625,
          "velocity": 0.4881889763779528
        },
        {
          "duration": 0.033783750000001334,
          "durationTicks": 24,
          "midi": 70,
          "name": "A#4",
          "ticks": 11402,
          "time": 16.0500965625,
          "velocity": 0.8503937007874016
        },
        {
          "duration": 0.033783750000001334,
          "durationTicks": 24,
          "midi": 45,
          "name": "A2",
          "ticks": 11402,
          "time": 16.0500965625,
          "velocity": 0.4094488188976378
        },
        {
          "duration": 0.01970718749999989,
          "durationTicks": 14,
          "midi": 69,
          "name": "A4",
          "ticks": 11532,
          "time": 16.233091875,
          "velocity": 0.4094488188976378
        },
        {
          "duration": 0.01970718749999989,
          "durationTicks": 14,
          "midi": 35,
          "name": "B1",
          "ticks": 11532,
          "time": 16.233091875,
          "velocity": 0.889763779527559
        },
        {
          "duration": 0.01970718749999989,
          "durationTicks": 14,
          "midi": 45,
          "name": "A2",
          "ticks": 11532,
          "time": 16.233091875,
          "velocity": 0.3779527559055118
        },
        {
          "duration": 0.019707187500003442,
          "durationTicks": 14,
          "midi": 42,
          "name": "F#2",
          "ticks": 11660,
          "time": 16.413271875,
          "velocity": 0.4881889763779528
        },
        {
          "duration": 0.019707187500003442,
          "durationTicks": 14,
          "midi": 70,
          "name": "A#4",
          "ticks": 11660,
          "time": 16.413271875,
          "velocity": 0.7874015748031497
        },
        {
          "duration": 0.025337812499998336,
          "durationTicks": 18,
          "midi": 35,
          "name": "B1",
          "ticks": 11784,
          "time": 16.58782125,
          "velocity": 0.8267716535433071
        },
        {
          "duration": 0.025337812499998336,
          "durationTicks": 18,
          "midi": 69,
          "name": "A4",
          "ticks": 11784,
          "time": 16.58782125,
          "velocity": 0.4094488188976378
        },
        {
          "duration": 0.014076562499997891,
          "durationTicks": 10,
          "midi": 42,
          "name": "F#2",
          "ticks": 11920,
          "time": 16.7792625,
          "velocity": 0.4881889763779528
        },
        {
          "duration": 0.014076562499997891,
          "durationTicks": 10,
          "midi": 70,
          "name": "A#4",
          "ticks": 11920,
          "time": 16.7792625,
          "velocity": 0.8188976377952756
        },
        {
          "duration": 0.014076562499997891,
          "durationTicks": 10,
          "midi": 48,
          "name": "C3",
          "ticks": 11920,
          "time": 16.7792625,
          "velocity": 0.8818897637795275
        },
        {
          "duration": 0.02252250000000089,
          "durationTicks": 16,
          "midi": 69,
          "name": "A4",
          "ticks": 12042,
          "time": 16.950996562500002,
          "velocity": 0.4094488188976378
        },
        {
          "duration": 0.01970718749999989,
          "durationTicks": 14,
          "midi": 42,
          "name": "F#2",
          "ticks": 12172,
          "time": 17.133991875,
          "velocity": 0.4881889763779528
        },
        {
          "duration": 0.01970718749999989,
          "durationTicks": 14,
          "midi": 70,
          "name": "A#4",
          "ticks": 12172,
          "time": 17.133991875,
          "velocity": 0.8503937007874016
        },
        {
          "duration": 0.01970718749999989,
          "durationTicks": 14,
          "midi": 45,
          "name": "A2",
          "ticks": 12172,
          "time": 17.133991875,
          "velocity": 0.4094488188976378
        },
        {
          "duration": 0.014076562500001444,
          "durationTicks": 10,
          "midi": 69,
          "name": "A4",
          "ticks": 12302,
          "time": 17.3169871875,
          "velocity": 0.4094488188976378
        },
        {
          "duration": 0.014076562500001444,
          "durationTicks": 10,
          "midi": 35,
          "name": "B1",
          "ticks": 12302,
          "time": 17.3169871875,
          "velocity": 0.889763779527559
        },
        {
          "duration": 0.014076562500001444,
          "durationTicks": 10,
          "midi": 45,
          "name": "A2",
          "ticks": 12302,
          "time": 17.3169871875,
          "velocity": 0.3779527559055118
        },
        {
          "duration": 0.01689187499999889,
          "durationTicks": 12,
          "midi": 42,
          "name": "F#2",
          "ticks": 12430,
          "time": 17.4971671875,
          "velocity": 0.4881889763779528
        },
        {
          "duration": 0.01689187499999889,
          "durationTicks": 12,
          "midi": 70,
          "name": "A#4",
          "ticks": 12430,
          "time": 17.4971671875,
          "velocity": 0.7874015748031497
        },
        {
          "duration": 0.01689187499999889,
          "durationTicks": 12,
          "midi": 69,
          "name": "A4",
          "ticks": 12558,
          "time": 17.6773471875,
          "velocity": 0.4094488188976378
        },
        {
          "duration": 0.01689187499999889,
          "durationTicks": 12,
          "midi": 35,
          "name": "B1",
          "ticks": 12558,
          "time": 17.6773471875,
          "velocity": 0.7637795275590551
        },
        {
          "duration": 0.011261250000003997,
          "durationTicks": 8,
          "midi": 42,
          "name": "F#2",
          "ticks": 12688,
          "time": 17.860342499999998,
          "velocity": 0.4881889763779528
        },
        {
          "duration": 0.011261250000003997,
          "durationTicks": 8,
          "midi": 70,
          "name": "A#4",
          "ticks": 12688,
          "time": 17.860342499999998,
          "velocity": 0.8188976377952756
        },
        {
          "duration": 0.011261250000003997,
          "durationTicks": 8,
          "midi": 48,
          "name": "C3",
          "ticks": 12688,
          "time": 17.860342499999998,
          "velocity": 0.9448818897637795
        },
        {
          "duration": 0.022522499999997336,
          "durationTicks": 16,
          "midi": 69,
          "name": "A4",
          "ticks": 12810,
          "time": 18.032076562500002,
          "velocity": 0.4094488188976378
        },
        {
          "duration": 0.022522499999997336,
          "durationTicks": 16,
          "midi": 45,
          "name": "A2",
          "ticks": 12936,
          "time": 18.20944125,
          "velocity": 0.4094488188976378
        },
        {
          "duration": 0.022522499999997336,
          "durationTicks": 16,
          "midi": 70,
          "name": "A#4",
          "ticks": 12936,
          "time": 18.20944125,
          "velocity": 0.8503937007874016
        },
        {
          "duration": 0.022522499999997336,
          "durationTicks": 16,
          "midi": 42,
          "name": "F#2",
          "ticks": 12936,
          "time": 18.20944125,
          "velocity": 0.4881889763779528
        },
        {
          "duration": 0.02252250000000089,
          "durationTicks": 16,
          "midi": 69,
          "name": "A4",
          "ticks": 13068,
          "time": 18.395251875,
          "velocity": 0.4094488188976378
        },
        {
          "duration": 0.02252250000000089,
          "durationTicks": 16,
          "midi": 35,
          "name": "B1",
          "ticks": 13068,
          "time": 18.395251875,
          "velocity": 0.889763779527559
        },
        {
          "duration": 0.02252250000000089,
          "durationTicks": 16,
          "midi": 45,
          "name": "A2",
          "ticks": 13068,
          "time": 18.395251875,
          "velocity": 0.3779527559055118
        },
        {
          "duration": 0.01689187499999889,
          "durationTicks": 12,
          "midi": 42,
          "name": "F#2",
          "ticks": 13196,
          "time": 18.575431875000003,
          "velocity": 0.4881889763779528
        },
        {
          "duration": 0.01689187499999889,
          "durationTicks": 12,
          "midi": 70,
          "name": "A#4",
          "ticks": 13196,
          "time": 18.575431875000003,
          "velocity": 0.7874015748031497
        },
        {
          "duration": 0.022522499999997336,
          "durationTicks": 16,
          "midi": 35,
          "name": "B1",
          "ticks": 13320,
          "time": 18.74998125,
          "velocity": 0.8267716535433071
        },
        {
          "duration": 0.022522499999997336,
          "durationTicks": 16,
          "midi": 69,
          "name": "A4",
          "ticks": 13320,
          "time": 18.74998125,
          "velocity": 0.4094488188976378
        },
        {
          "duration": 0.02533781250000189,
          "durationTicks": 18,
          "midi": 42,
          "name": "F#2",
          "ticks": 13448,
          "time": 18.93016125,
          "velocity": 0.4881889763779528
        },
        {
          "duration": 0.02533781250000189,
          "durationTicks": 18,
          "midi": 70,
          "name": "A#4",
          "ticks": 13448,
          "time": 18.93016125,
          "velocity": 0.8188976377952756
        },
        {
          "duration": 0.02533781250000189,
          "durationTicks": 18,
          "midi": 48,
          "name": "C3",
          "ticks": 13448,
          "time": 18.93016125,
          "velocity": 0.8818897637795275
        },
        {
          "duration": 0.01689187499999889,
          "durationTicks": 12,
          "midi": 69,
          "name": "A4",
          "ticks": 13578,
          "time": 19.113156562500002,
          "velocity": 0.4094488188976378
        },
        {
          "duration": 0.01689187499999889,
          "durationTicks": 12,
          "midi": 42,
          "name": "F#2",
          "ticks": 13710,
          "time": 19.2989671875,
          "velocity": 0.4881889763779528
        },
        {
          "duration": 0.01689187499999889,
          "durationTicks": 12,
          "midi": 70,
          "name": "A#4",
          "ticks": 13710,
          "time": 19.2989671875,
          "velocity": 0.8503937007874016
        },
        {
          "duration": 0.01689187499999889,
          "durationTicks": 12,
          "midi": 45,
          "name": "A2",
          "ticks": 13710,
          "time": 19.2989671875,
          "velocity": 0.4094488188976378
        },
        {
          "duration": 0.0014076562499987233,
          "durationTicks": 1,
          "midi": 45,
          "name": "A2",
          "ticks": 13848,
          "time": 19.493223750000002,
          "velocity": 0.3779527559055118
        },
        {
          "duration": 0.0014076562499987233,
          "durationTicks": 1,
          "midi": 35,
          "name": "B1",
          "ticks": 13848,
          "time": 19.493223750000002,
          "velocity": 0.889763779527559
        },
        {
          "duration": 0.0014076562499987233,
          "durationTicks": 1,
          "midi": 69,
          "name": "A4",
          "ticks": 13848,
          "time": 19.493223750000002,
          "velocity": 0.4094488188976378
        },
        {
          "duration": 0.022522499999997336,
          "durationTicks": 16,
          "midi": 42,
          "name": "F#2",
          "ticks": 13962,
          "time": 19.653696562500002,
          "velocity": 0.4881889763779528
        },
        {
          "duration": 0.022522499999997336,
          "durationTicks": 16,
          "midi": 70,
          "name": "A#4",
          "ticks": 13962,
          "time": 19.653696562500002,
          "velocity": 0.7874015748031497
        },
        {
          "duration": 0.022522499999997336,
          "durationTicks": 16,
          "midi": 35,
          "name": "B1",
          "ticks": 14088,
          "time": 19.83106125,
          "velocity": 0.7637795275590551
        },
        {
          "duration": 0.022522499999997336,
          "durationTicks": 16,
          "midi": 69,
          "name": "A4",
          "ticks": 14088,
          "time": 19.83106125,
          "velocity": 0.4094488188976378
        },
        {
          "duration": 0.016891875000002443,
          "durationTicks": 12,
          "midi": 42,
          "name": "F#2",
          "ticks": 14220,
          "time": 20.016871875,
          "velocity": 0.4881889763779528
        },
        {
          "duration": 0.016891875000002443,
          "durationTicks": 12,
          "midi": 70,
          "name": "A#4",
          "ticks": 14220,
          "time": 20.016871875,
          "velocity": 0.8188976377952756
        },
        {
          "duration": 0.016891875000002443,
          "durationTicks": 12,
          "midi": 48,
          "name": "C3",
          "ticks": 14220,
          "time": 20.016871875,
          "velocity": 0.9448818897637795
        },
        {
          "duration": 0.01970718749999989,
          "durationTicks": 14,
          "midi": 69,
          "name": "A4",
          "ticks": 14346,
          "time": 20.194236562500002,
          "velocity": 0.4094488188976378
        },
        {
          "duration": 0.0014076562499987233,
          "durationTicks": 1,
          "midi": 42,
          "name": "F#2",
          "ticks": 14486,
          "time": 20.3913084375,
          "velocity": 0.4881889763779528
        },
        {
          "duration": 0.0014076562499987233,
          "durationTicks": 1,
          "midi": 70,
          "name": "A#4",
          "ticks": 14486,
          "time": 20.3913084375,
          "velocity": 0.8503937007874016
        },
        {
          "duration": 0.0014076562499987233,
          "durationTicks": 1,
          "midi": 45,
          "name": "A2",
          "ticks": 14486,
          "time": 20.3913084375,
          "velocity": 0.4094488188976378
        },
        {
          "duration": 0.016891875000002443,
          "durationTicks": 12,
          "midi": 69,
          "name": "A4",
          "ticks": 14606,
          "time": 20.5602271875,
          "velocity": 0.4094488188976378
        },
        {
          "duration": 0.016891875000002443,
          "durationTicks": 12,
          "midi": 35,
          "name": "B1",
          "ticks": 14606,
          "time": 20.5602271875,
          "velocity": 0.889763779527559
        },
        {
          "duration": 0.016891875000002443,
          "durationTicks": 12,
          "midi": 45,
          "name": "A2",
          "ticks": 14606,
          "time": 20.5602271875,
          "velocity": 0.3779527559055118
        },
        {
          "duration": 0.01689187499999889,
          "durationTicks": 12,
          "midi": 42,
          "name": "F#2",
          "ticks": 14732,
          "time": 20.737591875000003,
          "velocity": 0.4881889763779528
        },
        {
          "duration": 0.01689187499999889,
          "durationTicks": 12,
          "midi": 70,
          "name": "A#4",
          "ticks": 14732,
          "time": 20.737591875000003,
          "velocity": 0.7874015748031497
        },
        {
          "duration": 0.01689187499999889,
          "durationTicks": 12,
          "midi": 69,
          "name": "A4",
          "ticks": 14862,
          "time": 20.9205871875,
          "velocity": 0.4094488188976378
        },
        {
          "duration": 0.01689187499999889,
          "durationTicks": 12,
          "midi": 35,
          "name": "B1",
          "ticks": 14862,
          "time": 20.9205871875,
          "velocity": 0.8267716535433071
        },
        {
          "duration": 0.016891875000002443,
          "durationTicks": 12,
          "midi": 42,
          "name": "F#2",
          "ticks": 14990,
          "time": 21.1007671875,
          "velocity": 0.4881889763779528
        },
        {
          "duration": 0.016891875000002443,
          "durationTicks": 12,
          "midi": 70,
          "name": "A#4",
          "ticks": 14990,
          "time": 21.1007671875,
          "velocity": 0.8188976377952756
        },
        {
          "duration": 0.016891875000002443,
          "durationTicks": 12,
          "midi": 48,
          "name": "C3",
          "ticks": 14990,
          "time": 21.1007671875,
          "velocity": 0.8818897637795275
        },
        {
          "duration": 0.022522499999997336,
          "durationTicks": 16,
          "midi": 69,
          "name": "A4",
          "ticks": 15114,
          "time": 21.275316562500002,
          "velocity": 0.4094488188976378
        },
        {
          "duration": 0.025337812499998336,
          "durationTicks": 18,
          "midi": 45,
          "name": "A2",
          "ticks": 15240,
          "time": 21.45268125,
          "velocity": 0.4094488188976378
        },
        {
          "duration": 0.025337812499998336,
          "durationTicks": 18,
          "midi": 70,
          "name": "A#4",
          "ticks": 15240,
          "time": 21.45268125,
          "velocity": 0.8503937007874016
        },
        {
          "duration": 0.025337812499998336,
          "durationTicks": 18,
          "midi": 42,
          "name": "F#2",
          "ticks": 15240,
          "time": 21.45268125,
          "velocity": 0.4881889763779528
        },
        {
          "duration": 0.019707187500003442,
          "durationTicks": 14,
          "midi": 69,
          "name": "A4",
          "ticks": 15372,
          "time": 21.638491875,
          "velocity": 0.4094488188976378
        },
        {
          "duration": 0.019707187500003442,
          "durationTicks": 14,
          "midi": 35,
          "name": "B1",
          "ticks": 15372,
          "time": 21.638491875,
          "velocity": 0.889763779527559
        },
        {
          "duration": 0.019707187500003442,
          "durationTicks": 14,
          "midi": 45,
          "name": "A2",
          "ticks": 15372,
          "time": 21.638491875,
          "velocity": 0.3779527559055118
        },
        {
          "duration": 0.01689187499999889,
          "durationTicks": 12,
          "midi": 42,
          "name": "F#2",
          "ticks": 15500,
          "time": 21.818671875000003,
          "velocity": 0.4881889763779528
        },
        {
          "duration": 0.01689187499999889,
          "durationTicks": 12,
          "midi": 70,
          "name": "A#4",
          "ticks": 15500,
          "time": 21.818671875000003,
          "velocity": 0.7874015748031497
        },
        {
          "duration": 0.01689187499999889,
          "durationTicks": 12,
          "midi": 69,
          "name": "A4",
          "ticks": 15628,
          "time": 21.998851875,
          "velocity": 0.4094488188976378
        },
        {
          "duration": 0.01689187499999889,
          "durationTicks": 12,
          "midi": 35,
          "name": "B1",
          "ticks": 15628,
          "time": 21.998851875,
          "velocity": 0.7637795275590551
        },
        {
          "duration": 0.019707187500003442,
          "durationTicks": 14,
          "midi": 42,
          "name": "F#2",
          "ticks": 15754,
          "time": 22.1762165625,
          "velocity": 0.4881889763779528
        },
        {
          "duration": 0.019707187500003442,
          "durationTicks": 14,
          "midi": 70,
          "name": "A#4",
          "ticks": 15754,
          "time": 22.1762165625,
          "velocity": 0.8188976377952756
        },
        {
          "duration": 0.019707187500003442,
          "durationTicks": 14,
          "midi": 48,
          "name": "C3",
          "ticks": 15754,
          "time": 22.1762165625,
          "velocity": 0.9448818897637795
        },
        {
          "duration": 0.01970718749999989,
          "durationTicks": 14,
          "midi": 69,
          "name": "A4",
          "ticks": 15882,
          "time": 22.356396562500002,
          "velocity": 0.4094488188976378
        },
        {
          "duration": 0.025337812499998336,
          "durationTicks": 18,
          "midi": 45,
          "name": "A2",
          "ticks": 16008,
          "time": 22.53376125,
          "velocity": 0.4094488188976378
        },
        {
          "duration": 0.025337812499998336,
          "durationTicks": 18,
          "midi": 70,
          "name": "A#4",
          "ticks": 16008,
          "time": 22.53376125,
          "velocity": 0.8503937007874016
        },
        {
          "duration": 0.025337812499998336,
          "durationTicks": 18,
          "midi": 42,
          "name": "F#2",
          "ticks": 16008,
          "time": 22.53376125,
          "velocity": 0.4881889763779528
        },
        {
          "duration": 0.014076562500001444,
          "durationTicks": 10,
          "midi": 69,
          "name": "A4",
          "ticks": 16142,
          "time": 22.7223871875,
          "velocity": 0.4094488188976378
        },
        {
          "duration": 0.014076562500001444,
          "durationTicks": 10,
          "midi": 35,
          "name": "B1",
          "ticks": 16142,
          "time": 22.7223871875,
          "velocity": 0.889763779527559
        },
        {
          "duration": 0.014076562500001444,
          "durationTicks": 10,
          "midi": 45,
          "name": "A2",
          "ticks": 16142,
          "time": 22.7223871875,
          "velocity": 0.3779527559055118
        },
        {
          "duration": 0.014076562500001444,
          "durationTicks": 10,
          "midi": 42,
          "name": "F#2",
          "ticks": 16270,
          "time": 22.9025671875,
          "velocity": 0.4881889763779528
        },
        {
          "duration": 0.014076562500001444,
          "durationTicks": 10,
          "midi": 70,
          "name": "A#4",
          "ticks": 16270,
          "time": 22.9025671875,
          "velocity": 0.7874015748031497
        },
        {
          "duration": 0.025337812499998336,
          "durationTicks": 18,
          "midi": 35,
          "name": "B1",
          "ticks": 16392,
          "time": 23.07430125,
          "velocity": 0.8267716535433071
        },
        {
          "duration": 0.025337812499998336,
          "durationTicks": 18,
          "midi": 69,
          "name": "A4",
          "ticks": 16392,
          "time": 23.07430125,
          "velocity": 0.4094488188976378
        },
        {
          "duration": 0.019707187500003442,
          "durationTicks": 14,
          "midi": 42,
          "name": "F#2",
          "ticks": 16524,
          "time": 23.260111875,
          "velocity": 0.4881889763779528
        },
        {
          "duration": 0.019707187500003442,
          "durationTicks": 14,
          "midi": 70,
          "name": "A#4",
          "ticks": 16524,
          "time": 23.260111875,
          "velocity": 0.8188976377952756
        },
        {
          "duration": 0.019707187500003442,
          "durationTicks": 14,
          "midi": 48,
          "name": "C3",
          "ticks": 16524,
          "time": 23.260111875,
          "velocity": 0.8818897637795275
        },
        {
          "duration": 0.025337812499998336,
          "durationTicks": 18,
          "midi": 69,
          "name": "A4",
          "ticks": 16646,
          "time": 23.431845937500004,
          "velocity": 0.4094488188976378
        },
        {
          "duration": 0.022522499999997336,
          "durationTicks": 16,
          "midi": 45,
          "name": "A2",
          "ticks": 16776,
          "time": 23.61484125,
          "velocity": 0.4094488188976378
        },
        {
          "duration": 0.022522499999997336,
          "durationTicks": 16,
          "midi": 70,
          "name": "A#4",
          "ticks": 16776,
          "time": 23.61484125,
          "velocity": 0.8503937007874016
        },
        {
          "duration": 0.022522499999997336,
          "durationTicks": 16,
          "midi": 42,
          "name": "F#2",
          "ticks": 16776,
          "time": 23.61484125,
          "velocity": 0.4881889763779528
        },
        {
          "duration": 0.0014076562499987233,
          "durationTicks": 1,
          "midi": 69,
          "name": "A4",
          "ticks": 16920,
          "time": 23.817543750000002,
          "velocity": 0.4094488188976378
        },
        {
          "duration": 0.0014076562499987233,
          "durationTicks": 1,
          "midi": 35,
          "name": "B1",
          "ticks": 16920,
          "time": 23.817543750000002,
          "velocity": 0.889763779527559
        },
        {
          "duration": 0.0014076562499987233,
          "durationTicks": 1,
          "midi": 45,
          "name": "A2",
          "ticks": 16920,
          "time": 23.817543750000002,
          "velocity": 0.3779527559055118
        },
        {
          "duration": 0.01970718749999989,
          "durationTicks": 14,
          "midi": 42,
          "name": "F#2",
          "ticks": 17034,
          "time": 23.978016562500002,
          "velocity": 0.4881889763779528
        },
        {
          "duration": 0.01970718749999989,
          "durationTicks": 14,
          "midi": 70,
          "name": "A#4",
          "ticks": 17034,
          "time": 23.978016562500002,
          "velocity": 0.7874015748031497
        },
        {
          "duration": 0.01689187499999889,
          "durationTicks": 12,
          "midi": 69,
          "name": "A4",
          "ticks": 17166,
          "time": 24.1638271875,
          "velocity": 0.4094488188976378
        },
        {
          "duration": 0.01689187499999889,
          "durationTicks": 12,
          "midi": 35,
          "name": "B1",
          "ticks": 17166,
          "time": 24.1638271875,
          "velocity": 0.7637795275590551
        },
        {
          "duration": 0.014076562500001444,
          "durationTicks": 10,
          "midi": 42,
          "name": "F#2",
          "ticks": 17294,
          "time": 24.3440071875,
          "velocity": 0.4881889763779528
        },
        {
          "duration": 0.014076562500001444,
          "durationTicks": 10,
          "midi": 70,
          "name": "A#4",
          "ticks": 17294,
          "time": 24.3440071875,
          "velocity": 0.8188976377952756
        },
        {
          "duration": 0.014076562500001444,
          "durationTicks": 10,
          "midi": 48,
          "name": "C3",
          "ticks": 17294,
          "time": 24.3440071875,
          "velocity": 0.9448818897637795
        },
        {
          "duration": 0.01689187499999889,
          "durationTicks": 12,
          "midi": 69,
          "name": "A4",
          "ticks": 17420,
          "time": 24.521371875000003,
          "velocity": 0.4094488188976378
        },
        {
          "duration": 0.0014076562499987233,
          "durationTicks": 1,
          "midi": 42,
          "name": "F#2",
          "ticks": 17558,
          "time": 24.7156284375,
          "velocity": 0.4881889763779528
        },
        {
          "duration": 0.0014076562499987233,
          "durationTicks": 1,
          "midi": 70,
          "name": "A#4",
          "ticks": 17558,
          "time": 24.7156284375,
          "velocity": 0.8503937007874016
        },
        {
          "duration": 0.0014076562499987233,
          "durationTicks": 1,
          "midi": 45,
          "name": "A2",
          "ticks": 17558,
          "time": 24.7156284375,
          "velocity": 0.4094488188976378
        },
        {
          "duration": 0.01970718749999989,
          "durationTicks": 14,
          "midi": 69,
          "name": "A4",
          "ticks": 17678,
          "time": 24.8845471875,
          "velocity": 0.4094488188976378
        },
        {
          "duration": 0.01970718749999989,
          "durationTicks": 14,
          "midi": 35,
          "name": "B1",
          "ticks": 17678,
          "time": 24.8845471875,
          "velocity": 0.889763779527559
        },
        {
          "duration": 0.01970718749999989,
          "durationTicks": 14,
          "midi": 45,
          "name": "A2",
          "ticks": 17678,
          "time": 24.8845471875,
          "velocity": 0.3779527559055118
        },
        {
          "duration": 0.014076562500001444,
          "durationTicks": 10,
          "midi": 42,
          "name": "F#2",
          "ticks": 17806,
          "time": 25.0647271875,
          "velocity": 0.4881889763779528
        },
        {
          "duration": 0.014076562500001444,
          "durationTicks": 10,
          "midi": 70,
          "name": "A#4",
          "ticks": 17806,
          "time": 25.0647271875,
          "velocity": 0.7874015748031497
        },
        {
          "duration": 0.01689187499999889,
          "durationTicks": 12,
          "midi": 69,
          "name": "A4",
          "ticks": 17934,
          "time": 25.2449071875,
          "velocity": 0.4094488188976378
        },
        {
          "duration": 0.01689187499999889,
          "durationTicks": 12,
          "midi": 35,
          "name": "B1",
          "ticks": 17934,
          "time": 25.2449071875,
          "velocity": 0.8267716535433071
        },
        {
          "duration": 0.016891875000002443,
          "durationTicks": 12,
          "midi": 42,
          "name": "F#2",
          "ticks": 18060,
          "time": 25.422271875,
          "velocity": 0.4881889763779528
        },
        {
          "duration": 0.016891875000002443,
          "durationTicks": 12,
          "midi": 70,
          "name": "A#4",
          "ticks": 18060,
          "time": 25.422271875,
          "velocity": 0.8188976377952756
        },
        {
          "duration": 0.016891875000002443,
          "durationTicks": 12,
          "midi": 48,
          "name": "C3",
          "ticks": 18060,
          "time": 25.422271875,
          "velocity": 0.8818897637795275
        },
        {
          "duration": 0.01689187499999889,
          "durationTicks": 12,
          "midi": 69,
          "name": "A4",
          "ticks": 18188,
          "time": 25.602451875000003,
          "velocity": 0.4094488188976378
        },
        {
          "duration": 0.01689187499999889,
          "durationTicks": 12,
          "midi": 42,
          "name": "F#2",
          "ticks": 18318,
          "time": 25.7854471875,
          "velocity": 0.4881889763779528
        },
        {
          "duration": 0.01689187499999889,
          "durationTicks": 12,
          "midi": 70,
          "name": "A#4",
          "ticks": 18318,
          "time": 25.7854471875,
          "velocity": 0.8503937007874016
        },
        {
          "duration": 0.01689187499999889,
          "durationTicks": 12,
          "midi": 45,
          "name": "A2",
          "ticks": 18318,
          "time": 25.7854471875,
          "velocity": 0.4094488188976378
        },
        {
          "duration": 0.019707187500003442,
          "durationTicks": 14,
          "midi": 69,
          "name": "A4",
          "ticks": 18444,
          "time": 25.962811875,
          "velocity": 0.4094488188976378
        },
        {
          "duration": 0.019707187500003442,
          "durationTicks": 14,
          "midi": 35,
          "name": "B1",
          "ticks": 18444,
          "time": 25.962811875,
          "velocity": 0.889763779527559
        },
        {
          "duration": 0.019707187500003442,
          "durationTicks": 14,
          "midi": 45,
          "name": "A2",
          "ticks": 18444,
          "time": 25.962811875,
          "velocity": 0.3779527559055118
        },
        {
          "duration": 0.022522499999997336,
          "durationTicks": 16,
          "midi": 42,
          "name": "F#2",
          "ticks": 18570,
          "time": 26.140176562500002,
          "velocity": 0.4881889763779528
        },
        {
          "duration": 0.022522499999997336,
          "durationTicks": 16,
          "midi": 70,
          "name": "A#4",
          "ticks": 18570,
          "time": 26.140176562500002,
          "velocity": 0.7874015748031497
        },
        {
          "duration": 0.019707187499996337,
          "durationTicks": 14,
          "midi": 69,
          "name": "A4",
          "ticks": 18698,
          "time": 26.320356562500002,
          "velocity": 0.4094488188976378
        },
        {
          "duration": 0.019707187499996337,
          "durationTicks": 14,
          "midi": 35,
          "name": "B1",
          "ticks": 18698,
          "time": 26.320356562500002,
          "velocity": 0.7637795275590551
        },
        {
          "duration": 0.016891875000002443,
          "durationTicks": 12,
          "midi": 42,
          "name": "F#2",
          "ticks": 18828,
          "time": 26.503351875,
          "velocity": 0.4881889763779528
        },
        {
          "duration": 0.016891875000002443,
          "durationTicks": 12,
          "midi": 70,
          "name": "A#4",
          "ticks": 18828,
          "time": 26.503351875,
          "velocity": 0.8188976377952756
        },
        {
          "duration": 0.016891875000002443,
          "durationTicks": 12,
          "midi": 48,
          "name": "C3",
          "ticks": 18828,
          "time": 26.503351875,
          "velocity": 0.9448818897637795
        },
        {
          "duration": 0.02252250000000089,
          "durationTicks": 16,
          "midi": 69,
          "name": "A4",
          "ticks": 18952,
          "time": 26.67790125,
          "velocity": 0.4094488188976378
        },
        {
          "duration": 0.01689187499999889,
          "durationTicks": 12,
          "midi": 45,
          "name": "A2",
          "ticks": 19088,
          "time": 26.869342500000002,
          "velocity": 0.4094488188976378
        },
        {
          "duration": 0.01689187499999889,
          "durationTicks": 12,
          "midi": 70,
          "name": "A#4",
          "ticks": 19088,
          "time": 26.869342500000002,
          "velocity": 0.8503937007874016
        },
        {
          "duration": 0.01689187499999889,
          "durationTicks": 12,
          "midi": 42,
          "name": "F#2",
          "ticks": 19088,
          "time": 26.869342500000002,
          "velocity": 0.4881889763779528
        },
        {
          "duration": 0.016891875000002443,
          "durationTicks": 12,
          "midi": 69,
          "name": "A4",
          "ticks": 19214,
          "time": 27.0467071875,
          "velocity": 0.4094488188976378
        },
        {
          "duration": 0.016891875000002443,
          "durationTicks": 12,
          "midi": 35,
          "name": "B1",
          "ticks": 19214,
          "time": 27.0467071875,
          "velocity": 0.889763779527559
        },
        {
          "duration": 0.016891875000002443,
          "durationTicks": 12,
          "midi": 45,
          "name": "A2",
          "ticks": 19214,
          "time": 27.0467071875,
          "velocity": 0.3779527559055118
        },
        {
          "duration": 0.02252250000000089,
          "durationTicks": 16,
          "midi": 42,
          "name": "F#2",
          "ticks": 19336,
          "time": 27.21844125,
          "velocity": 0.4881889763779528
        },
        {
          "duration": 0.02252250000000089,
          "durationTicks": 16,
          "midi": 70,
          "name": "A#4",
          "ticks": 19336,
          "time": 27.21844125,
          "velocity": 0.7874015748031497
        },
        {
          "duration": 0.01689187499999889,
          "durationTicks": 12,
          "midi": 69,
          "name": "A4",
          "ticks": 19468,
          "time": 27.404251875,
          "velocity": 0.4094488188976378
        },
        {
          "duration": 0.01689187499999889,
          "durationTicks": 12,
          "midi": 35,
          "name": "B1",
          "ticks": 19468,
          "time": 27.404251875,
          "velocity": 0.8267716535433071
        },
        {
          "duration": 0.019707187500003442,
          "durationTicks": 14,
          "midi": 42,
          "name": "F#2",
          "ticks": 19594,
          "time": 27.5816165625,
          "velocity": 0.4881889763779528
        },
        {
          "duration": 0.019707187500003442,
          "durationTicks": 14,
          "midi": 70,
          "name": "A#4",
          "ticks": 19594,
          "time": 27.5816165625,
          "velocity": 0.8188976377952756
        },
        {
          "duration": 0.019707187500003442,
          "durationTicks": 14,
          "midi": 48,
          "name": "C3",
          "ticks": 19594,
          "time": 27.5816165625,
          "velocity": 0.8818897637795275
        },
        {
          "duration": 0.019707187499996337,
          "durationTicks": 14,
          "midi": 69,
          "name": "A4",
          "ticks": 19724,
          "time": 27.764611875000003,
          "velocity": 0.4094488188976378
        },
        {
          "duration": 0.019707187499996337,
          "durationTicks": 14,
          "midi": 48,
          "name": "C3",
          "ticks": 19724,
          "time": 27.764611875000003,
          "velocity": 0.8188976377952756
        },
        {
          "duration": 0.02252250000000089,
          "durationTicks": 16,
          "midi": 42,
          "name": "F#2",
          "ticks": 19852,
          "time": 27.944791875,
          "velocity": 0.4881889763779528
        },
        {
          "duration": 0.02252250000000089,
          "durationTicks": 16,
          "midi": 56,
          "name": "G#3",
          "ticks": 19852,
          "time": 27.944791875,
          "velocity": 0.8503937007874016
        },
        {
          "duration": 0.02252250000000089,
          "durationTicks": 16,
          "midi": 35,
          "name": "B1",
          "ticks": 19852,
          "time": 27.944791875,
          "velocity": 0.7322834645669292
        },
        {
          "duration": 0.02252250000000089,
          "durationTicks": 16,
          "midi": 45,
          "name": "A2",
          "ticks": 19852,
          "time": 27.944791875,
          "velocity": 0.4094488188976378
        },
        {
          "duration": 0.0014076562499987233,
          "durationTicks": 1,
          "midi": 69,
          "name": "A4",
          "ticks": 19988,
          "time": 28.136233125000004,
          "velocity": 0.4094488188976378
        },
        {
          "duration": 0.0014076562499987233,
          "durationTicks": 1,
          "midi": 35,
          "name": "B1",
          "ticks": 19988,
          "time": 28.136233125000004,
          "velocity": 0.889763779527559
        },
        {
          "duration": 0.01970718749999989,
          "durationTicks": 14,
          "midi": 42,
          "name": "F#2",
          "ticks": 20106,
          "time": 28.302336562500003,
          "velocity": 0.4881889763779528
        },
        {
          "duration": 0.01970718749999989,
          "durationTicks": 14,
          "midi": 70,
          "name": "A#4",
          "ticks": 20106,
          "time": 28.302336562500003,
          "velocity": 0.7874015748031497
        },
        {
          "duration": 0.01689187499999889,
          "durationTicks": 12,
          "midi": 69,
          "name": "A4",
          "ticks": 20236,
          "time": 28.485331875,
          "velocity": 0.4094488188976378
        },
        {
          "duration": 0.01689187499999889,
          "durationTicks": 12,
          "midi": 35,
          "name": "B1",
          "ticks": 20236,
          "time": 28.485331875,
          "velocity": 0.7637795275590551
        },
        {
          "duration": 0.02252250000000089,
          "durationTicks": 16,
          "midi": 42,
          "name": "F#2",
          "ticks": 20360,
          "time": 28.65988125,
          "velocity": 0.4881889763779528
        },
        {
          "duration": 0.02252250000000089,
          "durationTicks": 16,
          "midi": 70,
          "name": "A#4",
          "ticks": 20360,
          "time": 28.65988125,
          "velocity": 0.8188976377952756
        },
        {
          "duration": 0.02252250000000089,
          "durationTicks": 16,
          "midi": 48,
          "name": "C3",
          "ticks": 20360,
          "time": 28.65988125,
          "velocity": 0.9448818897637795
        },
        {
          "duration": 0.02252250000000089,
          "durationTicks": 16,
          "midi": 69,
          "name": "A4",
          "ticks": 20488,
          "time": 28.84006125,
          "velocity": 0.4094488188976378
        },
        {
          "duration": 0.019707187499996337,
          "durationTicks": 14,
          "midi": 42,
          "name": "F#2",
          "ticks": 20618,
          "time": 29.023056562500003,
          "velocity": 0.4881889763779528
        },
        {
          "duration": 0.019707187499996337,
          "durationTicks": 14,
          "midi": 70,
          "name": "A#4",
          "ticks": 20618,
          "time": 29.023056562500003,
          "velocity": 0.8503937007874016
        },
        {
          "duration": 0.019707187499996337,
          "durationTicks": 14,
          "midi": 45,
          "name": "A2",
          "ticks": 20618,
          "time": 29.023056562500003,
          "velocity": 0.3779527559055118
        },
        {
          "duration": 0.02252250000000089,
          "durationTicks": 16,
          "midi": 69,
          "name": "A4",
          "ticks": 20744,
          "time": 29.20042125,
          "velocity": 0.4094488188976378
        },
        {
          "duration": 0.02252250000000089,
          "durationTicks": 16,
          "midi": 35,
          "name": "B1",
          "ticks": 20744,
          "time": 29.20042125,
          "velocity": 0.889763779527559
        },
        {
          "duration": 0.02252250000000089,
          "durationTicks": 16,
          "midi": 45,
          "name": "A2",
          "ticks": 20744,
          "time": 29.20042125,
          "velocity": 0.3464566929133858
        },
        {
          "duration": 0.01970718749999989,
          "durationTicks": 14,
          "midi": 42,
          "name": "F#2",
          "ticks": 20874,
          "time": 29.383416562500003,
          "velocity": 0.4881889763779528
        },
        {
          "duration": 0.01970718749999989,
          "durationTicks": 14,
          "midi": 70,
          "name": "A#4",
          "ticks": 20874,
          "time": 29.383416562500003,
          "velocity": 0.7874015748031497
        },
        {
          "duration": 0.022522499999997336,
          "durationTicks": 16,
          "midi": 35,
          "name": "B1",
          "ticks": 21000,
          "time": 29.56078125,
          "velocity": 0.8267716535433071
        },
        {
          "duration": 0.022522499999997336,
          "durationTicks": 16,
          "midi": 69,
          "name": "A4",
          "ticks": 21000,
          "time": 29.56078125,
          "velocity": 0.4094488188976378
        },
        {
          "duration": 0.019707187500003442,
          "durationTicks": 14,
          "midi": 42,
          "name": "F#2",
          "ticks": 21132,
          "time": 29.746591875,
          "velocity": 0.4881889763779528
        },
        {
          "duration": 0.019707187500003442,
          "durationTicks": 14,
          "midi": 70,
          "name": "A#4",
          "ticks": 21132,
          "time": 29.746591875,
          "velocity": 0.8188976377952756
        },
        {
          "duration": 0.019707187500003442,
          "durationTicks": 14,
          "midi": 48,
          "name": "C3",
          "ticks": 21132,
          "time": 29.746591875,
          "velocity": 0.8818897637795275
        },
        {
          "duration": 0.01970718749999989,
          "durationTicks": 14,
          "midi": 69,
          "name": "A4",
          "ticks": 21258,
          "time": 29.923956562500003,
          "velocity": 0.4094488188976378
        },
        {
          "duration": 0.01970718749999989,
          "durationTicks": 14,
          "midi": 42,
          "name": "F#2",
          "ticks": 21388,
          "time": 30.106951875,
          "velocity": 0.4881889763779528
        },
        {
          "duration": 0.01970718749999989,
          "durationTicks": 14,
          "midi": 70,
          "name": "A#4",
          "ticks": 21388,
          "time": 30.106951875,
          "velocity": 0.8503937007874016
        },
        {
          "duration": 0.01970718749999989,
          "durationTicks": 14,
          "midi": 45,
          "name": "A2",
          "ticks": 21388,
          "time": 30.106951875,
          "velocity": 0.4094488188976378
        },
        {
          "duration": 0.019707187500003442,
          "durationTicks": 14,
          "midi": 69,
          "name": "A4",
          "ticks": 21514,
          "time": 30.2843165625,
          "velocity": 0.4094488188976378
        },
        {
          "duration": 0.019707187500003442,
          "durationTicks": 14,
          "midi": 35,
          "name": "B1",
          "ticks": 21514,
          "time": 30.2843165625,
          "velocity": 0.889763779527559
        },
        {
          "duration": 0.019707187500003442,
          "durationTicks": 14,
          "midi": 45,
          "name": "A2",
          "ticks": 21514,
          "time": 30.2843165625,
          "velocity": 0.3779527559055118
        },
        {
          "duration": 0.025337812499998336,
          "durationTicks": 18,
          "midi": 42,
          "name": "F#2",
          "ticks": 21638,
          "time": 30.458865937500004,
          "velocity": 0.4881889763779528
        },
        {
          "duration": 0.025337812499998336,
          "durationTicks": 18,
          "midi": 70,
          "name": "A#4",
          "ticks": 21638,
          "time": 30.458865937500004,
          "velocity": 0.7874015748031497
        },
        {
          "duration": 0.01689187499999889,
          "durationTicks": 12,
          "midi": 69,
          "name": "A4",
          "ticks": 21772,
          "time": 30.647491875,
          "velocity": 0.4094488188976378
        },
        {
          "duration": 0.01689187499999889,
          "durationTicks": 12,
          "midi": 35,
          "name": "B1",
          "ticks": 21772,
          "time": 30.647491875,
          "velocity": 0.7637795275590551
        },
        {
          "duration": 0.019707187500003442,
          "durationTicks": 14,
          "midi": 42,
          "name": "F#2",
          "ticks": 21898,
          "time": 30.8248565625,
          "velocity": 0.4881889763779528
        },
        {
          "duration": 0.019707187500003442,
          "durationTicks": 14,
          "midi": 70,
          "name": "A#4",
          "ticks": 21898,
          "time": 30.8248565625,
          "velocity": 0.8188976377952756
        },
        {
          "duration": 0.019707187500003442,
          "durationTicks": 14,
          "midi": 48,
          "name": "C3",
          "ticks": 21898,
          "time": 30.8248565625,
          "velocity": 0.9448818897637795
        },
        {
          "duration": 0.025337812499998336,
          "durationTicks": 18,
          "midi": 69,
          "name": "A4",
          "ticks": 22022,
          "time": 30.999405937500004,
          "velocity": 0.4094488188976378
        },
        {
          "duration": 0.022522499999997336,
          "durationTicks": 16,
          "midi": 45,
          "name": "A2",
          "ticks": 22152,
          "time": 31.18240125,
          "velocity": 0.4094488188976378
        },
        {
          "duration": 0.022522499999997336,
          "durationTicks": 16,
          "midi": 70,
          "name": "A#4",
          "ticks": 22152,
          "time": 31.18240125,
          "velocity": 0.8503937007874016
        },
        {
          "duration": 0.022522499999997336,
          "durationTicks": 16,
          "midi": 42,
          "name": "F#2",
          "ticks": 22152,
          "time": 31.18240125,
          "velocity": 0.4881889763779528
        },
        {
          "duration": 0.02252250000000089,
          "durationTicks": 16,
          "midi": 69,
          "name": "A4",
          "ticks": 22280,
          "time": 31.36258125,
          "velocity": 0.4094488188976378
        },
        {
          "duration": 0.02252250000000089,
          "durationTicks": 16,
          "midi": 35,
          "name": "B1",
          "ticks": 22280,
          "time": 31.36258125,
          "velocity": 0.889763779527559
        },
        {
          "duration": 0.02252250000000089,
          "durationTicks": 16,
          "midi": 45,
          "name": "A2",
          "ticks": 22280,
          "time": 31.36258125,
          "velocity": 0.3779527559055118
        },
        {
          "duration": 0.02252250000000089,
          "durationTicks": 16,
          "midi": 42,
          "name": "F#2",
          "ticks": 22408,
          "time": 31.54276125,
          "velocity": 0.4881889763779528
        },
        {
          "duration": 0.02252250000000089,
          "durationTicks": 16,
          "midi": 70,
          "name": "A#4",
          "ticks": 22408,
          "time": 31.54276125,
          "velocity": 0.7874015748031497
        },
        {
          "duration": 0.01970718749999989,
          "durationTicks": 14,
          "midi": 69,
          "name": "A4",
          "ticks": 22540,
          "time": 31.728571875,
          "velocity": 0.4094488188976378
        },
        {
          "duration": 0.01970718749999989,
          "durationTicks": 14,
          "midi": 35,
          "name": "B1",
          "ticks": 22540,
          "time": 31.728571875,
          "velocity": 0.8267716535433071
        },
        {
          "duration": 0.019707187500003442,
          "durationTicks": 14,
          "midi": 42,
          "name": "F#2",
          "ticks": 22668,
          "time": 31.908751875,
          "velocity": 0.4881889763779528
        },
        {
          "duration": 0.019707187500003442,
          "durationTicks": 14,
          "midi": 70,
          "name": "A#4",
          "ticks": 22668,
          "time": 31.908751875,
          "velocity": 0.8188976377952756
        },
        {
          "duration": 0.019707187500003442,
          "durationTicks": 14,
          "midi": 48,
          "name": "C3",
          "ticks": 22668,
          "time": 31.908751875,
          "velocity": 0.8818897637795275
        },
        {
          "duration": 0.019707187499996337,
          "durationTicks": 14,
          "midi": 69,
          "name": "A4",
          "ticks": 22794,
          "time": 32.0861165625,
          "velocity": 0.4094488188976378
        },
        {
          "duration": 0.02533781250000544,
          "durationTicks": 18,
          "midi": 45,
          "name": "A2",
          "ticks": 22920,
          "time": 32.26348125,
          "velocity": 0.4094488188976378
        },
        {
          "duration": 0.02533781250000544,
          "durationTicks": 18,
          "midi": 70,
          "name": "A#4",
          "ticks": 22920,
          "time": 32.26348125,
          "velocity": 0.8503937007874016
        },
        {
          "duration": 0.02533781250000544,
          "durationTicks": 18,
          "midi": 42,
          "name": "F#2",
          "ticks": 22920,
          "time": 32.26348125,
          "velocity": 0.4881889763779528
        },
        {
          "duration": 0.02252250000000089,
          "durationTicks": 16,
          "midi": 69,
          "name": "A4",
          "ticks": 23050,
          "time": 32.4464765625,
          "velocity": 0.4094488188976378
        },
        {
          "duration": 0.02252250000000089,
          "durationTicks": 16,
          "midi": 35,
          "name": "B1",
          "ticks": 23050,
          "time": 32.4464765625,
          "velocity": 0.889763779527559
        },
        {
          "duration": 0.02252250000000089,
          "durationTicks": 16,
          "midi": 45,
          "name": "A2",
          "ticks": 23050,
          "time": 32.4464765625,
          "velocity": 0.3779527559055118
        },
        {
          "duration": 0.019707187499996337,
          "durationTicks": 14,
          "midi": 42,
          "name": "F#2",
          "ticks": 23178,
          "time": 32.6266565625,
          "velocity": 0.4881889763779528
        },
        {
          "duration": 0.019707187499996337,
          "durationTicks": 14,
          "midi": 70,
          "name": "A#4",
          "ticks": 23178,
          "time": 32.6266565625,
          "velocity": 0.7874015748031497
        },
        {
          "duration": 0.01689187499999889,
          "durationTicks": 12,
          "midi": 69,
          "name": "A4",
          "ticks": 23308,
          "time": 32.809651875,
          "velocity": 0.4094488188976378
        },
        {
          "duration": 0.01689187499999889,
          "durationTicks": 12,
          "midi": 35,
          "name": "B1",
          "ticks": 23308,
          "time": 32.809651875,
          "velocity": 0.7637795275590551
        },
        {
          "duration": 0.011261249999996892,
          "durationTicks": 8,
          "midi": 42,
          "name": "F#2",
          "ticks": 23438,
          "time": 32.992647187500005,
          "velocity": 0.4881889763779528
        },
        {
          "duration": 0.011261249999996892,
          "durationTicks": 8,
          "midi": 70,
          "name": "A#4",
          "ticks": 23438,
          "time": 32.992647187500005,
          "velocity": 0.8188976377952756
        },
        {
          "duration": 0.011261249999996892,
          "durationTicks": 8,
          "midi": 48,
          "name": "C3",
          "ticks": 23438,
          "time": 32.992647187500005,
          "velocity": 0.9448818897637795
        },
        {
          "duration": 0.02252250000000089,
          "durationTicks": 16,
          "midi": 69,
          "name": "A4",
          "ticks": 23560,
          "time": 33.16438125,
          "velocity": 0.4094488188976378
        },
        {
          "duration": 0.0014076562499951706,
          "durationTicks": 1,
          "midi": 42,
          "name": "F#2",
          "ticks": 23700,
          "time": 33.361453125000004,
          "velocity": 0.4881889763779528
        },
        {
          "duration": 0.0014076562499951706,
          "durationTicks": 1,
          "midi": 70,
          "name": "A#4",
          "ticks": 23700,
          "time": 33.361453125000004,
          "velocity": 0.8503937007874016
        },
        {
          "duration": 0.0014076562499951706,
          "durationTicks": 1,
          "midi": 45,
          "name": "A2",
          "ticks": 23700,
          "time": 33.361453125000004,
          "velocity": 0.4094488188976378
        },
        {
          "duration": 0.02252250000000089,
          "durationTicks": 16,
          "midi": 69,
          "name": "A4",
          "ticks": 23818,
          "time": 33.5275565625,
          "velocity": 0.4094488188976378
        },
        {
          "duration": 0.02252250000000089,
          "durationTicks": 16,
          "midi": 35,
          "name": "B1",
          "ticks": 23818,
          "time": 33.5275565625,
          "velocity": 0.889763779527559
        },
        {
          "duration": 0.02252250000000089,
          "durationTicks": 16,
          "midi": 45,
          "name": "A2",
          "ticks": 23818,
          "time": 33.5275565625,
          "velocity": 0.3779527559055118
        },
        {
          "duration": 0.022522499999993784,
          "durationTicks": 16,
          "midi": 42,
          "name": "F#2",
          "ticks": 23946,
          "time": 33.7077365625,
          "velocity": 0.4881889763779528
        },
        {
          "duration": 0.022522499999993784,
          "durationTicks": 16,
          "midi": 70,
          "name": "A#4",
          "ticks": 23946,
          "time": 33.7077365625,
          "velocity": 0.7874015748031497
        },
        {
          "duration": 0.014076562499994338,
          "durationTicks": 10,
          "midi": 69,
          "name": "A4",
          "ticks": 24078,
          "time": 33.893547187500005,
          "velocity": 0.4094488188976378
        },
        {
          "duration": 0.014076562499994338,
          "durationTicks": 10,
          "midi": 35,
          "name": "B1",
          "ticks": 24078,
          "time": 33.893547187500005,
          "velocity": 0.8267716535433071
        },
        {
          "duration": 0.022522499999993784,
          "durationTicks": 16,
          "midi": 42,
          "name": "F#2",
          "ticks": 24200,
          "time": 34.065281250000005,
          "velocity": 0.4881889763779528
        },
        {
          "duration": 0.022522499999993784,
          "durationTicks": 16,
          "midi": 70,
          "name": "A#4",
          "ticks": 24200,
          "time": 34.065281250000005,
          "velocity": 0.8188976377952756
        },
        {
          "duration": 0.022522499999993784,
          "durationTicks": 16,
          "midi": 48,
          "name": "C3",
          "ticks": 24200,
          "time": 34.065281250000005,
          "velocity": 0.8818897637795275
        },
        {
          "duration": 0.019707187500003442,
          "durationTicks": 14,
          "midi": 69,
          "name": "A4",
          "ticks": 24328,
          "time": 34.24546125,
          "velocity": 0.4094488188976378
        },
        {
          "duration": 0.02533781250000544,
          "durationTicks": 18,
          "midi": 45,
          "name": "A2",
          "ticks": 24456,
          "time": 34.42564125,
          "velocity": 0.4094488188976378
        },
        {
          "duration": 0.02533781250000544,
          "durationTicks": 18,
          "midi": 70,
          "name": "A#4",
          "ticks": 24456,
          "time": 34.42564125,
          "velocity": 0.8503937007874016
        },
        {
          "duration": 0.02533781250000544,
          "durationTicks": 18,
          "midi": 42,
          "name": "F#2",
          "ticks": 24456,
          "time": 34.42564125,
          "velocity": 0.4881889763779528
        },
        {
          "duration": 0.019707187499996337,
          "durationTicks": 14,
          "midi": 69,
          "name": "A4",
          "ticks": 24586,
          "time": 34.6086365625,
          "velocity": 0.4094488188976378
        },
        {
          "duration": 0.019707187499996337,
          "durationTicks": 14,
          "midi": 35,
          "name": "B1",
          "ticks": 24586,
          "time": 34.6086365625,
          "velocity": 0.889763779527559
        },
        {
          "duration": 0.019707187499996337,
          "durationTicks": 14,
          "midi": 45,
          "name": "A2",
          "ticks": 24586,
          "time": 34.6086365625,
          "velocity": 0.3779527559055118
        },
        {
          "duration": 0.01689187499999889,
          "durationTicks": 12,
          "midi": 42,
          "name": "F#2",
          "ticks": 24716,
          "time": 34.791631875,
          "velocity": 0.4881889763779528
        },
        {
          "duration": 0.01689187499999889,
          "durationTicks": 12,
          "midi": 70,
          "name": "A#4",
          "ticks": 24716,
          "time": 34.791631875,
          "velocity": 0.7874015748031497
        },
        {
          "duration": 0.019707187499996337,
          "durationTicks": 14,
          "midi": 69,
          "name": "A4",
          "ticks": 24844,
          "time": 34.97181187500001,
          "velocity": 0.4094488188976378
        },
        {
          "duration": 0.019707187499996337,
          "durationTicks": 14,
          "midi": 35,
          "name": "B1",
          "ticks": 24844,
          "time": 34.97181187500001,
          "velocity": 0.7637795275590551
        },
        {
          "duration": 0.02252250000000089,
          "durationTicks": 16,
          "midi": 42,
          "name": "F#2",
          "ticks": 24968,
          "time": 35.14636125,
          "velocity": 0.4881889763779528
        },
        {
          "duration": 0.02252250000000089,
          "durationTicks": 16,
          "midi": 70,
          "name": "A#4",
          "ticks": 24968,
          "time": 35.14636125,
          "velocity": 0.8188976377952756
        },
        {
          "duration": 0.02252250000000089,
          "durationTicks": 16,
          "midi": 48,
          "name": "C3",
          "ticks": 24968,
          "time": 35.14636125,
          "velocity": 0.9448818897637795
        },
        {
          "duration": 0.022522499999993784,
          "durationTicks": 16,
          "midi": 69,
          "name": "A4",
          "ticks": 25096,
          "time": 35.326541250000005,
          "velocity": 0.4094488188976378
        },
        {
          "duration": 0.011261250000003997,
          "durationTicks": 8,
          "midi": 45,
          "name": "A2",
          "ticks": 25232,
          "time": 35.5179825,
          "velocity": 0.4094488188976378
        },
        {
          "duration": 0.011261250000003997,
          "durationTicks": 8,
          "midi": 70,
          "name": "A#4",
          "ticks": 25232,
          "time": 35.5179825,
          "velocity": 0.8503937007874016
        },
        {
          "duration": 0.011261250000003997,
          "durationTicks": 8,
          "midi": 42,
          "name": "F#2",
          "ticks": 25232,
          "time": 35.5179825,
          "velocity": 0.4881889763779528
        },
        {
          "duration": 0.01689187499999889,
          "durationTicks": 12,
          "midi": 69,
          "name": "A4",
          "ticks": 25356,
          "time": 35.692531875,
          "velocity": 0.4094488188976378
        },
        {
          "duration": 0.01689187499999889,
          "durationTicks": 12,
          "midi": 35,
          "name": "B1",
          "ticks": 25356,
          "time": 35.692531875,
          "velocity": 0.889763779527559
        },
        {
          "duration": 0.01689187499999889,
          "durationTicks": 12,
          "midi": 45,
          "name": "A2",
          "ticks": 25356,
          "time": 35.692531875,
          "velocity": 0.3779527559055118
        },
        {
          "duration": 0.022522499999993784,
          "durationTicks": 16,
          "midi": 42,
          "name": "F#2",
          "ticks": 25480,
          "time": 35.867081250000005,
          "velocity": 0.4881889763779528
        },
        {
          "duration": 0.022522499999993784,
          "durationTicks": 16,
          "midi": 70,
          "name": "A#4",
          "ticks": 25480,
          "time": 35.867081250000005,
          "velocity": 0.7874015748031497
        },
        {
          "duration": 0.01689187499999889,
          "durationTicks": 12,
          "midi": 69,
          "name": "A4",
          "ticks": 25612,
          "time": 36.05289187500001,
          "velocity": 0.4094488188976378
        },
        {
          "duration": 0.01689187499999889,
          "durationTicks": 12,
          "midi": 35,
          "name": "B1",
          "ticks": 25612,
          "time": 36.05289187500001,
          "velocity": 0.8267716535433071
        },
        {
          "duration": 0.025337812499998336,
          "durationTicks": 18,
          "midi": 42,
          "name": "F#2",
          "ticks": 25736,
          "time": 36.22744125,
          "velocity": 0.4881889763779528
        },
        {
          "duration": 0.025337812499998336,
          "durationTicks": 18,
          "midi": 70,
          "name": "A#4",
          "ticks": 25736,
          "time": 36.22744125,
          "velocity": 0.8188976377952756
        },
        {
          "duration": 0.025337812499998336,
          "durationTicks": 18,
          "midi": 48,
          "name": "C3",
          "ticks": 25736,
          "time": 36.22744125,
          "velocity": 0.8818897637795275
        },
        {
          "duration": 0.025337812499998336,
          "durationTicks": 18,
          "midi": 69,
          "name": "A4",
          "ticks": 25864,
          "time": 36.407621250000005,
          "velocity": 0.4094488188976378
        },
        {
          "duration": 0.011261249999996892,
          "durationTicks": 8,
          "midi": 42,
          "name": "F#2",
          "ticks": 25998,
          "time": 36.596247187500005,
          "velocity": 0.4881889763779528
        },
        {
          "duration": 0.011261249999996892,
          "durationTicks": 8,
          "midi": 70,
          "name": "A#4",
          "ticks": 25998,
          "time": 36.596247187500005,
          "velocity": 0.8503937007874016
        },
        {
          "duration": 0.011261249999996892,
          "durationTicks": 8,
          "midi": 45,
          "name": "A2",
          "ticks": 25998,
          "time": 36.596247187500005,
          "velocity": 0.4094488188976378
        },
        {
          "duration": 0.0014076562499951706,
          "durationTicks": 1,
          "midi": 69,
          "name": "A4",
          "ticks": 26134,
          "time": 36.7876884375,
          "velocity": 0.4094488188976378
        },
        {
          "duration": 0.0014076562499951706,
          "durationTicks": 1,
          "midi": 35,
          "name": "B1",
          "ticks": 26134,
          "time": 36.7876884375,
          "velocity": 0.889763779527559
        },
        {
          "duration": 0.0014076562499951706,
          "durationTicks": 1,
          "midi": 45,
          "name": "A2",
          "ticks": 26134,
          "time": 36.7876884375,
          "velocity": 0.3779527559055118
        },
        {
          "duration": 0.019707187500003442,
          "durationTicks": 14,
          "midi": 42,
          "name": "F#2",
          "ticks": 26252,
          "time": 36.953791875,
          "velocity": 0.4881889763779528
        },
        {
          "duration": 0.019707187500003442,
          "durationTicks": 14,
          "midi": 70,
          "name": "A#4",
          "ticks": 26252,
          "time": 36.953791875,
          "velocity": 0.7874015748031497
        },
        {
          "duration": 0.014076562499994338,
          "durationTicks": 10,
          "midi": 69,
          "name": "A4",
          "ticks": 26380,
          "time": 37.13397187500001,
          "velocity": 0.4094488188976378
        },
        {
          "duration": 0.014076562499994338,
          "durationTicks": 10,
          "midi": 35,
          "name": "B1",
          "ticks": 26380,
          "time": 37.13397187500001,
          "velocity": 0.7637795275590551
        },
        {
          "duration": 0.025337812499998336,
          "durationTicks": 18,
          "midi": 42,
          "name": "F#2",
          "ticks": 26504,
          "time": 37.30852125,
          "velocity": 0.4881889763779528
        },
        {
          "duration": 0.025337812499998336,
          "durationTicks": 18,
          "midi": 70,
          "name": "A#4",
          "ticks": 26504,
          "time": 37.30852125,
          "velocity": 0.8188976377952756
        },
        {
          "duration": 0.025337812499998336,
          "durationTicks": 18,
          "midi": 48,
          "name": "C3",
          "ticks": 26504,
          "time": 37.30852125,
          "velocity": 0.9448818897637795
        },
        {
          "duration": 0.022522499999993784,
          "durationTicks": 16,
          "midi": 69,
          "name": "A4",
          "ticks": 26632,
          "time": 37.488701250000005,
          "velocity": 0.4094488188976378
        },
        {
          "duration": 0.001407656250002276,
          "durationTicks": 1,
          "midi": 42,
          "name": "F#2",
          "ticks": 26772,
          "time": 37.685773125000004,
          "velocity": 0.4881889763779528
        },
        {
          "duration": 0.001407656250002276,
          "durationTicks": 1,
          "midi": 70,
          "name": "A#4",
          "ticks": 26772,
          "time": 37.685773125000004,
          "velocity": 0.8503937007874016
        },
        {
          "duration": 0.001407656250002276,
          "durationTicks": 1,
          "midi": 45,
          "name": "A2",
          "ticks": 26772,
          "time": 37.685773125000004,
          "velocity": 0.4094488188976378
        },
        {
          "duration": 0.019707187499996337,
          "durationTicks": 14,
          "midi": 69,
          "name": "A4",
          "ticks": 26892,
          "time": 37.854691875,
          "velocity": 0.4094488188976378
        },
        {
          "duration": 0.019707187499996337,
          "durationTicks": 14,
          "midi": 35,
          "name": "B1",
          "ticks": 26892,
          "time": 37.854691875,
          "velocity": 0.889763779527559
        },
        {
          "duration": 0.019707187499996337,
          "durationTicks": 14,
          "midi": 45,
          "name": "A2",
          "ticks": 26892,
          "time": 37.854691875,
          "velocity": 0.3779527559055118
        },
        {
          "duration": 0.019707187500003442,
          "durationTicks": 14,
          "midi": 42,
          "name": "F#2",
          "ticks": 27020,
          "time": 38.034871875,
          "velocity": 0.4881889763779528
        },
        {
          "duration": 0.019707187500003442,
          "durationTicks": 14,
          "midi": 70,
          "name": "A#4",
          "ticks": 27020,
          "time": 38.034871875,
          "velocity": 0.7874015748031497
        },
        {
          "duration": 0.014076562499994338,
          "durationTicks": 10,
          "midi": 69,
          "name": "A4",
          "ticks": 27148,
          "time": 38.21505187500001,
          "velocity": 0.4094488188976378
        },
        {
          "duration": 0.014076562499994338,
          "durationTicks": 10,
          "midi": 35,
          "name": "B1",
          "ticks": 27148,
          "time": 38.21505187500001,
          "velocity": 0.8267716535433071
        },
        {
          "duration": 0.01689187499999889,
          "durationTicks": 12,
          "midi": 42,
          "name": "F#2",
          "ticks": 27276,
          "time": 38.395231875,
          "velocity": 0.4881889763779528
        },
        {
          "duration": 0.01689187499999889,
          "durationTicks": 12,
          "midi": 70,
          "name": "A#4",
          "ticks": 27276,
          "time": 38.395231875,
          "velocity": 0.8188976377952756
        },
        {
          "duration": 0.01689187499999889,
          "durationTicks": 12,
          "midi": 48,
          "name": "C3",
          "ticks": 27276,
          "time": 38.395231875,
          "velocity": 0.8818897637795275
        },
        {
          "duration": 0.01689187499999889,
          "durationTicks": 12,
          "midi": 69,
          "name": "A4",
          "ticks": 27402,
          "time": 38.5725965625,
          "velocity": 0.4094488188976378
        },
        {
          "duration": 0.014076562500001444,
          "durationTicks": 10,
          "midi": 42,
          "name": "F#2",
          "ticks": 27534,
          "time": 38.758407187500005,
          "velocity": 0.4881889763779528
        },
        {
          "duration": 0.014076562500001444,
          "durationTicks": 10,
          "midi": 70,
          "name": "A#4",
          "ticks": 27534,
          "time": 38.758407187500005,
          "velocity": 0.8503937007874016
        },
        {
          "duration": 0.014076562500001444,
          "durationTicks": 10,
          "midi": 45,
          "name": "A2",
          "ticks": 27534,
          "time": 38.758407187500005,
          "velocity": 0.4094488188976378
        },
        {
          "duration": 0.019707187499996337,
          "durationTicks": 14,
          "midi": 69,
          "name": "A4",
          "ticks": 27658,
          "time": 38.9329565625,
          "velocity": 0.4094488188976378
        },
        {
          "duration": 0.019707187499996337,
          "durationTicks": 14,
          "midi": 35,
          "name": "B1",
          "ticks": 27658,
          "time": 38.9329565625,
          "velocity": 0.889763779527559
        },
        {
          "duration": 0.019707187499996337,
          "durationTicks": 14,
          "midi": 45,
          "name": "A2",
          "ticks": 27658,
          "time": 38.9329565625,
          "velocity": 0.3779527559055118
        },
        {
          "duration": 0.022522499999993784,
          "durationTicks": 16,
          "midi": 42,
          "name": "F#2",
          "ticks": 27784,
          "time": 39.110321250000005,
          "velocity": 0.4881889763779528
        },
        {
          "duration": 0.022522499999993784,
          "durationTicks": 16,
          "midi": 70,
          "name": "A#4",
          "ticks": 27784,
          "time": 39.110321250000005,
          "velocity": 0.7874015748031497
        },
        {
          "duration": 0.01689187499999889,
          "durationTicks": 12,
          "midi": 69,
          "name": "A4",
          "ticks": 27916,
          "time": 39.29613187500001,
          "velocity": 0.4094488188976378
        },
        {
          "duration": 0.01689187499999889,
          "durationTicks": 12,
          "midi": 35,
          "name": "B1",
          "ticks": 27916,
          "time": 39.29613187500001,
          "velocity": 0.7637795275590551
        },
        {
          "duration": 0.01689187499999889,
          "durationTicks": 12,
          "midi": 42,
          "name": "F#2",
          "ticks": 28046,
          "time": 39.4791271875,
          "velocity": 0.4881889763779528
        },
        {
          "duration": 0.01689187499999889,
          "durationTicks": 12,
          "midi": 70,
          "name": "A#4",
          "ticks": 28046,
          "time": 39.4791271875,
          "velocity": 0.8188976377952756
        },
        {
          "duration": 0.01689187499999889,
          "durationTicks": 12,
          "midi": 48,
          "name": "C3",
          "ticks": 28046,
          "time": 39.4791271875,
          "velocity": 0.9448818897637795
        },
        {
          "duration": 0.019707187499996337,
          "durationTicks": 14,
          "midi": 69,
          "name": "A4",
          "ticks": 28170,
          "time": 39.6536765625,
          "velocity": 0.4094488188976378
        },
        {
          "duration": 0.022522500000007994,
          "durationTicks": 16,
          "midi": 45,
          "name": "A2",
          "ticks": 28296,
          "time": 39.83104125,
          "velocity": 0.4094488188976378
        },
        {
          "duration": 0.022522500000007994,
          "durationTicks": 16,
          "midi": 70,
          "name": "A#4",
          "ticks": 28296,
          "time": 39.83104125,
          "velocity": 0.8503937007874016
        },
        {
          "duration": 0.022522500000007994,
          "durationTicks": 16,
          "midi": 42,
          "name": "F#2",
          "ticks": 28296,
          "time": 39.83104125,
          "velocity": 0.4881889763779528
        },
        {
          "duration": 0.02252250000000089,
          "durationTicks": 16,
          "midi": 69,
          "name": "A4",
          "ticks": 28424,
          "time": 40.01122125,
          "velocity": 0.4094488188976378
        },
        {
          "duration": 0.02252250000000089,
          "durationTicks": 16,
          "midi": 35,
          "name": "B1",
          "ticks": 28424,
          "time": 40.01122125,
          "velocity": 0.889763779527559
        },
        {
          "duration": 0.02252250000000089,
          "durationTicks": 16,
          "midi": 45,
          "name": "A2",
          "ticks": 28424,
          "time": 40.01122125,
          "velocity": 0.3779527559055118
        },
        {
          "duration": 0.019707187499996337,
          "durationTicks": 14,
          "midi": 42,
          "name": "F#2",
          "ticks": 28554,
          "time": 40.1942165625,
          "velocity": 0.4881889763779528
        },
        {
          "duration": 0.019707187499996337,
          "durationTicks": 14,
          "midi": 70,
          "name": "A#4",
          "ticks": 28554,
          "time": 40.1942165625,
          "velocity": 0.7874015748031497
        },
        {
          "duration": 0.019707187499996337,
          "durationTicks": 14,
          "midi": 69,
          "name": "A4",
          "ticks": 28684,
          "time": 40.37721187500001,
          "velocity": 0.4094488188976378
        },
        {
          "duration": 0.019707187499996337,
          "durationTicks": 14,
          "midi": 35,
          "name": "B1",
          "ticks": 28684,
          "time": 40.37721187500001,
          "velocity": 0.8267716535433071
        },
        {
          "duration": 0.022522499999993784,
          "durationTicks": 16,
          "midi": 42,
          "name": "F#2",
          "ticks": 28810,
          "time": 40.5545765625,
          "velocity": 0.4881889763779528
        },
        {
          "duration": 0.022522499999993784,
          "durationTicks": 16,
          "midi": 70,
          "name": "A#4",
          "ticks": 28810,
          "time": 40.5545765625,
          "velocity": 0.8188976377952756
        },
        {
          "duration": 0.022522499999993784,
          "durationTicks": 16,
          "midi": 48,
          "name": "C3",
          "ticks": 28810,
          "time": 40.5545765625,
          "velocity": 0.8818897637795275
        },
        {
          "duration": 0.019707187499996337,
          "durationTicks": 14,
          "midi": 69,
          "name": "A4",
          "ticks": 28936,
          "time": 40.731941250000006,
          "velocity": 0.4094488188976378
        },
        {
          "duration": 0.019707187500010548,
          "durationTicks": 14,
          "midi": 42,
          "name": "F#2",
          "ticks": 29066,
          "time": 40.914936562499996,
          "velocity": 0.4881889763779528
        },
        {
          "duration": 0.019707187500010548,
          "durationTicks": 14,
          "midi": 70,
          "name": "A#4",
          "ticks": 29066,
          "time": 40.914936562499996,
          "velocity": 0.8503937007874016
        },
        {
          "duration": 0.019707187500010548,
          "durationTicks": 14,
          "midi": 45,
          "name": "A2",
          "ticks": 29066,
          "time": 40.914936562499996,
          "velocity": 0.4094488188976378
        },
        {
          "duration": 0.025337812499998336,
          "durationTicks": 18,
          "midi": 69,
          "name": "A4",
          "ticks": 29192,
          "time": 41.09230125,
          "velocity": 0.4094488188976378
        },
        {
          "duration": 0.025337812499998336,
          "durationTicks": 18,
          "midi": 35,
          "name": "B1",
          "ticks": 29192,
          "time": 41.09230125,
          "velocity": 0.889763779527559
        },
        {
          "duration": 0.025337812499998336,
          "durationTicks": 18,
          "midi": 45,
          "name": "A2",
          "ticks": 29192,
          "time": 41.09230125,
          "velocity": 0.3779527559055118
        },
        {
          "duration": 0.01689187499999889,
          "durationTicks": 12,
          "midi": 42,
          "name": "F#2",
          "ticks": 29324,
          "time": 41.278111875,
          "velocity": 0.4881889763779528
        },
        {
          "duration": 0.01689187499999889,
          "durationTicks": 12,
          "midi": 70,
          "name": "A#4",
          "ticks": 29324,
          "time": 41.278111875,
          "velocity": 0.7874015748031497
        },
        {
          "duration": 0.019707187500010548,
          "durationTicks": 14,
          "midi": 69,
          "name": "A4",
          "ticks": 29450,
          "time": 41.455476562499996,
          "velocity": 0.4094488188976378
        },
        {
          "duration": 0.019707187500010548,
          "durationTicks": 14,
          "midi": 35,
          "name": "B1",
          "ticks": 29450,
          "time": 41.455476562499996,
          "velocity": 0.7637795275590551
        },
        {
          "duration": 0.025337812499998336,
          "durationTicks": 18,
          "midi": 42,
          "name": "F#2",
          "ticks": 29576,
          "time": 41.63284125,
          "velocity": 0.4881889763779528
        },
        {
          "duration": 0.025337812499998336,
          "durationTicks": 18,
          "midi": 70,
          "name": "A#4",
          "ticks": 29576,
          "time": 41.63284125,
          "velocity": 0.8188976377952756
        },
        {
          "duration": 0.025337812499998336,
          "durationTicks": 18,
          "midi": 48,
          "name": "C3",
          "ticks": 29576,
          "time": 41.63284125,
          "velocity": 0.9448818897637795
        },
        {
          "duration": 0.019707187499996337,
          "durationTicks": 14,
          "midi": 69,
          "name": "A4",
          "ticks": 29706,
          "time": 41.8158365625,
          "velocity": 0.4094488188976378
        },
        {
          "duration": 0.001407656250002276,
          "durationTicks": 1,
          "midi": 42,
          "name": "F#2",
          "ticks": 29846,
          "time": 42.0129084375,
          "velocity": 0.4881889763779528
        },
        {
          "duration": 0.001407656250002276,
          "durationTicks": 1,
          "midi": 70,
          "name": "A#4",
          "ticks": 29846,
          "time": 42.0129084375,
          "velocity": 0.8503937007874016
        },
        {
          "duration": 0.001407656250002276,
          "durationTicks": 1,
          "midi": 45,
          "name": "A2",
          "ticks": 29846,
          "time": 42.0129084375,
          "velocity": 0.4094488188976378
        },
        {
          "duration": 0.014076562500001444,
          "durationTicks": 10,
          "midi": 69,
          "name": "A4",
          "ticks": 29966,
          "time": 42.1818271875,
          "velocity": 0.4094488188976378
        },
        {
          "duration": 0.014076562500001444,
          "durationTicks": 10,
          "midi": 35,
          "name": "B1",
          "ticks": 29966,
          "time": 42.1818271875,
          "velocity": 0.889763779527559
        },
        {
          "duration": 0.014076562500001444,
          "durationTicks": 10,
          "midi": 45,
          "name": "A2",
          "ticks": 29966,
          "time": 42.1818271875,
          "velocity": 0.3779527559055118
        },
        {
          "duration": 0.01689187499999889,
          "durationTicks": 12,
          "midi": 42,
          "name": "F#2",
          "ticks": 30090,
          "time": 42.3563765625,
          "velocity": 0.4881889763779528
        },
        {
          "duration": 0.01689187499999889,
          "durationTicks": 12,
          "midi": 70,
          "name": "A#4",
          "ticks": 30090,
          "time": 42.3563765625,
          "velocity": 0.7874015748031497
        },
        {
          "duration": 0.016891875000005996,
          "durationTicks": 12,
          "midi": 69,
          "name": "A4",
          "ticks": 30218,
          "time": 42.536556562499996,
          "velocity": 0.4094488188976378
        },
        {
          "duration": 0.016891875000005996,
          "durationTicks": 12,
          "midi": 35,
          "name": "B1",
          "ticks": 30218,
          "time": 42.536556562499996,
          "velocity": 0.8267716535433071
        },
        {
          "duration": 0.01689187499999889,
          "durationTicks": 12,
          "midi": 42,
          "name": "F#2",
          "ticks": 30348,
          "time": 42.719551875,
          "velocity": 0.4881889763779528
        },
        {
          "duration": 0.01689187499999889,
          "durationTicks": 12,
          "midi": 70,
          "name": "A#4",
          "ticks": 30348,
          "time": 42.719551875,
          "velocity": 0.8188976377952756
        },
        {
          "duration": 0.01689187499999889,
          "durationTicks": 12,
          "midi": 48,
          "name": "C3",
          "ticks": 30348,
          "time": 42.719551875,
          "velocity": 0.8818897637795275
        },
        {
          "duration": 0.025337812499998336,
          "durationTicks": 18,
          "midi": 69,
          "name": "A4",
          "ticks": 30470,
          "time": 42.8912859375,
          "velocity": 0.4094488188976378
        },
        {
          "duration": 0.022522500000007994,
          "durationTicks": 16,
          "midi": 45,
          "name": "A2",
          "ticks": 30600,
          "time": 43.07428125,
          "velocity": 0.4094488188976378
        },
        {
          "duration": 0.022522500000007994,
          "durationTicks": 16,
          "midi": 70,
          "name": "A#4",
          "ticks": 30600,
          "time": 43.07428125,
          "velocity": 0.8503937007874016
        },
        {
          "duration": 0.022522500000007994,
          "durationTicks": 16,
          "midi": 42,
          "name": "F#2",
          "ticks": 30600,
          "time": 43.07428125,
          "velocity": 0.4881889763779528
        },
        {
          "duration": 0.025337812499998336,
          "durationTicks": 18,
          "midi": 69,
          "name": "A4",
          "ticks": 30728,
          "time": 43.25446125,
          "velocity": 0.4094488188976378
        },
        {
          "duration": 0.025337812499998336,
          "durationTicks": 18,
          "midi": 35,
          "name": "B1",
          "ticks": 30728,
          "time": 43.25446125,
          "velocity": 0.889763779527559
        },
        {
          "duration": 0.025337812499998336,
          "durationTicks": 18,
          "midi": 45,
          "name": "A2",
          "ticks": 30728,
          "time": 43.25446125,
          "velocity": 0.3779527559055118
        },
        {
          "duration": 0.019707187499996337,
          "durationTicks": 14,
          "midi": 42,
          "name": "F#2",
          "ticks": 30858,
          "time": 43.4374565625,
          "velocity": 0.4881889763779528
        },
        {
          "duration": 0.019707187499996337,
          "durationTicks": 14,
          "midi": 70,
          "name": "A#4",
          "ticks": 30858,
          "time": 43.4374565625,
          "velocity": 0.7874015748031497
        },
        {
          "duration": 0.022522500000007994,
          "durationTicks": 16,
          "midi": 35,
          "name": "B1",
          "ticks": 30984,
          "time": 43.61482125,
          "velocity": 0.7637795275590551
        },
        {
          "duration": 0.022522500000007994,
          "durationTicks": 16,
          "midi": 69,
          "name": "A4",
          "ticks": 30984,
          "time": 43.61482125,
          "velocity": 0.4094488188976378
        },
        {
          "duration": 0.01689187499999889,
          "durationTicks": 12,
          "midi": 42,
          "name": "F#2",
          "ticks": 31116,
          "time": 43.800631875,
          "velocity": 0.4881889763779528
        },
        {
          "duration": 0.01689187499999889,
          "durationTicks": 12,
          "midi": 70,
          "name": "A#4",
          "ticks": 31116,
          "time": 43.800631875,
          "velocity": 0.8188976377952756
        },
        {
          "duration": 0.01689187499999889,
          "durationTicks": 12,
          "midi": 48,
          "name": "C3",
          "ticks": 31116,
          "time": 43.800631875,
          "velocity": 0.9448818897637795
        },
        {
          "duration": 0.01689187499999889,
          "durationTicks": 12,
          "midi": 69,
          "name": "A4",
          "ticks": 31242,
          "time": 43.9779965625,
          "velocity": 0.4094488188976378
        },
        {
          "duration": 0.01689187499999889,
          "durationTicks": 12,
          "midi": 42,
          "name": "F#2",
          "ticks": 31374,
          "time": 44.163807187500005,
          "velocity": 0.4881889763779528
        },
        {
          "duration": 0.01689187499999889,
          "durationTicks": 12,
          "midi": 70,
          "name": "A#4",
          "ticks": 31374,
          "time": 44.163807187500005,
          "velocity": 0.8503937007874016
        },
        {
          "duration": 0.01689187499999889,
          "durationTicks": 12,
          "midi": 45,
          "name": "A2",
          "ticks": 31374,
          "time": 44.163807187500005,
          "velocity": 0.4094488188976378
        },
        {
          "duration": 0.02252250000000089,
          "durationTicks": 16,
          "midi": 69,
          "name": "A4",
          "ticks": 31496,
          "time": 44.33554125,
          "velocity": 0.4094488188976378
        },
        {
          "duration": 0.02252250000000089,
          "durationTicks": 16,
          "midi": 35,
          "name": "B1",
          "ticks": 31496,
          "time": 44.33554125,
          "velocity": 0.889763779527559
        },
        {
          "duration": 0.02252250000000089,
          "durationTicks": 16,
          "midi": 45,
          "name": "A2",
          "ticks": 31496,
          "time": 44.33554125,
          "velocity": 0.3779527559055118
        },
        {
          "duration": 0.019707187499996337,
          "durationTicks": 14,
          "midi": 42,
          "name": "F#2",
          "ticks": 31626,
          "time": 44.5185365625,
          "velocity": 0.4881889763779528
        },
        {
          "duration": 0.019707187499996337,
          "durationTicks": 14,
          "midi": 70,
          "name": "A#4",
          "ticks": 31626,
          "time": 44.5185365625,
          "velocity": 0.7874015748031497
        },
        {
          "duration": 0.01689187499999889,
          "durationTicks": 12,
          "midi": 69,
          "name": "A4",
          "ticks": 31756,
          "time": 44.70153187500001,
          "velocity": 0.4094488188976378
        },
        {
          "duration": 0.01689187499999889,
          "durationTicks": 12,
          "midi": 35,
          "name": "B1",
          "ticks": 31756,
          "time": 44.70153187500001,
          "velocity": 0.8267716535433071
        },
        {
          "duration": 0.025337812499998336,
          "durationTicks": 18,
          "midi": 42,
          "name": "F#2",
          "ticks": 31880,
          "time": 44.87608125,
          "velocity": 0.4881889763779528
        },
        {
          "duration": 0.025337812499998336,
          "durationTicks": 18,
          "midi": 70,
          "name": "A#4",
          "ticks": 31880,
          "time": 44.87608125,
          "velocity": 0.8188976377952756
        },
        {
          "duration": 0.025337812499998336,
          "durationTicks": 18,
          "midi": 48,
          "name": "C3",
          "ticks": 31880,
          "time": 44.87608125,
          "velocity": 0.8818897637795275
        },
        {
          "duration": 0.025337812499998336,
          "durationTicks": 18,
          "midi": 69,
          "name": "A4",
          "ticks": 32008,
          "time": 45.056261250000006,
          "velocity": 0.4094488188976378
        },
        {
          "duration": 0.025337812499998336,
          "durationTicks": 18,
          "midi": 48,
          "name": "C3",
          "ticks": 32008,
          "time": 45.056261250000006,
          "velocity": 0.8188976377952756
        },
        {
          "duration": 0.0014076562499951706,
          "durationTicks": 1,
          "midi": 42,
          "name": "F#2",
          "ticks": 32146,
          "time": 45.25051781250001,
          "velocity": 0.4881889763779528
        },
        {
          "duration": 0.0014076562499951706,
          "durationTicks": 1,
          "midi": 70,
          "name": "A#4",
          "ticks": 32146,
          "time": 45.25051781250001,
          "velocity": 0.8503937007874016
        },
        {
          "duration": 0.0014076562499951706,
          "durationTicks": 1,
          "midi": 35,
          "name": "B1",
          "ticks": 32146,
          "time": 45.25051781250001,
          "velocity": 0.7322834645669292
        },
        {
          "duration": 0.0014076562499951706,
          "durationTicks": 1,
          "midi": 45,
          "name": "A2",
          "ticks": 32146,
          "time": 45.25051781250001,
          "velocity": 0.4094488188976378
        },
        {
          "duration": 0.028153124999995782,
          "durationTicks": 20,
          "midi": 69,
          "name": "A4",
          "ticks": 32266,
          "time": 45.4194365625,
          "velocity": 0.4094488188976378
        },
        {
          "duration": 0.028153124999995782,
          "durationTicks": 20,
          "midi": 0,
          "name": "C-1",
          "ticks": 32266,
          "time": 45.4194365625,
          "velocity": 0.6299212598425197
        },
        {
          "duration": 0.028153124999995782,
          "durationTicks": 20,
          "midi": 35,
          "name": "B1",
          "ticks": 32266,
          "time": 45.4194365625,
          "velocity": 1
        },
        {
          "duration": 0.014076562499994338,
          "durationTicks": 10,
          "midi": 42,
          "name": "F#2",
          "ticks": 32398,
          "time": 45.605247187500005,
          "velocity": 0.4881889763779528
        },
        {
          "duration": 0.014076562499994338,
          "durationTicks": 10,
          "midi": 70,
          "name": "A#4",
          "ticks": 32398,
          "time": 45.605247187500005,
          "velocity": 0.7874015748031497
        },
        {
          "duration": 0.019707187499996337,
          "durationTicks": 14,
          "midi": 69,
          "name": "A4",
          "ticks": 32526,
          "time": 45.785427187500005,
          "velocity": 0.4094488188976378
        },
        {
          "duration": 0.019707187499996337,
          "durationTicks": 14,
          "midi": 35,
          "name": "B1",
          "ticks": 32526,
          "time": 45.785427187500005,
          "velocity": 0.889763779527559
        },
        {
          "duration": 0.011261249999996892,
          "durationTicks": 8,
          "midi": 42,
          "name": "F#2",
          "ticks": 32656,
          "time": 45.9684225,
          "velocity": 0.4881889763779528
        },
        {
          "duration": 0.011261249999996892,
          "durationTicks": 8,
          "midi": 70,
          "name": "A#4",
          "ticks": 32656,
          "time": 45.9684225,
          "velocity": 0.8188976377952756
        },
        {
          "duration": 0.011261249999996892,
          "durationTicks": 8,
          "midi": 48,
          "name": "C3",
          "ticks": 32656,
          "time": 45.9684225,
          "velocity": 0.9763779527559056
        },
        {
          "duration": 0.022522499999993784,
          "durationTicks": 16,
          "midi": 69,
          "name": "A4",
          "ticks": 32776,
          "time": 46.137341250000006,
          "velocity": 0.4094488188976378
        },
        {
          "duration": 0.01689187499999889,
          "durationTicks": 12,
          "midi": 42,
          "name": "F#2",
          "ticks": 32908,
          "time": 46.32315187500001,
          "velocity": 0.4881889763779528
        },
        {
          "duration": 0.01689187499999889,
          "durationTicks": 12,
          "midi": 70,
          "name": "A#4",
          "ticks": 32908,
          "time": 46.32315187500001,
          "velocity": 0.8503937007874016
        },
        {
          "duration": 0.01689187499999889,
          "durationTicks": 12,
          "midi": 45,
          "name": "A2",
          "ticks": 32908,
          "time": 46.32315187500001,
          "velocity": 0.4094488188976378
        },
        {
          "duration": 0.019707187499996337,
          "durationTicks": 14,
          "midi": 69,
          "name": "A4",
          "ticks": 33036,
          "time": 46.503331875,
          "velocity": 0.4094488188976378
        },
        {
          "duration": 0.019707187499996337,
          "durationTicks": 14,
          "midi": 35,
          "name": "B1",
          "ticks": 33036,
          "time": 46.503331875,
          "velocity": 0.9212598425196851
        },
        {
          "duration": 0.019707187499996337,
          "durationTicks": 14,
          "midi": 45,
          "name": "A2",
          "ticks": 33036,
          "time": 46.503331875,
          "velocity": 0.3779527559055118
        },
        {
          "duration": 0.02252250000000089,
          "durationTicks": 16,
          "midi": 42,
          "name": "F#2",
          "ticks": 33162,
          "time": 46.6806965625,
          "velocity": 0.4881889763779528
        },
        {
          "duration": 0.02252250000000089,
          "durationTicks": 16,
          "midi": 70,
          "name": "A#4",
          "ticks": 33162,
          "time": 46.6806965625,
          "velocity": 0.7874015748031497
        },
        {
          "duration": 0.01689187499999889,
          "durationTicks": 12,
          "midi": 69,
          "name": "A4",
          "ticks": 33294,
          "time": 46.866507187500005,
          "velocity": 0.4094488188976378
        },
        {
          "duration": 0.01689187499999889,
          "durationTicks": 12,
          "midi": 35,
          "name": "B1",
          "ticks": 33294,
          "time": 46.866507187500005,
          "velocity": 0.8582677165354331
        },
        {
          "duration": 0.022522499999993784,
          "durationTicks": 16,
          "midi": 42,
          "name": "F#2",
          "ticks": 33418,
          "time": 47.0410565625,
          "velocity": 0.4881889763779528
        },
        {
          "duration": 0.022522499999993784,
          "durationTicks": 16,
          "midi": 70,
          "name": "A#4",
          "ticks": 33418,
          "time": 47.0410565625,
          "velocity": 0.8188976377952756
        },
        {
          "duration": 0.022522499999993784,
          "durationTicks": 16,
          "midi": 48,
          "name": "C3",
          "ticks": 33418,
          "time": 47.0410565625,
          "velocity": 0.9448818897637795
        },
        {
          "duration": 0.025337812499998336,
          "durationTicks": 18,
          "midi": 69,
          "name": "A4",
          "ticks": 33544,
          "time": 47.218421250000006,
          "velocity": 0.4094488188976378
        },
        {
          "duration": 0.011261250000003997,
          "durationTicks": 8,
          "midi": 45,
          "name": "A2",
          "ticks": 33680,
          "time": 47.4098625,
          "velocity": 0.47244094488188976
        },
        {
          "duration": 0.011261250000003997,
          "durationTicks": 8,
          "midi": 70,
          "name": "A#4",
          "ticks": 33680,
          "time": 47.4098625,
          "velocity": 0.8503937007874016
        },
        {
          "duration": 0.011261250000003997,
          "durationTicks": 8,
          "midi": 42,
          "name": "F#2",
          "ticks": 33680,
          "time": 47.4098625,
          "velocity": 0.4881889763779528
        },
        {
          "duration": 0.0014076562499951706,
          "durationTicks": 1,
          "midi": 69,
          "name": "A4",
          "ticks": 33814,
          "time": 47.5984884375,
          "velocity": 0.4094488188976378
        },
        {
          "duration": 0.0014076562499951706,
          "durationTicks": 1,
          "midi": 35,
          "name": "B1",
          "ticks": 33814,
          "time": 47.5984884375,
          "velocity": 0.9212598425196851
        },
        {
          "duration": 0.0014076562499951706,
          "durationTicks": 1,
          "midi": 45,
          "name": "A2",
          "ticks": 33814,
          "time": 47.5984884375,
          "velocity": 0.4094488188976378
        },
        {
          "duration": 0.025337812499998336,
          "durationTicks": 18,
          "midi": 42,
          "name": "F#2",
          "ticks": 33930,
          "time": 47.7617765625,
          "velocity": 0.4881889763779528
        },
        {
          "duration": 0.025337812499998336,
          "durationTicks": 18,
          "midi": 70,
          "name": "A#4",
          "ticks": 33930,
          "time": 47.7617765625,
          "velocity": 0.7874015748031497
        },
        {
          "duration": 0.01689187499999889,
          "durationTicks": 12,
          "midi": 69,
          "name": "A4",
          "ticks": 34060,
          "time": 47.94477187500001,
          "velocity": 0.4094488188976378
        },
        {
          "duration": 0.01689187499999889,
          "durationTicks": 12,
          "midi": 35,
          "name": "B1",
          "ticks": 34060,
          "time": 47.94477187500001,
          "velocity": 0.8267716535433071
        },
        {
          "duration": 0.01689187499999889,
          "durationTicks": 12,
          "midi": 42,
          "name": "F#2",
          "ticks": 34188,
          "time": 48.124951875,
          "velocity": 0.4881889763779528
        },
        {
          "duration": 0.01689187499999889,
          "durationTicks": 12,
          "midi": 70,
          "name": "A#4",
          "ticks": 34188,
          "time": 48.124951875,
          "velocity": 0.8188976377952756
        },
        {
          "duration": 0.01689187499999889,
          "durationTicks": 12,
          "midi": 48,
          "name": "C3",
          "ticks": 34188,
          "time": 48.124951875,
          "velocity": 0.9763779527559056
        },
        {
          "duration": 0.01689187499999889,
          "durationTicks": 12,
          "midi": 69,
          "name": "A4",
          "ticks": 34316,
          "time": 48.305131875,
          "velocity": 0.4094488188976378
        },
        {
          "duration": 0.022522500000007994,
          "durationTicks": 16,
          "midi": 45,
          "name": "A2",
          "ticks": 34440,
          "time": 48.47968125,
          "velocity": 0.47244094488188976
        },
        {
          "duration": 0.022522500000007994,
          "durationTicks": 16,
          "midi": 70,
          "name": "A#4",
          "ticks": 34440,
          "time": 48.47968125,
          "velocity": 0.8503937007874016
        },
        {
          "duration": 0.022522500000007994,
          "durationTicks": 16,
          "midi": 42,
          "name": "F#2",
          "ticks": 34440,
          "time": 48.47968125,
          "velocity": 0.4881889763779528
        },
        {
          "duration": 0.019707187499996337,
          "durationTicks": 14,
          "midi": 69,
          "name": "A4",
          "ticks": 34572,
          "time": 48.665491875,
          "velocity": 0.4094488188976378
        },
        {
          "duration": 0.019707187499996337,
          "durationTicks": 14,
          "midi": 35,
          "name": "B1",
          "ticks": 34572,
          "time": 48.665491875,
          "velocity": 0.9212598425196851
        },
        {
          "duration": 0.019707187499996337,
          "durationTicks": 14,
          "midi": 45,
          "name": "A2",
          "ticks": 34572,
          "time": 48.665491875,
          "velocity": 0.4094488188976378
        },
        {
          "duration": 0.02252250000000089,
          "durationTicks": 16,
          "midi": 42,
          "name": "F#2",
          "ticks": 34698,
          "time": 48.8428565625,
          "velocity": 0.4881889763779528
        },
        {
          "duration": 0.02252250000000089,
          "durationTicks": 16,
          "midi": 70,
          "name": "A#4",
          "ticks": 34698,
          "time": 48.8428565625,
          "velocity": 0.7874015748031497
        },
        {
          "duration": 0.019707187499996337,
          "durationTicks": 14,
          "midi": 69,
          "name": "A4",
          "ticks": 34828,
          "time": 49.02585187500001,
          "velocity": 0.4094488188976378
        },
        {
          "duration": 0.019707187499996337,
          "durationTicks": 14,
          "midi": 35,
          "name": "B1",
          "ticks": 34828,
          "time": 49.02585187500001,
          "velocity": 0.8582677165354331
        },
        {
          "duration": 0.014076562500001444,
          "durationTicks": 10,
          "midi": 42,
          "name": "F#2",
          "ticks": 34958,
          "time": 49.2088471875,
          "velocity": 0.4881889763779528
        },
        {
          "duration": 0.014076562500001444,
          "durationTicks": 10,
          "midi": 70,
          "name": "A#4",
          "ticks": 34958,
          "time": 49.2088471875,
          "velocity": 0.8188976377952756
        },
        {
          "duration": 0.014076562500001444,
          "durationTicks": 10,
          "midi": 48,
          "name": "C3",
          "ticks": 34958,
          "time": 49.2088471875,
          "velocity": 0.9448818897637795
        },
        {
          "duration": 0.02252250000000089,
          "durationTicks": 16,
          "midi": 69,
          "name": "A4",
          "ticks": 35084,
          "time": 49.386211875,
          "velocity": 0.4094488188976378
        },
        {
          "duration": 0.022522500000007994,
          "durationTicks": 16,
          "midi": 42,
          "name": "F#2",
          "ticks": 35210,
          "time": 49.563576562499996,
          "velocity": 0.4881889763779528
        },
        {
          "duration": 0.022522500000007994,
          "durationTicks": 16,
          "midi": 70,
          "name": "A#4",
          "ticks": 35210,
          "time": 49.563576562499996,
          "velocity": 0.8503937007874016
        },
        {
          "duration": 0.022522500000007994,
          "durationTicks": 16,
          "midi": 45,
          "name": "A2",
          "ticks": 35210,
          "time": 49.563576562499996,
          "velocity": 0.47244094488188976
        },
        {
          "duration": 0.0014076562499951706,
          "durationTicks": 1,
          "midi": 69,
          "name": "A4",
          "ticks": 35350,
          "time": 49.7606484375,
          "velocity": 0.4094488188976378
        },
        {
          "duration": 0.0014076562499951706,
          "durationTicks": 1,
          "midi": 35,
          "name": "B1",
          "ticks": 35350,
          "time": 49.7606484375,
          "velocity": 0.9212598425196851
        },
        {
          "duration": 0.0014076562499951706,
          "durationTicks": 1,
          "midi": 45,
          "name": "A2",
          "ticks": 35350,
          "time": 49.7606484375,
          "velocity": 0.4094488188976378
        },
        {
          "duration": 0.01689187499999889,
          "durationTicks": 12,
          "midi": 42,
          "name": "F#2",
          "ticks": 35470,
          "time": 49.929567187500005,
          "velocity": 0.4881889763779528
        },
        {
          "duration": 0.01689187499999889,
          "durationTicks": 12,
          "midi": 70,
          "name": "A#4",
          "ticks": 35470,
          "time": 49.929567187500005,
          "velocity": 0.7874015748031497
        },
        {
          "duration": 0.01689187499999889,
          "durationTicks": 12,
          "midi": 69,
          "name": "A4",
          "ticks": 35596,
          "time": 50.10693187500001,
          "velocity": 0.4094488188976378
        },
        {
          "duration": 0.01689187499999889,
          "durationTicks": 12,
          "midi": 35,
          "name": "B1",
          "ticks": 35596,
          "time": 50.10693187500001,
          "velocity": 0.8267716535433071
        },
        {
          "duration": 0.019707187500003442,
          "durationTicks": 14,
          "midi": 42,
          "name": "F#2",
          "ticks": 35726,
          "time": 50.2899271875,
          "velocity": 0.4881889763779528
        },
        {
          "duration": 0.019707187500003442,
          "durationTicks": 14,
          "midi": 70,
          "name": "A#4",
          "ticks": 35726,
          "time": 50.2899271875,
          "velocity": 0.8188976377952756
        },
        {
          "duration": 0.019707187500003442,
          "durationTicks": 14,
          "midi": 48,
          "name": "C3",
          "ticks": 35726,
          "time": 50.2899271875,
          "velocity": 0.9763779527559056
        },
        {
          "duration": 0.01689187499999889,
          "durationTicks": 12,
          "midi": 69,
          "name": "A4",
          "ticks": 35852,
          "time": 50.467291875,
          "velocity": 0.4094488188976378
        },
        {
          "duration": 0.01689187499999889,
          "durationTicks": 12,
          "midi": 42,
          "name": "F#2",
          "ticks": 35980,
          "time": 50.64747187500001,
          "velocity": 0.4881889763779528
        },
        {
          "duration": 0.01689187499999889,
          "durationTicks": 12,
          "midi": 70,
          "name": "A#4",
          "ticks": 35980,
          "time": 50.64747187500001,
          "velocity": 0.8503937007874016
        },
        {
          "duration": 0.01689187499999889,
          "durationTicks": 12,
          "midi": 45,
          "name": "A2",
          "ticks": 35980,
          "time": 50.64747187500001,
          "velocity": 0.47244094488188976
        },
        {
          "duration": 0.01689187499999889,
          "durationTicks": 12,
          "midi": 69,
          "name": "A4",
          "ticks": 36110,
          "time": 50.8304671875,
          "velocity": 0.4094488188976378
        },
        {
          "duration": 0.01689187499999889,
          "durationTicks": 12,
          "midi": 35,
          "name": "B1",
          "ticks": 36110,
          "time": 50.8304671875,
          "velocity": 0.9212598425196851
        },
        {
          "duration": 0.01689187499999889,
          "durationTicks": 12,
          "midi": 45,
          "name": "A2",
          "ticks": 36110,
          "time": 50.8304671875,
          "velocity": 0.4094488188976378
        },
        {
          "duration": 0.02252250000000089,
          "durationTicks": 16,
          "midi": 42,
          "name": "F#2",
          "ticks": 36234,
          "time": 51.0050165625,
          "velocity": 0.4881889763779528
        },
        {
          "duration": 0.02252250000000089,
          "durationTicks": 16,
          "midi": 70,
          "name": "A#4",
          "ticks": 36234,
          "time": 51.0050165625,
          "velocity": 0.7874015748031497
        },
        {
          "duration": 0.01689187499999889,
          "durationTicks": 12,
          "midi": 69,
          "name": "A4",
          "ticks": 36364,
          "time": 51.18801187500001,
          "velocity": 0.4094488188976378
        },
        {
          "duration": 0.01689187499999889,
          "durationTicks": 12,
          "midi": 35,
          "name": "B1",
          "ticks": 36364,
          "time": 51.18801187500001,
          "velocity": 0.8582677165354331
        },
        {
          "duration": 0.019707187499996337,
          "durationTicks": 14,
          "midi": 42,
          "name": "F#2",
          "ticks": 36492,
          "time": 51.368191875,
          "velocity": 0.4881889763779528
        },
        {
          "duration": 0.019707187499996337,
          "durationTicks": 14,
          "midi": 70,
          "name": "A#4",
          "ticks": 36492,
          "time": 51.368191875,
          "velocity": 0.8188976377952756
        },
        {
          "duration": 0.019707187499996337,
          "durationTicks": 14,
          "midi": 48,
          "name": "C3",
          "ticks": 36492,
          "time": 51.368191875,
          "velocity": 0.9448818897637795
        },
        {
          "duration": 0.01689187499999889,
          "durationTicks": 12,
          "midi": 69,
          "name": "A4",
          "ticks": 36620,
          "time": 51.548371875,
          "velocity": 0.4094488188976378
        },
        {
          "duration": 0.01689187499999889,
          "durationTicks": 12,
          "midi": 42,
          "name": "F#2",
          "ticks": 36748,
          "time": 51.72855187500001,
          "velocity": 0.4881889763779528
        },
        {
          "duration": 0.01689187499999889,
          "durationTicks": 12,
          "midi": 70,
          "name": "A#4",
          "ticks": 36748,
          "time": 51.72855187500001,
          "velocity": 0.8503937007874016
        },
        {
          "duration": 0.01689187499999889,
          "durationTicks": 12,
          "midi": 45,
          "name": "A2",
          "ticks": 36748,
          "time": 51.72855187500001,
          "velocity": 0.47244094488188976
        },
        {
          "duration": 0.0014076562499951706,
          "durationTicks": 1,
          "midi": 69,
          "name": "A4",
          "ticks": 36886,
          "time": 51.9228084375,
          "velocity": 0.4094488188976378
        },
        {
          "duration": 0.0014076562499951706,
          "durationTicks": 1,
          "midi": 35,
          "name": "B1",
          "ticks": 36886,
          "time": 51.9228084375,
          "velocity": 0.9212598425196851
        },
        {
          "duration": 0.0014076562499951706,
          "durationTicks": 1,
          "midi": 45,
          "name": "A2",
          "ticks": 36886,
          "time": 51.9228084375,
          "velocity": 0.4094488188976378
        },
        {
          "duration": 0.019707187499996337,
          "durationTicks": 14,
          "midi": 42,
          "name": "F#2",
          "ticks": 37002,
          "time": 52.0860965625,
          "velocity": 0.4881889763779528
        },
        {
          "duration": 0.019707187499996337,
          "durationTicks": 14,
          "midi": 70,
          "name": "A#4",
          "ticks": 37002,
          "time": 52.0860965625,
          "velocity": 0.7874015748031497
        },
        {
          "duration": 0.01689187499999889,
          "durationTicks": 12,
          "midi": 69,
          "name": "A4",
          "ticks": 37132,
          "time": 52.26909187500001,
          "velocity": 0.4094488188976378
        },
        {
          "duration": 0.01689187499999889,
          "durationTicks": 12,
          "midi": 35,
          "name": "B1",
          "ticks": 37132,
          "time": 52.26909187500001,
          "velocity": 0.8267716535433071
        },
        {
          "duration": 0.02252250000000089,
          "durationTicks": 16,
          "midi": 42,
          "name": "F#2",
          "ticks": 37256,
          "time": 52.44364125,
          "velocity": 0.4881889763779528
        },
        {
          "duration": 0.02252250000000089,
          "durationTicks": 16,
          "midi": 70,
          "name": "A#4",
          "ticks": 37256,
          "time": 52.44364125,
          "velocity": 0.8188976377952756
        },
        {
          "duration": 0.02252250000000089,
          "durationTicks": 16,
          "midi": 48,
          "name": "C3",
          "ticks": 37256,
          "time": 52.44364125,
          "velocity": 0.9763779527559056
        },
        {
          "duration": 0.019707187499996337,
          "durationTicks": 14,
          "midi": 69,
          "name": "A4",
          "ticks": 37386,
          "time": 52.6266365625,
          "velocity": 0.4094488188976378
        },
        {
          "duration": 0.01689187499999889,
          "durationTicks": 12,
          "midi": 42,
          "name": "F#2",
          "ticks": 37518,
          "time": 52.812447187500005,
          "velocity": 0.4881889763779528
        },
        {
          "duration": 0.01689187499999889,
          "durationTicks": 12,
          "midi": 70,
          "name": "A#4",
          "ticks": 37518,
          "time": 52.812447187500005,
          "velocity": 0.8503937007874016
        },
        {
          "duration": 0.01689187499999889,
          "durationTicks": 12,
          "midi": 45,
          "name": "A2",
          "ticks": 37518,
          "time": 52.812447187500005,
          "velocity": 0.47244094488188976
        },
        {
          "duration": 0.019707187499996337,
          "durationTicks": 14,
          "midi": 69,
          "name": "A4",
          "ticks": 37644,
          "time": 52.989811875,
          "velocity": 0.4094488188976378
        },
        {
          "duration": 0.019707187499996337,
          "durationTicks": 14,
          "midi": 35,
          "name": "B1",
          "ticks": 37644,
          "time": 52.989811875,
          "velocity": 0.9212598425196851
        },
        {
          "duration": 0.019707187499996337,
          "durationTicks": 14,
          "midi": 45,
          "name": "A2",
          "ticks": 37644,
          "time": 52.989811875,
          "velocity": 0.4094488188976378
        },
        {
          "duration": 0.01689187499999889,
          "durationTicks": 12,
          "midi": 42,
          "name": "F#2",
          "ticks": 37772,
          "time": 53.169991875,
          "velocity": 0.4881889763779528
        },
        {
          "duration": 0.01689187499999889,
          "durationTicks": 12,
          "midi": 70,
          "name": "A#4",
          "ticks": 37772,
          "time": 53.169991875,
          "velocity": 0.7874015748031497
        },
        {
          "duration": 0.019707187500010548,
          "durationTicks": 14,
          "midi": 69,
          "name": "A4",
          "ticks": 37898,
          "time": 53.347356562499996,
          "velocity": 0.4094488188976378
        },
        {
          "duration": 0.019707187500010548,
          "durationTicks": 14,
          "midi": 35,
          "name": "B1",
          "ticks": 37898,
          "time": 53.347356562499996,
          "velocity": 0.8582677165354331
        },
        {
          "duration": 0.014076562499994338,
          "durationTicks": 10,
          "midi": 42,
          "name": "F#2",
          "ticks": 38032,
          "time": 53.5359825,
          "velocity": 0.4881889763779528
        },
        {
          "duration": 0.014076562499994338,
          "durationTicks": 10,
          "midi": 70,
          "name": "A#4",
          "ticks": 38032,
          "time": 53.5359825,
          "velocity": 0.8188976377952756
        },
        {
          "duration": 0.014076562499994338,
          "durationTicks": 10,
          "midi": 48,
          "name": "C3",
          "ticks": 38032,
          "time": 53.5359825,
          "velocity": 0.9448818897637795
        },
        {
          "duration": 0.022522499999993784,
          "durationTicks": 16,
          "midi": 69,
          "name": "A4",
          "ticks": 38152,
          "time": 53.704901250000006,
          "velocity": 0.4094488188976378
        },
        {
          "duration": 0.014076562500001444,
          "durationTicks": 10,
          "midi": 42,
          "name": "F#2",
          "ticks": 38286,
          "time": 53.893527187500005,
          "velocity": 0.4881889763779528
        },
        {
          "duration": 0.014076562500001444,
          "durationTicks": 10,
          "midi": 70,
          "name": "A#4",
          "ticks": 38286,
          "time": 53.893527187500005,
          "velocity": 0.8503937007874016
        },
        {
          "duration": 0.014076562500001444,
          "durationTicks": 10,
          "midi": 45,
          "name": "A2",
          "ticks": 38286,
          "time": 53.893527187500005,
          "velocity": 0.47244094488188976
        },
        {
          "duration": 0.0014076562499951706,
          "durationTicks": 1,
          "midi": 69,
          "name": "A4",
          "ticks": 38422,
          "time": 54.0849684375,
          "velocity": 0.4094488188976378
        },
        {
          "duration": 0.0014076562499951706,
          "durationTicks": 1,
          "midi": 35,
          "name": "B1",
          "ticks": 38422,
          "time": 54.0849684375,
          "velocity": 0.9212598425196851
        },
        {
          "duration": 0.0014076562499951706,
          "durationTicks": 1,
          "midi": 45,
          "name": "A2",
          "ticks": 38422,
          "time": 54.0849684375,
          "velocity": 0.4094488188976378
        },
        {
          "duration": 0.025337812499998336,
          "durationTicks": 18,
          "midi": 42,
          "name": "F#2",
          "ticks": 38536,
          "time": 54.245441250000006,
          "velocity": 0.4881889763779528
        },
        {
          "duration": 0.025337812499998336,
          "durationTicks": 18,
          "midi": 70,
          "name": "A#4",
          "ticks": 38536,
          "time": 54.245441250000006,
          "velocity": 0.7874015748031497
        },
        {
          "duration": 0.019707187499996337,
          "durationTicks": 14,
          "midi": 69,
          "name": "A4",
          "ticks": 38668,
          "time": 54.43125187500001,
          "velocity": 0.4094488188976378
        },
        {
          "duration": 0.019707187499996337,
          "durationTicks": 14,
          "midi": 35,
          "name": "B1",
          "ticks": 38668,
          "time": 54.43125187500001,
          "velocity": 0.8267716535433071
        },
        {
          "duration": 0.025337812499998336,
          "durationTicks": 18,
          "midi": 42,
          "name": "F#2",
          "ticks": 38792,
          "time": 54.60580125,
          "velocity": 0.4881889763779528
        },
        {
          "duration": 0.025337812499998336,
          "durationTicks": 18,
          "midi": 70,
          "name": "A#4",
          "ticks": 38792,
          "time": 54.60580125,
          "velocity": 0.8188976377952756
        },
        {
          "duration": 0.025337812499998336,
          "durationTicks": 18,
          "midi": 48,
          "name": "C3",
          "ticks": 38792,
          "time": 54.60580125,
          "velocity": 0.9763779527559056
        },
        {
          "duration": 0.025337812499998336,
          "durationTicks": 18,
          "midi": 69,
          "name": "A4",
          "ticks": 38920,
          "time": 54.785981250000006,
          "velocity": 0.4094488188976378
        },
        {
          "duration": 0.02533781250000544,
          "durationTicks": 18,
          "midi": 42,
          "name": "F#2",
          "ticks": 39050,
          "time": 54.968976562499996,
          "velocity": 0.4881889763779528
        },
        {
          "duration": 0.02533781250000544,
          "durationTicks": 18,
          "midi": 70,
          "name": "A#4",
          "ticks": 39050,
          "time": 54.968976562499996,
          "velocity": 0.8503937007874016
        },
        {
          "duration": 0.02533781250000544,
          "durationTicks": 18,
          "midi": 45,
          "name": "A2",
          "ticks": 39050,
          "time": 54.968976562499996,
          "velocity": 0.47244094488188976
        },
        {
          "duration": 0.0014076562499951706,
          "durationTicks": 1,
          "midi": 69,
          "name": "A4",
          "ticks": 39190,
          "time": 55.1660484375,
          "velocity": 0.4094488188976378
        },
        {
          "duration": 0.0014076562499951706,
          "durationTicks": 1,
          "midi": 35,
          "name": "B1",
          "ticks": 39190,
          "time": 55.1660484375,
          "velocity": 0.9212598425196851
        },
        {
          "duration": 0.0014076562499951706,
          "durationTicks": 1,
          "midi": 45,
          "name": "A2",
          "ticks": 39190,
          "time": 55.1660484375,
          "velocity": 0.4094488188976378
        },
        {
          "duration": 0.025337812499998336,
          "durationTicks": 18,
          "midi": 42,
          "name": "F#2",
          "ticks": 39306,
          "time": 55.3293365625,
          "velocity": 0.4881889763779528
        },
        {
          "duration": 0.025337812499998336,
          "durationTicks": 18,
          "midi": 70,
          "name": "A#4",
          "ticks": 39306,
          "time": 55.3293365625,
          "velocity": 0.7874015748031497
        },
        {
          "duration": 0.019707187499996337,
          "durationTicks": 14,
          "midi": 69,
          "name": "A4",
          "ticks": 39436,
          "time": 55.51233187500001,
          "velocity": 0.4094488188976378
        },
        {
          "duration": 0.019707187499996337,
          "durationTicks": 14,
          "midi": 35,
          "name": "B1",
          "ticks": 39436,
          "time": 55.51233187500001,
          "velocity": 0.8582677165354331
        },
        {
          "duration": 0.01689187499999889,
          "durationTicks": 12,
          "midi": 42,
          "name": "F#2",
          "ticks": 39566,
          "time": 55.6953271875,
          "velocity": 0.4881889763779528
        },
        {
          "duration": 0.01689187499999889,
          "durationTicks": 12,
          "midi": 70,
          "name": "A#4",
          "ticks": 39566,
          "time": 55.6953271875,
          "velocity": 0.8188976377952756
        },
        {
          "duration": 0.01689187499999889,
          "durationTicks": 12,
          "midi": 48,
          "name": "C3",
          "ticks": 39566,
          "time": 55.6953271875,
          "velocity": 0.9448818897637795
        },
        {
          "duration": 0.02252250000000089,
          "durationTicks": 16,
          "midi": 69,
          "name": "A4",
          "ticks": 39690,
          "time": 55.869876562500004,
          "velocity": 0.4094488188976378
        },
        {
          "duration": 0.022522500000007994,
          "durationTicks": 16,
          "midi": 42,
          "name": "F#2",
          "ticks": 39818,
          "time": 56.0500565625,
          "velocity": 0.4881889763779528
        },
        {
          "duration": 0.022522500000007994,
          "durationTicks": 16,
          "midi": 70,
          "name": "A#4",
          "ticks": 39818,
          "time": 56.0500565625,
          "velocity": 0.8503937007874016
        },
        {
          "duration": 0.022522500000007994,
          "durationTicks": 16,
          "midi": 45,
          "name": "A2",
          "ticks": 39818,
          "time": 56.0500565625,
          "velocity": 0.47244094488188976
        },
        {
          "duration": 0.0014076562499951706,
          "durationTicks": 1,
          "midi": 69,
          "name": "A4",
          "ticks": 39958,
          "time": 56.2471284375,
          "velocity": 0.4094488188976378
        },
        {
          "duration": 0.0014076562499951706,
          "durationTicks": 1,
          "midi": 35,
          "name": "B1",
          "ticks": 39958,
          "time": 56.2471284375,
          "velocity": 0.9212598425196851
        },
        {
          "duration": 0.0014076562499951706,
          "durationTicks": 1,
          "midi": 45,
          "name": "A2",
          "ticks": 39958,
          "time": 56.2471284375,
          "velocity": 0.4094488188976378
        },
        {
          "duration": 0.025337812499998336,
          "durationTicks": 18,
          "midi": 42,
          "name": "F#2",
          "ticks": 40074,
          "time": 56.410416562500004,
          "velocity": 0.4881889763779528
        },
        {
          "duration": 0.025337812499998336,
          "durationTicks": 18,
          "midi": 70,
          "name": "A#4",
          "ticks": 40074,
          "time": 56.410416562500004,
          "velocity": 0.7874015748031497
        },
        {
          "duration": 0.01689187499999889,
          "durationTicks": 12,
          "midi": 69,
          "name": "A4",
          "ticks": 40206,
          "time": 56.596227187500006,
          "velocity": 0.4094488188976378
        },
        {
          "duration": 0.01689187499999889,
          "durationTicks": 12,
          "midi": 35,
          "name": "B1",
          "ticks": 40206,
          "time": 56.596227187500006,
          "velocity": 0.8267716535433071
        },
        {
          "duration": 0.02252250000000089,
          "durationTicks": 16,
          "midi": 42,
          "name": "F#2",
          "ticks": 40328,
          "time": 56.76796125,
          "velocity": 0.4881889763779528
        },
        {
          "duration": 0.02252250000000089,
          "durationTicks": 16,
          "midi": 70,
          "name": "A#4",
          "ticks": 40328,
          "time": 56.76796125,
          "velocity": 0.8188976377952756
        },
        {
          "duration": 0.02252250000000089,
          "durationTicks": 16,
          "midi": 48,
          "name": "C3",
          "ticks": 40328,
          "time": 56.76796125,
          "velocity": 0.9763779527559056
        },
        {
          "duration": 0.025337812499998336,
          "durationTicks": 18,
          "midi": 69,
          "name": "A4",
          "ticks": 40456,
          "time": 56.948141250000006,
          "velocity": 0.4094488188976378
        },
        {
          "duration": 0.01689187499999889,
          "durationTicks": 12,
          "midi": 42,
          "name": "F#2",
          "ticks": 40590,
          "time": 57.136767187500006,
          "velocity": 0.4881889763779528
        },
        {
          "duration": 0.01689187499999889,
          "durationTicks": 12,
          "midi": 70,
          "name": "A#4",
          "ticks": 40590,
          "time": 57.136767187500006,
          "velocity": 0.8503937007874016
        },
        {
          "duration": 0.01689187499999889,
          "durationTicks": 12,
          "midi": 45,
          "name": "A2",
          "ticks": 40590,
          "time": 57.136767187500006,
          "velocity": 0.47244094488188976
        },
        {
          "duration": 0.0014076562499951706,
          "durationTicks": 1,
          "midi": 69,
          "name": "A4",
          "ticks": 40726,
          "time": 57.3282084375,
          "velocity": 0.4094488188976378
        },
        {
          "duration": 0.0014076562499951706,
          "durationTicks": 1,
          "midi": 35,
          "name": "B1",
          "ticks": 40726,
          "time": 57.3282084375,
          "velocity": 0.9212598425196851
        },
        {
          "duration": 0.0014076562499951706,
          "durationTicks": 1,
          "midi": 45,
          "name": "A2",
          "ticks": 40726,
          "time": 57.3282084375,
          "velocity": 0.4094488188976378
        },
        {
          "duration": 0.019707187500003442,
          "durationTicks": 14,
          "midi": 42,
          "name": "F#2",
          "ticks": 40844,
          "time": 57.494311875,
          "velocity": 0.4881889763779528
        },
        {
          "duration": 0.019707187500003442,
          "durationTicks": 14,
          "midi": 70,
          "name": "A#4",
          "ticks": 40844,
          "time": 57.494311875,
          "velocity": 0.7874015748031497
        },
        {
          "duration": 0.019707187500003442,
          "durationTicks": 14,
          "midi": 48,
          "name": "C3",
          "ticks": 40844,
          "time": 57.494311875,
          "velocity": 0.8818897637795275
        },
        {
          "duration": 0.014076562500001444,
          "durationTicks": 10,
          "midi": 69,
          "name": "A4",
          "ticks": 40974,
          "time": 57.677307187500006,
          "velocity": 0.4094488188976378
        },
        {
          "duration": 0.014076562500001444,
          "durationTicks": 10,
          "midi": 35,
          "name": "B1",
          "ticks": 40974,
          "time": 57.677307187500006,
          "velocity": 0.8582677165354331
        },
        {
          "duration": 0.019707187499996337,
          "durationTicks": 14,
          "midi": 42,
          "name": "F#2",
          "ticks": 41100,
          "time": 57.854671875,
          "velocity": 0.4881889763779528
        },
        {
          "duration": 0.019707187499996337,
          "durationTicks": 14,
          "midi": 70,
          "name": "A#4",
          "ticks": 41100,
          "time": 57.854671875,
          "velocity": 0.8188976377952756
        },
        {
          "duration": 0.019707187499996337,
          "durationTicks": 14,
          "midi": 48,
          "name": "C3",
          "ticks": 41100,
          "time": 57.854671875,
          "velocity": 0.9763779527559056
        },
        {
          "duration": 0.01689187499999889,
          "durationTicks": 12,
          "midi": 69,
          "name": "A4",
          "ticks": 41228,
          "time": 58.034851875,
          "velocity": 0.4094488188976378
        },
        {
          "duration": 0.01689187499999889,
          "durationTicks": 12,
          "midi": 48,
          "name": "C3",
          "ticks": 41228,
          "time": 58.034851875,
          "velocity": 0.7244094488188977
        },
        {
          "duration": 0.014076562500001444,
          "durationTicks": 10,
          "midi": 45,
          "name": "A2",
          "ticks": 41360,
          "time": 58.2206625,
          "velocity": 0.47244094488188976
        },
        {
          "duration": 0.014076562500001444,
          "durationTicks": 10,
          "midi": 48,
          "name": "C3",
          "ticks": 41360,
          "time": 58.2206625,
          "velocity": 0.8503937007874016
        },
        {
          "duration": 0.014076562500001444,
          "durationTicks": 10,
          "midi": 70,
          "name": "A#4",
          "ticks": 41360,
          "time": 58.2206625,
          "velocity": 0.8503937007874016
        },
        {
          "duration": 0.014076562500001444,
          "durationTicks": 10,
          "midi": 42,
          "name": "F#2",
          "ticks": 41360,
          "time": 58.2206625,
          "velocity": 0.4881889763779528
        },
        {
          "duration": 0.0014076562499951706,
          "durationTicks": 1,
          "midi": 69,
          "name": "A4",
          "ticks": 41494,
          "time": 58.4092884375,
          "velocity": 0.4094488188976378
        },
        {
          "duration": 0.0014076562499951706,
          "durationTicks": 1,
          "midi": 35,
          "name": "B1",
          "ticks": 41494,
          "time": 58.4092884375,
          "velocity": 0.889763779527559
        },
        {
          "duration": 0.02252250000000089,
          "durationTicks": 16,
          "midi": 42,
          "name": "F#2",
          "ticks": 41610,
          "time": 58.572576562500004,
          "velocity": 0.4881889763779528
        },
        {
          "duration": 0.02252250000000089,
          "durationTicks": 16,
          "midi": 70,
          "name": "A#4",
          "ticks": 41610,
          "time": 58.572576562500004,
          "velocity": 0.7874015748031497
        },
        {
          "duration": 0.019707187499996337,
          "durationTicks": 14,
          "midi": 69,
          "name": "A4",
          "ticks": 41740,
          "time": 58.75557187500001,
          "velocity": 0.4094488188976378
        },
        {
          "duration": 0.019707187499996337,
          "durationTicks": 14,
          "midi": 35,
          "name": "B1",
          "ticks": 41740,
          "time": 58.75557187500001,
          "velocity": 0.7637795275590551
        },
        {
          "duration": 0.019707187499996337,
          "durationTicks": 14,
          "midi": 42,
          "name": "F#2",
          "ticks": 41866,
          "time": 58.932936562500004,
          "velocity": 0.4881889763779528
        },
        {
          "duration": 0.019707187499996337,
          "durationTicks": 14,
          "midi": 70,
          "name": "A#4",
          "ticks": 41866,
          "time": 58.932936562500004,
          "velocity": 0.8188976377952756
        },
        {
          "duration": 0.019707187499996337,
          "durationTicks": 14,
          "midi": 48,
          "name": "C3",
          "ticks": 41866,
          "time": 58.932936562500004,
          "velocity": 0.9448818897637795
        },
        {
          "duration": 0.025337812499998336,
          "durationTicks": 18,
          "midi": 69,
          "name": "A4",
          "ticks": 41992,
          "time": 59.110301250000006,
          "velocity": 0.4094488188976378
        },
        {
          "duration": 0.03096843750000744,
          "durationTicks": 22,
          "midi": 42,
          "name": "F#2",
          "ticks": 42122,
          "time": 59.2932965625,
          "velocity": 0.4881889763779528
        },
        {
          "duration": 0.03096843750000744,
          "durationTicks": 22,
          "midi": 70,
          "name": "A#4",
          "ticks": 42122,
          "time": 59.2932965625,
          "velocity": 0.8503937007874016
        },
        {
          "duration": 0.03096843750000744,
          "durationTicks": 22,
          "midi": 45,
          "name": "A2",
          "ticks": 42122,
          "time": 59.2932965625,
          "velocity": 0.3779527559055118
        },
        {
          "duration": 0.028153125000002888,
          "durationTicks": 20,
          "midi": 69,
          "name": "A4",
          "ticks": 42248,
          "time": 59.47066125,
          "velocity": 0.4094488188976378
        },
        {
          "duration": 0.028153125000002888,
          "durationTicks": 20,
          "midi": 35,
          "name": "B1",
          "ticks": 42248,
          "time": 59.47066125,
          "velocity": 0.889763779527559
        },
        {
          "duration": 0.028153125000002888,
          "durationTicks": 20,
          "midi": 45,
          "name": "A2",
          "ticks": 42248,
          "time": 59.47066125,
          "velocity": 0.3464566929133858
        },
        {
          "duration": 0.02252250000000089,
          "durationTicks": 16,
          "midi": 42,
          "name": "F#2",
          "ticks": 42378,
          "time": 59.653656562500004,
          "velocity": 0.4881889763779528
        },
        {
          "duration": 0.02252250000000089,
          "durationTicks": 16,
          "midi": 70,
          "name": "A#4",
          "ticks": 42378,
          "time": 59.653656562500004,
          "velocity": 0.7874015748031497
        },
        {
          "duration": 0.01689187499999889,
          "durationTicks": 12,
          "midi": 69,
          "name": "A4",
          "ticks": 42508,
          "time": 59.83665187500001,
          "velocity": 0.4094488188976378
        },
        {
          "duration": 0.01689187499999889,
          "durationTicks": 12,
          "midi": 35,
          "name": "B1",
          "ticks": 42508,
          "time": 59.83665187500001,
          "velocity": 0.8267716535433071
        },
        {
          "duration": 0.014076562500001444,
          "durationTicks": 10,
          "midi": 42,
          "name": "F#2",
          "ticks": 42638,
          "time": 60.0196471875,
          "velocity": 0.4881889763779528
        },
        {
          "duration": 0.014076562500001444,
          "durationTicks": 10,
          "midi": 70,
          "name": "A#4",
          "ticks": 42638,
          "time": 60.0196471875,
          "velocity": 0.8188976377952756
        },
        {
          "duration": 0.014076562500001444,
          "durationTicks": 10,
          "midi": 48,
          "name": "C3",
          "ticks": 42638,
          "time": 60.0196471875,
          "velocity": 0.8818897637795275
        },
        {
          "duration": 0.019707187499996337,
          "durationTicks": 14,
          "midi": 69,
          "name": "A4",
          "ticks": 42762,
          "time": 60.194196562500004,
          "velocity": 0.4094488188976378
        },
        {
          "duration": 0.01689187499999889,
          "durationTicks": 12,
          "midi": 42,
          "name": "F#2",
          "ticks": 42894,
          "time": 60.380007187500006,
          "velocity": 0.4881889763779528
        },
        {
          "duration": 0.01689187499999889,
          "durationTicks": 12,
          "midi": 70,
          "name": "A#4",
          "ticks": 42894,
          "time": 60.380007187500006,
          "velocity": 0.8503937007874016
        },
        {
          "duration": 0.01689187499999889,
          "durationTicks": 12,
          "midi": 45,
          "name": "A2",
          "ticks": 42894,
          "time": 60.380007187500006,
          "velocity": 0.4094488188976378
        },
        {
          "duration": 0.02252250000000089,
          "durationTicks": 16,
          "midi": 69,
          "name": "A4",
          "ticks": 43020,
          "time": 60.557371875,
          "velocity": 0.4094488188976378
        },
        {
          "duration": 0.02252250000000089,
          "durationTicks": 16,
          "midi": 35,
          "name": "B1",
          "ticks": 43020,
          "time": 60.557371875,
          "velocity": 0.889763779527559
        },
        {
          "duration": 0.02252250000000089,
          "durationTicks": 16,
          "midi": 45,
          "name": "A2",
          "ticks": 43020,
          "time": 60.557371875,
          "velocity": 0.3779527559055118
        },
        {
          "duration": 0.01689187499999889,
          "durationTicks": 12,
          "midi": 42,
          "name": "F#2",
          "ticks": 43146,
          "time": 60.734736562500004,
          "velocity": 0.4881889763779528
        },
        {
          "duration": 0.01689187499999889,
          "durationTicks": 12,
          "midi": 70,
          "name": "A#4",
          "ticks": 43146,
          "time": 60.734736562500004,
          "velocity": 0.7874015748031497
        },
        {
          "duration": 0.01689187499999889,
          "durationTicks": 12,
          "midi": 69,
          "name": "A4",
          "ticks": 43276,
          "time": 60.91773187500001,
          "velocity": 0.4094488188976378
        },
        {
          "duration": 0.01689187499999889,
          "durationTicks": 12,
          "midi": 35,
          "name": "B1",
          "ticks": 43276,
          "time": 60.91773187500001,
          "velocity": 0.7637795275590551
        },
        {
          "duration": 0.014076562500001444,
          "durationTicks": 10,
          "midi": 42,
          "name": "F#2",
          "ticks": 43406,
          "time": 61.1007271875,
          "velocity": 0.4881889763779528
        },
        {
          "duration": 0.014076562500001444,
          "durationTicks": 10,
          "midi": 70,
          "name": "A#4",
          "ticks": 43406,
          "time": 61.1007271875,
          "velocity": 0.8188976377952756
        },
        {
          "duration": 0.014076562500001444,
          "durationTicks": 10,
          "midi": 48,
          "name": "C3",
          "ticks": 43406,
          "time": 61.1007271875,
          "velocity": 0.9448818897637795
        },
        {
          "duration": 0.014076562500001444,
          "durationTicks": 10,
          "midi": 69,
          "name": "A4",
          "ticks": 43532,
          "time": 61.278091875,
          "velocity": 0.4094488188976378
        },
        {
          "duration": 0.008445937499999445,
          "durationTicks": 6,
          "midi": 42,
          "name": "F#2",
          "ticks": 43666,
          "time": 61.46671781250001,
          "velocity": 0.4881889763779528
        },
        {
          "duration": 0.008445937499999445,
          "durationTicks": 6,
          "midi": 70,
          "name": "A#4",
          "ticks": 43666,
          "time": 61.46671781250001,
          "velocity": 0.8503937007874016
        },
        {
          "duration": 0.008445937499999445,
          "durationTicks": 6,
          "midi": 45,
          "name": "A2",
          "ticks": 43666,
          "time": 61.46671781250001,
          "velocity": 0.4094488188976378
        },
        {
          "duration": 0.025337812499998336,
          "durationTicks": 18,
          "midi": 69,
          "name": "A4",
          "ticks": 43784,
          "time": 61.63282125,
          "velocity": 0.4094488188976378
        },
        {
          "duration": 0.025337812499998336,
          "durationTicks": 18,
          "midi": 35,
          "name": "B1",
          "ticks": 43784,
          "time": 61.63282125,
          "velocity": 0.889763779527559
        },
        {
          "duration": 0.025337812499998336,
          "durationTicks": 18,
          "midi": 45,
          "name": "A2",
          "ticks": 43784,
          "time": 61.63282125,
          "velocity": 0.3779527559055118
        },
        {
          "duration": 0.01689187499999889,
          "durationTicks": 12,
          "midi": 42,
          "name": "F#2",
          "ticks": 43916,
          "time": 61.818631875,
          "velocity": 0.4881889763779528
        },
        {
          "duration": 0.01689187499999889,
          "durationTicks": 12,
          "midi": 70,
          "name": "A#4",
          "ticks": 43916,
          "time": 61.818631875,
          "velocity": 0.7874015748031497
        },
        {
          "duration": 0.022522500000007994,
          "durationTicks": 16,
          "midi": 35,
          "name": "B1",
          "ticks": 44040,
          "time": 61.99318125,
          "velocity": 0.8267716535433071
        },
        {
          "duration": 0.022522500000007994,
          "durationTicks": 16,
          "midi": 69,
          "name": "A4",
          "ticks": 44040,
          "time": 61.99318125,
          "velocity": 0.4094488188976378
        },
        {
          "duration": 0.025337812499998336,
          "durationTicks": 18,
          "midi": 42,
          "name": "F#2",
          "ticks": 44168,
          "time": 62.17336125,
          "velocity": 0.4881889763779528
        },
        {
          "duration": 0.025337812499998336,
          "durationTicks": 18,
          "midi": 70,
          "name": "A#4",
          "ticks": 44168,
          "time": 62.17336125,
          "velocity": 0.8188976377952756
        },
        {
          "duration": 0.025337812499998336,
          "durationTicks": 18,
          "midi": 48,
          "name": "C3",
          "ticks": 44168,
          "time": 62.17336125,
          "velocity": 0.8818897637795275
        },
        {
          "duration": 0.019707187500003442,
          "durationTicks": 14,
          "midi": 69,
          "name": "A4",
          "ticks": 44300,
          "time": 62.359171875,
          "velocity": 0.4094488188976378
        },
        {
          "duration": 0.02533781250000544,
          "durationTicks": 18,
          "midi": 42,
          "name": "F#2",
          "ticks": 44426,
          "time": 62.5365365625,
          "velocity": 0.4881889763779528
        },
        {
          "duration": 0.02533781250000544,
          "durationTicks": 18,
          "midi": 70,
          "name": "A#4",
          "ticks": 44426,
          "time": 62.5365365625,
          "velocity": 0.8503937007874016
        },
        {
          "duration": 0.02533781250000544,
          "durationTicks": 18,
          "midi": 45,
          "name": "A2",
          "ticks": 44426,
          "time": 62.5365365625,
          "velocity": 0.4094488188976378
        },
        {
          "duration": 0.0014076562499951706,
          "durationTicks": 1,
          "midi": 69,
          "name": "A4",
          "ticks": 44566,
          "time": 62.7336084375,
          "velocity": 0.4094488188976378
        },
        {
          "duration": 0.0014076562499951706,
          "durationTicks": 1,
          "midi": 35,
          "name": "B1",
          "ticks": 44566,
          "time": 62.7336084375,
          "velocity": 0.889763779527559
        },
        {
          "duration": 0.0014076562499951706,
          "durationTicks": 1,
          "midi": 45,
          "name": "A2",
          "ticks": 44566,
          "time": 62.7336084375,
          "velocity": 0.3779527559055118
        },
        {
          "duration": 0.01689187499999889,
          "durationTicks": 12,
          "midi": 42,
          "name": "F#2",
          "ticks": 44684,
          "time": 62.899711875,
          "velocity": 0.4881889763779528
        },
        {
          "duration": 0.01689187499999889,
          "durationTicks": 12,
          "midi": 70,
          "name": "A#4",
          "ticks": 44684,
          "time": 62.899711875,
          "velocity": 0.7874015748031497
        },
        {
          "duration": 0.019707187500010548,
          "durationTicks": 14,
          "midi": 69,
          "name": "A4",
          "ticks": 44810,
          "time": 63.0770765625,
          "velocity": 0.4094488188976378
        },
        {
          "duration": 0.019707187500010548,
          "durationTicks": 14,
          "midi": 35,
          "name": "B1",
          "ticks": 44810,
          "time": 63.0770765625,
          "velocity": 0.7637795275590551
        },
        {
          "duration": 0.025337812499998336,
          "durationTicks": 18,
          "midi": 42,
          "name": "F#2",
          "ticks": 44936,
          "time": 63.25444125,
          "velocity": 0.4881889763779528
        },
        {
          "duration": 0.025337812499998336,
          "durationTicks": 18,
          "midi": 70,
          "name": "A#4",
          "ticks": 44936,
          "time": 63.25444125,
          "velocity": 0.8188976377952756
        },
        {
          "duration": 0.025337812499998336,
          "durationTicks": 18,
          "midi": 48,
          "name": "C3",
          "ticks": 44936,
          "time": 63.25444125,
          "velocity": 0.9448818897637795
        },
        {
          "duration": 0.01689187499999889,
          "durationTicks": 12,
          "midi": 69,
          "name": "A4",
          "ticks": 45068,
          "time": 63.440251875,
          "velocity": 0.4094488188976378
        },
        {
          "duration": 0.001407656250002276,
          "durationTicks": 1,
          "midi": 42,
          "name": "F#2",
          "ticks": 45206,
          "time": 63.6345084375,
          "velocity": 0.4881889763779528
        },
        {
          "duration": 0.001407656250002276,
          "durationTicks": 1,
          "midi": 70,
          "name": "A#4",
          "ticks": 45206,
          "time": 63.6345084375,
          "velocity": 0.8503937007874016
        },
        {
          "duration": 0.001407656250002276,
          "durationTicks": 1,
          "midi": 45,
          "name": "A2",
          "ticks": 45206,
          "time": 63.6345084375,
          "velocity": 0.4094488188976378
        },
        {
          "duration": 0.025337812499998336,
          "durationTicks": 18,
          "midi": 69,
          "name": "A4",
          "ticks": 45320,
          "time": 63.79498125,
          "velocity": 0.4094488188976378
        },
        {
          "duration": 0.025337812499998336,
          "durationTicks": 18,
          "midi": 35,
          "name": "B1",
          "ticks": 45320,
          "time": 63.79498125,
          "velocity": 0.889763779527559
        },
        {
          "duration": 0.025337812499998336,
          "durationTicks": 18,
          "midi": 45,
          "name": "A2",
          "ticks": 45320,
          "time": 63.79498125,
          "velocity": 0.3779527559055118
        },
        {
          "duration": 0.02252250000000089,
          "durationTicks": 16,
          "midi": 42,
          "name": "F#2",
          "ticks": 45452,
          "time": 63.980791875,
          "velocity": 0.4881889763779528
        },
        {
          "duration": 0.02252250000000089,
          "durationTicks": 16,
          "midi": 70,
          "name": "A#4",
          "ticks": 45452,
          "time": 63.980791875,
          "velocity": 0.7874015748031497
        },
        {
          "duration": 0.022522499999993784,
          "durationTicks": 16,
          "midi": 35,
          "name": "B1",
          "ticks": 45576,
          "time": 64.15534125,
          "velocity": 0.8267716535433071
        },
        {
          "duration": 0.022522499999993784,
          "durationTicks": 16,
          "midi": 69,
          "name": "A4",
          "ticks": 45576,
          "time": 64.15534125,
          "velocity": 0.4094488188976378
        },
        {
          "duration": 0.01689187499999889,
          "durationTicks": 12,
          "midi": 42,
          "name": "F#2",
          "ticks": 45710,
          "time": 64.3439671875,
          "velocity": 0.4881889763779528
        },
        {
          "duration": 0.01689187499999889,
          "durationTicks": 12,
          "midi": 70,
          "name": "A#4",
          "ticks": 45710,
          "time": 64.3439671875,
          "velocity": 0.8188976377952756
        },
        {
          "duration": 0.01689187499999889,
          "durationTicks": 12,
          "midi": 48,
          "name": "C3",
          "ticks": 45710,
          "time": 64.3439671875,
          "velocity": 0.8818897637795275
        },
        {
          "duration": 0.019707187500003442,
          "durationTicks": 14,
          "midi": 69,
          "name": "A4",
          "ticks": 45836,
          "time": 64.521331875,
          "velocity": 0.4094488188976378
        },
        {
          "duration": 0.011261250000003997,
          "durationTicks": 8,
          "midi": 45,
          "name": "A2",
          "ticks": 45968,
          "time": 64.7071425,
          "velocity": 0.4094488188976378
        },
        {
          "duration": 0.011261250000003997,
          "durationTicks": 8,
          "midi": 70,
          "name": "A#4",
          "ticks": 45968,
          "time": 64.7071425,
          "velocity": 0.8503937007874016
        },
        {
          "duration": 0.011261250000003997,
          "durationTicks": 8,
          "midi": 42,
          "name": "F#2",
          "ticks": 45968,
          "time": 64.7071425,
          "velocity": 0.4881889763779528
        },
        {
          "duration": 0.011261249999989786,
          "durationTicks": 8,
          "midi": 69,
          "name": "A4",
          "ticks": 46096,
          "time": 64.88732250000001,
          "velocity": 0.4094488188976378
        },
        {
          "duration": 0.011261249999989786,
          "durationTicks": 8,
          "midi": 35,
          "name": "B1",
          "ticks": 46096,
          "time": 64.88732250000001,
          "velocity": 0.889763779527559
        },
        {
          "duration": 0.011261249999989786,
          "durationTicks": 8,
          "midi": 45,
          "name": "A2",
          "ticks": 46096,
          "time": 64.88732250000001,
          "velocity": 0.3779527559055118
        },
        {
          "duration": 0.019707187500017653,
          "durationTicks": 14,
          "midi": 42,
          "name": "F#2",
          "ticks": 46220,
          "time": 65.061871875,
          "velocity": 0.4881889763779528
        },
        {
          "duration": 0.019707187500017653,
          "durationTicks": 14,
          "midi": 70,
          "name": "A#4",
          "ticks": 46220,
          "time": 65.061871875,
          "velocity": 0.7874015748031497
        },
        {
          "duration": 0.01689187499999889,
          "durationTicks": 12,
          "midi": 35,
          "name": "B1",
          "ticks": 46352,
          "time": 65.2476825,
          "velocity": 0.7637795275590551
        },
        {
          "duration": 0.01689187499999889,
          "durationTicks": 12,
          "midi": 69,
          "name": "A4",
          "ticks": 46352,
          "time": 65.2476825,
          "velocity": 0.4094488188976378
        },
        {
          "duration": 0.01407656250000855,
          "durationTicks": 10,
          "midi": 42,
          "name": "F#2",
          "ticks": 46478,
          "time": 65.4250471875,
          "velocity": 0.4881889763779528
        },
        {
          "duration": 0.01407656250000855,
          "durationTicks": 10,
          "midi": 70,
          "name": "A#4",
          "ticks": 46478,
          "time": 65.4250471875,
          "velocity": 0.8188976377952756
        },
        {
          "duration": 0.01407656250000855,
          "durationTicks": 10,
          "midi": 48,
          "name": "C3",
          "ticks": 46478,
          "time": 65.4250471875,
          "velocity": 0.9448818897637795
        },
        {
          "duration": 0.022522500000007994,
          "durationTicks": 16,
          "midi": 69,
          "name": "A4",
          "ticks": 46602,
          "time": 65.5995965625,
          "velocity": 0.4094488188976378
        },
        {
          "duration": 0.014076562499994338,
          "durationTicks": 10,
          "midi": 45,
          "name": "A2",
          "ticks": 46736,
          "time": 65.7882225,
          "velocity": 0.4094488188976378
        },
        {
          "duration": 0.014076562499994338,
          "durationTicks": 10,
          "midi": 70,
          "name": "A#4",
          "ticks": 46736,
          "time": 65.7882225,
          "velocity": 0.8503937007874016
        },
        {
          "duration": 0.014076562499994338,
          "durationTicks": 10,
          "midi": 42,
          "name": "F#2",
          "ticks": 46736,
          "time": 65.7882225,
          "velocity": 0.4881889763779528
        },
        {
          "duration": 0.01689187499999889,
          "durationTicks": 12,
          "midi": 69,
          "name": "A4",
          "ticks": 46862,
          "time": 65.9655871875,
          "velocity": 0.4094488188976378
        },
        {
          "duration": 0.01689187499999889,
          "durationTicks": 12,
          "midi": 35,
          "name": "B1",
          "ticks": 46862,
          "time": 65.9655871875,
          "velocity": 0.889763779527559
        },
        {
          "duration": 0.01689187499999889,
          "durationTicks": 12,
          "midi": 48,
          "name": "C3",
          "ticks": 46862,
          "time": 65.9655871875,
          "velocity": 0.9448818897637795
        },
        {
          "duration": 0.01689187499999889,
          "durationTicks": 12,
          "midi": 45,
          "name": "A2",
          "ticks": 46862,
          "time": 65.9655871875,
          "velocity": 0.3779527559055118
        },
        {
          "duration": 0.01970718749998923,
          "durationTicks": 14,
          "midi": 42,
          "name": "F#2",
          "ticks": 46986,
          "time": 66.1401365625,
          "velocity": 0.4881889763779528
        },
        {
          "duration": 0.01970718749998923,
          "durationTicks": 14,
          "midi": 70,
          "name": "A#4",
          "ticks": 46986,
          "time": 66.1401365625,
          "velocity": 0.7874015748031497
        },
        {
          "duration": 0.01689187499999889,
          "durationTicks": 12,
          "midi": 69,
          "name": "A4",
          "ticks": 47118,
          "time": 66.3259471875,
          "velocity": 0.4094488188976378
        },
        {
          "duration": 0.01689187499999889,
          "durationTicks": 12,
          "midi": 35,
          "name": "B1",
          "ticks": 47118,
          "time": 66.3259471875,
          "velocity": 0.8267716535433071
        },
        {
          "duration": 0.025337812499998336,
          "durationTicks": 18,
          "midi": 42,
          "name": "F#2",
          "ticks": 47242,
          "time": 66.5004965625,
          "velocity": 0.4881889763779528
        },
        {
          "duration": 0.025337812499998336,
          "durationTicks": 18,
          "midi": 70,
          "name": "A#4",
          "ticks": 47242,
          "time": 66.5004965625,
          "velocity": 0.8188976377952756
        },
        {
          "duration": 0.025337812499998336,
          "durationTicks": 18,
          "midi": 48,
          "name": "C3",
          "ticks": 47242,
          "time": 66.5004965625,
          "velocity": 0.9448818897637795
        },
        {
          "duration": 0.019707187500003442,
          "durationTicks": 14,
          "midi": 69,
          "name": "A4",
          "ticks": 47370,
          "time": 66.6806765625,
          "velocity": 0.4094488188976378
        },
        {
          "duration": 0.019707187500003442,
          "durationTicks": 14,
          "midi": 48,
          "name": "C3",
          "ticks": 47370,
          "time": 66.6806765625,
          "velocity": 0.8818897637795275
        },
        {
          "duration": 0.025337812499998336,
          "durationTicks": 18,
          "midi": 45,
          "name": "A2",
          "ticks": 47496,
          "time": 66.85804125,
          "velocity": 0.4094488188976378
        },
        {
          "duration": 0.025337812499998336,
          "durationTicks": 18,
          "midi": 56,
          "name": "G#3",
          "ticks": 47496,
          "time": 66.85804125,
          "velocity": 0.8503937007874016
        },
        {
          "duration": 0.025337812499998336,
          "durationTicks": 18,
          "midi": 42,
          "name": "F#2",
          "ticks": 47496,
          "time": 66.85804125,
          "velocity": 0.4881889763779528
        },
        {
          "duration": 0.0014076562500093814,
          "durationTicks": 1,
          "midi": 35,
          "name": "B1",
          "ticks": 47640,
          "time": 67.06074375,
          "velocity": 0.889763779527559
        },
        {
          "duration": 0.0014076562500093814,
          "durationTicks": 1,
          "midi": 69,
          "name": "A4",
          "ticks": 47640,
          "time": 67.06074375,
          "velocity": 0.4094488188976378
        },
        {
          "duration": 0.022522499999993784,
          "durationTicks": 16,
          "midi": 42,
          "name": "F#2",
          "ticks": 47752,
          "time": 67.21840125,
          "velocity": 0.4881889763779528
        },
        {
          "duration": 0.022522499999993784,
          "durationTicks": 16,
          "midi": 70,
          "name": "A#4",
          "ticks": 47752,
          "time": 67.21840125,
          "velocity": 0.7874015748031497
        },
        {
          "duration": 0.019707187500003442,
          "durationTicks": 14,
          "midi": 69,
          "name": "A4",
          "ticks": 47884,
          "time": 67.404211875,
          "velocity": 0.4094488188976378
        },
        {
          "duration": 0.019707187500003442,
          "durationTicks": 14,
          "midi": 35,
          "name": "B1",
          "ticks": 47884,
          "time": 67.404211875,
          "velocity": 0.7637795275590551
        },
        {
          "duration": 0.014076562499994338,
          "durationTicks": 10,
          "midi": 42,
          "name": "F#2",
          "ticks": 48016,
          "time": 67.5900225,
          "velocity": 0.4881889763779528
        },
        {
          "duration": 0.014076562499994338,
          "durationTicks": 10,
          "midi": 70,
          "name": "A#4",
          "ticks": 48016,
          "time": 67.5900225,
          "velocity": 0.8188976377952756
        },
        {
          "duration": 0.014076562499994338,
          "durationTicks": 10,
          "midi": 48,
          "name": "C3",
          "ticks": 48016,
          "time": 67.5900225,
          "velocity": 0.9448818897637795
        },
        {
          "duration": 0.022522500000007994,
          "durationTicks": 16,
          "midi": 69,
          "name": "A4",
          "ticks": 48138,
          "time": 67.7617565625,
          "velocity": 0.4094488188976378
        },
        {
          "duration": 0.0014076562499951706,
          "durationTicks": 1,
          "midi": 42,
          "name": "F#2",
          "ticks": 48278,
          "time": 67.9588284375,
          "velocity": 0.4881889763779528
        },
        {
          "duration": 0.0014076562499951706,
          "durationTicks": 1,
          "midi": 70,
          "name": "A#4",
          "ticks": 48278,
          "time": 67.9588284375,
          "velocity": 0.8503937007874016
        },
        {
          "duration": 0.0014076562499951706,
          "durationTicks": 1,
          "midi": 45,
          "name": "A2",
          "ticks": 48278,
          "time": 67.9588284375,
          "velocity": 0.3779527559055118
        },
        {
          "duration": 0.014076562499994338,
          "durationTicks": 10,
          "midi": 69,
          "name": "A4",
          "ticks": 48398,
          "time": 68.1277471875,
          "velocity": 0.4094488188976378
        },
        {
          "duration": 0.014076562499994338,
          "durationTicks": 10,
          "midi": 35,
          "name": "B1",
          "ticks": 48398,
          "time": 68.1277471875,
          "velocity": 0.889763779527559
        },
        {
          "duration": 0.014076562499994338,
          "durationTicks": 10,
          "midi": 45,
          "name": "A2",
          "ticks": 48398,
          "time": 68.1277471875,
          "velocity": 0.3464566929133858
        },
        {
          "duration": 0.019707187500017653,
          "durationTicks": 14,
          "midi": 42,
          "name": "F#2",
          "ticks": 48524,
          "time": 68.305111875,
          "velocity": 0.4881889763779528
        },
        {
          "duration": 0.019707187500017653,
          "durationTicks": 14,
          "midi": 70,
          "name": "A#4",
          "ticks": 48524,
          "time": 68.305111875,
          "velocity": 0.7874015748031497
        },
        {
          "duration": 0.01689187499999889,
          "durationTicks": 12,
          "midi": 69,
          "name": "A4",
          "ticks": 48654,
          "time": 68.4881071875,
          "velocity": 0.4094488188976378
        },
        {
          "duration": 0.01689187499999889,
          "durationTicks": 12,
          "midi": 35,
          "name": "B1",
          "ticks": 48654,
          "time": 68.4881071875,
          "velocity": 0.8267716535433071
        },
        {
          "duration": 0.019707187500003442,
          "durationTicks": 14,
          "midi": 42,
          "name": "F#2",
          "ticks": 48778,
          "time": 68.6626565625,
          "velocity": 0.4881889763779528
        },
        {
          "duration": 0.019707187500003442,
          "durationTicks": 14,
          "midi": 70,
          "name": "A#4",
          "ticks": 48778,
          "time": 68.6626565625,
          "velocity": 0.8188976377952756
        },
        {
          "duration": 0.019707187500003442,
          "durationTicks": 14,
          "midi": 48,
          "name": "C3",
          "ticks": 48778,
          "time": 68.6626565625,
          "velocity": 0.8818897637795275
        },
        {
          "duration": 0.01689187499999889,
          "durationTicks": 12,
          "midi": 69,
          "name": "A4",
          "ticks": 48910,
          "time": 68.8484671875,
          "velocity": 0.4094488188976378
        },
        {
          "duration": 0.01689187499999889,
          "durationTicks": 12,
          "midi": 42,
          "name": "F#2",
          "ticks": 49038,
          "time": 69.0286471875,
          "velocity": 0.4881889763779528
        },
        {
          "duration": 0.01689187499999889,
          "durationTicks": 12,
          "midi": 70,
          "name": "A#4",
          "ticks": 49038,
          "time": 69.0286471875,
          "velocity": 0.8503937007874016
        },
        {
          "duration": 0.01689187499999889,
          "durationTicks": 12,
          "midi": 45,
          "name": "A2",
          "ticks": 49038,
          "time": 69.0286471875,
          "velocity": 0.4094488188976378
        },
        {
          "duration": 0.0014076562499951706,
          "durationTicks": 1,
          "midi": 69,
          "name": "A4",
          "ticks": 49170,
          "time": 69.2144578125,
          "velocity": 0.4094488188976378
        },
        {
          "duration": 0.0014076562499951706,
          "durationTicks": 1,
          "midi": 35,
          "name": "B1",
          "ticks": 49170,
          "time": 69.2144578125,
          "velocity": 0.889763779527559
        },
        {
          "duration": 0.0014076562499951706,
          "durationTicks": 1,
          "midi": 45,
          "name": "A2",
          "ticks": 49170,
          "time": 69.2144578125,
          "velocity": 0.3779527559055118
        },
        {
          "duration": 0.022522500000007994,
          "durationTicks": 16,
          "midi": 42,
          "name": "F#2",
          "ticks": 49288,
          "time": 69.38056125,
          "velocity": 0.4881889763779528
        },
        {
          "duration": 0.022522500000007994,
          "durationTicks": 16,
          "midi": 70,
          "name": "A#4",
          "ticks": 49288,
          "time": 69.38056125,
          "velocity": 0.7874015748031497
        },
        {
          "duration": 0.014076562499994338,
          "durationTicks": 10,
          "midi": 69,
          "name": "A4",
          "ticks": 49422,
          "time": 69.5691871875,
          "velocity": 0.4094488188976378
        },
        {
          "duration": 0.014076562499994338,
          "durationTicks": 10,
          "midi": 35,
          "name": "B1",
          "ticks": 49422,
          "time": 69.5691871875,
          "velocity": 0.7637795275590551
        },
        {
          "duration": 0.022522499999993784,
          "durationTicks": 16,
          "midi": 42,
          "name": "F#2",
          "ticks": 49544,
          "time": 69.74092125000001,
          "velocity": 0.4881889763779528
        },
        {
          "duration": 0.022522499999993784,
          "durationTicks": 16,
          "midi": 70,
          "name": "A#4",
          "ticks": 49544,
          "time": 69.74092125000001,
          "velocity": 0.8188976377952756
        },
        {
          "duration": 0.022522499999993784,
          "durationTicks": 16,
          "midi": 48,
          "name": "C3",
          "ticks": 49544,
          "time": 69.74092125000001,
          "velocity": 0.9448818897637795
        },
        {
          "duration": 0.014076562499994338,
          "durationTicks": 10,
          "midi": 69,
          "name": "A4",
          "ticks": 49676,
          "time": 69.926731875,
          "velocity": 0.4094488188976378
        },
        {
          "duration": 0.028153125000002888,
          "durationTicks": 20,
          "midi": 45,
          "name": "A2",
          "ticks": 49800,
          "time": 70.10128125,
          "velocity": 0.4094488188976378
        },
        {
          "duration": 0.028153125000002888,
          "durationTicks": 20,
          "midi": 70,
          "name": "A#4",
          "ticks": 49800,
          "time": 70.10128125,
          "velocity": 0.8503937007874016
        },
        {
          "duration": 0.028153125000002888,
          "durationTicks": 20,
          "midi": 42,
          "name": "F#2",
          "ticks": 49800,
          "time": 70.10128125,
          "velocity": 0.4881889763779528
        },
        {
          "duration": 0.01689187499999889,
          "durationTicks": 12,
          "midi": 69,
          "name": "A4",
          "ticks": 49934,
          "time": 70.2899071875,
          "velocity": 0.4094488188976378
        },
        {
          "duration": 0.01689187499999889,
          "durationTicks": 12,
          "midi": 35,
          "name": "B1",
          "ticks": 49934,
          "time": 70.2899071875,
          "velocity": 0.889763779527559
        },
        {
          "duration": 0.01689187499999889,
          "durationTicks": 12,
          "midi": 45,
          "name": "A2",
          "ticks": 49934,
          "time": 70.2899071875,
          "velocity": 0.3779527559055118
        },
        {
          "duration": 0.022522499999993784,
          "durationTicks": 16,
          "midi": 42,
          "name": "F#2",
          "ticks": 50058,
          "time": 70.4644565625,
          "velocity": 0.4881889763779528
        },
        {
          "duration": 0.022522499999993784,
          "durationTicks": 16,
          "midi": 70,
          "name": "A#4",
          "ticks": 50058,
          "time": 70.4644565625,
          "velocity": 0.7874015748031497
        },
        {
          "duration": 0.019707187500003442,
          "durationTicks": 14,
          "midi": 69,
          "name": "A4",
          "ticks": 50188,
          "time": 70.647451875,
          "velocity": 0.4094488188976378
        },
        {
          "duration": 0.019707187500003442,
          "durationTicks": 14,
          "midi": 35,
          "name": "B1",
          "ticks": 50188,
          "time": 70.647451875,
          "velocity": 0.8267716535433071
        },
        {
          "duration": 0.008445937499999445,
          "durationTicks": 6,
          "midi": 42,
          "name": "F#2",
          "ticks": 50322,
          "time": 70.83607781250001,
          "velocity": 0.4881889763779528
        },
        {
          "duration": 0.008445937499999445,
          "durationTicks": 6,
          "midi": 70,
          "name": "A#4",
          "ticks": 50322,
          "time": 70.83607781250001,
          "velocity": 0.8188976377952756
        },
        {
          "duration": 0.008445937499999445,
          "durationTicks": 6,
          "midi": 48,
          "name": "C3",
          "ticks": 50322,
          "time": 70.83607781250001,
          "velocity": 0.8818897637795275
        },
        {
          "duration": 0.022522500000022205,
          "durationTicks": 16,
          "midi": 69,
          "name": "A4",
          "ticks": 50440,
          "time": 71.00218124999999,
          "velocity": 0.4094488188976378
        },
        {
          "duration": 0.022522499999993784,
          "durationTicks": 16,
          "midi": 45,
          "name": "A2",
          "ticks": 50568,
          "time": 71.18236125,
          "velocity": 0.4094488188976378
        },
        {
          "duration": 0.022522499999993784,
          "durationTicks": 16,
          "midi": 70,
          "name": "A#4",
          "ticks": 50568,
          "time": 71.18236125,
          "velocity": 0.8503937007874016
        },
        {
          "duration": 0.022522499999993784,
          "durationTicks": 16,
          "midi": 42,
          "name": "F#2",
          "ticks": 50568,
          "time": 71.18236125,
          "velocity": 0.4881889763779528
        },
        {
          "duration": 0.0014076562499951706,
          "durationTicks": 1,
          "midi": 69,
          "name": "A4",
          "ticks": 50708,
          "time": 71.379433125,
          "velocity": 0.4094488188976378
        },
        {
          "duration": 0.0014076562499951706,
          "durationTicks": 1,
          "midi": 35,
          "name": "B1",
          "ticks": 50708,
          "time": 71.379433125,
          "velocity": 0.889763779527559
        },
        {
          "duration": 0.0014076562499951706,
          "durationTicks": 1,
          "midi": 45,
          "name": "A2",
          "ticks": 50708,
          "time": 71.379433125,
          "velocity": 0.3779527559055118
        },
        {
          "duration": 0.025337812499998336,
          "durationTicks": 18,
          "midi": 42,
          "name": "F#2",
          "ticks": 50822,
          "time": 71.53990593750001,
          "velocity": 0.4881889763779528
        },
        {
          "duration": 0.025337812499998336,
          "durationTicks": 18,
          "midi": 70,
          "name": "A#4",
          "ticks": 50822,
          "time": 71.53990593750001,
          "velocity": 0.7874015748031497
        },
        {
          "duration": 0.025337812499998336,
          "durationTicks": 18,
          "midi": 35,
          "name": "B1",
          "ticks": 50952,
          "time": 71.72290125,
          "velocity": 0.7637795275590551
        },
        {
          "duration": 0.025337812499998336,
          "durationTicks": 18,
          "midi": 69,
          "name": "A4",
          "ticks": 50952,
          "time": 71.72290125,
          "velocity": 0.4094488188976378
        },
        {
          "duration": 0.01689187499999889,
          "durationTicks": 12,
          "midi": 42,
          "name": "F#2",
          "ticks": 51086,
          "time": 71.91152718750001,
          "velocity": 0.4881889763779528
        },
        {
          "duration": 0.01689187499999889,
          "durationTicks": 12,
          "midi": 70,
          "name": "A#4",
          "ticks": 51086,
          "time": 71.91152718750001,
          "velocity": 0.8188976377952756
        },
        {
          "duration": 0.01689187499999889,
          "durationTicks": 12,
          "midi": 48,
          "name": "C3",
          "ticks": 51086,
          "time": 71.91152718750001,
          "velocity": 0.9448818897637795
        },
        {
          "duration": 0.019707187500017653,
          "durationTicks": 14,
          "midi": 69,
          "name": "A4",
          "ticks": 51210,
          "time": 72.0860765625,
          "velocity": 0.4094488188976378
        },
        {
          "duration": 0.0014076562499951706,
          "durationTicks": 1,
          "midi": 42,
          "name": "F#2",
          "ticks": 51348,
          "time": 72.280333125,
          "velocity": 0.4881889763779528
        },
        {
          "duration": 0.0014076562499951706,
          "durationTicks": 1,
          "midi": 70,
          "name": "A#4",
          "ticks": 51348,
          "time": 72.280333125,
          "velocity": 0.8503937007874016
        },
        {
          "duration": 0.0014076562499951706,
          "durationTicks": 1,
          "midi": 45,
          "name": "A2",
          "ticks": 51348,
          "time": 72.280333125,
          "velocity": 0.4094488188976378
        },
        {
          "duration": 0.01689187499999889,
          "durationTicks": 12,
          "midi": 69,
          "name": "A4",
          "ticks": 51470,
          "time": 72.4520671875,
          "velocity": 0.4094488188976378
        },
        {
          "duration": 0.01689187499999889,
          "durationTicks": 12,
          "midi": 35,
          "name": "B1",
          "ticks": 51470,
          "time": 72.4520671875,
          "velocity": 0.889763779527559
        },
        {
          "duration": 0.01689187499999889,
          "durationTicks": 12,
          "midi": 45,
          "name": "A2",
          "ticks": 51470,
          "time": 72.4520671875,
          "velocity": 0.3779527559055118
        },
        {
          "duration": 0.022522499999993784,
          "durationTicks": 16,
          "midi": 42,
          "name": "F#2",
          "ticks": 51596,
          "time": 72.62943187500001,
          "velocity": 0.4881889763779528
        },
        {
          "duration": 0.022522499999993784,
          "durationTicks": 16,
          "midi": 70,
          "name": "A#4",
          "ticks": 51596,
          "time": 72.62943187500001,
          "velocity": 0.7874015748031497
        },
        {
          "duration": 0.014076562499994338,
          "durationTicks": 10,
          "midi": 69,
          "name": "A4",
          "ticks": 51726,
          "time": 72.8124271875,
          "velocity": 0.4094488188976378
        },
        {
          "duration": 0.014076562499994338,
          "durationTicks": 10,
          "midi": 35,
          "name": "B1",
          "ticks": 51726,
          "time": 72.8124271875,
          "velocity": 0.8267716535433071
        },
        {
          "duration": 0.014076562499994338,
          "durationTicks": 10,
          "midi": 42,
          "name": "F#2",
          "ticks": 51854,
          "time": 72.99260718750001,
          "velocity": 0.4881889763779528
        },
        {
          "duration": 0.014076562499994338,
          "durationTicks": 10,
          "midi": 70,
          "name": "A#4",
          "ticks": 51854,
          "time": 72.99260718750001,
          "velocity": 0.8188976377952756
        },
        {
          "duration": 0.014076562499994338,
          "durationTicks": 10,
          "midi": 48,
          "name": "C3",
          "ticks": 51854,
          "time": 72.99260718750001,
          "velocity": 0.8818897637795275
        },
        {
          "duration": 0.022522500000022205,
          "durationTicks": 16,
          "midi": 69,
          "name": "A4",
          "ticks": 51976,
          "time": 73.16434124999999,
          "velocity": 0.4094488188976378
        },
        {
          "duration": 0.01689187499999889,
          "durationTicks": 12,
          "midi": 42,
          "name": "F#2",
          "ticks": 52110,
          "time": 73.3529671875,
          "velocity": 0.4881889763779528
        },
        {
          "duration": 0.01689187499999889,
          "durationTicks": 12,
          "midi": 70,
          "name": "A#4",
          "ticks": 52110,
          "time": 73.3529671875,
          "velocity": 0.8503937007874016
        },
        {
          "duration": 0.01689187499999889,
          "durationTicks": 12,
          "midi": 45,
          "name": "A2",
          "ticks": 52110,
          "time": 73.3529671875,
          "velocity": 0.4094488188976378
        },
        {
          "duration": 0.01407656250000855,
          "durationTicks": 10,
          "midi": 69,
          "name": "A4",
          "ticks": 52240,
          "time": 73.5359625,
          "velocity": 0.4094488188976378
        },
        {
          "duration": 0.01407656250000855,
          "durationTicks": 10,
          "midi": 35,
          "name": "B1",
          "ticks": 52240,
          "time": 73.5359625,
          "velocity": 0.889763779527559
        },
        {
          "duration": 0.01407656250000855,
          "durationTicks": 10,
          "midi": 45,
          "name": "A2",
          "ticks": 52240,
          "time": 73.5359625,
          "velocity": 0.3779527559055118
        },
        {
          "duration": 0.022522499999993784,
          "durationTicks": 16,
          "midi": 42,
          "name": "F#2",
          "ticks": 52362,
          "time": 73.7076965625,
          "velocity": 0.4881889763779528
        },
        {
          "duration": 0.022522499999993784,
          "durationTicks": 16,
          "midi": 70,
          "name": "A#4",
          "ticks": 52362,
          "time": 73.7076965625,
          "velocity": 0.7874015748031497
        },
        {
          "duration": 0.01689187499999889,
          "durationTicks": 12,
          "midi": 69,
          "name": "A4",
          "ticks": 52492,
          "time": 73.890691875,
          "velocity": 0.4094488188976378
        },
        {
          "duration": 0.01689187499999889,
          "durationTicks": 12,
          "midi": 35,
          "name": "B1",
          "ticks": 52492,
          "time": 73.890691875,
          "velocity": 0.7637795275590551
        },
        {
          "duration": 0.01689187499999889,
          "durationTicks": 12,
          "midi": 42,
          "name": "F#2",
          "ticks": 52622,
          "time": 74.07368718750001,
          "velocity": 0.4881889763779528
        },
        {
          "duration": 0.01689187499999889,
          "durationTicks": 12,
          "midi": 70,
          "name": "A#4",
          "ticks": 52622,
          "time": 74.07368718750001,
          "velocity": 0.8188976377952756
        },
        {
          "duration": 0.01689187499999889,
          "durationTicks": 12,
          "midi": 48,
          "name": "C3",
          "ticks": 52622,
          "time": 74.07368718750001,
          "velocity": 0.9448818897637795
        },
        {
          "duration": 0.025337812500012546,
          "durationTicks": 18,
          "midi": 69,
          "name": "A4",
          "ticks": 52742,
          "time": 74.2426059375,
          "velocity": 0.4094488188976378
        },
        {
          "duration": 0.022522499999993784,
          "durationTicks": 16,
          "midi": 45,
          "name": "A2",
          "ticks": 52872,
          "time": 74.42560125,
          "velocity": 0.4094488188976378
        },
        {
          "duration": 0.022522499999993784,
          "durationTicks": 16,
          "midi": 70,
          "name": "A#4",
          "ticks": 52872,
          "time": 74.42560125,
          "velocity": 0.8503937007874016
        },
        {
          "duration": 0.022522499999993784,
          "durationTicks": 16,
          "midi": 42,
          "name": "F#2",
          "ticks": 52872,
          "time": 74.42560125,
          "velocity": 0.4881889763779528
        },
        {
          "duration": 0.025337812499998336,
          "durationTicks": 18,
          "midi": 69,
          "name": "A4",
          "ticks": 53000,
          "time": 74.60578125,
          "velocity": 0.4094488188976378
        },
        {
          "duration": 0.025337812499998336,
          "durationTicks": 18,
          "midi": 35,
          "name": "B1",
          "ticks": 53000,
          "time": 74.60578125,
          "velocity": 0.889763779527559
        },
        {
          "duration": 0.025337812499998336,
          "durationTicks": 18,
          "midi": 45,
          "name": "A2",
          "ticks": 53000,
          "time": 74.60578125,
          "velocity": 0.3779527559055118
        },
        {
          "duration": 0.01970718749998923,
          "durationTicks": 14,
          "midi": 42,
          "name": "F#2",
          "ticks": 53132,
          "time": 74.79159187500001,
          "velocity": 0.4881889763779528
        },
        {
          "duration": 0.01970718749998923,
          "durationTicks": 14,
          "midi": 70,
          "name": "A#4",
          "ticks": 53132,
          "time": 74.79159187500001,
          "velocity": 0.7874015748031497
        },
        {
          "duration": 0.014076562499994338,
          "durationTicks": 10,
          "midi": 69,
          "name": "A4",
          "ticks": 53262,
          "time": 74.9745871875,
          "velocity": 0.4094488188976378
        },
        {
          "duration": 0.014076562499994338,
          "durationTicks": 10,
          "midi": 35,
          "name": "B1",
          "ticks": 53262,
          "time": 74.9745871875,
          "velocity": 0.8267716535433071
        },
        {
          "duration": 0.022522499999993784,
          "durationTicks": 16,
          "midi": 42,
          "name": "F#2",
          "ticks": 53384,
          "time": 75.14632125000001,
          "velocity": 0.4881889763779528
        },
        {
          "duration": 0.022522499999993784,
          "durationTicks": 16,
          "midi": 70,
          "name": "A#4",
          "ticks": 53384,
          "time": 75.14632125000001,
          "velocity": 0.8188976377952756
        },
        {
          "duration": 0.022522499999993784,
          "durationTicks": 16,
          "midi": 48,
          "name": "C3",
          "ticks": 53384,
          "time": 75.14632125000001,
          "velocity": 0.8818897637795275
        },
        {
          "duration": 0.025337812499998336,
          "durationTicks": 18,
          "midi": 69,
          "name": "A4",
          "ticks": 53512,
          "time": 75.32650124999999,
          "velocity": 0.4094488188976378
        },
        {
          "duration": 0.022522499999993784,
          "durationTicks": 16,
          "midi": 45,
          "name": "A2",
          "ticks": 53640,
          "time": 75.50668125,
          "velocity": 0.4094488188976378
        },
        {
          "duration": 0.022522499999993784,
          "durationTicks": 16,
          "midi": 70,
          "name": "A#4",
          "ticks": 53640,
          "time": 75.50668125,
          "velocity": 0.8503937007874016
        },
        {
          "duration": 0.022522499999993784,
          "durationTicks": 16,
          "midi": 42,
          "name": "F#2",
          "ticks": 53640,
          "time": 75.50668125,
          "velocity": 0.4881889763779528
        },
        {
          "duration": 0.0014076562500093814,
          "durationTicks": 1,
          "midi": 69,
          "name": "A4",
          "ticks": 53782,
          "time": 75.7065684375,
          "velocity": 0.4094488188976378
        },
        {
          "duration": 0.0014076562500093814,
          "durationTicks": 1,
          "midi": 35,
          "name": "B1",
          "ticks": 53782,
          "time": 75.7065684375,
          "velocity": 0.889763779527559
        },
        {
          "duration": 0.0014076562500093814,
          "durationTicks": 1,
          "midi": 45,
          "name": "A2",
          "ticks": 53782,
          "time": 75.7065684375,
          "velocity": 0.3779527559055118
        },
        {
          "duration": 0.022522500000007994,
          "durationTicks": 16,
          "midi": 42,
          "name": "F#2",
          "ticks": 53896,
          "time": 75.86704125,
          "velocity": 0.4881889763779528
        },
        {
          "duration": 0.022522500000007994,
          "durationTicks": 16,
          "midi": 70,
          "name": "A#4",
          "ticks": 53896,
          "time": 75.86704125,
          "velocity": 0.7874015748031497
        },
        {
          "duration": 0.014076562499994338,
          "durationTicks": 10,
          "midi": 69,
          "name": "A4",
          "ticks": 54030,
          "time": 76.0556671875,
          "velocity": 0.4094488188976378
        },
        {
          "duration": 0.014076562499994338,
          "durationTicks": 10,
          "midi": 35,
          "name": "B1",
          "ticks": 54030,
          "time": 76.0556671875,
          "velocity": 0.7637795275590551
        },
        {
          "duration": 0.019707187500003442,
          "durationTicks": 14,
          "midi": 42,
          "name": "F#2",
          "ticks": 54156,
          "time": 76.23303187500001,
          "velocity": 0.4881889763779528
        },
        {
          "duration": 0.019707187500003442,
          "durationTicks": 14,
          "midi": 70,
          "name": "A#4",
          "ticks": 54156,
          "time": 76.23303187500001,
          "velocity": 0.8188976377952756
        },
        {
          "duration": 0.019707187500003442,
          "durationTicks": 14,
          "midi": 48,
          "name": "C3",
          "ticks": 54156,
          "time": 76.23303187500001,
          "velocity": 0.9448818897637795
        },
        {
          "duration": 0.022522500000022205,
          "durationTicks": 16,
          "midi": 69,
          "name": "A4",
          "ticks": 54280,
          "time": 76.40758124999999,
          "velocity": 0.4094488188976378
        },
        {
          "duration": 0.022522499999993784,
          "durationTicks": 16,
          "midi": 42,
          "name": "F#2",
          "ticks": 54410,
          "time": 76.5905765625,
          "velocity": 0.4881889763779528
        },
        {
          "duration": 0.022522499999993784,
          "durationTicks": 16,
          "midi": 70,
          "name": "A#4",
          "ticks": 54410,
          "time": 76.5905765625,
          "velocity": 0.8503937007874016
        },
        {
          "duration": 0.022522499999993784,
          "durationTicks": 16,
          "midi": 45,
          "name": "A2",
          "ticks": 54410,
          "time": 76.5905765625,
          "velocity": 0.4094488188976378
        },
        {
          "duration": 0.022522499999993784,
          "durationTicks": 16,
          "midi": 69,
          "name": "A4",
          "ticks": 54536,
          "time": 76.76794125,
          "velocity": 0.4094488188976378
        },
        {
          "duration": 0.022522499999993784,
          "durationTicks": 16,
          "midi": 35,
          "name": "B1",
          "ticks": 54536,
          "time": 76.76794125,
          "velocity": 0.889763779527559
        },
        {
          "duration": 0.022522499999993784,
          "durationTicks": 16,
          "midi": 45,
          "name": "A2",
          "ticks": 54536,
          "time": 76.76794125,
          "velocity": 0.3779527559055118
        },
        {
          "duration": 0.01970718749998923,
          "durationTicks": 14,
          "midi": 42,
          "name": "F#2",
          "ticks": 54668,
          "time": 76.95375187500001,
          "velocity": 0.4881889763779528
        },
        {
          "duration": 0.01970718749998923,
          "durationTicks": 14,
          "midi": 70,
          "name": "A#4",
          "ticks": 54668,
          "time": 76.95375187500001,
          "velocity": 0.7874015748031497
        },
        {
          "duration": 0.019707187500003442,
          "durationTicks": 14,
          "midi": 69,
          "name": "A4",
          "ticks": 54796,
          "time": 77.133931875,
          "velocity": 0.4094488188976378
        },
        {
          "duration": 0.019707187500003442,
          "durationTicks": 14,
          "midi": 35,
          "name": "B1",
          "ticks": 54796,
          "time": 77.133931875,
          "velocity": 0.8267716535433071
        },
        {
          "duration": 0.0014076562500093814,
          "durationTicks": 1,
          "midi": 42,
          "name": "F#2",
          "ticks": 54928,
          "time": 77.3197425,
          "velocity": 0.4881889763779528
        },
        {
          "duration": 0.0014076562500093814,
          "durationTicks": 1,
          "midi": 70,
          "name": "A#4",
          "ticks": 54928,
          "time": 77.3197425,
          "velocity": 0.8188976377952756
        },
        {
          "duration": 0.0014076562500093814,
          "durationTicks": 1,
          "midi": 48,
          "name": "C3",
          "ticks": 54928,
          "time": 77.3197425,
          "velocity": 0.8818897637795275
        },
        {
          "duration": 0.01407656250002276,
          "durationTicks": 10,
          "midi": 69,
          "name": "A4",
          "ticks": 55054,
          "time": 77.49710718749999,
          "velocity": 0.4094488188976378
        },
        {
          "duration": 0.01689187499999889,
          "durationTicks": 12,
          "midi": 42,
          "name": "F#2",
          "ticks": 55180,
          "time": 77.674471875,
          "velocity": 0.4881889763779528
        },
        {
          "duration": 0.01689187499999889,
          "durationTicks": 12,
          "midi": 70,
          "name": "A#4",
          "ticks": 55180,
          "time": 77.674471875,
          "velocity": 0.8503937007874016
        },
        {
          "duration": 0.01689187499999889,
          "durationTicks": 12,
          "midi": 45,
          "name": "A2",
          "ticks": 55180,
          "time": 77.674471875,
          "velocity": 0.4094488188976378
        },
        {
          "duration": 0.01407656250000855,
          "durationTicks": 10,
          "midi": 69,
          "name": "A4",
          "ticks": 55312,
          "time": 77.8602825,
          "velocity": 0.4094488188976378
        },
        {
          "duration": 0.01407656250000855,
          "durationTicks": 10,
          "midi": 35,
          "name": "B1",
          "ticks": 55312,
          "time": 77.8602825,
          "velocity": 0.889763779527559
        },
        {
          "duration": 0.01407656250000855,
          "durationTicks": 10,
          "midi": 45,
          "name": "A2",
          "ticks": 55312,
          "time": 77.8602825,
          "velocity": 0.3779527559055118
        },
        {
          "duration": 0.022522500000007994,
          "durationTicks": 16,
          "midi": 42,
          "name": "F#2",
          "ticks": 55432,
          "time": 78.02920125,
          "velocity": 0.4881889763779528
        },
        {
          "duration": 0.022522500000007994,
          "durationTicks": 16,
          "midi": 70,
          "name": "A#4",
          "ticks": 55432,
          "time": 78.02920125,
          "velocity": 0.7874015748031497
        },
        {
          "duration": 0.014076562499994338,
          "durationTicks": 10,
          "midi": 69,
          "name": "A4",
          "ticks": 55566,
          "time": 78.2178271875,
          "velocity": 0.4094488188976378
        },
        {
          "duration": 0.014076562499994338,
          "durationTicks": 10,
          "midi": 35,
          "name": "B1",
          "ticks": 55566,
          "time": 78.2178271875,
          "velocity": 0.7637795275590551
        },
        {
          "duration": 0.01689187499999889,
          "durationTicks": 12,
          "midi": 42,
          "name": "F#2",
          "ticks": 55692,
          "time": 78.39519187500001,
          "velocity": 0.4881889763779528
        },
        {
          "duration": 0.01689187499999889,
          "durationTicks": 12,
          "midi": 70,
          "name": "A#4",
          "ticks": 55692,
          "time": 78.39519187500001,
          "velocity": 0.8188976377952756
        },
        {
          "duration": 0.01689187499999889,
          "durationTicks": 12,
          "midi": 48,
          "name": "C3",
          "ticks": 55692,
          "time": 78.39519187500001,
          "velocity": 0.9448818897637795
        },
        {
          "duration": 0.025337812499998336,
          "durationTicks": 18,
          "midi": 69,
          "name": "A4",
          "ticks": 55816,
          "time": 78.56974124999999,
          "velocity": 0.4094488188976378
        },
        {
          "duration": 0.022522499999993784,
          "durationTicks": 16,
          "midi": 45,
          "name": "A2",
          "ticks": 55944,
          "time": 78.74992125,
          "velocity": 0.4094488188976378
        },
        {
          "duration": 0.022522499999993784,
          "durationTicks": 16,
          "midi": 70,
          "name": "A#4",
          "ticks": 55944,
          "time": 78.74992125,
          "velocity": 0.8503937007874016
        },
        {
          "duration": 0.022522499999993784,
          "durationTicks": 16,
          "midi": 42,
          "name": "F#2",
          "ticks": 55944,
          "time": 78.74992125,
          "velocity": 0.4881889763779528
        },
        {
          "duration": 0.014076562499994338,
          "durationTicks": 10,
          "midi": 69,
          "name": "A4",
          "ticks": 56078,
          "time": 78.9385471875,
          "velocity": 0.4094488188976378
        },
        {
          "duration": 0.014076562499994338,
          "durationTicks": 10,
          "midi": 35,
          "name": "B1",
          "ticks": 56078,
          "time": 78.9385471875,
          "velocity": 0.889763779527559
        },
        {
          "duration": 0.014076562499994338,
          "durationTicks": 10,
          "midi": 45,
          "name": "A2",
          "ticks": 56078,
          "time": 78.9385471875,
          "velocity": 0.3779527559055118
        },
        {
          "duration": 0.01970718749998923,
          "durationTicks": 14,
          "midi": 42,
          "name": "F#2",
          "ticks": 56204,
          "time": 79.11591187500001,
          "velocity": 0.4881889763779528
        },
        {
          "duration": 0.01970718749998923,
          "durationTicks": 14,
          "midi": 70,
          "name": "A#4",
          "ticks": 56204,
          "time": 79.11591187500001,
          "velocity": 0.7874015748031497
        },
        {
          "duration": 0.019707187500003442,
          "durationTicks": 14,
          "midi": 69,
          "name": "A4",
          "ticks": 56332,
          "time": 79.296091875,
          "velocity": 0.4094488188976378
        },
        {
          "duration": 0.019707187500003442,
          "durationTicks": 14,
          "midi": 35,
          "name": "B1",
          "ticks": 56332,
          "time": 79.296091875,
          "velocity": 0.8267716535433071
        },
        {
          "duration": 0.019707187500003442,
          "durationTicks": 14,
          "midi": 42,
          "name": "F#2",
          "ticks": 56460,
          "time": 79.47627187500001,
          "velocity": 0.4881889763779528
        },
        {
          "duration": 0.019707187500003442,
          "durationTicks": 14,
          "midi": 70,
          "name": "A#4",
          "ticks": 56460,
          "time": 79.47627187500001,
          "velocity": 0.8188976377952756
        },
        {
          "duration": 0.019707187500003442,
          "durationTicks": 14,
          "midi": 48,
          "name": "C3",
          "ticks": 56460,
          "time": 79.47627187500001,
          "velocity": 0.8818897637795275
        },
        {
          "duration": 0.019707187500017653,
          "durationTicks": 14,
          "midi": 69,
          "name": "A4",
          "ticks": 56586,
          "time": 79.6536365625,
          "velocity": 0.4094488188976378
        },
        {
          "duration": 0.01689187499999889,
          "durationTicks": 12,
          "midi": 42,
          "name": "F#2",
          "ticks": 56718,
          "time": 79.8394471875,
          "velocity": 0.4881889763779528
        },
        {
          "duration": 0.01689187499999889,
          "durationTicks": 12,
          "midi": 70,
          "name": "A#4",
          "ticks": 56718,
          "time": 79.8394471875,
          "velocity": 0.8503937007874016
        },
        {
          "duration": 0.01689187499999889,
          "durationTicks": 12,
          "midi": 45,
          "name": "A2",
          "ticks": 56718,
          "time": 79.8394471875,
          "velocity": 0.4094488188976378
        },
        {
          "duration": 0.019707187500003442,
          "durationTicks": 14,
          "midi": 69,
          "name": "A4",
          "ticks": 56842,
          "time": 80.0139965625,
          "velocity": 0.4094488188976378
        },
        {
          "duration": 0.019707187500003442,
          "durationTicks": 14,
          "midi": 35,
          "name": "B1",
          "ticks": 56842,
          "time": 80.0139965625,
          "velocity": 0.889763779527559
        },
        {
          "duration": 0.019707187500003442,
          "durationTicks": 14,
          "midi": 45,
          "name": "A2",
          "ticks": 56842,
          "time": 80.0139965625,
          "velocity": 0.3779527559055118
        },
        {
          "duration": 0.01407656250000855,
          "durationTicks": 10,
          "midi": 42,
          "name": "F#2",
          "ticks": 56974,
          "time": 80.1998071875,
          "velocity": 0.4881889763779528
        },
        {
          "duration": 0.01407656250000855,
          "durationTicks": 10,
          "midi": 70,
          "name": "A#4",
          "ticks": 56974,
          "time": 80.1998071875,
          "velocity": 0.7874015748031497
        },
        {
          "duration": 0.022522499999993784,
          "durationTicks": 16,
          "midi": 35,
          "name": "B1",
          "ticks": 57096,
          "time": 80.37154125,
          "velocity": 0.7637795275590551
        },
        {
          "duration": 0.022522499999993784,
          "durationTicks": 16,
          "midi": 69,
          "name": "A4",
          "ticks": 57096,
          "time": 80.37154125,
          "velocity": 0.4094488188976378
        },
        {
          "duration": 0.019707187500003442,
          "durationTicks": 14,
          "midi": 42,
          "name": "F#2",
          "ticks": 57226,
          "time": 80.5545365625,
          "velocity": 0.4881889763779528
        },
        {
          "duration": 0.019707187500003442,
          "durationTicks": 14,
          "midi": 70,
          "name": "A#4",
          "ticks": 57226,
          "time": 80.5545365625,
          "velocity": 0.8188976377952756
        },
        {
          "duration": 0.019707187500003442,
          "durationTicks": 14,
          "midi": 48,
          "name": "C3",
          "ticks": 57226,
          "time": 80.5545365625,
          "velocity": 0.9448818897637795
        },
        {
          "duration": 0.022522500000022205,
          "durationTicks": 16,
          "midi": 69,
          "name": "A4",
          "ticks": 57352,
          "time": 80.73190124999999,
          "velocity": 0.4094488188976378
        },
        {
          "duration": 0.022522499999993784,
          "durationTicks": 16,
          "midi": 42,
          "name": "F#2",
          "ticks": 57482,
          "time": 80.9148965625,
          "velocity": 0.4881889763779528
        },
        {
          "duration": 0.022522499999993784,
          "durationTicks": 16,
          "midi": 70,
          "name": "A#4",
          "ticks": 57482,
          "time": 80.9148965625,
          "velocity": 0.8503937007874016
        },
        {
          "duration": 0.022522499999993784,
          "durationTicks": 16,
          "midi": 45,
          "name": "A2",
          "ticks": 57482,
          "time": 80.9148965625,
          "velocity": 0.4094488188976378
        },
        {
          "duration": 0.0014076562499951706,
          "durationTicks": 1,
          "midi": 69,
          "name": "A4",
          "ticks": 57618,
          "time": 81.1063378125,
          "velocity": 0.4094488188976378
        },
        {
          "duration": 0.0014076562499951706,
          "durationTicks": 1,
          "midi": 35,
          "name": "B1",
          "ticks": 57618,
          "time": 81.1063378125,
          "velocity": 0.889763779527559
        },
        {
          "duration": 0.0014076562499951706,
          "durationTicks": 1,
          "midi": 45,
          "name": "A2",
          "ticks": 57618,
          "time": 81.1063378125,
          "velocity": 0.3779527559055118
        },
        {
          "duration": 0.01689187499999889,
          "durationTicks": 12,
          "midi": 42,
          "name": "F#2",
          "ticks": 57740,
          "time": 81.27807187500001,
          "velocity": 0.4881889763779528
        },
        {
          "duration": 0.01689187499999889,
          "durationTicks": 12,
          "midi": 70,
          "name": "A#4",
          "ticks": 57740,
          "time": 81.27807187500001,
          "velocity": 0.7874015748031497
        },
        {
          "duration": 0.014076562499994338,
          "durationTicks": 10,
          "midi": 69,
          "name": "A4",
          "ticks": 57870,
          "time": 81.4610671875,
          "velocity": 0.4094488188976378
        },
        {
          "duration": 0.014076562499994338,
          "durationTicks": 10,
          "midi": 35,
          "name": "B1",
          "ticks": 57870,
          "time": 81.4610671875,
          "velocity": 0.8267716535433071
        },
        {
          "duration": 0.01970718749998923,
          "durationTicks": 14,
          "midi": 42,
          "name": "F#2",
          "ticks": 57992,
          "time": 81.63280125000001,
          "velocity": 0.4881889763779528
        },
        {
          "duration": 0.01970718749998923,
          "durationTicks": 14,
          "midi": 70,
          "name": "A#4",
          "ticks": 57992,
          "time": 81.63280125000001,
          "velocity": 0.8188976377952756
        },
        {
          "duration": 0.01970718749998923,
          "durationTicks": 14,
          "midi": 48,
          "name": "C3",
          "ticks": 57992,
          "time": 81.63280125000001,
          "velocity": 0.8818897637795275
        },
        {
          "duration": 0.022522500000022205,
          "durationTicks": 16,
          "midi": 69,
          "name": "A4",
          "ticks": 58120,
          "time": 81.81298124999999,
          "velocity": 0.4094488188976378
        },
        {
          "duration": 0.011261249999989786,
          "durationTicks": 8,
          "midi": 45,
          "name": "A2",
          "ticks": 58256,
          "time": 82.0044225,
          "velocity": 0.4094488188976378
        },
        {
          "duration": 0.011261249999989786,
          "durationTicks": 8,
          "midi": 70,
          "name": "A#4",
          "ticks": 58256,
          "time": 82.0044225,
          "velocity": 0.8503937007874016
        },
        {
          "duration": 0.011261249999989786,
          "durationTicks": 8,
          "midi": 42,
          "name": "F#2",
          "ticks": 58256,
          "time": 82.0044225,
          "velocity": 0.4881889763779528
        },
        {
          "duration": 0.011261250000003997,
          "durationTicks": 8,
          "midi": 69,
          "name": "A4",
          "ticks": 58386,
          "time": 82.1874178125,
          "velocity": 0.4094488188976378
        },
        {
          "duration": 0.011261250000003997,
          "durationTicks": 8,
          "midi": 35,
          "name": "B1",
          "ticks": 58386,
          "time": 82.1874178125,
          "velocity": 0.889763779527559
        },
        {
          "duration": 0.011261250000003997,
          "durationTicks": 8,
          "midi": 45,
          "name": "A2",
          "ticks": 58386,
          "time": 82.1874178125,
          "velocity": 0.3779527559055118
        },
        {
          "duration": 0.01689187499999889,
          "durationTicks": 12,
          "midi": 42,
          "name": "F#2",
          "ticks": 58508,
          "time": 82.35915187500001,
          "velocity": 0.4881889763779528
        },
        {
          "duration": 0.01689187499999889,
          "durationTicks": 12,
          "midi": 70,
          "name": "A#4",
          "ticks": 58508,
          "time": 82.35915187500001,
          "velocity": 0.7874015748031497
        },
        {
          "duration": 0.014076562499994338,
          "durationTicks": 10,
          "midi": 69,
          "name": "A4",
          "ticks": 58638,
          "time": 82.5421471875,
          "velocity": 0.4094488188976378
        },
        {
          "duration": 0.014076562499994338,
          "durationTicks": 10,
          "midi": 35,
          "name": "B1",
          "ticks": 58638,
          "time": 82.5421471875,
          "velocity": 0.7637795275590551
        },
        {
          "duration": 0.022522499999993784,
          "durationTicks": 16,
          "midi": 42,
          "name": "F#2",
          "ticks": 58760,
          "time": 82.71388125000001,
          "velocity": 0.4881889763779528
        },
        {
          "duration": 0.022522499999993784,
          "durationTicks": 16,
          "midi": 70,
          "name": "A#4",
          "ticks": 58760,
          "time": 82.71388125000001,
          "velocity": 0.8188976377952756
        },
        {
          "duration": 0.022522499999993784,
          "durationTicks": 16,
          "midi": 48,
          "name": "C3",
          "ticks": 58760,
          "time": 82.71388125000001,
          "velocity": 0.9448818897637795
        },
        {
          "duration": 0.01689187499999889,
          "durationTicks": 12,
          "midi": 69,
          "name": "A4",
          "ticks": 58890,
          "time": 82.8968765625,
          "velocity": 0.4094488188976378
        },
        {
          "duration": 0.022522499999993784,
          "durationTicks": 16,
          "midi": 45,
          "name": "A2",
          "ticks": 59016,
          "time": 83.07424125,
          "velocity": 0.4094488188976378
        },
        {
          "duration": 0.022522499999993784,
          "durationTicks": 16,
          "midi": 70,
          "name": "A#4",
          "ticks": 59016,
          "time": 83.07424125,
          "velocity": 0.8503937007874016
        },
        {
          "duration": 0.022522499999993784,
          "durationTicks": 16,
          "midi": 42,
          "name": "F#2",
          "ticks": 59016,
          "time": 83.07424125,
          "velocity": 0.4881889763779528
        },
        {
          "duration": 0.022522500000007994,
          "durationTicks": 16,
          "midi": 69,
          "name": "A4",
          "ticks": 59146,
          "time": 83.2572365625,
          "velocity": 0.4094488188976378
        },
        {
          "duration": 0.022522500000007994,
          "durationTicks": 16,
          "midi": 35,
          "name": "B1",
          "ticks": 59146,
          "time": 83.2572365625,
          "velocity": 0.889763779527559
        },
        {
          "duration": 0.022522500000007994,
          "durationTicks": 16,
          "midi": 45,
          "name": "A2",
          "ticks": 59146,
          "time": 83.2572365625,
          "velocity": 0.3779527559055118
        },
        {
          "duration": 0.025337812499998336,
          "durationTicks": 18,
          "midi": 42,
          "name": "F#2",
          "ticks": 59272,
          "time": 83.43460125,
          "velocity": 0.4881889763779528
        },
        {
          "duration": 0.025337812499998336,
          "durationTicks": 18,
          "midi": 70,
          "name": "A#4",
          "ticks": 59272,
          "time": 83.43460125,
          "velocity": 0.7874015748031497
        },
        {
          "duration": 0.01689187499999889,
          "durationTicks": 12,
          "midi": 69,
          "name": "A4",
          "ticks": 59404,
          "time": 83.620411875,
          "velocity": 0.4094488188976378
        },
        {
          "duration": 0.01689187499999889,
          "durationTicks": 12,
          "midi": 35,
          "name": "B1",
          "ticks": 59404,
          "time": 83.620411875,
          "velocity": 0.8267716535433071
        },
        {
          "duration": 0.022522499999993784,
          "durationTicks": 16,
          "midi": 42,
          "name": "F#2",
          "ticks": 59528,
          "time": 83.79496125000001,
          "velocity": 0.4881889763779528
        },
        {
          "duration": 0.022522499999993784,
          "durationTicks": 16,
          "midi": 70,
          "name": "A#4",
          "ticks": 59528,
          "time": 83.79496125000001,
          "velocity": 0.8188976377952756
        },
        {
          "duration": 0.022522499999993784,
          "durationTicks": 16,
          "midi": 48,
          "name": "C3",
          "ticks": 59528,
          "time": 83.79496125000001,
          "velocity": 0.8818897637795275
        },
        {
          "duration": 0.019707187500017653,
          "durationTicks": 14,
          "midi": 69,
          "name": "A4",
          "ticks": 59658,
          "time": 83.9779565625,
          "velocity": 0.4094488188976378
        },
        {
          "duration": 0.019707187500003442,
          "durationTicks": 14,
          "midi": 42,
          "name": "F#2",
          "ticks": 59790,
          "time": 84.1637671875,
          "velocity": 0.4881889763779528
        },
        {
          "duration": 0.019707187500003442,
          "durationTicks": 14,
          "midi": 56,
          "name": "G#3",
          "ticks": 59790,
          "time": 84.1637671875,
          "velocity": 0.9763779527559056
        },
        {
          "duration": 0.019707187500003442,
          "durationTicks": 14,
          "midi": 48,
          "name": "C3",
          "ticks": 59790,
          "time": 84.1637671875,
          "velocity": 0.9763779527559056
        },
        {
          "duration": 0.019707187500003442,
          "durationTicks": 14,
          "midi": 45,
          "name": "A2",
          "ticks": 59790,
          "time": 84.1637671875,
          "velocity": 0.4094488188976378
        },
        {
          "duration": 0.0014076562500093814,
          "durationTicks": 1,
          "midi": 69,
          "name": "A4",
          "ticks": 59926,
          "time": 84.3552084375,
          "velocity": 0.4094488188976378
        },
        {
          "duration": 0.0014076562500093814,
          "durationTicks": 1,
          "midi": 0,
          "name": "C-1",
          "ticks": 59926,
          "time": 84.3552084375,
          "velocity": 0.6299212598425197
        },
        {
          "duration": 0.0014076562500093814,
          "durationTicks": 1,
          "midi": 35,
          "name": "B1",
          "ticks": 59926,
          "time": 84.3552084375,
          "velocity": 1
        },
        {
          "duration": 0.022522499999993784,
          "durationTicks": 16,
          "midi": 42,
          "name": "F#2",
          "ticks": 60044,
          "time": 84.52131187500001,
          "velocity": 0.4881889763779528
        },
        {
          "duration": 0.022522499999993784,
          "durationTicks": 16,
          "midi": 70,
          "name": "A#4",
          "ticks": 60044,
          "time": 84.52131187500001,
          "velocity": 0.7874015748031497
        },
        {
          "duration": 0.01689187499999889,
          "durationTicks": 12,
          "midi": 69,
          "name": "A4",
          "ticks": 60174,
          "time": 84.7043071875,
          "velocity": 0.4094488188976378
        },
        {
          "duration": 0.01689187499999889,
          "durationTicks": 12,
          "midi": 35,
          "name": "B1",
          "ticks": 60174,
          "time": 84.7043071875,
          "velocity": 0.889763779527559
        },
        {
          "duration": 0.01689187499999889,
          "durationTicks": 12,
          "midi": 42,
          "name": "F#2",
          "ticks": 60302,
          "time": 84.88448718750001,
          "velocity": 0.4881889763779528
        },
        {
          "duration": 0.01689187499999889,
          "durationTicks": 12,
          "midi": 70,
          "name": "A#4",
          "ticks": 60302,
          "time": 84.88448718750001,
          "velocity": 0.8188976377952756
        },
        {
          "duration": 0.01689187499999889,
          "durationTicks": 12,
          "midi": 48,
          "name": "C3",
          "ticks": 60302,
          "time": 84.88448718750001,
          "velocity": 0.9763779527559056
        },
        {
          "duration": 0.022522500000022205,
          "durationTicks": 16,
          "midi": 69,
          "name": "A4",
          "ticks": 60424,
          "time": 85.05622125,
          "velocity": 0.4094488188976378
        },
        {
          "duration": 0.01689187499999889,
          "durationTicks": 12,
          "midi": 42,
          "name": "F#2",
          "ticks": 60558,
          "time": 85.2448471875,
          "velocity": 0.4881889763779528
        },
        {
          "duration": 0.01689187499999889,
          "durationTicks": 12,
          "midi": 70,
          "name": "A#4",
          "ticks": 60558,
          "time": 85.2448471875,
          "velocity": 0.8503937007874016
        },
        {
          "duration": 0.01689187499999889,
          "durationTicks": 12,
          "midi": 45,
          "name": "A2",
          "ticks": 60558,
          "time": 85.2448471875,
          "velocity": 0.4094488188976378
        },
        {
          "duration": 0.019707187500003442,
          "durationTicks": 14,
          "midi": 69,
          "name": "A4",
          "ticks": 60682,
          "time": 85.4193965625,
          "velocity": 0.4094488188976378
        },
        {
          "duration": 0.019707187500003442,
          "durationTicks": 14,
          "midi": 35,
          "name": "B1",
          "ticks": 60682,
          "time": 85.4193965625,
          "velocity": 0.9212598425196851
        },
        {
          "duration": 0.019707187500003442,
          "durationTicks": 14,
          "midi": 45,
          "name": "A2",
          "ticks": 60682,
          "time": 85.4193965625,
          "velocity": 0.3779527559055118
        },
        {
          "duration": 0.019707187500003442,
          "durationTicks": 14,
          "midi": 42,
          "name": "F#2",
          "ticks": 60810,
          "time": 85.5995765625,
          "velocity": 0.4881889763779528
        },
        {
          "duration": 0.019707187500003442,
          "durationTicks": 14,
          "midi": 70,
          "name": "A#4",
          "ticks": 60810,
          "time": 85.5995765625,
          "velocity": 0.7874015748031497
        },
        {
          "duration": 0.014076562499994338,
          "durationTicks": 10,
          "midi": 69,
          "name": "A4",
          "ticks": 60942,
          "time": 85.7853871875,
          "velocity": 0.4094488188976378
        },
        {
          "duration": 0.014076562499994338,
          "durationTicks": 10,
          "midi": 35,
          "name": "B1",
          "ticks": 60942,
          "time": 85.7853871875,
          "velocity": 0.8582677165354331
        },
        {
          "duration": 0.014076562499994338,
          "durationTicks": 10,
          "midi": 42,
          "name": "F#2",
          "ticks": 61068,
          "time": 85.96275187500001,
          "velocity": 0.4881889763779528
        },
        {
          "duration": 0.014076562499994338,
          "durationTicks": 10,
          "midi": 70,
          "name": "A#4",
          "ticks": 61068,
          "time": 85.96275187500001,
          "velocity": 0.8188976377952756
        },
        {
          "duration": 0.014076562499994338,
          "durationTicks": 10,
          "midi": 48,
          "name": "C3",
          "ticks": 61068,
          "time": 85.96275187500001,
          "velocity": 0.9448818897637795
        },
        {
          "duration": 0.014076562499994338,
          "durationTicks": 10,
          "midi": 69,
          "name": "A4",
          "ticks": 61196,
          "time": 86.142931875,
          "velocity": 0.4094488188976378
        },
        {
          "duration": 0.01689187499999889,
          "durationTicks": 12,
          "midi": 42,
          "name": "F#2",
          "ticks": 61326,
          "time": 86.3259271875,
          "velocity": 0.4881889763779528
        },
        {
          "duration": 0.01689187499999889,
          "durationTicks": 12,
          "midi": 70,
          "name": "A#4",
          "ticks": 61326,
          "time": 86.3259271875,
          "velocity": 0.8503937007874016
        },
        {
          "duration": 0.01689187499999889,
          "durationTicks": 12,
          "midi": 45,
          "name": "A2",
          "ticks": 61326,
          "time": 86.3259271875,
          "velocity": 0.47244094488188976
        },
        {
          "duration": 0.028153125000002888,
          "durationTicks": 20,
          "midi": 69,
          "name": "A4",
          "ticks": 61450,
          "time": 86.5004765625,
          "velocity": 0.4094488188976378
        },
        {
          "duration": 0.028153125000002888,
          "durationTicks": 20,
          "midi": 35,
          "name": "B1",
          "ticks": 61450,
          "time": 86.5004765625,
          "velocity": 0.9212598425196851
        },
        {
          "duration": 0.028153125000002888,
          "durationTicks": 20,
          "midi": 45,
          "name": "A2",
          "ticks": 61450,
          "time": 86.5004765625,
          "velocity": 0.4094488188976378
        },
        {
          "duration": 0.025337812499998336,
          "durationTicks": 18,
          "midi": 42,
          "name": "F#2",
          "ticks": 61576,
          "time": 86.67784125,
          "velocity": 0.4881889763779528
        },
        {
          "duration": 0.025337812499998336,
          "durationTicks": 18,
          "midi": 70,
          "name": "A#4",
          "ticks": 61576,
          "time": 86.67784125,
          "velocity": 0.7874015748031497
        },
        {
          "duration": 0.01689187499999889,
          "durationTicks": 12,
          "midi": 69,
          "name": "A4",
          "ticks": 61708,
          "time": 86.863651875,
          "velocity": 0.4094488188976378
        },
        {
          "duration": 0.01689187499999889,
          "durationTicks": 12,
          "midi": 35,
          "name": "B1",
          "ticks": 61708,
          "time": 86.863651875,
          "velocity": 0.8267716535433071
        },
        {
          "duration": 0.01689187499999889,
          "durationTicks": 12,
          "midi": 42,
          "name": "F#2",
          "ticks": 61838,
          "time": 87.04664718750001,
          "velocity": 0.4881889763779528
        },
        {
          "duration": 0.01689187499999889,
          "durationTicks": 12,
          "midi": 70,
          "name": "A#4",
          "ticks": 61838,
          "time": 87.04664718750001,
          "velocity": 0.8188976377952756
        },
        {
          "duration": 0.01689187499999889,
          "durationTicks": 12,
          "midi": 48,
          "name": "C3",
          "ticks": 61838,
          "time": 87.04664718750001,
          "velocity": 0.9763779527559056
        },
        {
          "duration": 0.019707187500017653,
          "durationTicks": 14,
          "midi": 69,
          "name": "A4",
          "ticks": 61962,
          "time": 87.2211965625,
          "velocity": 0.4094488188976378
        },
        {
          "duration": 0.01689187499999889,
          "durationTicks": 12,
          "midi": 42,
          "name": "F#2",
          "ticks": 62094,
          "time": 87.4070071875,
          "velocity": 0.4881889763779528
        },
        {
          "duration": 0.01689187499999889,
          "durationTicks": 12,
          "midi": 70,
          "name": "A#4",
          "ticks": 62094,
          "time": 87.4070071875,
          "velocity": 0.8503937007874016
        },
        {
          "duration": 0.01689187499999889,
          "durationTicks": 12,
          "midi": 45,
          "name": "A2",
          "ticks": 62094,
          "time": 87.4070071875,
          "velocity": 0.47244094488188976
        },
        {
          "duration": 0.01689187499999889,
          "durationTicks": 12,
          "midi": 69,
          "name": "A4",
          "ticks": 62222,
          "time": 87.5871871875,
          "velocity": 0.4094488188976378
        },
        {
          "duration": 0.01689187499999889,
          "durationTicks": 12,
          "midi": 35,
          "name": "B1",
          "ticks": 62222,
          "time": 87.5871871875,
          "velocity": 0.9212598425196851
        },
        {
          "duration": 0.01689187499999889,
          "durationTicks": 12,
          "midi": 45,
          "name": "A2",
          "ticks": 62222,
          "time": 87.5871871875,
          "velocity": 0.4094488188976378
        },
        {
          "duration": 0.022522499999993784,
          "durationTicks": 16,
          "midi": 42,
          "name": "F#2",
          "ticks": 62346,
          "time": 87.7617365625,
          "velocity": 0.4881889763779528
        },
        {
          "duration": 0.022522499999993784,
          "durationTicks": 16,
          "midi": 70,
          "name": "A#4",
          "ticks": 62346,
          "time": 87.7617365625,
          "velocity": 0.7874015748031497
        },
        {
          "duration": 0.01689187499999889,
          "durationTicks": 12,
          "midi": 69,
          "name": "A4",
          "ticks": 62476,
          "time": 87.944731875,
          "velocity": 0.4094488188976378
        },
        {
          "duration": 0.01689187499999889,
          "durationTicks": 12,
          "midi": 35,
          "name": "B1",
          "ticks": 62476,
          "time": 87.944731875,
          "velocity": 0.8582677165354331
        },
        {
          "duration": 0.014076562499994338,
          "durationTicks": 10,
          "midi": 42,
          "name": "F#2",
          "ticks": 62606,
          "time": 88.12772718750001,
          "velocity": 0.4881889763779528
        },
        {
          "duration": 0.014076562499994338,
          "durationTicks": 10,
          "midi": 70,
          "name": "A#4",
          "ticks": 62606,
          "time": 88.12772718750001,
          "velocity": 0.8188976377952756
        },
        {
          "duration": 0.014076562499994338,
          "durationTicks": 10,
          "midi": 48,
          "name": "C3",
          "ticks": 62606,
          "time": 88.12772718750001,
          "velocity": 0.9448818897637795
        },
        {
          "duration": 0.019707187500017653,
          "durationTicks": 14,
          "midi": 69,
          "name": "A4",
          "ticks": 62730,
          "time": 88.3022765625,
          "velocity": 0.4094488188976378
        },
        {
          "duration": 0.01689187499999889,
          "durationTicks": 12,
          "midi": 42,
          "name": "F#2",
          "ticks": 62862,
          "time": 88.4880871875,
          "velocity": 0.4881889763779528
        },
        {
          "duration": 0.01689187499999889,
          "durationTicks": 12,
          "midi": 70,
          "name": "A#4",
          "ticks": 62862,
          "time": 88.4880871875,
          "velocity": 0.8503937007874016
        },
        {
          "duration": 0.01689187499999889,
          "durationTicks": 12,
          "midi": 45,
          "name": "A2",
          "ticks": 62862,
          "time": 88.4880871875,
          "velocity": 0.47244094488188976
        },
        {
          "duration": 0.0014076562500093814,
          "durationTicks": 1,
          "midi": 69,
          "name": "A4",
          "ticks": 62998,
          "time": 88.6795284375,
          "velocity": 0.4094488188976378
        },
        {
          "duration": 0.0014076562500093814,
          "durationTicks": 1,
          "midi": 35,
          "name": "B1",
          "ticks": 62998,
          "time": 88.6795284375,
          "velocity": 0.9212598425196851
        },
        {
          "duration": 0.0014076562500093814,
          "durationTicks": 1,
          "midi": 45,
          "name": "A2",
          "ticks": 62998,
          "time": 88.6795284375,
          "velocity": 0.4094488188976378
        },
        {
          "duration": 0.022522500000007994,
          "durationTicks": 16,
          "midi": 42,
          "name": "F#2",
          "ticks": 63112,
          "time": 88.84000125,
          "velocity": 0.4881889763779528
        },
        {
          "duration": 0.022522500000007994,
          "durationTicks": 16,
          "midi": 70,
          "name": "A#4",
          "ticks": 63112,
          "time": 88.84000125,
          "velocity": 0.7874015748031497
        },
        {
          "duration": 0.022522500000007994,
          "durationTicks": 16,
          "midi": 69,
          "name": "A4",
          "ticks": 63244,
          "time": 89.025811875,
          "velocity": 0.4094488188976378
        },
        {
          "duration": 0.022522500000007994,
          "durationTicks": 16,
          "midi": 35,
          "name": "B1",
          "ticks": 63244,
          "time": 89.025811875,
          "velocity": 0.8267716535433071
        },
        {
          "duration": 0.022522500000007994,
          "durationTicks": 16,
          "midi": 42,
          "name": "F#2",
          "ticks": 63370,
          "time": 89.2031765625,
          "velocity": 0.4881889763779528
        },
        {
          "duration": 0.022522500000007994,
          "durationTicks": 16,
          "midi": 70,
          "name": "A#4",
          "ticks": 63370,
          "time": 89.2031765625,
          "velocity": 0.8188976377952756
        },
        {
          "duration": 0.022522500000007994,
          "durationTicks": 16,
          "midi": 48,
          "name": "C3",
          "ticks": 63370,
          "time": 89.2031765625,
          "velocity": 0.9763779527559056
        },
        {
          "duration": 0.022522499999993784,
          "durationTicks": 16,
          "midi": 69,
          "name": "A4",
          "ticks": 63498,
          "time": 89.3833565625,
          "velocity": 0.4094488188976378
        },
        {
          "duration": 0.028153125000002888,
          "durationTicks": 20,
          "midi": 45,
          "name": "A2",
          "ticks": 63624,
          "time": 89.56072125,
          "velocity": 0.47244094488188976
        },
        {
          "duration": 0.028153125000002888,
          "durationTicks": 20,
          "midi": 70,
          "name": "A#4",
          "ticks": 63624,
          "time": 89.56072125,
          "velocity": 0.8503937007874016
        },
        {
          "duration": 0.028153125000002888,
          "durationTicks": 20,
          "midi": 42,
          "name": "F#2",
          "ticks": 63624,
          "time": 89.56072125,
          "velocity": 0.4881889763779528
        },
        {
          "duration": 0.014076562499994338,
          "durationTicks": 10,
          "midi": 69,
          "name": "A4",
          "ticks": 63758,
          "time": 89.7493471875,
          "velocity": 0.4094488188976378
        },
        {
          "duration": 0.014076562499994338,
          "durationTicks": 10,
          "midi": 35,
          "name": "B1",
          "ticks": 63758,
          "time": 89.7493471875,
          "velocity": 0.9212598425196851
        },
        {
          "duration": 0.014076562499994338,
          "durationTicks": 10,
          "midi": 45,
          "name": "A2",
          "ticks": 63758,
          "time": 89.7493471875,
          "velocity": 0.4094488188976378
        },
        {
          "duration": 0.019707187500003442,
          "durationTicks": 14,
          "midi": 42,
          "name": "F#2",
          "ticks": 63882,
          "time": 89.9238965625,
          "velocity": 0.4881889763779528
        },
        {
          "duration": 0.019707187500003442,
          "durationTicks": 14,
          "midi": 70,
          "name": "A#4",
          "ticks": 63882,
          "time": 89.9238965625,
          "velocity": 0.7874015748031497
        },
        {
          "duration": 0.019707187500003442,
          "durationTicks": 14,
          "midi": 69,
          "name": "A4",
          "ticks": 64012,
          "time": 90.106891875,
          "velocity": 0.4094488188976378
        },
        {
          "duration": 0.019707187500003442,
          "durationTicks": 14,
          "midi": 35,
          "name": "B1",
          "ticks": 64012,
          "time": 90.106891875,
          "velocity": 0.8582677165354331
        },
        {
          "duration": 0.022522499999993784,
          "durationTicks": 16,
          "midi": 42,
          "name": "F#2",
          "ticks": 64136,
          "time": 90.28144125000001,
          "velocity": 0.4881889763779528
        },
        {
          "duration": 0.022522499999993784,
          "durationTicks": 16,
          "midi": 70,
          "name": "A#4",
          "ticks": 64136,
          "time": 90.28144125000001,
          "velocity": 0.8188976377952756
        },
        {
          "duration": 0.022522499999993784,
          "durationTicks": 16,
          "midi": 48,
          "name": "C3",
          "ticks": 64136,
          "time": 90.28144125000001,
          "velocity": 0.9448818897637795
        },
        {
          "duration": 0.019707187500017653,
          "durationTicks": 14,
          "midi": 69,
          "name": "A4",
          "ticks": 64266,
          "time": 90.4644365625,
          "velocity": 0.4094488188976378
        },
        {
          "duration": 0.01689187499999889,
          "durationTicks": 12,
          "midi": 42,
          "name": "F#2",
          "ticks": 64396,
          "time": 90.647431875,
          "velocity": 0.4881889763779528
        },
        {
          "duration": 0.01689187499999889,
          "durationTicks": 12,
          "midi": 70,
          "name": "A#4",
          "ticks": 64396,
          "time": 90.647431875,
          "velocity": 0.8503937007874016
        },
        {
          "duration": 0.01689187499999889,
          "durationTicks": 12,
          "midi": 45,
          "name": "A2",
          "ticks": 64396,
          "time": 90.647431875,
          "velocity": 0.47244094488188976
        },
        {
          "duration": 0.028153125000002888,
          "durationTicks": 20,
          "midi": 69,
          "name": "A4",
          "ticks": 64524,
          "time": 90.827611875,
          "velocity": 0.4094488188976378
        },
        {
          "duration": 0.028153125000002888,
          "durationTicks": 20,
          "midi": 35,
          "name": "B1",
          "ticks": 64524,
          "time": 90.827611875,
          "velocity": 0.9212598425196851
        },
        {
          "duration": 0.028153125000002888,
          "durationTicks": 20,
          "midi": 45,
          "name": "A2",
          "ticks": 64524,
          "time": 90.827611875,
          "velocity": 0.4094488188976378
        },
        {
          "duration": 0.022522499999993784,
          "durationTicks": 16,
          "midi": 42,
          "name": "F#2",
          "ticks": 64650,
          "time": 91.0049765625,
          "velocity": 0.4881889763779528
        },
        {
          "duration": 0.022522499999993784,
          "durationTicks": 16,
          "midi": 70,
          "name": "A#4",
          "ticks": 64650,
          "time": 91.0049765625,
          "velocity": 0.7874015748031497
        },
        {
          "duration": 0.01689187499999889,
          "durationTicks": 12,
          "midi": 69,
          "name": "A4",
          "ticks": 64782,
          "time": 91.1907871875,
          "velocity": 0.4094488188976378
        },
        {
          "duration": 0.01689187499999889,
          "durationTicks": 12,
          "midi": 35,
          "name": "B1",
          "ticks": 64782,
          "time": 91.1907871875,
          "velocity": 0.8267716535433071
        },
        {
          "duration": 0.025337812499998336,
          "durationTicks": 18,
          "midi": 42,
          "name": "F#2",
          "ticks": 64904,
          "time": 91.36252125000001,
          "velocity": 0.4881889763779528
        },
        {
          "duration": 0.025337812499998336,
          "durationTicks": 18,
          "midi": 70,
          "name": "A#4",
          "ticks": 64904,
          "time": 91.36252125000001,
          "velocity": 0.8188976377952756
        },
        {
          "duration": 0.025337812499998336,
          "durationTicks": 18,
          "midi": 48,
          "name": "C3",
          "ticks": 64904,
          "time": 91.36252125000001,
          "velocity": 0.9763779527559056
        },
        {
          "duration": 0.019707187500003442,
          "durationTicks": 14,
          "midi": 69,
          "name": "A4",
          "ticks": 65032,
          "time": 91.54270125,
          "velocity": 0.4094488188976378
        },
        {
          "duration": 0.011261249999989786,
          "durationTicks": 8,
          "midi": 45,
          "name": "A2",
          "ticks": 65168,
          "time": 91.7341425,
          "velocity": 0.47244094488188976
        },
        {
          "duration": 0.011261249999989786,
          "durationTicks": 8,
          "midi": 70,
          "name": "A#4",
          "ticks": 65168,
          "time": 91.7341425,
          "velocity": 0.8503937007874016
        },
        {
          "duration": 0.011261249999989786,
          "durationTicks": 8,
          "midi": 42,
          "name": "F#2",
          "ticks": 65168,
          "time": 91.7341425,
          "velocity": 0.4881889763779528
        },
        {
          "duration": 0.019707187500003442,
          "durationTicks": 14,
          "midi": 69,
          "name": "A4",
          "ticks": 65290,
          "time": 91.9058765625,
          "velocity": 0.4094488188976378
        },
        {
          "duration": 0.019707187500003442,
          "durationTicks": 14,
          "midi": 35,
          "name": "B1",
          "ticks": 65290,
          "time": 91.9058765625,
          "velocity": 0.9212598425196851
        },
        {
          "duration": 0.019707187500003442,
          "durationTicks": 14,
          "midi": 45,
          "name": "A2",
          "ticks": 65290,
          "time": 91.9058765625,
          "velocity": 0.4094488188976378
        },
        {
          "duration": 0.01970718749998923,
          "durationTicks": 14,
          "midi": 42,
          "name": "F#2",
          "ticks": 65420,
          "time": 92.08887187500001,
          "velocity": 0.4881889763779528
        },
        {
          "duration": 0.01970718749998923,
          "durationTicks": 14,
          "midi": 70,
          "name": "A#4",
          "ticks": 65420,
          "time": 92.08887187500001,
          "velocity": 0.7874015748031497
        },
        {
          "duration": 0.025337812499998336,
          "durationTicks": 18,
          "midi": 35,
          "name": "B1",
          "ticks": 65544,
          "time": 92.26342125000001,
          "velocity": 0.8582677165354331
        },
        {
          "duration": 0.025337812499998336,
          "durationTicks": 18,
          "midi": 69,
          "name": "A4",
          "ticks": 65544,
          "time": 92.26342125000001,
          "velocity": 0.4094488188976378
        },
        {
          "duration": 0.025337812499998336,
          "durationTicks": 18,
          "midi": 42,
          "name": "F#2",
          "ticks": 65672,
          "time": 92.44360125000001,
          "velocity": 0.4881889763779528
        },
        {
          "duration": 0.025337812499998336,
          "durationTicks": 18,
          "midi": 70,
          "name": "A#4",
          "ticks": 65672,
          "time": 92.44360125000001,
          "velocity": 0.8188976377952756
        },
        {
          "duration": 0.025337812499998336,
          "durationTicks": 18,
          "midi": 48,
          "name": "C3",
          "ticks": 65672,
          "time": 92.44360125000001,
          "velocity": 0.9448818897637795
        },
        {
          "duration": 0.0168918750000131,
          "durationTicks": 12,
          "midi": 69,
          "name": "A4",
          "ticks": 65804,
          "time": 92.629411875,
          "velocity": 0.4094488188976378
        },
        {
          "duration": 0.022522499999993784,
          "durationTicks": 16,
          "midi": 45,
          "name": "A2",
          "ticks": 65928,
          "time": 92.80396125,
          "velocity": 0.47244094488188976
        },
        {
          "duration": 0.022522499999993784,
          "durationTicks": 16,
          "midi": 70,
          "name": "A#4",
          "ticks": 65928,
          "time": 92.80396125,
          "velocity": 0.8503937007874016
        },
        {
          "duration": 0.022522499999993784,
          "durationTicks": 16,
          "midi": 42,
          "name": "F#2",
          "ticks": 65928,
          "time": 92.80396125,
          "velocity": 0.4881889763779528
        },
        {
          "duration": 0.0014076562500093814,
          "durationTicks": 1,
          "midi": 69,
          "name": "A4",
          "ticks": 66070,
          "time": 93.0038484375,
          "velocity": 0.4094488188976378
        },
        {
          "duration": 0.0014076562500093814,
          "durationTicks": 1,
          "midi": 35,
          "name": "B1",
          "ticks": 66070,
          "time": 93.0038484375,
          "velocity": 0.9212598425196851
        },
        {
          "duration": 0.0014076562500093814,
          "durationTicks": 1,
          "midi": 45,
          "name": "A2",
          "ticks": 66070,
          "time": 93.0038484375,
          "velocity": 0.4094488188976378
        },
        {
          "duration": 0.022522499999993784,
          "durationTicks": 16,
          "midi": 42,
          "name": "F#2",
          "ticks": 66186,
          "time": 93.1671365625,
          "velocity": 0.4881889763779528
        },
        {
          "duration": 0.022522499999993784,
          "durationTicks": 16,
          "midi": 70,
          "name": "A#4",
          "ticks": 66186,
          "time": 93.1671365625,
          "velocity": 0.7874015748031497
        },
        {
          "duration": 0.01407656250000855,
          "durationTicks": 10,
          "midi": 69,
          "name": "A4",
          "ticks": 66316,
          "time": 93.350131875,
          "velocity": 0.4094488188976378
        },
        {
          "duration": 0.01407656250000855,
          "durationTicks": 10,
          "midi": 35,
          "name": "B1",
          "ticks": 66316,
          "time": 93.350131875,
          "velocity": 0.8267716535433071
        },
        {
          "duration": 0.01689187499999889,
          "durationTicks": 12,
          "midi": 42,
          "name": "F#2",
          "ticks": 66446,
          "time": 93.53312718750001,
          "velocity": 0.4881889763779528
        },
        {
          "duration": 0.01689187499999889,
          "durationTicks": 12,
          "midi": 70,
          "name": "A#4",
          "ticks": 66446,
          "time": 93.53312718750001,
          "velocity": 0.8188976377952756
        },
        {
          "duration": 0.01689187499999889,
          "durationTicks": 12,
          "midi": 48,
          "name": "C3",
          "ticks": 66446,
          "time": 93.53312718750001,
          "velocity": 0.9763779527559056
        },
        {
          "duration": 0.01970718749998923,
          "durationTicks": 14,
          "midi": 69,
          "name": "A4",
          "ticks": 66572,
          "time": 93.710491875,
          "velocity": 0.4094488188976378
        },
        {
          "duration": 0.014076562499994338,
          "durationTicks": 10,
          "midi": 45,
          "name": "A2",
          "ticks": 66704,
          "time": 93.8963025,
          "velocity": 0.47244094488188976
        },
        {
          "duration": 0.014076562499994338,
          "durationTicks": 10,
          "midi": 70,
          "name": "A#4",
          "ticks": 66704,
          "time": 93.8963025,
          "velocity": 0.8503937007874016
        },
        {
          "duration": 0.014076562499994338,
          "durationTicks": 10,
          "midi": 42,
          "name": "F#2",
          "ticks": 66704,
          "time": 93.8963025,
          "velocity": 0.4881889763779528
        },
        {
          "duration": 0.0014076562499951706,
          "durationTicks": 1,
          "midi": 69,
          "name": "A4",
          "ticks": 66828,
          "time": 94.070851875,
          "velocity": 0.4094488188976378
        },
        {
          "duration": 0.0014076562499951706,
          "durationTicks": 1,
          "midi": 35,
          "name": "B1",
          "ticks": 66828,
          "time": 94.070851875,
          "velocity": 0.9212598425196851
        },
        {
          "duration": 0.0014076562499951706,
          "durationTicks": 1,
          "midi": 45,
          "name": "A2",
          "ticks": 66828,
          "time": 94.070851875,
          "velocity": 0.4094488188976378
        },
        {
          "duration": 0.01689187499999889,
          "durationTicks": 12,
          "midi": 42,
          "name": "F#2",
          "ticks": 66956,
          "time": 94.25103187500001,
          "velocity": 0.4881889763779528
        },
        {
          "duration": 0.01689187499999889,
          "durationTicks": 12,
          "midi": 70,
          "name": "A#4",
          "ticks": 66956,
          "time": 94.25103187500001,
          "velocity": 0.7874015748031497
        },
        {
          "duration": 0.014076562499994338,
          "durationTicks": 10,
          "midi": 69,
          "name": "A4",
          "ticks": 67086,
          "time": 94.4340271875,
          "velocity": 0.4094488188976378
        },
        {
          "duration": 0.014076562499994338,
          "durationTicks": 10,
          "midi": 35,
          "name": "B1",
          "ticks": 67086,
          "time": 94.4340271875,
          "velocity": 0.8582677165354331
        },
        {
          "duration": 0.022522499999993784,
          "durationTicks": 16,
          "midi": 42,
          "name": "F#2",
          "ticks": 67208,
          "time": 94.60576125000001,
          "velocity": 0.4881889763779528
        },
        {
          "duration": 0.022522499999993784,
          "durationTicks": 16,
          "midi": 70,
          "name": "A#4",
          "ticks": 67208,
          "time": 94.60576125000001,
          "velocity": 0.8188976377952756
        },
        {
          "duration": 0.022522499999993784,
          "durationTicks": 16,
          "midi": 48,
          "name": "C3",
          "ticks": 67208,
          "time": 94.60576125000001,
          "velocity": 0.9448818897637795
        },
        {
          "duration": 0.0168918750000131,
          "durationTicks": 12,
          "midi": 69,
          "name": "A4",
          "ticks": 67340,
          "time": 94.791571875,
          "velocity": 0.4094488188976378
        },
        {
          "duration": 0.011261249999989786,
          "durationTicks": 8,
          "midi": 45,
          "name": "A2",
          "ticks": 67472,
          "time": 94.9773825,
          "velocity": 0.47244094488188976
        },
        {
          "duration": 0.011261249999989786,
          "durationTicks": 8,
          "midi": 70,
          "name": "A#4",
          "ticks": 67472,
          "time": 94.9773825,
          "velocity": 0.8503937007874016
        },
        {
          "duration": 0.011261249999989786,
          "durationTicks": 8,
          "midi": 42,
          "name": "F#2",
          "ticks": 67472,
          "time": 94.9773825,
          "velocity": 0.4881889763779528
        },
        {
          "duration": 0.0014076562500093814,
          "durationTicks": 1,
          "midi": 69,
          "name": "A4",
          "ticks": 67606,
          "time": 95.1660084375,
          "velocity": 0.4094488188976378
        },
        {
          "duration": 0.0014076562500093814,
          "durationTicks": 1,
          "midi": 35,
          "name": "B1",
          "ticks": 67606,
          "time": 95.1660084375,
          "velocity": 0.9212598425196851
        },
        {
          "duration": 0.0014076562500093814,
          "durationTicks": 1,
          "midi": 45,
          "name": "A2",
          "ticks": 67606,
          "time": 95.1660084375,
          "velocity": 0.4094488188976378
        },
        {
          "duration": 0.01970718749998923,
          "durationTicks": 14,
          "midi": 42,
          "name": "F#2",
          "ticks": 67724,
          "time": 95.33211187500001,
          "velocity": 0.4881889763779528
        },
        {
          "duration": 0.01970718749998923,
          "durationTicks": 14,
          "midi": 70,
          "name": "A#4",
          "ticks": 67724,
          "time": 95.33211187500001,
          "velocity": 0.7874015748031497
        },
        {
          "duration": 0.022522499999993784,
          "durationTicks": 16,
          "midi": 35,
          "name": "B1",
          "ticks": 67848,
          "time": 95.50666125000001,
          "velocity": 0.8267716535433071
        },
        {
          "duration": 0.022522499999993784,
          "durationTicks": 16,
          "midi": 69,
          "name": "A4",
          "ticks": 67848,
          "time": 95.50666125000001,
          "velocity": 0.4094488188976378
        },
        {
          "duration": 0.022522499999993784,
          "durationTicks": 16,
          "midi": 42,
          "name": "F#2",
          "ticks": 67976,
          "time": 95.68684125000001,
          "velocity": 0.4881889763779528
        },
        {
          "duration": 0.022522499999993784,
          "durationTicks": 16,
          "midi": 70,
          "name": "A#4",
          "ticks": 67976,
          "time": 95.68684125000001,
          "velocity": 0.8188976377952756
        },
        {
          "duration": 0.022522499999993784,
          "durationTicks": 16,
          "midi": 48,
          "name": "C3",
          "ticks": 67976,
          "time": 95.68684125000001,
          "velocity": 0.9763779527559056
        },
        {
          "duration": 0.019707187500017653,
          "durationTicks": 14,
          "midi": 69,
          "name": "A4",
          "ticks": 68106,
          "time": 95.8698365625,
          "velocity": 0.4094488188976378
        },
        {
          "duration": 0.028153125000002888,
          "durationTicks": 20,
          "midi": 45,
          "name": "A2",
          "ticks": 68232,
          "time": 96.04720125,
          "velocity": 0.47244094488188976
        },
        {
          "duration": 0.028153125000002888,
          "durationTicks": 20,
          "midi": 70,
          "name": "A#4",
          "ticks": 68232,
          "time": 96.04720125,
          "velocity": 0.8503937007874016
        },
        {
          "duration": 0.028153125000002888,
          "durationTicks": 20,
          "midi": 42,
          "name": "F#2",
          "ticks": 68232,
          "time": 96.04720125,
          "velocity": 0.4881889763779528
        },
        {
          "duration": 0.0014076562500093814,
          "durationTicks": 1,
          "midi": 69,
          "name": "A4",
          "ticks": 68374,
          "time": 96.2470884375,
          "velocity": 0.4094488188976378
        },
        {
          "duration": 0.0014076562500093814,
          "durationTicks": 1,
          "midi": 35,
          "name": "B1",
          "ticks": 68374,
          "time": 96.2470884375,
          "velocity": 0.9212598425196851
        },
        {
          "duration": 0.0014076562500093814,
          "durationTicks": 1,
          "midi": 45,
          "name": "A2",
          "ticks": 68374,
          "time": 96.2470884375,
          "velocity": 0.4094488188976378
        },
        {
          "duration": 0.01689187499999889,
          "durationTicks": 12,
          "midi": 42,
          "name": "F#2",
          "ticks": 68494,
          "time": 96.4160071875,
          "velocity": 0.4881889763779528
        },
        {
          "duration": 0.01689187499999889,
          "durationTicks": 12,
          "midi": 70,
          "name": "A#4",
          "ticks": 68494,
          "time": 96.4160071875,
          "velocity": 0.7874015748031497
        },
        {
          "duration": 0.01689187499999889,
          "durationTicks": 12,
          "midi": 48,
          "name": "C3",
          "ticks": 68494,
          "time": 96.4160071875,
          "velocity": 0.8818897637795275
        },
        {
          "duration": 0.014076562499994338,
          "durationTicks": 10,
          "midi": 69,
          "name": "A4",
          "ticks": 68622,
          "time": 96.5961871875,
          "velocity": 0.4094488188976378
        },
        {
          "duration": 0.014076562499994338,
          "durationTicks": 10,
          "midi": 35,
          "name": "B1",
          "ticks": 68622,
          "time": 96.5961871875,
          "velocity": 0.8582677165354331
        },
        {
          "duration": 0.011261250000003997,
          "durationTicks": 8,
          "midi": 42,
          "name": "F#2",
          "ticks": 68754,
          "time": 96.78199781250001,
          "velocity": 0.4881889763779528
        },
        {
          "duration": 0.011261250000003997,
          "durationTicks": 8,
          "midi": 70,
          "name": "A#4",
          "ticks": 68754,
          "time": 96.78199781250001,
          "velocity": 0.8188976377952756
        },
        {
          "duration": 0.011261250000003997,
          "durationTicks": 8,
          "midi": 48,
          "name": "C3",
          "ticks": 68754,
          "time": 96.78199781250001,
          "velocity": 0.9763779527559056
        },
        {
          "duration": 0.025337812499998336,
          "durationTicks": 18,
          "midi": 69,
          "name": "A4",
          "ticks": 68872,
          "time": 96.94810125,
          "velocity": 0.4094488188976378
        },
        {
          "duration": 0.025337812499998336,
          "durationTicks": 18,
          "midi": 48,
          "name": "C3",
          "ticks": 68872,
          "time": 96.94810125,
          "velocity": 0.7244094488188977
        },
        {
          "duration": 0.025337812499998336,
          "durationTicks": 18,
          "midi": 45,
          "name": "A2",
          "ticks": 69000,
          "time": 97.12828125,
          "velocity": 0.47244094488188976
        },
        {
          "duration": 0.025337812499998336,
          "durationTicks": 18,
          "midi": 48,
          "name": "C3",
          "ticks": 69000,
          "time": 97.12828125,
          "velocity": 0.8503937007874016
        },
        {
          "duration": 0.025337812499998336,
          "durationTicks": 18,
          "midi": 70,
          "name": "A#4",
          "ticks": 69000,
          "time": 97.12828125,
          "velocity": 0.8503937007874016
        },
        {
          "duration": 0.025337812499998336,
          "durationTicks": 18,
          "midi": 42,
          "name": "F#2",
          "ticks": 69000,
          "time": 97.12828125,
          "velocity": 0.4881889763779528
        },
        {
          "duration": 0.025337812499998336,
          "durationTicks": 18,
          "midi": 69,
          "name": "A4",
          "ticks": 69136,
          "time": 97.3197225,
          "velocity": 0.4094488188976378
        },
        {
          "duration": 0.025337812499998336,
          "durationTicks": 18,
          "midi": 0,
          "name": "C-1",
          "ticks": 69136,
          "time": 97.3197225,
          "velocity": 0.6299212598425197
        },
        {
          "duration": 0.025337812499998336,
          "durationTicks": 18,
          "midi": 35,
          "name": "B1",
          "ticks": 69136,
          "time": 97.3197225,
          "velocity": 0.889763779527559
        },
        {
          "duration": 0.011261250000003997,
          "durationTicks": 8,
          "midi": 42,
          "name": "F#2",
          "ticks": 69264,
          "time": 97.4999025,
          "velocity": 0.4881889763779528
        },
        {
          "duration": 0.011261250000003997,
          "durationTicks": 8,
          "midi": 70,
          "name": "A#4",
          "ticks": 69264,
          "time": 97.4999025,
          "velocity": 0.7874015748031497
        },
        {
          "duration": 0.022522499999993784,
          "durationTicks": 16,
          "midi": 35,
          "name": "B1",
          "ticks": 69384,
          "time": 97.66882125000001,
          "velocity": 0.7637795275590551
        },
        {
          "duration": 0.022522499999993784,
          "durationTicks": 16,
          "midi": 69,
          "name": "A4",
          "ticks": 69384,
          "time": 97.66882125000001,
          "velocity": 0.4094488188976378
        },
        {
          "duration": 0.008445937499999445,
          "durationTicks": 6,
          "midi": 42,
          "name": "F#2",
          "ticks": 69520,
          "time": 97.8602625,
          "velocity": 0.4881889763779528
        },
        {
          "duration": 0.008445937499999445,
          "durationTicks": 6,
          "midi": 70,
          "name": "A#4",
          "ticks": 69520,
          "time": 97.8602625,
          "velocity": 0.8188976377952756
        },
        {
          "duration": 0.008445937499999445,
          "durationTicks": 6,
          "midi": 48,
          "name": "C3",
          "ticks": 69520,
          "time": 97.8602625,
          "velocity": 0.9448818897637795
        },
        {
          "duration": 0.01407656250002276,
          "durationTicks": 10,
          "midi": 69,
          "name": "A4",
          "ticks": 69646,
          "time": 98.0376271875,
          "velocity": 0.4094488188976378
        },
        {
          "duration": 0.014076562499994338,
          "durationTicks": 10,
          "midi": 42,
          "name": "F#2",
          "ticks": 69774,
          "time": 98.2178071875,
          "velocity": 0.4881889763779528
        },
        {
          "duration": 0.014076562499994338,
          "durationTicks": 10,
          "midi": 70,
          "name": "A#4",
          "ticks": 69774,
          "time": 98.2178071875,
          "velocity": 0.8503937007874016
        },
        {
          "duration": 0.014076562499994338,
          "durationTicks": 10,
          "midi": 45,
          "name": "A2",
          "ticks": 69774,
          "time": 98.2178071875,
          "velocity": 0.47244094488188976
        },
        {
          "duration": 0.0014076562500093814,
          "durationTicks": 1,
          "midi": 69,
          "name": "A4",
          "ticks": 69904,
          "time": 98.4008025,
          "velocity": 0.4094488188976378
        },
        {
          "duration": 0.0014076562500093814,
          "durationTicks": 1,
          "midi": 35,
          "name": "B1",
          "ticks": 69904,
          "time": 98.4008025,
          "velocity": 0.889763779527559
        },
        {
          "duration": 0.0014076562500093814,
          "durationTicks": 1,
          "midi": 45,
          "name": "A2",
          "ticks": 69904,
          "time": 98.4008025,
          "velocity": 0.4094488188976378
        },
        {
          "duration": 0.025337812499998336,
          "durationTicks": 18,
          "midi": 42,
          "name": "F#2",
          "ticks": 70024,
          "time": 98.56972125,
          "velocity": 0.4881889763779528
        },
        {
          "duration": 0.025337812499998336,
          "durationTicks": 18,
          "midi": 70,
          "name": "A#4",
          "ticks": 70024,
          "time": 98.56972125,
          "velocity": 0.7874015748031497
        },
        {
          "duration": 0.01689187499999889,
          "durationTicks": 12,
          "midi": 69,
          "name": "A4",
          "ticks": 70158,
          "time": 98.75834718750001,
          "velocity": 0.4094488188976378
        },
        {
          "duration": 0.01689187499999889,
          "durationTicks": 12,
          "midi": 35,
          "name": "B1",
          "ticks": 70158,
          "time": 98.75834718750001,
          "velocity": 0.8267716535433071
        },
        {
          "duration": 0.011261250000003997,
          "durationTicks": 8,
          "midi": 42,
          "name": "F#2",
          "ticks": 70290,
          "time": 98.94415781250001,
          "velocity": 0.4881889763779528
        },
        {
          "duration": 0.011261250000003997,
          "durationTicks": 8,
          "midi": 70,
          "name": "A#4",
          "ticks": 70290,
          "time": 98.94415781250001,
          "velocity": 0.8188976377952756
        },
        {
          "duration": 0.011261250000003997,
          "durationTicks": 8,
          "midi": 48,
          "name": "C3",
          "ticks": 70290,
          "time": 98.94415781250001,
          "velocity": 0.8818897637795275
        },
        {
          "duration": 0.01970718749998923,
          "durationTicks": 14,
          "midi": 69,
          "name": "A4",
          "ticks": 70412,
          "time": 99.115891875,
          "velocity": 0.4094488188976378
        },
        {
          "duration": 0.01689187499999889,
          "durationTicks": 12,
          "midi": 42,
          "name": "F#2",
          "ticks": 70542,
          "time": 99.2988871875,
          "velocity": 0.4881889763779528
        },
        {
          "duration": 0.01689187499999889,
          "durationTicks": 12,
          "midi": 70,
          "name": "A#4",
          "ticks": 70542,
          "time": 99.2988871875,
          "velocity": 0.8503937007874016
        },
        {
          "duration": 0.01689187499999889,
          "durationTicks": 12,
          "midi": 45,
          "name": "A2",
          "ticks": 70542,
          "time": 99.2988871875,
          "velocity": 0.5039370078740157
        },
        {
          "duration": 0.0014076562500093814,
          "durationTicks": 1,
          "midi": 69,
          "name": "A4",
          "ticks": 70672,
          "time": 99.4818825,
          "velocity": 0.4094488188976378
        },
        {
          "duration": 0.0014076562500093814,
          "durationTicks": 1,
          "midi": 35,
          "name": "B1",
          "ticks": 70672,
          "time": 99.4818825,
          "velocity": 0.889763779527559
        },
        {
          "duration": 0.0014076562500093814,
          "durationTicks": 1,
          "midi": 45,
          "name": "A2",
          "ticks": 70672,
          "time": 99.4818825,
          "velocity": 0.47244094488188976
        },
        {
          "duration": 0.0014076562499951706,
          "durationTicks": 1,
          "midi": 42,
          "name": "F#2",
          "ticks": 70802,
          "time": 99.66487781250001,
          "velocity": 0.4881889763779528
        },
        {
          "duration": 0.0014076562499951706,
          "durationTicks": 1,
          "midi": 70,
          "name": "A#4",
          "ticks": 70802,
          "time": 99.66487781250001,
          "velocity": 0.7874015748031497
        },
        {
          "duration": 0.025337812499998336,
          "durationTicks": 18,
          "midi": 35,
          "name": "B1",
          "ticks": 70920,
          "time": 99.83098125000001,
          "velocity": 0.7637795275590551
        },
        {
          "duration": 0.025337812499998336,
          "durationTicks": 18,
          "midi": 69,
          "name": "A4",
          "ticks": 70920,
          "time": 99.83098125000001,
          "velocity": 0.4094488188976378
        },
        {
          "duration": 0.0014076562499951706,
          "durationTicks": 1,
          "midi": 48,
          "name": "C3",
          "ticks": 71064,
          "time": 100.03368375000001,
          "velocity": 0.9448818897637795
        },
        {
          "duration": 0.0014076562499951706,
          "durationTicks": 1,
          "midi": 70,
          "name": "A#4",
          "ticks": 71064,
          "time": 100.03368375000001,
          "velocity": 0.8188976377952756
        },
        {
          "duration": 0.0014076562499951706,
          "durationTicks": 1,
          "midi": 42,
          "name": "F#2",
          "ticks": 71064,
          "time": 100.03368375000001,
          "velocity": 0.4881889763779528
        },
        {
          "duration": 0.0168918750000131,
          "durationTicks": 12,
          "midi": 69,
          "name": "A4",
          "ticks": 71180,
          "time": 100.196971875,
          "velocity": 0.4094488188976378
        },
        {
          "duration": 0.022522499999993784,
          "durationTicks": 16,
          "midi": 45,
          "name": "A2",
          "ticks": 71304,
          "time": 100.37152125,
          "velocity": 0.5039370078740157
        },
        {
          "duration": 0.022522499999993784,
          "durationTicks": 16,
          "midi": 70,
          "name": "A#4",
          "ticks": 71304,
          "time": 100.37152125,
          "velocity": 0.8503937007874016
        },
        {
          "duration": 0.022522499999993784,
          "durationTicks": 16,
          "midi": 42,
          "name": "F#2",
          "ticks": 71304,
          "time": 100.37152125,
          "velocity": 0.4881889763779528
        },
        {
          "duration": 0.011261250000003997,
          "durationTicks": 8,
          "midi": 69,
          "name": "A4",
          "ticks": 71440,
          "time": 100.5629625,
          "velocity": 0.4094488188976378
        },
        {
          "duration": 0.011261250000003997,
          "durationTicks": 8,
          "midi": 35,
          "name": "B1",
          "ticks": 71440,
          "time": 100.5629625,
          "velocity": 0.889763779527559
        },
        {
          "duration": 0.011261250000003997,
          "durationTicks": 8,
          "midi": 45,
          "name": "A2",
          "ticks": 71440,
          "time": 100.5629625,
          "velocity": 0.47244094488188976
        },
        {
          "duration": 0.0014076562499951706,
          "durationTicks": 1,
          "midi": 42,
          "name": "F#2",
          "ticks": 71574,
          "time": 100.7515884375,
          "velocity": 0.4881889763779528
        },
        {
          "duration": 0.0014076562499951706,
          "durationTicks": 1,
          "midi": 70,
          "name": "A#4",
          "ticks": 71574,
          "time": 100.7515884375,
          "velocity": 0.7874015748031497
        },
        {
          "duration": 0.019707187500003442,
          "durationTicks": 14,
          "midi": 69,
          "name": "A4",
          "ticks": 71692,
          "time": 100.917691875,
          "velocity": 0.4094488188976378
        },
        {
          "duration": 0.019707187500003442,
          "durationTicks": 14,
          "midi": 35,
          "name": "B1",
          "ticks": 71692,
          "time": 100.917691875,
          "velocity": 0.8267716535433071
        },
        {
          "duration": 0.022522500000007994,
          "durationTicks": 16,
          "midi": 42,
          "name": "F#2",
          "ticks": 71818,
          "time": 101.0950565625,
          "velocity": 0.4881889763779528
        },
        {
          "duration": 0.022522500000007994,
          "durationTicks": 16,
          "midi": 70,
          "name": "A#4",
          "ticks": 71818,
          "time": 101.0950565625,
          "velocity": 0.8188976377952756
        },
        {
          "duration": 0.022522500000007994,
          "durationTicks": 16,
          "midi": 41,
          "name": "F2",
          "ticks": 71818,
          "time": 101.0950565625,
          "velocity": 0.5354330708661418
        },
        {
          "duration": 0.022522500000007994,
          "durationTicks": 16,
          "midi": 48,
          "name": "C3",
          "ticks": 71818,
          "time": 101.0950565625,
          "velocity": 0.8818897637795275
        },
        {
          "duration": 0.022522500000022205,
          "durationTicks": 16,
          "midi": 69,
          "name": "A4",
          "ticks": 71944,
          "time": 101.27242125,
          "velocity": 0.4094488188976378
        },
        {
          "duration": 0.025337812499998336,
          "durationTicks": 18,
          "midi": 42,
          "name": "F#2",
          "ticks": 72074,
          "time": 101.4554165625,
          "velocity": 0.4881889763779528
        },
        {
          "duration": 0.025337812499998336,
          "durationTicks": 18,
          "midi": 70,
          "name": "A#4",
          "ticks": 72074,
          "time": 101.4554165625,
          "velocity": 0.8503937007874016
        },
        {
          "duration": 0.025337812499998336,
          "durationTicks": 18,
          "midi": 0,
          "name": "C-1",
          "ticks": 72074,
          "time": 101.4554165625,
          "velocity": 0.6929133858267716
        },
        {
          "duration": 0.025337812499998336,
          "durationTicks": 18,
          "midi": 45,
          "name": "A2",
          "ticks": 72074,
          "time": 101.4554165625,
          "velocity": 0.5039370078740157
        },
        {
          "duration": 0.0014076562500093814,
          "durationTicks": 1,
          "midi": 69,
          "name": "A4",
          "ticks": 72214,
          "time": 101.6524884375,
          "velocity": 0.4094488188976378
        },
        {
          "duration": 0.0014076562500093814,
          "durationTicks": 1,
          "midi": 35,
          "name": "B1",
          "ticks": 72214,
          "time": 101.6524884375,
          "velocity": 0.889763779527559
        },
        {
          "duration": 0.0014076562500093814,
          "durationTicks": 1,
          "midi": 45,
          "name": "A2",
          "ticks": 72214,
          "time": 101.6524884375,
          "velocity": 0.47244094488188976
        },
        {
          "duration": 0.028153125000002888,
          "durationTicks": 20,
          "midi": 42,
          "name": "F#2",
          "ticks": 72328,
          "time": 101.81296125,
          "velocity": 0.4881889763779528
        },
        {
          "duration": 0.028153125000002888,
          "durationTicks": 20,
          "midi": 70,
          "name": "A#4",
          "ticks": 72328,
          "time": 101.81296125,
          "velocity": 0.7874015748031497
        },
        {
          "duration": 0.01689187499999889,
          "durationTicks": 12,
          "midi": 69,
          "name": "A4",
          "ticks": 72462,
          "time": 102.00158718750001,
          "velocity": 0.4094488188976378
        },
        {
          "duration": 0.01689187499999889,
          "durationTicks": 12,
          "midi": 35,
          "name": "B1",
          "ticks": 72462,
          "time": 102.00158718750001,
          "velocity": 0.7637795275590551
        },
        {
          "duration": 0.019707187500003442,
          "durationTicks": 14,
          "midi": 42,
          "name": "F#2",
          "ticks": 72586,
          "time": 102.1761365625,
          "velocity": 0.4881889763779528
        },
        {
          "duration": 0.019707187500003442,
          "durationTicks": 14,
          "midi": 70,
          "name": "A#4",
          "ticks": 72586,
          "time": 102.1761365625,
          "velocity": 0.8188976377952756
        },
        {
          "duration": 0.019707187500003442,
          "durationTicks": 14,
          "midi": 48,
          "name": "C3",
          "ticks": 72586,
          "time": 102.1761365625,
          "velocity": 0.9448818897637795
        },
        {
          "duration": 0.022522499999993784,
          "durationTicks": 16,
          "midi": 69,
          "name": "A4",
          "ticks": 72714,
          "time": 102.3563165625,
          "velocity": 0.4094488188976378
        },
        {
          "duration": 0.01689187499999889,
          "durationTicks": 12,
          "midi": 42,
          "name": "F#2",
          "ticks": 72846,
          "time": 102.5421271875,
          "velocity": 0.4881889763779528
        },
        {
          "duration": 0.01689187499999889,
          "durationTicks": 12,
          "midi": 70,
          "name": "A#4",
          "ticks": 72846,
          "time": 102.5421271875,
          "velocity": 0.8503937007874016
        },
        {
          "duration": 0.01689187499999889,
          "durationTicks": 12,
          "midi": 45,
          "name": "A2",
          "ticks": 72846,
          "time": 102.5421271875,
          "velocity": 0.5039370078740157
        },
        {
          "duration": 0.005630624999994893,
          "durationTicks": 4,
          "midi": 69,
          "name": "A4",
          "ticks": 72978,
          "time": 102.7279378125,
          "velocity": 0.4094488188976378
        },
        {
          "duration": 0.005630624999994893,
          "durationTicks": 4,
          "midi": 35,
          "name": "B1",
          "ticks": 72978,
          "time": 102.7279378125,
          "velocity": 0.889763779527559
        },
        {
          "duration": 0.005630624999994893,
          "durationTicks": 4,
          "midi": 45,
          "name": "A2",
          "ticks": 72978,
          "time": 102.7279378125,
          "velocity": 0.47244094488188976
        },
        {
          "duration": 0.025337812499998336,
          "durationTicks": 18,
          "midi": 42,
          "name": "F#2",
          "ticks": 73096,
          "time": 102.89404125,
          "velocity": 0.4881889763779528
        },
        {
          "duration": 0.025337812499998336,
          "durationTicks": 18,
          "midi": 70,
          "name": "A#4",
          "ticks": 73096,
          "time": 102.89404125,
          "velocity": 0.7874015748031497
        },
        {
          "duration": 0.022522499999993784,
          "durationTicks": 16,
          "midi": 35,
          "name": "B1",
          "ticks": 73224,
          "time": 103.07422125000001,
          "velocity": 0.8267716535433071
        },
        {
          "duration": 0.022522499999993784,
          "durationTicks": 16,
          "midi": 69,
          "name": "A4",
          "ticks": 73224,
          "time": 103.07422125000001,
          "velocity": 0.4094488188976378
        },
        {
          "duration": 0.01689187499999889,
          "durationTicks": 12,
          "midi": 42,
          "name": "F#2",
          "ticks": 73354,
          "time": 103.2572165625,
          "velocity": 0.4881889763779528
        },
        {
          "duration": 0.01689187499999889,
          "durationTicks": 12,
          "midi": 70,
          "name": "A#4",
          "ticks": 73354,
          "time": 103.2572165625,
          "velocity": 0.8188976377952756
        },
        {
          "duration": 0.01689187499999889,
          "durationTicks": 12,
          "midi": 48,
          "name": "C3",
          "ticks": 73354,
          "time": 103.2572165625,
          "velocity": 0.8818897637795275
        },
        {
          "duration": 0.01407656250002276,
          "durationTicks": 10,
          "midi": 69,
          "name": "A4",
          "ticks": 73486,
          "time": 103.4430271875,
          "velocity": 0.4094488188976378
        },
        {
          "duration": 0.014076562499994338,
          "durationTicks": 10,
          "midi": 45,
          "name": "A2",
          "ticks": 73616,
          "time": 103.6260225,
          "velocity": 0.5039370078740157
        },
        {
          "duration": 0.014076562499994338,
          "durationTicks": 10,
          "midi": 70,
          "name": "A#4",
          "ticks": 73616,
          "time": 103.6260225,
          "velocity": 0.8503937007874016
        },
        {
          "duration": 0.014076562499994338,
          "durationTicks": 10,
          "midi": 42,
          "name": "F#2",
          "ticks": 73616,
          "time": 103.6260225,
          "velocity": 0.4881889763779528
        },
        {
          "duration": 0.01970718749998923,
          "durationTicks": 14,
          "midi": 69,
          "name": "A4",
          "ticks": 73742,
          "time": 103.80338718750001,
          "velocity": 0.4094488188976378
        },
        {
          "duration": 0.01970718749998923,
          "durationTicks": 14,
          "midi": 35,
          "name": "B1",
          "ticks": 73742,
          "time": 103.80338718750001,
          "velocity": 0.889763779527559
        },
        {
          "duration": 0.01970718749998923,
          "durationTicks": 14,
          "midi": 45,
          "name": "A2",
          "ticks": 73742,
          "time": 103.80338718750001,
          "velocity": 0.47244094488188976
        },
        {
          "duration": 0.025337812499998336,
          "durationTicks": 18,
          "midi": 42,
          "name": "F#2",
          "ticks": 73864,
          "time": 103.97512125,
          "velocity": 0.4881889763779528
        },
        {
          "duration": 0.025337812499998336,
          "durationTicks": 18,
          "midi": 70,
          "name": "A#4",
          "ticks": 73864,
          "time": 103.97512125,
          "velocity": 0.7874015748031497
        },
        {
          "duration": 0.019707187500003442,
          "durationTicks": 14,
          "midi": 69,
          "name": "A4",
          "ticks": 73996,
          "time": 104.160931875,
          "velocity": 0.4094488188976378
        },
        {
          "duration": 0.019707187500003442,
          "durationTicks": 14,
          "midi": 35,
          "name": "B1",
          "ticks": 73996,
          "time": 104.160931875,
          "velocity": 0.7637795275590551
        },
        {
          "duration": 0.022522500000007994,
          "durationTicks": 16,
          "midi": 42,
          "name": "F#2",
          "ticks": 74122,
          "time": 104.3382965625,
          "velocity": 0.4881889763779528
        },
        {
          "duration": 0.022522500000007994,
          "durationTicks": 16,
          "midi": 70,
          "name": "A#4",
          "ticks": 74122,
          "time": 104.3382965625,
          "velocity": 0.8188976377952756
        },
        {
          "duration": 0.022522500000007994,
          "durationTicks": 16,
          "midi": 48,
          "name": "C3",
          "ticks": 74122,
          "time": 104.3382965625,
          "velocity": 0.9448818897637795
        },
        {
          "duration": 0.0168918750000131,
          "durationTicks": 12,
          "midi": 69,
          "name": "A4",
          "ticks": 74252,
          "time": 104.521291875,
          "velocity": 0.4094488188976378
        },
        {
          "duration": 0.01689187499999889,
          "durationTicks": 12,
          "midi": 42,
          "name": "F#2",
          "ticks": 74382,
          "time": 104.7042871875,
          "velocity": 0.4881889763779528
        },
        {
          "duration": 0.01689187499999889,
          "durationTicks": 12,
          "midi": 70,
          "name": "A#4",
          "ticks": 74382,
          "time": 104.7042871875,
          "velocity": 0.8503937007874016
        },
        {
          "duration": 0.01689187499999889,
          "durationTicks": 12,
          "midi": 45,
          "name": "A2",
          "ticks": 74382,
          "time": 104.7042871875,
          "velocity": 0.5039370078740157
        },
        {
          "duration": 0.01689187499999889,
          "durationTicks": 12,
          "midi": 69,
          "name": "A4",
          "ticks": 74510,
          "time": 104.88446718750001,
          "velocity": 0.4094488188976378
        },
        {
          "duration": 0.01689187499999889,
          "durationTicks": 12,
          "midi": 35,
          "name": "B1",
          "ticks": 74510,
          "time": 104.88446718750001,
          "velocity": 0.889763779527559
        },
        {
          "duration": 0.01689187499999889,
          "durationTicks": 12,
          "midi": 45,
          "name": "A2",
          "ticks": 74510,
          "time": 104.88446718750001,
          "velocity": 0.47244094488188976
        },
        {
          "duration": 0.025337812499998336,
          "durationTicks": 18,
          "midi": 42,
          "name": "F#2",
          "ticks": 74634,
          "time": 105.0590165625,
          "velocity": 0.4881889763779528
        },
        {
          "duration": 0.025337812499998336,
          "durationTicks": 18,
          "midi": 70,
          "name": "A#4",
          "ticks": 74634,
          "time": 105.0590165625,
          "velocity": 0.7874015748031497
        },
        {
          "duration": 0.01689187499999889,
          "durationTicks": 12,
          "midi": 69,
          "name": "A4",
          "ticks": 74764,
          "time": 105.242011875,
          "velocity": 0.4094488188976378
        },
        {
          "duration": 0.01689187499999889,
          "durationTicks": 12,
          "midi": 35,
          "name": "B1",
          "ticks": 74764,
          "time": 105.242011875,
          "velocity": 0.8267716535433071
        },
        {
          "duration": 0.0014076562500093814,
          "durationTicks": 1,
          "midi": 42,
          "name": "F#2",
          "ticks": 74902,
          "time": 105.4362684375,
          "velocity": 0.4881889763779528
        },
        {
          "duration": 0.0014076562500093814,
          "durationTicks": 1,
          "midi": 70,
          "name": "A#4",
          "ticks": 74902,
          "time": 105.4362684375,
          "velocity": 0.8188976377952756
        },
        {
          "duration": 0.0014076562500093814,
          "durationTicks": 1,
          "midi": 0,
          "name": "C-1",
          "ticks": 74902,
          "time": 105.4362684375,
          "velocity": 0.5354330708661418
        },
        {
          "duration": 0.0014076562500093814,
          "durationTicks": 1,
          "midi": 48,
          "name": "C3",
          "ticks": 74902,
          "time": 105.4362684375,
          "velocity": 0.8818897637795275
        },
        {
          "duration": 0.025337812499998336,
          "durationTicks": 18,
          "midi": 69,
          "name": "A4",
          "ticks": 75016,
          "time": 105.59674125,
          "velocity": 0.4094488188976378
        },
        {
          "duration": 0.0014076562499951706,
          "durationTicks": 1,
          "midi": 42,
          "name": "F#2",
          "ticks": 75156,
          "time": 105.793813125,
          "velocity": 0.4881889763779528
        },
        {
          "duration": 0.0014076562499951706,
          "durationTicks": 1,
          "midi": 70,
          "name": "A#4",
          "ticks": 75156,
          "time": 105.793813125,
          "velocity": 0.8503937007874016
        },
        {
          "duration": 0.0014076562499951706,
          "durationTicks": 1,
          "midi": 41,
          "name": "F2",
          "ticks": 75156,
          "time": 105.793813125,
          "velocity": 0.5669291338582677
        },
        {
          "duration": 0.0014076562499951706,
          "durationTicks": 1,
          "midi": 45,
          "name": "A2",
          "ticks": 75156,
          "time": 105.793813125,
          "velocity": 0.5039370078740157
        },
        {
          "duration": 0.022522500000007994,
          "durationTicks": 16,
          "midi": 69,
          "name": "A4",
          "ticks": 75274,
          "time": 105.9599165625,
          "velocity": 0.4094488188976378
        },
        {
          "duration": 0.022522500000007994,
          "durationTicks": 16,
          "midi": 35,
          "name": "B1",
          "ticks": 75274,
          "time": 105.9599165625,
          "velocity": 0.889763779527559
        },
        {
          "duration": 0.022522500000007994,
          "durationTicks": 16,
          "midi": 45,
          "name": "A2",
          "ticks": 75274,
          "time": 105.9599165625,
          "velocity": 0.47244094488188976
        },
        {
          "duration": 0.01407656250000855,
          "durationTicks": 10,
          "midi": 42,
          "name": "F#2",
          "ticks": 75406,
          "time": 106.1457271875,
          "velocity": 0.4881889763779528
        },
        {
          "duration": 0.01407656250000855,
          "durationTicks": 10,
          "midi": 70,
          "name": "A#4",
          "ticks": 75406,
          "time": 106.1457271875,
          "velocity": 0.7874015748031497
        },
        {
          "duration": 0.014076562499994338,
          "durationTicks": 10,
          "midi": 69,
          "name": "A4",
          "ticks": 75534,
          "time": 106.32590718750001,
          "velocity": 0.4094488188976378
        },
        {
          "duration": 0.014076562499994338,
          "durationTicks": 10,
          "midi": 35,
          "name": "B1",
          "ticks": 75534,
          "time": 106.32590718750001,
          "velocity": 0.7637795275590551
        },
        {
          "duration": 0.01407656250000855,
          "durationTicks": 10,
          "midi": 42,
          "name": "F#2",
          "ticks": 75664,
          "time": 106.5089025,
          "velocity": 0.4881889763779528
        },
        {
          "duration": 0.01407656250000855,
          "durationTicks": 10,
          "midi": 70,
          "name": "A#4",
          "ticks": 75664,
          "time": 106.5089025,
          "velocity": 0.8188976377952756
        },
        {
          "duration": 0.01407656250000855,
          "durationTicks": 10,
          "midi": 48,
          "name": "C3",
          "ticks": 75664,
          "time": 106.5089025,
          "velocity": 0.9448818897637795
        },
        {
          "duration": 0.022522500000022205,
          "durationTicks": 16,
          "midi": 69,
          "name": "A4",
          "ticks": 75784,
          "time": 106.67782125,
          "velocity": 0.4094488188976378
        },
        {
          "duration": 0.014076562499994338,
          "durationTicks": 10,
          "midi": 45,
          "name": "A2",
          "ticks": 75920,
          "time": 106.8692625,
          "velocity": 0.5039370078740157
        },
        {
          "duration": 0.014076562499994338,
          "durationTicks": 10,
          "midi": 70,
          "name": "A#4",
          "ticks": 75920,
          "time": 106.8692625,
          "velocity": 0.8503937007874016
        },
        {
          "duration": 0.014076562499994338,
          "durationTicks": 10,
          "midi": 42,
          "name": "F#2",
          "ticks": 75920,
          "time": 106.8692625,
          "velocity": 0.4881889763779528
        },
        {
          "duration": 0.01689187499999889,
          "durationTicks": 12,
          "midi": 69,
          "name": "A4",
          "ticks": 76048,
          "time": 107.0494425,
          "velocity": 0.4094488188976378
        },
        {
          "duration": 0.01689187499999889,
          "durationTicks": 12,
          "midi": 35,
          "name": "B1",
          "ticks": 76048,
          "time": 107.0494425,
          "velocity": 0.889763779527559
        },
        {
          "duration": 0.01689187499999889,
          "durationTicks": 12,
          "midi": 45,
          "name": "A2",
          "ticks": 76048,
          "time": 107.0494425,
          "velocity": 0.47244094488188976
        },
        {
          "duration": 0.01689187499999889,
          "durationTicks": 12,
          "midi": 42,
          "name": "F#2",
          "ticks": 76174,
          "time": 107.2268071875,
          "velocity": 0.4881889763779528
        },
        {
          "duration": 0.01689187499999889,
          "durationTicks": 12,
          "midi": 70,
          "name": "A#4",
          "ticks": 76174,
          "time": 107.2268071875,
          "velocity": 0.7874015748031497
        },
        {
          "duration": 0.022522499999993784,
          "durationTicks": 16,
          "midi": 35,
          "name": "B1",
          "ticks": 76296,
          "time": 107.39854125000001,
          "velocity": 0.8267716535433071
        },
        {
          "duration": 0.022522499999993784,
          "durationTicks": 16,
          "midi": 69,
          "name": "A4",
          "ticks": 76296,
          "time": 107.39854125000001,
          "velocity": 0.4094488188976378
        },
        {
          "duration": 0.022522499999993784,
          "durationTicks": 16,
          "midi": 42,
          "name": "F#2",
          "ticks": 76424,
          "time": 107.57872125000002,
          "velocity": 0.4881889763779528
        },
        {
          "duration": 0.022522499999993784,
          "durationTicks": 16,
          "midi": 70,
          "name": "A#4",
          "ticks": 76424,
          "time": 107.57872125000002,
          "velocity": 0.8188976377952756
        },
        {
          "duration": 0.022522499999993784,
          "durationTicks": 16,
          "midi": 48,
          "name": "C3",
          "ticks": 76424,
          "time": 107.57872125000002,
          "velocity": 0.8818897637795275
        },
        {
          "duration": 0.022522500000022205,
          "durationTicks": 16,
          "midi": 69,
          "name": "A4",
          "ticks": 76552,
          "time": 107.75890125,
          "velocity": 0.4094488188976378
        },
        {
          "duration": 0.022522499999993784,
          "durationTicks": 16,
          "midi": 45,
          "name": "A2",
          "ticks": 76680,
          "time": 107.93908125,
          "velocity": 0.5039370078740157
        },
        {
          "duration": 0.022522499999993784,
          "durationTicks": 16,
          "midi": 70,
          "name": "A#4",
          "ticks": 76680,
          "time": 107.93908125,
          "velocity": 0.8503937007874016
        },
        {
          "duration": 0.022522499999993784,
          "durationTicks": 16,
          "midi": 42,
          "name": "F#2",
          "ticks": 76680,
          "time": 107.93908125,
          "velocity": 0.4881889763779528
        },
        {
          "duration": 0.0014076562499951706,
          "durationTicks": 1,
          "midi": 69,
          "name": "A4",
          "ticks": 76818,
          "time": 108.1333378125,
          "velocity": 0.4094488188976378
        },
        {
          "duration": 0.0014076562499951706,
          "durationTicks": 1,
          "midi": 35,
          "name": "B1",
          "ticks": 76818,
          "time": 108.1333378125,
          "velocity": 0.889763779527559
        },
        {
          "duration": 0.0014076562499951706,
          "durationTicks": 1,
          "midi": 45,
          "name": "A2",
          "ticks": 76818,
          "time": 108.1333378125,
          "velocity": 0.47244094488188976
        },
        {
          "duration": 0.022522500000007994,
          "durationTicks": 16,
          "midi": 42,
          "name": "F#2",
          "ticks": 76936,
          "time": 108.29944125,
          "velocity": 0.4881889763779528
        },
        {
          "duration": 0.022522500000007994,
          "durationTicks": 16,
          "midi": 70,
          "name": "A#4",
          "ticks": 76936,
          "time": 108.29944125,
          "velocity": 0.7874015748031497
        },
        {
          "duration": 0.022522499999993784,
          "durationTicks": 16,
          "midi": 35,
          "name": "B1",
          "ticks": 77064,
          "time": 108.47962125000001,
          "velocity": 0.7637795275590551
        },
        {
          "duration": 0.022522499999993784,
          "durationTicks": 16,
          "midi": 69,
          "name": "A4",
          "ticks": 77064,
          "time": 108.47962125000001,
          "velocity": 0.4094488188976378
        },
        {
          "duration": 0.0014076562500093814,
          "durationTicks": 1,
          "midi": 42,
          "name": "F#2",
          "ticks": 77206,
          "time": 108.6795084375,
          "velocity": 0.4881889763779528
        },
        {
          "duration": 0.0014076562500093814,
          "durationTicks": 1,
          "midi": 70,
          "name": "A#4",
          "ticks": 77206,
          "time": 108.6795084375,
          "velocity": 0.8188976377952756
        },
        {
          "duration": 0.0014076562500093814,
          "durationTicks": 1,
          "midi": 48,
          "name": "C3",
          "ticks": 77206,
          "time": 108.6795084375,
          "velocity": 0.9448818897637795
        },
        {
          "duration": 0.0168918750000131,
          "durationTicks": 12,
          "midi": 69,
          "name": "A4",
          "ticks": 77324,
          "time": 108.845611875,
          "velocity": 0.4094488188976378
        },
        {
          "duration": 0.01689187499999889,
          "durationTicks": 12,
          "midi": 42,
          "name": "F#2",
          "ticks": 77454,
          "time": 109.0286071875,
          "velocity": 0.4881889763779528
        },
        {
          "duration": 0.01689187499999889,
          "durationTicks": 12,
          "midi": 70,
          "name": "A#4",
          "ticks": 77454,
          "time": 109.0286071875,
          "velocity": 0.8503937007874016
        },
        {
          "duration": 0.01689187499999889,
          "durationTicks": 12,
          "midi": 45,
          "name": "A2",
          "ticks": 77454,
          "time": 109.0286071875,
          "velocity": 0.5039370078740157
        },
        {
          "duration": 0.022522499999993784,
          "durationTicks": 16,
          "midi": 69,
          "name": "A4",
          "ticks": 77576,
          "time": 109.20034125000001,
          "velocity": 0.4094488188976378
        },
        {
          "duration": 0.022522499999993784,
          "durationTicks": 16,
          "midi": 35,
          "name": "B1",
          "ticks": 77576,
          "time": 109.20034125000001,
          "velocity": 0.889763779527559
        },
        {
          "duration": 0.022522499999993784,
          "durationTicks": 16,
          "midi": 45,
          "name": "A2",
          "ticks": 77576,
          "time": 109.20034125000001,
          "velocity": 0.47244094488188976
        },
        {
          "duration": 0.01689187499999889,
          "durationTicks": 12,
          "midi": 42,
          "name": "F#2",
          "ticks": 77712,
          "time": 109.3917825,
          "velocity": 0.4881889763779528
        },
        {
          "duration": 0.01689187499999889,
          "durationTicks": 12,
          "midi": 70,
          "name": "A#4",
          "ticks": 77712,
          "time": 109.3917825,
          "velocity": 0.7874015748031497
        },
        {
          "duration": 0.025337812499998336,
          "durationTicks": 18,
          "midi": 35,
          "name": "B1",
          "ticks": 77832,
          "time": 109.56070125000001,
          "velocity": 0.8267716535433071
        },
        {
          "duration": 0.025337812499998336,
          "durationTicks": 18,
          "midi": 69,
          "name": "A4",
          "ticks": 77832,
          "time": 109.56070125000001,
          "velocity": 0.4094488188976378
        },
        {
          "duration": 0.0014076562499951706,
          "durationTicks": 1,
          "midi": 42,
          "name": "F#2",
          "ticks": 77972,
          "time": 109.75777312500001,
          "velocity": 0.4881889763779528
        },
        {
          "duration": 0.0014076562499951706,
          "durationTicks": 1,
          "midi": 70,
          "name": "A#4",
          "ticks": 77972,
          "time": 109.75777312500001,
          "velocity": 0.8188976377952756
        },
        {
          "duration": 0.0014076562499951706,
          "durationTicks": 1,
          "midi": 41,
          "name": "F2",
          "ticks": 77972,
          "time": 109.75777312500001,
          "velocity": 0.5669291338582677
        },
        {
          "duration": 0.0014076562499951706,
          "durationTicks": 1,
          "midi": 48,
          "name": "C3",
          "ticks": 77972,
          "time": 109.75777312500001,
          "velocity": 0.8818897637795275
        },
        {
          "duration": 0.01970718749998923,
          "durationTicks": 14,
          "midi": 69,
          "name": "A4",
          "ticks": 78092,
          "time": 109.926691875,
          "velocity": 0.4094488188976378
        },
        {
          "duration": 0.01689187499999889,
          "durationTicks": 12,
          "midi": 42,
          "name": "F#2",
          "ticks": 78222,
          "time": 110.1096871875,
          "velocity": 0.4881889763779528
        },
        {
          "duration": 0.01689187499999889,
          "durationTicks": 12,
          "midi": 70,
          "name": "A#4",
          "ticks": 78222,
          "time": 110.1096871875,
          "velocity": 0.8503937007874016
        },
        {
          "duration": 0.01689187499999889,
          "durationTicks": 12,
          "midi": 45,
          "name": "A2",
          "ticks": 78222,
          "time": 110.1096871875,
          "velocity": 0.5039370078740157
        },
        {
          "duration": 0.0014076562500093814,
          "durationTicks": 1,
          "midi": 69,
          "name": "A4",
          "ticks": 78358,
          "time": 110.3011284375,
          "velocity": 0.4094488188976378
        },
        {
          "duration": 0.0014076562500093814,
          "durationTicks": 1,
          "midi": 0,
          "name": "C-1",
          "ticks": 78358,
          "time": 110.3011284375,
          "velocity": 0.6299212598425197
        },
        {
          "duration": 0.0014076562500093814,
          "durationTicks": 1,
          "midi": 35,
          "name": "B1",
          "ticks": 78358,
          "time": 110.3011284375,
          "velocity": 1
        },
        {
          "duration": 0.022522500000007994,
          "durationTicks": 16,
          "midi": 42,
          "name": "F#2",
          "ticks": 78472,
          "time": 110.46160125,
          "velocity": 0.4881889763779528
        },
        {
          "duration": 0.022522500000007994,
          "durationTicks": 16,
          "midi": 70,
          "name": "A#4",
          "ticks": 78472,
          "time": 110.46160125,
          "velocity": 0.7874015748031497
        },
        {
          "duration": 0.01689187499999889,
          "durationTicks": 12,
          "midi": 69,
          "name": "A4",
          "ticks": 78604,
          "time": 110.647411875,
          "velocity": 0.4094488188976378
        },
        {
          "duration": 0.01689187499999889,
          "durationTicks": 12,
          "midi": 35,
          "name": "B1",
          "ticks": 78604,
          "time": 110.647411875,
          "velocity": 0.889763779527559
        },
        {
          "duration": 0.014076562499994338,
          "durationTicks": 10,
          "midi": 42,
          "name": "F#2",
          "ticks": 78734,
          "time": 110.83040718750001,
          "velocity": 0.4881889763779528
        },
        {
          "duration": 0.014076562499994338,
          "durationTicks": 10,
          "midi": 70,
          "name": "A#4",
          "ticks": 78734,
          "time": 110.83040718750001,
          "velocity": 0.8188976377952756
        },
        {
          "duration": 0.014076562499994338,
          "durationTicks": 10,
          "midi": 48,
          "name": "C3",
          "ticks": 78734,
          "time": 110.83040718750001,
          "velocity": 0.9763779527559056
        },
        {
          "duration": 0.022522499999993784,
          "durationTicks": 16,
          "midi": 69,
          "name": "A4",
          "ticks": 78858,
          "time": 111.0049565625,
          "velocity": 0.4094488188976378
        },
        {
          "duration": 0.019707187500003442,
          "durationTicks": 14,
          "midi": 45,
          "name": "A2",
          "ticks": 78984,
          "time": 111.18232125,
          "velocity": 0.4094488188976378
        },
        {
          "duration": 0.019707187500003442,
          "durationTicks": 14,
          "midi": 70,
          "name": "A#4",
          "ticks": 78984,
          "time": 111.18232125,
          "velocity": 0.8503937007874016
        },
        {
          "duration": 0.019707187500003442,
          "durationTicks": 14,
          "midi": 42,
          "name": "F#2",
          "ticks": 78984,
          "time": 111.18232125,
          "velocity": 0.4881889763779528
        },
        {
          "duration": 0.01970718749998923,
          "durationTicks": 14,
          "midi": 69,
          "name": "A4",
          "ticks": 79118,
          "time": 111.37094718750001,
          "velocity": 0.4094488188976378
        },
        {
          "duration": 0.01970718749998923,
          "durationTicks": 14,
          "midi": 35,
          "name": "B1",
          "ticks": 79118,
          "time": 111.37094718750001,
          "velocity": 0.9212598425196851
        },
        {
          "duration": 0.01970718749998923,
          "durationTicks": 14,
          "midi": 45,
          "name": "A2",
          "ticks": 79118,
          "time": 111.37094718750001,
          "velocity": 0.3779527559055118
        },
        {
          "duration": 0.022522499999993784,
          "durationTicks": 16,
          "midi": 42,
          "name": "F#2",
          "ticks": 79242,
          "time": 111.5454965625,
          "velocity": 0.4881889763779528
        },
        {
          "duration": 0.022522499999993784,
          "durationTicks": 16,
          "midi": 70,
          "name": "A#4",
          "ticks": 79242,
          "time": 111.5454965625,
          "velocity": 0.7874015748031497
        },
        {
          "duration": 0.022522499999993784,
          "durationTicks": 16,
          "midi": 35,
          "name": "B1",
          "ticks": 79368,
          "time": 111.72286125000001,
          "velocity": 0.8582677165354331
        },
        {
          "duration": 0.022522499999993784,
          "durationTicks": 16,
          "midi": 69,
          "name": "A4",
          "ticks": 79368,
          "time": 111.72286125000001,
          "velocity": 0.4094488188976378
        },
        {
          "duration": 0.025337812499998336,
          "durationTicks": 18,
          "midi": 42,
          "name": "F#2",
          "ticks": 79496,
          "time": 111.90304125000002,
          "velocity": 0.4881889763779528
        },
        {
          "duration": 0.025337812499998336,
          "durationTicks": 18,
          "midi": 70,
          "name": "A#4",
          "ticks": 79496,
          "time": 111.90304125000002,
          "velocity": 0.8188976377952756
        },
        {
          "duration": 0.025337812499998336,
          "durationTicks": 18,
          "midi": 48,
          "name": "C3",
          "ticks": 79496,
          "time": 111.90304125000002,
          "velocity": 0.9448818897637795
        },
        {
          "duration": 0.0168918750000131,
          "durationTicks": 12,
          "midi": 69,
          "name": "A4",
          "ticks": 79628,
          "time": 112.088851875,
          "velocity": 0.4094488188976378
        },
        {
          "duration": 0.022522499999993784,
          "durationTicks": 16,
          "midi": 45,
          "name": "A2",
          "ticks": 79752,
          "time": 112.26340125,
          "velocity": 0.47244094488188976
        },
        {
          "duration": 0.022522499999993784,
          "durationTicks": 16,
          "midi": 70,
          "name": "A#4",
          "ticks": 79752,
          "time": 112.26340125,
          "velocity": 0.8503937007874016
        },
        {
          "duration": 0.022522499999993784,
          "durationTicks": 16,
          "midi": 42,
          "name": "F#2",
          "ticks": 79752,
          "time": 112.26340125,
          "velocity": 0.4881889763779528
        },
        {
          "duration": 0.0014076562500093814,
          "durationTicks": 1,
          "midi": 69,
          "name": "A4",
          "ticks": 79894,
          "time": 112.4632884375,
          "velocity": 0.4094488188976378
        },
        {
          "duration": 0.0014076562500093814,
          "durationTicks": 1,
          "midi": 35,
          "name": "B1",
          "ticks": 79894,
          "time": 112.4632884375,
          "velocity": 0.9212598425196851
        },
        {
          "duration": 0.0014076562500093814,
          "durationTicks": 1,
          "midi": 45,
          "name": "A2",
          "ticks": 79894,
          "time": 112.4632884375,
          "velocity": 0.4094488188976378
        },
        {
          "duration": 0.022522499999993784,
          "durationTicks": 16,
          "midi": 42,
          "name": "F#2",
          "ticks": 80010,
          "time": 112.6265765625,
          "velocity": 0.4881889763779528
        },
        {
          "duration": 0.022522499999993784,
          "durationTicks": 16,
          "midi": 70,
          "name": "A#4",
          "ticks": 80010,
          "time": 112.6265765625,
          "velocity": 0.7874015748031497
        },
        {
          "duration": 0.022522499999993784,
          "durationTicks": 16,
          "midi": 69,
          "name": "A4",
          "ticks": 80138,
          "time": 112.80675656250001,
          "velocity": 0.4094488188976378
        },
        {
          "duration": 0.022522499999993784,
          "durationTicks": 16,
          "midi": 35,
          "name": "B1",
          "ticks": 80138,
          "time": 112.80675656250001,
          "velocity": 0.8267716535433071
        },
        {
          "duration": 0.022522499999993784,
          "durationTicks": 16,
          "midi": 42,
          "name": "F#2",
          "ticks": 80264,
          "time": 112.98412125000002,
          "velocity": 0.4881889763779528
        },
        {
          "duration": 0.022522499999993784,
          "durationTicks": 16,
          "midi": 70,
          "name": "A#4",
          "ticks": 80264,
          "time": 112.98412125000002,
          "velocity": 0.8188976377952756
        },
        {
          "duration": 0.022522499999993784,
          "durationTicks": 16,
          "midi": 48,
          "name": "C3",
          "ticks": 80264,
          "time": 112.98412125000002,
          "velocity": 0.9763779527559056
        },
        {
          "duration": 0.022522499999993784,
          "durationTicks": 16,
          "midi": 69,
          "name": "A4",
          "ticks": 80394,
          "time": 113.1671165625,
          "velocity": 0.4094488188976378
        },
        {
          "duration": 0.022522499999993784,
          "durationTicks": 16,
          "midi": 45,
          "name": "A2",
          "ticks": 80520,
          "time": 113.34448125,
          "velocity": 0.47244094488188976
        },
        {
          "duration": 0.022522499999993784,
          "durationTicks": 16,
          "midi": 70,
          "name": "A#4",
          "ticks": 80520,
          "time": 113.34448125,
          "velocity": 0.8503937007874016
        },
        {
          "duration": 0.022522499999993784,
          "durationTicks": 16,
          "midi": 42,
          "name": "F#2",
          "ticks": 80520,
          "time": 113.34448125,
          "velocity": 0.4881889763779528
        },
        {
          "duration": 0.019707187500003442,
          "durationTicks": 14,
          "midi": 69,
          "name": "A4",
          "ticks": 80652,
          "time": 113.530291875,
          "velocity": 0.4094488188976378
        },
        {
          "duration": 0.019707187500003442,
          "durationTicks": 14,
          "midi": 35,
          "name": "B1",
          "ticks": 80652,
          "time": 113.530291875,
          "velocity": 0.9212598425196851
        },
        {
          "duration": 0.019707187500003442,
          "durationTicks": 14,
          "midi": 45,
          "name": "A2",
          "ticks": 80652,
          "time": 113.530291875,
          "velocity": 0.4094488188976378
        },
        {
          "duration": 0.014076562499994338,
          "durationTicks": 10,
          "midi": 42,
          "name": "F#2",
          "ticks": 80780,
          "time": 113.71047187500001,
          "velocity": 0.4881889763779528
        },
        {
          "duration": 0.014076562499994338,
          "durationTicks": 10,
          "midi": 70,
          "name": "A#4",
          "ticks": 80780,
          "time": 113.71047187500001,
          "velocity": 0.7874015748031497
        },
        {
          "duration": 0.019707187500003442,
          "durationTicks": 14,
          "midi": 69,
          "name": "A4",
          "ticks": 80908,
          "time": 113.890651875,
          "velocity": 0.4094488188976378
        },
        {
          "duration": 0.019707187500003442,
          "durationTicks": 14,
          "midi": 35,
          "name": "B1",
          "ticks": 80908,
          "time": 113.890651875,
          "velocity": 0.8582677165354331
        },
        {
          "duration": 0.014076562499994338,
          "durationTicks": 10,
          "midi": 42,
          "name": "F#2",
          "ticks": 81038,
          "time": 114.07364718750001,
          "velocity": 0.4881889763779528
        },
        {
          "duration": 0.014076562499994338,
          "durationTicks": 10,
          "midi": 70,
          "name": "A#4",
          "ticks": 81038,
          "time": 114.07364718750001,
          "velocity": 0.8188976377952756
        },
        {
          "duration": 0.014076562499994338,
          "durationTicks": 10,
          "midi": 48,
          "name": "C3",
          "ticks": 81038,
          "time": 114.07364718750001,
          "velocity": 0.9448818897637795
        },
        {
          "duration": 0.022522500000022205,
          "durationTicks": 16,
          "midi": 69,
          "name": "A4",
          "ticks": 81160,
          "time": 114.24538125,
          "velocity": 0.4094488188976378
        },
        {
          "duration": 0.01689187499999889,
          "durationTicks": 12,
          "midi": 42,
          "name": "F#2",
          "ticks": 81294,
          "time": 114.4340071875,
          "velocity": 0.4881889763779528
        },
        {
          "duration": 0.01689187499999889,
          "durationTicks": 12,
          "midi": 70,
          "name": "A#4",
          "ticks": 81294,
          "time": 114.4340071875,
          "velocity": 0.8503937007874016
        },
        {
          "duration": 0.01689187499999889,
          "durationTicks": 12,
          "midi": 45,
          "name": "A2",
          "ticks": 81294,
          "time": 114.4340071875,
          "velocity": 0.47244094488188976
        },
        {
          "duration": 0.0014076562500093814,
          "durationTicks": 1,
          "midi": 69,
          "name": "A4",
          "ticks": 81430,
          "time": 114.6254484375,
          "velocity": 0.4094488188976378
        },
        {
          "duration": 0.0014076562500093814,
          "durationTicks": 1,
          "midi": 35,
          "name": "B1",
          "ticks": 81430,
          "time": 114.6254484375,
          "velocity": 0.9212598425196851
        },
        {
          "duration": 0.0014076562500093814,
          "durationTicks": 1,
          "midi": 45,
          "name": "A2",
          "ticks": 81430,
          "time": 114.6254484375,
          "velocity": 0.4094488188976378
        },
        {
          "duration": 0.019707187500003442,
          "durationTicks": 14,
          "midi": 42,
          "name": "F#2",
          "ticks": 81546,
          "time": 114.7887365625,
          "velocity": 0.4881889763779528
        },
        {
          "duration": 0.019707187500003442,
          "durationTicks": 14,
          "midi": 70,
          "name": "A#4",
          "ticks": 81546,
          "time": 114.7887365625,
          "velocity": 0.7874015748031497
        },
        {
          "duration": 0.01689187499999889,
          "durationTicks": 12,
          "midi": 69,
          "name": "A4",
          "ticks": 81676,
          "time": 114.971731875,
          "velocity": 0.4094488188976378
        },
        {
          "duration": 0.01689187499999889,
          "durationTicks": 12,
          "midi": 35,
          "name": "B1",
          "ticks": 81676,
          "time": 114.971731875,
          "velocity": 0.8267716535433071
        },
        {
          "duration": 0.019707187500003442,
          "durationTicks": 14,
          "midi": 42,
          "name": "F#2",
          "ticks": 81804,
          "time": 115.15191187500001,
          "velocity": 0.4881889763779528
        },
        {
          "duration": 0.019707187500003442,
          "durationTicks": 14,
          "midi": 70,
          "name": "A#4",
          "ticks": 81804,
          "time": 115.15191187500001,
          "velocity": 0.8188976377952756
        },
        {
          "duration": 0.019707187500003442,
          "durationTicks": 14,
          "midi": 48,
          "name": "C3",
          "ticks": 81804,
          "time": 115.15191187500001,
          "velocity": 0.9763779527559056
        },
        {
          "duration": 0.0168918750000131,
          "durationTicks": 12,
          "midi": 69,
          "name": "A4",
          "ticks": 81932,
          "time": 115.332091875,
          "velocity": 0.4094488188976378
        },
        {
          "duration": 0.011261249999989786,
          "durationTicks": 8,
          "midi": 45,
          "name": "A2",
          "ticks": 82064,
          "time": 115.5179025,
          "velocity": 0.47244094488188976
        },
        {
          "duration": 0.011261249999989786,
          "durationTicks": 8,
          "midi": 70,
          "name": "A#4",
          "ticks": 82064,
          "time": 115.5179025,
          "velocity": 0.8503937007874016
        },
        {
          "duration": 0.011261249999989786,
          "durationTicks": 8,
          "midi": 42,
          "name": "F#2",
          "ticks": 82064,
          "time": 115.5179025,
          "velocity": 0.4881889763779528
        },
        {
          "duration": 0.008445937499999445,
          "durationTicks": 6,
          "midi": 69,
          "name": "A4",
          "ticks": 82192,
          "time": 115.6980825,
          "velocity": 0.4094488188976378
        },
        {
          "duration": 0.008445937499999445,
          "durationTicks": 6,
          "midi": 35,
          "name": "B1",
          "ticks": 82192,
          "time": 115.6980825,
          "velocity": 0.9212598425196851
        },
        {
          "duration": 0.008445937499999445,
          "durationTicks": 6,
          "midi": 45,
          "name": "A2",
          "ticks": 82192,
          "time": 115.6980825,
          "velocity": 0.4094488188976378
        },
        {
          "duration": 0.022522500000007994,
          "durationTicks": 16,
          "midi": 42,
          "name": "F#2",
          "ticks": 82312,
          "time": 115.86700125,
          "velocity": 0.4881889763779528
        },
        {
          "duration": 0.022522500000007994,
          "durationTicks": 16,
          "midi": 70,
          "name": "A#4",
          "ticks": 82312,
          "time": 115.86700125,
          "velocity": 0.7874015748031497
        },
        {
          "duration": 0.01689187499999889,
          "durationTicks": 12,
          "midi": 69,
          "name": "A4",
          "ticks": 82446,
          "time": 116.05562718750001,
          "velocity": 0.4094488188976378
        },
        {
          "duration": 0.01689187499999889,
          "durationTicks": 12,
          "midi": 35,
          "name": "B1",
          "ticks": 82446,
          "time": 116.05562718750001,
          "velocity": 0.8582677165354331
        },
        {
          "duration": 0.028153124999988677,
          "durationTicks": 20,
          "midi": 42,
          "name": "F#2",
          "ticks": 82568,
          "time": 116.22736125000002,
          "velocity": 0.4881889763779528
        },
        {
          "duration": 0.028153124999988677,
          "durationTicks": 20,
          "midi": 70,
          "name": "A#4",
          "ticks": 82568,
          "time": 116.22736125000002,
          "velocity": 0.8188976377952756
        },
        {
          "duration": 0.028153124999988677,
          "durationTicks": 20,
          "midi": 48,
          "name": "C3",
          "ticks": 82568,
          "time": 116.22736125000002,
          "velocity": 0.9448818897637795
        },
        {
          "duration": 0.01689187499999889,
          "durationTicks": 12,
          "midi": 69,
          "name": "A4",
          "ticks": 82698,
          "time": 116.4103565625,
          "velocity": 0.4094488188976378
        },
        {
          "duration": 0.014076562499994338,
          "durationTicks": 10,
          "midi": 42,
          "name": "F#2",
          "ticks": 82830,
          "time": 116.5961671875,
          "velocity": 0.4881889763779528
        },
        {
          "duration": 0.014076562499994338,
          "durationTicks": 10,
          "midi": 70,
          "name": "A#4",
          "ticks": 82830,
          "time": 116.5961671875,
          "velocity": 0.8503937007874016
        },
        {
          "duration": 0.014076562499994338,
          "durationTicks": 10,
          "midi": 45,
          "name": "A2",
          "ticks": 82830,
          "time": 116.5961671875,
          "velocity": 0.47244094488188976
        },
        {
          "duration": 0.0014076562500093814,
          "durationTicks": 1,
          "midi": 69,
          "name": "A4",
          "ticks": 82966,
          "time": 116.7876084375,
          "velocity": 0.4094488188976378
        },
        {
          "duration": 0.0014076562500093814,
          "durationTicks": 1,
          "midi": 35,
          "name": "B1",
          "ticks": 82966,
          "time": 116.7876084375,
          "velocity": 0.9212598425196851
        },
        {
          "duration": 0.0014076562500093814,
          "durationTicks": 1,
          "midi": 45,
          "name": "A2",
          "ticks": 82966,
          "time": 116.7876084375,
          "velocity": 0.4094488188976378
        },
        {
          "duration": 0.01689187499999889,
          "durationTicks": 12,
          "midi": 42,
          "name": "F#2",
          "ticks": 83084,
          "time": 116.95371187500001,
          "velocity": 0.4881889763779528
        },
        {
          "duration": 0.01689187499999889,
          "durationTicks": 12,
          "midi": 70,
          "name": "A#4",
          "ticks": 83084,
          "time": 116.95371187500001,
          "velocity": 0.7874015748031497
        },
        {
          "duration": 0.01689187499999889,
          "durationTicks": 12,
          "midi": 69,
          "name": "A4",
          "ticks": 83212,
          "time": 117.133891875,
          "velocity": 0.4094488188976378
        },
        {
          "duration": 0.01689187499999889,
          "durationTicks": 12,
          "midi": 35,
          "name": "B1",
          "ticks": 83212,
          "time": 117.133891875,
          "velocity": 0.8267716535433071
        },
        {
          "duration": 0.01689187499999889,
          "durationTicks": 12,
          "midi": 42,
          "name": "F#2",
          "ticks": 83340,
          "time": 117.31407187500001,
          "velocity": 0.4881889763779528
        },
        {
          "duration": 0.01689187499999889,
          "durationTicks": 12,
          "midi": 70,
          "name": "A#4",
          "ticks": 83340,
          "time": 117.31407187500001,
          "velocity": 0.8188976377952756
        },
        {
          "duration": 0.01689187499999889,
          "durationTicks": 12,
          "midi": 48,
          "name": "C3",
          "ticks": 83340,
          "time": 117.31407187500001,
          "velocity": 0.9763779527559056
        },
        {
          "duration": 0.022522499999993784,
          "durationTicks": 16,
          "midi": 69,
          "name": "A4",
          "ticks": 83466,
          "time": 117.4914365625,
          "velocity": 0.4094488188976378
        },
        {
          "duration": 0.022522499999993784,
          "durationTicks": 16,
          "midi": 45,
          "name": "A2",
          "ticks": 83592,
          "time": 117.66880125,
          "velocity": 0.47244094488188976
        },
        {
          "duration": 0.022522499999993784,
          "durationTicks": 16,
          "midi": 70,
          "name": "A#4",
          "ticks": 83592,
          "time": 117.66880125,
          "velocity": 0.8503937007874016
        },
        {
          "duration": 0.022522499999993784,
          "durationTicks": 16,
          "midi": 42,
          "name": "F#2",
          "ticks": 83592,
          "time": 117.66880125,
          "velocity": 0.4881889763779528
        },
        {
          "duration": 0.01689187499999889,
          "durationTicks": 12,
          "midi": 69,
          "name": "A4",
          "ticks": 83726,
          "time": 117.85742718750001,
          "velocity": 0.4094488188976378
        },
        {
          "duration": 0.01689187499999889,
          "durationTicks": 12,
          "midi": 35,
          "name": "B1",
          "ticks": 83726,
          "time": 117.85742718750001,
          "velocity": 0.9212598425196851
        },
        {
          "duration": 0.01689187499999889,
          "durationTicks": 12,
          "midi": 45,
          "name": "A2",
          "ticks": 83726,
          "time": 117.85742718750001,
          "velocity": 0.4094488188976378
        },
        {
          "duration": 0.025337812499998336,
          "durationTicks": 18,
          "midi": 42,
          "name": "F#2",
          "ticks": 83848,
          "time": 118.02916125,
          "velocity": 0.4881889763779528
        },
        {
          "duration": 0.025337812499998336,
          "durationTicks": 18,
          "midi": 70,
          "name": "A#4",
          "ticks": 83848,
          "time": 118.02916125,
          "velocity": 0.7874015748031497
        },
        {
          "duration": 0.025337812499998336,
          "durationTicks": 18,
          "midi": 35,
          "name": "B1",
          "ticks": 83976,
          "time": 118.20934125000001,
          "velocity": 0.8582677165354331
        },
        {
          "duration": 0.025337812499998336,
          "durationTicks": 18,
          "midi": 69,
          "name": "A4",
          "ticks": 83976,
          "time": 118.20934125000001,
          "velocity": 0.4094488188976378
        },
        {
          "duration": 0.022522499999993784,
          "durationTicks": 16,
          "midi": 42,
          "name": "F#2",
          "ticks": 84104,
          "time": 118.38952125000002,
          "velocity": 0.4881889763779528
        },
        {
          "duration": 0.022522499999993784,
          "durationTicks": 16,
          "midi": 70,
          "name": "A#4",
          "ticks": 84104,
          "time": 118.38952125000002,
          "velocity": 0.8188976377952756
        },
        {
          "duration": 0.022522499999993784,
          "durationTicks": 16,
          "midi": 48,
          "name": "C3",
          "ticks": 84104,
          "time": 118.38952125000002,
          "velocity": 0.9448818897637795
        },
        {
          "duration": 0.022522499999993784,
          "durationTicks": 16,
          "midi": 69,
          "name": "A4",
          "ticks": 84234,
          "time": 118.5725165625,
          "velocity": 0.4094488188976378
        },
        {
          "duration": 0.014076562499994338,
          "durationTicks": 10,
          "midi": 45,
          "name": "A2",
          "ticks": 84368,
          "time": 118.7611425,
          "velocity": 0.47244094488188976
        },
        {
          "duration": 0.014076562499994338,
          "durationTicks": 10,
          "midi": 70,
          "name": "A#4",
          "ticks": 84368,
          "time": 118.7611425,
          "velocity": 0.8503937007874016
        },
        {
          "duration": 0.014076562499994338,
          "durationTicks": 10,
          "midi": 42,
          "name": "F#2",
          "ticks": 84368,
          "time": 118.7611425,
          "velocity": 0.4881889763779528
        },
        {
          "duration": 0.028153125000002888,
          "durationTicks": 20,
          "midi": 69,
          "name": "A4",
          "ticks": 84492,
          "time": 118.935691875,
          "velocity": 0.4094488188976378
        },
        {
          "duration": 0.028153125000002888,
          "durationTicks": 20,
          "midi": 35,
          "name": "B1",
          "ticks": 84492,
          "time": 118.935691875,
          "velocity": 0.9212598425196851
        },
        {
          "duration": 0.028153125000002888,
          "durationTicks": 20,
          "midi": 45,
          "name": "A2",
          "ticks": 84492,
          "time": 118.935691875,
          "velocity": 0.4094488188976378
        },
        {
          "duration": 0.025337812499998336,
          "durationTicks": 18,
          "midi": 42,
          "name": "F#2",
          "ticks": 84618,
          "time": 119.1130565625,
          "velocity": 0.4881889763779528
        },
        {
          "duration": 0.025337812499998336,
          "durationTicks": 18,
          "midi": 70,
          "name": "A#4",
          "ticks": 84618,
          "time": 119.1130565625,
          "velocity": 0.7874015748031497
        },
        {
          "duration": 0.022522499999993784,
          "durationTicks": 16,
          "midi": 35,
          "name": "B1",
          "ticks": 84744,
          "time": 119.29042125000001,
          "velocity": 0.8267716535433071
        },
        {
          "duration": 0.022522499999993784,
          "durationTicks": 16,
          "midi": 69,
          "name": "A4",
          "ticks": 84744,
          "time": 119.29042125000001,
          "velocity": 0.4094488188976378
        },
        {
          "duration": 0.014076562499994338,
          "durationTicks": 10,
          "midi": 42,
          "name": "F#2",
          "ticks": 84878,
          "time": 119.47904718750002,
          "velocity": 0.4881889763779528
        },
        {
          "duration": 0.014076562499994338,
          "durationTicks": 10,
          "midi": 70,
          "name": "A#4",
          "ticks": 84878,
          "time": 119.47904718750002,
          "velocity": 0.8188976377952756
        },
        {
          "duration": 0.014076562499994338,
          "durationTicks": 10,
          "midi": 48,
          "name": "C3",
          "ticks": 84878,
          "time": 119.47904718750002,
          "velocity": 0.9763779527559056
        },
        {
          "duration": 0.019707187500017653,
          "durationTicks": 14,
          "midi": 69,
          "name": "A4",
          "ticks": 85002,
          "time": 119.6535965625,
          "velocity": 0.4094488188976378
        },
        {
          "duration": 0.01689187499999889,
          "durationTicks": 12,
          "midi": 42,
          "name": "F#2",
          "ticks": 85134,
          "time": 119.8394071875,
          "velocity": 0.4881889763779528
        },
        {
          "duration": 0.01689187499999889,
          "durationTicks": 12,
          "midi": 70,
          "name": "A#4",
          "ticks": 85134,
          "time": 119.8394071875,
          "velocity": 0.8503937007874016
        },
        {
          "duration": 0.01689187499999889,
          "durationTicks": 12,
          "midi": 45,
          "name": "A2",
          "ticks": 85134,
          "time": 119.8394071875,
          "velocity": 0.47244094488188976
        },
        {
          "duration": 0.028153124999988677,
          "durationTicks": 20,
          "midi": 69,
          "name": "A4",
          "ticks": 85262,
          "time": 120.01958718750001,
          "velocity": 0.4094488188976378
        },
        {
          "duration": 0.028153124999988677,
          "durationTicks": 20,
          "midi": 35,
          "name": "B1",
          "ticks": 85262,
          "time": 120.01958718750001,
          "velocity": 0.9212598425196851
        },
        {
          "duration": 0.028153124999988677,
          "durationTicks": 20,
          "midi": 45,
          "name": "A2",
          "ticks": 85262,
          "time": 120.01958718750001,
          "velocity": 0.4094488188976378
        },
        {
          "duration": 0.025337812499998336,
          "durationTicks": 18,
          "midi": 42,
          "name": "F#2",
          "ticks": 85384,
          "time": 120.19132125,
          "velocity": 0.4881889763779528
        },
        {
          "duration": 0.025337812499998336,
          "durationTicks": 18,
          "midi": 70,
          "name": "A#4",
          "ticks": 85384,
          "time": 120.19132125,
          "velocity": 0.7874015748031497
        },
        {
          "duration": 0.01689187499999889,
          "durationTicks": 12,
          "midi": 69,
          "name": "A4",
          "ticks": 85516,
          "time": 120.377131875,
          "velocity": 0.4094488188976378
        },
        {
          "duration": 0.01689187499999889,
          "durationTicks": 12,
          "midi": 35,
          "name": "B1",
          "ticks": 85516,
          "time": 120.377131875,
          "velocity": 0.8582677165354331
        },
        {
          "duration": 0.022522499999993784,
          "durationTicks": 16,
          "midi": 42,
          "name": "F#2",
          "ticks": 85644,
          "time": 120.55731187500001,
          "velocity": 0.4881889763779528
        },
        {
          "duration": 0.022522499999993784,
          "durationTicks": 16,
          "midi": 70,
          "name": "A#4",
          "ticks": 85644,
          "time": 120.55731187500001,
          "velocity": 0.8188976377952756
        },
        {
          "duration": 0.022522499999993784,
          "durationTicks": 16,
          "midi": 48,
          "name": "C3",
          "ticks": 85644,
          "time": 120.55731187500001,
          "velocity": 0.9448818897637795
        },
        {
          "duration": 0.019707187500017653,
          "durationTicks": 14,
          "midi": 69,
          "name": "A4",
          "ticks": 85770,
          "time": 120.7346765625,
          "velocity": 0.4094488188976378
        },
        {
          "duration": 0.025337812499998336,
          "durationTicks": 18,
          "midi": 45,
          "name": "A2",
          "ticks": 85896,
          "time": 120.91204125,
          "velocity": 0.47244094488188976
        },
        {
          "duration": 0.025337812499998336,
          "durationTicks": 18,
          "midi": 70,
          "name": "A#4",
          "ticks": 85896,
          "time": 120.91204125,
          "velocity": 0.8503937007874016
        },
        {
          "duration": 0.025337812499998336,
          "durationTicks": 18,
          "midi": 42,
          "name": "F#2",
          "ticks": 85896,
          "time": 120.91204125,
          "velocity": 0.4881889763779528
        },
        {
          "duration": 0.0014076562500093814,
          "durationTicks": 1,
          "midi": 69,
          "name": "A4",
          "ticks": 86038,
          "time": 121.1119284375,
          "velocity": 0.4094488188976378
        },
        {
          "duration": 0.0014076562500093814,
          "durationTicks": 1,
          "midi": 35,
          "name": "B1",
          "ticks": 86038,
          "time": 121.1119284375,
          "velocity": 0.9212598425196851
        },
        {
          "duration": 0.0014076562500093814,
          "durationTicks": 1,
          "midi": 45,
          "name": "A2",
          "ticks": 86038,
          "time": 121.1119284375,
          "velocity": 0.4094488188976378
        },
        {
          "duration": 0.01689187499999889,
          "durationTicks": 12,
          "midi": 42,
          "name": "F#2",
          "ticks": 86156,
          "time": 121.27803187500001,
          "velocity": 0.4881889763779528
        },
        {
          "duration": 0.01689187499999889,
          "durationTicks": 12,
          "midi": 70,
          "name": "A#4",
          "ticks": 86156,
          "time": 121.27803187500001,
          "velocity": 0.7874015748031497
        },
        {
          "duration": 0.019707187500003442,
          "durationTicks": 14,
          "midi": 69,
          "name": "A4",
          "ticks": 86284,
          "time": 121.458211875,
          "velocity": 0.4094488188976378
        },
        {
          "duration": 0.019707187500003442,
          "durationTicks": 14,
          "midi": 35,
          "name": "B1",
          "ticks": 86284,
          "time": 121.458211875,
          "velocity": 0.8267716535433071
        },
        {
          "duration": 0.022522499999993784,
          "durationTicks": 16,
          "midi": 42,
          "name": "F#2",
          "ticks": 86408,
          "time": 121.63276125000002,
          "velocity": 0.4881889763779528
        },
        {
          "duration": 0.022522499999993784,
          "durationTicks": 16,
          "midi": 70,
          "name": "A#4",
          "ticks": 86408,
          "time": 121.63276125000002,
          "velocity": 0.8188976377952756
        },
        {
          "duration": 0.022522499999993784,
          "durationTicks": 16,
          "midi": 48,
          "name": "C3",
          "ticks": 86408,
          "time": 121.63276125000002,
          "velocity": 0.9763779527559056
        },
        {
          "duration": 0.022522500000022205,
          "durationTicks": 16,
          "midi": 69,
          "name": "A4",
          "ticks": 86536,
          "time": 121.81294125,
          "velocity": 0.4094488188976378
        },
        {
          "duration": 0.01689187499999889,
          "durationTicks": 12,
          "midi": 42,
          "name": "F#2",
          "ticks": 86670,
          "time": 122.0015671875,
          "velocity": 0.4881889763779528
        },
        {
          "duration": 0.01689187499999889,
          "durationTicks": 12,
          "midi": 70,
          "name": "A#4",
          "ticks": 86670,
          "time": 122.0015671875,
          "velocity": 0.8503937007874016
        },
        {
          "duration": 0.01689187499999889,
          "durationTicks": 12,
          "midi": 45,
          "name": "A2",
          "ticks": 86670,
          "time": 122.0015671875,
          "velocity": 0.47244094488188976
        },
        {
          "duration": 0.0014076562500093814,
          "durationTicks": 1,
          "midi": 69,
          "name": "A4",
          "ticks": 86806,
          "time": 122.1930084375,
          "velocity": 0.4094488188976378
        },
        {
          "duration": 0.0014076562500093814,
          "durationTicks": 1,
          "midi": 35,
          "name": "B1",
          "ticks": 86806,
          "time": 122.1930084375,
          "velocity": 0.9212598425196851
        },
        {
          "duration": 0.0014076562500093814,
          "durationTicks": 1,
          "midi": 45,
          "name": "A2",
          "ticks": 86806,
          "time": 122.1930084375,
          "velocity": 0.4094488188976378
        },
        {
          "duration": 0.025337812499998336,
          "durationTicks": 18,
          "midi": 42,
          "name": "F#2",
          "ticks": 86922,
          "time": 122.3562965625,
          "velocity": 0.4881889763779528
        },
        {
          "duration": 0.025337812499998336,
          "durationTicks": 18,
          "midi": 70,
          "name": "A#4",
          "ticks": 86922,
          "time": 122.3562965625,
          "velocity": 0.7874015748031497
        },
        {
          "duration": 0.01689187499999889,
          "durationTicks": 12,
          "midi": 69,
          "name": "A4",
          "ticks": 87054,
          "time": 122.54210718750001,
          "velocity": 0.4094488188976378
        },
        {
          "duration": 0.01689187499999889,
          "durationTicks": 12,
          "midi": 35,
          "name": "B1",
          "ticks": 87054,
          "time": 122.54210718750001,
          "velocity": 0.8582677165354331
        },
        {
          "duration": 0.01407656250000855,
          "durationTicks": 10,
          "midi": 42,
          "name": "F#2",
          "ticks": 87184,
          "time": 122.7251025,
          "velocity": 0.4881889763779528
        },
        {
          "duration": 0.01407656250000855,
          "durationTicks": 10,
          "midi": 70,
          "name": "A#4",
          "ticks": 87184,
          "time": 122.7251025,
          "velocity": 0.8188976377952756
        },
        {
          "duration": 0.01407656250000855,
          "durationTicks": 10,
          "midi": 48,
          "name": "C3",
          "ticks": 87184,
          "time": 122.7251025,
          "velocity": 0.9448818897637795
        },
        {
          "duration": 0.01970718749998923,
          "durationTicks": 14,
          "midi": 69,
          "name": "A4",
          "ticks": 87308,
          "time": 122.899651875,
          "velocity": 0.4094488188976378
        },
        {
          "duration": 0.01970718749998923,
          "durationTicks": 14,
          "midi": 48,
          "name": "C3",
          "ticks": 87308,
          "time": 122.899651875,
          "velocity": 0.7874015748031497
        },
        {
          "duration": 0.022522499999993784,
          "durationTicks": 16,
          "midi": 42,
          "name": "F#2",
          "ticks": 87434,
          "time": 123.0770165625,
          "velocity": 0.4881889763779528
        },
        {
          "duration": 0.022522499999993784,
          "durationTicks": 16,
          "midi": 56,
          "name": "G#3",
          "ticks": 87434,
          "time": 123.0770165625,
          "velocity": 0.8503937007874016
        },
        {
          "duration": 0.022522499999993784,
          "durationTicks": 16,
          "midi": 45,
          "name": "A2",
          "ticks": 87434,
          "time": 123.0770165625,
          "velocity": 0.47244094488188976
        },
        {
          "duration": 0.0014076562499951706,
          "durationTicks": 1,
          "midi": 69,
          "name": "A4",
          "ticks": 87576,
          "time": 123.27690375,
          "velocity": 0.3464566929133858
        },
        {
          "duration": 0.0014076562499951706,
          "durationTicks": 1,
          "midi": 70,
          "name": "A#4",
          "ticks": 87576,
          "time": 123.27690375,
          "velocity": 0.6299212598425197
        },
        {
          "duration": 0.0014076562499951706,
          "durationTicks": 1,
          "midi": 35,
          "name": "B1",
          "ticks": 87576,
          "time": 123.27690375,
          "velocity": 0.889763779527559
        },
        {
          "duration": 0.0014076562499951706,
          "durationTicks": 1,
          "midi": 42,
          "name": "F#2",
          "ticks": 87698,
          "time": 123.44863781250001,
          "velocity": 0.4251968503937008
        },
        {
          "duration": 0.0014076562499951706,
          "durationTicks": 1,
          "midi": 70,
          "name": "A#4",
          "ticks": 87698,
          "time": 123.44863781250001,
          "velocity": 0.6929133858267716
        },
        {
          "duration": 0.0014076562499951706,
          "durationTicks": 1,
          "midi": 69,
          "name": "A4",
          "ticks": 87828,
          "time": 123.63163312500001,
          "velocity": 0.3464566929133858
        },
        {
          "duration": 0.0014076562499951706,
          "durationTicks": 1,
          "midi": 35,
          "name": "B1",
          "ticks": 87828,
          "time": 123.63163312500001,
          "velocity": 0.7637795275590551
        },
        {
          "duration": 0.022522500000007994,
          "durationTicks": 16,
          "midi": 42,
          "name": "F#2",
          "ticks": 87946,
          "time": 123.7977365625,
          "velocity": 0.4251968503937008
        },
        {
          "duration": 0.022522500000007994,
          "durationTicks": 16,
          "midi": 70,
          "name": "A#4",
          "ticks": 87946,
          "time": 123.7977365625,
          "velocity": 0.7244094488188977
        },
        {
          "duration": 0.022522500000007994,
          "durationTicks": 16,
          "midi": 48,
          "name": "C3",
          "ticks": 87946,
          "time": 123.7977365625,
          "velocity": 0.8503937007874016
        },
        {
          "duration": 0.014076562499994338,
          "durationTicks": 10,
          "midi": 69,
          "name": "A4",
          "ticks": 88080,
          "time": 123.9863625,
          "velocity": 0.3464566929133858
        },
        {
          "duration": 0.025337812499998336,
          "durationTicks": 18,
          "midi": 45,
          "name": "A2",
          "ticks": 88200,
          "time": 124.15528125,
          "velocity": 0.3464566929133858
        },
        {
          "duration": 0.025337812499998336,
          "durationTicks": 18,
          "midi": 70,
          "name": "A#4",
          "ticks": 88200,
          "time": 124.15528125,
          "velocity": 0.7874015748031497
        },
        {
          "duration": 0.025337812499998336,
          "durationTicks": 18,
          "midi": 42,
          "name": "F#2",
          "ticks": 88200,
          "time": 124.15528125,
          "velocity": 0.4251968503937008
        },
        {
          "duration": 0.025337812499998336,
          "durationTicks": 18,
          "midi": 69,
          "name": "A4",
          "ticks": 88328,
          "time": 124.33546125000001,
          "velocity": 0.3464566929133858
        },
        {
          "duration": 0.025337812499998336,
          "durationTicks": 18,
          "midi": 35,
          "name": "B1",
          "ticks": 88328,
          "time": 124.33546125000001,
          "velocity": 0.8267716535433071
        },
        {
          "duration": 0.025337812499998336,
          "durationTicks": 18,
          "midi": 45,
          "name": "A2",
          "ticks": 88328,
          "time": 124.33546125000001,
          "velocity": 0.31496062992125984
        },
        {
          "duration": 0.011261249999989786,
          "durationTicks": 8,
          "midi": 42,
          "name": "F#2",
          "ticks": 88466,
          "time": 124.52971781250001,
          "velocity": 0.4251968503937008
        },
        {
          "duration": 0.011261249999989786,
          "durationTicks": 8,
          "midi": 70,
          "name": "A#4",
          "ticks": 88466,
          "time": 124.52971781250001,
          "velocity": 0.6929133858267716
        },
        {
          "duration": 0.008445937499999445,
          "durationTicks": 6,
          "midi": 69,
          "name": "A4",
          "ticks": 88594,
          "time": 124.7098978125,
          "velocity": 0.3464566929133858
        },
        {
          "duration": 0.008445937499999445,
          "durationTicks": 6,
          "midi": 35,
          "name": "B1",
          "ticks": 88594,
          "time": 124.7098978125,
          "velocity": 0.7322834645669292
        },
        {
          "duration": 0.0014076562499951706,
          "durationTicks": 1,
          "midi": 42,
          "name": "F#2",
          "ticks": 88722,
          "time": 124.89007781250001,
          "velocity": 0.4251968503937008
        },
        {
          "duration": 0.0014076562499951706,
          "durationTicks": 1,
          "midi": 70,
          "name": "A#4",
          "ticks": 88722,
          "time": 124.89007781250001,
          "velocity": 0.7244094488188977
        },
        {
          "duration": 0.0014076562499951706,
          "durationTicks": 1,
          "midi": 48,
          "name": "C3",
          "ticks": 88722,
          "time": 124.89007781250001,
          "velocity": 0.8188976377952756
        },
        {
          "duration": 0.014076562499994338,
          "durationTicks": 10,
          "midi": 69,
          "name": "A4",
          "ticks": 88848,
          "time": 125.0674425,
          "velocity": 0.3464566929133858
        },
        {
          "duration": 0.011261250000003997,
          "durationTicks": 8,
          "midi": 42,
          "name": "F#2",
          "ticks": 88978,
          "time": 125.2504378125,
          "velocity": 0.4251968503937008
        },
        {
          "duration": 0.011261250000003997,
          "durationTicks": 8,
          "midi": 70,
          "name": "A#4",
          "ticks": 88978,
          "time": 125.2504378125,
          "velocity": 0.7874015748031497
        },
        {
          "duration": 0.011261250000003997,
          "durationTicks": 8,
          "midi": 45,
          "name": "A2",
          "ticks": 88978,
          "time": 125.2504378125,
          "velocity": 0.3779527559055118
        },
        {
          "duration": 0.0014076562499951706,
          "durationTicks": 1,
          "midi": 69,
          "name": "A4",
          "ticks": 89106,
          "time": 125.4306178125,
          "velocity": 0.3464566929133858
        },
        {
          "duration": 0.0014076562499951706,
          "durationTicks": 1,
          "midi": 35,
          "name": "B1",
          "ticks": 89106,
          "time": 125.4306178125,
          "velocity": 0.8267716535433071
        },
        {
          "duration": 0.0014076562499951706,
          "durationTicks": 1,
          "midi": 45,
          "name": "A2",
          "ticks": 89106,
          "time": 125.4306178125,
          "velocity": 0.3464566929133858
        },
        {
          "duration": 0.005630624999994893,
          "durationTicks": 4,
          "midi": 42,
          "name": "F#2",
          "ticks": 89234,
          "time": 125.61079781250001,
          "velocity": 0.4251968503937008
        },
        {
          "duration": 0.005630624999994893,
          "durationTicks": 4,
          "midi": 70,
          "name": "A#4",
          "ticks": 89234,
          "time": 125.61079781250001,
          "velocity": 0.6929133858267716
        },
        {
          "duration": 0.0014076562499951706,
          "durationTicks": 1,
          "midi": 69,
          "name": "A4",
          "ticks": 89364,
          "time": 125.79379312500001,
          "velocity": 0.3464566929133858
        },
        {
          "duration": 0.0014076562499951706,
          "durationTicks": 1,
          "midi": 35,
          "name": "B1",
          "ticks": 89364,
          "time": 125.79379312500001,
          "velocity": 0.7007874015748031
        },
        {
          "duration": 0.019707187500003442,
          "durationTicks": 14,
          "midi": 42,
          "name": "F#2",
          "ticks": 89482,
          "time": 125.9598965625,
          "velocity": 0.4251968503937008
        },
        {
          "duration": 0.019707187500003442,
          "durationTicks": 14,
          "midi": 70,
          "name": "A#4",
          "ticks": 89482,
          "time": 125.9598965625,
          "velocity": 0.7244094488188977
        },
        {
          "duration": 0.019707187500003442,
          "durationTicks": 14,
          "midi": 48,
          "name": "C3",
          "ticks": 89482,
          "time": 125.9598965625,
          "velocity": 0.8503937007874016
        },
        {
          "duration": 0.0014076562499951706,
          "durationTicks": 1,
          "midi": 69,
          "name": "A4",
          "ticks": 89618,
          "time": 126.1513378125,
          "velocity": 0.3464566929133858
        },
        {
          "duration": 0.0014076562499951706,
          "durationTicks": 1,
          "midi": 42,
          "name": "F#2",
          "ticks": 89748,
          "time": 126.334333125,
          "velocity": 0.4251968503937008
        },
        {
          "duration": 0.0014076562499951706,
          "durationTicks": 1,
          "midi": 70,
          "name": "A#4",
          "ticks": 89748,
          "time": 126.334333125,
          "velocity": 0.7874015748031497
        },
        {
          "duration": 0.0014076562499951706,
          "durationTicks": 1,
          "midi": 45,
          "name": "A2",
          "ticks": 89748,
          "time": 126.334333125,
          "velocity": 0.3779527559055118
        },
        {
          "duration": 0.005630624999994893,
          "durationTicks": 4,
          "midi": 69,
          "name": "A4",
          "ticks": 89874,
          "time": 126.5116978125,
          "velocity": 0.3464566929133858
        },
        {
          "duration": 0.005630624999994893,
          "durationTicks": 4,
          "midi": 35,
          "name": "B1",
          "ticks": 89874,
          "time": 126.5116978125,
          "velocity": 0.8267716535433071
        },
        {
          "duration": 0.005630624999994893,
          "durationTicks": 4,
          "midi": 45,
          "name": "A2",
          "ticks": 89874,
          "time": 126.5116978125,
          "velocity": 0.3464566929133858
        },
        {
          "duration": 0.019707187500003442,
          "durationTicks": 14,
          "midi": 42,
          "name": "F#2",
          "ticks": 89994,
          "time": 126.6806165625,
          "velocity": 0.4251968503937008
        },
        {
          "duration": 0.019707187500003442,
          "durationTicks": 14,
          "midi": 70,
          "name": "A#4",
          "ticks": 89994,
          "time": 126.6806165625,
          "velocity": 0.6929133858267716
        },
        {
          "duration": 0.01970718749998923,
          "durationTicks": 14,
          "midi": 69,
          "name": "A4",
          "ticks": 90122,
          "time": 126.86079656250001,
          "velocity": 0.3464566929133858
        },
        {
          "duration": 0.01970718749998923,
          "durationTicks": 14,
          "midi": 35,
          "name": "B1",
          "ticks": 90122,
          "time": 126.86079656250001,
          "velocity": 0.7322834645669292
        },
        {
          "duration": 0.022522499999993784,
          "durationTicks": 16,
          "midi": 42,
          "name": "F#2",
          "ticks": 90248,
          "time": 127.03816125000002,
          "velocity": 0.4251968503937008
        },
        {
          "duration": 0.022522499999993784,
          "durationTicks": 16,
          "midi": 70,
          "name": "A#4",
          "ticks": 90248,
          "time": 127.03816125000002,
          "velocity": 0.7244094488188977
        },
        {
          "duration": 0.022522499999993784,
          "durationTicks": 16,
          "midi": 48,
          "name": "C3",
          "ticks": 90248,
          "time": 127.03816125000002,
          "velocity": 0.8188976377952756
        },
        {
          "duration": 0.025337812499998336,
          "durationTicks": 18,
          "midi": 69,
          "name": "A4",
          "ticks": 90376,
          "time": 127.21834125,
          "velocity": 0.3464566929133858
        },
        {
          "duration": 0.0014076562499951706,
          "durationTicks": 1,
          "midi": 42,
          "name": "F#2",
          "ticks": 90516,
          "time": 127.415413125,
          "velocity": 0.4251968503937008
        },
        {
          "duration": 0.0014076562499951706,
          "durationTicks": 1,
          "midi": 70,
          "name": "A#4",
          "ticks": 90516,
          "time": 127.415413125,
          "velocity": 0.7874015748031497
        },
        {
          "duration": 0.0014076562499951706,
          "durationTicks": 1,
          "midi": 45,
          "name": "A2",
          "ticks": 90516,
          "time": 127.415413125,
          "velocity": 0.3779527559055118
        },
        {
          "duration": 0.025337812499998336,
          "durationTicks": 18,
          "midi": 69,
          "name": "A4",
          "ticks": 90634,
          "time": 127.5815165625,
          "velocity": 0.3464566929133858
        },
        {
          "duration": 0.025337812499998336,
          "durationTicks": 18,
          "midi": 35,
          "name": "B1",
          "ticks": 90634,
          "time": 127.5815165625,
          "velocity": 0.8267716535433071
        },
        {
          "duration": 0.025337812499998336,
          "durationTicks": 18,
          "midi": 45,
          "name": "A2",
          "ticks": 90634,
          "time": 127.5815165625,
          "velocity": 0.3464566929133858
        },
        {
          "duration": 0.022522500000007994,
          "durationTicks": 16,
          "midi": 42,
          "name": "F#2",
          "ticks": 90760,
          "time": 127.75888125,
          "velocity": 0.4251968503937008
        },
        {
          "duration": 0.022522500000007994,
          "durationTicks": 16,
          "midi": 70,
          "name": "A#4",
          "ticks": 90760,
          "time": 127.75888125,
          "velocity": 0.6929133858267716
        },
        {
          "duration": 0.022522499999993784,
          "durationTicks": 16,
          "midi": 35,
          "name": "B1",
          "ticks": 90888,
          "time": 127.93906125000001,
          "velocity": 0.7007874015748031
        },
        {
          "duration": 0.022522499999993784,
          "durationTicks": 16,
          "midi": 69,
          "name": "A4",
          "ticks": 90888,
          "time": 127.93906125000001,
          "velocity": 0.3464566929133858
        },
        {
          "duration": 0.01970718749998923,
          "durationTicks": 14,
          "midi": 42,
          "name": "F#2",
          "ticks": 91018,
          "time": 128.1220565625,
          "velocity": 0.4251968503937008
        },
        {
          "duration": 0.01970718749998923,
          "durationTicks": 14,
          "midi": 70,
          "name": "A#4",
          "ticks": 91018,
          "time": 128.1220565625,
          "velocity": 0.7244094488188977
        },
        {
          "duration": 0.01970718749998923,
          "durationTicks": 14,
          "midi": 48,
          "name": "C3",
          "ticks": 91018,
          "time": 128.1220565625,
          "velocity": 0.8503937007874016
        },
        {
          "duration": 0.022522499999979573,
          "durationTicks": 16,
          "midi": 69,
          "name": "A4",
          "ticks": 91146,
          "time": 128.3022365625,
          "velocity": 0.3464566929133858
        },
        {
          "duration": 0.025337812499998336,
          "durationTicks": 18,
          "midi": 42,
          "name": "F#2",
          "ticks": 91274,
          "time": 128.48241656250002,
          "velocity": 0.4251968503937008
        },
        {
          "duration": 0.025337812499998336,
          "durationTicks": 18,
          "midi": 70,
          "name": "A#4",
          "ticks": 91274,
          "time": 128.48241656250002,
          "velocity": 0.7874015748031497
        },
        {
          "duration": 0.025337812499998336,
          "durationTicks": 18,
          "midi": 45,
          "name": "A2",
          "ticks": 91274,
          "time": 128.48241656250002,
          "velocity": 0.3779527559055118
        },
        {
          "duration": 0.011261249999989786,
          "durationTicks": 8,
          "midi": 69,
          "name": "A4",
          "ticks": 91410,
          "time": 128.67385781250002,
          "velocity": 0.3464566929133858
        },
        {
          "duration": 0.011261249999989786,
          "durationTicks": 8,
          "midi": 35,
          "name": "B1",
          "ticks": 91410,
          "time": 128.67385781250002,
          "velocity": 0.8267716535433071
        },
        {
          "duration": 0.011261249999989786,
          "durationTicks": 8,
          "midi": 45,
          "name": "A2",
          "ticks": 91410,
          "time": 128.67385781250002,
          "velocity": 0.3464566929133858
        },
        {
          "duration": 0.01689187499999889,
          "durationTicks": 12,
          "midi": 42,
          "name": "F#2",
          "ticks": 91534,
          "time": 128.8484071875,
          "velocity": 0.4251968503937008
        },
        {
          "duration": 0.01689187499999889,
          "durationTicks": 12,
          "midi": 70,
          "name": "A#4",
          "ticks": 91534,
          "time": 128.8484071875,
          "velocity": 0.6929133858267716
        },
        {
          "duration": 0.008445937499999445,
          "durationTicks": 6,
          "midi": 35,
          "name": "B1",
          "ticks": 91664,
          "time": 129.0314025,
          "velocity": 0.7322834645669292
        },
        {
          "duration": 0.008445937499999445,
          "durationTicks": 6,
          "midi": 69,
          "name": "A4",
          "ticks": 91664,
          "time": 129.0314025,
          "velocity": 0.3464566929133858
        },
        {
          "duration": 0.01407656250000855,
          "durationTicks": 10,
          "midi": 42,
          "name": "F#2",
          "ticks": 91792,
          "time": 129.2115825,
          "velocity": 0.4251968503937008
        },
        {
          "duration": 0.01407656250000855,
          "durationTicks": 10,
          "midi": 70,
          "name": "A#4",
          "ticks": 91792,
          "time": 129.2115825,
          "velocity": 0.7244094488188977
        },
        {
          "duration": 0.01407656250000855,
          "durationTicks": 10,
          "midi": 48,
          "name": "C3",
          "ticks": 91792,
          "time": 129.2115825,
          "velocity": 0.8188976377952756
        },
        {
          "duration": 0.011261250000018208,
          "durationTicks": 8,
          "midi": 69,
          "name": "A4",
          "ticks": 91920,
          "time": 129.3917625,
          "velocity": 0.3464566929133858
        },
        {
          "duration": 0.011261249999989786,
          "durationTicks": 8,
          "midi": 42,
          "name": "F#2",
          "ticks": 92052,
          "time": 129.57757312500001,
          "velocity": 0.4251968503937008
        },
        {
          "duration": 0.011261249999989786,
          "durationTicks": 8,
          "midi": 70,
          "name": "A#4",
          "ticks": 92052,
          "time": 129.57757312500001,
          "velocity": 0.7874015748031497
        },
        {
          "duration": 0.011261249999989786,
          "durationTicks": 8,
          "midi": 45,
          "name": "A2",
          "ticks": 92052,
          "time": 129.57757312500001,
          "velocity": 0.3779527559055118
        },
        {
          "duration": 0.0014076562499951706,
          "durationTicks": 1,
          "midi": 69,
          "name": "A4",
          "ticks": 92178,
          "time": 129.7549378125,
          "velocity": 0.3464566929133858
        },
        {
          "duration": 0.0014076562499951706,
          "durationTicks": 1,
          "midi": 35,
          "name": "B1",
          "ticks": 92178,
          "time": 129.7549378125,
          "velocity": 0.8267716535433071
        },
        {
          "duration": 0.0014076562499951706,
          "durationTicks": 1,
          "midi": 45,
          "name": "A2",
          "ticks": 92178,
          "time": 129.7549378125,
          "velocity": 0.3464566929133858
        },
        {
          "duration": 0.008445937499999445,
          "durationTicks": 6,
          "midi": 42,
          "name": "F#2",
          "ticks": 92304,
          "time": 129.9323025,
          "velocity": 0.4251968503937008
        },
        {
          "duration": 0.008445937499999445,
          "durationTicks": 6,
          "midi": 70,
          "name": "A#4",
          "ticks": 92304,
          "time": 129.9323025,
          "velocity": 0.6929133858267716
        },
        {
          "duration": 0.0014076562500235923,
          "durationTicks": 1,
          "midi": 69,
          "name": "A4",
          "ticks": 92434,
          "time": 130.1152978125,
          "velocity": 0.3464566929133858
        },
        {
          "duration": 0.0014076562500235923,
          "durationTicks": 1,
          "midi": 35,
          "name": "B1",
          "ticks": 92434,
          "time": 130.1152978125,
          "velocity": 0.7007874015748031
        },
        {
          "duration": 0.01407656250000855,
          "durationTicks": 10,
          "midi": 42,
          "name": "F#2",
          "ticks": 92560,
          "time": 130.2926625,
          "velocity": 0.4251968503937008
        },
        {
          "duration": 0.01407656250000855,
          "durationTicks": 10,
          "midi": 70,
          "name": "A#4",
          "ticks": 92560,
          "time": 130.2926625,
          "velocity": 0.7244094488188977
        },
        {
          "duration": 0.01407656250000855,
          "durationTicks": 10,
          "midi": 48,
          "name": "C3",
          "ticks": 92560,
          "time": 130.2926625,
          "velocity": 0.8503937007874016
        },
        {
          "duration": 0.011261249999989786,
          "durationTicks": 8,
          "midi": 69,
          "name": "A4",
          "ticks": 92688,
          "time": 130.4728425,
          "velocity": 0.3464566929133858
        },
        {
          "duration": 0.0014076562499951706,
          "durationTicks": 1,
          "midi": 42,
          "name": "F#2",
          "ticks": 92818,
          "time": 130.6558378125,
          "velocity": 0.4251968503937008
        },
        {
          "duration": 0.0014076562499951706,
          "durationTicks": 1,
          "midi": 70,
          "name": "A#4",
          "ticks": 92818,
          "time": 130.6558378125,
          "velocity": 0.7874015748031497
        },
        {
          "duration": 0.0014076562499951706,
          "durationTicks": 1,
          "midi": 45,
          "name": "A2",
          "ticks": 92818,
          "time": 130.6558378125,
          "velocity": 0.3779527559055118
        },
        {
          "duration": 0.008445937499999445,
          "durationTicks": 6,
          "midi": 69,
          "name": "A4",
          "ticks": 92946,
          "time": 130.83601781250002,
          "velocity": 0.3464566929133858
        },
        {
          "duration": 0.008445937499999445,
          "durationTicks": 6,
          "midi": 35,
          "name": "B1",
          "ticks": 92946,
          "time": 130.83601781250002,
          "velocity": 0.8267716535433071
        },
        {
          "duration": 0.008445937499999445,
          "durationTicks": 6,
          "midi": 45,
          "name": "A2",
          "ticks": 92946,
          "time": 130.83601781250002,
          "velocity": 0.3464566929133858
        },
        {
          "duration": 0.011261250000018208,
          "durationTicks": 8,
          "midi": 42,
          "name": "F#2",
          "ticks": 93072,
          "time": 131.0133825,
          "velocity": 0.4251968503937008
        },
        {
          "duration": 0.011261250000018208,
          "durationTicks": 8,
          "midi": 70,
          "name": "A#4",
          "ticks": 93072,
          "time": 131.0133825,
          "velocity": 0.6929133858267716
        },
        {
          "duration": 0.022522500000007994,
          "durationTicks": 16,
          "midi": 35,
          "name": "B1",
          "ticks": 93192,
          "time": 131.18230125,
          "velocity": 0.7322834645669292
        },
        {
          "duration": 0.022522500000007994,
          "durationTicks": 16,
          "midi": 69,
          "name": "A4",
          "ticks": 93192,
          "time": 131.18230125,
          "velocity": 0.3464566929133858
        },
        {
          "duration": 0.025337812499998336,
          "durationTicks": 18,
          "midi": 42,
          "name": "F#2",
          "ticks": 93320,
          "time": 131.36248125,
          "velocity": 0.4251968503937008
        },
        {
          "duration": 0.025337812499998336,
          "durationTicks": 18,
          "midi": 70,
          "name": "A#4",
          "ticks": 93320,
          "time": 131.36248125,
          "velocity": 0.7244094488188977
        },
        {
          "duration": 0.025337812499998336,
          "durationTicks": 18,
          "midi": 48,
          "name": "C3",
          "ticks": 93320,
          "time": 131.36248125,
          "velocity": 0.8188976377952756
        },
        {
          "duration": 0.01407656250000855,
          "durationTicks": 10,
          "midi": 69,
          "name": "A4",
          "ticks": 93454,
          "time": 131.5511071875,
          "velocity": 0.3464566929133858
        },
        {
          "duration": 0.008445937499999445,
          "durationTicks": 6,
          "midi": 42,
          "name": "F#2",
          "ticks": 93586,
          "time": 131.7369178125,
          "velocity": 0.4251968503937008
        },
        {
          "duration": 0.008445937499999445,
          "durationTicks": 6,
          "midi": 70,
          "name": "A#4",
          "ticks": 93586,
          "time": 131.7369178125,
          "velocity": 0.7874015748031497
        },
        {
          "duration": 0.008445937499999445,
          "durationTicks": 6,
          "midi": 45,
          "name": "A2",
          "ticks": 93586,
          "time": 131.7369178125,
          "velocity": 0.3779527559055118
        },
        {
          "duration": 0.0014076562499951706,
          "durationTicks": 1,
          "midi": 69,
          "name": "A4",
          "ticks": 93712,
          "time": 131.9142825,
          "velocity": 0.3464566929133858
        },
        {
          "duration": 0.0014076562499951706,
          "durationTicks": 1,
          "midi": 35,
          "name": "B1",
          "ticks": 93712,
          "time": 131.9142825,
          "velocity": 0.8267716535433071
        },
        {
          "duration": 0.0014076562499951706,
          "durationTicks": 1,
          "midi": 45,
          "name": "A2",
          "ticks": 93712,
          "time": 131.9142825,
          "velocity": 0.3464566929133858
        },
        {
          "duration": 0.022522500000007994,
          "durationTicks": 16,
          "midi": 42,
          "name": "F#2",
          "ticks": 93832,
          "time": 132.08320125,
          "velocity": 0.4251968503937008
        },
        {
          "duration": 0.022522500000007994,
          "durationTicks": 16,
          "midi": 70,
          "name": "A#4",
          "ticks": 93832,
          "time": 132.08320125,
          "velocity": 0.6929133858267716
        },
        {
          "duration": 0.01407656250000855,
          "durationTicks": 10,
          "midi": 69,
          "name": "A4",
          "ticks": 93970,
          "time": 132.2774578125,
          "velocity": 0.3464566929133858
        },
        {
          "duration": 0.01407656250000855,
          "durationTicks": 10,
          "midi": 35,
          "name": "B1",
          "ticks": 93970,
          "time": 132.2774578125,
          "velocity": 0.7007874015748031
        },
        {
          "duration": 0.011261249999989786,
          "durationTicks": 8,
          "midi": 42,
          "name": "F#2",
          "ticks": 94096,
          "time": 132.4548225,
          "velocity": 0.4251968503937008
        },
        {
          "duration": 0.011261249999989786,
          "durationTicks": 8,
          "midi": 70,
          "name": "A#4",
          "ticks": 94096,
          "time": 132.4548225,
          "velocity": 0.7244094488188977
        },
        {
          "duration": 0.011261249999989786,
          "durationTicks": 8,
          "midi": 48,
          "name": "C3",
          "ticks": 94096,
          "time": 132.4548225,
          "velocity": 0.8503937007874016
        },
        {
          "duration": 0.01689187499999889,
          "durationTicks": 12,
          "midi": 69,
          "name": "A4",
          "ticks": 94222,
          "time": 132.6321871875,
          "velocity": 0.3464566929133858
        },
        {
          "duration": 0.0014076562499951706,
          "durationTicks": 1,
          "midi": 42,
          "name": "F#2",
          "ticks": 94354,
          "time": 132.8179978125,
          "velocity": 0.4251968503937008
        },
        {
          "duration": 0.0014076562499951706,
          "durationTicks": 1,
          "midi": 70,
          "name": "A#4",
          "ticks": 94354,
          "time": 132.8179978125,
          "velocity": 0.7874015748031497
        },
        {
          "duration": 0.0014076562499951706,
          "durationTicks": 1,
          "midi": 45,
          "name": "A2",
          "ticks": 94354,
          "time": 132.8179978125,
          "velocity": 0.3779527559055118
        },
        {
          "duration": 0.0014076562499951706,
          "durationTicks": 1,
          "midi": 69,
          "name": "A4",
          "ticks": 94484,
          "time": 133.000993125,
          "velocity": 0.3464566929133858
        },
        {
          "duration": 0.0014076562499951706,
          "durationTicks": 1,
          "midi": 35,
          "name": "B1",
          "ticks": 94484,
          "time": 133.000993125,
          "velocity": 0.8267716535433071
        },
        {
          "duration": 0.0014076562499951706,
          "durationTicks": 1,
          "midi": 45,
          "name": "A2",
          "ticks": 94484,
          "time": 133.000993125,
          "velocity": 0.3464566929133858
        },
        {
          "duration": 0.022522500000036416,
          "durationTicks": 16,
          "midi": 42,
          "name": "F#2",
          "ticks": 94600,
          "time": 133.16428125,
          "velocity": 0.4251968503937008
        },
        {
          "duration": 0.022522500000036416,
          "durationTicks": 16,
          "midi": 70,
          "name": "A#4",
          "ticks": 94600,
          "time": 133.16428125,
          "velocity": 0.6929133858267716
        },
        {
          "duration": 0.022522500000007994,
          "durationTicks": 16,
          "midi": 35,
          "name": "B1",
          "ticks": 94728,
          "time": 133.34446125,
          "velocity": 0.7322834645669292
        },
        {
          "duration": 0.022522500000007994,
          "durationTicks": 16,
          "midi": 69,
          "name": "A4",
          "ticks": 94728,
          "time": 133.34446125,
          "velocity": 0.3464566929133858
        },
        {
          "duration": 0.011261250000018208,
          "durationTicks": 8,
          "midi": 42,
          "name": "F#2",
          "ticks": 94864,
          "time": 133.5359025,
          "velocity": 0.4251968503937008
        },
        {
          "duration": 0.011261250000018208,
          "durationTicks": 8,
          "midi": 70,
          "name": "A#4",
          "ticks": 94864,
          "time": 133.5359025,
          "velocity": 0.7244094488188977
        },
        {
          "duration": 0.011261250000018208,
          "durationTicks": 8,
          "midi": 48,
          "name": "C3",
          "ticks": 94864,
          "time": 133.5359025,
          "velocity": 0.8188976377952756
        },
        {
          "duration": 0.008445937499999445,
          "durationTicks": 6,
          "midi": 69,
          "name": "A4",
          "ticks": 94992,
          "time": 133.7160825,
          "velocity": 0.3464566929133858
        },
        {
          "duration": 0.0014076562500235923,
          "durationTicks": 1,
          "midi": 42,
          "name": "F#2",
          "ticks": 95122,
          "time": 133.8990778125,
          "velocity": 0.4251968503937008
        },
        {
          "duration": 0.0014076562500235923,
          "durationTicks": 1,
          "midi": 70,
          "name": "A#4",
          "ticks": 95122,
          "time": 133.8990778125,
          "velocity": 0.7874015748031497
        },
        {
          "duration": 0.0014076562500235923,
          "durationTicks": 1,
          "midi": 45,
          "name": "A2",
          "ticks": 95122,
          "time": 133.8990778125,
          "velocity": 0.3779527559055118
        },
        {
          "duration": 0.0014076562499951706,
          "durationTicks": 1,
          "midi": 69,
          "name": "A4",
          "ticks": 95250,
          "time": 134.0792578125,
          "velocity": 0.3464566929133858
        },
        {
          "duration": 0.0014076562499951706,
          "durationTicks": 1,
          "midi": 35,
          "name": "B1",
          "ticks": 95250,
          "time": 134.0792578125,
          "velocity": 0.8267716535433071
        },
        {
          "duration": 0.0014076562499951706,
          "durationTicks": 1,
          "midi": 45,
          "name": "A2",
          "ticks": 95250,
          "time": 134.0792578125,
          "velocity": 0.3464566929133858
        },
        {
          "duration": 0.01689187499999889,
          "durationTicks": 12,
          "midi": 42,
          "name": "F#2",
          "ticks": 95370,
          "time": 134.2481765625,
          "velocity": 0.4251968503937008
        },
        {
          "duration": 0.01689187499999889,
          "durationTicks": 12,
          "midi": 70,
          "name": "A#4",
          "ticks": 95370,
          "time": 134.2481765625,
          "velocity": 0.6929133858267716
        },
        {
          "duration": 0.005630625000009104,
          "durationTicks": 4,
          "midi": 69,
          "name": "A4",
          "ticks": 95506,
          "time": 134.4396178125,
          "velocity": 0.3464566929133858
        },
        {
          "duration": 0.005630625000009104,
          "durationTicks": 4,
          "midi": 35,
          "name": "B1",
          "ticks": 95506,
          "time": 134.4396178125,
          "velocity": 0.7007874015748031
        },
        {
          "duration": 0.0014076562499951706,
          "durationTicks": 1,
          "midi": 42,
          "name": "F#2",
          "ticks": 95636,
          "time": 134.62261312500002,
          "velocity": 0.4251968503937008
        },
        {
          "duration": 0.0014076562499951706,
          "durationTicks": 1,
          "midi": 70,
          "name": "A#4",
          "ticks": 95636,
          "time": 134.62261312500002,
          "velocity": 0.7244094488188977
        },
        {
          "duration": 0.0014076562499951706,
          "durationTicks": 1,
          "midi": 48,
          "name": "C3",
          "ticks": 95636,
          "time": 134.62261312500002,
          "velocity": 0.8503937007874016
        },
        {
          "duration": 0.019707187500017653,
          "durationTicks": 14,
          "midi": 69,
          "name": "A4",
          "ticks": 95752,
          "time": 134.78590125,
          "velocity": 0.3464566929133858
        },
        {
          "duration": 0.0014076562499951706,
          "durationTicks": 1,
          "midi": 42,
          "name": "F#2",
          "ticks": 95890,
          "time": 134.9801578125,
          "velocity": 0.4251968503937008
        },
        {
          "duration": 0.0014076562499951706,
          "durationTicks": 1,
          "midi": 70,
          "name": "A#4",
          "ticks": 95890,
          "time": 134.9801578125,
          "velocity": 0.7874015748031497
        },
        {
          "duration": 0.0014076562499951706,
          "durationTicks": 1,
          "midi": 45,
          "name": "A2",
          "ticks": 95890,
          "time": 134.9801578125,
          "velocity": 0.3779527559055118
        },
        {
          "duration": 0.022522500000007994,
          "durationTicks": 16,
          "midi": 69,
          "name": "A4",
          "ticks": 96008,
          "time": 135.14626125,
          "velocity": 0.3464566929133858
        },
        {
          "duration": 0.022522500000007994,
          "durationTicks": 16,
          "midi": 35,
          "name": "B1",
          "ticks": 96008,
          "time": 135.14626125,
          "velocity": 0.8267716535433071
        },
        {
          "duration": 0.022522500000007994,
          "durationTicks": 16,
          "midi": 45,
          "name": "A2",
          "ticks": 96008,
          "time": 135.14626125,
          "velocity": 0.3464566929133858
        },
        {
          "duration": 0.022522500000036416,
          "durationTicks": 16,
          "midi": 42,
          "name": "F#2",
          "ticks": 96136,
          "time": 135.32644125,
          "velocity": 0.4251968503937008
        },
        {
          "duration": 0.022522500000036416,
          "durationTicks": 16,
          "midi": 70,
          "name": "A#4",
          "ticks": 96136,
          "time": 135.32644125,
          "velocity": 0.6929133858267716
        },
        {
          "duration": 0.022522499999979573,
          "durationTicks": 16,
          "midi": 69,
          "name": "A4",
          "ticks": 96266,
          "time": 135.5094365625,
          "velocity": 0.3464566929133858
        },
        {
          "duration": 0.022522499999979573,
          "durationTicks": 16,
          "midi": 35,
          "name": "B1",
          "ticks": 96266,
          "time": 135.5094365625,
          "velocity": 0.7322834645669292
        },
        {
          "duration": 0.022522500000007994,
          "durationTicks": 16,
          "midi": 42,
          "name": "F#2",
          "ticks": 96392,
          "time": 135.68680125,
          "velocity": 0.4251968503937008
        },
        {
          "duration": 0.022522500000007994,
          "durationTicks": 16,
          "midi": 70,
          "name": "A#4",
          "ticks": 96392,
          "time": 135.68680125,
          "velocity": 0.7244094488188977
        },
        {
          "duration": 0.022522500000007994,
          "durationTicks": 16,
          "midi": 48,
          "name": "C3",
          "ticks": 96392,
          "time": 135.68680125,
          "velocity": 0.8188976377952756
        },
        {
          "duration": 0.01970718749998923,
          "durationTicks": 14,
          "midi": 69,
          "name": "A4",
          "ticks": 96520,
          "time": 135.86698125,
          "velocity": 0.3464566929133858
        },
        {
          "duration": 0.025337812499998336,
          "durationTicks": 18,
          "midi": 45,
          "name": "A2",
          "ticks": 96648,
          "time": 136.04716125000002,
          "velocity": 0.3779527559055118
        },
        {
          "duration": 0.025337812499998336,
          "durationTicks": 18,
          "midi": 70,
          "name": "A#4",
          "ticks": 96648,
          "time": 136.04716125000002,
          "velocity": 0.7874015748031497
        },
        {
          "duration": 0.025337812499998336,
          "durationTicks": 18,
          "midi": 42,
          "name": "F#2",
          "ticks": 96648,
          "time": 136.04716125000002,
          "velocity": 0.4251968503937008
        },
        {
          "duration": 0.01970718749998923,
          "durationTicks": 14,
          "midi": 69,
          "name": "A4",
          "ticks": 96778,
          "time": 136.2301565625,
          "velocity": 0.3464566929133858
        },
        {
          "duration": 0.01970718749998923,
          "durationTicks": 14,
          "midi": 35,
          "name": "B1",
          "ticks": 96778,
          "time": 136.2301565625,
          "velocity": 0.8267716535433071
        },
        {
          "duration": 0.01970718749998923,
          "durationTicks": 14,
          "midi": 45,
          "name": "A2",
          "ticks": 96778,
          "time": 136.2301565625,
          "velocity": 0.3464566929133858
        },
        {
          "duration": 0.01407656250000855,
          "durationTicks": 10,
          "midi": 42,
          "name": "F#2",
          "ticks": 96910,
          "time": 136.4159671875,
          "velocity": 0.4251968503937008
        },
        {
          "duration": 0.01407656250000855,
          "durationTicks": 10,
          "midi": 70,
          "name": "A#4",
          "ticks": 96910,
          "time": 136.4159671875,
          "velocity": 0.6929133858267716
        },
        {
          "duration": 0.01970718749998923,
          "durationTicks": 14,
          "midi": 35,
          "name": "B1",
          "ticks": 97032,
          "time": 136.58770125,
          "velocity": 0.7007874015748031
        },
        {
          "duration": 0.01970718749998923,
          "durationTicks": 14,
          "midi": 69,
          "name": "A4",
          "ticks": 97032,
          "time": 136.58770125,
          "velocity": 0.3464566929133858
        },
        {
          "duration": 0.011261249999989786,
          "durationTicks": 8,
          "midi": 42,
          "name": "F#2",
          "ticks": 97168,
          "time": 136.7791425,
          "velocity": 0.4251968503937008
        },
        {
          "duration": 0.011261249999989786,
          "durationTicks": 8,
          "midi": 70,
          "name": "A#4",
          "ticks": 97168,
          "time": 136.7791425,
          "velocity": 0.7244094488188977
        },
        {
          "duration": 0.011261249999989786,
          "durationTicks": 8,
          "midi": 48,
          "name": "C3",
          "ticks": 97168,
          "time": 136.7791425,
          "velocity": 0.8503937007874016
        },
        {
          "duration": 0.025337812499998336,
          "durationTicks": 18,
          "midi": 69,
          "name": "A4",
          "ticks": 97288,
          "time": 136.94806125,
          "velocity": 0.3464566929133858
        },
        {
          "duration": 0.01689187499999889,
          "durationTicks": 12,
          "midi": 42,
          "name": "F#2",
          "ticks": 97422,
          "time": 137.1366871875,
          "velocity": 0.4251968503937008
        },
        {
          "duration": 0.01689187499999889,
          "durationTicks": 12,
          "midi": 70,
          "name": "A#4",
          "ticks": 97422,
          "time": 137.1366871875,
          "velocity": 0.7874015748031497
        },
        {
          "duration": 0.01689187499999889,
          "durationTicks": 12,
          "midi": 45,
          "name": "A2",
          "ticks": 97422,
          "time": 137.1366871875,
          "velocity": 0.3779527559055118
        },
        {
          "duration": 0.008445937499999445,
          "durationTicks": 6,
          "midi": 69,
          "name": "A4",
          "ticks": 97554,
          "time": 137.32249781250002,
          "velocity": 0.3464566929133858
        },
        {
          "duration": 0.008445937499999445,
          "durationTicks": 6,
          "midi": 35,
          "name": "B1",
          "ticks": 97554,
          "time": 137.32249781250002,
          "velocity": 0.8267716535433071
        },
        {
          "duration": 0.008445937499999445,
          "durationTicks": 6,
          "midi": 45,
          "name": "A2",
          "ticks": 97554,
          "time": 137.32249781250002,
          "velocity": 0.3464566929133858
        },
        {
          "duration": 0.014076562499980128,
          "durationTicks": 10,
          "midi": 42,
          "name": "F#2",
          "ticks": 97680,
          "time": 137.4998625,
          "velocity": 0.4251968503937008
        },
        {
          "duration": 0.014076562499980128,
          "durationTicks": 10,
          "midi": 70,
          "name": "A#4",
          "ticks": 97680,
          "time": 137.4998625,
          "velocity": 0.6929133858267716
        },
        {
          "duration": 0.011261249999989786,
          "durationTicks": 8,
          "midi": 35,
          "name": "B1",
          "ticks": 97808,
          "time": 137.6800425,
          "velocity": 0.7322834645669292
        },
        {
          "duration": 0.011261249999989786,
          "durationTicks": 8,
          "midi": 69,
          "name": "A4",
          "ticks": 97808,
          "time": 137.6800425,
          "velocity": 0.3464566929133858
        },
        {
          "duration": 0.008445937499999445,
          "durationTicks": 6,
          "midi": 42,
          "name": "F#2",
          "ticks": 97938,
          "time": 137.8630378125,
          "velocity": 0.4251968503937008
        },
        {
          "duration": 0.008445937499999445,
          "durationTicks": 6,
          "midi": 70,
          "name": "A#4",
          "ticks": 97938,
          "time": 137.8630378125,
          "velocity": 0.7244094488188977
        },
        {
          "duration": 0.008445937499999445,
          "durationTicks": 6,
          "midi": 48,
          "name": "C3",
          "ticks": 97938,
          "time": 137.8630378125,
          "velocity": 0.8188976377952756
        },
        {
          "duration": 0.01970718749998923,
          "durationTicks": 14,
          "midi": 69,
          "name": "A4",
          "ticks": 98056,
          "time": 138.02914125,
          "velocity": 0.3464566929133858
        },
        {
          "duration": 0.0014076562499951706,
          "durationTicks": 1,
          "midi": 42,
          "name": "F#2",
          "ticks": 98196,
          "time": 138.22621312500002,
          "velocity": 0.4251968503937008
        },
        {
          "duration": 0.0014076562499951706,
          "durationTicks": 1,
          "midi": 70,
          "name": "A#4",
          "ticks": 98196,
          "time": 138.22621312500002,
          "velocity": 0.7874015748031497
        },
        {
          "duration": 0.0014076562499951706,
          "durationTicks": 1,
          "midi": 45,
          "name": "A2",
          "ticks": 98196,
          "time": 138.22621312500002,
          "velocity": 0.3779527559055118
        },
        {
          "duration": 0.022522500000007994,
          "durationTicks": 16,
          "midi": 69,
          "name": "A4",
          "ticks": 98312,
          "time": 138.38950125,
          "velocity": 0.3464566929133858
        },
        {
          "duration": 0.022522500000007994,
          "durationTicks": 16,
          "midi": 35,
          "name": "B1",
          "ticks": 98312,
          "time": 138.38950125,
          "velocity": 0.8267716535433071
        },
        {
          "duration": 0.022522500000007994,
          "durationTicks": 16,
          "midi": 45,
          "name": "A2",
          "ticks": 98312,
          "time": 138.38950125,
          "velocity": 0.3464566929133858
        },
        {
          "duration": 0.0014076562500235923,
          "durationTicks": 1,
          "midi": 42,
          "name": "F#2",
          "ticks": 98448,
          "time": 138.5809425,
          "velocity": 0.4251968503937008
        },
        {
          "duration": 0.0014076562500235923,
          "durationTicks": 1,
          "midi": 70,
          "name": "A#4",
          "ticks": 98448,
          "time": 138.5809425,
          "velocity": 0.6929133858267716
        },
        {
          "duration": 0.019707187500017653,
          "durationTicks": 14,
          "midi": 69,
          "name": "A4",
          "ticks": 98570,
          "time": 138.7526765625,
          "velocity": 0.3464566929133858
        },
        {
          "duration": 0.019707187500017653,
          "durationTicks": 14,
          "midi": 35,
          "name": "B1",
          "ticks": 98570,
          "time": 138.7526765625,
          "velocity": 0.7007874015748031
        },
        {
          "duration": 0.01689187499999889,
          "durationTicks": 12,
          "midi": 42,
          "name": "F#2",
          "ticks": 98704,
          "time": 138.9413025,
          "velocity": 0.4251968503937008
        },
        {
          "duration": 0.01689187499999889,
          "durationTicks": 12,
          "midi": 70,
          "name": "A#4",
          "ticks": 98704,
          "time": 138.9413025,
          "velocity": 0.7244094488188977
        },
        {
          "duration": 0.01689187499999889,
          "durationTicks": 12,
          "midi": 48,
          "name": "C3",
          "ticks": 98704,
          "time": 138.9413025,
          "velocity": 0.8503937007874016
        },
        {
          "duration": 0.025337812499998336,
          "durationTicks": 18,
          "midi": 69,
          "name": "A4",
          "ticks": 98824,
          "time": 139.11022125000002,
          "velocity": 0.3464566929133858
        },
        {
          "duration": 0.0014076562500235923,
          "durationTicks": 1,
          "midi": 45,
          "name": "A2",
          "ticks": 98960,
          "time": 139.3016625,
          "velocity": 0.3779527559055118
        },
        {
          "duration": 0.0014076562500235923,
          "durationTicks": 1,
          "midi": 70,
          "name": "A#4",
          "ticks": 98960,
          "time": 139.3016625,
          "velocity": 0.7874015748031497
        },
        {
          "duration": 0.0014076562500235923,
          "durationTicks": 1,
          "midi": 42,
          "name": "F#2",
          "ticks": 98960,
          "time": 139.3016625,
          "velocity": 0.4251968503937008
        },
        {
          "duration": 0.025337812500026757,
          "durationTicks": 18,
          "midi": 69,
          "name": "A4",
          "ticks": 99080,
          "time": 139.47058124999998,
          "velocity": 0.3464566929133858
        },
        {
          "duration": 0.025337812500026757,
          "durationTicks": 18,
          "midi": 35,
          "name": "B1",
          "ticks": 99080,
          "time": 139.47058124999998,
          "velocity": 0.8267716535433071
        },
        {
          "duration": 0.025337812500026757,
          "durationTicks": 18,
          "midi": 45,
          "name": "A2",
          "ticks": 99080,
          "time": 139.47058124999998,
          "velocity": 0.3464566929133858
        },
        {
          "duration": 0.01407656250000855,
          "durationTicks": 10,
          "midi": 42,
          "name": "F#2",
          "ticks": 99216,
          "time": 139.6620225,
          "velocity": 0.4251968503937008
        },
        {
          "duration": 0.01407656250000855,
          "durationTicks": 10,
          "midi": 70,
          "name": "A#4",
          "ticks": 99216,
          "time": 139.6620225,
          "velocity": 0.6929133858267716
        },
        {
          "duration": 0.01407656250000855,
          "durationTicks": 10,
          "midi": 35,
          "name": "B1",
          "ticks": 99344,
          "time": 139.84220249999998,
          "velocity": 0.7322834645669292
        },
        {
          "duration": 0.01407656250000855,
          "durationTicks": 10,
          "midi": 69,
          "name": "A4",
          "ticks": 99344,
          "time": 139.84220249999998,
          "velocity": 0.3464566929133858
        },
        {
          "duration": 0.014076562499980128,
          "durationTicks": 10,
          "midi": 42,
          "name": "F#2",
          "ticks": 99472,
          "time": 140.02238250000002,
          "velocity": 0.4251968503937008
        },
        {
          "duration": 0.014076562499980128,
          "durationTicks": 10,
          "midi": 70,
          "name": "A#4",
          "ticks": 99472,
          "time": 140.02238250000002,
          "velocity": 0.7244094488188977
        },
        {
          "duration": 0.014076562499980128,
          "durationTicks": 10,
          "midi": 48,
          "name": "C3",
          "ticks": 99472,
          "time": 140.02238250000002,
          "velocity": 0.8188976377952756
        },
        {
          "duration": 0.014076562499980128,
          "durationTicks": 10,
          "midi": 69,
          "name": "A4",
          "ticks": 99598,
          "time": 140.1997471875,
          "velocity": 0.3464566929133858
        },
        {
          "duration": 0.028153124999988677,
          "durationTicks": 20,
          "midi": 45,
          "name": "A2",
          "ticks": 99720,
          "time": 140.37148125000002,
          "velocity": 0.3779527559055118
        },
        {
          "duration": 0.028153124999988677,
          "durationTicks": 20,
          "midi": 70,
          "name": "A#4",
          "ticks": 99720,
          "time": 140.37148125000002,
          "velocity": 0.7874015748031497
        },
        {
          "duration": 0.028153124999988677,
          "durationTicks": 20,
          "midi": 42,
          "name": "F#2",
          "ticks": 99720,
          "time": 140.37148125000002,
          "velocity": 0.4251968503937008
        },
        {
          "duration": 0.0014076562499951706,
          "durationTicks": 1,
          "midi": 69,
          "name": "A4",
          "ticks": 99862,
          "time": 140.5713684375,
          "velocity": 0.3464566929133858
        },
        {
          "duration": 0.0014076562499951706,
          "durationTicks": 1,
          "midi": 35,
          "name": "B1",
          "ticks": 99862,
          "time": 140.5713684375,
          "velocity": 0.8267716535433071
        },
        {
          "duration": 0.0014076562499951706,
          "durationTicks": 1,
          "midi": 45,
          "name": "A2",
          "ticks": 99862,
          "time": 140.5713684375,
          "velocity": 0.3464566929133858
        },
        {
          "duration": 0.022522500000036416,
          "durationTicks": 16,
          "midi": 42,
          "name": "F#2",
          "ticks": 99978,
          "time": 140.7346565625,
          "velocity": 0.4251968503937008
        },
        {
          "duration": 0.022522500000036416,
          "durationTicks": 16,
          "midi": 70,
          "name": "A#4",
          "ticks": 99978,
          "time": 140.7346565625,
          "velocity": 0.6929133858267716
        },
        {
          "duration": 0.0014076562499951706,
          "durationTicks": 1,
          "midi": 69,
          "name": "A4",
          "ticks": 100116,
          "time": 140.928913125,
          "velocity": 0.3464566929133858
        },
        {
          "duration": 0.0014076562499951706,
          "durationTicks": 1,
          "midi": 35,
          "name": "B1",
          "ticks": 100116,
          "time": 140.928913125,
          "velocity": 0.7007874015748031
        },
        {
          "duration": 0.01689187499999889,
          "durationTicks": 12,
          "midi": 42,
          "name": "F#2",
          "ticks": 100234,
          "time": 141.0950165625,
          "velocity": 0.4251968503937008
        },
        {
          "duration": 0.01689187499999889,
          "durationTicks": 12,
          "midi": 70,
          "name": "A#4",
          "ticks": 100234,
          "time": 141.0950165625,
          "velocity": 0.7244094488188977
        },
        {
          "duration": 0.01689187499999889,
          "durationTicks": 12,
          "midi": 48,
          "name": "C3",
          "ticks": 100234,
          "time": 141.0950165625,
          "velocity": 0.8503937007874016
        },
        {
          "duration": 0.025337812499998336,
          "durationTicks": 18,
          "midi": 69,
          "name": "A4",
          "ticks": 100360,
          "time": 141.27238125000002,
          "velocity": 0.3464566929133858
        },
        {
          "duration": 0.011261250000018208,
          "durationTicks": 8,
          "midi": 45,
          "name": "A2",
          "ticks": 100496,
          "time": 141.4638225,
          "velocity": 0.3779527559055118
        },
        {
          "duration": 0.011261250000018208,
          "durationTicks": 8,
          "midi": 70,
          "name": "A#4",
          "ticks": 100496,
          "time": 141.4638225,
          "velocity": 0.7874015748031497
        },
        {
          "duration": 0.011261250000018208,
          "durationTicks": 8,
          "midi": 42,
          "name": "F#2",
          "ticks": 100496,
          "time": 141.4638225,
          "velocity": 0.4251968503937008
        },
        {
          "duration": 0.0014076562499951706,
          "durationTicks": 1,
          "midi": 69,
          "name": "A4",
          "ticks": 100628,
          "time": 141.649633125,
          "velocity": 0.3464566929133858
        },
        {
          "duration": 0.0014076562499951706,
          "durationTicks": 1,
          "midi": 35,
          "name": "B1",
          "ticks": 100628,
          "time": 141.649633125,
          "velocity": 0.8267716535433071
        },
        {
          "duration": 0.0014076562499951706,
          "durationTicks": 1,
          "midi": 45,
          "name": "A2",
          "ticks": 100628,
          "time": 141.649633125,
          "velocity": 0.3464566929133858
        },
        {
          "duration": 0.011261249999989786,
          "durationTicks": 8,
          "midi": 42,
          "name": "F#2",
          "ticks": 100752,
          "time": 141.8241825,
          "velocity": 0.4251968503937008
        },
        {
          "duration": 0.011261249999989786,
          "durationTicks": 8,
          "midi": 70,
          "name": "A#4",
          "ticks": 100752,
          "time": 141.8241825,
          "velocity": 0.6929133858267716
        },
        {
          "duration": 0.022522500000007994,
          "durationTicks": 16,
          "midi": 35,
          "name": "B1",
          "ticks": 100872,
          "time": 141.99310125,
          "velocity": 0.7322834645669292
        },
        {
          "duration": 0.022522500000007994,
          "durationTicks": 16,
          "midi": 69,
          "name": "A4",
          "ticks": 100872,
          "time": 141.99310125,
          "velocity": 0.3464566929133858
        },
        {
          "duration": 0.011261249999989786,
          "durationTicks": 8,
          "midi": 42,
          "name": "F#2",
          "ticks": 101008,
          "time": 142.18454250000002,
          "velocity": 0.4251968503937008
        },
        {
          "duration": 0.011261249999989786,
          "durationTicks": 8,
          "midi": 70,
          "name": "A#4",
          "ticks": 101008,
          "time": 142.18454250000002,
          "velocity": 0.7244094488188977
        },
        {
          "duration": 0.011261249999989786,
          "durationTicks": 8,
          "midi": 48,
          "name": "C3",
          "ticks": 101008,
          "time": 142.18454250000002,
          "velocity": 0.8188976377952756
        },
        {
          "duration": 0.011261249999989786,
          "durationTicks": 8,
          "midi": 69,
          "name": "A4",
          "ticks": 101136,
          "time": 142.3647225,
          "velocity": 0.3464566929133858
        },
        {
          "duration": 0.0014076562499951706,
          "durationTicks": 1,
          "midi": 42,
          "name": "F#2",
          "ticks": 101268,
          "time": 142.55053312500002,
          "velocity": 0.4251968503937008
        },
        {
          "duration": 0.0014076562499951706,
          "durationTicks": 1,
          "midi": 70,
          "name": "A#4",
          "ticks": 101268,
          "time": 142.55053312500002,
          "velocity": 0.7874015748031497
        },
        {
          "duration": 0.0014076562499951706,
          "durationTicks": 1,
          "midi": 45,
          "name": "A2",
          "ticks": 101268,
          "time": 142.55053312500002,
          "velocity": 0.4094488188976378
        },
        {
          "duration": 0.008445937499999445,
          "durationTicks": 6,
          "midi": 69,
          "name": "A4",
          "ticks": 101394,
          "time": 142.7278978125,
          "velocity": 0.3464566929133858
        },
        {
          "duration": 0.008445937499999445,
          "durationTicks": 6,
          "midi": 35,
          "name": "B1",
          "ticks": 101394,
          "time": 142.7278978125,
          "velocity": 0.8267716535433071
        },
        {
          "duration": 0.008445937499999445,
          "durationTicks": 6,
          "midi": 45,
          "name": "A2",
          "ticks": 101394,
          "time": 142.7278978125,
          "velocity": 0.3464566929133858
        },
        {
          "duration": 0.014076562499980128,
          "durationTicks": 10,
          "midi": 42,
          "name": "F#2",
          "ticks": 101518,
          "time": 142.9024471875,
          "velocity": 0.4251968503937008
        },
        {
          "duration": 0.014076562499980128,
          "durationTicks": 10,
          "midi": 70,
          "name": "A#4",
          "ticks": 101518,
          "time": 142.9024471875,
          "velocity": 0.6929133858267716
        },
        {
          "duration": 0.014076562499980128,
          "durationTicks": 10,
          "midi": 69,
          "name": "A4",
          "ticks": 101650,
          "time": 143.08825781250002,
          "velocity": 0.3464566929133858
        },
        {
          "duration": 0.014076562499980128,
          "durationTicks": 10,
          "midi": 35,
          "name": "B1",
          "ticks": 101650,
          "time": 143.08825781250002,
          "velocity": 0.7007874015748031
        },
        {
          "duration": 0.014076562499980128,
          "durationTicks": 10,
          "midi": 42,
          "name": "F#2",
          "ticks": 101776,
          "time": 143.2656225,
          "velocity": 0.4251968503937008
        },
        {
          "duration": 0.014076562499980128,
          "durationTicks": 10,
          "midi": 70,
          "name": "A#4",
          "ticks": 101776,
          "time": 143.2656225,
          "velocity": 0.7244094488188977
        },
        {
          "duration": 0.014076562499980128,
          "durationTicks": 10,
          "midi": 48,
          "name": "C3",
          "ticks": 101776,
          "time": 143.2656225,
          "velocity": 0.8503937007874016
        },
        {
          "duration": 0.0014076562499951706,
          "durationTicks": 1,
          "midi": 69,
          "name": "A4",
          "ticks": 101906,
          "time": 143.4486178125,
          "velocity": 0.3464566929133858
        },
        {
          "duration": 0.0014076562499951706,
          "durationTicks": 1,
          "midi": 42,
          "name": "F#2",
          "ticks": 102034,
          "time": 143.6287978125,
          "velocity": 0.4251968503937008
        },
        {
          "duration": 0.0014076562499951706,
          "durationTicks": 1,
          "midi": 70,
          "name": "A#4",
          "ticks": 102034,
          "time": 143.6287978125,
          "velocity": 0.7874015748031497
        },
        {
          "duration": 0.0014076562499951706,
          "durationTicks": 1,
          "midi": 45,
          "name": "A2",
          "ticks": 102034,
          "time": 143.6287978125,
          "velocity": 0.4094488188976378
        },
        {
          "duration": 0.0014076562499951706,
          "durationTicks": 1,
          "midi": 69,
          "name": "A4",
          "ticks": 102164,
          "time": 143.811793125,
          "velocity": 0.3464566929133858
        },
        {
          "duration": 0.0014076562499951706,
          "durationTicks": 1,
          "midi": 35,
          "name": "B1",
          "ticks": 102164,
          "time": 143.811793125,
          "velocity": 0.8267716535433071
        },
        {
          "duration": 0.0014076562499951706,
          "durationTicks": 1,
          "midi": 45,
          "name": "A2",
          "ticks": 102164,
          "time": 143.811793125,
          "velocity": 0.3779527559055118
        },
        {
          "duration": 0.01689187499999889,
          "durationTicks": 12,
          "midi": 42,
          "name": "F#2",
          "ticks": 102286,
          "time": 143.98352718750002,
          "velocity": 0.4251968503937008
        },
        {
          "duration": 0.01689187499999889,
          "durationTicks": 12,
          "midi": 70,
          "name": "A#4",
          "ticks": 102286,
          "time": 143.98352718750002,
          "velocity": 0.6929133858267716
        },
        {
          "duration": 0.01407656250000855,
          "durationTicks": 10,
          "midi": 35,
          "name": "B1",
          "ticks": 102416,
          "time": 144.16652249999999,
          "velocity": 0.7322834645669292
        },
        {
          "duration": 0.01407656250000855,
          "durationTicks": 10,
          "midi": 69,
          "name": "A4",
          "ticks": 102416,
          "time": 144.16652249999999,
          "velocity": 0.3464566929133858
        },
        {
          "duration": 0.014076562499980128,
          "durationTicks": 10,
          "midi": 42,
          "name": "F#2",
          "ticks": 102544,
          "time": 144.34670250000002,
          "velocity": 0.4251968503937008
        },
        {
          "duration": 0.014076562499980128,
          "durationTicks": 10,
          "midi": 70,
          "name": "A#4",
          "ticks": 102544,
          "time": 144.34670250000002,
          "velocity": 0.7244094488188977
        },
        {
          "duration": 0.014076562499980128,
          "durationTicks": 10,
          "midi": 48,
          "name": "C3",
          "ticks": 102544,
          "time": 144.34670250000002,
          "velocity": 0.8188976377952756
        },
        {
          "duration": 0.01689187499999889,
          "durationTicks": 12,
          "midi": 69,
          "name": "A4",
          "ticks": 102670,
          "time": 144.5240671875,
          "velocity": 0.3464566929133858
        },
        {
          "duration": 0.022522500000007994,
          "durationTicks": 16,
          "midi": 42,
          "name": "F#2",
          "ticks": 102794,
          "time": 144.6986165625,
          "velocity": 0.4251968503937008
        },
        {
          "duration": 0.022522500000007994,
          "durationTicks": 16,
          "midi": 70,
          "name": "A#4",
          "ticks": 102794,
          "time": 144.6986165625,
          "velocity": 0.7874015748031497
        },
        {
          "duration": 0.022522500000007994,
          "durationTicks": 16,
          "midi": 45,
          "name": "A2",
          "ticks": 102794,
          "time": 144.6986165625,
          "velocity": 0.4094488188976378
        },
        {
          "duration": 0.022522499999979573,
          "durationTicks": 16,
          "midi": 69,
          "name": "A4",
          "ticks": 102922,
          "time": 144.8787965625,
          "velocity": 0.3464566929133858
        },
        {
          "duration": 0.022522499999979573,
          "durationTicks": 16,
          "midi": 35,
          "name": "B1",
          "ticks": 102922,
          "time": 144.8787965625,
          "velocity": 0.8267716535433071
        },
        {
          "duration": 0.022522499999979573,
          "durationTicks": 16,
          "midi": 45,
          "name": "A2",
          "ticks": 102922,
          "time": 144.8787965625,
          "velocity": 0.3779527559055118
        },
        {
          "duration": 0.022522500000036416,
          "durationTicks": 16,
          "midi": 42,
          "name": "F#2",
          "ticks": 103050,
          "time": 145.0589765625,
          "velocity": 0.4251968503937008
        },
        {
          "duration": 0.022522500000036416,
          "durationTicks": 16,
          "midi": 70,
          "name": "A#4",
          "ticks": 103050,
          "time": 145.0589765625,
          "velocity": 0.6929133858267716
        },
        {
          "duration": 0.008445937499999445,
          "durationTicks": 6,
          "midi": 69,
          "name": "A4",
          "ticks": 103186,
          "time": 145.25041781250002,
          "velocity": 0.3464566929133858
        },
        {
          "duration": 0.008445937499999445,
          "durationTicks": 6,
          "midi": 35,
          "name": "B1",
          "ticks": 103186,
          "time": 145.25041781250002,
          "velocity": 0.7007874015748031
        },
        {
          "duration": 0.022522499999979573,
          "durationTicks": 16,
          "midi": 42,
          "name": "F#2",
          "ticks": 103306,
          "time": 145.4193365625,
          "velocity": 0.4251968503937008
        },
        {
          "duration": 0.022522499999979573,
          "durationTicks": 16,
          "midi": 70,
          "name": "A#4",
          "ticks": 103306,
          "time": 145.4193365625,
          "velocity": 0.7244094488188977
        },
        {
          "duration": 0.022522499999979573,
          "durationTicks": 16,
          "midi": 48,
          "name": "C3",
          "ticks": 103306,
          "time": 145.4193365625,
          "velocity": 0.8503937007874016
        },
        {
          "duration": 0.011261249999989786,
          "durationTicks": 8,
          "midi": 69,
          "name": "A4",
          "ticks": 103438,
          "time": 145.60514718750002,
          "velocity": 0.3464566929133858
        },
        {
          "duration": 0.008445937499999445,
          "durationTicks": 6,
          "midi": 42,
          "name": "F#2",
          "ticks": 103570,
          "time": 145.7909578125,
          "velocity": 0.4251968503937008
        },
        {
          "duration": 0.008445937499999445,
          "durationTicks": 6,
          "midi": 70,
          "name": "A#4",
          "ticks": 103570,
          "time": 145.7909578125,
          "velocity": 0.7874015748031497
        },
        {
          "duration": 0.008445937499999445,
          "durationTicks": 6,
          "midi": 45,
          "name": "A2",
          "ticks": 103570,
          "time": 145.7909578125,
          "velocity": 0.4094488188976378
        },
        {
          "duration": 0.01970718749998923,
          "durationTicks": 14,
          "midi": 69,
          "name": "A4",
          "ticks": 103690,
          "time": 145.95987656250003,
          "velocity": 0.3464566929133858
        },
        {
          "duration": 0.01970718749998923,
          "durationTicks": 14,
          "midi": 35,
          "name": "B1",
          "ticks": 103690,
          "time": 145.95987656250003,
          "velocity": 0.8267716535433071
        },
        {
          "duration": 0.01970718749998923,
          "durationTicks": 14,
          "midi": 45,
          "name": "A2",
          "ticks": 103690,
          "time": 145.95987656250003,
          "velocity": 0.3779527559055118
        },
        {
          "duration": 0.025337812499998336,
          "durationTicks": 18,
          "midi": 42,
          "name": "F#2",
          "ticks": 103816,
          "time": 146.13724125000002,
          "velocity": 0.4251968503937008
        },
        {
          "duration": 0.025337812499998336,
          "durationTicks": 18,
          "midi": 70,
          "name": "A#4",
          "ticks": 103816,
          "time": 146.13724125000002,
          "velocity": 0.6929133858267716
        },
        {
          "duration": 0.005630625000009104,
          "durationTicks": 4,
          "midi": 69,
          "name": "A4",
          "ticks": 103956,
          "time": 146.334313125,
          "velocity": 0.3464566929133858
        },
        {
          "duration": 0.005630625000009104,
          "durationTicks": 4,
          "midi": 35,
          "name": "B1",
          "ticks": 103956,
          "time": 146.334313125,
          "velocity": 0.7322834645669292
        },
        {
          "duration": 0.0014076562499951706,
          "durationTicks": 1,
          "midi": 42,
          "name": "F#2",
          "ticks": 104084,
          "time": 146.514493125,
          "velocity": 0.4251968503937008
        },
        {
          "duration": 0.0014076562499951706,
          "durationTicks": 1,
          "midi": 70,
          "name": "A#4",
          "ticks": 104084,
          "time": 146.514493125,
          "velocity": 0.7244094488188977
        },
        {
          "duration": 0.0014076562499951706,
          "durationTicks": 1,
          "midi": 48,
          "name": "C3",
          "ticks": 104084,
          "time": 146.514493125,
          "velocity": 0.8188976377952756
        },
        {
          "duration": 0.014076562499980128,
          "durationTicks": 10,
          "midi": 69,
          "name": "A4",
          "ticks": 104206,
          "time": 146.6862271875,
          "velocity": 0.3464566929133858
        },
        {
          "duration": 0.0014076562499951706,
          "durationTicks": 1,
          "midi": 42,
          "name": "F#2",
          "ticks": 104340,
          "time": 146.87485312500002,
          "velocity": 0.4251968503937008
        },
        {
          "duration": 0.0014076562499951706,
          "durationTicks": 1,
          "midi": 70,
          "name": "A#4",
          "ticks": 104340,
          "time": 146.87485312500002,
          "velocity": 0.7874015748031497
        },
        {
          "duration": 0.0014076562499951706,
          "durationTicks": 1,
          "midi": 45,
          "name": "A2",
          "ticks": 104340,
          "time": 146.87485312500002,
          "velocity": 0.4094488188976378
        },
        {
          "duration": 0.0014076562499951706,
          "durationTicks": 1,
          "midi": 69,
          "name": "A4",
          "ticks": 104470,
          "time": 147.0578484375,
          "velocity": 0.3464566929133858
        },
        {
          "duration": 0.0014076562499951706,
          "durationTicks": 1,
          "midi": 35,
          "name": "B1",
          "ticks": 104470,
          "time": 147.0578484375,
          "velocity": 0.8267716535433071
        },
        {
          "duration": 0.0014076562499951706,
          "durationTicks": 1,
          "midi": 45,
          "name": "A2",
          "ticks": 104470,
          "time": 147.0578484375,
          "velocity": 0.3779527559055118
        },
        {
          "duration": 0.01970718749998923,
          "durationTicks": 14,
          "midi": 42,
          "name": "F#2",
          "ticks": 104584,
          "time": 147.21832125,
          "velocity": 0.4251968503937008
        },
        {
          "duration": 0.01970718749998923,
          "durationTicks": 14,
          "midi": 70,
          "name": "A#4",
          "ticks": 104584,
          "time": 147.21832125,
          "velocity": 0.6929133858267716
        },
        {
          "duration": 0.0014076562499951706,
          "durationTicks": 1,
          "midi": 69,
          "name": "A4",
          "ticks": 104724,
          "time": 147.415393125,
          "velocity": 0.3464566929133858
        },
        {
          "duration": 0.0014076562499951706,
          "durationTicks": 1,
          "midi": 35,
          "name": "B1",
          "ticks": 104724,
          "time": 147.415393125,
          "velocity": 0.7007874015748031
        },
        {
          "duration": 0.011261249999989786,
          "durationTicks": 8,
          "midi": 42,
          "name": "F#2",
          "ticks": 104848,
          "time": 147.5899425,
          "velocity": 0.4251968503937008
        },
        {
          "duration": 0.011261249999989786,
          "durationTicks": 8,
          "midi": 70,
          "name": "A#4",
          "ticks": 104848,
          "time": 147.5899425,
          "velocity": 0.7244094488188977
        },
        {
          "duration": 0.011261249999989786,
          "durationTicks": 8,
          "midi": 48,
          "name": "C3",
          "ticks": 104848,
          "time": 147.5899425,
          "velocity": 0.8503937007874016
        },
        {
          "duration": 0.011261249999989786,
          "durationTicks": 8,
          "midi": 69,
          "name": "A4",
          "ticks": 104976,
          "time": 147.7701225,
          "velocity": 0.3464566929133858
        },
        {
          "duration": 0.0014076562499951706,
          "durationTicks": 1,
          "midi": 42,
          "name": "F#2",
          "ticks": 105106,
          "time": 147.9531178125,
          "velocity": 0.4251968503937008
        },
        {
          "duration": 0.0014076562499951706,
          "durationTicks": 1,
          "midi": 70,
          "name": "A#4",
          "ticks": 105106,
          "time": 147.9531178125,
          "velocity": 0.7874015748031497
        },
        {
          "duration": 0.0014076562499951706,
          "durationTicks": 1,
          "midi": 45,
          "name": "A2",
          "ticks": 105106,
          "time": 147.9531178125,
          "velocity": 0.4094488188976378
        },
        {
          "duration": 0.011261249999989786,
          "durationTicks": 8,
          "midi": 69,
          "name": "A4",
          "ticks": 105234,
          "time": 148.13329781250002,
          "velocity": 0.3464566929133858
        },
        {
          "duration": 0.011261249999989786,
          "durationTicks": 8,
          "midi": 35,
          "name": "B1",
          "ticks": 105234,
          "time": 148.13329781250002,
          "velocity": 0.8267716535433071
        },
        {
          "duration": 0.011261249999989786,
          "durationTicks": 8,
          "midi": 45,
          "name": "A2",
          "ticks": 105234,
          "time": 148.13329781250002,
          "velocity": 0.3779527559055118
        },
        {
          "duration": 0.028153124999988677,
          "durationTicks": 20,
          "midi": 42,
          "name": "F#2",
          "ticks": 105352,
          "time": 148.29940125000002,
          "velocity": 0.4251968503937008
        },
        {
          "duration": 0.028153124999988677,
          "durationTicks": 20,
          "midi": 70,
          "name": "A#4",
          "ticks": 105352,
          "time": 148.29940125000002,
          "velocity": 0.6929133858267716
        },
        {
          "duration": 0.022522500000007994,
          "durationTicks": 16,
          "midi": 69,
          "name": "A4",
          "ticks": 105482,
          "time": 148.48239656249999,
          "velocity": 0.3464566929133858
        },
        {
          "duration": 0.022522500000007994,
          "durationTicks": 16,
          "midi": 35,
          "name": "B1",
          "ticks": 105482,
          "time": 148.48239656249999,
          "velocity": 0.7322834645669292
        },
        {
          "duration": 0.011261249999989786,
          "durationTicks": 8,
          "midi": 42,
          "name": "F#2",
          "ticks": 105618,
          "time": 148.6738378125,
          "velocity": 0.4251968503937008
        },
        {
          "duration": 0.011261249999989786,
          "durationTicks": 8,
          "midi": 70,
          "name": "A#4",
          "ticks": 105618,
          "time": 148.6738378125,
          "velocity": 0.7244094488188977
        },
        {
          "duration": 0.011261249999989786,
          "durationTicks": 8,
          "midi": 48,
          "name": "C3",
          "ticks": 105618,
          "time": 148.6738378125,
          "velocity": 0.8188976377952756
        },
        {
          "duration": 0.01689187499999889,
          "durationTicks": 12,
          "midi": 69,
          "name": "A4",
          "ticks": 105742,
          "time": 148.8483871875,
          "velocity": 0.3464566929133858
        },
        {
          "duration": 0.0014076562499951706,
          "durationTicks": 1,
          "midi": 42,
          "name": "F#2",
          "ticks": 105876,
          "time": 149.03701312500002,
          "velocity": 0.4251968503937008
        },
        {
          "duration": 0.0014076562499951706,
          "durationTicks": 1,
          "midi": 70,
          "name": "A#4",
          "ticks": 105876,
          "time": 149.03701312500002,
          "velocity": 0.7874015748031497
        },
        {
          "duration": 0.0014076562499951706,
          "durationTicks": 1,
          "midi": 45,
          "name": "A2",
          "ticks": 105876,
          "time": 149.03701312500002,
          "velocity": 0.4094488188976378
        },
        {
          "duration": 0.0014076562499951706,
          "durationTicks": 1,
          "midi": 69,
          "name": "A4",
          "ticks": 106006,
          "time": 149.2200084375,
          "velocity": 0.3464566929133858
        },
        {
          "duration": 0.0014076562499951706,
          "durationTicks": 1,
          "midi": 35,
          "name": "B1",
          "ticks": 106006,
          "time": 149.2200084375,
          "velocity": 0.8267716535433071
        },
        {
          "duration": 0.0014076562499951706,
          "durationTicks": 1,
          "midi": 45,
          "name": "A2",
          "ticks": 106006,
          "time": 149.2200084375,
          "velocity": 0.3779527559055118
        },
        {
          "duration": 0.011261249999989786,
          "durationTicks": 8,
          "midi": 42,
          "name": "F#2",
          "ticks": 106128,
          "time": 149.3917425,
          "velocity": 0.4251968503937008
        },
        {
          "duration": 0.011261249999989786,
          "durationTicks": 8,
          "midi": 70,
          "name": "A#4",
          "ticks": 106128,
          "time": 149.3917425,
          "velocity": 0.6929133858267716
        },
        {
          "duration": 0.0014076562499951706,
          "durationTicks": 1,
          "midi": 35,
          "name": "B1",
          "ticks": 106256,
          "time": 149.5719225,
          "velocity": 0.7007874015748031
        },
        {
          "duration": 0.0014076562499951706,
          "durationTicks": 1,
          "midi": 69,
          "name": "A4",
          "ticks": 106256,
          "time": 149.5719225,
          "velocity": 0.3464566929133858
        },
        {
          "duration": 0.0014076562500235923,
          "durationTicks": 1,
          "midi": 42,
          "name": "F#2",
          "ticks": 106386,
          "time": 149.7549178125,
          "velocity": 0.4251968503937008
        },
        {
          "duration": 0.0014076562500235923,
          "durationTicks": 1,
          "midi": 70,
          "name": "A#4",
          "ticks": 106386,
          "time": 149.7549178125,
          "velocity": 0.7244094488188977
        },
        {
          "duration": 0.0014076562500235923,
          "durationTicks": 1,
          "midi": 48,
          "name": "C3",
          "ticks": 106386,
          "time": 149.7549178125,
          "velocity": 0.8503937007874016
        },
        {
          "duration": 0.025337812499998336,
          "durationTicks": 18,
          "midi": 69,
          "name": "A4",
          "ticks": 106504,
          "time": 149.92102125000002,
          "velocity": 0.3464566929133858
        },
        {
          "duration": 0.0014076562500235923,
          "durationTicks": 1,
          "midi": 42,
          "name": "F#2",
          "ticks": 106644,
          "time": 150.118093125,
          "velocity": 0.4251968503937008
        },
        {
          "duration": 0.0014076562500235923,
          "durationTicks": 1,
          "midi": 70,
          "name": "A#4",
          "ticks": 106644,
          "time": 150.118093125,
          "velocity": 0.7874015748031497
        },
        {
          "duration": 0.0014076562500235923,
          "durationTicks": 1,
          "midi": 45,
          "name": "A2",
          "ticks": 106644,
          "time": 150.118093125,
          "velocity": 0.4094488188976378
        },
        {
          "duration": 0.011261249999989786,
          "durationTicks": 8,
          "midi": 69,
          "name": "A4",
          "ticks": 106770,
          "time": 150.29545781250002,
          "velocity": 0.3464566929133858
        },
        {
          "duration": 0.011261249999989786,
          "durationTicks": 8,
          "midi": 35,
          "name": "B1",
          "ticks": 106770,
          "time": 150.29545781250002,
          "velocity": 0.8267716535433071
        },
        {
          "duration": 0.011261249999989786,
          "durationTicks": 8,
          "midi": 45,
          "name": "A2",
          "ticks": 106770,
          "time": 150.29545781250002,
          "velocity": 0.3779527559055118
        },
        {
          "duration": 0.01407656250000855,
          "durationTicks": 10,
          "midi": 42,
          "name": "F#2",
          "ticks": 106896,
          "time": 150.4728225,
          "velocity": 0.4251968503937008
        },
        {
          "duration": 0.01407656250000855,
          "durationTicks": 10,
          "midi": 70,
          "name": "A#4",
          "ticks": 106896,
          "time": 150.4728225,
          "velocity": 0.6929133858267716
        },
        {
          "duration": 0.011261250000018208,
          "durationTicks": 8,
          "midi": 35,
          "name": "B1",
          "ticks": 107024,
          "time": 150.65300249999999,
          "velocity": 0.7322834645669292
        },
        {
          "duration": 0.011261250000018208,
          "durationTicks": 8,
          "midi": 69,
          "name": "A4",
          "ticks": 107024,
          "time": 150.65300249999999,
          "velocity": 0.3464566929133858
        },
        {
          "duration": 0.011261249999989786,
          "durationTicks": 8,
          "midi": 42,
          "name": "F#2",
          "ticks": 107154,
          "time": 150.8359978125,
          "velocity": 0.4251968503937008
        },
        {
          "duration": 0.011261249999989786,
          "durationTicks": 8,
          "midi": 70,
          "name": "A#4",
          "ticks": 107154,
          "time": 150.8359978125,
          "velocity": 0.7244094488188977
        },
        {
          "duration": 0.011261249999989786,
          "durationTicks": 8,
          "midi": 48,
          "name": "C3",
          "ticks": 107154,
          "time": 150.8359978125,
          "velocity": 0.8188976377952756
        },
        {
          "duration": 0.011261249999989786,
          "durationTicks": 8,
          "midi": 69,
          "name": "A4",
          "ticks": 107280,
          "time": 151.0133625,
          "velocity": 0.3464566929133858
        },
        {
          "duration": 0.0281531250000171,
          "durationTicks": 20,
          "midi": 42,
          "name": "F#2",
          "ticks": 107402,
          "time": 151.1850965625,
          "velocity": 0.4251968503937008
        },
        {
          "duration": 0.0281531250000171,
          "durationTicks": 20,
          "midi": 70,
          "name": "A#4",
          "ticks": 107402,
          "time": 151.1850965625,
          "velocity": 0.7874015748031497
        },
        {
          "duration": 0.0281531250000171,
          "durationTicks": 20,
          "midi": 45,
          "name": "A2",
          "ticks": 107402,
          "time": 151.1850965625,
          "velocity": 0.4094488188976378
        },
        {
          "duration": 0.0014076562499951706,
          "durationTicks": 1,
          "midi": 69,
          "name": "A4",
          "ticks": 107542,
          "time": 151.3821684375,
          "velocity": 0.3464566929133858
        },
        {
          "duration": 0.0014076562499951706,
          "durationTicks": 1,
          "midi": 35,
          "name": "B1",
          "ticks": 107542,
          "time": 151.3821684375,
          "velocity": 0.8267716535433071
        },
        {
          "duration": 0.0014076562499951706,
          "durationTicks": 1,
          "midi": 45,
          "name": "A2",
          "ticks": 107542,
          "time": 151.3821684375,
          "velocity": 0.3779527559055118
        },
        {
          "duration": 0.016891875000027312,
          "durationTicks": 12,
          "midi": 42,
          "name": "F#2",
          "ticks": 107662,
          "time": 151.5510871875,
          "velocity": 0.4251968503937008
        },
        {
          "duration": 0.016891875000027312,
          "durationTicks": 12,
          "midi": 70,
          "name": "A#4",
          "ticks": 107662,
          "time": 151.5510871875,
          "velocity": 0.6929133858267716
        },
        {
          "duration": 0.016891875000027312,
          "durationTicks": 12,
          "midi": 48,
          "name": "C3",
          "ticks": 107662,
          "time": 151.5510871875,
          "velocity": 0.6929133858267716
        },
        {
          "duration": 0.011261249999989786,
          "durationTicks": 8,
          "midi": 69,
          "name": "A4",
          "ticks": 107794,
          "time": 151.73689781250002,
          "velocity": 0.3464566929133858
        },
        {
          "duration": 0.011261249999989786,
          "durationTicks": 8,
          "midi": 35,
          "name": "B1",
          "ticks": 107794,
          "time": 151.73689781250002,
          "velocity": 0.7007874015748031
        },
        {
          "duration": 0.0014076562499951706,
          "durationTicks": 1,
          "midi": 42,
          "name": "F#2",
          "ticks": 107920,
          "time": 151.9142625,
          "velocity": 0.4251968503937008
        },
        {
          "duration": 0.0014076562499951706,
          "durationTicks": 1,
          "midi": 70,
          "name": "A#4",
          "ticks": 107920,
          "time": 151.9142625,
          "velocity": 0.7244094488188977
        },
        {
          "duration": 0.0014076562499951706,
          "durationTicks": 1,
          "midi": 48,
          "name": "C3",
          "ticks": 107920,
          "time": 151.9142625,
          "velocity": 0.8503937007874016
        },
        {
          "duration": 0.0014076562499951706,
          "durationTicks": 1,
          "midi": 69,
          "name": "A4",
          "ticks": 108050,
          "time": 152.0972578125,
          "velocity": 0.3464566929133858
        },
        {
          "duration": 0.014076562499980128,
          "durationTicks": 10,
          "midi": 42,
          "name": "F#2",
          "ticks": 108178,
          "time": 152.2774378125,
          "velocity": 0.4251968503937008
        },
        {
          "duration": 0.014076562499980128,
          "durationTicks": 10,
          "midi": 70,
          "name": "A#4",
          "ticks": 108178,
          "time": 152.2774378125,
          "velocity": 0.7874015748031497
        },
        {
          "duration": 0.014076562499980128,
          "durationTicks": 10,
          "midi": 48,
          "name": "C3",
          "ticks": 108178,
          "time": 152.2774378125,
          "velocity": 0.6614173228346457
        },
        {
          "duration": 0.014076562499980128,
          "durationTicks": 10,
          "midi": 45,
          "name": "A2",
          "ticks": 108178,
          "time": 152.2774378125,
          "velocity": 0.4094488188976378
        },
        {
          "duration": 0.0014076562499951706,
          "durationTicks": 1,
          "midi": 69,
          "name": "A4",
          "ticks": 108308,
          "time": 152.460433125,
          "velocity": 0.3464566929133858
        },
        {
          "duration": 0.0014076562499951706,
          "durationTicks": 1,
          "midi": 35,
          "name": "B1",
          "ticks": 108308,
          "time": 152.460433125,
          "velocity": 0.8267716535433071
        },
        {
          "duration": 0.0014076562499951706,
          "durationTicks": 1,
          "midi": 45,
          "name": "A2",
          "ticks": 108308,
          "time": 152.460433125,
          "velocity": 0.3779527559055118
        },
        {
          "duration": 0.01970718749998923,
          "durationTicks": 14,
          "midi": 42,
          "name": "F#2",
          "ticks": 108432,
          "time": 152.6349825,
          "velocity": 0.4251968503937008
        },
        {
          "duration": 0.01970718749998923,
          "durationTicks": 14,
          "midi": 70,
          "name": "A#4",
          "ticks": 108432,
          "time": 152.6349825,
          "velocity": 0.6929133858267716
        },
        {
          "duration": 0.01970718749998923,
          "durationTicks": 14,
          "midi": 48,
          "name": "C3",
          "ticks": 108432,
          "time": 152.6349825,
          "velocity": 0.8188976377952756
        },
        {
          "duration": 0.0014076562500235923,
          "durationTicks": 1,
          "midi": 69,
          "name": "A4",
          "ticks": 108564,
          "time": 152.820793125,
          "velocity": 0.3464566929133858
        },
        {
          "duration": 0.0014076562500235923,
          "durationTicks": 1,
          "midi": 35,
          "name": "B1",
          "ticks": 108564,
          "time": 152.820793125,
          "velocity": 0.7322834645669292
        },
        {
          "duration": 0.008445937499999445,
          "durationTicks": 6,
          "midi": 42,
          "name": "F#2",
          "ticks": 108690,
          "time": 152.9981578125,
          "velocity": 0.4251968503937008
        },
        {
          "duration": 0.008445937499999445,
          "durationTicks": 6,
          "midi": 70,
          "name": "A#4",
          "ticks": 108690,
          "time": 152.9981578125,
          "velocity": 0.7244094488188977
        },
        {
          "duration": 0.008445937499999445,
          "durationTicks": 6,
          "midi": 48,
          "name": "C3",
          "ticks": 108690,
          "time": 152.9981578125,
          "velocity": 0.8503937007874016
        },
        {
          "duration": 0.0014076562499951706,
          "durationTicks": 1,
          "midi": 69,
          "name": "A4",
          "ticks": 108820,
          "time": 153.181153125,
          "velocity": 0.3464566929133858
        },
        {
          "duration": 0.0014076562499951706,
          "durationTicks": 1,
          "midi": 48,
          "name": "C3",
          "ticks": 108820,
          "time": 153.181153125,
          "velocity": 0.6614173228346457
        },
        {
          "duration": 0.0014076562499667489,
          "durationTicks": 1,
          "midi": 42,
          "name": "F#2",
          "ticks": 108946,
          "time": 153.35851781250003,
          "velocity": 0.4251968503937008
        },
        {
          "duration": 0.0014076562499667489,
          "durationTicks": 1,
          "midi": 56,
          "name": "G#3",
          "ticks": 108946,
          "time": 153.35851781250003,
          "velocity": 0.8503937007874016
        },
        {
          "duration": 0.0014076562499667489,
          "durationTicks": 1,
          "midi": 48,
          "name": "C3",
          "ticks": 108946,
          "time": 153.35851781250003,
          "velocity": 0.7874015748031497
        },
        {
          "duration": 0.0014076562499667489,
          "durationTicks": 1,
          "midi": 45,
          "name": "A2",
          "ticks": 108946,
          "time": 153.35851781250003,
          "velocity": 0.4094488188976378
        },
        {
          "duration": 0.0014076562499951706,
          "durationTicks": 1,
          "midi": 69,
          "name": "A4",
          "ticks": 109078,
          "time": 153.5443284375,
          "velocity": 0.4094488188976378
        },
        {
          "duration": 0.0014076562499951706,
          "durationTicks": 1,
          "midi": 0,
          "name": "C-1",
          "ticks": 109078,
          "time": 153.5443284375,
          "velocity": 0.6299212598425197
        },
        {
          "duration": 0.0014076562499951706,
          "durationTicks": 1,
          "midi": 35,
          "name": "B1",
          "ticks": 109078,
          "time": 153.5443284375,
          "velocity": 0.889763779527559
        },
        {
          "duration": 0.019707187500046075,
          "durationTicks": 14,
          "midi": 42,
          "name": "F#2",
          "ticks": 109196,
          "time": 153.71043187499998,
          "velocity": 0.4881889763779528
        },
        {
          "duration": 0.019707187500046075,
          "durationTicks": 14,
          "midi": 70,
          "name": "A#4",
          "ticks": 109196,
          "time": 153.71043187499998,
          "velocity": 0.7874015748031497
        },
        {
          "duration": 0.022522500000007994,
          "durationTicks": 16,
          "midi": 69,
          "name": "A4",
          "ticks": 109322,
          "time": 153.8877965625,
          "velocity": 0.4094488188976378
        },
        {
          "duration": 0.022522500000007994,
          "durationTicks": 16,
          "midi": 35,
          "name": "B1",
          "ticks": 109322,
          "time": 153.8877965625,
          "velocity": 0.7637795275590551
        },
        {
          "duration": 0.014076562499980128,
          "durationTicks": 10,
          "midi": 42,
          "name": "F#2",
          "ticks": 109456,
          "time": 154.0764225,
          "velocity": 0.4881889763779528
        },
        {
          "duration": 0.014076562499980128,
          "durationTicks": 10,
          "midi": 70,
          "name": "A#4",
          "ticks": 109456,
          "time": 154.0764225,
          "velocity": 0.8188976377952756
        },
        {
          "duration": 0.014076562499980128,
          "durationTicks": 10,
          "midi": 48,
          "name": "C3",
          "ticks": 109456,
          "time": 154.0764225,
          "velocity": 0.9448818897637795
        },
        {
          "duration": 0.01970718749998923,
          "durationTicks": 14,
          "midi": 69,
          "name": "A4",
          "ticks": 109578,
          "time": 154.24815656250001,
          "velocity": 0.4094488188976378
        },
        {
          "duration": 0.0014076562499951706,
          "durationTicks": 1,
          "midi": 42,
          "name": "F#2",
          "ticks": 109708,
          "time": 154.431151875,
          "velocity": 0.4881889763779528
        },
        {
          "duration": 0.0014076562499951706,
          "durationTicks": 1,
          "midi": 70,
          "name": "A#4",
          "ticks": 109708,
          "time": 154.431151875,
          "velocity": 0.8503937007874016
        },
        {
          "duration": 0.0014076562499951706,
          "durationTicks": 1,
          "midi": 45,
          "name": "A2",
          "ticks": 109708,
          "time": 154.431151875,
          "velocity": 0.3779527559055118
        },
        {
          "duration": 0.01407656250000855,
          "durationTicks": 10,
          "midi": 69,
          "name": "A4",
          "ticks": 109836,
          "time": 154.61133187500002,
          "velocity": 0.4094488188976378
        },
        {
          "duration": 0.01407656250000855,
          "durationTicks": 10,
          "midi": 35,
          "name": "B1",
          "ticks": 109836,
          "time": 154.61133187500002,
          "velocity": 0.889763779527559
        },
        {
          "duration": 0.01407656250000855,
          "durationTicks": 10,
          "midi": 45,
          "name": "A2",
          "ticks": 109836,
          "time": 154.61133187500002,
          "velocity": 0.3464566929133858
        },
        {
          "duration": 0.028153124999988677,
          "durationTicks": 20,
          "midi": 42,
          "name": "F#2",
          "ticks": 109960,
          "time": 154.78588125000002,
          "velocity": 0.4881889763779528
        },
        {
          "duration": 0.028153124999988677,
          "durationTicks": 20,
          "midi": 70,
          "name": "A#4",
          "ticks": 109960,
          "time": 154.78588125000002,
          "velocity": 0.7874015748031497
        },
        {
          "duration": 0.01407656250000855,
          "durationTicks": 10,
          "midi": 69,
          "name": "A4",
          "ticks": 110094,
          "time": 154.9745071875,
          "velocity": 0.4094488188976378
        },
        {
          "duration": 0.01407656250000855,
          "durationTicks": 10,
          "midi": 35,
          "name": "B1",
          "ticks": 110094,
          "time": 154.9745071875,
          "velocity": 0.8267716535433071
        },
        {
          "duration": 0.019707187500017653,
          "durationTicks": 14,
          "midi": 42,
          "name": "F#2",
          "ticks": 110222,
          "time": 155.1546871875,
          "velocity": 0.4881889763779528
        },
        {
          "duration": 0.019707187500017653,
          "durationTicks": 14,
          "midi": 70,
          "name": "A#4",
          "ticks": 110222,
          "time": 155.1546871875,
          "velocity": 0.8188976377952756
        },
        {
          "duration": 0.019707187500017653,
          "durationTicks": 14,
          "midi": 48,
          "name": "C3",
          "ticks": 110222,
          "time": 155.1546871875,
          "velocity": 0.8818897637795275
        },
        {
          "duration": 0.019707187500017653,
          "durationTicks": 14,
          "midi": 69,
          "name": "A4",
          "ticks": 110348,
          "time": 155.332051875,
          "velocity": 0.4094488188976378
        },
        {
          "duration": 0.025337812499998336,
          "durationTicks": 18,
          "midi": 42,
          "name": "F#2",
          "ticks": 110474,
          "time": 155.5094165625,
          "velocity": 0.4881889763779528
        },
        {
          "duration": 0.025337812499998336,
          "durationTicks": 18,
          "midi": 70,
          "name": "A#4",
          "ticks": 110474,
          "time": 155.5094165625,
          "velocity": 0.8503937007874016
        },
        {
          "duration": 0.025337812499998336,
          "durationTicks": 18,
          "midi": 45,
          "name": "A2",
          "ticks": 110474,
          "time": 155.5094165625,
          "velocity": 0.4094488188976378
        },
        {
          "duration": 0.019707187500017653,
          "durationTicks": 14,
          "midi": 69,
          "name": "A4",
          "ticks": 110606,
          "time": 155.6952271875,
          "velocity": 0.4094488188976378
        },
        {
          "duration": 0.019707187500017653,
          "durationTicks": 14,
          "midi": 35,
          "name": "B1",
          "ticks": 110606,
          "time": 155.6952271875,
          "velocity": 0.889763779527559
        },
        {
          "duration": 0.019707187500017653,
          "durationTicks": 14,
          "midi": 45,
          "name": "A2",
          "ticks": 110606,
          "time": 155.6952271875,
          "velocity": 0.3779527559055118
        },
        {
          "duration": 0.01689187499999889,
          "durationTicks": 12,
          "midi": 42,
          "name": "F#2",
          "ticks": 110732,
          "time": 155.87259187499998,
          "velocity": 0.4881889763779528
        },
        {
          "duration": 0.01689187499999889,
          "durationTicks": 12,
          "midi": 70,
          "name": "A#4",
          "ticks": 110732,
          "time": 155.87259187499998,
          "velocity": 0.7874015748031497
        },
        {
          "duration": 0.022522500000007994,
          "durationTicks": 16,
          "midi": 35,
          "name": "B1",
          "ticks": 110856,
          "time": 156.04714125,
          "velocity": 0.7637795275590551
        },
        {
          "duration": 0.022522500000007994,
          "durationTicks": 16,
          "midi": 69,
          "name": "A4",
          "ticks": 110856,
          "time": 156.04714125,
          "velocity": 0.4094488188976378
        },
        {
          "duration": 0.01970718749998923,
          "durationTicks": 14,
          "midi": 42,
          "name": "F#2",
          "ticks": 110986,
          "time": 156.2301365625,
          "velocity": 0.4881889763779528
        },
        {
          "duration": 0.01970718749998923,
          "durationTicks": 14,
          "midi": 70,
          "name": "A#4",
          "ticks": 110986,
          "time": 156.2301365625,
          "velocity": 0.8188976377952756
        },
        {
          "duration": 0.01970718749998923,
          "durationTicks": 14,
          "midi": 48,
          "name": "C3",
          "ticks": 110986,
          "time": 156.2301365625,
          "velocity": 0.9448818897637795
        },
        {
          "duration": 0.019707187500017653,
          "durationTicks": 14,
          "midi": 69,
          "name": "A4",
          "ticks": 111116,
          "time": 156.413131875,
          "velocity": 0.4094488188976378
        },
        {
          "duration": 0.01407656250000855,
          "durationTicks": 10,
          "midi": 45,
          "name": "A2",
          "ticks": 111248,
          "time": 156.5989425,
          "velocity": 0.4094488188976378
        },
        {
          "duration": 0.01407656250000855,
          "durationTicks": 10,
          "midi": 70,
          "name": "A#4",
          "ticks": 111248,
          "time": 156.5989425,
          "velocity": 0.8503937007874016
        },
        {
          "duration": 0.01407656250000855,
          "durationTicks": 10,
          "midi": 42,
          "name": "F#2",
          "ticks": 111248,
          "time": 156.5989425,
          "velocity": 0.4881889763779528
        },
        {
          "duration": 0.01689187499999889,
          "durationTicks": 12,
          "midi": 69,
          "name": "A4",
          "ticks": 111374,
          "time": 156.7763071875,
          "velocity": 0.4094488188976378
        },
        {
          "duration": 0.01689187499999889,
          "durationTicks": 12,
          "midi": 35,
          "name": "B1",
          "ticks": 111374,
          "time": 156.7763071875,
          "velocity": 0.889763779527559
        },
        {
          "duration": 0.01689187499999889,
          "durationTicks": 12,
          "midi": 45,
          "name": "A2",
          "ticks": 111374,
          "time": 156.7763071875,
          "velocity": 0.3779527559055118
        },
        {
          "duration": 0.01689187499999889,
          "durationTicks": 12,
          "midi": 42,
          "name": "F#2",
          "ticks": 111502,
          "time": 156.95648718750002,
          "velocity": 0.4881889763779528
        },
        {
          "duration": 0.01689187499999889,
          "durationTicks": 12,
          "midi": 70,
          "name": "A#4",
          "ticks": 111502,
          "time": 156.95648718750002,
          "velocity": 0.7874015748031497
        },
        {
          "duration": 0.019707187500017653,
          "durationTicks": 14,
          "midi": 69,
          "name": "A4",
          "ticks": 111626,
          "time": 157.1310365625,
          "velocity": 0.4094488188976378
        },
        {
          "duration": 0.019707187500017653,
          "durationTicks": 14,
          "midi": 35,
          "name": "B1",
          "ticks": 111626,
          "time": 157.1310365625,
          "velocity": 0.8267716535433071
        },
        {
          "duration": 0.011261249999989786,
          "durationTicks": 8,
          "midi": 42,
          "name": "F#2",
          "ticks": 111760,
          "time": 157.31966250000002,
          "velocity": 0.4881889763779528
        },
        {
          "duration": 0.011261249999989786,
          "durationTicks": 8,
          "midi": 70,
          "name": "A#4",
          "ticks": 111760,
          "time": 157.31966250000002,
          "velocity": 0.8188976377952756
        },
        {
          "duration": 0.011261249999989786,
          "durationTicks": 8,
          "midi": 48,
          "name": "C3",
          "ticks": 111760,
          "time": 157.31966250000002,
          "velocity": 0.8818897637795275
        },
        {
          "duration": 0.022522499999979573,
          "durationTicks": 16,
          "midi": 69,
          "name": "A4",
          "ticks": 111880,
          "time": 157.48858125,
          "velocity": 0.4094488188976378
        },
        {
          "duration": 0.0014076562499667489,
          "durationTicks": 1,
          "midi": 42,
          "name": "F#2",
          "ticks": 112018,
          "time": 157.68283781250003,
          "velocity": 0.4881889763779528
        },
        {
          "duration": 0.0014076562499667489,
          "durationTicks": 1,
          "midi": 70,
          "name": "A#4",
          "ticks": 112018,
          "time": 157.68283781250003,
          "velocity": 0.8503937007874016
        },
        {
          "duration": 0.0014076562499667489,
          "durationTicks": 1,
          "midi": 45,
          "name": "A2",
          "ticks": 112018,
          "time": 157.68283781250003,
          "velocity": 0.4094488188976378
        },
        {
          "duration": 0.03096843750000744,
          "durationTicks": 22,
          "midi": 69,
          "name": "A4",
          "ticks": 112140,
          "time": 157.854571875,
          "velocity": 0.4094488188976378
        },
        {
          "duration": 0.03096843750000744,
          "durationTicks": 22,
          "midi": 35,
          "name": "B1",
          "ticks": 112140,
          "time": 157.854571875,
          "velocity": 0.889763779527559
        },
        {
          "duration": 0.03096843750000744,
          "durationTicks": 22,
          "midi": 45,
          "name": "A2",
          "ticks": 112140,
          "time": 157.854571875,
          "velocity": 0.3779527559055118
        },
        {
          "duration": 0.014076562499980128,
          "durationTicks": 10,
          "midi": 42,
          "name": "F#2",
          "ticks": 112270,
          "time": 158.0375671875,
          "velocity": 0.4881889763779528
        },
        {
          "duration": 0.014076562499980128,
          "durationTicks": 10,
          "midi": 70,
          "name": "A#4",
          "ticks": 112270,
          "time": 158.0375671875,
          "velocity": 0.7874015748031497
        },
        {
          "duration": 0.01407656250000855,
          "durationTicks": 10,
          "midi": 69,
          "name": "A4",
          "ticks": 112398,
          "time": 158.2177471875,
          "velocity": 0.4094488188976378
        },
        {
          "duration": 0.01407656250000855,
          "durationTicks": 10,
          "midi": 35,
          "name": "B1",
          "ticks": 112398,
          "time": 158.2177471875,
          "velocity": 0.7637795275590551
        },
        {
          "duration": 0.01689187499999889,
          "durationTicks": 12,
          "midi": 42,
          "name": "F#2",
          "ticks": 112528,
          "time": 158.4007425,
          "velocity": 0.4881889763779528
        },
        {
          "duration": 0.01689187499999889,
          "durationTicks": 12,
          "midi": 70,
          "name": "A#4",
          "ticks": 112528,
          "time": 158.4007425,
          "velocity": 0.8188976377952756
        },
        {
          "duration": 0.01689187499999889,
          "durationTicks": 12,
          "midi": 48,
          "name": "C3",
          "ticks": 112528,
          "time": 158.4007425,
          "velocity": 0.9448818897637795
        },
        {
          "duration": 0.01970718749998923,
          "durationTicks": 14,
          "midi": 69,
          "name": "A4",
          "ticks": 112650,
          "time": 158.57247656250001,
          "velocity": 0.4094488188976378
        },
        {
          "duration": 0.0014076562499951706,
          "durationTicks": 1,
          "midi": 42,
          "name": "F#2",
          "ticks": 112792,
          "time": 158.77236375,
          "velocity": 0.4881889763779528
        },
        {
          "duration": 0.0014076562499951706,
          "durationTicks": 1,
          "midi": 70,
          "name": "A#4",
          "ticks": 112792,
          "time": 158.77236375,
          "velocity": 0.8503937007874016
        },
        {
          "duration": 0.0014076562499951706,
          "durationTicks": 1,
          "midi": 45,
          "name": "A2",
          "ticks": 112792,
          "time": 158.77236375,
          "velocity": 0.4094488188976378
        },
        {
          "duration": 0.02815312500004552,
          "durationTicks": 20,
          "midi": 69,
          "name": "A4",
          "ticks": 112904,
          "time": 158.93002124999998,
          "velocity": 0.4094488188976378
        },
        {
          "duration": 0.02815312500004552,
          "durationTicks": 20,
          "midi": 35,
          "name": "B1",
          "ticks": 112904,
          "time": 158.93002124999998,
          "velocity": 0.889763779527559
        },
        {
          "duration": 0.02815312500004552,
          "durationTicks": 20,
          "midi": 45,
          "name": "A2",
          "ticks": 112904,
          "time": 158.93002124999998,
          "velocity": 0.3779527559055118
        },
        {
          "duration": 0.022522499999979573,
          "durationTicks": 16,
          "midi": 42,
          "name": "F#2",
          "ticks": 113032,
          "time": 159.11020125000002,
          "velocity": 0.4881889763779528
        },
        {
          "duration": 0.022522499999979573,
          "durationTicks": 16,
          "midi": 70,
          "name": "A#4",
          "ticks": 113032,
          "time": 159.11020125000002,
          "velocity": 0.7874015748031497
        },
        {
          "duration": 0.005630624999980682,
          "durationTicks": 4,
          "midi": 69,
          "name": "A4",
          "ticks": 113170,
          "time": 159.3044578125,
          "velocity": 0.4094488188976378
        },
        {
          "duration": 0.005630624999980682,
          "durationTicks": 4,
          "midi": 35,
          "name": "B1",
          "ticks": 113170,
          "time": 159.3044578125,
          "velocity": 0.8267716535433071
        },
        {
          "duration": 0.01689187499999889,
          "durationTicks": 12,
          "midi": 42,
          "name": "F#2",
          "ticks": 113296,
          "time": 159.48182250000002,
          "velocity": 0.4881889763779528
        },
        {
          "duration": 0.01689187499999889,
          "durationTicks": 12,
          "midi": 70,
          "name": "A#4",
          "ticks": 113296,
          "time": 159.48182250000002,
          "velocity": 0.8188976377952756
        },
        {
          "duration": 0.01689187499999889,
          "durationTicks": 12,
          "midi": 48,
          "name": "C3",
          "ticks": 113296,
          "time": 159.48182250000002,
          "velocity": 0.8818897637795275
        },
        {
          "duration": 0.022522500000007994,
          "durationTicks": 16,
          "midi": 69,
          "name": "A4",
          "ticks": 113418,
          "time": 159.6535565625,
          "velocity": 0.4094488188976378
        },
        {
          "duration": 0.014076562499980128,
          "durationTicks": 10,
          "midi": 42,
          "name": "F#2",
          "ticks": 113554,
          "time": 159.84499781250003,
          "velocity": 0.4881889763779528
        },
        {
          "duration": 0.014076562499980128,
          "durationTicks": 10,
          "midi": 70,
          "name": "A#4",
          "ticks": 113554,
          "time": 159.84499781250003,
          "velocity": 0.8503937007874016
        },
        {
          "duration": 0.014076562499980128,
          "durationTicks": 10,
          "midi": 45,
          "name": "A2",
          "ticks": 113554,
          "time": 159.84499781250003,
          "velocity": 0.4094488188976378
        },
        {
          "duration": 0.01689187499999889,
          "durationTicks": 12,
          "midi": 69,
          "name": "A4",
          "ticks": 113678,
          "time": 160.0195471875,
          "velocity": 0.4094488188976378
        },
        {
          "duration": 0.01689187499999889,
          "durationTicks": 12,
          "midi": 35,
          "name": "B1",
          "ticks": 113678,
          "time": 160.0195471875,
          "velocity": 0.889763779527559
        },
        {
          "duration": 0.01689187499999889,
          "durationTicks": 12,
          "midi": 45,
          "name": "A2",
          "ticks": 113678,
          "time": 160.0195471875,
          "velocity": 0.3779527559055118
        },
        {
          "duration": 0.016891875000027312,
          "durationTicks": 12,
          "midi": 42,
          "name": "F#2",
          "ticks": 113806,
          "time": 160.1997271875,
          "velocity": 0.4881889763779528
        },
        {
          "duration": 0.016891875000027312,
          "durationTicks": 12,
          "midi": 70,
          "name": "A#4",
          "ticks": 113806,
          "time": 160.1997271875,
          "velocity": 0.7874015748031497
        },
        {
          "duration": 0.01689187499999889,
          "durationTicks": 12,
          "midi": 69,
          "name": "A4",
          "ticks": 113934,
          "time": 160.3799071875,
          "velocity": 0.4094488188976378
        },
        {
          "duration": 0.01689187499999889,
          "durationTicks": 12,
          "midi": 35,
          "name": "B1",
          "ticks": 113934,
          "time": 160.3799071875,
          "velocity": 0.7637795275590551
        },
        {
          "duration": 0.011261249999989786,
          "durationTicks": 8,
          "midi": 42,
          "name": "F#2",
          "ticks": 114064,
          "time": 160.5629025,
          "velocity": 0.4881889763779528
        },
        {
          "duration": 0.011261249999989786,
          "durationTicks": 8,
          "midi": 70,
          "name": "A#4",
          "ticks": 114064,
          "time": 160.5629025,
          "velocity": 0.8188976377952756
        },
        {
          "duration": 0.011261249999989786,
          "durationTicks": 8,
          "midi": 48,
          "name": "C3",
          "ticks": 114064,
          "time": 160.5629025,
          "velocity": 0.9448818897637795
        },
        {
          "duration": 0.01689187499999889,
          "durationTicks": 12,
          "midi": 69,
          "name": "A4",
          "ticks": 114188,
          "time": 160.737451875,
          "velocity": 0.4094488188976378
        },
        {
          "duration": 0.0014076562500235923,
          "durationTicks": 1,
          "midi": 42,
          "name": "F#2",
          "ticks": 114326,
          "time": 160.9317084375,
          "velocity": 0.4881889763779528
        },
        {
          "duration": 0.0014076562500235923,
          "durationTicks": 1,
          "midi": 70,
          "name": "A#4",
          "ticks": 114326,
          "time": 160.9317084375,
          "velocity": 0.8503937007874016
        },
        {
          "duration": 0.0014076562500235923,
          "durationTicks": 1,
          "midi": 45,
          "name": "A2",
          "ticks": 114326,
          "time": 160.9317084375,
          "velocity": 0.4094488188976378
        },
        {
          "duration": 0.0014076562499951706,
          "durationTicks": 1,
          "midi": 69,
          "name": "A4",
          "ticks": 114452,
          "time": 161.109073125,
          "velocity": 0.4094488188976378
        },
        {
          "duration": 0.0014076562499951706,
          "durationTicks": 1,
          "midi": 35,
          "name": "B1",
          "ticks": 114452,
          "time": 161.109073125,
          "velocity": 0.889763779527559
        },
        {
          "duration": 0.0014076562499951706,
          "durationTicks": 1,
          "midi": 45,
          "name": "A2",
          "ticks": 114452,
          "time": 161.109073125,
          "velocity": 0.3779527559055118
        },
        {
          "duration": 0.025337812499998336,
          "durationTicks": 18,
          "midi": 42,
          "name": "F#2",
          "ticks": 114568,
          "time": 161.27236125000002,
          "velocity": 0.4881889763779528
        },
        {
          "duration": 0.025337812499998336,
          "durationTicks": 18,
          "midi": 70,
          "name": "A#4",
          "ticks": 114568,
          "time": 161.27236125000002,
          "velocity": 0.7874015748031497
        },
        {
          "duration": 0.011261250000018208,
          "durationTicks": 8,
          "midi": 35,
          "name": "B1",
          "ticks": 114704,
          "time": 161.46380249999999,
          "velocity": 0.8267716535433071
        },
        {
          "duration": 0.011261250000018208,
          "durationTicks": 8,
          "midi": 69,
          "name": "A4",
          "ticks": 114704,
          "time": 161.46380249999999,
          "velocity": 0.4094488188976378
        },
        {
          "duration": 0.0014076562499667489,
          "durationTicks": 1,
          "midi": 42,
          "name": "F#2",
          "ticks": 114838,
          "time": 161.65242843750002,
          "velocity": 0.4881889763779528
        },
        {
          "duration": 0.0014076562499667489,
          "durationTicks": 1,
          "midi": 70,
          "name": "A#4",
          "ticks": 114838,
          "time": 161.65242843750002,
          "velocity": 0.8188976377952756
        },
        {
          "duration": 0.0014076562499667489,
          "durationTicks": 1,
          "midi": 48,
          "name": "C3",
          "ticks": 114838,
          "time": 161.65242843750002,
          "velocity": 0.8818897637795275
        },
        {
          "duration": 0.01970718749998923,
          "durationTicks": 14,
          "midi": 69,
          "name": "A4",
          "ticks": 114954,
          "time": 161.8157165625,
          "velocity": 0.4094488188976378
        },
        {
          "duration": 0.01407656250000855,
          "durationTicks": 10,
          "midi": 45,
          "name": "A2",
          "ticks": 115088,
          "time": 162.0043425,
          "velocity": 0.4094488188976378
        },
        {
          "duration": 0.01407656250000855,
          "durationTicks": 10,
          "midi": 70,
          "name": "A#4",
          "ticks": 115088,
          "time": 162.0043425,
          "velocity": 0.8503937007874016
        },
        {
          "duration": 0.01407656250000855,
          "durationTicks": 10,
          "midi": 42,
          "name": "F#2",
          "ticks": 115088,
          "time": 162.0043425,
          "velocity": 0.4881889763779528
        },
        {
          "duration": 0.025337812499998336,
          "durationTicks": 18,
          "midi": 69,
          "name": "A4",
          "ticks": 115212,
          "time": 162.178891875,
          "velocity": 0.4094488188976378
        },
        {
          "duration": 0.025337812499998336,
          "durationTicks": 18,
          "midi": 35,
          "name": "B1",
          "ticks": 115212,
          "time": 162.178891875,
          "velocity": 0.889763779527559
        },
        {
          "duration": 0.025337812499998336,
          "durationTicks": 18,
          "midi": 45,
          "name": "A2",
          "ticks": 115212,
          "time": 162.178891875,
          "velocity": 0.3779527559055118
        },
        {
          "duration": 0.022522500000036416,
          "durationTicks": 16,
          "midi": 42,
          "name": "F#2",
          "ticks": 115340,
          "time": 162.35907187499998,
          "velocity": 0.4881889763779528
        },
        {
          "duration": 0.022522500000036416,
          "durationTicks": 16,
          "midi": 70,
          "name": "A#4",
          "ticks": 115340,
          "time": 162.35907187499998,
          "velocity": 0.7874015748031497
        },
        {
          "duration": 0.0014076562499951706,
          "durationTicks": 1,
          "midi": 69,
          "name": "A4",
          "ticks": 115476,
          "time": 162.550513125,
          "velocity": 0.4094488188976378
        },
        {
          "duration": 0.0014076562499951706,
          "durationTicks": 1,
          "midi": 35,
          "name": "B1",
          "ticks": 115476,
          "time": 162.550513125,
          "velocity": 0.7637795275590551
        },
        {
          "duration": 0.01689187499999889,
          "durationTicks": 12,
          "midi": 42,
          "name": "F#2",
          "ticks": 115598,
          "time": 162.7222471875,
          "velocity": 0.4881889763779528
        },
        {
          "duration": 0.01689187499999889,
          "durationTicks": 12,
          "midi": 70,
          "name": "A#4",
          "ticks": 115598,
          "time": 162.7222471875,
          "velocity": 0.8188976377952756
        },
        {
          "duration": 0.01689187499999889,
          "durationTicks": 12,
          "midi": 48,
          "name": "C3",
          "ticks": 115598,
          "time": 162.7222471875,
          "velocity": 0.9448818897637795
        },
        {
          "duration": 0.01689187499999889,
          "durationTicks": 12,
          "midi": 69,
          "name": "A4",
          "ticks": 115724,
          "time": 162.899611875,
          "velocity": 0.4094488188976378
        },
        {
          "duration": 0.0014076562500235923,
          "durationTicks": 1,
          "midi": 42,
          "name": "F#2",
          "ticks": 115862,
          "time": 163.0938684375,
          "velocity": 0.4881889763779528
        },
        {
          "duration": 0.0014076562500235923,
          "durationTicks": 1,
          "midi": 70,
          "name": "A#4",
          "ticks": 115862,
          "time": 163.0938684375,
          "velocity": 0.8503937007874016
        },
        {
          "duration": 0.0014076562500235923,
          "durationTicks": 1,
          "midi": 45,
          "name": "A2",
          "ticks": 115862,
          "time": 163.0938684375,
          "velocity": 0.4094488188976378
        },
        {
          "duration": 0.01689187499999889,
          "durationTicks": 12,
          "midi": 69,
          "name": "A4",
          "ticks": 115982,
          "time": 163.2627871875,
          "velocity": 0.4094488188976378
        },
        {
          "duration": 0.01689187499999889,
          "durationTicks": 12,
          "midi": 35,
          "name": "B1",
          "ticks": 115982,
          "time": 163.2627871875,
          "velocity": 0.889763779527559
        },
        {
          "duration": 0.01689187499999889,
          "durationTicks": 12,
          "midi": 45,
          "name": "A2",
          "ticks": 115982,
          "time": 163.2627871875,
          "velocity": 0.3779527559055118
        },
        {
          "duration": 0.019707187500017653,
          "durationTicks": 14,
          "midi": 42,
          "name": "F#2",
          "ticks": 116108,
          "time": 163.440151875,
          "velocity": 0.4881889763779528
        },
        {
          "duration": 0.019707187500017653,
          "durationTicks": 14,
          "midi": 70,
          "name": "A#4",
          "ticks": 116108,
          "time": 163.440151875,
          "velocity": 0.7874015748031497
        },
        {
          "duration": 0.01407656250000855,
          "durationTicks": 10,
          "midi": 69,
          "name": "A4",
          "ticks": 116238,
          "time": 163.6231471875,
          "velocity": 0.4094488188976378
        },
        {
          "duration": 0.01407656250000855,
          "durationTicks": 10,
          "midi": 35,
          "name": "B1",
          "ticks": 116238,
          "time": 163.6231471875,
          "velocity": 0.8267716535433071
        },
        {
          "duration": 0.01689187499999889,
          "durationTicks": 12,
          "midi": 42,
          "name": "F#2",
          "ticks": 116366,
          "time": 163.8033271875,
          "velocity": 0.4881889763779528
        },
        {
          "duration": 0.01689187499999889,
          "durationTicks": 12,
          "midi": 70,
          "name": "A#4",
          "ticks": 116366,
          "time": 163.8033271875,
          "velocity": 0.8188976377952756
        },
        {
          "duration": 0.01689187499999889,
          "durationTicks": 12,
          "midi": 48,
          "name": "C3",
          "ticks": 116366,
          "time": 163.8033271875,
          "velocity": 0.8818897637795275
        },
        {
          "duration": 0.022522499999979573,
          "durationTicks": 16,
          "midi": 69,
          "name": "A4",
          "ticks": 116488,
          "time": 163.97506125,
          "velocity": 0.4094488188976378
        },
        {
          "duration": 0.022522499999979573,
          "durationTicks": 16,
          "midi": 42,
          "name": "F#2",
          "ticks": 116620,
          "time": 164.16087187500003,
          "velocity": 0.4881889763779528
        },
        {
          "duration": 0.022522499999979573,
          "durationTicks": 16,
          "midi": 70,
          "name": "A#4",
          "ticks": 116620,
          "time": 164.16087187500003,
          "velocity": 0.8503937007874016
        },
        {
          "duration": 0.022522499999979573,
          "durationTicks": 16,
          "midi": 45,
          "name": "A2",
          "ticks": 116620,
          "time": 164.16087187500003,
          "velocity": 0.4094488188976378
        },
        {
          "duration": 0.022522499999979573,
          "durationTicks": 16,
          "midi": 69,
          "name": "A4",
          "ticks": 116746,
          "time": 164.33823656250001,
          "velocity": 0.4094488188976378
        },
        {
          "duration": 0.022522499999979573,
          "durationTicks": 16,
          "midi": 35,
          "name": "B1",
          "ticks": 116746,
          "time": 164.33823656250001,
          "velocity": 0.889763779527559
        },
        {
          "duration": 0.022522499999979573,
          "durationTicks": 16,
          "midi": 45,
          "name": "A2",
          "ticks": 116746,
          "time": 164.33823656250001,
          "velocity": 0.3779527559055118
        },
        {
          "duration": 0.011261249999989786,
          "durationTicks": 8,
          "midi": 42,
          "name": "F#2",
          "ticks": 116880,
          "time": 164.5268625,
          "velocity": 0.4881889763779528
        },
        {
          "duration": 0.011261249999989786,
          "durationTicks": 8,
          "midi": 70,
          "name": "A#4",
          "ticks": 116880,
          "time": 164.5268625,
          "velocity": 0.7874015748031497
        },
        {
          "duration": 0.019707187500017653,
          "durationTicks": 14,
          "midi": 69,
          "name": "A4",
          "ticks": 117002,
          "time": 164.6985965625,
          "velocity": 0.4094488188976378
        },
        {
          "duration": 0.019707187500017653,
          "durationTicks": 14,
          "midi": 35,
          "name": "B1",
          "ticks": 117002,
          "time": 164.6985965625,
          "velocity": 0.7637795275590551
        },
        {
          "duration": 0.022522499999979573,
          "durationTicks": 16,
          "midi": 42,
          "name": "F#2",
          "ticks": 117130,
          "time": 164.8787765625,
          "velocity": 0.4881889763779528
        },
        {
          "duration": 0.022522499999979573,
          "durationTicks": 16,
          "midi": 70,
          "name": "A#4",
          "ticks": 117130,
          "time": 164.8787765625,
          "velocity": 0.8188976377952756
        },
        {
          "duration": 0.022522499999979573,
          "durationTicks": 16,
          "midi": 48,
          "name": "C3",
          "ticks": 117130,
          "time": 164.8787765625,
          "velocity": 0.9448818897637795
        },
        {
          "duration": 0.019707187500017653,
          "durationTicks": 14,
          "midi": 69,
          "name": "A4",
          "ticks": 117260,
          "time": 165.061771875,
          "velocity": 0.4094488188976378
        },
        {
          "duration": 0.011261249999989786,
          "durationTicks": 8,
          "midi": 42,
          "name": "F#2",
          "ticks": 117394,
          "time": 165.2503978125,
          "velocity": 0.4881889763779528
        },
        {
          "duration": 0.011261249999989786,
          "durationTicks": 8,
          "midi": 70,
          "name": "A#4",
          "ticks": 117394,
          "time": 165.2503978125,
          "velocity": 0.8503937007874016
        },
        {
          "duration": 0.011261249999989786,
          "durationTicks": 8,
          "midi": 45,
          "name": "A2",
          "ticks": 117394,
          "time": 165.2503978125,
          "velocity": 0.4094488188976378
        },
        {
          "duration": 0.01689187499999889,
          "durationTicks": 12,
          "midi": 69,
          "name": "A4",
          "ticks": 117518,
          "time": 165.4249471875,
          "velocity": 0.4094488188976378
        },
        {
          "duration": 0.01689187499999889,
          "durationTicks": 12,
          "midi": 35,
          "name": "B1",
          "ticks": 117518,
          "time": 165.4249471875,
          "velocity": 0.889763779527559
        },
        {
          "duration": 0.01689187499999889,
          "durationTicks": 12,
          "midi": 45,
          "name": "A2",
          "ticks": 117518,
          "time": 165.4249471875,
          "velocity": 0.3779527559055118
        },
        {
          "duration": 0.01689187499999889,
          "durationTicks": 12,
          "midi": 42,
          "name": "F#2",
          "ticks": 117644,
          "time": 165.602311875,
          "velocity": 0.4881889763779528
        },
        {
          "duration": 0.01689187499999889,
          "durationTicks": 12,
          "midi": 70,
          "name": "A#4",
          "ticks": 117644,
          "time": 165.602311875,
          "velocity": 0.7874015748031497
        },
        {
          "duration": 0.01970718749998923,
          "durationTicks": 14,
          "midi": 69,
          "name": "A4",
          "ticks": 117774,
          "time": 165.7853071875,
          "velocity": 0.4094488188976378
        },
        {
          "duration": 0.01970718749998923,
          "durationTicks": 14,
          "midi": 35,
          "name": "B1",
          "ticks": 117774,
          "time": 165.7853071875,
          "velocity": 0.8267716535433071
        },
        {
          "duration": 0.01407656250000855,
          "durationTicks": 10,
          "midi": 42,
          "name": "F#2",
          "ticks": 117902,
          "time": 165.9654871875,
          "velocity": 0.4881889763779528
        },
        {
          "duration": 0.01407656250000855,
          "durationTicks": 10,
          "midi": 70,
          "name": "A#4",
          "ticks": 117902,
          "time": 165.9654871875,
          "velocity": 0.8188976377952756
        },
        {
          "duration": 0.01407656250000855,
          "durationTicks": 10,
          "midi": 48,
          "name": "C3",
          "ticks": 117902,
          "time": 165.9654871875,
          "velocity": 0.8818897637795275
        },
        {
          "duration": 0.014076562499980128,
          "durationTicks": 10,
          "midi": 69,
          "name": "A4",
          "ticks": 118030,
          "time": 166.1456671875,
          "velocity": 0.4094488188976378
        },
        {
          "duration": 0.01407656250000855,
          "durationTicks": 10,
          "midi": 45,
          "name": "A2",
          "ticks": 118160,
          "time": 166.3286625,
          "velocity": 0.4094488188976378
        },
        {
          "duration": 0.01407656250000855,
          "durationTicks": 10,
          "midi": 70,
          "name": "A#4",
          "ticks": 118160,
          "time": 166.3286625,
          "velocity": 0.8503937007874016
        },
        {
          "duration": 0.01407656250000855,
          "durationTicks": 10,
          "midi": 42,
          "name": "F#2",
          "ticks": 118160,
          "time": 166.3286625,
          "velocity": 0.4881889763779528
        },
        {
          "duration": 0.0014076562499951706,
          "durationTicks": 1,
          "midi": 69,
          "name": "A4",
          "ticks": 118294,
          "time": 166.5172884375,
          "velocity": 0.4094488188976378
        },
        {
          "duration": 0.0014076562499951706,
          "durationTicks": 1,
          "midi": 35,
          "name": "B1",
          "ticks": 118294,
          "time": 166.5172884375,
          "velocity": 0.889763779527559
        },
        {
          "duration": 0.0014076562499951706,
          "durationTicks": 1,
          "midi": 45,
          "name": "A2",
          "ticks": 118294,
          "time": 166.5172884375,
          "velocity": 0.3779527559055118
        },
        {
          "duration": 0.016891875000027312,
          "durationTicks": 12,
          "midi": 42,
          "name": "F#2",
          "ticks": 118414,
          "time": 166.6862071875,
          "velocity": 0.4881889763779528
        },
        {
          "duration": 0.016891875000027312,
          "durationTicks": 12,
          "midi": 70,
          "name": "A#4",
          "ticks": 118414,
          "time": 166.6862071875,
          "velocity": 0.7874015748031497
        },
        {
          "duration": 0.0014076562499667489,
          "durationTicks": 1,
          "midi": 69,
          "name": "A4",
          "ticks": 118546,
          "time": 166.87201781250002,
          "velocity": 0.4094488188976378
        },
        {
          "duration": 0.0014076562499667489,
          "durationTicks": 1,
          "midi": 35,
          "name": "B1",
          "ticks": 118546,
          "time": 166.87201781250002,
          "velocity": 0.7637795275590551
        },
        {
          "duration": 0.025337812499998336,
          "durationTicks": 18,
          "midi": 42,
          "name": "F#2",
          "ticks": 118666,
          "time": 167.0409365625,
          "velocity": 0.4881889763779528
        },
        {
          "duration": 0.025337812499998336,
          "durationTicks": 18,
          "midi": 70,
          "name": "A#4",
          "ticks": 118666,
          "time": 167.0409365625,
          "velocity": 0.8188976377952756
        },
        {
          "duration": 0.025337812499998336,
          "durationTicks": 18,
          "midi": 48,
          "name": "C3",
          "ticks": 118666,
          "time": 167.0409365625,
          "velocity": 0.9448818897637795
        },
        {
          "duration": 0.025337812499998336,
          "durationTicks": 18,
          "midi": 69,
          "name": "A4",
          "ticks": 118792,
          "time": 167.21830125000002,
          "velocity": 0.4094488188976378
        },
        {
          "duration": 0.0014076562500235923,
          "durationTicks": 1,
          "midi": 42,
          "name": "F#2",
          "ticks": 118934,
          "time": 167.4181884375,
          "velocity": 0.4881889763779528
        },
        {
          "duration": 0.0014076562500235923,
          "durationTicks": 1,
          "midi": 70,
          "name": "A#4",
          "ticks": 118934,
          "time": 167.4181884375,
          "velocity": 0.8503937007874016
        },
        {
          "duration": 0.0014076562500235923,
          "durationTicks": 1,
          "midi": 45,
          "name": "A2",
          "ticks": 118934,
          "time": 167.4181884375,
          "velocity": 0.4094488188976378
        },
        {
          "duration": 0.01970718749998923,
          "durationTicks": 14,
          "midi": 69,
          "name": "A4",
          "ticks": 119050,
          "time": 167.58147656250003,
          "velocity": 0.4094488188976378
        },
        {
          "duration": 0.01970718749998923,
          "durationTicks": 14,
          "midi": 35,
          "name": "B1",
          "ticks": 119050,
          "time": 167.58147656250003,
          "velocity": 0.889763779527559
        },
        {
          "duration": 0.01970718749998923,
          "durationTicks": 14,
          "midi": 45,
          "name": "A2",
          "ticks": 119050,
          "time": 167.58147656250003,
          "velocity": 0.3779527559055118
        },
        {
          "duration": 0.01689187499999889,
          "durationTicks": 12,
          "midi": 42,
          "name": "F#2",
          "ticks": 119178,
          "time": 167.7616565625,
          "velocity": 0.4881889763779528
        },
        {
          "duration": 0.01689187499999889,
          "durationTicks": 12,
          "midi": 70,
          "name": "A#4",
          "ticks": 119178,
          "time": 167.7616565625,
          "velocity": 0.7874015748031497
        },
        {
          "duration": 0.01407656250000855,
          "durationTicks": 10,
          "midi": 69,
          "name": "A4",
          "ticks": 119310,
          "time": 167.9474671875,
          "velocity": 0.4094488188976378
        },
        {
          "duration": 0.01407656250000855,
          "durationTicks": 10,
          "midi": 35,
          "name": "B1",
          "ticks": 119310,
          "time": 167.9474671875,
          "velocity": 0.8267716535433071
        },
        {
          "duration": 0.01689187499999889,
          "durationTicks": 12,
          "midi": 42,
          "name": "F#2",
          "ticks": 119440,
          "time": 168.13046250000002,
          "velocity": 0.4881889763779528
        },
        {
          "duration": 0.01689187499999889,
          "durationTicks": 12,
          "midi": 70,
          "name": "A#4",
          "ticks": 119440,
          "time": 168.13046250000002,
          "velocity": 0.8188976377952756
        },
        {
          "duration": 0.01689187499999889,
          "durationTicks": 12,
          "midi": 48,
          "name": "C3",
          "ticks": 119440,
          "time": 168.13046250000002,
          "velocity": 0.8818897637795275
        },
        {
          "duration": 0.025337812499998336,
          "durationTicks": 18,
          "midi": 69,
          "name": "A4",
          "ticks": 119560,
          "time": 168.29938125,
          "velocity": 0.4094488188976378
        },
        {
          "duration": 0.01689187499999889,
          "durationTicks": 12,
          "midi": 45,
          "name": "A2",
          "ticks": 119696,
          "time": 168.4908225,
          "velocity": 0.4094488188976378
        },
        {
          "duration": 0.01689187499999889,
          "durationTicks": 12,
          "midi": 70,
          "name": "A#4",
          "ticks": 119696,
          "time": 168.4908225,
          "velocity": 0.8503937007874016
        },
        {
          "duration": 0.01689187499999889,
          "durationTicks": 12,
          "midi": 42,
          "name": "F#2",
          "ticks": 119696,
          "time": 168.4908225,
          "velocity": 0.4881889763779528
        },
        {
          "duration": 0.0014076562499951706,
          "durationTicks": 1,
          "midi": 69,
          "name": "A4",
          "ticks": 119830,
          "time": 168.6794484375,
          "velocity": 0.4094488188976378
        },
        {
          "duration": 0.0014076562499951706,
          "durationTicks": 1,
          "midi": 35,
          "name": "B1",
          "ticks": 119830,
          "time": 168.6794484375,
          "velocity": 0.889763779527559
        },
        {
          "duration": 0.0014076562499951706,
          "durationTicks": 1,
          "midi": 45,
          "name": "A2",
          "ticks": 119830,
          "time": 168.6794484375,
          "velocity": 0.3779527559055118
        },
        {
          "duration": 0.0281531250000171,
          "durationTicks": 20,
          "midi": 42,
          "name": "F#2",
          "ticks": 119944,
          "time": 168.83992125,
          "velocity": 0.4881889763779528
        },
        {
          "duration": 0.0281531250000171,
          "durationTicks": 20,
          "midi": 70,
          "name": "A#4",
          "ticks": 119944,
          "time": 168.83992125,
          "velocity": 0.7874015748031497
        },
        {
          "duration": 0.0014076562499951706,
          "durationTicks": 1,
          "midi": 69,
          "name": "A4",
          "ticks": 120084,
          "time": 169.036993125,
          "velocity": 0.4094488188976378
        },
        {
          "duration": 0.0014076562499951706,
          "durationTicks": 1,
          "midi": 35,
          "name": "B1",
          "ticks": 120084,
          "time": 169.036993125,
          "velocity": 0.7637795275590551
        },
        {
          "duration": 0.0014076562499951706,
          "durationTicks": 1,
          "midi": 42,
          "name": "F#2",
          "ticks": 120214,
          "time": 169.2199884375,
          "velocity": 0.4881889763779528
        },
        {
          "duration": 0.0014076562499951706,
          "durationTicks": 1,
          "midi": 70,
          "name": "A#4",
          "ticks": 120214,
          "time": 169.2199884375,
          "velocity": 0.8188976377952756
        },
        {
          "duration": 0.0014076562499951706,
          "durationTicks": 1,
          "midi": 48,
          "name": "C3",
          "ticks": 120214,
          "time": 169.2199884375,
          "velocity": 0.9448818897637795
        },
        {
          "duration": 0.01970718749998923,
          "durationTicks": 14,
          "midi": 69,
          "name": "A4",
          "ticks": 120330,
          "time": 169.38327656250001,
          "velocity": 0.4094488188976378
        },
        {
          "duration": 0.025337812499998336,
          "durationTicks": 18,
          "midi": 42,
          "name": "F#2",
          "ticks": 120458,
          "time": 169.5634565625,
          "velocity": 0.4881889763779528
        },
        {
          "duration": 0.025337812499998336,
          "durationTicks": 18,
          "midi": 70,
          "name": "A#4",
          "ticks": 120458,
          "time": 169.5634565625,
          "velocity": 0.8503937007874016
        },
        {
          "duration": 0.025337812499998336,
          "durationTicks": 18,
          "midi": 45,
          "name": "A2",
          "ticks": 120458,
          "time": 169.5634565625,
          "velocity": 0.4094488188976378
        },
        {
          "duration": 0.0014076562499951706,
          "durationTicks": 1,
          "midi": 69,
          "name": "A4",
          "ticks": 120594,
          "time": 169.75489781250002,
          "velocity": 0.4094488188976378
        },
        {
          "duration": 0.0014076562499951706,
          "durationTicks": 1,
          "midi": 35,
          "name": "B1",
          "ticks": 120594,
          "time": 169.75489781250002,
          "velocity": 0.889763779527559
        },
        {
          "duration": 0.0014076562499951706,
          "durationTicks": 1,
          "midi": 48,
          "name": "C3",
          "ticks": 120594,
          "time": 169.75489781250002,
          "velocity": 0.9448818897637795
        },
        {
          "duration": 0.0014076562499951706,
          "durationTicks": 1,
          "midi": 45,
          "name": "A2",
          "ticks": 120594,
          "time": 169.75489781250002,
          "velocity": 0.3779527559055118
        },
        {
          "duration": 0.014076562499980128,
          "durationTicks": 10,
          "midi": 42,
          "name": "F#2",
          "ticks": 120718,
          "time": 169.92944718750002,
          "velocity": 0.4881889763779528
        },
        {
          "duration": 0.014076562499980128,
          "durationTicks": 10,
          "midi": 70,
          "name": "A#4",
          "ticks": 120718,
          "time": 169.92944718750002,
          "velocity": 0.7874015748031497
        },
        {
          "duration": 0.014076562499980128,
          "durationTicks": 10,
          "midi": 48,
          "name": "C3",
          "ticks": 120718,
          "time": 169.92944718750002,
          "velocity": 0.8503937007874016
        },
        {
          "duration": 0.01407656250000855,
          "durationTicks": 10,
          "midi": 69,
          "name": "A4",
          "ticks": 120846,
          "time": 170.1096271875,
          "velocity": 0.4094488188976378
        },
        {
          "duration": 0.01407656250000855,
          "durationTicks": 10,
          "midi": 35,
          "name": "B1",
          "ticks": 120846,
          "time": 170.1096271875,
          "velocity": 0.8267716535433071
        },
        {
          "duration": 0.011261249999989786,
          "durationTicks": 8,
          "midi": 42,
          "name": "F#2",
          "ticks": 120976,
          "time": 170.29262250000002,
          "velocity": 0.4881889763779528
        },
        {
          "duration": 0.011261249999989786,
          "durationTicks": 8,
          "midi": 70,
          "name": "A#4",
          "ticks": 120976,
          "time": 170.29262250000002,
          "velocity": 0.8188976377952756
        },
        {
          "duration": 0.011261249999989786,
          "durationTicks": 8,
          "midi": 48,
          "name": "C3",
          "ticks": 120976,
          "time": 170.29262250000002,
          "velocity": 0.9448818897637795
        },
        {
          "duration": 0.01689187499999889,
          "durationTicks": 12,
          "midi": 69,
          "name": "A4",
          "ticks": 121102,
          "time": 170.4699871875,
          "velocity": 0.4094488188976378
        },
        {
          "duration": 0.01689187499999889,
          "durationTicks": 12,
          "midi": 48,
          "name": "C3",
          "ticks": 121102,
          "time": 170.4699871875,
          "velocity": 0.8188976377952756
        },
        {
          "duration": 0.01407656250000855,
          "durationTicks": 10,
          "midi": 45,
          "name": "A2",
          "ticks": 121232,
          "time": 170.6529825,
          "velocity": 0.4094488188976378
        },
        {
          "duration": 0.01407656250000855,
          "durationTicks": 10,
          "midi": 48,
          "name": "C3",
          "ticks": 121232,
          "time": 170.6529825,
          "velocity": 0.8503937007874016
        },
        {
          "duration": 0.01407656250000855,
          "durationTicks": 10,
          "midi": 56,
          "name": "G#3",
          "ticks": 121232,
          "time": 170.6529825,
          "velocity": 0.8503937007874016
        },
        {
          "duration": 0.01407656250000855,
          "durationTicks": 10,
          "midi": 42,
          "name": "F#2",
          "ticks": 121232,
          "time": 170.6529825,
          "velocity": 0.4881889763779528
        },
        {
          "duration": 0.025337812499998336,
          "durationTicks": 18,
          "midi": 69,
          "name": "A4",
          "ticks": 121356,
          "time": 170.827531875,
          "velocity": 0.4094488188976378
        },
        {
          "duration": 0.025337812499998336,
          "durationTicks": 18,
          "midi": 0,
          "name": "C-1",
          "ticks": 121356,
          "time": 170.827531875,
          "velocity": 0.6299212598425197
        },
        {
          "duration": 0.025337812499998336,
          "durationTicks": 18,
          "midi": 35,
          "name": "B1",
          "ticks": 121356,
          "time": 170.827531875,
          "velocity": 1
        },
        {
          "duration": 0.025337812500026757,
          "durationTicks": 18,
          "midi": 42,
          "name": "F#2",
          "ticks": 121482,
          "time": 171.0048965625,
          "velocity": 0.4881889763779528
        },
        {
          "duration": 0.025337812500026757,
          "durationTicks": 18,
          "midi": 70,
          "name": "A#4",
          "ticks": 121482,
          "time": 171.0048965625,
          "velocity": 0.7874015748031497
        },
        {
          "duration": 0.022522500000007994,
          "durationTicks": 16,
          "midi": 35,
          "name": "B1",
          "ticks": 121608,
          "time": 171.18226125,
          "velocity": 0.889763779527559
        },
        {
          "duration": 0.022522500000007994,
          "durationTicks": 16,
          "midi": 69,
          "name": "A4",
          "ticks": 121608,
          "time": 171.18226125,
          "velocity": 0.4094488188976378
        },
        {
          "duration": 0.01689187499999889,
          "durationTicks": 12,
          "midi": 42,
          "name": "F#2",
          "ticks": 121742,
          "time": 171.3708871875,
          "velocity": 0.4881889763779528
        },
        {
          "duration": 0.01689187499999889,
          "durationTicks": 12,
          "midi": 70,
          "name": "A#4",
          "ticks": 121742,
          "time": 171.3708871875,
          "velocity": 0.8188976377952756
        },
        {
          "duration": 0.01689187499999889,
          "durationTicks": 12,
          "midi": 48,
          "name": "C3",
          "ticks": 121742,
          "time": 171.3708871875,
          "velocity": 0.9763779527559056
        },
        {
          "duration": 0.01970718749998923,
          "durationTicks": 14,
          "midi": 69,
          "name": "A4",
          "ticks": 121866,
          "time": 171.54543656250002,
          "velocity": 0.4094488188976378
        },
        {
          "duration": 0.01407656250000855,
          "durationTicks": 10,
          "midi": 45,
          "name": "A2",
          "ticks": 122000,
          "time": 171.7340625,
          "velocity": 0.4094488188976378
        },
        {
          "duration": 0.01407656250000855,
          "durationTicks": 10,
          "midi": 70,
          "name": "A#4",
          "ticks": 122000,
          "time": 171.7340625,
          "velocity": 0.8503937007874016
        },
        {
          "duration": 0.01407656250000855,
          "durationTicks": 10,
          "midi": 42,
          "name": "F#2",
          "ticks": 122000,
          "time": 171.7340625,
          "velocity": 0.4881889763779528
        },
        {
          "duration": 0.008445937499999445,
          "durationTicks": 6,
          "midi": 69,
          "name": "A4",
          "ticks": 122130,
          "time": 171.91705781250002,
          "velocity": 0.4094488188976378
        },
        {
          "duration": 0.008445937499999445,
          "durationTicks": 6,
          "midi": 35,
          "name": "B1",
          "ticks": 122130,
          "time": 171.91705781250002,
          "velocity": 0.9212598425196851
        },
        {
          "duration": 0.008445937499999445,
          "durationTicks": 6,
          "midi": 45,
          "name": "A2",
          "ticks": 122130,
          "time": 171.91705781250002,
          "velocity": 0.3779527559055118
        },
        {
          "duration": 0.025337812499998336,
          "durationTicks": 18,
          "midi": 42,
          "name": "F#2",
          "ticks": 122248,
          "time": 172.08316125000002,
          "velocity": 0.4881889763779528
        },
        {
          "duration": 0.025337812499998336,
          "durationTicks": 18,
          "midi": 70,
          "name": "A#4",
          "ticks": 122248,
          "time": 172.08316125000002,
          "velocity": 0.7874015748031497
        },
        {
          "duration": 0.022522500000007994,
          "durationTicks": 16,
          "midi": 35,
          "name": "B1",
          "ticks": 122376,
          "time": 172.26334125,
          "velocity": 0.8582677165354331
        },
        {
          "duration": 0.022522500000007994,
          "durationTicks": 16,
          "midi": 69,
          "name": "A4",
          "ticks": 122376,
          "time": 172.26334125,
          "velocity": 0.4094488188976378
        },
        {
          "duration": 0.022522499999979573,
          "durationTicks": 16,
          "midi": 42,
          "name": "F#2",
          "ticks": 122506,
          "time": 172.44633656250002,
          "velocity": 0.4881889763779528
        },
        {
          "duration": 0.022522499999979573,
          "durationTicks": 16,
          "midi": 70,
          "name": "A#4",
          "ticks": 122506,
          "time": 172.44633656250002,
          "velocity": 0.8188976377952756
        },
        {
          "duration": 0.022522499999979573,
          "durationTicks": 16,
          "midi": 48,
          "name": "C3",
          "ticks": 122506,
          "time": 172.44633656250002,
          "velocity": 0.9448818897637795
        },
        {
          "duration": 0.01970718749998923,
          "durationTicks": 14,
          "midi": 69,
          "name": "A4",
          "ticks": 122634,
          "time": 172.6265165625,
          "velocity": 0.4094488188976378
        },
        {
          "duration": 0.01407656250000855,
          "durationTicks": 10,
          "midi": 42,
          "name": "F#2",
          "ticks": 122766,
          "time": 172.81232718750002,
          "velocity": 0.4881889763779528
        },
        {
          "duration": 0.01407656250000855,
          "durationTicks": 10,
          "midi": 70,
          "name": "A#4",
          "ticks": 122766,
          "time": 172.81232718750002,
          "velocity": 0.8503937007874016
        },
        {
          "duration": 0.01407656250000855,
          "durationTicks": 10,
          "midi": 45,
          "name": "A2",
          "ticks": 122766,
          "time": 172.81232718750002,
          "velocity": 0.47244094488188976
        },
        {
          "duration": 0.0014076562499951706,
          "durationTicks": 1,
          "midi": 69,
          "name": "A4",
          "ticks": 122902,
          "time": 173.0037684375,
          "velocity": 0.4094488188976378
        },
        {
          "duration": 0.0014076562499951706,
          "durationTicks": 1,
          "midi": 35,
          "name": "B1",
          "ticks": 122902,
          "time": 173.0037684375,
          "velocity": 0.9212598425196851
        },
        {
          "duration": 0.0014076562499951706,
          "durationTicks": 1,
          "midi": 45,
          "name": "A2",
          "ticks": 122902,
          "time": 173.0037684375,
          "velocity": 0.4094488188976378
        },
        {
          "duration": 0.019707187500017653,
          "durationTicks": 14,
          "midi": 42,
          "name": "F#2",
          "ticks": 123022,
          "time": 173.1726871875,
          "velocity": 0.4881889763779528
        },
        {
          "duration": 0.019707187500017653,
          "durationTicks": 14,
          "midi": 70,
          "name": "A#4",
          "ticks": 123022,
          "time": 173.1726871875,
          "velocity": 0.7874015748031497
        },
        {
          "duration": 0.01689187499999889,
          "durationTicks": 12,
          "midi": 69,
          "name": "A4",
          "ticks": 123150,
          "time": 173.3528671875,
          "velocity": 0.4094488188976378
        },
        {
          "duration": 0.01689187499999889,
          "durationTicks": 12,
          "midi": 35,
          "name": "B1",
          "ticks": 123150,
          "time": 173.3528671875,
          "velocity": 0.8267716535433071
        },
        {
          "duration": 0.025337812499998336,
          "durationTicks": 18,
          "midi": 42,
          "name": "F#2",
          "ticks": 123272,
          "time": 173.52460125,
          "velocity": 0.4881889763779528
        },
        {
          "duration": 0.025337812499998336,
          "durationTicks": 18,
          "midi": 70,
          "name": "A#4",
          "ticks": 123272,
          "time": 173.52460125,
          "velocity": 0.8188976377952756
        },
        {
          "duration": 0.025337812499998336,
          "durationTicks": 18,
          "midi": 48,
          "name": "C3",
          "ticks": 123272,
          "time": 173.52460125,
          "velocity": 0.9763779527559056
        },
        {
          "duration": 0.025337812499998336,
          "durationTicks": 18,
          "midi": 69,
          "name": "A4",
          "ticks": 123400,
          "time": 173.70478125000002,
          "velocity": 0.4094488188976378
        },
        {
          "duration": 0.01689187499999889,
          "durationTicks": 12,
          "midi": 42,
          "name": "F#2",
          "ticks": 123534,
          "time": 173.8934071875,
          "velocity": 0.4881889763779528
        },
        {
          "duration": 0.01689187499999889,
          "durationTicks": 12,
          "midi": 70,
          "name": "A#4",
          "ticks": 123534,
          "time": 173.8934071875,
          "velocity": 0.8503937007874016
        },
        {
          "duration": 0.01689187499999889,
          "durationTicks": 12,
          "midi": 45,
          "name": "A2",
          "ticks": 123534,
          "time": 173.8934071875,
          "velocity": 0.47244094488188976
        },
        {
          "duration": 0.014076562499980128,
          "durationTicks": 10,
          "midi": 69,
          "name": "A4",
          "ticks": 123664,
          "time": 174.07640250000003,
          "velocity": 0.4094488188976378
        },
        {
          "duration": 0.014076562499980128,
          "durationTicks": 10,
          "midi": 35,
          "name": "B1",
          "ticks": 123664,
          "time": 174.07640250000003,
          "velocity": 0.9212598425196851
        },
        {
          "duration": 0.014076562499980128,
          "durationTicks": 10,
          "midi": 45,
          "name": "A2",
          "ticks": 123664,
          "time": 174.07640250000003,
          "velocity": 0.4094488188976378
        },
        {
          "duration": 0.025337812499998336,
          "durationTicks": 18,
          "midi": 42,
          "name": "F#2",
          "ticks": 123784,
          "time": 174.24532125000002,
          "velocity": 0.4881889763779528
        },
        {
          "duration": 0.025337812499998336,
          "durationTicks": 18,
          "midi": 70,
          "name": "A#4",
          "ticks": 123784,
          "time": 174.24532125000002,
          "velocity": 0.7874015748031497
        },
        {
          "duration": 0.014076562499980128,
          "durationTicks": 10,
          "midi": 69,
          "name": "A4",
          "ticks": 123916,
          "time": 174.431131875,
          "velocity": 0.4094488188976378
        },
        {
          "duration": 0.014076562499980128,
          "durationTicks": 10,
          "midi": 35,
          "name": "B1",
          "ticks": 123916,
          "time": 174.431131875,
          "velocity": 0.8582677165354331
        },
        {
          "duration": 0.01689187499999889,
          "durationTicks": 12,
          "midi": 42,
          "name": "F#2",
          "ticks": 124044,
          "time": 174.611311875,
          "velocity": 0.4881889763779528
        },
        {
          "duration": 0.01689187499999889,
          "durationTicks": 12,
          "midi": 70,
          "name": "A#4",
          "ticks": 124044,
          "time": 174.611311875,
          "velocity": 0.8188976377952756
        },
        {
          "duration": 0.01689187499999889,
          "durationTicks": 12,
          "midi": 48,
          "name": "C3",
          "ticks": 124044,
          "time": 174.611311875,
          "velocity": 0.9448818897637795
        },
        {
          "duration": 0.01689187499999889,
          "durationTicks": 12,
          "midi": 69,
          "name": "A4",
          "ticks": 124170,
          "time": 174.7886765625,
          "velocity": 0.4094488188976378
        },
        {
          "duration": 0.022522500000007994,
          "durationTicks": 16,
          "midi": 45,
          "name": "A2",
          "ticks": 124296,
          "time": 174.96604125000002,
          "velocity": 0.47244094488188976
        },
        {
          "duration": 0.022522500000007994,
          "durationTicks": 16,
          "midi": 70,
          "name": "A#4",
          "ticks": 124296,
          "time": 174.96604125000002,
          "velocity": 0.8503937007874016
        },
        {
          "duration": 0.022522500000007994,
          "durationTicks": 16,
          "midi": 42,
          "name": "F#2",
          "ticks": 124296,
          "time": 174.96604125000002,
          "velocity": 0.4881889763779528
        },
        {
          "duration": 0.028153124999988677,
          "durationTicks": 20,
          "midi": 69,
          "name": "A4",
          "ticks": 124428,
          "time": 175.151851875,
          "velocity": 0.4094488188976378
        },
        {
          "duration": 0.028153124999988677,
          "durationTicks": 20,
          "midi": 35,
          "name": "B1",
          "ticks": 124428,
          "time": 175.151851875,
          "velocity": 0.9212598425196851
        },
        {
          "duration": 0.028153124999988677,
          "durationTicks": 20,
          "midi": 45,
          "name": "A2",
          "ticks": 124428,
          "time": 175.151851875,
          "velocity": 0.4094488188976378
        },
        {
          "duration": 0.014076562499980128,
          "durationTicks": 10,
          "midi": 42,
          "name": "F#2",
          "ticks": 124558,
          "time": 175.3348471875,
          "velocity": 0.4881889763779528
        },
        {
          "duration": 0.014076562499980128,
          "durationTicks": 10,
          "midi": 70,
          "name": "A#4",
          "ticks": 124558,
          "time": 175.3348471875,
          "velocity": 0.7874015748031497
        },
        {
          "duration": 0.01970718749998923,
          "durationTicks": 14,
          "midi": 69,
          "name": "A4",
          "ticks": 124684,
          "time": 175.51221187500002,
          "velocity": 0.4094488188976378
        },
        {
          "duration": 0.01970718749998923,
          "durationTicks": 14,
          "midi": 35,
          "name": "B1",
          "ticks": 124684,
          "time": 175.51221187500002,
          "velocity": 0.8267716535433071
        },
        {
          "duration": 0.014076562499980128,
          "durationTicks": 10,
          "midi": 42,
          "name": "F#2",
          "ticks": 124816,
          "time": 175.6980225,
          "velocity": 0.4881889763779528
        },
        {
          "duration": 0.014076562499980128,
          "durationTicks": 10,
          "midi": 70,
          "name": "A#4",
          "ticks": 124816,
          "time": 175.6980225,
          "velocity": 0.8188976377952756
        },
        {
          "duration": 0.014076562499980128,
          "durationTicks": 10,
          "midi": 48,
          "name": "C3",
          "ticks": 124816,
          "time": 175.6980225,
          "velocity": 0.9763779527559056
        },
        {
          "duration": 0.025337812499998336,
          "durationTicks": 18,
          "midi": 69,
          "name": "A4",
          "ticks": 124936,
          "time": 175.86694125000002,
          "velocity": 0.4094488188976378
        },
        {
          "duration": 0.022522500000007994,
          "durationTicks": 16,
          "midi": 45,
          "name": "A2",
          "ticks": 125064,
          "time": 176.04712125,
          "velocity": 0.47244094488188976
        },
        {
          "duration": 0.022522500000007994,
          "durationTicks": 16,
          "midi": 70,
          "name": "A#4",
          "ticks": 125064,
          "time": 176.04712125,
          "velocity": 0.8503937007874016
        },
        {
          "duration": 0.022522500000007994,
          "durationTicks": 16,
          "midi": 42,
          "name": "F#2",
          "ticks": 125064,
          "time": 176.04712125,
          "velocity": 0.4881889763779528
        },
        {
          "duration": 0.014076562499980128,
          "durationTicks": 10,
          "midi": 69,
          "name": "A4",
          "ticks": 125200,
          "time": 176.23856250000003,
          "velocity": 0.4094488188976378
        },
        {
          "duration": 0.014076562499980128,
          "durationTicks": 10,
          "midi": 35,
          "name": "B1",
          "ticks": 125200,
          "time": 176.23856250000003,
          "velocity": 0.9212598425196851
        },
        {
          "duration": 0.014076562499980128,
          "durationTicks": 10,
          "midi": 45,
          "name": "A2",
          "ticks": 125200,
          "time": 176.23856250000003,
          "velocity": 0.4094488188976378
        },
        {
          "duration": 0.01689187499999889,
          "durationTicks": 12,
          "midi": 42,
          "name": "F#2",
          "ticks": 125324,
          "time": 176.413111875,
          "velocity": 0.4881889763779528
        },
        {
          "duration": 0.01689187499999889,
          "durationTicks": 12,
          "midi": 70,
          "name": "A#4",
          "ticks": 125324,
          "time": 176.413111875,
          "velocity": 0.7874015748031497
        },
        {
          "duration": 0.01970718749998923,
          "durationTicks": 14,
          "midi": 69,
          "name": "A4",
          "ticks": 125452,
          "time": 176.593291875,
          "velocity": 0.4094488188976378
        },
        {
          "duration": 0.01970718749998923,
          "durationTicks": 14,
          "midi": 35,
          "name": "B1",
          "ticks": 125452,
          "time": 176.593291875,
          "velocity": 0.8582677165354331
        },
        {
          "duration": 0.019707187500017653,
          "durationTicks": 14,
          "midi": 42,
          "name": "F#2",
          "ticks": 125582,
          "time": 176.7762871875,
          "velocity": 0.4881889763779528
        },
        {
          "duration": 0.019707187500017653,
          "durationTicks": 14,
          "midi": 70,
          "name": "A#4",
          "ticks": 125582,
          "time": 176.7762871875,
          "velocity": 0.8188976377952756
        },
        {
          "duration": 0.019707187500017653,
          "durationTicks": 14,
          "midi": 48,
          "name": "C3",
          "ticks": 125582,
          "time": 176.7762871875,
          "velocity": 0.9448818897637795
        },
        {
          "duration": 0.022522499999979573,
          "durationTicks": 16,
          "midi": 69,
          "name": "A4",
          "ticks": 125704,
          "time": 176.94802125,
          "velocity": 0.4094488188976378
        },
        {
          "duration": 0.01970718749998923,
          "durationTicks": 14,
          "midi": 42,
          "name": "F#2",
          "ticks": 125836,
          "time": 177.13383187500003,
          "velocity": 0.4881889763779528
        },
        {
          "duration": 0.01970718749998923,
          "durationTicks": 14,
          "midi": 70,
          "name": "A#4",
          "ticks": 125836,
          "time": 177.13383187500003,
          "velocity": 0.8503937007874016
        },
        {
          "duration": 0.01970718749998923,
          "durationTicks": 14,
          "midi": 45,
          "name": "A2",
          "ticks": 125836,
          "time": 177.13383187500003,
          "velocity": 0.47244094488188976
        },
        {
          "duration": 0.025337812499998336,
          "durationTicks": 18,
          "midi": 69,
          "name": "A4",
          "ticks": 125964,
          "time": 177.314011875,
          "velocity": 0.4094488188976378
        },
        {
          "duration": 0.025337812499998336,
          "durationTicks": 18,
          "midi": 35,
          "name": "B1",
          "ticks": 125964,
          "time": 177.314011875,
          "velocity": 0.9212598425196851
        },
        {
          "duration": 0.025337812499998336,
          "durationTicks": 18,
          "midi": 45,
          "name": "A2",
          "ticks": 125964,
          "time": 177.314011875,
          "velocity": 0.4094488188976378
        },
        {
          "duration": 0.014076562500036971,
          "durationTicks": 10,
          "midi": 42,
          "name": "F#2",
          "ticks": 126096,
          "time": 177.4998225,
          "velocity": 0.4881889763779528
        },
        {
          "duration": 0.014076562500036971,
          "durationTicks": 10,
          "midi": 70,
          "name": "A#4",
          "ticks": 126096,
          "time": 177.4998225,
          "velocity": 0.7874015748031497
        },
        {
          "duration": 0.022522500000007994,
          "durationTicks": 16,
          "midi": 35,
          "name": "B1",
          "ticks": 126216,
          "time": 177.66874125,
          "velocity": 0.8267716535433071
        },
        {
          "duration": 0.022522500000007994,
          "durationTicks": 16,
          "midi": 69,
          "name": "A4",
          "ticks": 126216,
          "time": 177.66874125,
          "velocity": 0.4094488188976378
        },
        {
          "duration": 0.025337812499998336,
          "durationTicks": 18,
          "midi": 42,
          "name": "F#2",
          "ticks": 126346,
          "time": 177.8517365625,
          "velocity": 0.4881889763779528
        },
        {
          "duration": 0.025337812499998336,
          "durationTicks": 18,
          "midi": 70,
          "name": "A#4",
          "ticks": 126346,
          "time": 177.8517365625,
          "velocity": 0.8188976377952756
        },
        {
          "duration": 0.025337812499998336,
          "durationTicks": 18,
          "midi": 48,
          "name": "C3",
          "ticks": 126346,
          "time": 177.8517365625,
          "velocity": 0.9763779527559056
        },
        {
          "duration": 0.01689187499999889,
          "durationTicks": 12,
          "midi": 69,
          "name": "A4",
          "ticks": 126474,
          "time": 178.03191656250002,
          "velocity": 0.4094488188976378
        },
        {
          "duration": 0.028153124999988677,
          "durationTicks": 20,
          "midi": 45,
          "name": "A2",
          "ticks": 126600,
          "time": 178.20928125,
          "velocity": 0.47244094488188976
        },
        {
          "duration": 0.028153124999988677,
          "durationTicks": 20,
          "midi": 70,
          "name": "A#4",
          "ticks": 126600,
          "time": 178.20928125,
          "velocity": 0.8503937007874016
        },
        {
          "duration": 0.028153124999988677,
          "durationTicks": 20,
          "midi": 42,
          "name": "F#2",
          "ticks": 126600,
          "time": 178.20928125,
          "velocity": 0.4881889763779528
        },
        {
          "duration": 0.01970718749998923,
          "durationTicks": 14,
          "midi": 69,
          "name": "A4",
          "ticks": 126730,
          "time": 178.39227656250003,
          "velocity": 0.4094488188976378
        },
        {
          "duration": 0.01970718749998923,
          "durationTicks": 14,
          "midi": 35,
          "name": "B1",
          "ticks": 126730,
          "time": 178.39227656250003,
          "velocity": 0.9212598425196851
        },
        {
          "duration": 0.01970718749998923,
          "durationTicks": 14,
          "midi": 45,
          "name": "A2",
          "ticks": 126730,
          "time": 178.39227656250003,
          "velocity": 0.4094488188976378
        },
        {
          "duration": 0.025337812499998336,
          "durationTicks": 18,
          "midi": 42,
          "name": "F#2",
          "ticks": 126856,
          "time": 178.56964125000002,
          "velocity": 0.4881889763779528
        },
        {
          "duration": 0.025337812499998336,
          "durationTicks": 18,
          "midi": 70,
          "name": "A#4",
          "ticks": 126856,
          "time": 178.56964125000002,
          "velocity": 0.7874015748031497
        },
        {
          "duration": 0.01689187499999889,
          "durationTicks": 12,
          "midi": 69,
          "name": "A4",
          "ticks": 126988,
          "time": 178.755451875,
          "velocity": 0.4094488188976378
        },
        {
          "duration": 0.01689187499999889,
          "durationTicks": 12,
          "midi": 35,
          "name": "B1",
          "ticks": 126988,
          "time": 178.755451875,
          "velocity": 0.8582677165354331
        },
        {
          "duration": 0.01689187499999889,
          "durationTicks": 12,
          "midi": 42,
          "name": "F#2",
          "ticks": 127118,
          "time": 178.9384471875,
          "velocity": 0.4881889763779528
        },
        {
          "duration": 0.01689187499999889,
          "durationTicks": 12,
          "midi": 70,
          "name": "A#4",
          "ticks": 127118,
          "time": 178.9384471875,
          "velocity": 0.8188976377952756
        },
        {
          "duration": 0.01689187499999889,
          "durationTicks": 12,
          "midi": 48,
          "name": "C3",
          "ticks": 127118,
          "time": 178.9384471875,
          "velocity": 0.9448818897637795
        },
        {
          "duration": 0.022522499999979573,
          "durationTicks": 16,
          "midi": 69,
          "name": "A4",
          "ticks": 127240,
          "time": 179.11018125,
          "velocity": 0.4094488188976378
        },
        {
          "duration": 0.01689187499999889,
          "durationTicks": 12,
          "midi": 42,
          "name": "F#2",
          "ticks": 127374,
          "time": 179.29880718750002,
          "velocity": 0.4881889763779528
        },
        {
          "duration": 0.01689187499999889,
          "durationTicks": 12,
          "midi": 70,
          "name": "A#4",
          "ticks": 127374,
          "time": 179.29880718750002,
          "velocity": 0.8503937007874016
        },
        {
          "duration": 0.01689187499999889,
          "durationTicks": 12,
          "midi": 45,
          "name": "A2",
          "ticks": 127374,
          "time": 179.29880718750002,
          "velocity": 0.47244094488188976
        },
        {
          "duration": 0.0014076562499951706,
          "durationTicks": 1,
          "midi": 69,
          "name": "A4",
          "ticks": 127510,
          "time": 179.49024843750001,
          "velocity": 0.4094488188976378
        },
        {
          "duration": 0.0014076562499951706,
          "durationTicks": 1,
          "midi": 35,
          "name": "B1",
          "ticks": 127510,
          "time": 179.49024843750001,
          "velocity": 0.9212598425196851
        },
        {
          "duration": 0.0014076562499951706,
          "durationTicks": 1,
          "midi": 45,
          "name": "A2",
          "ticks": 127510,
          "time": 179.49024843750001,
          "velocity": 0.4094488188976378
        },
        {
          "duration": 0.025337812500026757,
          "durationTicks": 18,
          "midi": 42,
          "name": "F#2",
          "ticks": 127624,
          "time": 179.65072125,
          "velocity": 0.4881889763779528
        },
        {
          "duration": 0.025337812500026757,
          "durationTicks": 18,
          "midi": 70,
          "name": "A#4",
          "ticks": 127624,
          "time": 179.65072125,
          "velocity": 0.7874015748031497
        },
        {
          "duration": 0.01970718749998923,
          "durationTicks": 14,
          "midi": 69,
          "name": "A4",
          "ticks": 127756,
          "time": 179.83653187500002,
          "velocity": 0.4094488188976378
        },
        {
          "duration": 0.01970718749998923,
          "durationTicks": 14,
          "midi": 35,
          "name": "B1",
          "ticks": 127756,
          "time": 179.83653187500002,
          "velocity": 0.8267716535433071
        },
        {
          "duration": 0.01689187499999889,
          "durationTicks": 12,
          "midi": 42,
          "name": "F#2",
          "ticks": 127886,
          "time": 180.0195271875,
          "velocity": 0.4881889763779528
        },
        {
          "duration": 0.01689187499999889,
          "durationTicks": 12,
          "midi": 70,
          "name": "A#4",
          "ticks": 127886,
          "time": 180.0195271875,
          "velocity": 0.8188976377952756
        },
        {
          "duration": 0.01689187499999889,
          "durationTicks": 12,
          "midi": 48,
          "name": "C3",
          "ticks": 127886,
          "time": 180.0195271875,
          "velocity": 0.9763779527559056
        },
        {
          "duration": 0.022522500000007994,
          "durationTicks": 16,
          "midi": 69,
          "name": "A4",
          "ticks": 128010,
          "time": 180.19407656250002,
          "velocity": 0.4094488188976378
        },
        {
          "duration": 0.01407656250000855,
          "durationTicks": 10,
          "midi": 45,
          "name": "A2",
          "ticks": 128144,
          "time": 180.3827025,
          "velocity": 0.47244094488188976
        },
        {
          "duration": 0.01407656250000855,
          "durationTicks": 10,
          "midi": 70,
          "name": "A#4",
          "ticks": 128144,
          "time": 180.3827025,
          "velocity": 0.8503937007874016
        },
        {
          "duration": 0.01407656250000855,
          "durationTicks": 10,
          "midi": 42,
          "name": "F#2",
          "ticks": 128144,
          "time": 180.3827025,
          "velocity": 0.4881889763779528
        },
        {
          "duration": 0.0014076562499951706,
          "durationTicks": 1,
          "midi": 69,
          "name": "A4",
          "ticks": 128268,
          "time": 180.55725187500002,
          "velocity": 0.4094488188976378
        },
        {
          "duration": 0.0014076562499951706,
          "durationTicks": 1,
          "midi": 35,
          "name": "B1",
          "ticks": 128268,
          "time": 180.55725187500002,
          "velocity": 0.9212598425196851
        },
        {
          "duration": 0.0014076562499951706,
          "durationTicks": 1,
          "midi": 45,
          "name": "A2",
          "ticks": 128268,
          "time": 180.55725187500002,
          "velocity": 0.4094488188976378
        },
        {
          "duration": 0.01407656250000855,
          "durationTicks": 10,
          "midi": 42,
          "name": "F#2",
          "ticks": 128400,
          "time": 180.7430625,
          "velocity": 0.4881889763779528
        },
        {
          "duration": 0.01407656250000855,
          "durationTicks": 10,
          "midi": 70,
          "name": "A#4",
          "ticks": 128400,
          "time": 180.7430625,
          "velocity": 0.7874015748031497
        },
        {
          "duration": 0.01970718749998923,
          "durationTicks": 14,
          "midi": 69,
          "name": "A4",
          "ticks": 128524,
          "time": 180.917611875,
          "velocity": 0.4094488188976378
        },
        {
          "duration": 0.01970718749998923,
          "durationTicks": 14,
          "midi": 35,
          "name": "B1",
          "ticks": 128524,
          "time": 180.917611875,
          "velocity": 0.8582677165354331
        },
        {
          "duration": 0.01689187499999889,
          "durationTicks": 12,
          "midi": 42,
          "name": "F#2",
          "ticks": 128654,
          "time": 181.1006071875,
          "velocity": 0.4881889763779528
        },
        {
          "duration": 0.01689187499999889,
          "durationTicks": 12,
          "midi": 70,
          "name": "A#4",
          "ticks": 128654,
          "time": 181.1006071875,
          "velocity": 0.8188976377952756
        },
        {
          "duration": 0.01689187499999889,
          "durationTicks": 12,
          "midi": 48,
          "name": "C3",
          "ticks": 128654,
          "time": 181.1006071875,
          "velocity": 0.9448818897637795
        },
        {
          "duration": 0.01689187499999889,
          "durationTicks": 12,
          "midi": 69,
          "name": "A4",
          "ticks": 128780,
          "time": 181.277971875,
          "velocity": 0.4094488188976378
        },
        {
          "duration": 0.011261249999989786,
          "durationTicks": 8,
          "midi": 42,
          "name": "F#2",
          "ticks": 128910,
          "time": 181.46096718750002,
          "velocity": 0.4881889763779528
        },
        {
          "duration": 0.011261249999989786,
          "durationTicks": 8,
          "midi": 70,
          "name": "A#4",
          "ticks": 128910,
          "time": 181.46096718750002,
          "velocity": 0.8503937007874016
        },
        {
          "duration": 0.011261249999989786,
          "durationTicks": 8,
          "midi": 45,
          "name": "A2",
          "ticks": 128910,
          "time": 181.46096718750002,
          "velocity": 0.47244094488188976
        },
        {
          "duration": 0.0014076562499951706,
          "durationTicks": 1,
          "midi": 69,
          "name": "A4",
          "ticks": 129034,
          "time": 181.63551656250002,
          "velocity": 0.4094488188976378
        },
        {
          "duration": 0.0014076562499951706,
          "durationTicks": 1,
          "midi": 35,
          "name": "B1",
          "ticks": 129034,
          "time": 181.63551656250002,
          "velocity": 0.9212598425196851
        },
        {
          "duration": 0.0014076562499951706,
          "durationTicks": 1,
          "midi": 45,
          "name": "A2",
          "ticks": 129034,
          "time": 181.63551656250002,
          "velocity": 0.4094488188976378
        },
        {
          "duration": 0.016891875000027312,
          "durationTicks": 12,
          "midi": 42,
          "name": "F#2",
          "ticks": 129166,
          "time": 181.8213271875,
          "velocity": 0.4881889763779528
        },
        {
          "duration": 0.016891875000027312,
          "durationTicks": 12,
          "midi": 70,
          "name": "A#4",
          "ticks": 129166,
          "time": 181.8213271875,
          "velocity": 0.7874015748031497
        },
        {
          "duration": 0.01689187499999889,
          "durationTicks": 12,
          "midi": 69,
          "name": "A4",
          "ticks": 129294,
          "time": 182.0015071875,
          "velocity": 0.4094488188976378
        },
        {
          "duration": 0.01689187499999889,
          "durationTicks": 12,
          "midi": 35,
          "name": "B1",
          "ticks": 129294,
          "time": 182.0015071875,
          "velocity": 0.8267716535433071
        },
        {
          "duration": 0.005630625000009104,
          "durationTicks": 4,
          "midi": 42,
          "name": "F#2",
          "ticks": 129426,
          "time": 182.1873178125,
          "velocity": 0.4881889763779528
        },
        {
          "duration": 0.005630625000009104,
          "durationTicks": 4,
          "midi": 70,
          "name": "A#4",
          "ticks": 129426,
          "time": 182.1873178125,
          "velocity": 0.8188976377952756
        },
        {
          "duration": 0.005630625000009104,
          "durationTicks": 4,
          "midi": 48,
          "name": "C3",
          "ticks": 129426,
          "time": 182.1873178125,
          "velocity": 0.8818897637795275
        },
        {
          "duration": 0.022522499999979573,
          "durationTicks": 16,
          "midi": 69,
          "name": "A4",
          "ticks": 129544,
          "time": 182.35342125000003,
          "velocity": 0.4094488188976378
        },
        {
          "duration": 0.025337812499998336,
          "durationTicks": 18,
          "midi": 45,
          "name": "A2",
          "ticks": 129672,
          "time": 182.53360125,
          "velocity": 0.47244094488188976
        },
        {
          "duration": 0.025337812499998336,
          "durationTicks": 18,
          "midi": 70,
          "name": "A#4",
          "ticks": 129672,
          "time": 182.53360125,
          "velocity": 0.8503937007874016
        },
        {
          "duration": 0.025337812499998336,
          "durationTicks": 18,
          "midi": 42,
          "name": "F#2",
          "ticks": 129672,
          "time": 182.53360125,
          "velocity": 0.4881889763779528
        },
        {
          "duration": 0.0014076562499667489,
          "durationTicks": 1,
          "midi": 69,
          "name": "A4",
          "ticks": 129814,
          "time": 182.73348843750003,
          "velocity": 0.4094488188976378
        },
        {
          "duration": 0.0014076562499667489,
          "durationTicks": 1,
          "midi": 35,
          "name": "B1",
          "ticks": 129814,
          "time": 182.73348843750003,
          "velocity": 0.9212598425196851
        },
        {
          "duration": 0.0014076562499667489,
          "durationTicks": 1,
          "midi": 45,
          "name": "A2",
          "ticks": 129814,
          "time": 182.73348843750003,
          "velocity": 0.4094488188976378
        },
        {
          "duration": 0.01689187499999889,
          "durationTicks": 12,
          "midi": 42,
          "name": "F#2",
          "ticks": 129934,
          "time": 182.90240718750002,
          "velocity": 0.4881889763779528
        },
        {
          "duration": 0.01689187499999889,
          "durationTicks": 12,
          "midi": 70,
          "name": "A#4",
          "ticks": 129934,
          "time": 182.90240718750002,
          "velocity": 0.7874015748031497
        },
        {
          "duration": 0.01689187499999889,
          "durationTicks": 12,
          "midi": 48,
          "name": "C3",
          "ticks": 129934,
          "time": 182.90240718750002,
          "velocity": 0.8818897637795275
        },
        {
          "duration": 0.028153124999988677,
          "durationTicks": 20,
          "midi": 69,
          "name": "A4",
          "ticks": 130054,
          "time": 183.0713259375,
          "velocity": 0.4094488188976378
        },
        {
          "duration": 0.028153124999988677,
          "durationTicks": 20,
          "midi": 35,
          "name": "B1",
          "ticks": 130054,
          "time": 183.0713259375,
          "velocity": 0.8582677165354331
        },
        {
          "duration": 0.025337812499998336,
          "durationTicks": 18,
          "midi": 42,
          "name": "F#2",
          "ticks": 130184,
          "time": 183.25432125,
          "velocity": 0.4881889763779528
        },
        {
          "duration": 0.025337812499998336,
          "durationTicks": 18,
          "midi": 70,
          "name": "A#4",
          "ticks": 130184,
          "time": 183.25432125,
          "velocity": 0.8188976377952756
        },
        {
          "duration": 0.025337812499998336,
          "durationTicks": 18,
          "midi": 48,
          "name": "C3",
          "ticks": 130184,
          "time": 183.25432125,
          "velocity": 0.9763779527559056
        },
        {
          "duration": 0.01689187499999889,
          "durationTicks": 12,
          "midi": 69,
          "name": "A4",
          "ticks": 130314,
          "time": 183.4373165625,
          "velocity": 0.4094488188976378
        },
        {
          "duration": 0.01689187499999889,
          "durationTicks": 12,
          "midi": 42,
          "name": "F#2",
          "ticks": 130446,
          "time": 183.62312718750002,
          "velocity": 0.4881889763779528
        },
        {
          "duration": 0.01689187499999889,
          "durationTicks": 12,
          "midi": 70,
          "name": "A#4",
          "ticks": 130446,
          "time": 183.62312718750002,
          "velocity": 0.8503937007874016
        },
        {
          "duration": 0.01689187499999889,
          "durationTicks": 12,
          "midi": 48,
          "name": "C3",
          "ticks": 130446,
          "time": 183.62312718750002,
          "velocity": 0.8503937007874016
        },
        {
          "duration": 0.01689187499999889,
          "durationTicks": 12,
          "midi": 45,
          "name": "A2",
          "ticks": 130446,
          "time": 183.62312718750002,
          "velocity": 0.47244094488188976
        },
        {
          "duration": 0.0014076562499951706,
          "durationTicks": 1,
          "midi": 69,
          "name": "A4",
          "ticks": 130582,
          "time": 183.81456843750001,
          "velocity": 0.4094488188976378
        },
        {
          "duration": 0.0014076562499951706,
          "durationTicks": 1,
          "midi": 35,
          "name": "B1",
          "ticks": 130582,
          "time": 183.81456843750001,
          "velocity": 1
        },
        {
          "duration": 0.0014076562500235923,
          "durationTicks": 1,
          "midi": 42,
          "name": "F#2",
          "ticks": 130706,
          "time": 183.98911781249998,
          "velocity": 0.4881889763779528
        },
        {
          "duration": 0.0014076562500235923,
          "durationTicks": 1,
          "midi": 70,
          "name": "A#4",
          "ticks": 130706,
          "time": 183.98911781249998,
          "velocity": 0.7874015748031497
        },
        {
          "duration": 0.0014076562500235923,
          "durationTicks": 1,
          "midi": 48,
          "name": "C3",
          "ticks": 130706,
          "time": 183.98911781249998,
          "velocity": 0.9763779527559056
        },
        {
          "duration": 0.008445937499999445,
          "durationTicks": 6,
          "midi": 35,
          "name": "B1",
          "ticks": 130832,
          "time": 184.1664825,
          "velocity": 0.889763779527559
        },
        {
          "duration": 0.008445937499999445,
          "durationTicks": 6,
          "midi": 69,
          "name": "A4",
          "ticks": 130832,
          "time": 184.1664825,
          "velocity": 0.4094488188976378
        },
        {
          "duration": 0.0014076562499951706,
          "durationTicks": 1,
          "midi": 42,
          "name": "F#2",
          "ticks": 130966,
          "time": 184.3551084375,
          "velocity": 0.4881889763779528
        },
        {
          "duration": 0.0014076562499951706,
          "durationTicks": 1,
          "midi": 70,
          "name": "A#4",
          "ticks": 130966,
          "time": 184.3551084375,
          "velocity": 0.8188976377952756
        },
        {
          "duration": 0.0014076562499951706,
          "durationTicks": 1,
          "midi": 0,
          "name": "C-1",
          "ticks": 130966,
          "time": 184.3551084375,
          "velocity": 0.6929133858267716
        },
        {
          "duration": 0.0014076562499951706,
          "durationTicks": 1,
          "midi": 48,
          "name": "C3",
          "ticks": 130966,
          "time": 184.3551084375,
          "velocity": 0.8818897637795275
        },
        {
          "duration": 0.01689187499999889,
          "durationTicks": 12,
          "midi": 69,
          "name": "A4",
          "ticks": 131084,
          "time": 184.521211875,
          "velocity": 0.4094488188976378
        },
        {
          "duration": 0.0014076562500235923,
          "durationTicks": 1,
          "midi": 42,
          "name": "F#2",
          "ticks": 131220,
          "time": 184.712653125,
          "velocity": 0.4881889763779528
        },
        {
          "duration": 0.0014076562500235923,
          "durationTicks": 1,
          "midi": 70,
          "name": "A#4",
          "ticks": 131220,
          "time": 184.712653125,
          "velocity": 0.8503937007874016
        },
        {
          "duration": 0.0014076562500235923,
          "durationTicks": 1,
          "midi": 45,
          "name": "A2",
          "ticks": 131220,
          "time": 184.712653125,
          "velocity": 0.4094488188976378
        },
        {
          "duration": 0.008445937499999445,
          "durationTicks": 6,
          "midi": 69,
          "name": "A4",
          "ticks": 131346,
          "time": 184.89001781250002,
          "velocity": 0.4094488188976378
        },
        {
          "duration": 0.008445937499999445,
          "durationTicks": 6,
          "midi": 35,
          "name": "B1",
          "ticks": 131346,
          "time": 184.89001781250002,
          "velocity": 0.9212598425196851
        },
        {
          "duration": 0.008445937499999445,
          "durationTicks": 6,
          "midi": 45,
          "name": "A2",
          "ticks": 131346,
          "time": 184.89001781250002,
          "velocity": 0.3779527559055118
        },
        {
          "duration": 0.01689187499999889,
          "durationTicks": 12,
          "midi": 42,
          "name": "F#2",
          "ticks": 131470,
          "time": 185.06456718750002,
          "velocity": 0.4881889763779528
        },
        {
          "duration": 0.01689187499999889,
          "durationTicks": 12,
          "midi": 70,
          "name": "A#4",
          "ticks": 131470,
          "time": 185.06456718750002,
          "velocity": 0.7874015748031497
        },
        {
          "duration": 0.011261250000018208,
          "durationTicks": 8,
          "midi": 35,
          "name": "B1",
          "ticks": 131600,
          "time": 185.2475625,
          "velocity": 0.8582677165354331
        },
        {
          "duration": 0.011261250000018208,
          "durationTicks": 8,
          "midi": 69,
          "name": "A4",
          "ticks": 131600,
          "time": 185.2475625,
          "velocity": 0.4094488188976378
        },
        {
          "duration": 0.011261249999989786,
          "durationTicks": 8,
          "midi": 42,
          "name": "F#2",
          "ticks": 131728,
          "time": 185.42774250000002,
          "velocity": 0.4881889763779528
        },
        {
          "duration": 0.011261249999989786,
          "durationTicks": 8,
          "midi": 70,
          "name": "A#4",
          "ticks": 131728,
          "time": 185.42774250000002,
          "velocity": 0.8188976377952756
        },
        {
          "duration": 0.011261249999989786,
          "durationTicks": 8,
          "midi": 48,
          "name": "C3",
          "ticks": 131728,
          "time": 185.42774250000002,
          "velocity": 0.9448818897637795
        },
        {
          "duration": 0.01689187499999889,
          "durationTicks": 12,
          "midi": 69,
          "name": "A4",
          "ticks": 131852,
          "time": 185.602291875,
          "velocity": 0.4094488188976378
        },
        {
          "duration": 0.0014076562499951706,
          "durationTicks": 1,
          "midi": 45,
          "name": "A2",
          "ticks": 131984,
          "time": 185.7881025,
          "velocity": 0.47244094488188976
        },
        {
          "duration": 0.0014076562499951706,
          "durationTicks": 1,
          "midi": 70,
          "name": "A#4",
          "ticks": 131984,
          "time": 185.7881025,
          "velocity": 0.8503937007874016
        },
        {
          "duration": 0.0014076562499951706,
          "durationTicks": 1,
          "midi": 42,
          "name": "F#2",
          "ticks": 131984,
          "time": 185.7881025,
          "velocity": 0.4881889763779528
        },
        {
          "duration": 0.0014076562499951706,
          "durationTicks": 1,
          "midi": 69,
          "name": "A4",
          "ticks": 132118,
          "time": 185.97672843750001,
          "velocity": 0.4094488188976378
        },
        {
          "duration": 0.0014076562499951706,
          "durationTicks": 1,
          "midi": 35,
          "name": "B1",
          "ticks": 132118,
          "time": 185.97672843750001,
          "velocity": 0.9212598425196851
        },
        {
          "duration": 0.0014076562499951706,
          "durationTicks": 1,
          "midi": 45,
          "name": "A2",
          "ticks": 132118,
          "time": 185.97672843750001,
          "velocity": 0.4094488188976378
        },
        {
          "duration": 0.0014076562499667489,
          "durationTicks": 1,
          "midi": 42,
          "name": "F#2",
          "ticks": 132244,
          "time": 186.15409312500003,
          "velocity": 0.4881889763779528
        },
        {
          "duration": 0.0014076562499667489,
          "durationTicks": 1,
          "midi": 70,
          "name": "A#4",
          "ticks": 132244,
          "time": 186.15409312500003,
          "velocity": 0.7874015748031497
        },
        {
          "duration": 0.01689187499999889,
          "durationTicks": 12,
          "midi": 35,
          "name": "B1",
          "ticks": 132368,
          "time": 186.3286425,
          "velocity": 0.8267716535433071
        },
        {
          "duration": 0.01689187499999889,
          "durationTicks": 12,
          "midi": 69,
          "name": "A4",
          "ticks": 132368,
          "time": 186.3286425,
          "velocity": 0.4094488188976378
        },
        {
          "duration": 0.025337812499998336,
          "durationTicks": 18,
          "midi": 42,
          "name": "F#2",
          "ticks": 132488,
          "time": 186.49756125,
          "velocity": 0.4881889763779528
        },
        {
          "duration": 0.025337812499998336,
          "durationTicks": 18,
          "midi": 70,
          "name": "A#4",
          "ticks": 132488,
          "time": 186.49756125,
          "velocity": 0.8188976377952756
        },
        {
          "duration": 0.025337812499998336,
          "durationTicks": 18,
          "midi": 48,
          "name": "C3",
          "ticks": 132488,
          "time": 186.49756125,
          "velocity": 0.9763779527559056
        },
        {
          "duration": 0.01689187499999889,
          "durationTicks": 12,
          "midi": 69,
          "name": "A4",
          "ticks": 132622,
          "time": 186.68618718750002,
          "velocity": 0.4094488188976378
        },
        {
          "duration": 0.011261249999989786,
          "durationTicks": 8,
          "midi": 42,
          "name": "F#2",
          "ticks": 132754,
          "time": 186.8719978125,
          "velocity": 0.4881889763779528
        },
        {
          "duration": 0.011261249999989786,
          "durationTicks": 8,
          "midi": 70,
          "name": "A#4",
          "ticks": 132754,
          "time": 186.8719978125,
          "velocity": 0.8503937007874016
        },
        {
          "duration": 0.011261249999989786,
          "durationTicks": 8,
          "midi": 45,
          "name": "A2",
          "ticks": 132754,
          "time": 186.8719978125,
          "velocity": 0.47244094488188976
        },
        {
          "duration": 0.014076562499980128,
          "durationTicks": 10,
          "midi": 69,
          "name": "A4",
          "ticks": 132880,
          "time": 187.04936250000003,
          "velocity": 0.4094488188976378
        },
        {
          "duration": 0.014076562499980128,
          "durationTicks": 10,
          "midi": 35,
          "name": "B1",
          "ticks": 132880,
          "time": 187.04936250000003,
          "velocity": 0.9212598425196851
        },
        {
          "duration": 0.014076562499980128,
          "durationTicks": 10,
          "midi": 45,
          "name": "A2",
          "ticks": 132880,
          "time": 187.04936250000003,
          "velocity": 0.4094488188976378
        },
        {
          "duration": 0.014076562499980128,
          "durationTicks": 10,
          "midi": 42,
          "name": "F#2",
          "ticks": 133006,
          "time": 187.22672718750002,
          "velocity": 0.4881889763779528
        },
        {
          "duration": 0.014076562499980128,
          "durationTicks": 10,
          "midi": 70,
          "name": "A#4",
          "ticks": 133006,
          "time": 187.22672718750002,
          "velocity": 0.7874015748031497
        },
        {
          "duration": 0.0014076562499951706,
          "durationTicks": 1,
          "midi": 69,
          "name": "A4",
          "ticks": 133138,
          "time": 187.4125378125,
          "velocity": 0.4094488188976378
        },
        {
          "duration": 0.0014076562499951706,
          "durationTicks": 1,
          "midi": 35,
          "name": "B1",
          "ticks": 133138,
          "time": 187.4125378125,
          "velocity": 0.8582677165354331
        },
        {
          "duration": 0.011261249999989786,
          "durationTicks": 8,
          "midi": 42,
          "name": "F#2",
          "ticks": 133264,
          "time": 187.58990250000002,
          "velocity": 0.4881889763779528
        },
        {
          "duration": 0.011261249999989786,
          "durationTicks": 8,
          "midi": 70,
          "name": "A#4",
          "ticks": 133264,
          "time": 187.58990250000002,
          "velocity": 0.8188976377952756
        },
        {
          "duration": 0.011261249999989786,
          "durationTicks": 8,
          "midi": 48,
          "name": "C3",
          "ticks": 133264,
          "time": 187.58990250000002,
          "velocity": 0.9448818897637795
        },
        {
          "duration": 0.01970718749998923,
          "durationTicks": 14,
          "midi": 69,
          "name": "A4",
          "ticks": 133384,
          "time": 187.75882125,
          "velocity": 0.4094488188976378
        },
        {
          "duration": 0.028153124999988677,
          "durationTicks": 20,
          "midi": 45,
          "name": "A2",
          "ticks": 133512,
          "time": 187.93900125000002,
          "velocity": 0.47244094488188976
        },
        {
          "duration": 0.028153124999988677,
          "durationTicks": 20,
          "midi": 70,
          "name": "A#4",
          "ticks": 133512,
          "time": 187.93900125000002,
          "velocity": 0.8503937007874016
        },
        {
          "duration": 0.028153124999988677,
          "durationTicks": 20,
          "midi": 42,
          "name": "F#2",
          "ticks": 133512,
          "time": 187.93900125000002,
          "velocity": 0.4881889763779528
        },
        {
          "duration": 0.0014076562499951706,
          "durationTicks": 1,
          "midi": 69,
          "name": "A4",
          "ticks": 133654,
          "time": 188.13888843750001,
          "velocity": 0.4094488188976378
        },
        {
          "duration": 0.0014076562499951706,
          "durationTicks": 1,
          "midi": 35,
          "name": "B1",
          "ticks": 133654,
          "time": 188.13888843750001,
          "velocity": 0.9212598425196851
        },
        {
          "duration": 0.0014076562499951706,
          "durationTicks": 1,
          "midi": 45,
          "name": "A2",
          "ticks": 133654,
          "time": 188.13888843750001,
          "velocity": 0.4094488188976378
        },
        {
          "duration": 0.0014076562499667489,
          "durationTicks": 1,
          "midi": 42,
          "name": "F#2",
          "ticks": 133780,
          "time": 188.31625312500003,
          "velocity": 0.4881889763779528
        },
        {
          "duration": 0.0014076562499667489,
          "durationTicks": 1,
          "midi": 70,
          "name": "A#4",
          "ticks": 133780,
          "time": 188.31625312500003,
          "velocity": 0.7874015748031497
        },
        {
          "duration": 0.019707187500017653,
          "durationTicks": 14,
          "midi": 69,
          "name": "A4",
          "ticks": 133898,
          "time": 188.4823565625,
          "velocity": 0.4094488188976378
        },
        {
          "duration": 0.019707187500017653,
          "durationTicks": 14,
          "midi": 35,
          "name": "B1",
          "ticks": 133898,
          "time": 188.4823565625,
          "velocity": 0.8267716535433071
        },
        {
          "duration": 0.01970718749998923,
          "durationTicks": 14,
          "midi": 42,
          "name": "F#2",
          "ticks": 134026,
          "time": 188.6625365625,
          "velocity": 0.4881889763779528
        },
        {
          "duration": 0.01970718749998923,
          "durationTicks": 14,
          "midi": 70,
          "name": "A#4",
          "ticks": 134026,
          "time": 188.6625365625,
          "velocity": 0.8188976377952756
        },
        {
          "duration": 0.01970718749998923,
          "durationTicks": 14,
          "midi": 48,
          "name": "C3",
          "ticks": 134026,
          "time": 188.6625365625,
          "velocity": 0.9763779527559056
        },
        {
          "duration": 0.01689187499999889,
          "durationTicks": 12,
          "midi": 69,
          "name": "A4",
          "ticks": 134158,
          "time": 188.84834718750002,
          "velocity": 0.4094488188976378
        },
        {
          "duration": 0.0014076562500235923,
          "durationTicks": 1,
          "midi": 42,
          "name": "F#2",
          "ticks": 134294,
          "time": 189.0397884375,
          "velocity": 0.4881889763779528
        },
        {
          "duration": 0.0014076562500235923,
          "durationTicks": 1,
          "midi": 70,
          "name": "A#4",
          "ticks": 134294,
          "time": 189.0397884375,
          "velocity": 0.8503937007874016
        },
        {
          "duration": 0.0014076562500235923,
          "durationTicks": 1,
          "midi": 45,
          "name": "A2",
          "ticks": 134294,
          "time": 189.0397884375,
          "velocity": 0.47244094488188976
        },
        {
          "duration": 0.022522500000036416,
          "durationTicks": 16,
          "midi": 69,
          "name": "A4",
          "ticks": 134408,
          "time": 189.20026124999998,
          "velocity": 0.4094488188976378
        },
        {
          "duration": 0.022522500000036416,
          "durationTicks": 16,
          "midi": 35,
          "name": "B1",
          "ticks": 134408,
          "time": 189.20026124999998,
          "velocity": 0.9212598425196851
        },
        {
          "duration": 0.022522500000036416,
          "durationTicks": 16,
          "midi": 45,
          "name": "A2",
          "ticks": 134408,
          "time": 189.20026124999998,
          "velocity": 0.4094488188976378
        },
        {
          "duration": 0.01407656250000855,
          "durationTicks": 10,
          "midi": 42,
          "name": "F#2",
          "ticks": 134544,
          "time": 189.3917025,
          "velocity": 0.4881889763779528
        },
        {
          "duration": 0.01407656250000855,
          "durationTicks": 10,
          "midi": 70,
          "name": "A#4",
          "ticks": 134544,
          "time": 189.3917025,
          "velocity": 0.7874015748031497
        },
        {
          "duration": 0.011261250000018208,
          "durationTicks": 8,
          "midi": 35,
          "name": "B1",
          "ticks": 134672,
          "time": 189.5718825,
          "velocity": 0.8582677165354331
        },
        {
          "duration": 0.011261250000018208,
          "durationTicks": 8,
          "midi": 69,
          "name": "A4",
          "ticks": 134672,
          "time": 189.5718825,
          "velocity": 0.4094488188976378
        },
        {
          "duration": 0.0014076562499951706,
          "durationTicks": 1,
          "midi": 42,
          "name": "F#2",
          "ticks": 134804,
          "time": 189.757693125,
          "velocity": 0.4881889763779528
        },
        {
          "duration": 0.0014076562499951706,
          "durationTicks": 1,
          "midi": 70,
          "name": "A#4",
          "ticks": 134804,
          "time": 189.757693125,
          "velocity": 0.8188976377952756
        },
        {
          "duration": 0.0014076562499951706,
          "durationTicks": 1,
          "midi": 48,
          "name": "C3",
          "ticks": 134804,
          "time": 189.757693125,
          "velocity": 0.9448818897637795
        },
        {
          "duration": 0.01689187499999889,
          "durationTicks": 12,
          "midi": 69,
          "name": "A4",
          "ticks": 134926,
          "time": 189.9294271875,
          "velocity": 0.4094488188976378
        },
        {
          "duration": 0.019707187500017653,
          "durationTicks": 14,
          "midi": 42,
          "name": "F#2",
          "ticks": 135050,
          "time": 190.1039765625,
          "velocity": 0.4881889763779528
        },
        {
          "duration": 0.019707187500017653,
          "durationTicks": 14,
          "midi": 70,
          "name": "A#4",
          "ticks": 135050,
          "time": 190.1039765625,
          "velocity": 0.8503937007874016
        },
        {
          "duration": 0.019707187500017653,
          "durationTicks": 14,
          "midi": 45,
          "name": "A2",
          "ticks": 135050,
          "time": 190.1039765625,
          "velocity": 0.47244094488188976
        },
        {
          "duration": 0.028153124999988677,
          "durationTicks": 20,
          "midi": 69,
          "name": "A4",
          "ticks": 135180,
          "time": 190.286971875,
          "velocity": 0.4094488188976378
        },
        {
          "duration": 0.028153124999988677,
          "durationTicks": 20,
          "midi": 35,
          "name": "B1",
          "ticks": 135180,
          "time": 190.286971875,
          "velocity": 0.9212598425196851
        },
        {
          "duration": 0.028153124999988677,
          "durationTicks": 20,
          "midi": 45,
          "name": "A2",
          "ticks": 135180,
          "time": 190.286971875,
          "velocity": 0.4094488188976378
        },
        {
          "duration": 0.019707187500046075,
          "durationTicks": 14,
          "midi": 42,
          "name": "F#2",
          "ticks": 135308,
          "time": 190.46715187499998,
          "velocity": 0.4881889763779528
        },
        {
          "duration": 0.019707187500046075,
          "durationTicks": 14,
          "midi": 70,
          "name": "A#4",
          "ticks": 135308,
          "time": 190.46715187499998,
          "velocity": 0.7874015748031497
        },
        {
          "duration": 0.01407656250000855,
          "durationTicks": 10,
          "midi": 35,
          "name": "B1",
          "ticks": 135440,
          "time": 190.6529625,
          "velocity": 0.8267716535433071
        },
        {
          "duration": 0.01407656250000855,
          "durationTicks": 10,
          "midi": 69,
          "name": "A4",
          "ticks": 135440,
          "time": 190.6529625,
          "velocity": 0.4094488188976378
        },
        {
          "duration": 0.01970718749998923,
          "durationTicks": 14,
          "midi": 42,
          "name": "F#2",
          "ticks": 135562,
          "time": 190.8246965625,
          "velocity": 0.4881889763779528
        },
        {
          "duration": 0.01970718749998923,
          "durationTicks": 14,
          "midi": 70,
          "name": "A#4",
          "ticks": 135562,
          "time": 190.8246965625,
          "velocity": 0.8188976377952756
        },
        {
          "duration": 0.01970718749998923,
          "durationTicks": 14,
          "midi": 48,
          "name": "C3",
          "ticks": 135562,
          "time": 190.8246965625,
          "velocity": 0.9763779527559056
        },
        {
          "duration": 0.01689187499999889,
          "durationTicks": 12,
          "midi": 69,
          "name": "A4",
          "ticks": 135694,
          "time": 191.01050718750002,
          "velocity": 0.4094488188976378
        },
        {
          "duration": 0.0014076562500235923,
          "durationTicks": 1,
          "midi": 42,
          "name": "F#2",
          "ticks": 135828,
          "time": 191.199133125,
          "velocity": 0.4881889763779528
        },
        {
          "duration": 0.0014076562500235923,
          "durationTicks": 1,
          "midi": 70,
          "name": "A#4",
          "ticks": 135828,
          "time": 191.199133125,
          "velocity": 0.8503937007874016
        },
        {
          "duration": 0.0014076562500235923,
          "durationTicks": 1,
          "midi": 45,
          "name": "A2",
          "ticks": 135828,
          "time": 191.199133125,
          "velocity": 0.47244094488188976
        },
        {
          "duration": 0.011261249999989786,
          "durationTicks": 8,
          "midi": 69,
          "name": "A4",
          "ticks": 135952,
          "time": 191.37368250000003,
          "velocity": 0.4094488188976378
        },
        {
          "duration": 0.011261249999989786,
          "durationTicks": 8,
          "midi": 35,
          "name": "B1",
          "ticks": 135952,
          "time": 191.37368250000003,
          "velocity": 0.9212598425196851
        },
        {
          "duration": 0.011261249999989786,
          "durationTicks": 8,
          "midi": 45,
          "name": "A2",
          "ticks": 135952,
          "time": 191.37368250000003,
          "velocity": 0.4094488188976378
        },
        {
          "duration": 0.028153124999988677,
          "durationTicks": 20,
          "midi": 42,
          "name": "F#2",
          "ticks": 136072,
          "time": 191.54260125000002,
          "velocity": 0.4881889763779528
        },
        {
          "duration": 0.028153124999988677,
          "durationTicks": 20,
          "midi": 70,
          "name": "A#4",
          "ticks": 136072,
          "time": 191.54260125000002,
          "velocity": 0.7874015748031497
        },
        {
          "duration": 0.01689187499999889,
          "durationTicks": 12,
          "midi": 35,
          "name": "B1",
          "ticks": 136208,
          "time": 191.7340425,
          "velocity": 0.8582677165354331
        },
        {
          "duration": 0.01689187499999889,
          "durationTicks": 12,
          "midi": 69,
          "name": "A4",
          "ticks": 136208,
          "time": 191.7340425,
          "velocity": 0.4094488188976378
        },
        {
          "duration": 0.008445937499999445,
          "durationTicks": 6,
          "midi": 42,
          "name": "F#2",
          "ticks": 136338,
          "time": 191.9170378125,
          "velocity": 0.4881889763779528
        },
        {
          "duration": 0.008445937499999445,
          "durationTicks": 6,
          "midi": 70,
          "name": "A#4",
          "ticks": 136338,
          "time": 191.9170378125,
          "velocity": 0.8188976377952756
        },
        {
          "duration": 0.008445937499999445,
          "durationTicks": 6,
          "midi": 48,
          "name": "C3",
          "ticks": 136338,
          "time": 191.9170378125,
          "velocity": 0.9448818897637795
        },
        {
          "duration": 0.01970718749998923,
          "durationTicks": 14,
          "midi": 69,
          "name": "A4",
          "ticks": 136458,
          "time": 192.0859565625,
          "velocity": 0.4094488188976378
        },
        {
          "duration": 0.01970718749998923,
          "durationTicks": 14,
          "midi": 42,
          "name": "F#2",
          "ticks": 136588,
          "time": 192.26895187500003,
          "velocity": 0.4881889763779528
        },
        {
          "duration": 0.01970718749998923,
          "durationTicks": 14,
          "midi": 70,
          "name": "A#4",
          "ticks": 136588,
          "time": 192.26895187500003,
          "velocity": 0.8503937007874016
        },
        {
          "duration": 0.01970718749998923,
          "durationTicks": 14,
          "midi": 45,
          "name": "A2",
          "ticks": 136588,
          "time": 192.26895187500003,
          "velocity": 0.47244094488188976
        },
        {
          "duration": 0.0014076562499951706,
          "durationTicks": 1,
          "midi": 69,
          "name": "A4",
          "ticks": 136726,
          "time": 192.46320843750001,
          "velocity": 0.4094488188976378
        },
        {
          "duration": 0.0014076562499951706,
          "durationTicks": 1,
          "midi": 35,
          "name": "B1",
          "ticks": 136726,
          "time": 192.46320843750001,
          "velocity": 0.9212598425196851
        },
        {
          "duration": 0.0014076562499951706,
          "durationTicks": 1,
          "midi": 45,
          "name": "A2",
          "ticks": 136726,
          "time": 192.46320843750001,
          "velocity": 0.4094488188976378
        },
        {
          "duration": 0.0014076562499667489,
          "durationTicks": 1,
          "midi": 42,
          "name": "F#2",
          "ticks": 136852,
          "time": 192.64057312500003,
          "velocity": 0.4881889763779528
        },
        {
          "duration": 0.0014076562499667489,
          "durationTicks": 1,
          "midi": 70,
          "name": "A#4",
          "ticks": 136852,
          "time": 192.64057312500003,
          "velocity": 0.7874015748031497
        },
        {
          "duration": 0.008445937499999445,
          "durationTicks": 6,
          "midi": 69,
          "name": "A4",
          "ticks": 136978,
          "time": 192.81793781250002,
          "velocity": 0.4094488188976378
        },
        {
          "duration": 0.008445937499999445,
          "durationTicks": 6,
          "midi": 35,
          "name": "B1",
          "ticks": 136978,
          "time": 192.81793781250002,
          "velocity": 0.8267716535433071
        },
        {
          "duration": 0.0014076562499951706,
          "durationTicks": 1,
          "midi": 42,
          "name": "F#2",
          "ticks": 137104,
          "time": 192.9953025,
          "velocity": 0.4881889763779528
        },
        {
          "duration": 0.0014076562499951706,
          "durationTicks": 1,
          "midi": 70,
          "name": "A#4",
          "ticks": 137104,
          "time": 192.9953025,
          "velocity": 0.8188976377952756
        },
        {
          "duration": 0.0014076562499951706,
          "durationTicks": 1,
          "midi": 48,
          "name": "C3",
          "ticks": 137104,
          "time": 192.9953025,
          "velocity": 0.9763779527559056
        },
        {
          "duration": 0.014076562499980128,
          "durationTicks": 10,
          "midi": 69,
          "name": "A4",
          "ticks": 137230,
          "time": 193.17266718750002,
          "velocity": 0.4094488188976378
        },
        {
          "duration": 0.0014076562500235923,
          "durationTicks": 1,
          "midi": 42,
          "name": "F#2",
          "ticks": 137364,
          "time": 193.361293125,
          "velocity": 0.4881889763779528
        },
        {
          "duration": 0.0014076562500235923,
          "durationTicks": 1,
          "midi": 70,
          "name": "A#4",
          "ticks": 137364,
          "time": 193.361293125,
          "velocity": 0.8503937007874016
        },
        {
          "duration": 0.0014076562500235923,
          "durationTicks": 1,
          "midi": 45,
          "name": "A2",
          "ticks": 137364,
          "time": 193.361293125,
          "velocity": 0.47244094488188976
        },
        {
          "duration": 0.0014076562499667489,
          "durationTicks": 1,
          "midi": 69,
          "name": "A4",
          "ticks": 137494,
          "time": 193.54428843750003,
          "velocity": 0.4094488188976378
        },
        {
          "duration": 0.0014076562499667489,
          "durationTicks": 1,
          "midi": 35,
          "name": "B1",
          "ticks": 137494,
          "time": 193.54428843750003,
          "velocity": 0.9212598425196851
        },
        {
          "duration": 0.0014076562499667489,
          "durationTicks": 1,
          "midi": 45,
          "name": "A2",
          "ticks": 137494,
          "time": 193.54428843750003,
          "velocity": 0.4094488188976378
        },
        {
          "duration": 0.014076562499980128,
          "durationTicks": 10,
          "midi": 42,
          "name": "F#2",
          "ticks": 137614,
          "time": 193.71320718750002,
          "velocity": 0.4881889763779528
        },
        {
          "duration": 0.014076562499980128,
          "durationTicks": 10,
          "midi": 70,
          "name": "A#4",
          "ticks": 137614,
          "time": 193.71320718750002,
          "velocity": 0.7874015748031497
        },
        {
          "duration": 0.008445937499999445,
          "durationTicks": 6,
          "midi": 69,
          "name": "A4",
          "ticks": 137746,
          "time": 193.8990178125,
          "velocity": 0.4094488188976378
        },
        {
          "duration": 0.008445937499999445,
          "durationTicks": 6,
          "midi": 35,
          "name": "B1",
          "ticks": 137746,
          "time": 193.8990178125,
          "velocity": 0.8582677165354331
        },
        {
          "duration": 0.011261249999989786,
          "durationTicks": 8,
          "midi": 42,
          "name": "F#2",
          "ticks": 137872,
          "time": 194.07638250000002,
          "velocity": 0.4881889763779528
        },
        {
          "duration": 0.011261249999989786,
          "durationTicks": 8,
          "midi": 70,
          "name": "A#4",
          "ticks": 137872,
          "time": 194.07638250000002,
          "velocity": 0.8188976377952756
        },
        {
          "duration": 0.011261249999989786,
          "durationTicks": 8,
          "midi": 48,
          "name": "C3",
          "ticks": 137872,
          "time": 194.07638250000002,
          "velocity": 0.9448818897637795
        },
        {
          "duration": 0.028153124999988677,
          "durationTicks": 20,
          "midi": 69,
          "name": "A4",
          "ticks": 137992,
          "time": 194.24530125,
          "velocity": 0.4094488188976378
        },
        {
          "duration": 0.025337812499998336,
          "durationTicks": 18,
          "midi": 42,
          "name": "F#2",
          "ticks": 138122,
          "time": 194.4282965625,
          "velocity": 0.4881889763779528
        },
        {
          "duration": 0.025337812499998336,
          "durationTicks": 18,
          "midi": 70,
          "name": "A#4",
          "ticks": 138122,
          "time": 194.4282965625,
          "velocity": 0.8503937007874016
        },
        {
          "duration": 0.025337812499998336,
          "durationTicks": 18,
          "midi": 45,
          "name": "A2",
          "ticks": 138122,
          "time": 194.4282965625,
          "velocity": 0.47244094488188976
        },
        {
          "duration": 0.0014076562500235923,
          "durationTicks": 1,
          "midi": 69,
          "name": "A4",
          "ticks": 138254,
          "time": 194.6141071875,
          "velocity": 0.4094488188976378
        },
        {
          "duration": 0.0014076562500235923,
          "durationTicks": 1,
          "midi": 35,
          "name": "B1",
          "ticks": 138254,
          "time": 194.6141071875,
          "velocity": 0.9212598425196851
        },
        {
          "duration": 0.0014076562500235923,
          "durationTicks": 1,
          "midi": 45,
          "name": "A2",
          "ticks": 138254,
          "time": 194.6141071875,
          "velocity": 0.4094488188976378
        },
        {
          "duration": 0.0014076562500235923,
          "durationTicks": 1,
          "midi": 42,
          "name": "F#2",
          "ticks": 138386,
          "time": 194.79991781249998,
          "velocity": 0.4881889763779528
        },
        {
          "duration": 0.0014076562500235923,
          "durationTicks": 1,
          "midi": 70,
          "name": "A#4",
          "ticks": 138386,
          "time": 194.79991781249998,
          "velocity": 0.7874015748031497
        },
        {
          "duration": 0.022522500000007994,
          "durationTicks": 16,
          "midi": 69,
          "name": "A4",
          "ticks": 138506,
          "time": 194.9688365625,
          "velocity": 0.4094488188976378
        },
        {
          "duration": 0.022522500000007994,
          "durationTicks": 16,
          "midi": 35,
          "name": "B1",
          "ticks": 138506,
          "time": 194.9688365625,
          "velocity": 0.8267716535433071
        },
        {
          "duration": 0.022522499999979573,
          "durationTicks": 16,
          "midi": 42,
          "name": "F#2",
          "ticks": 138634,
          "time": 195.1490165625,
          "velocity": 0.4881889763779528
        },
        {
          "duration": 0.022522499999979573,
          "durationTicks": 16,
          "midi": 70,
          "name": "A#4",
          "ticks": 138634,
          "time": 195.1490165625,
          "velocity": 0.8188976377952756
        },
        {
          "duration": 0.022522499999979573,
          "durationTicks": 16,
          "midi": 48,
          "name": "C3",
          "ticks": 138634,
          "time": 195.1490165625,
          "velocity": 0.9763779527559056
        },
        {
          "duration": 0.022522499999979573,
          "durationTicks": 16,
          "midi": 69,
          "name": "A4",
          "ticks": 138760,
          "time": 195.32638125000003,
          "velocity": 0.4094488188976378
        },
        {
          "duration": 0.022522500000007994,
          "durationTicks": 16,
          "midi": 42,
          "name": "F#2",
          "ticks": 138890,
          "time": 195.5093765625,
          "velocity": 0.4881889763779528
        },
        {
          "duration": 0.022522500000007994,
          "durationTicks": 16,
          "midi": 70,
          "name": "A#4",
          "ticks": 138890,
          "time": 195.5093765625,
          "velocity": 0.8503937007874016
        },
        {
          "duration": 0.022522500000007994,
          "durationTicks": 16,
          "midi": 45,
          "name": "A2",
          "ticks": 138890,
          "time": 195.5093765625,
          "velocity": 0.47244094488188976
        },
        {
          "duration": 0.0014076562499667489,
          "durationTicks": 1,
          "midi": 69,
          "name": "A4",
          "ticks": 139030,
          "time": 195.70644843750003,
          "velocity": 0.4094488188976378
        },
        {
          "duration": 0.0014076562499667489,
          "durationTicks": 1,
          "midi": 35,
          "name": "B1",
          "ticks": 139030,
          "time": 195.70644843750003,
          "velocity": 0.9212598425196851
        },
        {
          "duration": 0.0014076562499667489,
          "durationTicks": 1,
          "midi": 45,
          "name": "A2",
          "ticks": 139030,
          "time": 195.70644843750003,
          "velocity": 0.4094488188976378
        },
        {
          "duration": 0.0014076562499667489,
          "durationTicks": 1,
          "midi": 42,
          "name": "F#2",
          "ticks": 139156,
          "time": 195.88381312500002,
          "velocity": 0.4881889763779528
        },
        {
          "duration": 0.0014076562499667489,
          "durationTicks": 1,
          "midi": 70,
          "name": "A#4",
          "ticks": 139156,
          "time": 195.88381312500002,
          "velocity": 0.7874015748031497
        },
        {
          "duration": 0.0014076562499667489,
          "durationTicks": 1,
          "midi": 48,
          "name": "C3",
          "ticks": 139156,
          "time": 195.88381312500002,
          "velocity": 0.8818897637795275
        },
        {
          "duration": 0.022522500000007994,
          "durationTicks": 16,
          "midi": 35,
          "name": "B1",
          "ticks": 139272,
          "time": 196.04710125,
          "velocity": 0.8582677165354331
        },
        {
          "duration": 0.022522500000007994,
          "durationTicks": 16,
          "midi": 69,
          "name": "A4",
          "ticks": 139272,
          "time": 196.04710125,
          "velocity": 0.4094488188976378
        },
        {
          "duration": 0.0014076562499951706,
          "durationTicks": 1,
          "midi": 42,
          "name": "F#2",
          "ticks": 139410,
          "time": 196.2413578125,
          "velocity": 0.4881889763779528
        },
        {
          "duration": 0.0014076562499951706,
          "durationTicks": 1,
          "midi": 70,
          "name": "A#4",
          "ticks": 139410,
          "time": 196.2413578125,
          "velocity": 0.8188976377952756
        },
        {
          "duration": 0.0014076562499951706,
          "durationTicks": 1,
          "midi": 48,
          "name": "C3",
          "ticks": 139410,
          "time": 196.2413578125,
          "velocity": 0.9763779527559056
        },
        {
          "duration": 0.01689187499999889,
          "durationTicks": 12,
          "midi": 69,
          "name": "A4",
          "ticks": 139536,
          "time": 196.4187225,
          "velocity": 0.4094488188976378
        },
        {
          "duration": 0.01689187499999889,
          "durationTicks": 12,
          "midi": 48,
          "name": "C3",
          "ticks": 139536,
          "time": 196.4187225,
          "velocity": 0.7244094488188977
        },
        {
          "duration": 0.0014076562499951706,
          "durationTicks": 1,
          "midi": 42,
          "name": "F#2",
          "ticks": 139668,
          "time": 196.60453312500002,
          "velocity": 0.4881889763779528
        },
        {
          "duration": 0.0014076562499951706,
          "durationTicks": 1,
          "midi": 70,
          "name": "A#4",
          "ticks": 139668,
          "time": 196.60453312500002,
          "velocity": 0.8503937007874016
        },
        {
          "duration": 0.0014076562499951706,
          "durationTicks": 1,
          "midi": 48,
          "name": "C3",
          "ticks": 139668,
          "time": 196.60453312500002,
          "velocity": 0.8503937007874016
        },
        {
          "duration": 0.0014076562499951706,
          "durationTicks": 1,
          "midi": 45,
          "name": "A2",
          "ticks": 139668,
          "time": 196.60453312500002,
          "velocity": 0.47244094488188976
        },
        {
          "duration": 0.0014076562499951706,
          "durationTicks": 1,
          "midi": 69,
          "name": "A4",
          "ticks": 139798,
          "time": 196.78752843750001,
          "velocity": 0.3464566929133858
        },
        {
          "duration": 0.0014076562499951706,
          "durationTicks": 1,
          "midi": 70,
          "name": "A#4",
          "ticks": 139798,
          "time": 196.78752843750001,
          "velocity": 0.6299212598425197
        },
        {
          "duration": 0.0014076562499951706,
          "durationTicks": 1,
          "midi": 0,
          "name": "C-1",
          "ticks": 139798,
          "time": 196.78752843750001,
          "velocity": 0.47244094488188976
        },
        {
          "duration": 0.0014076562499951706,
          "durationTicks": 1,
          "midi": 35,
          "name": "B1",
          "ticks": 139798,
          "time": 196.78752843750001,
          "velocity": 0.889763779527559
        },
        {
          "duration": 0.011261249999989786,
          "durationTicks": 8,
          "midi": 42,
          "name": "F#2",
          "ticks": 139920,
          "time": 196.9592625,
          "velocity": 0.4251968503937008
        },
        {
          "duration": 0.011261249999989786,
          "durationTicks": 8,
          "midi": 70,
          "name": "A#4",
          "ticks": 139920,
          "time": 196.9592625,
          "velocity": 0.6929133858267716
        },
        {
          "duration": 0.0014076562499667489,
          "durationTicks": 1,
          "midi": 69,
          "name": "A4",
          "ticks": 140050,
          "time": 197.14225781250002,
          "velocity": 0.3464566929133858
        },
        {
          "duration": 0.0014076562499667489,
          "durationTicks": 1,
          "midi": 35,
          "name": "B1",
          "ticks": 140050,
          "time": 197.14225781250002,
          "velocity": 0.7637795275590551
        },
        {
          "duration": 0.025337812499998336,
          "durationTicks": 18,
          "midi": 42,
          "name": "F#2",
          "ticks": 140168,
          "time": 197.30836125,
          "velocity": 0.4251968503937008
        },
        {
          "duration": 0.025337812499998336,
          "durationTicks": 18,
          "midi": 70,
          "name": "A#4",
          "ticks": 140168,
          "time": 197.30836125,
          "velocity": 0.7244094488188977
        },
        {
          "duration": 0.025337812499998336,
          "durationTicks": 18,
          "midi": 48,
          "name": "C3",
          "ticks": 140168,
          "time": 197.30836125,
          "velocity": 0.8503937007874016
        },
        {
          "duration": 0.022522499999979573,
          "durationTicks": 16,
          "midi": 69,
          "name": "A4",
          "ticks": 140296,
          "time": 197.48854125000003,
          "velocity": 0.3464566929133858
        },
        {
          "duration": 0.01407656250000855,
          "durationTicks": 10,
          "midi": 45,
          "name": "A2",
          "ticks": 140432,
          "time": 197.6799825,
          "velocity": 0.3464566929133858
        },
        {
          "duration": 0.01407656250000855,
          "durationTicks": 10,
          "midi": 70,
          "name": "A#4",
          "ticks": 140432,
          "time": 197.6799825,
          "velocity": 0.7874015748031497
        },
        {
          "duration": 0.01407656250000855,
          "durationTicks": 10,
          "midi": 42,
          "name": "F#2",
          "ticks": 140432,
          "time": 197.6799825,
          "velocity": 0.4251968503937008
        },
        {
          "duration": 0.0014076562499951706,
          "durationTicks": 1,
          "midi": 69,
          "name": "A4",
          "ticks": 140562,
          "time": 197.86297781250002,
          "velocity": 0.3464566929133858
        },
        {
          "duration": 0.0014076562499951706,
          "durationTicks": 1,
          "midi": 35,
          "name": "B1",
          "ticks": 140562,
          "time": 197.86297781250002,
          "velocity": 0.8267716535433071
        },
        {
          "duration": 0.0014076562499951706,
          "durationTicks": 1,
          "midi": 45,
          "name": "A2",
          "ticks": 140562,
          "time": 197.86297781250002,
          "velocity": 0.31496062992125984
        },
        {
          "duration": 0.01689187499999889,
          "durationTicks": 12,
          "midi": 42,
          "name": "F#2",
          "ticks": 140688,
          "time": 198.0403425,
          "velocity": 0.4251968503937008
        },
        {
          "duration": 0.01689187499999889,
          "durationTicks": 12,
          "midi": 70,
          "name": "A#4",
          "ticks": 140688,
          "time": 198.0403425,
          "velocity": 0.6929133858267716
        },
        {
          "duration": 0.008445937499999445,
          "durationTicks": 6,
          "midi": 69,
          "name": "A4",
          "ticks": 140818,
          "time": 198.2233378125,
          "velocity": 0.3464566929133858
        },
        {
          "duration": 0.008445937499999445,
          "durationTicks": 6,
          "midi": 35,
          "name": "B1",
          "ticks": 140818,
          "time": 198.2233378125,
          "velocity": 0.7322834645669292
        },
        {
          "duration": 0.0014076562499667489,
          "durationTicks": 1,
          "midi": 42,
          "name": "F#2",
          "ticks": 140944,
          "time": 198.40070250000002,
          "velocity": 0.4251968503937008
        },
        {
          "duration": 0.0014076562499667489,
          "durationTicks": 1,
          "midi": 70,
          "name": "A#4",
          "ticks": 140944,
          "time": 198.40070250000002,
          "velocity": 0.7244094488188977
        },
        {
          "duration": 0.0014076562499667489,
          "durationTicks": 1,
          "midi": 48,
          "name": "C3",
          "ticks": 140944,
          "time": 198.40070250000002,
          "velocity": 0.8188976377952756
        },
        {
          "duration": 0.0014076562500235923,
          "durationTicks": 1,
          "midi": 69,
          "name": "A4",
          "ticks": 141072,
          "time": 198.5808825,
          "velocity": 0.3464566929133858
        },
        {
          "duration": 0.0014076562499951706,
          "durationTicks": 1,
          "midi": 45,
          "name": "A2",
          "ticks": 141200,
          "time": 198.7610625,
          "velocity": 0.3779527559055118
        },
        {
          "duration": 0.0014076562499951706,
          "durationTicks": 1,
          "midi": 70,
          "name": "A#4",
          "ticks": 141200,
          "time": 198.7610625,
          "velocity": 0.7874015748031497
        },
        {
          "duration": 0.0014076562499951706,
          "durationTicks": 1,
          "midi": 42,
          "name": "F#2",
          "ticks": 141200,
          "time": 198.7610625,
          "velocity": 0.4251968503937008
        },
        {
          "duration": 0.0014076562500235923,
          "durationTicks": 1,
          "midi": 69,
          "name": "A4",
          "ticks": 141332,
          "time": 198.946873125,
          "velocity": 0.3464566929133858
        },
        {
          "duration": 0.0014076562500235923,
          "durationTicks": 1,
          "midi": 35,
          "name": "B1",
          "ticks": 141332,
          "time": 198.946873125,
          "velocity": 0.8267716535433071
        },
        {
          "duration": 0.0014076562500235923,
          "durationTicks": 1,
          "midi": 45,
          "name": "A2",
          "ticks": 141332,
          "time": 198.946873125,
          "velocity": 0.3464566929133858
        },
        {
          "duration": 0.0014076562500235923,
          "durationTicks": 1,
          "midi": 42,
          "name": "F#2",
          "ticks": 141458,
          "time": 199.12423781249998,
          "velocity": 0.4251968503937008
        },
        {
          "duration": 0.0014076562500235923,
          "durationTicks": 1,
          "midi": 70,
          "name": "A#4",
          "ticks": 141458,
          "time": 199.12423781249998,
          "velocity": 0.6929133858267716
        },
        {
          "duration": 0.0014076562499951706,
          "durationTicks": 1,
          "midi": 69,
          "name": "A4",
          "ticks": 141588,
          "time": 199.307233125,
          "velocity": 0.3464566929133858
        },
        {
          "duration": 0.0014076562499951706,
          "durationTicks": 1,
          "midi": 35,
          "name": "B1",
          "ticks": 141588,
          "time": 199.307233125,
          "velocity": 0.7007874015748031
        },
        {
          "duration": 0.022522499999979573,
          "durationTicks": 16,
          "midi": 42,
          "name": "F#2",
          "ticks": 141706,
          "time": 199.4733365625,
          "velocity": 0.4251968503937008
        },
        {
          "duration": 0.022522499999979573,
          "durationTicks": 16,
          "midi": 70,
          "name": "A#4",
          "ticks": 141706,
          "time": 199.4733365625,
          "velocity": 0.7244094488188977
        },
        {
          "duration": 0.022522499999979573,
          "durationTicks": 16,
          "midi": 48,
          "name": "C3",
          "ticks": 141706,
          "time": 199.4733365625,
          "velocity": 0.8503937007874016
        },
        {
          "duration": 0.011261249999989786,
          "durationTicks": 8,
          "midi": 69,
          "name": "A4",
          "ticks": 141840,
          "time": 199.66196250000002,
          "velocity": 0.3464566929133858
        },
        {
          "duration": 0.011261250000018208,
          "durationTicks": 8,
          "midi": 45,
          "name": "A2",
          "ticks": 141968,
          "time": 199.8421425,
          "velocity": 0.3779527559055118
        },
        {
          "duration": 0.011261250000018208,
          "durationTicks": 8,
          "midi": 70,
          "name": "A#4",
          "ticks": 141968,
          "time": 199.8421425,
          "velocity": 0.7874015748031497
        },
        {
          "duration": 0.011261250000018208,
          "durationTicks": 8,
          "midi": 42,
          "name": "F#2",
          "ticks": 141968,
          "time": 199.8421425,
          "velocity": 0.4251968503937008
        },
        {
          "duration": 0.0014076562499951706,
          "durationTicks": 1,
          "midi": 69,
          "name": "A4",
          "ticks": 142100,
          "time": 200.027953125,
          "velocity": 0.3464566929133858
        },
        {
          "duration": 0.0014076562499951706,
          "durationTicks": 1,
          "midi": 35,
          "name": "B1",
          "ticks": 142100,
          "time": 200.027953125,
          "velocity": 0.8267716535433071
        },
        {
          "duration": 0.0014076562499951706,
          "durationTicks": 1,
          "midi": 45,
          "name": "A2",
          "ticks": 142100,
          "time": 200.027953125,
          "velocity": 0.3464566929133858
        },
        {
          "duration": 0.01970718749998923,
          "durationTicks": 14,
          "midi": 42,
          "name": "F#2",
          "ticks": 142218,
          "time": 200.1940565625,
          "velocity": 0.4251968503937008
        },
        {
          "duration": 0.01970718749998923,
          "durationTicks": 14,
          "midi": 70,
          "name": "A#4",
          "ticks": 142218,
          "time": 200.1940565625,
          "velocity": 0.6929133858267716
        },
        {
          "duration": 0.01970718749998923,
          "durationTicks": 14,
          "midi": 35,
          "name": "B1",
          "ticks": 142344,
          "time": 200.37142125,
          "velocity": 0.7322834645669292
        },
        {
          "duration": 0.01970718749998923,
          "durationTicks": 14,
          "midi": 69,
          "name": "A4",
          "ticks": 142344,
          "time": 200.37142125,
          "velocity": 0.3464566929133858
        },
        {
          "duration": 0.005630625000009104,
          "durationTicks": 4,
          "midi": 42,
          "name": "F#2",
          "ticks": 142482,
          "time": 200.5656778125,
          "velocity": 0.4251968503937008
        },
        {
          "duration": 0.005630625000009104,
          "durationTicks": 4,
          "midi": 70,
          "name": "A#4",
          "ticks": 142482,
          "time": 200.5656778125,
          "velocity": 0.7244094488188977
        },
        {
          "duration": 0.005630625000009104,
          "durationTicks": 4,
          "midi": 48,
          "name": "C3",
          "ticks": 142482,
          "time": 200.5656778125,
          "velocity": 0.8188976377952756
        },
        {
          "duration": 0.01689187499999889,
          "durationTicks": 12,
          "midi": 69,
          "name": "A4",
          "ticks": 142606,
          "time": 200.7402271875,
          "velocity": 0.3464566929133858
        },
        {
          "duration": 0.008445937499999445,
          "durationTicks": 6,
          "midi": 42,
          "name": "F#2",
          "ticks": 142738,
          "time": 200.92603781250003,
          "velocity": 0.4251968503937008
        },
        {
          "duration": 0.008445937499999445,
          "durationTicks": 6,
          "midi": 70,
          "name": "A#4",
          "ticks": 142738,
          "time": 200.92603781250003,
          "velocity": 0.7874015748031497
        },
        {
          "duration": 0.008445937499999445,
          "durationTicks": 6,
          "midi": 45,
          "name": "A2",
          "ticks": 142738,
          "time": 200.92603781250003,
          "velocity": 0.3779527559055118
        },
        {
          "duration": 0.022522499999979573,
          "durationTicks": 16,
          "midi": 69,
          "name": "A4",
          "ticks": 142858,
          "time": 201.09495656250002,
          "velocity": 0.3464566929133858
        },
        {
          "duration": 0.022522499999979573,
          "durationTicks": 16,
          "midi": 35,
          "name": "B1",
          "ticks": 142858,
          "time": 201.09495656250002,
          "velocity": 0.8267716535433071
        },
        {
          "duration": 0.022522499999979573,
          "durationTicks": 16,
          "midi": 45,
          "name": "A2",
          "ticks": 142858,
          "time": 201.09495656250002,
          "velocity": 0.3464566929133858
        },
        {
          "duration": 0.014076562499980128,
          "durationTicks": 10,
          "midi": 42,
          "name": "F#2",
          "ticks": 142990,
          "time": 201.2807671875,
          "velocity": 0.4251968503937008
        },
        {
          "duration": 0.014076562499980128,
          "durationTicks": 10,
          "midi": 70,
          "name": "A#4",
          "ticks": 142990,
          "time": 201.2807671875,
          "velocity": 0.6929133858267716
        },
        {
          "duration": 0.019707187500017653,
          "durationTicks": 14,
          "midi": 69,
          "name": "A4",
          "ticks": 143114,
          "time": 201.4553165625,
          "velocity": 0.3464566929133858
        },
        {
          "duration": 0.019707187500017653,
          "durationTicks": 14,
          "midi": 35,
          "name": "B1",
          "ticks": 143114,
          "time": 201.4553165625,
          "velocity": 0.7007874015748031
        },
        {
          "duration": 0.022522499999979573,
          "durationTicks": 16,
          "midi": 42,
          "name": "F#2",
          "ticks": 143242,
          "time": 201.6354965625,
          "velocity": 0.4251968503937008
        },
        {
          "duration": 0.022522499999979573,
          "durationTicks": 16,
          "midi": 70,
          "name": "A#4",
          "ticks": 143242,
          "time": 201.6354965625,
          "velocity": 0.7244094488188977
        },
        {
          "duration": 0.022522499999979573,
          "durationTicks": 16,
          "midi": 48,
          "name": "C3",
          "ticks": 143242,
          "time": 201.6354965625,
          "velocity": 0.8503937007874016
        },
        {
          "duration": 0.011261249999989786,
          "durationTicks": 8,
          "midi": 69,
          "name": "A4",
          "ticks": 143376,
          "time": 201.82412250000002,
          "velocity": 0.3464566929133858
        },
        {
          "duration": 0.008445937499999445,
          "durationTicks": 6,
          "midi": 45,
          "name": "A2",
          "ticks": 143504,
          "time": 202.0043025,
          "velocity": 0.3779527559055118
        },
        {
          "duration": 0.008445937499999445,
          "durationTicks": 6,
          "midi": 70,
          "name": "A#4",
          "ticks": 143504,
          "time": 202.0043025,
          "velocity": 0.7874015748031497
        },
        {
          "duration": 0.008445937499999445,
          "durationTicks": 6,
          "midi": 42,
          "name": "F#2",
          "ticks": 143504,
          "time": 202.0043025,
          "velocity": 0.4251968503937008
        },
        {
          "duration": 0.022522499999979573,
          "durationTicks": 16,
          "midi": 69,
          "name": "A4",
          "ticks": 143626,
          "time": 202.17603656250003,
          "velocity": 0.3464566929133858
        },
        {
          "duration": 0.022522499999979573,
          "durationTicks": 16,
          "midi": 35,
          "name": "B1",
          "ticks": 143626,
          "time": 202.17603656250003,
          "velocity": 0.8267716535433071
        },
        {
          "duration": 0.022522499999979573,
          "durationTicks": 16,
          "midi": 45,
          "name": "A2",
          "ticks": 143626,
          "time": 202.17603656250003,
          "velocity": 0.3464566929133858
        },
        {
          "duration": 0.014076562499980128,
          "durationTicks": 10,
          "midi": 42,
          "name": "F#2",
          "ticks": 143758,
          "time": 202.36184718750002,
          "velocity": 0.4251968503937008
        },
        {
          "duration": 0.014076562499980128,
          "durationTicks": 10,
          "midi": 70,
          "name": "A#4",
          "ticks": 143758,
          "time": 202.36184718750002,
          "velocity": 0.6929133858267716
        },
        {
          "duration": 0.0014076562500235923,
          "durationTicks": 1,
          "midi": 35,
          "name": "B1",
          "ticks": 143888,
          "time": 202.5448425,
          "velocity": 0.7322834645669292
        },
        {
          "duration": 0.0014076562500235923,
          "durationTicks": 1,
          "midi": 69,
          "name": "A4",
          "ticks": 143888,
          "time": 202.5448425,
          "velocity": 0.3464566929133858
        },
        {
          "duration": 0.01970718749998923,
          "durationTicks": 14,
          "midi": 42,
          "name": "F#2",
          "ticks": 144010,
          "time": 202.71657656250002,
          "velocity": 0.4251968503937008
        },
        {
          "duration": 0.01970718749998923,
          "durationTicks": 14,
          "midi": 70,
          "name": "A#4",
          "ticks": 144010,
          "time": 202.71657656250002,
          "velocity": 0.7244094488188977
        },
        {
          "duration": 0.01970718749998923,
          "durationTicks": 14,
          "midi": 48,
          "name": "C3",
          "ticks": 144010,
          "time": 202.71657656250002,
          "velocity": 0.8188976377952756
        },
        {
          "duration": 0.025337812499998336,
          "durationTicks": 18,
          "midi": 69,
          "name": "A4",
          "ticks": 144136,
          "time": 202.89394125,
          "velocity": 0.3464566929133858
        },
        {
          "duration": 0.008445937499999445,
          "durationTicks": 6,
          "midi": 42,
          "name": "F#2",
          "ticks": 144274,
          "time": 203.08819781250003,
          "velocity": 0.4251968503937008
        },
        {
          "duration": 0.008445937499999445,
          "durationTicks": 6,
          "midi": 70,
          "name": "A#4",
          "ticks": 144274,
          "time": 203.08819781250003,
          "velocity": 0.7874015748031497
        },
        {
          "duration": 0.008445937499999445,
          "durationTicks": 6,
          "midi": 45,
          "name": "A2",
          "ticks": 144274,
          "time": 203.08819781250003,
          "velocity": 0.3779527559055118
        },
        {
          "duration": 0.0014076562500235923,
          "durationTicks": 1,
          "midi": 69,
          "name": "A4",
          "ticks": 144404,
          "time": 203.271193125,
          "velocity": 0.3464566929133858
        },
        {
          "duration": 0.0014076562500235923,
          "durationTicks": 1,
          "midi": 35,
          "name": "B1",
          "ticks": 144404,
          "time": 203.271193125,
          "velocity": 0.8267716535433071
        },
        {
          "duration": 0.0014076562500235923,
          "durationTicks": 1,
          "midi": 48,
          "name": "C3",
          "ticks": 144404,
          "time": 203.271193125,
          "velocity": 0.8503937007874016
        },
        {
          "duration": 0.0014076562500235923,
          "durationTicks": 1,
          "midi": 45,
          "name": "A2",
          "ticks": 144404,
          "time": 203.271193125,
          "velocity": 0.3464566929133858
        },
        {
          "duration": 0.005630625000009104,
          "durationTicks": 4,
          "midi": 42,
          "name": "F#2",
          "ticks": 144530,
          "time": 203.44855781249998,
          "velocity": 0.4251968503937008
        },
        {
          "duration": 0.005630625000009104,
          "durationTicks": 4,
          "midi": 70,
          "name": "A#4",
          "ticks": 144530,
          "time": 203.44855781249998,
          "velocity": 0.6929133858267716
        },
        {
          "duration": 0.005630625000009104,
          "durationTicks": 4,
          "midi": 48,
          "name": "C3",
          "ticks": 144530,
          "time": 203.44855781249998,
          "velocity": 0.7244094488188977
        },
        {
          "duration": 0.0014076562499667489,
          "durationTicks": 1,
          "midi": 69,
          "name": "A4",
          "ticks": 144658,
          "time": 203.62873781250002,
          "velocity": 0.3464566929133858
        },
        {
          "duration": 0.022522500000007994,
          "durationTicks": 16,
          "midi": 42,
          "name": "F#2",
          "ticks": 144776,
          "time": 203.79484125,
          "velocity": 0.4251968503937008
        },
        {
          "duration": 0.022522500000007994,
          "durationTicks": 16,
          "midi": 70,
          "name": "A#4",
          "ticks": 144776,
          "time": 203.79484125,
          "velocity": 0.7244094488188977
        },
        {
          "duration": 0.022522500000007994,
          "durationTicks": 16,
          "midi": 35,
          "name": "B1",
          "ticks": 144776,
          "time": 203.79484125,
          "velocity": 0.7007874015748031
        },
        {
          "duration": 0.0014076562499951706,
          "durationTicks": 1,
          "midi": 69,
          "name": "A4",
          "ticks": 144914,
          "time": 203.9890978125,
          "velocity": 0.3464566929133858
        },
        {
          "duration": 0.019707187500017653,
          "durationTicks": 14,
          "midi": 42,
          "name": "F#2",
          "ticks": 145034,
          "time": 204.1580165625,
          "velocity": 0.4251968503937008
        },
        {
          "duration": 0.019707187500017653,
          "durationTicks": 14,
          "midi": 70,
          "name": "A#4",
          "ticks": 145034,
          "time": 204.1580165625,
          "velocity": 0.7874015748031497
        },
        {
          "duration": 0.019707187500017653,
          "durationTicks": 14,
          "midi": 45,
          "name": "A2",
          "ticks": 145034,
          "time": 204.1580165625,
          "velocity": 0.3779527559055118
        },
        {
          "duration": 0.01970718749998923,
          "durationTicks": 14,
          "midi": 69,
          "name": "A4",
          "ticks": 145162,
          "time": 204.33819656250003,
          "velocity": 0.3464566929133858
        },
        {
          "duration": 0.01970718749998923,
          "durationTicks": 14,
          "midi": 35,
          "name": "B1",
          "ticks": 145162,
          "time": 204.33819656250003,
          "velocity": 0.8267716535433071
        },
        {
          "duration": 0.01970718749998923,
          "durationTicks": 14,
          "midi": 48,
          "name": "C3",
          "ticks": 145162,
          "time": 204.33819656250003,
          "velocity": 0.8503937007874016
        },
        {
          "duration": 0.01970718749998923,
          "durationTicks": 14,
          "midi": 45,
          "name": "A2",
          "ticks": 145162,
          "time": 204.33819656250003,
          "velocity": 0.3464566929133858
        },
        {
          "duration": 0.025337812499998336,
          "durationTicks": 18,
          "midi": 42,
          "name": "F#2",
          "ticks": 145288,
          "time": 204.51556125000002,
          "velocity": 0.4251968503937008
        },
        {
          "duration": 0.025337812499998336,
          "durationTicks": 18,
          "midi": 70,
          "name": "A#4",
          "ticks": 145288,
          "time": 204.51556125000002,
          "velocity": 0.6929133858267716
        },
        {
          "duration": 0.025337812499998336,
          "durationTicks": 18,
          "midi": 48,
          "name": "C3",
          "ticks": 145288,
          "time": 204.51556125000002,
          "velocity": 0.7874015748031497
        },
        {
          "duration": 0.011261250000018208,
          "durationTicks": 8,
          "midi": 69,
          "name": "A4",
          "ticks": 145424,
          "time": 204.7070025,
          "velocity": 0.3464566929133858
        },
        {
          "duration": 0.0014076562499951706,
          "durationTicks": 1,
          "midi": 42,
          "name": "F#2",
          "ticks": 145556,
          "time": 204.892813125,
          "velocity": 0.4251968503937008
        },
        {
          "duration": 0.0014076562499951706,
          "durationTicks": 1,
          "midi": 70,
          "name": "A#4",
          "ticks": 145556,
          "time": 204.892813125,
          "velocity": 0.7244094488188977
        },
        {
          "duration": 0.0014076562499951706,
          "durationTicks": 1,
          "midi": 35,
          "name": "B1",
          "ticks": 145556,
          "time": 204.892813125,
          "velocity": 0.5748031496062992
        },
        {
          "duration": 0.0014076562499951706,
          "durationTicks": 1,
          "midi": 48,
          "name": "C3",
          "ticks": 145556,
          "time": 204.892813125,
          "velocity": 0.8818897637795275
        },
        {
          "duration": 0.022522499999979573,
          "durationTicks": 16,
          "midi": 69,
          "name": "A4",
          "ticks": 145672,
          "time": 205.05610125,
          "velocity": 0.3464566929133858
        },
        {
          "duration": 0.022522499999979573,
          "durationTicks": 16,
          "midi": 48,
          "name": "C3",
          "ticks": 145672,
          "time": 205.05610125,
          "velocity": 0.7244094488188977
        },
        {
          "duration": 0.0014076562499667489,
          "durationTicks": 1,
          "midi": 42,
          "name": "F#2",
          "ticks": 145810,
          "time": 205.25035781250003,
          "velocity": 0.4251968503937008
        },
        {
          "duration": 0.0014076562499667489,
          "durationTicks": 1,
          "midi": 56,
          "name": "G#3",
          "ticks": 145810,
          "time": 205.25035781250003,
          "velocity": 0.7874015748031497
        },
        {
          "duration": 0.0014076562499667489,
          "durationTicks": 1,
          "midi": 45,
          "name": "A2",
          "ticks": 145810,
          "time": 205.25035781250003,
          "velocity": 0.3779527559055118
        },
        {
          "duration": 0.028153124999988677,
          "durationTicks": 20,
          "midi": 69,
          "name": "A4",
          "ticks": 145932,
          "time": 205.422091875,
          "velocity": 0.4094488188976378
        },
        {
          "duration": 0.028153124999988677,
          "durationTicks": 20,
          "midi": 0,
          "name": "C-1",
          "ticks": 145932,
          "time": 205.422091875,
          "velocity": 0.6299212598425197
        },
        {
          "duration": 0.028153124999988677,
          "durationTicks": 20,
          "midi": 35,
          "name": "B1",
          "ticks": 145932,
          "time": 205.422091875,
          "velocity": 1
        },
        {
          "duration": 0.025337812500026757,
          "durationTicks": 18,
          "midi": 42,
          "name": "F#2",
          "ticks": 146056,
          "time": 205.59664125,
          "velocity": 0.4881889763779528
        },
        {
          "duration": 0.025337812500026757,
          "durationTicks": 18,
          "midi": 70,
          "name": "A#4",
          "ticks": 146056,
          "time": 205.59664125,
          "velocity": 0.7874015748031497
        },
        {
          "duration": 0.011261250000018208,
          "durationTicks": 8,
          "midi": 35,
          "name": "B1",
          "ticks": 146192,
          "time": 205.7880825,
          "velocity": 0.889763779527559
        },
        {
          "duration": 0.011261250000018208,
          "durationTicks": 8,
          "midi": 69,
          "name": "A4",
          "ticks": 146192,
          "time": 205.7880825,
          "velocity": 0.4094488188976378
        },
        {
          "duration": 0.0014076562500235923,
          "durationTicks": 1,
          "midi": 42,
          "name": "F#2",
          "ticks": 146322,
          "time": 205.9710778125,
          "velocity": 0.4881889763779528
        },
        {
          "duration": 0.0014076562500235923,
          "durationTicks": 1,
          "midi": 70,
          "name": "A#4",
          "ticks": 146322,
          "time": 205.9710778125,
          "velocity": 0.8188976377952756
        },
        {
          "duration": 0.0014076562500235923,
          "durationTicks": 1,
          "midi": 48,
          "name": "C3",
          "ticks": 146322,
          "time": 205.9710778125,
          "velocity": 0.9763779527559056
        },
        {
          "duration": 0.01689187499999889,
          "durationTicks": 12,
          "midi": 69,
          "name": "A4",
          "ticks": 146444,
          "time": 206.142811875,
          "velocity": 0.4094488188976378
        },
        {
          "duration": 0.019707187500017653,
          "durationTicks": 14,
          "midi": 42,
          "name": "F#2",
          "ticks": 146570,
          "time": 206.3201765625,
          "velocity": 0.4881889763779528
        },
        {
          "duration": 0.019707187500017653,
          "durationTicks": 14,
          "midi": 70,
          "name": "A#4",
          "ticks": 146570,
          "time": 206.3201765625,
          "velocity": 0.8503937007874016
        },
        {
          "duration": 0.019707187500017653,
          "durationTicks": 14,
          "midi": 45,
          "name": "A2",
          "ticks": 146570,
          "time": 206.3201765625,
          "velocity": 0.4094488188976378
        },
        {
          "duration": 0.011261249999989786,
          "durationTicks": 8,
          "midi": 69,
          "name": "A4",
          "ticks": 146704,
          "time": 206.50880250000003,
          "velocity": 0.4094488188976378
        },
        {
          "duration": 0.011261249999989786,
          "durationTicks": 8,
          "midi": 35,
          "name": "B1",
          "ticks": 146704,
          "time": 206.50880250000003,
          "velocity": 0.9212598425196851
        },
        {
          "duration": 0.011261249999989786,
          "durationTicks": 8,
          "midi": 45,
          "name": "A2",
          "ticks": 146704,
          "time": 206.50880250000003,
          "velocity": 0.3779527559055118
        },
        {
          "duration": 0.01689187499999889,
          "durationTicks": 12,
          "midi": 42,
          "name": "F#2",
          "ticks": 146830,
          "time": 206.68616718750002,
          "velocity": 0.4881889763779528
        },
        {
          "duration": 0.01689187499999889,
          "durationTicks": 12,
          "midi": 70,
          "name": "A#4",
          "ticks": 146830,
          "time": 206.68616718750002,
          "velocity": 0.7874015748031497
        },
        {
          "duration": 0.01407656250000855,
          "durationTicks": 10,
          "midi": 35,
          "name": "B1",
          "ticks": 146960,
          "time": 206.8691625,
          "velocity": 0.8582677165354331
        },
        {
          "duration": 0.01407656250000855,
          "durationTicks": 10,
          "midi": 69,
          "name": "A4",
          "ticks": 146960,
          "time": 206.8691625,
          "velocity": 0.4094488188976378
        },
        {
          "duration": 0.014076562499980128,
          "durationTicks": 10,
          "midi": 42,
          "name": "F#2",
          "ticks": 147088,
          "time": 207.04934250000002,
          "velocity": 0.4881889763779528
        },
        {
          "duration": 0.014076562499980128,
          "durationTicks": 10,
          "midi": 70,
          "name": "A#4",
          "ticks": 147088,
          "time": 207.04934250000002,
          "velocity": 0.8188976377952756
        },
        {
          "duration": 0.014076562499980128,
          "durationTicks": 10,
          "midi": 48,
          "name": "C3",
          "ticks": 147088,
          "time": 207.04934250000002,
          "velocity": 0.9448818897637795
        },
        {
          "duration": 0.022522499999979573,
          "durationTicks": 16,
          "midi": 69,
          "name": "A4",
          "ticks": 147208,
          "time": 207.21826125,
          "velocity": 0.4094488188976378
        },
        {
          "duration": 0.022522500000007994,
          "durationTicks": 16,
          "midi": 42,
          "name": "F#2",
          "ticks": 147338,
          "time": 207.4012565625,
          "velocity": 0.4881889763779528
        },
        {
          "duration": 0.022522500000007994,
          "durationTicks": 16,
          "midi": 70,
          "name": "A#4",
          "ticks": 147338,
          "time": 207.4012565625,
          "velocity": 0.8503937007874016
        },
        {
          "duration": 0.022522500000007994,
          "durationTicks": 16,
          "midi": 45,
          "name": "A2",
          "ticks": 147338,
          "time": 207.4012565625,
          "velocity": 0.47244094488188976
        },
        {
          "duration": 0.028153124999988677,
          "durationTicks": 20,
          "midi": 69,
          "name": "A4",
          "ticks": 147468,
          "time": 207.584251875,
          "velocity": 0.4094488188976378
        },
        {
          "duration": 0.028153124999988677,
          "durationTicks": 20,
          "midi": 35,
          "name": "B1",
          "ticks": 147468,
          "time": 207.584251875,
          "velocity": 0.9212598425196851
        },
        {
          "duration": 0.028153124999988677,
          "durationTicks": 20,
          "midi": 45,
          "name": "A2",
          "ticks": 147468,
          "time": 207.584251875,
          "velocity": 0.4094488188976378
        },
        {
          "duration": 0.01970718749998923,
          "durationTicks": 14,
          "midi": 42,
          "name": "F#2",
          "ticks": 147594,
          "time": 207.7616165625,
          "velocity": 0.4881889763779528
        },
        {
          "duration": 0.01970718749998923,
          "durationTicks": 14,
          "midi": 70,
          "name": "A#4",
          "ticks": 147594,
          "time": 207.7616165625,
          "velocity": 0.7874015748031497
        },
        {
          "duration": 0.025337812499998336,
          "durationTicks": 18,
          "midi": 35,
          "name": "B1",
          "ticks": 147720,
          "time": 207.93898125,
          "velocity": 0.8267716535433071
        },
        {
          "duration": 0.025337812499998336,
          "durationTicks": 18,
          "midi": 69,
          "name": "A4",
          "ticks": 147720,
          "time": 207.93898125,
          "velocity": 0.4094488188976378
        },
        {
          "duration": 0.0014076562500235923,
          "durationTicks": 1,
          "midi": 42,
          "name": "F#2",
          "ticks": 147858,
          "time": 208.1332378125,
          "velocity": 0.4881889763779528
        },
        {
          "duration": 0.0014076562500235923,
          "durationTicks": 1,
          "midi": 70,
          "name": "A#4",
          "ticks": 147858,
          "time": 208.1332378125,
          "velocity": 0.8188976377952756
        },
        {
          "duration": 0.0014076562500235923,
          "durationTicks": 1,
          "midi": 48,
          "name": "C3",
          "ticks": 147858,
          "time": 208.1332378125,
          "velocity": 0.9763779527559056
        },
        {
          "duration": 0.01689187499999889,
          "durationTicks": 12,
          "midi": 69,
          "name": "A4",
          "ticks": 147982,
          "time": 208.30778718750003,
          "velocity": 0.4094488188976378
        },
        {
          "duration": 0.0014076562499951706,
          "durationTicks": 1,
          "midi": 42,
          "name": "F#2",
          "ticks": 148114,
          "time": 208.4935978125,
          "velocity": 0.4881889763779528
        },
        {
          "duration": 0.0014076562499951706,
          "durationTicks": 1,
          "midi": 70,
          "name": "A#4",
          "ticks": 148114,
          "time": 208.4935978125,
          "velocity": 0.8503937007874016
        },
        {
          "duration": 0.0014076562499951706,
          "durationTicks": 1,
          "midi": 45,
          "name": "A2",
          "ticks": 148114,
          "time": 208.4935978125,
          "velocity": 0.47244094488188976
        },
        {
          "duration": 0.025337812500026757,
          "durationTicks": 18,
          "midi": 69,
          "name": "A4",
          "ticks": 148232,
          "time": 208.65970124999998,
          "velocity": 0.4094488188976378
        },
        {
          "duration": 0.025337812500026757,
          "durationTicks": 18,
          "midi": 35,
          "name": "B1",
          "ticks": 148232,
          "time": 208.65970124999998,
          "velocity": 0.9212598425196851
        },
        {
          "duration": 0.025337812500026757,
          "durationTicks": 18,
          "midi": 45,
          "name": "A2",
          "ticks": 148232,
          "time": 208.65970124999998,
          "velocity": 0.4094488188976378
        },
        {
          "duration": 0.025337812499998336,
          "durationTicks": 18,
          "midi": 42,
          "name": "F#2",
          "ticks": 148360,
          "time": 208.83988125000002,
          "velocity": 0.4881889763779528
        },
        {
          "duration": 0.025337812499998336,
          "durationTicks": 18,
          "midi": 70,
          "name": "A#4",
          "ticks": 148360,
          "time": 208.83988125000002,
          "velocity": 0.7874015748031497
        },
        {
          "duration": 0.011261250000018208,
          "durationTicks": 8,
          "midi": 35,
          "name": "B1",
          "ticks": 148496,
          "time": 209.0313225,
          "velocity": 0.8582677165354331
        },
        {
          "duration": 0.011261250000018208,
          "durationTicks": 8,
          "midi": 69,
          "name": "A4",
          "ticks": 148496,
          "time": 209.0313225,
          "velocity": 0.4094488188976378
        },
        {
          "duration": 0.022522499999979573,
          "durationTicks": 16,
          "midi": 42,
          "name": "F#2",
          "ticks": 148618,
          "time": 209.20305656250002,
          "velocity": 0.4881889763779528
        },
        {
          "duration": 0.022522499999979573,
          "durationTicks": 16,
          "midi": 70,
          "name": "A#4",
          "ticks": 148618,
          "time": 209.20305656250002,
          "velocity": 0.8188976377952756
        },
        {
          "duration": 0.022522499999979573,
          "durationTicks": 16,
          "midi": 48,
          "name": "C3",
          "ticks": 148618,
          "time": 209.20305656250002,
          "velocity": 0.9448818897637795
        },
        {
          "duration": 0.01689187499999889,
          "durationTicks": 12,
          "midi": 69,
          "name": "A4",
          "ticks": 148748,
          "time": 209.386051875,
          "velocity": 0.4094488188976378
        },
        {
          "duration": 0.014076562499980128,
          "durationTicks": 10,
          "midi": 42,
          "name": "F#2",
          "ticks": 148882,
          "time": 209.57467781250003,
          "velocity": 0.4881889763779528
        },
        {
          "duration": 0.014076562499980128,
          "durationTicks": 10,
          "midi": 70,
          "name": "A#4",
          "ticks": 148882,
          "time": 209.57467781250003,
          "velocity": 0.8503937007874016
        },
        {
          "duration": 0.014076562499980128,
          "durationTicks": 10,
          "midi": 45,
          "name": "A2",
          "ticks": 148882,
          "time": 209.57467781250003,
          "velocity": 0.47244094488188976
        },
        {
          "duration": 0.0014076562499951706,
          "durationTicks": 1,
          "midi": 69,
          "name": "A4",
          "ticks": 149014,
          "time": 209.76048843750002,
          "velocity": 0.4094488188976378
        },
        {
          "duration": 0.0014076562499951706,
          "durationTicks": 1,
          "midi": 35,
          "name": "B1",
          "ticks": 149014,
          "time": 209.76048843750002,
          "velocity": 0.9212598425196851
        },
        {
          "duration": 0.0014076562499951706,
          "durationTicks": 1,
          "midi": 45,
          "name": "A2",
          "ticks": 149014,
          "time": 209.76048843750002,
          "velocity": 0.4094488188976378
        },
        {
          "duration": 0.01126125000004663,
          "durationTicks": 8,
          "midi": 42,
          "name": "F#2",
          "ticks": 149138,
          "time": 209.93503781249998,
          "velocity": 0.4881889763779528
        },
        {
          "duration": 0.01126125000004663,
          "durationTicks": 8,
          "midi": 70,
          "name": "A#4",
          "ticks": 149138,
          "time": 209.93503781249998,
          "velocity": 0.7874015748031497
        },
        {
          "duration": 0.011261249999989786,
          "durationTicks": 8,
          "midi": 69,
          "name": "A4",
          "ticks": 149266,
          "time": 210.11521781250002,
          "velocity": 0.4094488188976378
        },
        {
          "duration": 0.011261249999989786,
          "durationTicks": 8,
          "midi": 35,
          "name": "B1",
          "ticks": 149266,
          "time": 210.11521781250002,
          "velocity": 0.8267716535433071
        },
        {
          "duration": 0.0014076562499951706,
          "durationTicks": 1,
          "midi": 42,
          "name": "F#2",
          "ticks": 149398,
          "time": 210.3010284375,
          "velocity": 0.4881889763779528
        },
        {
          "duration": 0.0014076562499951706,
          "durationTicks": 1,
          "midi": 70,
          "name": "A#4",
          "ticks": 149398,
          "time": 210.3010284375,
          "velocity": 0.8188976377952756
        },
        {
          "duration": 0.0014076562499951706,
          "durationTicks": 1,
          "midi": 48,
          "name": "C3",
          "ticks": 149398,
          "time": 210.3010284375,
          "velocity": 0.9763779527559056
        },
        {
          "duration": 0.01689187499999889,
          "durationTicks": 12,
          "midi": 69,
          "name": "A4",
          "ticks": 149514,
          "time": 210.46431656250002,
          "velocity": 0.4094488188976378
        },
        {
          "duration": 0.0014076562500235923,
          "durationTicks": 1,
          "midi": 42,
          "name": "F#2",
          "ticks": 149652,
          "time": 210.658573125,
          "velocity": 0.4881889763779528
        },
        {
          "duration": 0.0014076562500235923,
          "durationTicks": 1,
          "midi": 70,
          "name": "A#4",
          "ticks": 149652,
          "time": 210.658573125,
          "velocity": 0.8503937007874016
        },
        {
          "duration": 0.0014076562500235923,
          "durationTicks": 1,
          "midi": 45,
          "name": "A2",
          "ticks": 149652,
          "time": 210.658573125,
          "velocity": 0.47244094488188976
        },
        {
          "duration": 0.025337812499998336,
          "durationTicks": 18,
          "midi": 69,
          "name": "A4",
          "ticks": 149770,
          "time": 210.82467656250003,
          "velocity": 0.4094488188976378
        },
        {
          "duration": 0.025337812499998336,
          "durationTicks": 18,
          "midi": 35,
          "name": "B1",
          "ticks": 149770,
          "time": 210.82467656250003,
          "velocity": 0.9212598425196851
        },
        {
          "duration": 0.025337812499998336,
          "durationTicks": 18,
          "midi": 45,
          "name": "A2",
          "ticks": 149770,
          "time": 210.82467656250003,
          "velocity": 0.4094488188976378
        },
        {
          "duration": 0.011261249999989786,
          "durationTicks": 8,
          "midi": 42,
          "name": "F#2",
          "ticks": 149904,
          "time": 211.0133025,
          "velocity": 0.4881889763779528
        },
        {
          "duration": 0.011261249999989786,
          "durationTicks": 8,
          "midi": 70,
          "name": "A#4",
          "ticks": 149904,
          "time": 211.0133025,
          "velocity": 0.7874015748031497
        },
        {
          "duration": 0.01407656250000855,
          "durationTicks": 10,
          "midi": 35,
          "name": "B1",
          "ticks": 150032,
          "time": 211.1934825,
          "velocity": 0.8582677165354331
        },
        {
          "duration": 0.01407656250000855,
          "durationTicks": 10,
          "midi": 69,
          "name": "A4",
          "ticks": 150032,
          "time": 211.1934825,
          "velocity": 0.4094488188976378
        },
        {
          "duration": 0.0014076562499951706,
          "durationTicks": 1,
          "midi": 42,
          "name": "F#2",
          "ticks": 150164,
          "time": 211.379293125,
          "velocity": 0.4881889763779528
        },
        {
          "duration": 0.0014076562499951706,
          "durationTicks": 1,
          "midi": 70,
          "name": "A#4",
          "ticks": 150164,
          "time": 211.379293125,
          "velocity": 0.8188976377952756
        },
        {
          "duration": 0.0014076562499951706,
          "durationTicks": 1,
          "midi": 48,
          "name": "C3",
          "ticks": 150164,
          "time": 211.379293125,
          "velocity": 0.9448818897637795
        },
        {
          "duration": 0.019707187500017653,
          "durationTicks": 14,
          "midi": 69,
          "name": "A4",
          "ticks": 150284,
          "time": 211.548211875,
          "velocity": 0.4094488188976378
        },
        {
          "duration": 0.008445937499999445,
          "durationTicks": 6,
          "midi": 42,
          "name": "F#2",
          "ticks": 150418,
          "time": 211.73683781250003,
          "velocity": 0.4881889763779528
        },
        {
          "duration": 0.008445937499999445,
          "durationTicks": 6,
          "midi": 70,
          "name": "A#4",
          "ticks": 150418,
          "time": 211.73683781250003,
          "velocity": 0.8503937007874016
        },
        {
          "duration": 0.008445937499999445,
          "durationTicks": 6,
          "midi": 45,
          "name": "A2",
          "ticks": 150418,
          "time": 211.73683781250003,
          "velocity": 0.47244094488188976
        },
        {
          "duration": 0.0014076562499951706,
          "durationTicks": 1,
          "midi": 69,
          "name": "A4",
          "ticks": 150550,
          "time": 211.92264843750002,
          "velocity": 0.4094488188976378
        },
        {
          "duration": 0.0014076562499951706,
          "durationTicks": 1,
          "midi": 35,
          "name": "B1",
          "ticks": 150550,
          "time": 211.92264843750002,
          "velocity": 0.9212598425196851
        },
        {
          "duration": 0.0014076562499951706,
          "durationTicks": 1,
          "midi": 45,
          "name": "A2",
          "ticks": 150550,
          "time": 211.92264843750002,
          "velocity": 0.4094488188976378
        },
        {
          "duration": 0.014076562500036971,
          "durationTicks": 10,
          "midi": 42,
          "name": "F#2",
          "ticks": 150672,
          "time": 212.0943825,
          "velocity": 0.4881889763779528
        },
        {
          "duration": 0.014076562500036971,
          "durationTicks": 10,
          "midi": 70,
          "name": "A#4",
          "ticks": 150672,
          "time": 212.0943825,
          "velocity": 0.7874015748031497
        },
        {
          "duration": 0.005630625000009104,
          "durationTicks": 4,
          "midi": 69,
          "name": "A4",
          "ticks": 150804,
          "time": 212.280193125,
          "velocity": 0.4094488188976378
        },
        {
          "duration": 0.005630625000009104,
          "durationTicks": 4,
          "midi": 35,
          "name": "B1",
          "ticks": 150804,
          "time": 212.280193125,
          "velocity": 0.8267716535433071
        },
        {
          "duration": 0.011261249999989786,
          "durationTicks": 8,
          "midi": 42,
          "name": "F#2",
          "ticks": 150928,
          "time": 212.4547425,
          "velocity": 0.4881889763779528
        },
        {
          "duration": 0.011261249999989786,
          "durationTicks": 8,
          "midi": 70,
          "name": "A#4",
          "ticks": 150928,
          "time": 212.4547425,
          "velocity": 0.8188976377952756
        },
        {
          "duration": 0.011261249999989786,
          "durationTicks": 8,
          "midi": 48,
          "name": "C3",
          "ticks": 150928,
          "time": 212.4547425,
          "velocity": 0.9763779527559056
        },
        {
          "duration": 0.011261249999989786,
          "durationTicks": 8,
          "midi": 69,
          "name": "A4",
          "ticks": 151056,
          "time": 212.63492250000002,
          "velocity": 0.4094488188976378
        },
        {
          "duration": 0.022522500000007994,
          "durationTicks": 16,
          "midi": 42,
          "name": "F#2",
          "ticks": 151178,
          "time": 212.8066565625,
          "velocity": 0.4881889763779528
        },
        {
          "duration": 0.022522500000007994,
          "durationTicks": 16,
          "midi": 70,
          "name": "A#4",
          "ticks": 151178,
          "time": 212.8066565625,
          "velocity": 0.8503937007874016
        },
        {
          "duration": 0.022522500000007994,
          "durationTicks": 16,
          "midi": 45,
          "name": "A2",
          "ticks": 151178,
          "time": 212.8066565625,
          "velocity": 0.47244094488188976
        },
        {
          "duration": 0.0014076562499667489,
          "durationTicks": 1,
          "midi": 69,
          "name": "A4",
          "ticks": 151312,
          "time": 212.99528250000003,
          "velocity": 0.4094488188976378
        },
        {
          "duration": 0.0014076562499667489,
          "durationTicks": 1,
          "midi": 35,
          "name": "B1",
          "ticks": 151312,
          "time": 212.99528250000003,
          "velocity": 0.9212598425196851
        },
        {
          "duration": 0.0014076562499667489,
          "durationTicks": 1,
          "midi": 45,
          "name": "A2",
          "ticks": 151312,
          "time": 212.99528250000003,
          "velocity": 0.4094488188976378
        },
        {
          "duration": 0.019707187500017653,
          "durationTicks": 14,
          "midi": 42,
          "name": "F#2",
          "ticks": 151436,
          "time": 213.169831875,
          "velocity": 0.4881889763779528
        },
        {
          "duration": 0.019707187500017653,
          "durationTicks": 14,
          "midi": 70,
          "name": "A#4",
          "ticks": 151436,
          "time": 213.169831875,
          "velocity": 0.7874015748031497
        },
        {
          "duration": 0.011261249999989786,
          "durationTicks": 8,
          "midi": 69,
          "name": "A4",
          "ticks": 151570,
          "time": 213.3584578125,
          "velocity": 0.4094488188976378
        },
        {
          "duration": 0.011261249999989786,
          "durationTicks": 8,
          "midi": 35,
          "name": "B1",
          "ticks": 151570,
          "time": 213.3584578125,
          "velocity": 0.8582677165354331
        },
        {
          "duration": 0.0014076562499951706,
          "durationTicks": 1,
          "midi": 42,
          "name": "F#2",
          "ticks": 151698,
          "time": 213.5386378125,
          "velocity": 0.4881889763779528
        },
        {
          "duration": 0.0014076562499951706,
          "durationTicks": 1,
          "midi": 70,
          "name": "A#4",
          "ticks": 151698,
          "time": 213.5386378125,
          "velocity": 0.8188976377952756
        },
        {
          "duration": 0.0014076562499951706,
          "durationTicks": 1,
          "midi": 48,
          "name": "C3",
          "ticks": 151698,
          "time": 213.5386378125,
          "velocity": 0.9448818897637795
        },
        {
          "duration": 0.014076562499980128,
          "durationTicks": 10,
          "midi": 69,
          "name": "A4",
          "ticks": 151822,
          "time": 213.7131871875,
          "velocity": 0.4094488188976378
        },
        {
          "duration": 0.0014076562499667489,
          "durationTicks": 1,
          "midi": 42,
          "name": "F#2",
          "ticks": 151954,
          "time": 213.89899781250003,
          "velocity": 0.4881889763779528
        },
        {
          "duration": 0.0014076562499667489,
          "durationTicks": 1,
          "midi": 70,
          "name": "A#4",
          "ticks": 151954,
          "time": 213.89899781250003,
          "velocity": 0.8503937007874016
        },
        {
          "duration": 0.0014076562499667489,
          "durationTicks": 1,
          "midi": 45,
          "name": "A2",
          "ticks": 151954,
          "time": 213.89899781250003,
          "velocity": 0.47244094488188976
        },
        {
          "duration": 0.0014076562499951706,
          "durationTicks": 1,
          "midi": 69,
          "name": "A4",
          "ticks": 152086,
          "time": 214.08480843750002,
          "velocity": 0.4094488188976378
        },
        {
          "duration": 0.0014076562499951706,
          "durationTicks": 1,
          "midi": 41,
          "name": "F2",
          "ticks": 152086,
          "time": 214.08480843750002,
          "velocity": 0.5669291338582677
        },
        {
          "duration": 0.0014076562499951706,
          "durationTicks": 1,
          "midi": 35,
          "name": "B1",
          "ticks": 152086,
          "time": 214.08480843750002,
          "velocity": 0.9212598425196851
        },
        {
          "duration": 0.0014076562499951706,
          "durationTicks": 1,
          "midi": 45,
          "name": "A2",
          "ticks": 152086,
          "time": 214.08480843750002,
          "velocity": 0.4094488188976378
        },
        {
          "duration": 0.022522500000036416,
          "durationTicks": 16,
          "midi": 42,
          "name": "F#2",
          "ticks": 152202,
          "time": 214.2480965625,
          "velocity": 0.4881889763779528
        },
        {
          "duration": 0.022522500000036416,
          "durationTicks": 16,
          "midi": 70,
          "name": "A#4",
          "ticks": 152202,
          "time": 214.2480965625,
          "velocity": 0.7874015748031497
        },
        {
          "duration": 0.011261249999989786,
          "durationTicks": 8,
          "midi": 69,
          "name": "A4",
          "ticks": 152338,
          "time": 214.43953781250002,
          "velocity": 0.4094488188976378
        },
        {
          "duration": 0.011261249999989786,
          "durationTicks": 8,
          "midi": 35,
          "name": "B1",
          "ticks": 152338,
          "time": 214.43953781250002,
          "velocity": 0.8267716535433071
        },
        {
          "duration": 0.01970718749998923,
          "durationTicks": 14,
          "midi": 42,
          "name": "F#2",
          "ticks": 152458,
          "time": 214.6084565625,
          "velocity": 0.4881889763779528
        },
        {
          "duration": 0.01970718749998923,
          "durationTicks": 14,
          "midi": 70,
          "name": "A#4",
          "ticks": 152458,
          "time": 214.6084565625,
          "velocity": 0.8188976377952756
        },
        {
          "duration": 0.01970718749998923,
          "durationTicks": 14,
          "midi": 48,
          "name": "C3",
          "ticks": 152458,
          "time": 214.6084565625,
          "velocity": 0.9763779527559056
        },
        {
          "duration": 0.01970718749998923,
          "durationTicks": 14,
          "midi": 69,
          "name": "A4",
          "ticks": 152590,
          "time": 214.79426718750003,
          "velocity": 0.4094488188976378
        },
        {
          "duration": 0.0014076562500235923,
          "durationTicks": 1,
          "midi": 42,
          "name": "F#2",
          "ticks": 152724,
          "time": 214.982893125,
          "velocity": 0.4881889763779528
        },
        {
          "duration": 0.0014076562500235923,
          "durationTicks": 1,
          "midi": 70,
          "name": "A#4",
          "ticks": 152724,
          "time": 214.982893125,
          "velocity": 0.8503937007874016
        },
        {
          "duration": 0.0014076562500235923,
          "durationTicks": 1,
          "midi": 45,
          "name": "A2",
          "ticks": 152724,
          "time": 214.982893125,
          "velocity": 0.47244094488188976
        },
        {
          "duration": 0.0014076562499667489,
          "durationTicks": 1,
          "midi": 69,
          "name": "A4",
          "ticks": 152854,
          "time": 215.16588843750003,
          "velocity": 0.4094488188976378
        },
        {
          "duration": 0.0014076562499667489,
          "durationTicks": 1,
          "midi": 35,
          "name": "B1",
          "ticks": 152854,
          "time": 215.16588843750003,
          "velocity": 0.9212598425196851
        },
        {
          "duration": 0.0014076562499667489,
          "durationTicks": 1,
          "midi": 45,
          "name": "A2",
          "ticks": 152854,
          "time": 215.16588843750003,
          "velocity": 0.4094488188976378
        },
        {
          "duration": 0.008445937499999445,
          "durationTicks": 6,
          "midi": 42,
          "name": "F#2",
          "ticks": 152978,
          "time": 215.3404378125,
          "velocity": 0.4881889763779528
        },
        {
          "duration": 0.008445937499999445,
          "durationTicks": 6,
          "midi": 70,
          "name": "A#4",
          "ticks": 152978,
          "time": 215.3404378125,
          "velocity": 0.7874015748031497
        },
        {
          "duration": 0.01407656250000855,
          "durationTicks": 10,
          "midi": 35,
          "name": "B1",
          "ticks": 153104,
          "time": 215.5178025,
          "velocity": 0.8582677165354331
        },
        {
          "duration": 0.01407656250000855,
          "durationTicks": 10,
          "midi": 69,
          "name": "A4",
          "ticks": 153104,
          "time": 215.5178025,
          "velocity": 0.4094488188976378
        },
        {
          "duration": 0.014076562499980128,
          "durationTicks": 10,
          "midi": 42,
          "name": "F#2",
          "ticks": 153232,
          "time": 215.69798250000002,
          "velocity": 0.4881889763779528
        },
        {
          "duration": 0.014076562499980128,
          "durationTicks": 10,
          "midi": 70,
          "name": "A#4",
          "ticks": 153232,
          "time": 215.69798250000002,
          "velocity": 0.8188976377952756
        },
        {
          "duration": 0.014076562499980128,
          "durationTicks": 10,
          "midi": 48,
          "name": "C3",
          "ticks": 153232,
          "time": 215.69798250000002,
          "velocity": 0.9448818897637795
        },
        {
          "duration": 0.011261249999989786,
          "durationTicks": 8,
          "midi": 69,
          "name": "A4",
          "ticks": 153360,
          "time": 215.8781625,
          "velocity": 0.4094488188976378
        },
        {
          "duration": 0.022522500000007994,
          "durationTicks": 16,
          "midi": 42,
          "name": "F#2",
          "ticks": 153482,
          "time": 216.0498965625,
          "velocity": 0.4881889763779528
        },
        {
          "duration": 0.022522500000007994,
          "durationTicks": 16,
          "midi": 70,
          "name": "A#4",
          "ticks": 153482,
          "time": 216.0498965625,
          "velocity": 0.8503937007874016
        },
        {
          "duration": 0.022522500000007994,
          "durationTicks": 16,
          "midi": 45,
          "name": "A2",
          "ticks": 153482,
          "time": 216.0498965625,
          "velocity": 0.47244094488188976
        },
        {
          "duration": 0.0014076562499951706,
          "durationTicks": 1,
          "midi": 69,
          "name": "A4",
          "ticks": 153622,
          "time": 216.24696843750002,
          "velocity": 0.4094488188976378
        },
        {
          "duration": 0.0014076562499951706,
          "durationTicks": 1,
          "midi": 35,
          "name": "B1",
          "ticks": 153622,
          "time": 216.24696843750002,
          "velocity": 0.9212598425196851
        },
        {
          "duration": 0.0014076562499951706,
          "durationTicks": 1,
          "midi": 45,
          "name": "A2",
          "ticks": 153622,
          "time": 216.24696843750002,
          "velocity": 0.4094488188976378
        },
        {
          "duration": 0.008445937499999445,
          "durationTicks": 6,
          "midi": 42,
          "name": "F#2",
          "ticks": 153744,
          "time": 216.4187025,
          "velocity": 0.4881889763779528
        },
        {
          "duration": 0.008445937499999445,
          "durationTicks": 6,
          "midi": 70,
          "name": "A#4",
          "ticks": 153744,
          "time": 216.4187025,
          "velocity": 0.7874015748031497
        },
        {
          "duration": 0.028153124999988677,
          "durationTicks": 20,
          "midi": 35,
          "name": "B1",
          "ticks": 153864,
          "time": 216.58762125,
          "velocity": 0.8267716535433071
        },
        {
          "duration": 0.028153124999988677,
          "durationTicks": 20,
          "midi": 69,
          "name": "A4",
          "ticks": 153864,
          "time": 216.58762125,
          "velocity": 0.4094488188976378
        },
        {
          "duration": 0.01689187499999889,
          "durationTicks": 12,
          "midi": 42,
          "name": "F#2",
          "ticks": 153994,
          "time": 216.7706165625,
          "velocity": 0.4881889763779528
        },
        {
          "duration": 0.01689187499999889,
          "durationTicks": 12,
          "midi": 70,
          "name": "A#4",
          "ticks": 153994,
          "time": 216.7706165625,
          "velocity": 0.8188976377952756
        },
        {
          "duration": 0.01689187499999889,
          "durationTicks": 12,
          "midi": 48,
          "name": "C3",
          "ticks": 153994,
          "time": 216.7706165625,
          "velocity": 0.8818897637795275
        },
        {
          "duration": 0.022522499999979573,
          "durationTicks": 16,
          "midi": 69,
          "name": "A4",
          "ticks": 154120,
          "time": 216.94798125000003,
          "velocity": 0.4094488188976378
        },
        {
          "duration": 0.019707187500017653,
          "durationTicks": 14,
          "midi": 42,
          "name": "F#2",
          "ticks": 154250,
          "time": 217.1309765625,
          "velocity": 0.4881889763779528
        },
        {
          "duration": 0.019707187500017653,
          "durationTicks": 14,
          "midi": 70,
          "name": "A#4",
          "ticks": 154250,
          "time": 217.1309765625,
          "velocity": 0.8503937007874016
        },
        {
          "duration": 0.019707187500017653,
          "durationTicks": 14,
          "midi": 45,
          "name": "A2",
          "ticks": 154250,
          "time": 217.1309765625,
          "velocity": 0.47244094488188976
        },
        {
          "duration": 0.0014076562499951706,
          "durationTicks": 1,
          "midi": 69,
          "name": "A4",
          "ticks": 154380,
          "time": 217.31397187500002,
          "velocity": 0.4094488188976378
        },
        {
          "duration": 0.0014076562499951706,
          "durationTicks": 1,
          "midi": 35,
          "name": "B1",
          "ticks": 154380,
          "time": 217.31397187500002,
          "velocity": 0.9212598425196851
        },
        {
          "duration": 0.0014076562499951706,
          "durationTicks": 1,
          "midi": 45,
          "name": "A2",
          "ticks": 154380,
          "time": 217.31397187500002,
          "velocity": 0.4094488188976378
        },
        {
          "duration": 0.011261250000018208,
          "durationTicks": 8,
          "midi": 42,
          "name": "F#2",
          "ticks": 154514,
          "time": 217.5025978125,
          "velocity": 0.4881889763779528
        },
        {
          "duration": 0.011261250000018208,
          "durationTicks": 8,
          "midi": 70,
          "name": "A#4",
          "ticks": 154514,
          "time": 217.5025978125,
          "velocity": 0.7874015748031497
        },
        {
          "duration": 0.011261250000018208,
          "durationTicks": 8,
          "midi": 48,
          "name": "C3",
          "ticks": 154514,
          "time": 217.5025978125,
          "velocity": 0.8818897637795275
        },
        {
          "duration": 0.01407656250000855,
          "durationTicks": 10,
          "midi": 35,
          "name": "B1",
          "ticks": 154640,
          "time": 217.6799625,
          "velocity": 0.8582677165354331
        },
        {
          "duration": 0.01407656250000855,
          "durationTicks": 10,
          "midi": 69,
          "name": "A4",
          "ticks": 154640,
          "time": 217.6799625,
          "velocity": 0.4094488188976378
        },
        {
          "duration": 0.022522499999979573,
          "durationTicks": 16,
          "midi": 42,
          "name": "F#2",
          "ticks": 154762,
          "time": 217.85169656250002,
          "velocity": 0.4881889763779528
        },
        {
          "duration": 0.022522499999979573,
          "durationTicks": 16,
          "midi": 70,
          "name": "A#4",
          "ticks": 154762,
          "time": 217.85169656250002,
          "velocity": 0.8188976377952756
        },
        {
          "duration": 0.022522499999979573,
          "durationTicks": 16,
          "midi": 48,
          "name": "C3",
          "ticks": 154762,
          "time": 217.85169656250002,
          "velocity": 0.9763779527559056
        },
        {
          "duration": 0.01689187499999889,
          "durationTicks": 12,
          "midi": 69,
          "name": "A4",
          "ticks": 154892,
          "time": 218.034691875,
          "velocity": 0.4094488188976378
        },
        {
          "duration": 0.0014076562499951706,
          "durationTicks": 1,
          "midi": 42,
          "name": "F#2",
          "ticks": 155028,
          "time": 218.22613312500002,
          "velocity": 0.4881889763779528
        },
        {
          "duration": 0.0014076562499951706,
          "durationTicks": 1,
          "midi": 70,
          "name": "A#4",
          "ticks": 155028,
          "time": 218.22613312500002,
          "velocity": 0.8503937007874016
        },
        {
          "duration": 0.0014076562499951706,
          "durationTicks": 1,
          "midi": 48,
          "name": "C3",
          "ticks": 155028,
          "time": 218.22613312500002,
          "velocity": 0.8503937007874016
        },
        {
          "duration": 0.0014076562499951706,
          "durationTicks": 1,
          "midi": 45,
          "name": "A2",
          "ticks": 155028,
          "time": 218.22613312500002,
          "velocity": 0.47244094488188976
        },
        {
          "duration": 0.0014076562499951706,
          "durationTicks": 1,
          "midi": 69,
          "name": "A4",
          "ticks": 155158,
          "time": 218.40912843750002,
          "velocity": 0.4094488188976378
        },
        {
          "duration": 0.0014076562499951706,
          "durationTicks": 1,
          "midi": 41,
          "name": "F2",
          "ticks": 155158,
          "time": 218.40912843750002,
          "velocity": 0.6299212598425197
        },
        {
          "duration": 0.0014076562499951706,
          "durationTicks": 1,
          "midi": 35,
          "name": "B1",
          "ticks": 155158,
          "time": 218.40912843750002,
          "velocity": 0.9212598425196851
        },
        {
          "duration": 0.0014076562499951706,
          "durationTicks": 1,
          "midi": 45,
          "name": "A2",
          "ticks": 155158,
          "time": 218.40912843750002,
          "velocity": 0.4094488188976378
        },
        {
          "duration": 0.008445937499999445,
          "durationTicks": 6,
          "midi": 42,
          "name": "F#2",
          "ticks": 155282,
          "time": 218.58367781249999,
          "velocity": 0.4881889763779528
        },
        {
          "duration": 0.008445937499999445,
          "durationTicks": 6,
          "midi": 70,
          "name": "A#4",
          "ticks": 155282,
          "time": 218.58367781249999,
          "velocity": 0.7874015748031497
        },
        {
          "duration": 0.01689187499999889,
          "durationTicks": 12,
          "midi": 35,
          "name": "B1",
          "ticks": 155408,
          "time": 218.7610425,
          "velocity": 0.8267716535433071
        },
        {
          "duration": 0.01689187499999889,
          "durationTicks": 12,
          "midi": 69,
          "name": "A4",
          "ticks": 155408,
          "time": 218.7610425,
          "velocity": 0.4094488188976378
        },
        {
          "duration": 0.03378374999999778,
          "durationTicks": 24,
          "midi": 42,
          "name": "F#2",
          "ticks": 155528,
          "time": 218.92996125,
          "velocity": 0.4881889763779528
        },
        {
          "duration": 0.03378374999999778,
          "durationTicks": 24,
          "midi": 70,
          "name": "A#4",
          "ticks": 155528,
          "time": 218.92996125,
          "velocity": 0.8188976377952756
        },
        {
          "duration": 0.03378374999999778,
          "durationTicks": 24,
          "midi": 48,
          "name": "C3",
          "ticks": 155528,
          "time": 218.92996125,
          "velocity": 0.9763779527559056
        },
        {
          "duration": 0.01689187499999889,
          "durationTicks": 12,
          "midi": 69,
          "name": "A4",
          "ticks": 155660,
          "time": 219.115771875,
          "velocity": 0.4094488188976378
        },
        {
          "duration": 0.0014076562500235923,
          "durationTicks": 1,
          "midi": 42,
          "name": "F#2",
          "ticks": 155798,
          "time": 219.3100284375,
          "velocity": 0.4881889763779528
        },
        {
          "duration": 0.0014076562500235923,
          "durationTicks": 1,
          "midi": 70,
          "name": "A#4",
          "ticks": 155798,
          "time": 219.3100284375,
          "velocity": 0.8503937007874016
        },
        {
          "duration": 0.0014076562500235923,
          "durationTicks": 1,
          "midi": 45,
          "name": "A2",
          "ticks": 155798,
          "time": 219.3100284375,
          "velocity": 0.47244094488188976
        },
        {
          "duration": 0.03659906249998812,
          "durationTicks": 26,
          "midi": 69,
          "name": "A4",
          "ticks": 155916,
          "time": 219.47613187500002,
          "velocity": 0.4094488188976378
        },
        {
          "duration": 0.03659906249998812,
          "durationTicks": 26,
          "midi": 35,
          "name": "B1",
          "ticks": 155916,
          "time": 219.47613187500002,
          "velocity": 0.9212598425196851
        },
        {
          "duration": 0.03659906249998812,
          "durationTicks": 26,
          "midi": 45,
          "name": "A2",
          "ticks": 155916,
          "time": 219.47613187500002,
          "velocity": 0.4094488188976378
        },
        {
          "duration": 0.022522499999979573,
          "durationTicks": 16,
          "midi": 42,
          "name": "F#2",
          "ticks": 156040,
          "time": 219.65068125000002,
          "velocity": 0.4881889763779528
        },
        {
          "duration": 0.022522499999979573,
          "durationTicks": 16,
          "midi": 70,
          "name": "A#4",
          "ticks": 156040,
          "time": 219.65068125000002,
          "velocity": 0.7874015748031497
        },
        {
          "duration": 0.022522500000007994,
          "durationTicks": 16,
          "midi": 35,
          "name": "B1",
          "ticks": 156168,
          "time": 219.83086125,
          "velocity": 0.8582677165354331
        },
        {
          "duration": 0.022522500000007994,
          "durationTicks": 16,
          "midi": 69,
          "name": "A4",
          "ticks": 156168,
          "time": 219.83086125,
          "velocity": 0.4094488188976378
        },
        {
          "duration": 0.01970718749998923,
          "durationTicks": 14,
          "midi": 42,
          "name": "F#2",
          "ticks": 156298,
          "time": 220.01385656250002,
          "velocity": 0.4881889763779528
        },
        {
          "duration": 0.01970718749998923,
          "durationTicks": 14,
          "midi": 70,
          "name": "A#4",
          "ticks": 156298,
          "time": 220.01385656250002,
          "velocity": 0.8188976377952756
        },
        {
          "duration": 0.01970718749998923,
          "durationTicks": 14,
          "midi": 48,
          "name": "C3",
          "ticks": 156298,
          "time": 220.01385656250002,
          "velocity": 0.9448818897637795
        },
        {
          "duration": 0.01407656250000855,
          "durationTicks": 10,
          "midi": 69,
          "name": "A4",
          "ticks": 156428,
          "time": 220.196851875,
          "velocity": 0.4094488188976378
        },
        {
          "duration": 0.0014076562499951706,
          "durationTicks": 1,
          "midi": 42,
          "name": "F#2",
          "ticks": 156566,
          "time": 220.3911084375,
          "velocity": 0.4881889763779528
        },
        {
          "duration": 0.0014076562499951706,
          "durationTicks": 1,
          "midi": 70,
          "name": "A#4",
          "ticks": 156566,
          "time": 220.3911084375,
          "velocity": 0.8503937007874016
        },
        {
          "duration": 0.0014076562499951706,
          "durationTicks": 1,
          "midi": 45,
          "name": "A2",
          "ticks": 156566,
          "time": 220.3911084375,
          "velocity": 0.47244094488188976
        },
        {
          "duration": 0.0014076562499951706,
          "durationTicks": 1,
          "midi": 69,
          "name": "A4",
          "ticks": 156694,
          "time": 220.57128843750002,
          "velocity": 0.4094488188976378
        },
        {
          "duration": 0.0014076562499951706,
          "durationTicks": 1,
          "midi": 0,
          "name": "C-1",
          "ticks": 156694,
          "time": 220.57128843750002,
          "velocity": 0.47244094488188976
        },
        {
          "duration": 0.0014076562499951706,
          "durationTicks": 1,
          "midi": 35,
          "name": "B1",
          "ticks": 156694,
          "time": 220.57128843750002,
          "velocity": 0.9212598425196851
        },
        {
          "duration": 0.0014076562499951706,
          "durationTicks": 1,
          "midi": 45,
          "name": "A2",
          "ticks": 156694,
          "time": 220.57128843750002,
          "velocity": 0.4094488188976378
        },
        {
          "duration": 0.022522500000036416,
          "durationTicks": 16,
          "midi": 42,
          "name": "F#2",
          "ticks": 156810,
          "time": 220.7345765625,
          "velocity": 0.4881889763779528
        },
        {
          "duration": 0.022522500000036416,
          "durationTicks": 16,
          "midi": 70,
          "name": "A#4",
          "ticks": 156810,
          "time": 220.7345765625,
          "velocity": 0.7874015748031497
        },
        {
          "duration": 0.011261250000018208,
          "durationTicks": 8,
          "midi": 35,
          "name": "B1",
          "ticks": 156944,
          "time": 220.9232025,
          "velocity": 0.8267716535433071
        },
        {
          "duration": 0.011261250000018208,
          "durationTicks": 8,
          "midi": 69,
          "name": "A4",
          "ticks": 156944,
          "time": 220.9232025,
          "velocity": 0.4094488188976378
        },
        {
          "duration": 0.0014076562500235923,
          "durationTicks": 1,
          "midi": 42,
          "name": "F#2",
          "ticks": 157074,
          "time": 221.1061978125,
          "velocity": 0.4881889763779528
        },
        {
          "duration": 0.0014076562500235923,
          "durationTicks": 1,
          "midi": 70,
          "name": "A#4",
          "ticks": 157074,
          "time": 221.1061978125,
          "velocity": 0.8188976377952756
        },
        {
          "duration": 0.0014076562500235923,
          "durationTicks": 1,
          "midi": 48,
          "name": "C3",
          "ticks": 157074,
          "time": 221.1061978125,
          "velocity": 0.9763779527559056
        },
        {
          "duration": 0.01689187499999889,
          "durationTicks": 12,
          "midi": 69,
          "name": "A4",
          "ticks": 157196,
          "time": 221.277931875,
          "velocity": 0.4094488188976378
        },
        {
          "duration": 0.0014076562500235923,
          "durationTicks": 1,
          "midi": 42,
          "name": "F#2",
          "ticks": 157332,
          "time": 221.469373125,
          "velocity": 0.4881889763779528
        },
        {
          "duration": 0.0014076562500235923,
          "durationTicks": 1,
          "midi": 70,
          "name": "A#4",
          "ticks": 157332,
          "time": 221.469373125,
          "velocity": 0.8503937007874016
        },
        {
          "duration": 0.0014076562500235923,
          "durationTicks": 1,
          "midi": 45,
          "name": "A2",
          "ticks": 157332,
          "time": 221.469373125,
          "velocity": 0.47244094488188976
        },
        {
          "duration": 0.028153124999988677,
          "durationTicks": 20,
          "midi": 69,
          "name": "A4",
          "ticks": 157450,
          "time": 221.63547656250003,
          "velocity": 0.4094488188976378
        },
        {
          "duration": 0.028153124999988677,
          "durationTicks": 20,
          "midi": 35,
          "name": "B1",
          "ticks": 157450,
          "time": 221.63547656250003,
          "velocity": 0.9212598425196851
        },
        {
          "duration": 0.028153124999988677,
          "durationTicks": 20,
          "midi": 45,
          "name": "A2",
          "ticks": 157450,
          "time": 221.63547656250003,
          "velocity": 0.4094488188976378
        },
        {
          "duration": 0.01407656250000855,
          "durationTicks": 10,
          "midi": 42,
          "name": "F#2",
          "ticks": 157586,
          "time": 221.8269178125,
          "velocity": 0.4881889763779528
        },
        {
          "duration": 0.01407656250000855,
          "durationTicks": 10,
          "midi": 70,
          "name": "A#4",
          "ticks": 157586,
          "time": 221.8269178125,
          "velocity": 0.7874015748031497
        },
        {
          "duration": 0.01407656250000855,
          "durationTicks": 10,
          "midi": 48,
          "name": "C3",
          "ticks": 157586,
          "time": 221.8269178125,
          "velocity": 0.9763779527559056
        },
        {
          "duration": 0.0014076562499951706,
          "durationTicks": 1,
          "midi": 69,
          "name": "A4",
          "ticks": 157714,
          "time": 222.0070978125,
          "velocity": 0.4094488188976378
        },
        {
          "duration": 0.0014076562499951706,
          "durationTicks": 1,
          "midi": 48,
          "name": "C3",
          "ticks": 157714,
          "time": 222.0070978125,
          "velocity": 0.7874015748031497
        },
        {
          "duration": 0.0014076562499951706,
          "durationTicks": 1,
          "midi": 42,
          "name": "F#2",
          "ticks": 157844,
          "time": 222.190093125,
          "velocity": 0.4881889763779528
        },
        {
          "duration": 0.0014076562499951706,
          "durationTicks": 1,
          "midi": 70,
          "name": "A#4",
          "ticks": 157844,
          "time": 222.190093125,
          "velocity": 0.8188976377952756
        },
        {
          "duration": 0.0014076562499951706,
          "durationTicks": 1,
          "midi": 35,
          "name": "B1",
          "ticks": 157844,
          "time": 222.190093125,
          "velocity": 0.8582677165354331
        },
        {
          "duration": 0.0014076562499951706,
          "durationTicks": 1,
          "midi": 48,
          "name": "C3",
          "ticks": 157844,
          "time": 222.190093125,
          "velocity": 0.9763779527559056
        },
        {
          "duration": 0.022522499999979573,
          "durationTicks": 16,
          "midi": 69,
          "name": "A4",
          "ticks": 157960,
          "time": 222.35338125,
          "velocity": 0.4094488188976378
        },
        {
          "duration": 0.022522499999979573,
          "durationTicks": 16,
          "midi": 48,
          "name": "C3",
          "ticks": 157960,
          "time": 222.35338125,
          "velocity": 0.8818897637795275
        },
        {
          "duration": 0.01970718749998923,
          "durationTicks": 14,
          "midi": 42,
          "name": "F#2",
          "ticks": 158092,
          "time": 222.53919187500003,
          "velocity": 0.4881889763779528
        },
        {
          "duration": 0.01970718749998923,
          "durationTicks": 14,
          "midi": 75,
          "name": "D#5",
          "ticks": 158092,
          "time": 222.53919187500003,
          "velocity": 0.6299212598425197
        },
        {
          "duration": 0.01970718749998923,
          "durationTicks": 14,
          "midi": 35,
          "name": "B1",
          "ticks": 158092,
          "time": 222.53919187500003,
          "velocity": 0.8582677165354331
        },
        {
          "duration": 0.01970718749998923,
          "durationTicks": 14,
          "midi": 45,
          "name": "A2",
          "ticks": 158092,
          "time": 222.53919187500003,
          "velocity": 0.47244094488188976
        }
      ],
      "endOfTrackTicks": 161280
    },
    {
      "channel": 0,
      "controlChanges": {},
      "pitchBends": [],
      "instrument": {
        "family": "piano",
        "number": 0,
        "name": "acoustic grand piano"
      },
      "name": "GS/RESET",
      "notes": [],
      "endOfTrackTicks": 6144
    }
  ]
}
